<?xml version="1.0" encoding="utf-8"?>
<!-- Generator: Adobe Illustrator 19.1.0, SVG Export Plug-In . SVG Version: 6.00 Build 0)  -->
<svg version="1.1" xmlns="http://www.w3.org/2000/svg" xmlns:xlink="http://www.w3.org/1999/xlink" x="0px" y="0px"
	 viewBox="0 0 110 110" style="enable-background:new 0 0 110 110;" xml:space="preserve">
<style type="text/css">
	.st0{fill:none;}
</style>
<g id="レイヤー_1">
	<g>
		<path d="M558.9-273.3c-0.3,0-0.7-0.1-1-0.2c-1-0.5-1.3-1.7-0.8-2.7c5.7-10.4,5.1-31.9-1.1-37.6c-8.1-7.5-8.9-15.9-3-29.8
			c3.1-7.3,2.6-10.6,2-12c-0.5-1.1-1.2-1.3-1.2-1.3c-0.1,0-0.2-0.1-0.4-0.1c-5-2.5-9.7-2.6-13.1-0.4c-3.4,2.2-5.2,6.4-5,11.5
			c0.1,2.4,0.5,3.8,0.8,5.2c0.8,2.9,1.5,5.7,0.1,15.1c-1.5,10.7,1.2,14.1,6.1,20.3c1.8,2.3,3.9,4.9,6.1,8.3
			c8.7,13.6,1.6,22,1.3,22.4c-0.7,0.8-2,0.9-2.8,0.2c-0.8-0.7-0.9-2-0.2-2.8c0.2-0.3,5.3-6.7-1.7-17.6c-2.1-3.2-4.1-5.8-5.8-8
			c-5.1-6.4-8.7-11-7-23.4c1.2-8.7,0.6-10.9,0-13.5c-0.4-1.5-0.9-3.2-1-6.1c-0.3-6.6,2.2-12.1,6.8-15c4.6-3,10.8-2.9,17,0.1
			c0.7,0.2,2.3,1,3.4,3.2c1.7,3.4,1.1,8.6-1.8,15.5c-6,14-3.8,19.8,2,25.2c8,7.5,8,31.3,1.9,42.4
			C560.3-273.7,559.6-273.3,558.9-273.3z"/>
		<path d="M568.2-274.8c-0.8,0-1.5-0.5-1.9-1.3c-0.4-1,0.1-2.2,1.1-2.6c0.3-0.1,7.2-3.1,5-13.2c-0.8-4-3.1-8.6-5.5-13.4
			c-4.4-9-9.5-19.1-7.3-29.9c2.1-10,4.1-13.2,5.6-15.5c1.4-2.1,2.1-3.3,1.9-10.3c-0.4-11.2,6.5-17.7,13.4-19.2
			c6.9-1.5,13.2,1.6,15.7,7.7c4.3,10.4,0.6,15.6-3.1,20.7c-1,1.3-1.9,2.7-2.8,4.1c-2.4,4.1-6.8,11.8-6.2,20.1
			c0.5,7.2,0.5,7.2,4.3,13.6l0.4,0.7c3.4,5.7,6.5,18,2.5,27.5c-2.3,5.6-6.8,9.4-13,10.9c-1.1,0.3-2.2-0.4-2.4-1.5
			c-0.3-1.1,0.4-2.2,1.5-2.4c5-1.2,8.5-4.1,10.3-8.6c3.4-8.1,0.6-19.1-2.3-23.9l-0.4-0.7c-4.2-7.1-4.3-7.4-4.8-15.4
			c-0.6-9.5,4.2-17.9,6.8-22.4c0.9-1.6,2-3.1,3-4.5c3.4-4.7,6.1-8.4,2.6-16.8c-2-4.9-7.1-6.2-11.1-5.3c-4.9,1.1-10.6,5.7-10.3,15.2
			c0.3,7.9-0.7,9.7-2.5,12.6c-1.3,2.1-3.1,4.9-5,14.1c-1.9,9.4,2.6,18.5,6.9,27.3c2.5,5,4.9,9.8,5.8,14.4
			c2.2,10.8-3.9,16.3-7.5,17.8C568.7-274.9,568.4-274.8,568.2-274.8z"/>
		<path d="M579.7-284.3c-0.2,0-0.5,0-0.7-0.1c-1-0.4-1.6-1.5-1.2-2.6c0.1-0.2,5.8-15.9-2.2-26.6c-7.1-9.5-8.1-20.1-2.9-30.8
			c2.9-6,5.1-15.5,5.1-15.6c0.2-1.1,1.3-1.8,2.4-1.5c1.1,0.2,1.7,1.3,1.5,2.4c-0.1,0.4-2.3,10-5.4,16.4c-4.5,9.4-3.6,18.4,2.6,26.7
			c9.3,12.5,3,29.7,2.8,30.4C581.2-284.8,580.5-284.3,579.7-284.3z"/>
		<path d="M556.7-286.8c-0.1,0-0.2,0-0.3,0c-1.1-0.2-1.9-1.2-1.7-2.3c1-6.8,0.4-7.5-2.2-11c-0.4-0.5-0.9-1.1-1.4-1.8
			c-1.8-2.5-3.2-3.4-4.4-4.2c-2.5-1.7-4.1-3.1-6.1-8.8c-3.5-10.1,3-30,3.2-30.8c0.3-1,1.5-1.6,2.5-1.3c1,0.3,1.6,1.5,1.3,2.5
			c-0.1,0.2-6.4,19.4-3.3,28.2c1.7,4.9,2.8,5.6,4.6,6.8c1.4,1,3.2,2.1,5.4,5.2c0.5,0.7,0.9,1.2,1.3,1.7c3.2,4.2,4.2,5.9,3,14
			C558.5-287.6,557.6-286.8,556.7-286.8z"/>
		<path d="M600.7-277.1c-0.6,0-1.2-0.3-1.6-0.8c-0.7-0.9-0.5-2.1,0.4-2.8c8.8-6.6,8.7-18.4,8.7-28.8c0-3.4,0-6.6,0.3-9.4
			c1.2-9.8,4-17.1,4.6-18.4c2.2-10.9,2.2-17.8-0.1-20.6c-1.3-1.6-3.5-1.8-6-1.8c-2.8,0-6.7,9.5-7.8,19.2c-0.4,3.8-1.6,6.4-2.7,9
			c-1.6,3.7-3,6.9-2,12.9c1,6.1,2.3,9.8,3.5,13.3c0.9,2.7,1.9,5.4,2.7,9.1c2,9.3-7,17.5-7.4,17.9c-0.8,0.7-2.1,0.7-2.8-0.1
			c-0.7-0.8-0.7-2.1,0.1-2.8l0,0c0.1-0.1,7.6-7.1,6.1-14.1c-0.7-3.4-1.6-5.9-2.6-8.6c-1.3-3.7-2.7-7.6-3.7-14
			c-1.1-7.2,0.6-11.3,2.3-15.2c1.1-2.4,2.1-4.7,2.4-7.9c0.9-7.9,4.5-22.8,11.7-22.8c2.4,0,6.4,0,9.1,3.2c3.2,3.9,3.5,11.6,0.9,24.2
			c0,0.1-0.1,0.3-0.1,0.4c0,0.1-3.2,7.4-4.3,17.4c-0.3,2.5-0.3,5.6-0.3,8.9c0.1,10.8,0.2,24.2-10.3,32
			C601.5-277.2,601.1-277.1,600.7-277.1z"/>
		<path d="M602.4-302.1c-0.8,0-1.5-0.5-1.8-1.2c-3.2-7.4-2.5-19.1,0-25.1c2.1-4.9,3.8-17.8,3.9-18c0.1-1.1,1.1-1.9,2.2-1.7
			c1.1,0.1,1.9,1.1,1.7,2.2c-0.1,0.6-1.8,13.6-4.1,19c-2.2,5.1-2.6,15.8,0,21.9c0.4,1,0,2.2-1.1,2.6
			C602.9-302.2,602.7-302.1,602.4-302.1z"/>
	</g>
	<g>
		<path d="M99-330.8c0-7.7-3.2-12.5-6-14.4c-0.7-0.5-1.5-0.8-2.2-1c0.4-3.5,0.2-9.9-5.2-15.1c-5.3-5.1-9.9-6.4-17-4.9
			c-1.5-3.2-5.8-9.3-16.6-9c-10.7-0.4-15,5.8-16.6,9c-7.1-1.5-11.7-0.2-17,4.9c-5.4,5.2-5.6,11.6-5.2,15.1c-0.7,0.2-1.5,0.5-2.2,1
			c-2.9,1.9-6,6.7-6,14.4c-0.1,19.5,17.6,29.3,28.9,33.6c-0.8,1.5-1.5,3.6-1.4,6.8C32.7-282.6,43-279,52.8-279c0.1,0,0.1,0,0.2,0
			c9.8,0,20.3-3.5,20.5-11.4c0.1-3.7-0.8-6.2-1.8-7.6C83-302.5,99.1-312.2,99-330.8z M60.1-298.5c-1.1,0.2-1.8,1.3-1.6,2.3
			c0.2,1.1,1.3,1.8,2.3,1.6c0.1,0,2.8-0.6,6.8-1.9l0,0.1c0.1,0,2,1.1,1.9,5.8c-0.1,4.6-8,7.3-15.9,7.4c0,0-0.1,0-0.2,0
			c-0.3,0-0.6,0.1-0.9,0.1c0,0,0,0,0,0c0,0-0.1-0.1-0.1-0.1c-7.9-0.1-15.8-2.9-15.9-7.5c-0.1-3.2,0.8-4.7,1.4-5.4
			c3.1,1,5.2,1.4,5.2,1.4c1.1,0.2,2.1-0.5,2.3-1.6c0.2-1.1-0.5-2.1-1.6-2.3c-0.4-0.1-35-7.1-34.9-32.4c0-6.1,2.3-9.8,4.2-11.1
			c0.6-0.4,1.3-0.6,1.6-0.4c0.7,0.3,1.5,0.2,2.1-0.4c0.6-0.5,0.8-1.3,0.6-2.1c-0.1-0.3-2.3-7.9,3.6-13.6c4.8-4.5,8.1-5.3,14.9-3.5
			c0.5,0.1,1.1,0.1,1.5-0.2c0.5-0.3,0.8-0.7,0.9-1.2c0-0.1,2.1-8.2,13.3-7.8c0,0,0.1,0.1,0.1,0.1c0,0,0,0,0,0c0,0,0.1-0.1,0.1-0.1
			c11.1-0.4,13.2,7.4,13.3,7.7c0.1,0.5,0.5,1,0.9,1.3c0.5,0.3,1,0.4,1.5,0.2c6.8-1.8,10.2-1,14.9,3.5c6,5.7,3.7,13.3,3.6,13.6
			c-0.2,0.7,0,1.6,0.6,2.1c0.6,0.5,1.4,0.7,2.1,0.4c0.4-0.2,1,0,1.6,0.4c1.9,1.3,4.2,4.9,4.2,11.1C95.2-305.6,60.5-298.5,60.1-298.5
			z"/>
		<path d="M52-347.8c-1.1,0-2,0.9-2,2v35c0,1.1,0.9,2,2,2s2-0.9,2-2v-35C54-346.9,53.1-347.8,52-347.8z"/>
		<path d="M45.3-309.3c-14.2-3.2-20.5-21.5-20.5-21.7c-0.4-1-1.5-1.6-2.5-1.3c-1,0.4-1.6,1.5-1.3,2.5c0.3,0.8,7,20.6,23.5,24.3
			c0.1,0,0.3,0,0.4,0c0.9,0,1.7-0.6,1.9-1.6C47-308,46.4-309,45.3-309.3z"/>
		<path d="M81.5-332.2c-1-0.3-2.2,0.2-2.5,1.3c-0.1,0.2-6.3,18.5-20.5,21.7c-1.1,0.2-1.8,1.3-1.5,2.4c0.2,0.9,1,1.6,1.9,1.6
			c0.1,0,0.3,0,0.4,0c16.4-3.7,23.2-23.5,23.5-24.3C83.1-330.7,82.5-331.9,81.5-332.2z"/>
	</g>
	<g>
		<path d="M11-98c-0.7,0-1.4-0.4-1.7-1c-0.4-0.7-0.4-1.5,0.1-2.1c0.1-0.1,3.5-5.8,1.2-18c-2.4-13.2,1.1-33.6,12.4-45.6
			c1.3-2.2,11.5-16.9,47-19.3c9.4-0.9,20.5-3.2,22-5.2c0.5-0.7,1.5-1,2.3-0.7c0.8,0.3,1.4,1.2,1.3,2.1c0,0.2-1.5,15.6-2,23.9
			c-0.4,7.3-6,39.1-23.9,51C52.2-101.2,41-100,11.1-98C11.1-98,11-98,11-98z M91.1-184.2c-6.2,2.6-17.1,3.8-20.9,4.2
			c-18.5,1.3-29.5,6-35.4,9.7c-6.4,4-8.5,7.7-8.5,7.8c-0.1,0.2-0.2,0.3-0.3,0.4c-10.5,11-13.8,30-11.5,42.3
			c1.6,8.6,0.7,14.4-0.4,17.7c28.7-2,38.2-3.9,53.3-14c15.3-10.2,21.6-38.7,22.1-48C89.8-169.9,90.7-179,91.1-184.2z"/>
		<path d="M41-145.5c-0.8,0-1.5-0.5-1.8-1.2c-2.4-5.6-8.3-5.3-8.5-5.3c-1.1,0.1-2-0.8-2.1-1.9s0.8-2,1.9-2.1c0.4,0,9-0.5,12.5,7.7
			c0.4,1,0,2.2-1.1,2.6C41.5-145.6,41.3-145.5,41-145.5z"/>
		<path d="M61-113.5c-0.1,0-0.2,0-0.3,0c-1.1-0.2-1.8-1.2-1.7-2.3c1.3-8.7-7.2-16.1-7.3-16.2c-0.8-0.7-0.9-2-0.2-2.8
			c0.7-0.8,2-1,2.8-0.2c0.4,0.4,10.3,8.8,8.7,19.8C62.8-114.2,62-113.5,61-113.5z"/>
		<path d="M51-154.5c-0.8,0-1.5-0.5-1.8-1.2c-2.2-5-9.5-8.1-12.2-8.9c-1.1-0.3-1.7-1.4-1.4-2.5c0.3-1.1,1.4-1.7,2.5-1.4
			c0.5,0.1,11.5,3.4,14.8,11.1c0.4,1,0,2.2-1.1,2.6C51.5-154.6,51.3-154.5,51-154.5z"/>
	</g>
	<path d="M261.6-170.9c-5.8-8.3-17.2-18.3-38.6-19.4c0,0,0,0-0.1,0c0,0,0,0-0.1,0c-21.4,1-32.8,11.1-38.6,19.4
		c-8.2,11.8-9.9,26.6-7.2,35.2c2.3,7.6,14.1,10.7,25,11.9c-0.5,4-0.9,12,3.7,18.2c3.5,4.7,9.1,7.4,16.6,7.9c0,0,0.1,0,0.1,0
		c0.2,0,0.5,0,0.7-0.1c0.2,0.1,0.4,0.1,0.7,0.1c0,0,0.1,0,0.1,0c7.5-0.5,13.1-3.1,16.6-7.9c4.6-6.2,4.2-14.3,3.7-18.2
		c10.8-1.2,22.3-4.3,24.6-11.8C271.5-144.3,269.9-159.1,261.6-170.9z M237.3-108c-2.8,3.7-7.3,5.8-13.6,6.2c-0.2,0-0.4,0.1-0.5,0.1
		c-0.2-0.1-0.4-0.1-0.5-0.1c-6.3-0.4-10.8-2.5-13.6-6.2c-3.8-5.1-3.4-12.2-2.9-15.5c3.6,0.3,7,0.3,9.7,0.3c3.1,0,5.4-0.1,6.3-0.1
		c0.3,0,0.6-0.1,0.9-0.3c0.3,0.1,0.5,0.2,0.9,0.3c0.9,0,3.2,0.1,6.3,0.1c2.8,0,6.4-0.1,10.1-0.4C240.7-120.2,241.1-113.1,237.3-108z
		 M265-136.8c-1.6,5.3-11.8,8-22.8,9.1c-0.3-0.1-0.6-0.1-0.9,0c-0.1,0-0.2,0.1-0.3,0.1c-6,0.5-12.1,0.6-17.1,0.3
		c-0.4,0-0.7,0.1-1.1,0.2c-0.3-0.2-0.7-0.3-1.1-0.2c-4.8,0.2-10.7,0.2-16.5-0.3c-0.1-0.1-0.3-0.1-0.4-0.1c-0.3-0.1-0.7-0.1-1,0
		c-11.1-1.1-21.4-3.8-23.1-9.2c-1.9-6.2-1.7-19.8,6.7-31.8c5.3-7.5,15.7-16.6,35.4-17.6c19.7,1,30.1,10.1,35.4,17.6
		C266.8-156.6,267-143.1,265-136.8z"/>
	<g>
		<path d="M417-166.6c-10.5-5.3-9.6-14.3-9.6-14.6c0,0,0-0.1,0-0.1c0.2-3.5,0-8.3-3.2-9.8c-2-0.9-4,0-5.4,1c-1.3-1.1-3.1-2.2-5-1.5
			c-1.2,0.4-1.9,1.4-2.4,2.5c-2-1.9-4.3-3.2-6.6-2.5c-0.6,0.2-1.2,0.5-1.6,0.9c-0.4-0.4-0.8-0.7-1.4-0.9c-1.9-0.7-3.8,0.4-5,1.5
			c-1.4-0.9-3.4-1.8-5.4-1c-3.2,1.4-3.3,6.3-3.2,9.8c0,0,0,0.1,0,0.1c0,0.4,0.9,9.4-9.6,14.6c-13.9,6.9-21.7,21.1-21.1,37.9
			c0.6,16.6,13.3,26.2,35.7,27.2c0.6,0.7,1.5,1.6,2.8,2.3c2.3,1.3,4.9,1.5,7.4,0.5c0.3,0.5,0.8,0.9,1.3,1.3c0.3,0.8,1,1.3,1.9,1.3
			c0.4,0,0.8,0,1.2-0.1c0.4,0.1,0.8,0.1,1.2,0.1c0.9,0,1.6-0.5,1.9-1.3c0.5-0.4,1-0.8,1.3-1.3c2.5,1,5,0.8,7.4-0.5
			c1.3-0.7,2.2-1.6,2.8-2.3c22.4-1,35-10.7,35.7-27.2C438.8-145.5,430.9-159.7,417-166.6z M434.2-128.9
			c-0.4,10.2-6.4,22.5-32.7,23.4c-0.6,0-1.2,0.4-1.6,0.9c-0.5,0.7-3.2,4.2-7.2,1.5c-0.6-0.4-1.3-0.4-1.9-0.2
			c-0.6,0.3-1.1,0.8-1.2,1.5c0,0.1-0.2,1.1-1.5,1.6c-1.1-0.4-1.4-1.3-1.5-1.6c-0.1-0.7-0.6-1.2-1.2-1.5c-0.2-0.1-0.5-0.2-0.8-0.2
			c-0.4,0-0.8,0.1-1.1,0.3c-4.1,2.7-6.7-0.7-7.2-1.4c0,0,0,0-0.1-0.1c-0.1-0.1-0.1-0.2-0.2-0.2c0,0-0.1-0.1-0.1-0.1
			c-0.1-0.1-0.1-0.1-0.2-0.2c0,0-0.1-0.1-0.1-0.1c0,0,0,0-0.1,0c-13.2-6.1-20.5-13.7-21.7-22.7c-2.2-17,17.9-33.8,18.2-34
			c12.3-10.8,8.8-17.2,8.4-17.9l-1.7,1.1l-1.7,1c0,0,2,4.4-7.5,12.8c-0.9,0.7-22,18.4-19.5,37.6c1.1,8.1,6.2,15.1,15.2,21
			c-18.2-3.3-22.7-13.6-23-22.4c-0.6-15.2,6.5-27.9,18.9-34.1c12.7-6.3,11.9-17.4,11.8-18.6c-0.2-5,0.8-5.8,0.8-5.8
			c0.4-0.1,1.6,0.6,2.5,1.4c0.4,0.4,0.9,0.6,1.5,0.6c0.5,0,1.1-0.3,1.4-0.7c1-1.1,1.7-1.5,2-1.7c0.3,0.5,0.6,1.9,0.6,3
			c0,1.1,0.9,2,1.9,2c1.1,0,2-0.8,2.1-1.9c0.1-1.5,0.7-3,1.1-3.1c0,0,1.4-0.2,5,4.3c0.5,0.7,1.4,0.9,2.2,0.6c0.8-0.3,1.3-1,1.3-1.9
			c0-1.1,0.3-2.5,0.6-3c0.3,0.1,0.9,0.5,2,1.7c0.4,0.4,0.9,0.6,1.4,0.7c0.5,0,1.1-0.2,1.5-0.6c0.8-0.8,2.1-1.5,2.5-1.4
			c0,0,1,0.8,0.8,5.9c-0.1,1.2-0.9,12.3,11.8,18.6C427.7-156.8,434.7-144,434.2-128.9z"/>
		<path d="M404.1-160.7l-0.4-0.3c-7.6-5.9-5.9-18-5.9-18.1c0.2-1.1-0.6-2.1-1.7-2.3c-1.1-0.2-2.1,0.6-2.3,1.7
			c-0.1,0.6-2.1,14.6,7.4,21.9l0.4,0.3c8.5,6.5,21.4,16.4,8.4,41.9c-0.5,1-0.1,2.2,0.9,2.7c0.3,0.1,0.6,0.2,0.9,0.2
			c0.7,0,1.4-0.4,1.8-1.1C428.2-142.3,413.1-153.8,404.1-160.7z"/>
		<path d="M385.7-181.5c-1.1,0.1-1.9,1.1-1.8,2.2c0,0.6,4.6,55.2,2,67.4c-0.2,1.1,0.5,2.1,1.5,2.4c0.1,0,0.3,0,0.4,0
			c0.9,0,1.8-0.6,2-1.6c2.7-12.8-1.8-66.3-2-68.6C387.8-180.7,386.8-181.5,385.7-181.5z"/>
		<path d="M372.8-151.7c0.6-0.9,0.4-2.2-0.5-2.8c-0.9-0.6-2.2-0.4-2.8,0.5c-0.1,0.2-3.6,5.4-4.3,13.9c-0.6,7.7,1.3,19.9,13.1,33.9
			c0.4,0.5,1,0.7,1.5,0.7c0.5,0,0.9-0.2,1.3-0.5c0.8-0.7,0.9-2,0.2-2.8C360.7-133.2,372.3-150.9,372.8-151.7z"/>
	</g>
	<path d="M623.3-148c-0.5-0.4-1-0.7-1.6-0.9c1-2.9,0.9-5.5-0.2-7.6c-1-2-2.8-3.2-4.1-3.8c0.2-2.1-0.3-3.9-1.4-5.4
		c-1.6-2.2-4.2-3-5.9-3.4c-0.3-1.5-1-2.9-2.1-3.9c-2-1.9-4.8-2.6-6.6-2.7c-0.6-2.8-1.9-4.8-3.8-6.1c-2.1-1.4-4.5-1.6-6.1-1.5
		c-0.8-1.6-1.9-2.5-2.8-2.9c-1.7-0.9-3.6-0.8-5-0.6c-1-2-2.4-3.3-4.2-3.8c-2.2-0.7-4.3,0.1-5.6,0.7c-1.8-1-3.5-1.2-5.2-0.8
		c-1.5,0.4-2.5,1.2-3.3,2c-2.5-1.1-4.7-1.2-6.5-0.4c-1.7,0.8-2.7,2.2-3.2,3.3c-2.7-0.1-4.9,0.6-6.3,2.1c-1.2,1.2-1.6,2.7-1.8,3.9
		c-1.9,0-3.6,0.6-4.8,1.7c-1.4,1.2-2.1,2.8-2.4,4c-2.1-0.1-3.7,0.5-4.7,1.7c-1.3,1.5-1.4,3.7-1.1,5.3c-2,0.7-3.6,1.9-4.6,3.5
		c-1.4,2.4-1.4,5.1-1.1,7.1c-1.9,0.5-3.4,1.4-4.3,2.7c-1.2,1.8-1.2,3.8-0.9,5.1c-0.3,0.1-0.5,0.3-0.7,0.5c-1.2,1.4-1.7,2.7-1.2,5.5
		c0.1,0.6-0.3,1.3-0.2,2.3c0.9,8,2.7,29.1,27.7,33.4v3.8c0,0.2,0.5,0.6,0.6,0.8c0.6,2,3.3,5.6,7.4,5.6h32.4c4.2,0,5.7-3.8,6.1-5.7
		c0-0.1-0.4-0.4-0.4-0.6v-3.8c26-4.3,28-25.4,28.9-33.5c0.1-0.9,0.4-1.6,0.5-2.2C624.8-145.6,624.7-146.9,623.3-148z M527.7-151.4
		c0.7-1,2.3-1.3,3.5-1.4c0.6,0,1.2-0.4,1.6-0.9s0.4-1.2,0.2-1.8c0,0-1.2-3.7,0.2-6.1c0.7-1.2,2-1.9,3.9-2.1c0.6-0.1,1.1-0.4,1.4-1
		c0.3-0.5,0.4-1.1,0.2-1.7c-0.4-1-0.6-2.8-0.1-3.4c0.2-0.2,0.6-0.3,1.2-0.3c0.5,0,1,0.1,1.7,0.2c0.6,0.1,1.2,0,1.7-0.4
		c0.5-0.4,0.7-1,0.7-1.6c0,0,0-2.1,1.3-3.2c0.8-0.7,2.1-0.9,3.9-0.6c0.6,0.1,1.3-0.1,1.7-0.6c0.5-0.5,0.7-1.1,0.6-1.8
		c0,0-0.3-1.9,0.7-3c1-1,3-0.9,4.5-0.7c1.1,0.2,2-0.5,2.3-1.6c0,0,0.4-1.7,1.6-2.2c1-0.4,2.5-0.1,4.5,1.1c0.5,0.3,1.1,0.4,1.6,0.2
		c0.5-0.2,1-0.5,1.2-1c0,0,0.7-1.3,1.9-1.6c0.8-0.2,1.9,0.1,3,0.9c0.7,0.5,1.6,0.5,2.3,0c0.5-0.4,2-1.2,3.3-0.8
		c1.2,0.4,1.9,1.9,2.3,3c0.2,0.5,0.6,0.9,1.1,1.2c0.5,0.2,1.1,0.2,1.6,0c0.4-0.2,2.3-0.7,3.6-0.1c0.7,0.3,1.1,1,1.4,2.1
		c0.1,0.5,0.5,1,0.9,1.2c0.5,0.3,1,0.3,1.5,0.2c0,0,2.7-0.7,4.7,0.7c1.3,0.9,2.1,2.6,2.3,5c0.1,1,1,1.9,2.1,1.8c0.9,0,4,0.2,5.5,1.7
		c0.7,0.7,1.1,1.6,1.1,2.8c0,1.1,0.9,2,1.9,2c0.8,0,3.4,0.5,4.6,2c0.7,0.9,0.8,2.2,0.4,3.9c-0.1,0.5,0,1.1,0.2,1.5
		c0.3,0.5,0.8,0.8,1.3,0.9c0,0,2.3,0.7,3.3,2.5c0.7,1.3,0.5,2.5-0.4,5.5h-26h-4.1h-4H580h-3.7h-3.5h-4.2h-4h-4.3h-4.1H553h-1.9
		h-23.8C527.3-150,527.2-150.7,527.7-151.4z M620.7-143.4c-0.1,0.6-0.2,1.4-0.3,2.4c-0.9,8.1-3.5,27-27.2,30.2c-1,0.1-2.2,1-2.2,2
		v5.2c0,0.6,0.1,2.6-1.7,2.6H557c-1.8,0-3-2-4-2.7v-5.1c0-1-0.3-1.8-1.3-2c-23.6-3.2-25.3-21.4-26.2-30.1c0-0.1,0.1-0.2,0.1-0.3
		c-0.1-0.9-0.2-1.6-0.2-2.2c-0.1-1.2,0.2-1.5,0.2-1.6c0.3-0.2,0.3-0.1,0.7-0.1c0.2,0,0.5,0.2,0.7,0.2h1.6h56.3h0.1h31.5h2.9
		c0.2,0,0.3-0.1,0.7-0.2c0.1,0,0.4,0.1,0.5,0.1c0,0,0,0,0.1,0C620.7-144.9,620.9-144.7,620.7-143.4z"/>
	<g>
		<path d="M800.8-176.4c1-1.1,2.5-3.5,1-7.5c-1-2.7-2.6-4.4-4.7-5.2c-0.9-0.3-1.7-0.4-2.5-0.4c-0.2-1.4-0.9-2.9-2.1-4.2
			c-2.3-2.4-6.4-3.8-10.4-1.3c-2,1.3-3.2,3.1-3.6,5.2c-0.5,2.9,0.7,5.6,1.6,7.3l-3.6,3.6c-0.6-0.8-1.3-1.5-1.8-2.3
			c-1.2-1.5-2.3-2.9-3.5-4c-5.4-4.9-12.1-6.4-18.8-4c-7.4,2.6-13.6,9.3-14.7,16c-1.4,8.8-8.7,14.4-15.2,15.3
			c-0.8,0.1-1.6,0.2-2.4,0.3c-5,0.5-9.7,1-17.6,11.9c-4.3,6-5.5,12.8-3.3,18.8c1.7,4.5,5,7.8,8.8,8.7c0.4,0.1,0.8,0.2,1.3,0.3
			c1.2,0.3,2.5,0.6,3.8,1l-4.1,3.5c-2.2-0.2-7.5-0.4-10.4,3.6c-1.8,2.5-1.7,5.6,0.1,8c1.4,1.8,3.6,2.9,6.1,2.9
			c-0.2,1.7,0.1,3.7,1.9,5.4c1.3,1.2,2.8,1.8,4.4,1.8c1.6,0,3.3-0.6,4.8-1.7c3-2.1,5.1-6.2,4-10.3l2.9-2.6c1.7,5,4.5,9.8,17.3,12.3
			c1.2,0.2,2.4,0.3,3.5,0.3c11.5,0,18.2-11.3,20.3-18c0.8-1.3,5.8-9.1,12.6-12.5c1.4-0.7,2.8-1.3,4.4-1.9c7.1-2.9,16-6.5,18.7-21.5
			c3.1-17.7-10.8-22.8-12.1-23.2c-0.2-0.1-0.4-0.2-0.7-0.3l2.9-2.8C793.8-173.2,798.4-173.7,800.8-176.4z M716.5-105.9
			c-0.7,0.6-0.9,1.6-0.5,2.4c1.2,2.5-0.2,5.3-2.1,6.8c-0.6,0.4-2.6,1.7-4.2,0.3c-1.6-1.5-0.2-3.5,0-3.8c0.5-0.7,0.6-1.7,0-2.4
			c-0.4-0.5-1-0.8-1.6-0.8c-0.2,0-0.5,0-0.7,0.1c-2.7,1-4.6,0.2-5.4-0.9c-0.7-1-0.7-2.2,0-3.2c2-2.9,7.3-1.9,7.3-1.9
			c0.6,0.1,1.2,0,1.7-0.4l6.4-5.5c1.8,1,3.4,2.5,4.1,4.5c0,0.1,0.1,0.2,0.1,0.4L716.5-105.9z M786.4-167.1c0,0,0.1,0,0.1,0
			c0.5,0.1,12.1,3.7,9.4,18.7c-2.3,12.9-9.1,15.6-16.2,18.5c-1.6,0.6-3.2,1.3-4.7,2c-8.4,4.2-14.1,13.9-14.3,14.3
			c-0.1,0.1-0.1,0.3-0.2,0.4c-0.1,0.2-5.6,17.8-19.4,15.1c-12-2.3-13.2-6-14.8-11.2c0,0,0,0,0,0c-0.3-1-0.6-2-1-3
			c-1.6-4.1-5-6.4-8.5-7.8c-2.3-0.9-4.7-1.4-6.5-1.8c-0.4-0.1-0.9-0.2-1.2-0.3c-2.5-0.6-4.8-3-6-6.2c-1-2.7-2-8.4,2.8-15
			c6.8-9.4,10.3-9.8,14.7-10.2c0.8-0.1,1.7-0.2,2.6-0.3c7.9-1.2,16.8-8,18.5-18.7c0.8-5.2,6.1-10.8,12-12.9c1.4-0.5,3.2-0.9,5-0.9
			c3,0,6.4,1,9.8,4.1c1,0.9,2,2.1,3.1,3.5c0.7,0.8,1.4,1.7,2.1,2.6c2.4,2.8,5.4,5.7,10.2,7.9C784.8-167.8,785.6-167.5,786.4-167.1z
			 M788.1-177.6l-4.8,4.6c-1.5-0.9-2.8-1.9-3.9-2.9l4.8-4.8c0.7-0.7,0.8-1.8,0.2-2.6c-0.6-0.8-2.2-3.5-1.8-5.6
			c0.2-1,0.8-1.8,1.8-2.5c2.2-1.4,4.2-0.6,5.3,0.7c0.8,0.9,1.4,2.2,0.8,3c-0.5,0.8-0.5,1.8,0.2,2.5c0.6,0.7,1.7,0.8,2.5,0.4
			c0,0,1.4-0.8,2.7-0.3c0.9,0.3,1.7,1.3,2.3,2.8c0.9,2.3,0.1,3.1-0.2,3.4c-1.3,1.4-4.9,1.9-7.9,1
			C789.3-178.3,788.6-178.1,788.1-177.6z"/>
	</g>
	<path d="M974.9-138.6l0-16.2c0.1-1.1-0.3-6.9-13.2-14L938-182.5c-1.1-0.8-7-4.7-16,0.1c-1.8,0.8-27.2,12.3-41.5,22.6
		c-0.7,0.5-5.6,4-5.4,11.4c0,0.6,0.3,13.7,2.3,20.8c0.3,1.2,1.1,2.1,2.2,2.7c0,0,0,0,0,0l38.2,19.6c0.4,0.2,2.9,1.7,6.1,2
		c0.2,0,0.3,0.3,0.5,0.3c0,0,0,0,0,0c0.1,0,0.1-0.2,0.2-0.2c0.2,0,0.4-0.1,0.6-0.1c2.3,0,4.9-0.6,7.5-2.3l39-22.1
		c0.4-0.1,0.8-0.4,1.2-0.8C974.4-130.1,975-133.4,974.9-138.6z M882.8-156.5c14.2-10.3,40.6-22.2,40.9-22.3c0,0,0.1,0,0.1-0.1
		c7.3-4,11.6-0.6,11.7-0.5c0.1,0.1,0.2,0.2,0.3,0.2l23.9,13.9c4.6,2.6,7.3,4.8,8.9,6.6c-17.3,9.8-43,24.3-44.6,25
		c-0.8,0.4-2-0.6-2.3-0.8c-0.1-0.1-0.3-0.2-0.4-0.3l-38.7-21.5c0,0,0.1,0,0.1,0C882.7-156.4,882.8-156.5,882.8-156.5z M919.6-108.8
		l-38.2-19.6c-0.1,0-0.2-0.1-0.2-0.2c-1.9-6.6-2.1-19.6-2.1-19.8c-0.1-2,0.4-3.6,1-4.8l39.1,21.7c0.7,0.6,1.7,1.3,2.9,1.6l0.2,22.1
		C920.8-108.1,919.8-108.7,919.6-108.8C919.7-108.8,919.7-108.8,919.6-108.8z M969.6-131.5C969.6-131.4,969.7-131.4,969.6-131.5
		l-39.1,22.3c0,0,0,0.1-0.1,0.1c-1.4,0.9-2.8,1.4-4.1,1.6l-0.2-22.8c4.6-2.4,38-21.5,44.2-25c0.1,0.2-0.3,0.4-0.3,0.4c0,0,0,0,0,0
		v16.3C971-133.5,969.9-131.9,969.6-131.5z"/>
	<g>
		<path d="M1117.2-97h-60.5c-1.1,0-2-0.8-2-1.9l-1.5-43c-3.9-1.8-14.9-8.1-13.5-22.5c1.6-16.5,19.7-27.3,45-26.8
			c21.5,0.4,46.6,3.8,49.4,25.8c0.9,6.8-0.4,12.2-3.7,16.1c-3.4,4-8.1,5.3-10.8,5.7l-0.5,44.6C1119.2-97.8,1118.3-97,1117.2-97z
			 M1058.6-101h56.6l0.5-44.4c0-1.1,0.9-1.9,2-2c0.1,0,6.1-0.2,9.8-4.6c2.6-3,3.5-7.3,2.8-12.9c-1.9-14.8-16-21.7-45.6-22.3
			c-23.2-0.5-39.6,8.8-41,23.2c-1.3,14.2,12,18.8,12.1,18.8c0.8,0.3,1.3,0.9,1.4,1.8L1058.6-101z"/>
		<path d="M1069.7-137.9c-0.5,0-1-0.2-1.4-0.6c-0.8-0.8-0.8-2,0-2.8l22-22.5c0.8-0.8,2-0.8,2.8,0c0.8,0.8,0.8,2,0,2.8l-22,22.5
			C1070.7-138.1,1070.2-137.9,1069.7-137.9z"/>
		<path d="M1066.2-147.4c-0.5,0-1-0.2-1.4-0.6c-0.8-0.8-0.8-2,0-2.8l15-15c0.8-0.8,2-0.8,2.8,0s0.8,2,0,2.8l-15,15
			C1067.2-147.6,1066.7-147.4,1066.2-147.4z"/>
		<path d="M1073.2-129.4c-0.5,0-1-0.2-1.4-0.6c-0.8-0.8-0.8-2.1,0-2.8l28.5-28c0.8-0.8,2.1-0.8,2.8,0c0.8,0.8,0.8,2.1,0,2.8
			l-28.5,28C1074.2-129.6,1073.7-129.4,1073.2-129.4z"/>
		<path d="M1079.7-122.4c-0.5,0-1-0.2-1.4-0.6c-0.8-0.8-0.8-2,0-2.8l26-26c0.8-0.8,2-0.8,2.8,0s0.8,2,0,2.8l-26,26
			C1080.7-122.6,1080.2-122.4,1079.7-122.4z"/>
		<path d="M1090.7-120.9c-0.5,0-1-0.2-1.4-0.6c-0.8-0.8-0.8-2,0-2.8l15-15c0.8-0.8,2-0.8,2.8,0s0.8,2,0,2.8l-15,15
			C1091.7-121.1,1091.2-120.9,1090.7-120.9z"/>
	</g>
	<path class="st0" d="M1168.2,161.9c0.6-0.3,1.3-0.4,1.9-0.1c0.6,0.3,1,0.8,1.1,1.5c0.1,0.9,0.6,1.5,1.3,1.9c1.5,0.9,4.2,0.8,7-0.2
		c4-1.4,2.7-8.3,2.7-8.4c-0.2-1,0.4-2,1.4-2.3l38.7-12c-0.5-1.8-0.8-4.4,0.2-6.9c1-2.5,3.2-4.4,6.4-5.4c7.3-2.4,12.5,1.1,14.9,4
		c1.5-0.3,3.6-0.9,5.1-1.8c0.9-0.6,1.5-1.8,1.8-2.8c0.1-0.3,0.1-0.5,0.2-0.7c-1.2-1.8-2.5-3.6-3.9-5.4
		c-12.4-15.3-33.9-31.3-34.2-31.5c-2-1.4-3.3-1.8-3.9-1.6c-0.2,0.1-0.4,0.3-0.4,0.3c-0.1,0.2-0.1,0.3-0.2,0.4l-16.9,26.3
		c2.9,2.2,6.3,6.4,6.4,10.8c0.1,2.6-1,6.2-6.3,8.9c-3.9,2-7.6,2.5-11.1,1.4c-2.7-0.9-4.6-2.6-5.9-4.1c-6,8.2-12,17.2-15.7,23.7
		c-2.3,4-3.8,7-4,8.5c0.5,0.1,1.3,0.1,2.2,0C1160,166,1164.4,164.1,1168.2,161.9z"/>
	<g>
		<path d="M901.9,70.3c3.5,0,7.8-0.3,12.8-0.9c1.7-0.1,20.6-1.2,32.2-14.1c0.3-0.3,0.6-0.6,0.8-1c0.3-0.4,0.6-0.8,0.9-1.2l11.6-2.8
			c5.4,0.7,8.5,0,9.8-2.2c1.7-2.8-0.8-6.4-2.4-8.8l-0.1-0.2c-0.8-1.2-1.9-1.8-3.3-2c-2.7-0.3-5.6,1.8-6.8,2.8
			c-0.5,0-0.9,0.1-1.4,0.1c1.3-4.1,1.3-7.1,1.1-8.8c2-2,6.2-6.8,4.3-10.9c-1.3-2.8-5.7-5.3-9.4-4.3c-2.4,0.6-6.3,3.2-5.5,13
			c0,0.7-0.2,5.7-5.5,10.9c-8.8-0.8-14.4-2.5-14.5-2.6c-0.1,0-0.1,0-0.2-0.1c-4.5-0.9-6.8-1.2-7.9-1.3c-0.1,0-0.1-0.1-0.2-0.1
			c-11.6-9.9-22.8-8.7-23.3-8.6c-0.1,0-0.1,0-0.2,0c-6.8,1.4-9.3,2.4-9.4,2.5c-1,0.4-1.4,1.5-1.1,2.5c1.1,3.3,8.1,10.4,9.5,11.8
			c0,0,0.1,0.1,0.2,0.1c3.6,2.9,7.7,5.2,12.4,7c-6.5,0.7-17.4,3.2-22.5,11.3c-0.4,0.6-0.4,1.3-0.2,1.9
			C884.1,65.6,887,70.3,901.9,70.3z M914.4,65.3c-0.1,0-0.1,0-0.2,0c-0.1,0-0.1,0-0.2,0c0.5-1,0.7-1.9,0.7-2.6
			c0.2-2.9-1.3-5.7-2.7-7.7c2-0.2,3.8-0.5,5.6-0.8c3,0.5,6.2,0.8,9.5,1c1.1,0,2.2,0.1,3.2,0.1c4.8,0,8.9-0.4,11.5-0.8
			C931,64.6,914.6,65.3,914.4,65.3z M950.6,28.9c0,0,0-0.1,0-0.1c-0.4-5,0.5-8.2,2.4-8.7c1.8-0.5,4.1,1,4.6,2.1c0.7,1.5-2,5-4.2,6.9
			c-0.6,0.5-0.8,1.4-0.6,2.1c0,0.1,0.9,3.4-1.3,9.1c-1.9,0-3.6,0-5.3,0C950.6,34.6,950.6,29.4,950.6,28.9z M919.2,40.2
			c1.2,0.2,3.1,0.5,6.2,1.1c0.8,0.2,4.8,1.4,11.1,2.2c1.9,0.2,3.9,0.5,6.1,0.6c2.2,0.2,4.6,0.2,7.1,0.2c1.5,0,3.1,0,4.7-0.1
			c1.3-0.1,2.6-0.2,4-0.3c0.4,0,0.9-0.2,1.2-0.5c1.1-1,3.2-2.4,4.2-2.3c0.1,0,0.3,0,0.4,0.3l0.1,0.2c1.7,2.4,2.5,3.9,2.3,4.4
			c0,0-0.9,0.9-6.2,0.3c-0.2,0-0.5,0-0.7,0l-7.5,1.8l-6,1.4l-1.8,0.4c-0.1,0-6.3,1.3-14.8,1.2c-3.8,0-8-0.3-12.3-1.1
			c-1.1-0.2-2.1-0.4-3.2-0.7c0.7-0.4,1.4-0.9,2-1.5C918,46,919,43.4,919.2,40.2z M904,37.3c0,0.6-0.5,1.1-1.1,1.1s-1.1-0.5-1.1-1.1
			s0.5-1.1,1.1-1.1S904,36.7,904,37.3z M896.5,41.2c-2.4-2.4-5.7-6-7.4-8.4c1.4-0.4,3.4-0.9,6.4-1.5c0.4,0,3.1-0.2,7,0.8
			c-2.7,0.2-4.9,2.5-4.9,5.2c0,2.9,2.4,5.3,5.3,5.3s5.3-2.4,5.3-5.3c0-1.6-0.7-3-1.9-4c2.8,1.1,5.8,2.8,9,5.3c0.1,2.9-0.5,5-1.9,6.4
			c-2.3,2.3-6.1,2-6.2,2c-0.2,0-0.3,0-0.4,0C903.1,45.6,899.6,43.7,896.5,41.2z M902,60.3c0,0.6-0.5,1.1-1.1,1.1s-1.1-0.5-1.1-1.1
			s0.5-1.1,1.1-1.1S902,59.7,902,60.3z M896.2,57.9c-0.4,0.7-0.6,1.5-0.6,2.4c0,2.9,2.4,5.3,5.3,5.3s5.3-2.4,5.3-5.3
			c0-1.9-1-3.6-2.6-4.5c1.2-0.2,2.4-0.4,3.4-0.5c1.2,1.2,3.9,4.4,3.7,7c-0.1,1.1-0.7,2.1-2,2.9c-0.2,0.2-0.4,0.4-0.6,0.6
			c-13.1,1-18.2-1.2-19.9-2.4C890.2,60.9,893.1,59.1,896.2,57.9z"/>
		<path d="M967,55.5c-2.9-1.4-5-0.8-6.2,0c-3.1,2-3.7,6.9-3.8,8.9c-1.7,2-5.4,2.8-6.8,3c-6.1,0.6-11.8,6-13.7,8
			c-5.3,0-9,1.5-10.1,2.1c-4.5,0.7-14.2-0.8-17.6-1.4c-0.1,0-0.2,0-0.4,0c-17.4,0-25,6.9-25.7,7.6c-1.9,1.7-1.7,3.3-1.4,4.2
			c0.6,1.9,2.8,4,14.1,5.8c5.8,0.9,11.3,1.3,11.6,1.3c1.7,0.1,3.2,0.1,4.7,0.1c16.2,0,21.5-3.8,23.3-6.1c6.5-0.3,11.2-1.9,13.8-4.6
			c1.5-1.6,1.9-3.2,2-4.1c2.1-3.2,9.8-8.2,14.5-10.7c2-0.7,7.3-2.7,7.5-6.7C973,58.5,968,55.9,967,55.5z M904,84.3
			c0,0.6-0.5,1.1-1.1,1.1s-1.1-0.5-1.1-1.1s0.5-1.1,1.1-1.1S904,83.7,904,84.3z M915.2,86.8c-0.3,1.9-2.9,3.1-5,3.9
			c-0.9,0-1.9,0-2.9-0.1c-9.9-0.7-19.6-2.5-21.7-4.1c0,0,0,0,0.1-0.1c0,0,4-3.8,13.2-5.5c-0.8,0.9-1.3,2.1-1.3,3.4
			c0,2.9,2.4,5.3,5.3,5.3s5.3-2.4,5.3-5.3c0-1.7-0.8-3.2-2.1-4.2c0.8,0,1.5-0.1,2.3-0.1c0.4,0.1,1.6,0.3,3.2,0.5c0,0,0,0,0,0
			C912.9,81.7,915.6,84.6,915.2,86.8z M947,78.4c-0.2,0.3-0.3,0.7-0.2,1.1c0,0-0.1,0.8-1,1.8c-1.1,1.2-4.1,3.2-12,3.4
			c-1,0-1.8,0.5-1.9,1.4c-0.3,0.5-2.7,3.6-13.9,4.5c0.7-0.9,1.2-1.9,1.3-3c0.4-2.3-0.5-4.4-1.6-6.2c3.5,0.3,7.3,0.5,9.8,0
			c0.2,0,0.5-0.1,0.7-0.2c0,0,3.6-2,9.2-1.7c0.6,0,1.3-0.2,1.7-0.7c1.6-1.9,6.8-6.8,11.7-7.3c0.5,0,3.1-0.4,5.7-1.6
			C952.7,72.3,948.5,75.5,947,78.4z M963.8,65.4c-0.1,0-0.2,0.1-0.3,0.1c-0.5,0.2-2.1,1.2-4.2,2.4c0.6-0.5,1.2-1.1,1.6-1.9
			c0.2-0.3,0.3-0.7,0.3-1.1c0-1.7,0.5-5.2,1.9-6.1c0.2-0.1,0.4-0.2,0.7-0.2c0.4,0,0.9,0.1,1.5,0.4c1.6,0.7,3.4,2.3,3.4,3.1
			C968.7,62.3,968.6,63.7,963.8,65.4z"/>
	</g>
	<g>
		<path d="M575.2,44.8c-0.3,0-0.6-0.1-0.9-0.4c-0.4-0.5-0.4-1.2,0.1-1.7c1.3-1.1,2-2.4,2-3.8c0.1-2.4-1.7-4.5-1.7-4.5
			c-1.9-2.3-2.7-4.8-2.3-7.3c0.7-5,5.6-8.5,5.8-8.7c0.5-0.4,1.3-0.2,1.6,0.3c0.4,0.5,0.2,1.3-0.3,1.6c0,0-4.3,3.1-4.9,7.1
			c-0.3,1.9,0.3,3.7,1.8,5.5c0.1,0.1,2.5,2.7,2.3,6.1c-0.1,2-1,3.8-2.8,5.4C575.7,44.7,575.4,44.8,575.2,44.8z"/>
		<path d="M581.4,46.4c-0.3,0-0.6-0.1-0.9-0.4c-0.4-0.5-0.4-1.2,0.1-1.7c4.5-4,2.5-7.7,2.5-7.7c-1.6-3.1-1.8-5.8-0.7-8.2
			c2.1-4.3,8.1-5.4,8.3-5.4c0.6-0.1,1.2,0.3,1.4,0.9c0.1,0.6-0.3,1.2-0.9,1.4c-0.1,0-5.1,1-6.6,4.2c-0.8,1.6-0.6,3.7,0.7,6
			c1,1.8,1.7,6.4-3,10.6C582,46.3,581.7,46.4,581.4,46.4z"/>
		<path d="M568,44.4c-0.3,0-0.6-0.1-0.8-0.3c-0.5-0.4-0.5-1.2,0-1.7c1.2-1.3,1.8-2.6,1.7-3.9c-0.2-2.2-2.1-4-2.5-4.3
			c-2.3-1.3-3.8-3.1-4.3-5.3c-1.1-4.5,1.9-9.1,2.1-9.3c0.4-0.5,1.1-0.7,1.6-0.3c0.5,0.4,0.7,1.1,0.3,1.6c-0.1,0.1-2.6,4-1.7,7.5
			c0.4,1.6,1.5,2.9,3.3,3.9c0.1,0,0.1,0.1,0.2,0.1c0.1,0.1,3.2,2.5,3.4,6c0.1,2-0.6,3.9-2.3,5.7C568.6,44.3,568.3,44.4,568,44.4z"/>
		<path d="M582.6,58.1c-4.1-3-10.3-3.5-13.5-2.1c-2.6,1.1-5.1,1.8-12.5,0.9c-2.2-0.3-4.3-0.4-6.3-0.5l-0.3-0.1
			c-0.2-0.1-0.4,0-0.6,0.1c-4.5-0.1-7.9,0.3-8.1,0.3c-0.1,0-0.1,0-0.2,0c-2.8,0.8-4.9,2.2-6.1,4.4c-2.2,3.8-1,8.3-0.9,8.5
			c0.1,0.5,0.6,0.9,1.1,0.9c0.1,0,0.2,0,0.3,0c0.6-0.2,1-0.8,0.8-1.4c0,0-1-3.8,0.7-6.8c0.9-1.6,2.5-2.7,4.6-3.3
			c0.7-0.1,5.1-0.5,10.4-0.2c-1,0.7-1.8,1.3-2.6,1.9l-3.7-1.2c-0.4-0.1-0.9,0.1-1,0.5c-0.1,0.4,0.1,0.8,0.5,1l2.7,0.9
			c-3,2.2-4,3-4,3c-0.3,0.3-0.4,0.8-0.1,1.1c0.2,0.2,0.4,0.3,0.6,0.3c0.2,0,0.4-0.1,0.5-0.2c0,0,1.1-0.9,4.8-3.6l4.2,1.4
			c-2.3,2.1-3.5,3.2-3.5,3.2c-0.3,0.3-0.3,0.8,0,1.1c0.2,0.2,0.4,0.2,0.6,0.2c0.2,0,0.4-0.1,0.6-0.2c0,0,1.3-1.3,4.1-3.8l4.3,1.4
			c-1.5,1.4-2.3,2.2-2.4,2.2c-0.3,0.3-0.3,0.8,0,1.1c0.2,0.2,0.4,0.2,0.6,0.2c0.2,0,0.4-0.1,0.5-0.2c0,0,1.1-1,3-2.8l4.3,1.4
			c-0.5,0.5-0.8,0.8-0.8,0.8c-0.3,0.3-0.3,0.8,0,1.1c0.2,0.1,0.3,0.2,0.5,0.2c0.2,0,0.4-0.1,0.6-0.2c0,0,0.4-0.5,1.3-1.3l4.7,1.5
			c0.1,0,0.2,0,0.2,0c0.3,0,0.6-0.2,0.7-0.5c0.1-0.4-0.1-0.8-0.5-1l-3.9-1.3c0.6-0.6,1.4-1.3,2.3-2.1l5.4,1.8c0.1,0,0.2,0,0.2,0
			c0.3,0,0.6-0.2,0.7-0.5c0.1-0.4-0.1-0.8-0.5-1l-4.6-1.5c0.6-0.6,1.4-1.2,2.1-1.9l5.9,2c0.1,0,0.2,0,0.2,0c0.3,0,0.6-0.2,0.7-0.5
			c0.1-0.4-0.1-0.9-0.5-1l-5.1-1.7c0.6-0.5,1.2-1.1,1.9-1.7c0.2-0.2,0.3-0.4,0.3-0.6c1.1,0.4,2.1,0.9,3.1,1.6
			c2.7,1.9,3.8,4.7,3.5,8.3c-0.1,0.6,0.4,1.2,1.1,1.3c0.6,0.1,1.2-0.4,1.3-1.1C587.5,63,584.9,59.8,582.6,58.1z M566.8,59.2l0.4,0.1
			c-0.8,0.7-1.5,1.3-2.2,1.9L561,60c0.1-0.1,0.2-0.2,0.4-0.3C563.7,59.7,565.4,59.6,566.8,59.2z M555.3,62.6l-4-1.3
			c0.8-0.6,1.7-1.3,2.8-2l3.7,1.2C556.9,61.3,556.1,62,555.3,62.6z M561.3,64.6l-4.3-1.4c0.7-0.6,1.6-1.3,2.5-2.1l4.1,1.4
			C562.8,63.3,562,64,561.3,64.6z M567.3,66.6l-4.3-1.4c0.7-0.6,1.5-1.3,2.3-2.1l4.2,1.4C568.7,65.3,567.9,66,567.3,66.6z
			 M570.9,63.2l-4.1-1.4c0.7-0.6,1.4-1.3,2.2-1.9l4.1,1.4C572.2,62,571.5,62.6,570.9,63.2z M574.3,60.1l-4-1.4
			c0.2-0.2,0.4-0.3,0.5-0.5c0.1-0.1,0.2-0.3,0.2-0.4c1.5-0.3,3.5-0.3,5.6,0.2C575.8,58.8,575,59.5,574.3,60.1z"/>
		<g>
			<path d="M629.5,56.3c-1.7-1.4-3.8-1.3-4.3-1.3h-30.9c-4.8-6-17.8-11-39.9-9.5c-24.6,1.6-29.3,11.9-30.2,15.8
				c-0.2,0.7-0.2,0.6-0.3,0.9c-2,13.5,4.5,19.2,5.3,19.8c8.6,8.2,21.5,9.8,30.1,9.8c1.1,0,2.1,0,3-0.1c11.2-0.5,22.6-3.8,27.2-7.7
				c6.2-5.3,7.6-12,7.6-18h26.6c0.3,0,0.9,0,1.7,0c1.4,0,3.3-0.1,4.7-1.2c0.7-0.6,1.6-1.8,1.5-3.8C631.4,58.9,630.8,57.4,629.5,56.3
				z M554.6,47.9c18.8-1.3,31.4,2.8,36.7,7.5c1.6,1.5,2.6,3,2.8,4.4c-0.3,0.9-0.8,1.8-1.4,2.6c-7.1,9.8-30.3,9.7-30.6,9.7
				c-26.2,0.6-33.9-7.4-35.6-9.7C526.9,59.9,530.1,49.6,554.6,47.9z M587.9,82.3c-8,6.8-41.8,12.6-57.1-2.1c0,0-0.1-0.1-0.1-0.1
				c-0.1,0-4.7-3.7-4.8-12.9c0-0.6,0-1.2,0-1.9c0.7,0.7,1.6,1.5,2.7,2.3c4.9,3.4,14.7,7.3,33.4,6.8c1,0,19.8,0.2,29.5-7.5
				c0.7-0.6,1.4-1.2,2-1.9c0.3-0.4,0.7-0.8,1-1.2c0,0.4,0,0.9,0.1,1.4c0,0.3,0,0.6,0,1C594.6,71,593.3,77.6,587.9,82.3z M628.5,63.2
				c-1.2,1-3.7,0.9-4.6,0.8c-0.1,0-0.1,0-0.2,0h-26.8c-0.1-3-0.5-3.8-0.6-4c-0.1-0.7-0.3-2-0.6-2h29.5c0.1,0,0.1-0.2,0.2-0.2
				c0,0,1.5-0.3,2.6,0.6c0.7,0.6,1.1,1.5,1.1,2.9C629.2,62.1,629,62.7,628.5,63.2z"/>
		</g>
	</g>
	<path d="M1082.8,77.1c-0.4-0.1-0.9-0.1-1.3,0c-0.3,0.1-3.1,1.1-3.9,3.7c-0.5,1.7,0.1,3.6,1.7,5.4c0.1,0.2,0.3,0.3,0.5,0.4
		c0.8,0.5,2.1,0.9,3.5,0.9c1.6,0,3.4-0.6,4.8-2.4c0.8-1.1,1.1-2.3,0.7-3.5C1088,79,1084,77.5,1082.8,77.1z M1082.1,83.4
		c-0.5-0.7-0.7-1.2-0.6-1.5c0.1-0.3,0.4-0.6,0.7-0.8c1.2,0.5,2.3,1.2,2.6,1.6C1084,84,1082.7,83.7,1082.1,83.4z"/>
	<path d="M1107.2,66.7c-5.6,1.2-8.4,8.3-8.6,8.6c0,0.1,0,0.1-0.1,0.2c-0.9,3.5-0.5,6.2,1.3,8.1c1.8,1.9,4.6,2.4,6.7,2.4
		c1.5,0,2.7-0.2,3-0.3c0.1,0,0.3-0.1,0.4-0.1c0.8-0.4,8.1-3.9,9-9c0.3-1.5,0.1-3.7-2.1-5.9C1113.7,67.3,1110.4,66,1107.2,66.7z
		 M1115.1,75.8c-0.4,2.2-4.2,4.8-6.6,5.9c-1.5,0.3-4.6,0.3-5.8-1c-0.9-1-0.7-2.8-0.3-4.2c0.3-0.7,2.4-5.3,5.6-6
		c1.8-0.4,3.8,0.6,6.1,2.8C1115.2,74.5,1115.2,75.3,1115.1,75.8z"/>
	<path d="M1139.2,73.2l-0.3-29.6c0-0.1,0-0.2,0-0.3c0-0.1,0-0.1,0-0.2c0-0.2-0.1-0.3-0.2-0.5c0,0,0-0.1,0-0.1c0,0,0,0,0,0
		c0,0,0,0,0,0C1127.4,25.1,1100.2,4.9,1099,4c-2.9-2.1-5.4-2.8-7.5-2.2c-1.7,0.6-2.5,1.9-2.8,2.5l-17.9,27.9
		c-0.3,0.5-0.4,1.1-0.2,1.6c0.2,0.6,0.6,1,1.1,1.3c1.7,0.8,5.9,4.7,6,8.4c0.1,2.1-1.3,3.8-4.1,5.3c-2.9,1.5-5.6,1.9-7.9,1.1
		c-3.5-1.1-5.3-4.6-5.4-4.6c-0.3-0.6-0.9-1-1.6-1.1c-0.7-0.1-1.4,0.2-1.8,0.8c-0.1,0.1-5.8,7.8-11.3,16.2
		c-11.5,17.4-11,20.4-10.8,21.7c0.1,0.7,0.4,1.1,0.7,1.5l9.5,20.4c0,0.1,0.1,0.2,0.2,0.3c0.1,0.2,2.8,3.9,7.1,3.9c0.2,0,0.5,0,0.7,0
		c0.1,0,0.3,0,0.4-0.1l82-26c0.1,0,0.2-0.1,0.4-0.2C1136.2,82.5,1139.9,80.3,1139.2,73.2z M1038.8,81.9c0.2-1.4,1.7-4.5,4-8.5
		c3.8-6.5,9.8-15.4,15.7-23.7c1.3,1.5,3.2,3.2,5.9,4.1c3.4,1.1,7.1,0.6,11.1-1.4c5.3-2.7,6.3-6.4,6.3-8.9c-0.1-4.4-3.5-8.6-6.4-10.8
		l16.9-26.3c0.1-0.1,0.2-0.3,0.2-0.4c0,0,0.1-0.2,0.4-0.3c0.6-0.2,1.9,0.1,3.9,1.6c0.2,0.2,21.8,16.2,34.2,31.5
		c1.5,1.8,2.8,3.6,3.9,5.4c0,0.2-0.1,0.5-0.2,0.7c-0.3,1-0.8,2.2-1.8,2.8c-1.4,0.9-3.6,1.5-5.1,1.8c-2.4-2.9-7.5-6.5-14.9-4
		c-3.2,1.1-5.3,2.9-6.4,5.4c-1,2.5-0.7,5.1-0.2,6.9l-38.7,12c-1,0.3-1.6,1.3-1.4,2.3c0,0.1,1.3,7-2.7,8.4c-2.9,1-5.5,1.1-7,0.2
		c-0.7-0.4-1.2-1.1-1.3-1.9c-0.1-0.6-0.5-1.2-1.1-1.5c-0.6-0.3-1.3-0.2-1.9,0.1c-3.7,2.2-8.2,4.1-11.2,4.6
		C1040.1,82,1039.3,82,1038.8,81.9z M1134,79.2l-81.5,25.8c-2,0.1-3.5-1.6-3.9-2.1l-8-17.1c3.9-0.3,8.6-2.4,11.6-4
		c0.6,0.9,1.3,1.6,2.3,2.2c2.6,1.5,6.4,1.6,10.4,0.2c5.4-1.9,5.7-8.1,5.5-11.1l39.1-12.2c0.6-0.2,1-0.6,1.2-1.1
		c0.2-0.5,0.2-1.2-0.1-1.7c0,0-1.5-3.2-0.5-5.7c0.6-1.4,1.9-2.5,4-3.2c7.3-2.4,10.8,3.2,11,3.5c0.4,0.7,1.2,1.1,2,1
		c0.2,0,4.8-0.8,7.8-2.6c0,0,0,0,0,0l0.3,22.3c0,0.1,0,0.1,0,0.2C1135.6,77.4,1134.3,78.9,1134,79.2z"/>
	<path d="M1098.4,36.3c0.2,0,0.3,0.1,0.5,0.1c0.1,0,0.2,0,0.3,0c3.5-0.6,5.9-2.1,7-4.4c1.3-2.8,0.4-6.1-0.9-8.2
		c-1.1-1.8-4.1-4.6-7.8-4.7c0,0-0.1,0-0.1,0c-1.8,0-4.4,0.7-6.5,4c-2.1,3.1-1.8,5.6-1.1,7.2C1091.5,34.5,1097.7,36.1,1098.4,36.3z
		 M1094.2,25.1c0.9-1.5,2-2.1,3.2-2.1c0,0,0,0,0.1,0c1.8,0,3.7,1.6,4.4,2.7c0.6,1,1.4,3,0.7,4.5c-0.6,1.2-2.2,1.8-3.6,2.1
		c-1.5-0.4-4.7-1.7-5.5-3.7C1093.3,28.3,1092.8,27.2,1094.2,25.1z"/>
	<g>
		<path d="M34.9,51.3c0.1,0,0.2,0.1,0.3,0.1c0.4,0,0.7-0.2,0.8-0.6c0-0.1,3.8-10.8,5.9-13.7c0.2-0.3,0.2-0.6,0.1-0.9
			c-0.1-0.1-0.1-0.2-0.3-0.3c-0.4-0.3-0.9-0.2-1.2,0.2c-0.1,0.1-0.2,0.3-0.3,0.4c-2.3,3.6-5.7,13.3-5.9,13.7
			C34.2,50.7,34.4,51.2,34.9,51.3z"/>
		<path d="M40.3,51.3c0.1,0,0.2,0,0.2,0c0.4,0,0.7-0.2,0.8-0.6c0-0.1,2-6.7,4-9.6c0.3-0.4,0.2-0.9-0.2-1.2c-0.4-0.3-0.9-0.2-1.2,0.2
			c-2.3,3.2-4.2,9.8-4.3,10.1C39.5,50.7,39.8,51.2,40.3,51.3z"/>
		<path d="M104.7,43.4c-2.5-2.5-5.7-3.3-7.8-3.5c-0.7-1.3-1.8-2.7-3.2-4.1c-9.1-9-26.8-10.5-40.1-10.1c-3.1,0.1-6,0.3-8.7,0.6
			L24.3,15c0,0,0,0,0,0c-0.1,0-0.2-0.1-0.2-0.1c0,0-0.1,0-0.1,0c-0.1,0-0.1,0-0.2,0c0,0-0.1,0-0.1,0c0,0-0.1,0-0.1,0l-6.1,0.9
			c-0.7,0.1-1.1,0.7-1.1,1.3l0.5,20.1c-0.8,0.8-1.4,1.7-2,2.5c-1.2,0-6.1,0.2-9.6,3.8c-2.7,2.8-3.9,6.9-3.5,12.1
			C1.9,59.7,3.4,62.9,6,65c1.7,1.4,3.7,2,5.4,2.4l-0.1-2.7c-1.2-0.3-2.5-0.8-3.7-1.7c-2-1.6-3.2-4.2-3.5-7.6
			c-0.4-4.4,0.6-7.8,2.7-10c2-2,4.6-2.7,6.2-2.9c-0.5,1.2-0.8,2.3-1,3.1c-0.1,0.6-0.1,1-0.2,1.2c-0.3,0-0.7,0.1-1,0.1
			c-0.7,0.1-1.3,0.4-1.9,0.9c-1.5,1.1-2.2,3.1-2.2,5.8C6.9,56,7.8,58,9.3,59.3c0.6,0.5,1,0.9,2,1.1l0-0.1l0-0.4l0,0l0,4.4l0,2.8
			l0.2,11.2c0,0.3-0.1,6.6,7.2,9.9c9.8,4.4,17.3,6.4,39.1,6.8c1.6,0,3.1,0.1,4.5,0.1c16.9,0,24-2.2,29.2-5.5
			c1.8-1.1,7.2-4.5,7.2-14.2l0-8.1c1.7-0.3,3.6-1.1,5.3-2.5c2.6-2.2,4-5.4,4.2-9.6C108.8,50.1,107.5,46.1,104.7,43.4z M11,57.3
			c-0.9-0.8-1.5-2.1-1.5-3.9c0-0.7,0-1.5,0.2-2.2c-0.2,0.7-0.3,1.5-0.2,2.2C9.6,55.2,10,56.5,11,57.3C11,57.3,11,57.3,11,57.3
			L11,57.3C11,57.3,11,57.3,11,57.3c-1-0.8-1.5-2.1-1.5-3.9c0-0.7,0-1.5,0.2-2.2c0.2-0.6,0.4-1.1,0.9-1.5c0.1-0.1,0.3-0.3,0.4-0.3v0
			c-0.1,0-0.3,0.2-0.4,0.3c-0.4,0.3-0.7,0.9-0.9,1.5c0.2-0.6,0.4-1.1,0.9-1.4c0.1-0.1,0.3-0.2,0.4-0.2L11,57.3
			C11.1,57.3,11.1,57.3,11,57.3z M11,49.5l0.2,7.9c0,0,0,0-0.1,0L11,49.5z M11.1,57.4L11.1,57.4c0.1,0,0.1,0,0.1,0.1l0,0
			c0,0,0,0.1,0.1,0.1C11.3,57.5,11.2,57.5,11.1,57.4z M11.3,57.5C11.3,57.6,11.4,57.6,11.3,57.5L11.3,57.5
			C11.4,57.6,11.3,57.6,11.3,57.5z M90.5,59.8c-0.7-2-2-3.3-3.7-4.1l3.7-10.5c0.1,0.1,0.2,0.3,0.4,0.4c3.5,4.2,3.4,8.6,3,10.8
			c-0.4,0.7-0.8,1.3-1.4,2c-0.6,0.7-1.3,1.4-2,2C90.6,60.2,90.6,60,90.5,59.8z M55.1,68.8c-0.5-0.9-1.5-3-0.8-4.9
			c0.5-1.3,1.9-2.3,4.2-2.9c0.7-0.2,1.1-0.9,0.9-1.6c-0.2-0.7-0.9-1.1-1.6-0.9c-3.2,0.8-5.2,2.4-6,4.6c-0.8,2.1-0.3,4.2,0.3,5.7
			c-2.5-0.1-4.8-0.3-7-0.5c0.1-1.4-0.1-3.1-0.9-4.8c0.3-0.2,0.5-0.4,0.5-0.7c0.1-0.3,2-7.1,9.4-5.8c0.6,0.1,1.3-0.3,1.5-0.9
			c0.1-0.4,1.3-3.6,5.5-2.4c0.7,0.2,1.4-0.2,1.6-0.9c0.2-0.7-0.2-1.4-0.9-1.6c-4.6-1.3-7.2,1.1-8.3,3.1c-2.5-0.3-4.5,0.3-6.1,1.2
			c2.4-1.6,4-3.6,4.9-6.1c2.3-6.3-1-13.1-1.2-13.3c0,0,0-0.1-0.1-0.1c0-0.1-0.1-0.2-0.2-0.3c1.3-0.1,2.5-0.1,3.8-0.1
			c0.2,0,0.3,0,0.5,0c-1.1,3.6-0.4,7.7,0.5,10.4c-1.3,0.6-2.1,1.3-2.1,1.4c-0.6,0.5-0.6,1.3-0.1,1.9c0.5,0.6,1.3,0.6,1.9,0.1
			c0,0,2.2-1.9,4.5-1.6c1.2,0.1,2.1,0.8,3,1.9c0.2,0.3,0.5,0.5,0.9,0.5c0.1,0,0.1,0,0.2,0c0.3,0,0.6-0.1,0.8-0.3
			c0,0,1.9-1.5,4.6-0.5l-1.8,3.5c-2.5-0.1-4.9,1.1-5.2,1.2c-0.6,0.3-0.9,1.1-0.6,1.8c0.3,0.6,1.1,0.9,1.8,0.6
			c0.5-0.2,1.5-0.6,2.6-0.8c0.9-0.2,1.8-0.2,2.6,0.2c0.1,0,0.1,0.1,0.2,0.1c0.6,0.3,0.9,0.9,1.2,1.8c0.1,0.4,0.5,0.8,0.9,0.9
			c0.4,0.1,0.9,0,1.3-0.3c0.5-0.5,2.3-1.7,3.7-1.4c0.7,0.1,1.3,0.7,1.9,1.6c0.3,0.6,1.1,0.9,1.7,0.6c0,0,1.7-0.8,3.5-0.9
			c0.9-0.1,1.8,0,2.7,0.3c0,0,0,0,0.1,0c1,0.4,1.7,1.2,2.2,2.5c0.2,0.5,0.7,0.8,1.2,0.9c-6.4,4.8-16.8,7.3-30.6,7.3
			C57.4,68.8,56.2,68.8,55.1,68.8z M39.1,58.3c1.7-0.2,3.6-0.6,5.7-1.5c0.7-0.3,1.3-0.7,2-1c-2.1,1.4-3.4,3.4-4.1,5.1
			C41.8,59.8,40.6,58.9,39.1,58.3z M42.5,67.9c-8-1-13.6-2.9-17.7-4.9c1.1-1.4,4.3-4.3,10.7-3C42,61.1,42.6,66,42.5,67.9z
			 M88.6,42.9l-0.1,0.3l-0.4,1c-3.6,1-6.4,0.9-8.2-0.4c-2.2-1.6-2.2-4.5-2.2-4.6c0-0.1,0-0.1,0-0.2c0.2-0.3,0.5-0.6,0.7-0.9
			c0.6-0.7,1.4-1.4,2.3-2c1.4-0.8,2.9-1.1,4.6-0.2c0,0,0.1,0,0.1,0.1c0.1,0.1,2.9,1.1,3.3,4.2C88.9,40.9,88.9,41.8,88.6,42.9z
			 M78.4,45.9c1.5,1.1,3.3,1.6,5.5,1.6c1,0,2.1-0.1,3.2-0.4l-2.9,8c-1.8-0.1-3.6,0.4-4.7,0.8c-1-1.3-2.2-1.8-3.1-2
			c-1.7-0.3-3.4,0.4-4.5,1c-0.5-0.9-1.2-1.4-1.8-1.8l5.5-10.9C76.2,43.5,77,44.9,78.4,45.9z M75.7,37.3c-1,1.3-1.6,2.4-1.6,2.5
			l-3.5,7c-2.8-1.2-5-0.5-6.3,0.1c-1.2-1.2-2.5-1.9-4.1-2.1c-0.6-0.1-1.3,0-1.8,0.1c-0.5-1.4-1.8-6-0.3-9.6c0.4-0.9,1-1.8,1.9-2.6
			c0.5-0.4,1-0.7,1.6-1c6.6-3.2,12-0.5,15.1,3.2c0.2,0.2,0.4,0.5,0.5,0.7C76.7,36.1,76.1,36.7,75.7,37.3z M62.9,28.3
			c-0.8,0.3-1.6,0.6-2.5,1c-0.3,0.1-0.5,0.3-0.8,0.5c-0.5-0.4-1.4-1-2.5-1.5C59.2,28.2,61.1,28.2,62.9,28.3z M57.5,31.4
			c-0.4,0.4-0.7,0.8-1,1.2c-0.6,0-1.2,0-1.7,0c-1.9,0-3.7,0.1-5.5,0.2c-0.3-0.4-0.5-0.7-0.7-0.9c1.2-1.3,2.5-2,3.9-2.1
			C54.6,29.7,56.4,30.7,57.5,31.4z M45.2,28.8c1.1-0.1,2.2-0.2,3.4-0.3c-0.7,0.4-1.4,1-2,1.7c-0.6-0.4-1.2-0.8-1.9-1.1L45.2,28.8z
			 M46.1,33c0.2,0.2,0.3,0.3,0.5,0.5c0.3,0.3,0.9,1.2,1.4,2c0.3,0.5,0.7,1.1,0.9,1.5c0.3,0.6,2.8,6.2,1,11.2c-1,2.7-3,4.7-6.2,6.1
			c-9.6,4.3-15.1-2.8-15.3-3.1c-2.6-3.8-3.2-7-3.1-9.3c0-0.1,0-0.2,0-0.4l10-6.4c-0.5,0.9-1,1.9-1.6,2.9c-1.8,3.6-3.5,7.8-3.6,8
			c-0.2,0.4,0,1,0.5,1.1c0.1,0,0.2,0.1,0.3,0.1c0.3,0,0.7-0.2,0.8-0.5c0-0.1,2.3-5.6,4.3-9.4c0.5-1,1.1-1.9,1.5-2.5
			c0.1-0.2,0.2-0.4,0.1-0.6c0-0.2-0.1-0.4-0.3-0.5l4.7-3C43.7,31.3,45.1,32.1,46.1,33z M24.7,34.9l0-0.6l0-3l0.1-6.1l0.1-6.9
			l15.5,8.4l1.7,0.9l-0.4,0.2L39,29.6l-0.4,0.2l-12.3,7.9l-1.6,1L24.7,34.9z M26.3,52.8c0,0,2,2.6,5.5,4.2c-5.4,0.3-8.2,3.2-9.3,4.6
			c-2.3-1.4-3.9-2.9-5-4.4c-0.3-0.4-0.6-0.9-0.9-1.3c0.1-0.2,0.1-0.3,0.1-0.5c0-0.1-0.2-5.1,4.5-10.1c0.5-0.5,1-1,1.5-1.5
			C23,46.4,23.9,49.4,26.3,52.8z M22.3,17.6l-0.2,15.1l0,3.2l-0.1,4.2l-2.7,0.6l-0.1-2.6l-0.1-3.5l-0.4-16.6L22.3,17.6z M14.5,47.8
			c0-0.3,0.1-0.5,0.1-0.5c0-0.1,0-0.2,0-0.3c0-0.1,0-0.7,0.3-1.6c0.2-0.7,0.5-1.7,1.1-2.8c0.2-0.4,0.5-0.9,0.8-1.3l0,1.2
			c0,0.4,0.2,0.8,0.5,1c0.2,0.2,0.5,0.3,0.8,0.3c0.1,0,0.2,0,0.3,0l0.9-0.2c0,0,0,0,0,0c-2.6,2.8-3.9,5.6-4.6,7.8
			c-0.2-0.8-0.2-1.4-0.2-2C14.4,48.7,14.5,48.1,14.5,47.8z M90.3,87.5c-5.3,3.3-12.7,5.5-32.3,5c-21.3-0.4-28.7-2.3-38.1-6.6
			c-5.7-2.6-5.7-7.3-5.7-7.5L14,67.6L14,64.9l0-1.7l0,0.1l0,1.6c0.1,0,0.2,0,0.2,0L14,63.3L13.9,59c0,0,0,0,0,0l0-2.2c0,0,0,0,0,0
			l0,1.7l0.2,0l0-0.3c0,0,0.6,0,0.6,0c0.1,0,0.2,0,0.3,0c0,0,0,0,0.1,0.1c0.1,0.2,0.3,0.3,0.4,0.5c0.2,0.3,0.4,0.5,0.7,0.7
			c6.9,7.9,21.2,11.9,42.5,11.9c17.3,0,29.2-3.7,35.6-11c0.2-0.2,0.3-0.4,0.5-0.5c0.4-0.5,0.8-1,1.1-1.6c0,0-0.1,0-0.1,0
			c0.2-0.3,0.4-0.5,0.4-0.8v0.2v0.2c-0.1,0.1-0.1,0.2-0.2,0.3c0,0,0,0,0,0c0,0,0,0,0,0c0,0,0.1,0,0.2,0v6.4v0.3v2.6l0.1,7.8
			C96.1,82.8,92.8,85.8,90.3,87.5z M96,46.2c0,0.1,0,1.2,0,2.9v0.4c0,0,0.1,0,0.1,0c0,0.2,0,0.4,0,0.7c-0.5-2-1.5-4.1-3.2-6.2
			c-0.5-0.6-1-1.1-1.5-1.7c0.5-3.1-0.6-5.4-2.1-6.8c-1.2-0.9-2.7-1.7-4.4-2.5c-1.2-0.3-2.5-0.3-3.7,0.1c-0.7,0.2-1.3,0.5-1.9,0.9
			c-1.3-1.7-2.8-3.2-4.7-4.3c4.2,0.8,7.6,2,10.3,3.2c0,0,0,0,0,0c1.7,0.8,3.2,1.7,4.4,2.5l0,0c0.9,0.7,1.8,1.4,2.4,2
			c0.9,0.8,1.5,1.7,2.1,2.5c1.5,2.2,2,4,2.2,5.1c0.1,0.5,0.1,0.8,0.1,0.9C96.2,46,96,46.1,96,46.2z M105.9,55.2
			c-0.2,3.5-1.3,6.1-3.3,7.7c-1.1,1-2.5,1.5-3.7,1.8l0-4.2c0.6-0.2,1.3-0.6,1.9-1.1c1.5-1.3,2.3-3.4,2.3-6c0-2.7-0.7-4.6-2.3-5.7
			c-0.6-0.4-1.8-0.7-1.8-0.8v0.3c0-0.1,0-0.2,0-0.3c0-0.1,0-0.1,0-0.2v-0.8c0-0.2-0.1-0.3-0.2-0.5c0,0,0,0,0,0
			c0-0.5-0.2-1.5-0.6-2.7c1.5,0.4,3.2,1.1,4.7,2.5C105.1,47.4,106.1,50.8,105.9,55.2z M99.3,49.8c0.8,0.6,1.2,1.8,1.2,3.6
			c0,1.8-0.4,3.2-1.4,4c-0.1,0.1-0.2,0.1-0.2,0.1v-7.9c0,0,0,0,0,0c0-0.2,0-0.4,0-0.5v0.6C99,49.7,99.2,49.8,99.3,49.8z"/>
	</g>
	<g>
		<circle cx="574" cy="230" r="4"/>
		<circle cx="556" cy="230" r="4"/>
		<circle cx="592" cy="230" r="4"/>
	</g>
	<g>
		<g>
			<path d="M429.3,53.6c-2.7,0-4.8-2.2-4.8-4.8c0-2.7,2.2-4.8,4.8-4.8c2.7,0,4.8,2.2,4.8,4.8C434.2,51.4,432,53.6,429.3,53.6z
				 M429.3,45.7c-1.7,0-3.1,1.4-3.1,3.1c0,1.7,1.4,3.1,3.1,3.1c1.7,0,3.1-1.4,3.1-3.1C432.4,47.1,431,45.7,429.3,45.7z"/>
		</g>
		<g>
			<path d="M389.9,43.1c-2.7,0-4.8-2.2-4.8-4.8s2.2-4.8,4.8-4.8s4.8,2.2,4.8,4.8S392.6,43.1,389.9,43.1z M389.9,35.2
				c-1.7,0-3.1,1.4-3.1,3.1s1.4,3.1,3.1,3.1s3.1-1.4,3.1-3.1S391.6,35.2,389.9,35.2z"/>
		</g>
		<g>
			<path d="M385.4,65c-2.1,0-3.8-1.7-3.8-3.8c0-2.1,1.7-3.8,3.8-3.8c2.1,0,3.8,1.7,3.8,3.8C389.2,63.3,387.5,65,385.4,65z
				 M385.4,59.1c-1.1,0-2,0.9-2,2c0,1.1,0.9,2,2,2c1.1,0,2-0.9,2-2C387.4,60.1,386.5,59.1,385.4,59.1z"/>
		</g>
		<g>
			<path d="M363.9,52.7c-1.9,0-3.4-1.5-3.4-3.4c0-1.9,1.5-3.4,3.4-3.4c1.9,0,3.4,1.5,3.4,3.4C367.3,51.2,365.8,52.7,363.9,52.7z
				 M363.9,47.7c-0.9,0-1.6,0.7-1.6,1.6c0,0.9,0.7,1.6,1.6,1.6c0.9,0,1.6-0.7,1.6-1.6C365.5,48.5,364.8,47.7,363.9,47.7z"/>
		</g>
		<g>
			<path d="M426.6,43.1c-2.1,0-3.8-1.7-3.8-3.8c0-2.1,1.7-3.8,3.8-3.8c2.1,0,3.8,1.7,3.8,3.8C430.4,41.4,428.7,43.1,426.6,43.1z
				 M426.6,37.2c-1.1,0-2,0.9-2,2c0,1.1,0.9,2,2,2c1.1,0,2-0.9,2-2C428.6,38.1,427.7,37.2,426.6,37.2z"/>
		</g>
		<g>
			<path d="M377.5,55c-3.1,0-5.6-2.5-5.6-5.6s2.5-5.6,5.6-5.6s5.6,2.5,5.6,5.6S380.6,55,377.5,55z M377.5,45.7
				c-2.1,0-3.8,1.7-3.8,3.8c0,2.1,1.7,3.8,3.8,3.8c2.1,0,3.8-1.7,3.8-3.8C381.3,47.4,379.6,45.7,377.5,45.7z"/>
		</g>
		<path d="M446.7,41.7c-2.5-2.5-5.7-3.3-7.8-3.5c-0.7-1.3-1.8-2.7-3.2-4.1c-3.6-3.6-8.6-5.9-14.1-7.5c1.6-4.9-0.1-9.4-0.1-9.5
			c-0.1-0.3-0.5-0.6-0.8-0.6c-4.8,0-7.4,3.7-8.6,6c-4.2-6.4-9.1-4.5-9.3-4.4c-0.3,0.1-0.5,0.3-0.5,0.6c-0.5,2-0.5,3.7-0.2,5.3
			c-2.3-0.1-4.5-0.1-6.6,0c-24.9,0.7-34.9,8.1-38.9,14c-1.2,0-6.1,0.2-9.6,3.8c-2.7,2.8-3.9,6.9-3.5,12.1c0.3,4.2,1.8,7.4,4.5,9.5
			c1.7,1.4,3.7,2,5.4,2.4l-0.1-2.7c-1.2-0.3-2.5-0.8-3.7-1.7c-2-1.6-3.2-4.2-3.5-7.6c-0.4-4.4,0.6-7.8,2.7-10c2-2,4.6-2.7,6.2-2.9
			c-0.5,1.2-0.8,2.3-1,3.1c-0.1,0.6-0.1,1-0.2,1.2c-0.3,0-0.7,0.1-1,0.1c-0.7,0.1-1.3,0.4-1.9,0.9c-1.5,1.1-2.2,3.1-2.2,5.8
			c0.1,2.6,0.9,4.6,2.4,5.9c0.6,0.5,1.3,0.9,2,1.1l0-0.1l0,0.1l0,0l0.1,4.2l0.1,2.7l0.2,11.1c0,0.3,0,6.6,7.2,9.9
			c9.7,4.4,17.3,6.4,39.1,6.8c1.6,0,3.1,0,4.5,0c16.9,0,24-2.2,29.3-5.5c1.8-1.1,7.2-4.5,7.2-14.2v-8.1c1-0.3,3.6-1.1,5.3-2.5
			c2.6-2.2,4-5.4,4.2-9.6C450.7,48.4,449.4,44.4,446.7,41.7z M353.2,55.7C353.2,55.7,353.1,55.7,353.2,55.7c-1-0.8-1.6-2.2-1.7-4
			c0-1.2,0.1-2.9,1.1-3.7c0.1-0.1,0.3-0.1,0.4-0.1L353.2,55.7L353.2,55.7z M427.2,31.4c-1.3-0.4-2.5-0.3-3.4-0.1
			c-1.5-0.9-2.6-1.6-3.5-2c0.1-0.1,0.2-0.2,0.2-0.4C423.1,29.7,425.3,30.5,427.2,31.4z M433.1,35.3c-0.8-0.4-1.5-0.7-1.9-0.8
			c-0.4-0.7-0.9-1.2-1.4-1.6C431.2,33.6,432.2,34.4,433.1,35.3z M420.4,42.9c0.2,0.2,0.7,0.7,0.7,1.3c0,0.3-0.1,0.6-0.5,0.9
			c-0.2,0.2-0.3,0.5-0.3,0.7c0,0,0.3,2.5,0,4.5l-0.2,1.2c-1.4-1.6-3.4-2.6-5.7-2.6c-2.9,0-5.4,1.6-6.7,4c-0.1,0.1-0.1,0.3-0.2,0.4
			c-0.1-0.2-0.1-0.4-0.2-0.6c-0.7-1.7-2.2-2.9-4-3.2c0-0.4,0-0.8-0.1-1.1c0.2-0.1,0.5-0.1,0.8-0.1c0.3,0,0.6-0.2,0.8-0.6
			s0-0.7-0.2-0.9c-0.1-0.1-0.2-0.3-0.2-0.3c0,0,0.2-0.3,1.5-0.5c0.3,0,0.5-0.2,0.7-0.5c0.1-0.3,0.1-0.6-0.1-0.8
			c-0.2-0.3-0.5-1-0.3-1.4c0.1-0.3,0.6-0.5,0.9-0.5c0.3-0.1,0.5-0.3,0.7-0.6c0.1-0.3,0-0.6-0.1-0.9c-0.3-0.4-0.9-1.4-0.7-2
			c0.1-0.4,0.7-0.6,1.1-0.7c0.3-0.1,0.6-0.4,0.6-0.7c0.1-0.3-0.1-0.7-0.4-0.9c0,0-0.1-0.1-0.1-0.3c0-0.3,0.2-1.2,2.5-2.8l5.1-0.5
			c1.2,0.5,3.8,1.9,3.6,3.7c0,0.2,0,0.4,0.1,0.5c0,0,1.2,2.3,0.5,4.2C420.1,42.2,420.2,42.6,420.4,42.9z M420.4,56.5
			c0,3.2-2.6,5.8-5.8,5.8c-3.2,0-5.8-2.6-5.8-5.8c0-0.4,0-0.8,0.1-1.2c0.1-0.6,0.3-1.1,0.6-1.6c1-1.8,2.9-3,5.1-3
			c2.3,0,4.3,1.4,5.3,3.3c0.3,0.5,0.4,1.1,0.5,1.7C420.4,56,420.4,56.2,420.4,56.5z M399.2,53.9c0.3-1.1,1.1-2,2.1-2.4
			c0.1-0.1,0.3-0.1,0.4-0.1c0.3-0.1,0.5-0.1,0.8-0.1c0.2,0,0.4,0,0.7,0.1c1.4,0.3,2.5,1.4,2.8,2.7c0,0.2,0.1,0.5,0.1,0.7
			c0,1.9-1.6,3.5-3.5,3.5c-1.6,0-2.9-1.1-3.3-2.5c-0.1-0.3-0.2-0.7-0.2-1C399.1,54.4,399.2,54.1,399.2,53.9z M397.4,54.4
			c-0.2,0-0.5,0-0.7,0c-2.7-0.1-4.7-2.4-4.6-5.1c0.1-2.7,2.4-4.7,5.1-4.6c1.9,0.1,3.5,1.3,4.2,3c0.2,0.6,0.4,1.2,0.4,1.8
			c-0.2,0-0.4,0.1-0.7,0.1C399,50.4,397.5,52.2,397.4,54.4z M361.4,36.4c4.5-4.2,14-9.3,34.2-9.9c2.6-0.1,5-0.1,7.2,0
			c0.1,0.2,0.2,0.4,0.3,0.7c-2.9,0.7-5.1,2-6,2.6c-5.7-2-8.3-0.7-9.2,0c-6.4-1-10,2.3-11.1,3.7c-2.9-0.9-5.5-0.8-7.7,0.3
			c-2.7,1.5-4,4.2-4.5,5.5c-2.4-0.5-4.4-0.4-5.9,0.3C359.4,38.7,360.3,37.6,361.4,36.4z M438,56.4c-0.1,0.1-0.2,0.3-0.2,0.4
			c0,0,0.1,0,0.2,0v6.4v0.3v2.6v7.8c0,7.4-3.3,10.4-5.8,12c-5.3,3.3-12.7,5.5-32.2,5.1c-21.3-0.4-28.6-2.3-38-6.6
			c-5.7-2.6-5.7-7.3-5.7-7.5L356,65.9l-0.1-2.6l0-1.7l0,0.2l-0.1-4.8c0,0,0,0,0,0l0-2c0.3,0.6,0.7,1.1,1.2,1.7
			c0.1,0.2,0.3,0.3,0.4,0.5c0.2,0.3,0.4,0.5,0.7,0.7c6.9,7.9,21.2,11.9,42.5,11.9c17.3,0,29.2-3.7,35.6-11c0.2-0.2,0.3-0.4,0.5-0.5
			c0.4-0.5,0.7-1,1-1.6c0.2-0.3,0.4-0.5,0.4-0.8V56.4z M438,47.4v0.4c0,0,0.1,0,0.1,0c-0.2,2.4-1,5.7-3.6,8.9
			c-5.6,6.9-17.3,10.5-33.9,10.5c-26.3,0-36.8-6.3-41.1-11.6c-2.4-3-3-6-3.1-7.9c0-0.1,0-0.2,0-0.4c0,0,0-0.2,0-0.5
			c0-0.3,0-0.5,0.1-0.7c0-0.3,0.1-0.5,0.1-0.5c0-0.1,0-0.2,0-0.3c0,0,0-0.4,0.1-0.8c0.2-0.9,0.7-1.8,1.4-2.4
			c1.4-1.3,3.7-1.5,6.9-0.8c0.5,0.1,0.9-0.2,1.1-0.6c0,0,0.9-3.6,3.9-5.2c1.9-1,4.2-1,6.9,0c0.4,0.1,0.8,0,1-0.3
			c0,0,3.3-4.8,10.2-3.4c0.3,0.1,0.7-0.1,0.9-0.3c0,0,1.9-2,8.1,0.3c0.3,0.1,0.6,0.1,0.8-0.1c0,0,2.5-1.9,6.2-2.7
			c1.5,2.2,3.5,3.7,4.8,4.4c-1.5,1.3-2.3,2.4-2.3,3.5c0,0.2,0,0.4,0.1,0.5c-0.8,0.4-1.2,1-1.3,1.5c-0.3,0.9,0,1.9,0.4,2.6
			c-0.6,0.3-0.9,0.8-1.1,1.2c-0.3,0.7-0.2,1.4,0,1.9c-1,0.3-1.5,0.8-1.7,1.5c-0.1,0.2-0.1,0.5-0.1,0.7c-1-2-3.1-3.5-5.5-3.6
			c-3.6-0.2-6.7,2.6-6.9,6.2c-0.2,3.6,2.6,6.7,6.2,6.9c0.3,0,0.7,0,1,0c0.6,2.2,2.7,3.8,5.1,3.8c1.9,0,3.5-1,4.5-2.5
			c0.5,3.7,3.7,6.6,7.5,6.6c4.2,0,7.6-3.4,7.6-7.6c0-0.9-0.2-1.8-0.5-2.7l0.5-3.4c0.2-1.7,0.1-3.7,0-4.5c0.6-0.7,0.7-1.4,0.7-1.9
			c0-0.9-0.5-1.7-0.9-2.1c0.5-2.1-0.3-4.2-0.7-4.9c0.1-2.3-2.1-3.9-3.6-4.7c0.6-0.5,1.1-1,1.6-1.6c0.8,0.3,2,1,3.9,2.2
			c0.2,0.1,0.5,0.2,0.8,0.1c0.2,0,3.8-1.2,6,2.5c0.1,0.2,0.3,0.3,0.5,0.4c0.1,0,5.9,1.9,7.3,5.9c0.1,0.2,0.1,0.4,0.2,0.6
			c0,0.2,0.1,0.4,0.1,0.6c0,0,0,0.1,0,0.1c0,0,0,0.1,0,0.1c0.1,0.5,0.1,0.8,0.1,0.9c0,0.1-0.1,0.2-0.1,0.3
			C438,44.6,438,45.7,438,47.4z M441,48c0-0.2,0-0.4,0-0.5L441,48c0,0.1,0.2,0.1,0.3,0.2c0.8,0.6,1.2,1.8,1.2,3.6
			c0,1.8-0.4,3.2-1.3,4c-0.1,0.1-0.1,0.1-0.1,0.1L441,48C441,48,441,48,441,48z M447.8,53.5c-0.2,3.5-1.2,6.1-3.2,7.7
			c-1.1,1-2.6,1.5-3.6,1.8v-4.2c0-0.2,1.2-0.6,1.9-1.1c1.5-1.3,2.3-3.4,2.2-6c0-2.7-0.7-4.6-2.3-5.7c-0.6-0.4-1.8-0.7-1.8-0.8v0.3
			c0-0.1,0-0.2,0-0.3c0-0.1,0-0.2,0-0.4v-0.6c0-0.2-0.1-0.3-0.2-0.5c0,0,0,0,0,0c0-0.5-0.2-1.5-0.6-2.7c1.5,0.4,3.2,1.1,4.7,2.5
			C447.1,45.8,448,49.1,447.8,53.5z"/>
		<path d="M412.9,42.4c-1.3,0-2.5-1-3.1-1.7c-0.3-0.4-0.3-0.9,0.1-1.2c0.4-0.3,0.9-0.3,1.2,0.1c0.3,0.3,1.4,1.4,2.1,1
			c0.4-0.2,1-0.1,1.2,0.3c0.2,0.4,0.1,1-0.3,1.2C413.8,42.3,413.3,42.4,412.9,42.4z"/>
		<path d="M414.5,46.6c-0.7,0-1.3-0.1-1.8-0.3c-0.5-0.2-0.7-0.7-0.5-1.1c0.2-0.5,0.7-0.7,1.1-0.5c0.4,0.1,1.9,0.5,2.3-0.2
			c0.2-0.4,0.8-0.6,1.2-0.4c0.4,0.2,0.6,0.8,0.4,1.2C416.6,46.3,415.5,46.6,414.5,46.6z"/>
	</g>
	<g>
		<path d="M723.5,40.2c-0.2,0-0.4,0-0.6,0c-0.9-0.1-1.8-0.1-2.7-0.1c-2.7,0-5,0-6.3-1.7c-0.9-1.1-1.2-2.7-0.7-5c0-0.1,0-0.1,0-0.2
			c0.4-1.1,1.3-4.6,0.8-6.7c-0.2-0.8-0.2-2.3,1.6-3.7c2.7-2.1,8.6-3,12.2-1.1c2.1,1.1,3.5,2.7,4,4.6c0.6,2,0.2,4.3-1.1,6.3
			c-0.4,0.6-0.6,1.3-0.9,2.1C729,37,727.9,40.2,723.5,40.2z M716.1,34.1c-0.2,1.2-0.2,2.1,0.1,2.5c0.5,0.6,2.3,0.6,4,0.6
			c0.9,0,1.8,0,2.8,0.1c2.5,0.2,3-0.9,3.9-3.4c0.3-0.9,0.7-1.9,1.2-2.7c0.8-1.3,1.1-2.7,0.7-3.9c-0.3-1.1-1.1-2.1-2.5-2.8
			c-2.5-1.3-7.1-0.6-9,0.9c-0.4,0.3-0.5,0.6-0.5,0.6C717.6,29,716.3,33.4,716.1,34.1z"/>
		<path d="M734.2,20.5c-0.5,0-1.1,0-1.8-0.1c-3.7-0.5-3.8-6.2-3.8-6.8c0-0.4,0.2-0.8,0.4-1.1c1.4-1.4,3.7-1.2,6.4,0.5
			c0.7,0.5,4.2,2.9,3.4,5.1C738.4,19.3,737.3,20.5,734.2,20.5z M731.7,14.6c0.2,1.4,0.6,2.7,1.1,2.8c1.6,0.2,2.6,0.1,3-0.2
			c-0.6-0.8-2.4-2.3-3.9-2.6C731.8,14.6,731.8,14.6,731.7,14.6z"/>
		<path d="M745.6,23.2c-0.7,0-1.3-0.2-1.7-0.3l-0.2,0c-2.3-0.6-3.1-3.7-2.7-5.6c0.1-0.7,0.7-1.3,1.4-1.5c1.8-0.5,4.1,1.5,4.9,2.3
			c1.3,1.4,1.3,2.5,1,3.2C747.7,22.8,746.6,23.2,745.6,23.2z M744,19.3c0.1,0.3,0.3,0.6,0.4,0.7l0.2,0c0.1,0,0.2,0.1,0.4,0.1
			C744.7,19.8,744.4,19.5,744,19.3z"/>
		<path d="M807.5,5.2c-1.9-1.6-4.1-2.2-6.4-1.9c-5.2,0.6-9.4,5.8-10,6.6l-13.8,14.1c-0.5,0.3-1.7,1.5-1.9,3.2
			c-0.1,0.6,0,1.5,0.6,2.5l-2.7,2.3c-1.7-1.2-3.2-2.1-4-2.5c-0.2-0.3-0.4-0.4-0.4-0.4c-0.1-0.1-0.2-0.2-0.3-0.2c0,0,0,0,0,0
			c-0.9-0.4-21.7-9.9-44.7,18.5c-0.9-1.1-2.3-1.8-3.9-2c-0.2,0-0.5-0.1-0.8-0.1c-2-0.3-5.7-1-8.1,1.3c-1.5,1.5-2.2,3.9-1.8,7.1
			c-0.3,1.3-0.8,5.5,1.7,7.2c0.8,0.5,1.7,1.2,2.8,1.7c-10.2,19.1-5,29.3-3.7,31.3c0,0.1,0.5,0.8,1,1.3v0c1.3,1.5,4.3,4.5,8.9,7.2
			c4.1,2.4,10.2,4.7,18,4.7c3.1,0,6.6-0.4,10.2-1.3c1.3-0.2,11.8-2,25.9-18.5c0,0,0.1,0,0.1,0c0.6-0.8,14.8-20.6,12.3-35.5
			c-0.7-4-2.2-7.5-4.2-10.4l2.7-3.1c0.2,0.1,0.5,0.2,0.8,0.2c0.1,0,0.3,0,0.4,0c1.4,0,2.8-0.7,4.4-2l15-15.3c0.2-0.2,5.2-4.8,5-9.9
			C810.5,8.8,809.5,6.8,807.5,5.2z M758,56.7c-5.7-0.5-8,7.2-8.4,9.1c-1.2-0.1-2.8,0.3-4.5,2.4c-0.8,1-0.8,3-0.5,4.5
			c0.3,1.6,1.1,2.8,2.3,3.5c0.9,0.5,1.9,0.7,2.9,0.7c0.6,0,1.3-0.1,1.9-0.3c1.2-0.4,2.2-1.3,2.7-2.3c0.1-0.2,0.1-0.4,0.2-0.6
			c0.3,0.1,0.6,0.1,1,0.1c0.2,0,0.5,0,0.7-0.1c-1,1.1-1.9,2.1-3,3.2c-7.2,7.4-13.3,12-18.4,14.8c0.6-0.7,1.1-1.3,1.4-1.7
			c1.1-1.7,1-3,0.6-4.2c1.4,0,3.4-0.7,5.6-3.4c3-3.5,2.7-5.9,1.9-7.3c-1.1-2-3.9-2.9-7.3-2.3c-1.8,0.3-3.2,1.1-4.1,2.5
			c-0.7,1-0.9,2.1-0.9,3c-0.2-0.1-0.3-0.2-0.5-0.4c-0.5-0.4-0.9-0.6-1.3-0.9c1-0.6,2.1-1.6,3.2-3c0.7-0.8,1.9-2.9,2.2-5
			c0.2,0.1,0.5,0.2,0.7,0.3c1,0.4,2.1,0.6,3.2,0.6c1.9,0,3.6-0.6,4.6-1.2c2.3-1.5,2.8-3.1,3.7-5.6l0.2-0.6c1.5-4.1-1.4-6.5-3-7.8
			c-0.8-0.7-1.5-1-2.2-1.2c0.6-0.6,1.2-1.2,1.9-1.7c0.2,0,0.4,0,0.6,0c0.4,0,0.8-0.1,1.1-0.2c0.9-0.3,1.6-0.9,2-1.8
			c0.1-0.3,0.3-0.8,0.3-1.3c6.6-4.8,14.3-7.6,22.5-5.8c0.1,6.1-2.2,13-7,20.4c0.1-0.7,0.2-1.4,0.2-1.9
			C764.1,57.6,760.1,56.7,758,56.7z M756.2,70.7c-0.6,0.2-1.3,0.3-2.2-0.8c-0.1-0.1-0.1-0.2-0.2-0.3c-0.3-0.7-0.7-1.3-1.1-1.9
			c-0.2-0.5-0.2-0.9-0.2-0.9c0.2-0.7,1.8-7.4,5.4-7.1c0.1,0,0.1,0,0.2,0c0,0,3.3-0.1,3.5,2C761.7,63.6,758.9,69.6,756.2,70.7z
			 M751.6,73.2c-0.1,0.2-0.4,0.5-0.9,0.6c-0.7,0.3-1.6,0.2-2.3-0.2c-1.1-0.6-1-2.9-0.8-3.5c0.5-0.6,1.3-1.5,2-1.2
			c0.2,0.1,0.3,0.2,0.5,0.4c0.3,0.6,0.6,1.2,1.1,1.9C751.4,72,751.6,72.8,751.6,73.2z M735.5,77c0.4-0.6,1.1-1,2.1-1.2
			c0.5-0.1,1-0.1,1.4-0.1c1.4,0,2.4,0.4,2.7,1c0.4,0.8-0.1,2.2-1.5,3.9c-1.5,1.7-2.8,2.6-3.7,2.2c-0.8-0.3-1.3-1.4-1.3-2.8
			c0-0.1,0-0.2,0-0.4C735.1,79.7,734.8,78.1,735.5,77z M735.1,63.3c0-0.2-0.1-0.4-0.1-0.7c-0.2-1-0.2-2.5,0.7-3.5
			c1.5-1.5,2.8-1.9,4.1-2.3c0,0,0,0,0.1,0c0.2,0,0.3-0.1,0.5-0.1c0.5-0.1,0.8-0.2,1.2-0.2c0.5,0,1,0.2,1.6,0.7
			c2.2,1.8,2.6,2.8,2,4.5l-0.2,0.6c-0.8,2.3-1.1,3.2-2.5,4.1c-0.8,0.5-3.1,1.1-4.9,0.3c-1.3-0.5-2.1-1.6-2.4-3.3v0L735.1,63.3z
			 M743.9,46.4c0.8-0.5,1.2-0.5,1.4-0.5c0.3,0.2,0.4,0.7,0.5,1.3c0.1,0.6,0.1,1.2,0,1.5c-0.1,0.2-0.2,0.3-0.3,0.3
			c-0.1,0-0.5,0.1-1.5-0.4c0,0,0,0,0,0C743.4,48.2,743.7,47,743.9,46.4z M765.2,30.7c0.9,0.2,1.5,0.5,1.8,0.6c0.2,0.2,0.5,0.5,0.8,1
			c1,1.3,2.5,3.8,3.2,7.6c-7.5-1.4-15.1,0.5-22.6,5.5c-0.3-0.7-0.6-1.3-1.2-1.7c-0.8-0.7-2.6-1.5-5.4,0.5c-0.2,0.2-0.4,0.4-0.5,0.6
			c-0.6,1.4-1.2,4.2,0.5,5.8c-1.3,1.2-2.5,2.4-3.7,3.7c-1.2,0.4-2.8,1.1-4.5,2.8c-1.4,1.4-1.7,3.1-1.7,4.5c-0.1,0.1-0.2,0.3-0.3,0.4
			c-1.7-1.4-3.6-2.4-5.1-1.8c-0.3,0.1-0.6,0.2-0.9,0.3c-0.1,0-0.2,0.1-0.4,0.1c0.4-0.5,0.6-1.2,0.6-2c0-1.1-0.2-2.5-0.4-3.7
			c-0.1-0.8-0.3-1.9-0.3-2.2c0-0.2,0.2-1.1,0-2.3C743.2,27.2,759.7,29.2,765.2,30.7z M726.4,63.3c0.4-0.1,0.8-0.3,1-0.3c0,0,0,0,0,0
			c0.5,0,1.4,0.6,2.3,1.4c0.8,0.7,1.6,1.5,2.2,2.2c0.3,0.3,0.5,0.7,0.7,1c0.5,0.9-0.7,3.7-1.5,4.6c-1.7,2.1-2.8,2.6-3.3,2.7
			c-0.3,0.1-0.7,0-1.1,0c-0.7-0.1-1.6-0.4-2.5-0.9c0-0.1,0-0.4,0-0.7c0-0.1,0-0.2,0-0.3c0-0.4,0.1-0.8,0.1-1.2
			c0-1.2-0.8-2.3-1.5-3.3c-0.3-0.4-0.7-1-0.8-1.3C722.9,64.3,724.7,63.8,726.4,63.3z M712.5,58.2c-0.7-0.4-0.7-2.6-0.4-4.3
			c0-0.2,0-0.3,0-0.5c-0.2-1.6-0.2-3.8,0.9-4.8c1.3-1.2,3.9-0.8,5.5-0.5c0.4,0.1,0.7,0.1,1,0.1c1,0.1,1.7,0.5,2.1,1
			c0.1,0.1,0.2,0.3,0.3,0.4c0.4,0.9,0.4,2,0.3,2.5c-0.1,0.5,0,1.1,0.1,2c0.1,0.4,0.1,0.8,0.2,1.2c0.2,1.1,0.4,2.3,0.4,3.2
			c0,0.7-2,1.2-3.8,1.6l-0.3,0.1c-0.2,0-0.3,0-0.5,0.1c-1.1,0.1-2.1-0.2-3.1-0.6C714.1,59.3,713.3,58.7,712.5,58.2z M713.4,93
			c-0.5-0.4-0.8-0.7-0.9-0.8c-0.1-0.1-0.5-0.7-0.9-1.7c-1.4-3.5-3.2-12.4,4.8-27.2c0.4,0.1,0.8,0.1,1.2,0.1c0.5,0,1.1-0.1,1.7-0.2
			l0.3-0.1c0.5-0.1,1-0.2,1.5-0.4c-0.9,0.9-1.6,2-2.1,3.7l0,0c-0.4,1.3,0.5,2.5,1.3,3.7c0.3,0.5,0.9,1.3,1,1.6c0,0.3,0,0.6-0.1,0.9
			c-0.1,0.9-0.1,2,0.5,3c-0.6,0.2-1.1,0.5-1.7,0.8l-0.6,0.3c-2.2,1.1-3.5,2.5-5.3,4.7c-2.1,2.6-1.8,4.2-1.1,6.8
			c0.8,2.8,4.7,6.5,5.1,6.9c0.1,0.1,0.1,0.1,0.2,0.1C715.9,94.7,714.3,93.7,713.4,93z M715.9,87.5c-0.6-2.3-0.7-2.7,0.5-4.2
			c1.6-1.9,2.6-3.1,4.4-4l0.6-0.3c0.1,0,0.2-0.1,0.3-0.1c1.4-0.7,2.2-1,3.3-0.8c0.1,0,0.2,0.1,0.3,0.1l0.9,0.3
			c1.6,0.6,2.4,0.9,3.5,1.8c0.2,0.2,0.4,0.3,0.7,0.5c1.3,0.9,2.5,1.8,2.8,3.3c0.2,0.8,0.4,1.4,0.6,1.9c0.4,1.2,0.5,1.5,0,2.3
			c-1.9,2.8-6.2,7.2-13.8,4.4C718.5,91.4,716.3,88.9,715.9,87.5z M783.6,55.7c-0.3,12.9-11.3,28.5-12,29.4
			c-13.8,16.2-23.9,17.4-24,17.4c-0.1,0-0.1,0.2-0.2,0.2c-12.7,3.2-21.8-0.8-27.6-3.8c0,0,0,0,0,0c0.4,0,0.8-0.1,1.2-0.1
			c0.3,0,0.6-0.1,0.9-0.1c9.6,0,20.9-6.6,33.4-19.6c13-13.4,19.3-25.7,18.9-36.6c0-0.7-0.1-1.4-0.2-2.1c-0.1-0.4-0.1-0.8-0.2-1.2
			c0-0.2-0.1-0.5-0.1-0.7c-0.1-0.5-0.3-1.1-0.4-1.6c0-0.1,0-0.1,0-0.2c-0.2-0.5-0.3-1.1-0.5-1.6c0,0,0-0.1,0-0.1
			c4.1,3.3,9.2,8.9,10.5,16.7C783.5,53.1,783.6,54.4,783.6,55.7z M780.7,38.2l-4.9-4.5l2.2-1.8l4.5,4.3L780.7,38.2z M803.5,18.8
			l-15,15.2c-1.5,1.2-2.4,1.4-2.7,1.2l-2.5-2.4l-4.2-4.1c-0.3-0.4-0.8-0.9-0.7-1.3c0-0.5,0.6-1,0.7-1.1l14.2-14.4l0.1-0.2
			c1-1.4,4.5-5.1,8-5.5c1.5-0.2,2.8,0.2,4.1,1.3c1.3,1.1,2,2.3,2,3.6C807.7,14.8,803.6,18.7,803.5,18.8z"/>
	</g>
	<path d="M278.9,224C278.9,223.9,278.9,223.9,278.9,224c0-0.1,0-0.1,0-0.2c-0.2-0.6-2.8-9.1-15.4-15.3l8.5-16.5
		c0.4-0.6,2.2-3.4,1.8-6.2c-0.2-1.4-1-2.6-2.2-3.5c-1.6-1.2-3-1.1-3.9-0.8c-2.7,0.8-4.2,4.1-4.3,4.4l-9.1,19.1
		c-6.3-1.8-14.3-3-24.2-3c-0.3,0-0.7,0-1,0c-11.1,0.1-19.7,1.7-26.3,4.2l-8-17.6c-0.3-0.7-2-5.1-5-6.3c-1.2-0.5-2.5-0.4-3.7,0.2
		c-1.2,0.6-2.1,1.6-2.5,2.9c-1,3.1,1,7,1.2,7.4l8.8,18c-11,7.4-12.5,16.9-12.6,17.5c0,0.1,0,0.1,0,0.2c-0.2,1.1-2.9,19.8,9.5,34.3
		c9,10.5,23.4,15.8,43,15.8c15.5,0,27.4-4.6,35.3-13.8C282.5,248.9,279.1,225,278.9,224z M275.8,224.2l-0.4,1c-0.5,1.1-1.4,3-3.1,5
		c-0.2-0.6-0.5-1-0.8-1.4c-0.9-1.2-2.3-1.8-3.5-2.3c2.6-3,2.9-6.8,2.9-7c0-0.7-0.4-1.3-1-1.5c-4.2-1.5-8.7-0.4-11.8,0.8l4-7.7
		C272.1,216.2,275.2,222.5,275.8,224.2z M253.5,232.8c-1.2-1.2-0.8-3.2-0.7-3.7l3-5.8c1.2-0.7,6.9-3.7,11.9-2.7
		c-0.4,1.6-1.3,4.3-4,5.6c-0.6,0.3-0.9,1-0.8,1.7s0.8,1.2,1.5,1.2c0.9,0,3.7,0.3,4.8,1.7c0.5,0.6,0.6,1.4,0.4,2.5
		c-3.2,3-7.9,6.2-14.7,8.6C255.9,237.4,255.1,234.4,253.5,232.8z M255.9,208.7l1.3-2.8l9-18.8c0.3-0.8,1.3-2.5,2.4-2.7
		c0.3-0.1,0.7-0.1,1.4,0.4c2.4,1.7-0.2,5.4-0.3,5.6c0,0.1-0.1,0.1-0.1,0.2l-8.7,16.7l-1.4,2.7l-9.3,17.9c0,0.1-0.1,0.2-0.1,0.3
		c-0.1,0.2-1.2,4.2,1.4,6.8c1,1,1.5,3.7,0.1,7.9c-1,0.3-2,0.5-3.1,0.8c0.6-2.2,1-4.3,0.4-5.4c-0.3-0.7-1-1.1-1.7-1
		c-0.8,0.1-1.9,0.1-4.8,7.6c-0.7,0.1-1.4,0.2-2.2,0.3c1.5-3.4,2.6-7.4,1.2-9.2c-0.5-0.6-1.1-0.8-1.9-0.7c-0.6,0.1-2.5,0.4-6.5,10.4
		c-0.5,0-1,0-1.5,0.1c1-5.7,3.7-14.8,8.9-15.7c0.9,0,4.7-0.6,8.4-6.3c0-0.1,0.1-0.1,0.1-0.2L255.9,208.7z M238.5,240.5
		c-0.4,1.4-1.1,3.2-1.9,4.9c-0.1,0-0.3,0-0.4,0C237,243.6,237.8,241.8,238.5,240.5z M223.4,232.3c0.2,0,0.3-0.1,0.5-0.2
		c0.1,0,5-3.2,12.5-3.7c-5.3,3.6-7.4,13-8.2,17.4c-0.3,0-0.6,0-0.9,0c-0.9,0-1.7,0-2.5,0C225.2,240.4,224.8,235.9,223.4,232.3z
		 M209.9,221.9C209.9,221.9,209.9,221.9,209.9,221.9c0-0.1-0.5-2.4,1-4.1c1.3-1.5,3.7-2.2,7-2.2c0.1,3.9,1.7,6.4,2.7,7.6l-3,1.6
		c0,0-0.1,0-0.1,0.1c-2.8-1.7-5.7-1.9-7.2-2L209.9,221.9z M226.5,223.5C226.5,223.5,226.6,223.5,226.5,223.5l11-7.1
		c0.1,2.3-0.3,5.9-2.3,8.9c0,0.1-0.1,0.1-0.1,0.2c-7.7,0.7-12.6,3.9-12.8,4.1c0,0,0,0-0.1,0.1c-0.6-1-1.3-1.9-2-2.7L226.5,223.5z
		 M221,214.3c0-0.3,0-0.4,0.1-0.7c0.1-0.8,0.3-1.6,0.6-2.6c1.8,0.6,5.2,2.4,6.2,7.2c0.1,0.2,0.2,0.4,0.3,0.6l-3.3,2.1l-1.6,0.9
		c0,0,0,0-0.1-0.1c0,0-2.5-2.1-2.4-6.7C220.9,214.8,221,214.5,221,214.3z M242.9,225.7c-1.5-0.2-2.9-0.3-4.3-0.3
		c1.2-2.3,1.6-4.7,1.8-6.7c0.1,0,0.2,0.1,0.3,0.1c0.4,0,0.8-0.1,1.1-0.4c0,0,3.1-3.1,7.6-3l-3.3,6.8
		C245,223.9,243.9,225,242.9,225.7z M229.1,205c0.3,0,0.6,0,1,0c9.4,0,16.9,1.1,22.9,2.8l-2.2,4.6c-0.1,0-0.1,0-0.2,0
		c-4.9-0.6-8.6,1.9-10.2,3.1c-0.1-1.1-0.2-1.8-0.2-1.9c-0.1-0.5-0.4-0.9-0.9-1.1s-1-0.2-1.4,0.1l-7.2,4.6c-2-8.2-9.5-9.4-9.8-9.5
		c-0.7-0.1-1.4,0.3-1.6,0.9c-0.6,1.4-0.9,2.8-1.1,4c-4.4-0.1-7.7,1-9.6,3.2c-0.4,0.4-0.7,0.9-0.9,1.3l-3.7-8.2
		C210.3,206.7,218.4,205.1,229.1,205z M187.4,191.5c-0.4-0.8-1.5-3.5-1-5.2c0.2-0.5,0.5-0.9,1-1.1c0.2-0.1,0.5-0.2,0.7-0.2
		c0.2,0,0.3,0,0.5,0.1c1.4,0.6,2.8,3.1,3.4,4.6c0,0,0,0.1,0,0.1l7.9,17.5l1.2,2.7l6.8,15.1c0.3,0.6,0.9,1,1.6,0.9
		c0.2,0,4.7-0.6,8.2,2.9c3.3,3.2,4.6,8.9,4,16.8c-5.6-0.3-10.3-0.9-14.4-1.8c-2.7-4.1-5.1-9.8-2.3-14.7c0.2-0.4,0.3-1,0-1.4
		l-7.7-15.9l-1.3-2.7L187.4,191.5z M191.5,237.5c-0.3-1.3-1-6.2,1.4-9.5c1.5-2,3.9-3.1,7.3-3.3l1.8,3.8c-2.4,4.9-1,10.1,1.2,14.4
		C198.1,241.4,194.3,239.4,191.5,237.5z M194.8,213.6l4,8.2c-3.7,0.5-6.5,1.9-8.3,4.4c-2,2.7-2.4,6-2.3,8.5
		c-1.5-1.4-2.5-2.8-3.1-3.9l-1.1-2.6C184.3,226.6,186.3,219.5,194.8,213.6z M266.5,262.9c-7.3,8.5-18.4,12.8-33,12.8
		c-18.6,0-32.3-5-40.7-14.7c-7.2-8.5-8.9-18.8-9.1-25.5c0-0.5,0-1,0-1.5c1.1,1.5,2.6,3.1,4.7,4.8c3.7,2.9,9.1,5.7,17.1,7.6
		c1.4,0.3,2.9,0.6,4.5,0.9c1.8,0.3,3.7,0.6,5.8,0.8c2.7,0.3,5.5,0.4,8.6,0.5c1.2,0,2.4,0,3.7,0c0.5,0,0.9,0,1.4,0
		c1.9,0,3.7-0.1,5.5-0.2c0.2,0,0.5,0,0.7,0c1.6-0.1,3.2-0.3,4.6-0.4c0.2,0,0.5-0.1,0.7-0.1c2.2-0.3,4.2-0.6,6.1-1
		c1-0.2,1.9-0.4,2.8-0.6c1.3-0.3,2.5-0.7,3.7-1c8.6-2.6,14.3-6.4,18.1-10c2-1.9,3.4-3.7,4.5-5.3c0,0.5,0,1.1,0,1.7
		C276.4,239.8,274.9,253.1,266.5,262.9z"/>
	<g>
		<path d="M452.4,185.5c-1.1-1.1-2.4-1.6-3.9-1.6l-86.6,0.6c-3,0.1-5.5,2.6-5.4,5.6l-0.4,63.7c0,0,0,0,0,0c0,0.2,0.1,0.4,0,0.6
			c0,2,0,6.2,3,8.8v8.9c0,0,0,0,0,0.1c0.1,1.3,1.2,3.9,5,3.9h6c0,0,0.1,0,0.2,0c0.7,0,2.4-0.1,3.9-1.7c1.8-1.9,2.4-5,1.9-9.3
			l45.4-0.1c0.1,0,0.2,0.1,0.4,0.1c0,0,0,0,0,0c0.1,0,0.3,0,0.4,0l12,0v7.1c0,0,0,0,0,0.1c0.1,1.3,1.2,3.9,5,3.9h6c0,0,0.1,0,0.1,0
			c0.6,0,3,0.2,4.6-1.5c2.3-2.4,2.4-7.2,1.6-13.5c0.7-1,1.2-2.2,1.3-3.7c0,0,0-0.1,0-0.1l1.5-67.6
			C454.1,188.1,453.5,186.6,452.4,185.5z M359.5,190.1c0-1.4,1.1-2.6,2.4-2.6l58-0.4l0,9.9h-60.5L359.5,190.1z M359.5,200H420
			l0.1,50h-60.9L359.5,200z M371.8,272.2c-0.8,0.9-1.7,0.8-1.8,0.8c0,0-0.1,0-0.1,0h-6c-1.6,0-2-0.7-2-1v-6.5l11,0
			C373.3,268.6,372.9,271,371.8,272.2z M369.2,262.2l-6.9-0.5c-2.9-1.2-3.1-4.3-3.1-7.2c0-0.2,0-0.5,0-0.7l0-0.8h61l0,8.9
			L369.2,262.2z M447.8,272.6c-0.8,0.9-2.8,0.5-2.8,0.5c0,0-0.1,0-0.1,0h-6c-1.6,0-2-0.7-2-1v-7l7,0c1.3-0.1,2.9-0.5,4.4-1.4
			C448.8,268.9,448.6,271.6,447.8,272.6z M449.5,257.1c-0.1,0.7-0.3,1.4-0.6,1.9c-1.3,2.2-4.1,2.8-5,2.9l-9.4,0l-11.4,0l-0.2-74.8
			l25.6-0.2c0.6,0,1.3,0.2,1.7,0.7c0.5,0.5,0.8,1.2,0.8,1.9L449.5,257.1z"/>
		<path d="M436.6,191.6c-6.3,0-11.5,5.2-11.5,11.5c0,6.3,5.2,11.5,11.5,11.5s11.5-5.2,11.5-11.5C448.1,196.7,443,191.6,436.6,191.6z
			 M436.6,211.6c-4.7,0-8.5-3.8-8.5-8.5c0-4.7,3.8-8.5,8.5-8.5s8.5,3.8,8.5,8.5C445.1,207.7,441.3,211.6,436.6,211.6z"/>
		<path d="M431.6,219.6c-2.5,0-4.5,2-4.5,4.5s2,4.5,4.5,4.5s4.5-2,4.5-4.5S434.1,219.6,431.6,219.6z M431.6,225.6
			c-0.8,0-1.5-0.7-1.5-1.5s0.7-1.5,1.5-1.5s1.5,0.7,1.5,1.5S432.4,225.6,431.6,225.6z"/>
		<path d="M441.6,219.6c-2.5,0-4.5,2-4.5,4.5s2,4.5,4.5,4.5s4.5-2,4.5-4.5S444.1,219.6,441.6,219.6z M441.6,225.6
			c-0.8,0-1.5-0.7-1.5-1.5s0.7-1.5,1.5-1.5s1.5,0.7,1.5,1.5S442.4,225.6,441.6,225.6z"/>
		<path d="M431.6,230.6c-2.5,0-4.5,2-4.5,4.5s2,4.5,4.5,4.5s4.5-2,4.5-4.5S434.1,230.6,431.6,230.6z M431.6,236.6
			c-0.8,0-1.5-0.7-1.5-1.5s0.7-1.5,1.5-1.5s1.5,0.7,1.5,1.5S432.4,236.6,431.6,236.6z"/>
		<path d="M441.6,230.6c-2.5,0-4.5,2-4.5,4.5s2,4.5,4.5,4.5s4.5-2,4.5-4.5S444.1,230.6,441.6,230.6z M441.6,236.6
			c-0.8,0-1.5-0.7-1.5-1.5s0.7-1.5,1.5-1.5s1.5,0.7,1.5,1.5S442.4,236.6,441.6,236.6z"/>
		<path d="M431.6,240.6c-2.5,0-4.5,2-4.5,4.5s2,4.5,4.5,4.5s4.5-2,4.5-4.5S434.1,240.6,431.6,240.6z M431.6,246.6
			c-0.8,0-1.5-0.7-1.5-1.5s0.7-1.5,1.5-1.5s1.5,0.7,1.5,1.5S432.4,246.6,431.6,246.6z"/>
		<path d="M441.6,240.6c-2.5,0-4.5,2-4.5,4.5s2,4.5,4.5,4.5s4.5-2,4.5-4.5S444.1,240.6,441.6,240.6z M441.6,246.6
			c-0.8,0-1.5-0.7-1.5-1.5s0.7-1.5,1.5-1.5s1.5,0.7,1.5,1.5S442.4,246.6,441.6,246.6z"/>
	</g>
	<g>
		<path d="M275.7,38c-2.5-2.5-5.7-3.3-7.8-3.5c-0.7-1.3-1.8-2.7-3.2-4.1c-9.1-9-26.8-10.5-40.1-10.1c-24.9,0.7-34.9,8.1-38.9,14
			c-1.2,0-6.1,0.2-9.6,3.8c-2.7,2.8-3.9,6.9-3.5,12.1c0.3,4.2,1.8,7.4,4.5,9.5c1.7,1.4,3.7,2,5.4,2.4l-0.1-2.7
			c-1.2-0.3-2.5-0.8-3.7-1.7c-2-1.6-3.2-4.2-3.5-7.6c-0.4-4.4,0.6-7.8,2.7-10c2-2,4.6-2.7,6.2-2.9c-0.5,1.2-0.8,2.3-1,3.1
			c-0.1,0.6-0.1,1-0.2,1.2c-0.3,0-0.7,0.1-1,0.1c-0.7,0.1-1.3,0.4-1.9,0.9c-1.5,1.1-2.2,3.1-2.2,5.8c0.1,2.6,0.9,4.6,2.4,5.9
			c0.6,0.5,1.3,0.9,2,1.1l0-0.1l0,0.1l0,0l0.1,4.2l0.1,2.7l0.2,11.1c0,0.3,0,6.6,7.2,9.9c9.7,4.4,17.3,6.4,39.1,6.8
			c1.6,0,3.1,0,4.5,0c16.9,0,24-2.2,29.3-5.5c1.8-1.1,7.2-4.5,7.2-14.2v-8.1c1-0.3,3.6-1.1,5.3-2.5c2.6-2.2,4-5.4,4.2-9.6
			C279.7,44.7,278.4,40.7,275.7,38z M182,52.1L182,52.1c0-0.1,0-0.1-0.1-0.1c-0.9-0.8-1.4-2.1-1.4-3.9c0-1.2,0.2-2.9,1.1-3.7
			c0.1-0.1,0.3-0.3,0.4-0.3l0.2,8c0.1,0.1,0.1,0.1,0.2,0.2C182.3,52.2,182,52.1,182,52.1z M263.5,53c-5.6,6.9-17.3,10.5-33.9,10.5
			c-2.2,0-4.2,0-6.2-0.1c0.8-5.1-1.3-9.9-5.8-13.2c-4.8-3.5-11.2-4.6-14.9-2.6c-2,1.1-4.3,3.6-3.4,8.8c0.2,1.1,0.5,2.1,0.7,3
			c-6-2.2-9.4-5-11.5-7.5c-0.3-0.4-0.6-0.9-0.9-1.3c0.1-0.2,0.1-0.3,0.1-0.5c0-0.1-0.2-5.1,4.5-10.1c6.1-6.5,17.7-10,33.6-10.1
			c22.7-0.2,32.2,5.6,36.1,10.4c3.4,4.1,3.4,8.4,3,10.6C264.5,51.6,264.1,52.3,263.5,53z M203.2,60.4c-0.6-1.4-3.5-8.2,0.7-10.6
			c2.8-1.5,8.2-0.5,12.1,2.4c2.2,1.6,5.8,5.2,4.7,11C213.5,62.8,207.7,61.8,203.2,60.4z M185.5,42.4c0-0.3,0.1-0.5,0.1-0.5
			c0-0.1,0-0.2,0-0.3c0-0.1,0-0.7,0.3-1.6c0.2-0.7,0.5-1.7,1.1-2.8c0.7-1.4,1.8-2.9,3.5-4.5c4.5-4.2,14-9.3,34.2-9.9
			c23-0.6,33.4,4.7,38.1,9.3c0.9,0.8,1.5,1.7,2.1,2.5c1.5,2.2,2,4,2.2,5.1c0.1,0.5,0.1,0.8,0.1,0.9c0,0.1-0.1,0.2-0.1,0.3
			c0,0.1,0,1.2,0,2.9v0.4c0,0,0.1,0,0.1,0c0,0.1,0,0.2,0,0.4c-0.5-1.9-1.5-3.9-3.1-5.9c-7.8-9.6-25.1-11.4-38.2-11.4
			c-16.9,0.1-28.8,3.8-35.5,10.9c-2.6,2.8-3.9,5.6-4.6,7.8c-0.2-0.8-0.2-1.5-0.2-2C185.4,43.3,185.4,42.8,185.5,42.4z M267,59.7v2.6
			v7.8c0,7.4-3.3,10.4-5.8,12c-5.3,3.3-12.7,5.5-32.2,5.1c-21.3-0.4-28.6-2.3-38-6.6c-5.7-2.6-5.7-7.3-5.7-7.5L185,62.2l-0.1-2.6
			l0-1.7l0,0l0,1.7c0.1,0,0.2,0,0.2,0l-0.3-1.7l-0.1-4.9c0,0,0,0,0,0l0.2-1.8c0,0,0,0,0,0l-0.1,1.7c0.4,0,0.6,0,0.6,0
			c0.1,0,0.3,0,0.4,0c0,0,0,0,0,0c0.1,0.2,0.3,0.4,0.4,0.5c0.2,0.3,0.4,0.5,0.7,0.7c6.9,7.9,21.2,11.9,42.5,11.9
			c17.3,0,29.2-3.7,35.6-11c0.2-0.2,0.3-0.4,0.5-0.5c0.4-0.5,0.6-1,0.9-1.4c0.1,0,0.2-0.1,0.2-0.1c0,0,0.1,0,0.2,0v6.4V59.7z
			 M270,44.3c0-0.2,0-0.4,0-0.5L270,44.3c0,0.1,0.2,0.1,0.3,0.2c0.8,0.6,1.2,1.8,1.2,3.6c0,1.8-0.4,3.2-1.3,4
			c-0.1,0.1-0.1,0.1-0.1,0.1L270,44.3C270,44.3,270,44.3,270,44.3z M276.8,49.8c-0.2,3.5-1.2,6.1-3.2,7.7c-1.1,1-2.6,1.5-3.6,1.8
			v-4.2c0-0.2,1.2-0.6,1.9-1.1c1.5-1.3,2.3-3.4,2.2-6c0-2.7-0.7-4.6-2.3-5.7c-0.6-0.4-1.8-0.7-1.8-0.8v0.3c0-0.1,0-0.2,0-0.3
			c0-0.1,0-0.2,0-0.4v-0.6c0-0.2-0.1-0.3-0.2-0.5c0,0,0,0,0,0c0-0.5-0.2-1.5-0.6-2.7c1.5,0.4,3.2,1.1,4.7,2.5
			C276.1,42.1,277,45.4,276.8,49.8z"/>
		<path d="M217,32.7c-2.1,0-3.8,1.7-3.8,3.8c0,2.1,1.7,3.8,3.8,3.8c2.1,0,3.8-1.7,3.8-3.8C220.8,34.4,219.1,32.7,217,32.7z
			 M217,38.5c-1.1,0-2-0.9-2-2c0-1.1,0.9-2,2-2s2,0.9,2,2C219.1,37.6,218.1,38.5,217,38.5z"/>
		<path d="M242.6,38c-0.6-0.5-3.4-2.4-7-1.7c-3.5,0.7-6.6,3.5-9.2,8.3c-2.2,4-2.8,7.7-1.8,11c1.2,4.1,4.5,5.9,4.7,6
			c0.1,0,0.1,0.1,0.2,0.1c0.1,0.1,2.3,0.9,5.1,0.9c1.7,0,3.6-0.3,5.4-1.3c2.8-1.5,4.6-4.2,5.5-8.1C248,41.7,243.6,38.5,242.6,38z
			 M242.9,52.5c-0.7,3.1-2.1,5.3-4.2,6.4c-3.4,1.8-7.6,0.5-8.3,0.3c-0.4-0.3-2.5-1.7-3.3-4.4c-0.8-2.6-0.2-5.6,1.6-9
			c2.2-4.1,4.7-6.4,7.3-7c2.8-0.6,4.9,1.1,5,1.2c0.1,0.1,0.2,0.1,0.3,0.2C241.3,40.3,245.2,42.3,242.9,52.5z"/>
		<path d="M197,42c-1.4,0-2.5,1.1-2.5,2.5c0,1.4,1.1,2.5,2.5,2.5c1.4,0,2.5-1.1,2.5-2.5C199.5,43.1,198.4,42,197,42z M197,45.2
			c-0.4,0-0.7-0.3-0.7-0.7c0-0.4,0.3-0.7,0.7-0.7c0.4,0,0.7,0.3,0.7,0.7C197.7,44.9,197.4,45.2,197,45.2z"/>
		<path d="M254.8,49.9c-1.4,0-2.5,1.1-2.5,2.5s1.1,2.5,2.5,2.5c1.4,0,2.5-1.1,2.5-2.5S256.2,49.9,254.8,49.9z M254.8,53.1
			c-0.4,0-0.7-0.3-0.7-0.7s0.3-0.7,0.7-0.7s0.7,0.3,0.7,0.7S255.2,53.1,254.8,53.1z"/>
	</g>
	<g>
		<path d="M48.1,218.7c2.3,0.3,4.4-1,5.3-3.3c0.3-0.9,1.5-2.2,3.1-2.5c1.4-0.2,2.9,0.5,4.4,2.2c0.1,0.1,0.3,0.6,0.4,1
			c0.4,1.3,1.2,3.7,4.2,3.8c0.5,0,1.1,0,1.8-0.2c2.3-0.5,3.7-2.8,3.4-5.6c-0.4-4.4-4.5-9.1-12.8-9.7c-4.9-0.3-8.9,0.9-11.4,3.4
			c-1.8,1.8-2.6,4.1-2.4,6.5C44.1,216.6,45.8,218.4,48.1,218.7z M48.3,209.7c2-2,5.3-2.9,9.3-2.6c7.7,0.6,10.1,4.8,10.3,7.3
			c0.1,1.2-0.3,2.5-1.4,2.8c-2.1,0.5-2.3-0.2-2.9-1.8c-0.2-0.7-0.5-1.4-0.9-1.9c-2.1-2.4-4.1-3.2-5.7-3.2c-0.4,0-0.8,0-1.2,0.1
			c-2.6,0.4-4.5,2.5-5.1,4.2c-0.7,1.7-2,1.7-2.4,1.6c-0.8-0.1-1.7-0.8-1.8-2C46.5,212.5,47.1,210.9,48.3,209.7z"/>
		<path d="M19.2,204.5c2.3-0.1,3.3-1.2,3.8-2c0.6-1.1,0.6-2.3,0.4-3.4c1.6,0.5,3.7,0.7,5.5,0c1.1-0.5,2.5-1.5,3.2-3.9
			c0.7-2.3,0.4-4.2-0.7-5.4c-0.2-0.2-0.3-0.3-0.5-0.5c1.4-0.9,2.6-2.3,3-3.8c0.6-1.8,0.4-4.6-3.7-7.6c-2.6-1.9-5-2.5-7.2-1.7
			c-1.6,0.6-2.6,1.8-3.4,3c-1-1.5-2.6-2.7-4.5-3.2c-1.9-0.5-5.7-0.6-9.7,4.6c-1.4,1.9-1.9,3.7-1.3,5.6c0.6,1.8,2.1,3.2,3.6,4.2
			c-1.5,0.8-2.8,2.2-3.4,3.8c-0.9,2.4-0.3,4.9,1.7,6.6c1.7,1.5,3.3,1.6,4.3,1.5c1.1-0.2,2-0.7,2.8-1.2c0.3,0.7,0.7,1.4,1.3,2
			c1,1,2.4,1.5,4,1.6C18.7,204.5,19,204.5,19.2,204.5z M15.3,198.2c0-0.6-0.4-1.1-0.9-1.3c-0.1,0-0.2-0.1-0.4-0.1
			c-0.5,0-0.9,0.2-1.2,0.6c-0.3,0.5-1.5,1.9-2.8,2.1c-0.7,0.1-1.4-0.2-2.1-0.8c-1.5-1.4-1.2-2.9-0.9-3.6c0.6-1.6,2.4-3.1,4.7-3
			c0.7,0,1.2-0.5,1.4-1.1c0.1-0.7-0.3-1.3-0.9-1.5c-1.2-0.4-4.6-1.9-5.3-4.1c-0.3-0.9,0-2,0.9-3.1c2.3-3,4.6-4.2,6.9-3.7
			c2.1,0.6,3.6,2.7,3.9,4.3c0.1,0.6,0.6,1.1,1.3,1.2c0.7,0,1.2-0.4,1.4-1c0,0,0.8-3.5,3-4.3c1.2-0.5,2.8,0,4.6,1.3
			c2.2,1.6,3.1,3.2,2.7,4.6c-0.6,1.9-3.2,3.3-4.6,3.5c-0.2,0-0.4,0-0.5,0.1c-0.7,0.1-1.2,0.7-1.1,1.5c0.1,0.7,0.7,1.2,1.4,1.2
			c0.2,0,0.3,0,0.5,0c0.7,0,1.8,0,2.4,0.7c0.6,0.7,0.4,2,0.1,2.9c-0.3,1.1-0.8,1.8-1.6,2.1c-1.9,0.8-5.1-0.4-6.1-1
			c-0.5-0.3-1.2-0.2-1.6,0.2c-0.4,0.4-0.5,1.1-0.2,1.6c0.4,0.8,1.2,2.9,0.7,3.8c-0.2,0.4-0.8,0.6-1.6,0.6c-1.2,0.1-2.1-0.2-2.7-0.8
			C15.3,200,15.3,198.2,15.3,198.2z"/>
		<path d="M18.1,228.7c0.6,0.8,1.2,1.7,1.9,2.4C19.4,230.4,18.9,229.6,18.1,228.7z"/>
		<path d="M95.6,219.9L95.6,219.9c0,0.1,0,0.1,0,0.2L95.6,219.9z"/>
		<path d="M95.7,221.7c0-0.5,0-1.1-0.1-1.6l-0.1,3.4C95.6,222.9,95.7,222.3,95.7,221.7z"/>
		<path d="M20.1,231.2C20.1,231.2,20.1,231.2,20.1,231.2C20.1,231.2,20.1,231.2,20.1,231.2C20.1,231.2,20.1,231.2,20.1,231.2z"/>
		<path d="M105.8,201.8c0.6-1.8,0.4-4.6-3.7-7.6c-2.6-1.9-5-2.5-7.2-1.7c-1.6,0.6-2.6,1.8-3.4,3c-1-1.5-2.6-2.7-4.5-3.2
			c-1.9-0.5-5.7-0.6-9.7,4.6c-0.8,1-1.3,2.1-1.4,3.1c-0.1,0.4-0.1,0.8-0.1,1.2c0-0.4,0-0.8,0.1-1.2c-10.8-3.3-22.2-3.3-22.9-3.2
			c0,0-0.1,0-0.1,0c-4.5,0-22,0-31.5,8.8c-3.4,3.2-5.4,7.4-5.8,11.4h0c0,1,0,0,0,0h0l-0.1,0.4l0,1.3l-0.1,1c0,0.3,0,0.7,0,1.1l0,0.2
			c0,0,0,0.1,0,0.1l-0.4,25.1c-0.1,0.3-0.1,0.5,0,0.8l-0.3,17.6c0,0-0.1,4,2.2,6.3c2.5,2.5,8.7,12.5,37.3,13.3c0.4,0,0.9,0,1.3,0
			c29.8,0.6,36.6-9.8,36.6-9.8s2.5-2.9,2.6-7.8l0.7-43.1l0.1-3.4c0-0.1,0-0.1,0-0.2c-0.1-0.8-0.2-1.5-0.3-2.2c-0.2-1-0.5-2.1-0.8-3
			c0.4,1,0.6,2,0.8,3c0.1-0.7,0.1-1.5-0.1-2.2c1.6,0.5,3.7,0.7,5.5,0c1.1-0.5,2.5-1.5,3.2-3.9c0.7-2.3,0.4-4.2-0.7-5.4
			c-0.2-0.2-0.3-0.3-0.5-0.5C104.1,204.7,105.3,203.4,105.8,201.8z M18.2,218.9c0-0.5,0-0.9,0.1-1.9h0c0.4-3,2.1-6.5,5-9.2
			c9.6-9,29.6-8,30.6-8c0,0,0,0.1,0,0.1c0.1,0-0.1,0,0,0c3.3,0.1,13.1,0.5,22.1,3.4c0,0,0,0,0,0c1,1.5,2.2,2.6,3.5,3.4
			c-1.5,0.8-2.6,2.2-3.3,3.8c-0.9,2.4-0.3,4.9,1.7,6.6c1.7,1.5,3.3,1.6,4.3,1.5c1.1-0.2,2-0.7,2.8-1.2c0.3,0.7,0.7,1.4,1.3,2
			c1,1,2.4,1.5,4,1.6c0.2,0,0.5,0,0.7,0c0.8,0,1.4-0.2,1.9-0.4c0.1,0.4,0.1,0.6,0.1,1c0,0.5-0.1,1.5-0.1,1.5H93v0.3
			c0,3.1-1.8,5.8-4.2,8.1c-8.6,8-27.5,8.1-33.3,8c-0.2-0.1-0.4-0.3-0.6-0.3c0,0,0,0,0,0c-0.2,0-23.3-0.1-32.7-9.9
			c-2.4-2.5-3.7-5.4-3.9-9C18.2,220.1,18.2,219.3,18.2,218.9z M54.9,281.4l0-0.2l-0.4,0c-24.9-0.7-31.7-8.2-34.6-11.4
			c-0.3-0.4-0.6-0.6-0.9-0.9c-1.2-1.2-1.4-3.5-1.4-4.3l0-1.8l0.2-12.4c4.3,4.1,14.8,11.1,38.1,11.7c22.7,0.7,32.6-6.7,36.6-11.4
			l-0.3,15.9c-0.1,3.8-1.9,6.1-2,6.2l-0.1,0.1l-0.1,0.2c-0.2,0.2-1.9,2.4-6.6,4.4c-4.7,2.1-13.2,4.4-27.6,4.2
			C55.4,281.5,54.9,281.4,54.9,281.4z M17.8,250.3C17.8,250.3,17.8,250.3,17.8,250.3l-0.2,11.5L17.8,250.3z M18.1,228.4
			c0.7,0.8,1.2,1.8,1.9,2.6c0,0,0,0.1,0.1,0.2c0,0,0,0.1,0.1,0.1c9.2,9.5,29.1,10.7,33.7,10.8c0.3,0,0.7,0,1.3,0.1
			c3.7,0.1,12.8,0.1,21.5-2.1c5.2-1.3,10.3-3.4,13.9-6.7c0.8-0.7,1.3-1.5,2.2-2.3l0-0.2l0,0.2l-0.2,14.5c0,0.1-0.1,0.2-0.1,0.3
			c0,0-1.4,3.6-6.5,7.1c-4.8,3.2-13.8,7-30,6.5c-27.9-0.8-36.6-11-38.1-13l0.3-17.7C18.1,228.7,18.1,228.4,18.1,228.4
			c0,0-0.1-0.4-0.1-0.4h0v0.7l-0.2,17.7c0,0,0,0,0,0L18.1,228.4c-0.1-0.1,0-0.4,0-0.4h0C18.1,228,18.1,228.4,18.1,228.4z
			 M15.6,219.9c0,0.4,0,0.8,0,1.2c0-0.3,0-0.7,0-1L15.6,219.9z M18.1,228.7c0,0-0.1-0.1-0.1-0.1l0-0.1
			C18,228.5,18.1,228.6,18.1,228.7z M15.6,219L15.6,219C15.6,219,15.6,219,15.6,219l0,0.8c0,0,0,0,0,0L15.6,219c0,0.1,0,0.2,0,0.3
			c0,0,0,0,0,0C15.6,219.2,15.6,219.2,15.6,219z M18,228.5c-1.6-2-2.1-4.1-2.3-6.4C15.9,224.4,16.4,226.6,18,228.5z M90.3,272.7
			l-0.1,0.1l-0.1,0.2c-0.2,0.2-1.9,2.4-6.6,4.4c-4.7,2.1-13.1,4.5-27.5,4.2c0,0-0.1,0-0.1,0c14.3,0.3,22.9-2.1,27.6-4.2
			c4.7-2.1,6.5-4.2,6.6-4.4l0.1-0.2L90.3,272.7c0.1-0.1,1.9-2.3,2-6.2C92.2,270.4,90.3,272.6,90.3,272.7z M103.2,201
			c-0.6,1.9-3.2,3.3-4.6,3.6c-0.2,0-0.4,0-0.5,0.1c-0.7,0.1-1.2,0.8-1.1,1.5c0.1,0.7,0.7,1.2,1.4,1.2c0.2,0,0.3,0,0.5,0
			c0.7,0,1.8,0,2.4,0.7c0.6,0.7,0.4,2,0.1,2.9c-0.3,1.1-0.8,1.8-1.6,2.1c-1.9,0.8-5.1-0.4-6.1-1c-0.1-0.1-0.3-0.1-0.4-0.1
			c-0.4-0.1-0.8,0.1-1.1,0.4c-0.4,0.4-0.5,1.1-0.2,1.6c0.4,0.8,1.2,2.8,0.7,3.7c0,0,0,0,0,0c-0.2,0.4-0.8,0.6-1.6,0.6
			c-1.2,0.1-2.1-0.2-2.7-0.8c-1.1-1.1-1.1-2.9-1.1-2.9c0-0.6-0.4-1.1-0.9-1.3c-0.1,0-0.2-0.1-0.4-0.1c-0.5,0-0.9,0.2-1.2,0.6
			c-0.3,0.5-1.5,1.9-2.8,2.1c-0.7,0.1-1.4-0.2-2.1-0.8c-1.5-1.4-1.2-2.9-0.9-3.6c0.6-1.6,2.4-3.1,4.7-3c0.7,0,1.2-0.5,1.4-1.1
			c0-0.1,0-0.1,0-0.2c0-0.6-0.3-1.1-0.9-1.3c-1.2-0.4-4.6-2-5.3-4.1c-0.1-0.3-0.1-0.5-0.1-0.8c0-0.7,0.3-1.5,1-2.4
			c2.3-3,4.6-4.3,6.9-3.7c2.1,0.6,3.6,2.5,3.9,4.2c0.1,0.6,0.6,1,1.3,1c0,0,0,0,0,0c0.6,0,1.2-0.2,1.3-0.9c0,0,0.8-3.3,3-4.1
			c1.2-0.5,2.8,0,4.6,1.4C102.8,198,103.6,199.5,103.2,201z"/>
	</g>
	<path d="M271.1-360.4c-7.2-16.8-21.6-17.2-28.2-15.1c-0.7,0.2-7.4,2.3-11.3,9.3c-3.4,6.2-3.7,14.2-0.7,23.8
		c2.8,9.1,7.4,15.2,13.7,18.1c4.6,2.1,9,2,12.2,1.5c2.4-0.4,4.1-1,4.5-1.2c1-0.3,8.1-2.9,11.7-10.6
		C276.2-341.5,275.5-350.2,271.1-360.4z M246.3-327.9c-5.2-2.4-9-7.6-11.5-15.6c-2.6-8.5-2.5-15.5,0.3-20.7c2.2-4,5.5-6,7.4-6.9
		l15.6,43.9C255.6-326.5,251-325.8,246.3-327.9z M269.4-336.4c-2,4.4-5.5,6.7-7.6,7.8l-15.5-43.6c4.6-0.6,15.1-0.4,21.1,13.4
		C271.4-349.7,272-342.2,269.4-336.4z"/>
	<path d="M220.7-341.6c7.3-16.7-2.1-27.5-8.2-30.9c-0.7-0.4-6.7-3.9-14.5-1.9c-6.9,1.7-12.9,7-17.9,15.8c-4.7,8.3-6.1,15.8-3.9,22.3
		c1.6,4.8,4.7,8,7.3,10c1.9,1.5,3.5,2.3,4,2.5c0.9,0.5,7.7,3.9,15.7,1.3C210.4-325,216.3-331.4,220.7-341.6z M180-337.6
		c-1.8-5.4-0.6-11.8,3.6-19.1c4.4-7.7,9.6-12.4,15.3-13.8c4.4-1.1,8.1-0.1,10.1,0.7l-21.5,41.3C185.4-329.8,181.7-332.7,180-337.6z
		 M202-326.5c-4.5,1.5-8.6,0.6-10.9-0.2l21.3-41c3.6,2.9,10.6,10.8,4.6,24.5C213.1-334.1,208-328.5,202-326.5z"/>
	<path d="M244.4-301c2.7-18.1-9.3-26-16-27.7c-0.7-0.2-7.5-2-14.5,1.9c-6.2,3.5-10.6,10.2-13.2,19.9c-2.4,9.2-1.7,16.8,2.1,22.6
		c2.8,4.2,6.6,6.5,9.6,7.7c2.2,0.9,4,1.3,4.5,1.3c1,0.2,8.4,1.8,15.5-2.9C238.8-282.3,242.8-290,244.4-301z M206.2-286.5
		c-3.1-4.7-3.7-11.2-1.6-19.3c2.2-8.6,6-14.5,11.2-17.4c3.9-2.2,7.8-2.2,9.9-1.9l-9.9,45.5C213.4-280.4,209-282.2,206.2-286.5z
		 M230.3-281.5c-4,2.7-8.2,2.8-10.6,2.6l9.8-45.2c4.3,1.9,13.1,7.6,10.9,22.5C239-291.8,235.6-285,230.3-281.5z"/>
	<g>
		<g>
			<path d="M228.1-467.2c-0.5,0-0.9-0.2-1.3-0.5c-2.9-2.5-5.1-5.4-6.4-8.7c-2.5-6.4-1.8-13.7,2.2-21.7c4.3-8.7,9.9-14.3,16.5-16.5
				c4.8-1.6,9.1-1.1,11.9-0.3c0.2,0,0.3,0,0.5,0.1c0,0,0.3,0.1,0.6,0.2c0.3,0.1,0.6,0.2,0.8,0.3c0.5,0.2,0.9,0.7,1.1,1.2
				c0.2,0.5,0.1,1.1-0.1,1.6l-24.1,43.2c-0.3,0.5-0.8,0.9-1.4,1C228.3-467.2,228.2-467.2,228.1-467.2z M245.5-511.7
				c-1.5,0-3.3,0.2-5.1,0.8c-5.6,1.9-10.4,6.7-14.2,14.5c-3.4,7-4.1,13.2-2,18.5c0.8,2,1.9,3.8,3.4,5.4l21.7-38.8
				C248.2-511.5,246.9-511.7,245.5-511.7z"/>
			<path d="M241.1-462.3c-3,0-5.7-0.6-7.4-1.2c-0.1,0-0.2-0.1-0.3-0.1c0,0-0.2-0.1-0.3-0.1c-1.3-0.5-2.2-0.9-2.3-1
				c-0.3-0.1-0.5-0.3-0.7-0.6c-0.8-0.6-1-1.7-0.5-2.6l24.2-43.3c0.3-0.5,0.8-0.9,1.3-1c0.6-0.1,1.2,0,1.6,0.4
				c2.7,2.1,4.8,4.7,6.3,7.7l0,0c3.1,6.4,3,14.1-0.1,23.1c-3.2,9-8.1,14.9-14.6,17.4C246.1-462.7,243.7-462.3,241.1-462.3z
				 M234.6-467.4c0,0,0.1,0,0.1,0c1.5,0.5,3.7,1.1,6.4,1.1c2,0,4-0.4,5.8-1.1c5.4-2.1,9.5-7.1,12.2-15c2.8-7.9,2.9-14.6,0.3-20
				c0,0,0,0,0,0c-0.8-1.8-2-3.3-3.4-4.7l-22,39.4c0.1,0.1,0.3,0.1,0.4,0.2C234.5-467.5,234.6-467.4,234.6-467.4L234.6-467.4z"/>
		</g>
		<g>
			<path d="M292.8-457.7c-0.1,0-0.2,0-0.3,0c-3.8-0.5-7.2-1.9-10-4c-5.5-4-8.8-10.6-9.8-19.5c-1-9.7,0.7-17.4,5.2-22.8
				c3.2-3.9,7.1-5.7,9.9-6.6c0.1-0.1,0.3-0.1,0.4-0.2c0.1,0,0.3-0.1,0.6-0.1c0.4-0.1,0.6-0.1,0.9-0.2c0.6-0.1,1.1,0.1,1.6,0.4
				c0.4,0.4,0.7,0.9,0.8,1.5l2.7,49.4c0,0.6-0.2,1.2-0.6,1.6C293.8-457.9,293.3-457.7,292.8-457.7z M288.2-506.6
				c-2.2,0.7-4.9,2.2-7.3,5.1c-3.8,4.6-5.2,11.3-4.3,19.8c0.8,7.7,3.6,13.3,8.1,16.7c1.7,1.3,3.7,2.2,5.8,2.8L288.2-506.6z"/>
			<path d="M297.3-457.4c-0.2,0-0.5,0-0.7-0.1c-1-0.1-1.8-0.9-1.8-1.9l-2.7-49.5c0-0.6,0.2-1.1,0.6-1.6c0.4-0.4,1-0.6,1.6-0.5
				c3.4,0.3,6.6,1.4,9.4,3.2c6,3.7,10.1,10.3,12.2,19.5c2.1,9.3,1.1,16.9-3,22.5c-1.5,2-3.3,3.6-5.4,5c-2.6,1.6-5.1,2.5-6.9,2.9
				c-0.1,0-0.2,0.1-0.3,0.1c0,0-0.2,0-0.3,0.1c-1.4,0.3-2.3,0.4-2.5,0.4C297.4-457.4,297.4-457.4,297.3-457.4z M296.2-506.7
				l2.4,45.1c0.1,0,0.3-0.1,0.5-0.1c0,0,0.1,0,0.1,0l0.1,0c0,0,0.1,0,0.1,0c1.5-0.4,3.7-1.1,6-2.5c1.7-1.1,3.2-2.4,4.3-4
				c3.4-4.6,4.2-11.1,2.3-19.2c-1.9-8.2-5.4-13.9-10.5-17h0C300-505.5,298.2-506.3,296.2-506.7z"/>
		</g>
		<g>
			<path d="M253-421.5c-0.4,0-0.7-0.1-1-0.3c-3-1.8-5.3-4.1-7-6.9c-3.2-5.3-3.6-12-1.3-19.7c2.5-8.4,6.7-14.2,12.3-17.2
				c4.1-2.2,7.9-2.3,10.6-2c0.1,0,0.3,0,0.4,0c0,0,0.3,0,0.6,0.1c0.3,0.1,0.6,0.1,0.8,0.2c0.6,0.1,1,0.5,1.3,1
				c0.3,0.5,0.3,1.1,0.1,1.6l-15,41.8c-0.2,0.6-0.6,1-1.2,1.2C253.5-421.6,253.3-421.5,253-421.5z M264.6-463.7
				c-1.9,0-4.2,0.4-6.7,1.7c-4.7,2.5-8.1,7.4-10.4,14.8c-2,6.6-1.7,12.2,0.9,16.5c0.9,1.5,2.1,2.9,3.6,4.1l13.3-37
				C265.1-463.7,264.8-463.7,264.6-463.7z"/>
			<path d="M262.3-418.8c-1.3,0-2.5-0.1-3.4-0.3c-0.1,0-0.2,0-0.3,0l-0.3-0.1c-1.3-0.2-2.1-0.5-2.2-0.6c-0.3-0.1-0.5-0.2-0.7-0.4
				c-0.8-0.5-1.2-1.5-0.9-2.4l15-41.9c0.2-0.5,0.6-1,1.2-1.2c0.5-0.2,1.2-0.2,1.7,0.1c2.7,1.5,5,3.5,6.8,6l0,0
				c3.7,5.2,4.8,12.2,3.3,20.6c-1.5,8.5-5,14.5-10.4,17.7c-1.9,1.1-4,1.9-6.3,2.3C264.5-418.9,263.3-418.8,262.3-418.8z
				 M259.2-423.1c0,0,0.1,0,0.1,0c1.3,0.2,3.4,0.4,5.7,0c1.8-0.3,3.4-0.9,4.9-1.8c4.4-2.6,7.3-7.6,8.5-14.9
				c1.3-7.3,0.4-13.3-2.7-17.6v0c-0.9-1.3-2.1-2.5-3.4-3.5l-13.5,37.7c0.1,0,0.1,0,0.2,0C259.1-423.1,259.1-423.1,259.2-423.1
				L259.2-423.1z"/>
		</g>
	</g>
</g>
<g id="レイヤー_2">
	<g>
		<path d="M796.5-322c0-0.6,0-1.2,0-1.8c0-47.1-33.2-54.6-42.8-55.8c-0.3-0.1-0.6-0.2-0.9-0.2c0,0-0.3-0.1-0.8-0.1
			c-0.5,0-0.8-0.1-0.8-0.1c0,0,0,0,0,0c-0.3,0-0.6,0.2-0.9,0.3c-8.9,1.1-38.2,7.7-42.3,46.5c-0.2,1.4-0.3,2.9-0.3,4.5
			c-0.1,1.6-0.1,3.2-0.1,4.9c0,17.9,5,31.3,14.8,39.8c9.8,8.5,21.8,9.8,28.4,9.8c0.5,0,0.9,0,1.3,0c0.4,0,0.8,0,1.3,0
			c6.7,0,18.7-1.4,28.4-9.8c8.2-7.1,13-17.7,14.4-31.5l0,0C796.3-316.8,796.5-319.2,796.5-322z M752-375.8
			c6.1,0.4,40.5,4.8,40.5,51.9l0,0c0,0.1,0,0.1-0.1,0.2l-0.3-0.2L780-334.6c-0.8-0.7-1.8-0.7-2.5,0.1l-14,13.4L748.1-334
			c-0.8-0.6-1.9-0.6-2.6,0l-15.6,13.7l-18.1-10.6C715-371.4,746.2-375.4,752-375.8z M779.2-287c-7.5,6.5-16.6,8.3-22.9,8.7
			c-0.3-0.1-0.7-0.2-1-0.1c0,0-1.2,0.2-3.2,0.2c-2,0-3.2-0.2-3.2-0.2c-0.4,0-0.7,0-1,0.1c-6.3-0.4-15.5-2.2-22.9-8.7
			c-8.9-7.7-13.3-20.1-13.3-36.8c0-0.9,0-1.7,0-2.6l17.6,10.3c0.7,0.4,1.7,0.3,2.3-0.2l15.4-13.5l15.4,12.9c0.8,0.7,1.9,0.6,2.7-0.1
			l14-13.4l13.3,11.7l0.2,0.1C791.5-304.5,787.1-293.9,779.2-287z"/>
	</g>
</g>
<g id="レイヤー_3">
	<g>
		<path d="M967.8-326.1c1.8-0.9,3.8-2.3,5.5-4.7c2.9-4.2,3.6-9.9,2.1-17c-0.1-0.6-0.5-1.1-1-1.3c-0.3-0.2-7.2-3.8-14-0.7
			c-4.2,1.9-7.3,5.9-9.2,11.9c-3-1.7-8.6-4.7-15.8-7.4c-9.8-3.6-24.4-7.2-37.9-3.5c-11.7,3.2-20.9,11.1-27.3,23.5
			c-0.2,0.5-0.3,1-0.1,1.4c-0.2,0.7,0,1.4,0.5,1.9c13.7,13.9,28.9,18.9,41.9,18.9c4.7,0,9.1-0.5,13-1.3c12.4-2.4,21.9-7.5,25.8-9.7
			c9.6,15.8,21,9.8,21.2,9.8c0.5-0.3,0.9-0.8,1-1.3c1.5-7.1,0.8-12.8-2.1-17C970.2-324.1,969-325.2,967.8-326.1z M969.6-307.5
			c-2.3,0.7-9.4,1.7-16-10.3c-0.3-0.5-0.7-0.8-1.3-1c-0.5-0.1-1.1,0-1.6,0.3c-0.1,0.1-11.2,7.4-26.3,10.3
			c-19.7,3.8-36.6-2.1-50.5-15.8c5.8-11,14-18.1,24.4-20.9c12.5-3.4,26.2,0,35.4,3.4c10.1,3.7,17.4,8.4,17.4,8.4
			c0.5,0.4,1.2,0.4,1.8,0.2c0.6-0.2,1-0.8,1.2-1.4c1.5-6.2,4-10.1,7.6-11.8c3.8-1.7,7.9-0.5,9.7,0.2c1,5.5,0.5,9.8-1.6,12.8
			c-2.5,3.6-6.4,4.3-6.4,4.3c-0.3,0.1-0.6,0.2-0.9,0.4c-0.3-0.1-0.5-0.1-0.5-0.1c-1.1-0.2-2.1,0.6-2.3,1.7s0.6,2.1,1.7,2.3
			c0,0,3.9,0.7,6.4,4.2C970.1-317.2,970.6-312.9,969.6-307.5z"/>
		<circle cx="894.9" cy="-328.3" r="4.5"/>
	</g>
</g>
<g id="レイヤー_4">
	<path d="M443.1-323.8c-0.8-0.8-2.8-1.3-4.1-1.2h-31.4c0.8-4,1.9-9.3,1.5-15.1l27.6-0.5c0.5,0,2.3,0,3.4-0.8
		c2.5-1.7,2.7-3.8,2.3-5.7c-0.7-2.9-3.8-4-4.5-4.1c-0.2,0-1.8,0-2,0l-29.6,1.3c-0.3-0.6-0.7-1.1-1.1-1.6c-2.3-2.9-6.8-1.2-8.7-0.2
		c-0.3-0.4-0.7-0.8-1-1.2c-2.2-2.2-5.7-0.9-7.7,0.3c-0.1-0.1-0.2-0.2-0.3-0.3c-0.8-0.8-1.6-1.2-2.6-1.3l50.1-14.9
		c1-0.3,1-0.5,1.4-0.8c2.1-1.6,1.7-4.7,0.8-6.5c-1.4-2.6-4.5-2.8-5.5-2.6c-0.2,0-0.4,0-0.6,0.1l-76.7,25.5c-0.2,0.1-0.4,0.2-0.6,0.3
		c-0.8,0.6-3.2,2.4-2.6,4.8c0.3,1.1,1.1,1.8,2,2.2c-0.6,0.6-1.2,1.4-1.2,2.4c0,3,2.5,4,3,4.2c0.3,0.1,1.2,0.5,1.8,0.5
		c0,0,16.1-0.2,16.1-0.2c0.6,3.3,0.8,7.2,0.3,14.2h-25.7c-3.2,0-4.5,0.5-5.2,1.4c-0.9,1-1,1.6-1,4.4c0,0.6,0.1,1.3,0.2,2.2
		c0.9,8,2.7,29,27.7,33.3c0,0,0,2.8,0,3.8c0,0.7,0.2,1.2,0.3,1.4c0.6,2,3.6,5.6,7.7,5.6h32.4c4.2,0,5.1-3.6,5.6-5.6
		c0-0.1,0.1-1.3,0.1-1.4v-3.8c26-4.3,28-25.4,28.9-33.5c0.1-0.9,0.2-1.4,0.3-2C444.6-322.1,443.9-322.9,443.1-323.8z M436.8-347.2
		c0.8,0,1.7-0.2,1.8,0.9c0.1,1.5-0.7,1.5-1.2,1.6l-29,0.4c-0.1-0.5-0.3-1.1-0.4-1.6L436.8-347.2z M399.9-349.8
		c0.8-0.7,2-0.7,2.8,0.1c0.6,0.6,5.7,6.6,1.1,23.4c-0.2,0.9-1,1.5-1.9,1.5c-0.2,0-0.4,0-0.5-0.1c-1.1-0.3-1.7-1.4-1.4-2.5
		c4.1-14.6-0.1-19.6-0.1-19.6C399.1-347.8,399.1-349,399.9-349.8z M390.1-351.1c0.7-0.8,2-0.9,2.8-0.1c0.3,0.3,7.7,7.2,3.6,24.8
		c-0.2,0.9-1,1.5-1.9,1.5c-0.2,0-0.3,0-0.5-0.1c-1.1-0.3-1.7-1.3-1.5-2.4c3.6-15-2.2-20.7-2.4-20.9
		C389.4-349,389.4-350.3,390.1-351.1z M388.5-325.5c-0.3,0.8-1.1,1.4-1.9,1.4c-0.2,0-0.4,0-0.6-0.1c-1.1-0.3-1.6-1.5-1.3-2.5
		c4.8-14.8-3.4-22-3.7-22.3c-0.8-0.7-1-2-0.2-2.8c0.7-0.8,2-1,2.8-0.3C384-351.8,394.2-343.1,388.5-325.5z M355.9-349.8L432-375
		c1.1-0.4,1.7,0.3,1.8,0.5c0,0.1,0.7,1.3-0.7,1.7L355.9-349.8C355.9-349.8,355.9-349.8,355.9-349.8z M369.2-348.3l-5,0.2l4.2-1.2
		C368.5-348.9,368.8-348.6,369.2-348.3z M355.7-343.5c0.2-0.4,14.1-1.7,14.1-1.7s0.2,0,0.5,1C370.4-344.2,355.5-343.1,355.7-343.5z
		 M373-347.2c-0.8-0.7-0.9-2-0.1-2.8c0.7-0.8,2-0.9,2.8-0.1c0.3,0.3,8.3,7.9,4.4,25.1c-0.2,0.9-1,1.6-1.9,1.6c-0.1,0-0.3,0-0.4,0
		c-1.1-0.2-1.8-1.3-1.5-2.4C379.6-340.9,373-347.1,373-347.2z M440.6-320c0,0.7-0.1,1.4-0.2,2.3c-0.9,8.1-3.5,27-27.2,30.2
		c-1,0.1-2.2,1-2.2,2v5.2c0,0.6,0.2,3.3-1.6,3.3H377c-1.8,0-3-2.2-3.6-3.2c-0.6-1.1-0.4-5.2-0.4-5.2c0-1-0.2-1.8-1.2-2
		c-23.6-3.2-25.3-21.4-26.2-30.1c-0.1-1-0.2-1.3-0.2-2c0-0.8,0-0.9,0-1c0.2-0.3,0.2-0.4,0.6-0.4c0.2,0,0.7,0,1,0h57.9h0.1h33.5
		c0.2,0,0.9,0,1.3,0c0.1,0,0.3,0,0.5,0.1C440.6-320.7,440.7-320.8,440.6-320z"/>
</g>
<g id="レイヤー_5">
	<path d="M1130.5-342.3c-9.7-17.6-26.3-18.5-36-17.3c0-2.9,0-6-0.2-8.8c0-0.2-0.1-0.4-0.1-0.6c-0.1-0.3-1.3-3.3-4.5-4.2
		c-0.3-0.1-3.1-0.9-5.6,0.6c-1.1,0.7-2.6,2.2-3.1,5.2c0,0.1,0,0.2,0,0.3v7.6c-9-0.8-23.9,0.9-33.2,17.2c-8.2,14.2-4.6,37.8,7.8,51.4
		c6.1,6.8,13.7,10.2,21.7,10.2c3.9,0,7.9-0.8,11.9-2.5c4.2,1.8,8.4,2.7,12.4,2.7c7.7,0,14.8-3.3,20.7-9.7
		C1134.9-303.6,1138.6-327.5,1130.5-342.3z M1085-355v-4v-7.9c0.1-1.5,0.6-1.9,1.2-2.3c0.8-0.5,1.9-0.3,2.3-0.2
		c1,0.3,1.6,0.4,1.8,1.6c0.1,3,0.2,6.2,0.1,9c0,1.6-0.1,3-0.2,4.1c-0.1,1.2-0.2,2-0.4,2.6c-1.1,1.4-4.1,0.2-4.2,0.1
		c-0.1-0.1-0.2-0.1-0.4-0.2c-0.2-0.3-0.3-0.6-0.3-1V-355z M1119.5-292.9c-7.7,8.3-17.7,10.5-28.2,6.2c-0.5-0.8-1.6-1.1-2.5-0.7
		c-0.1,0-0.1,0.1-0.2,0.1c-0.1,0-0.3,0.1-0.4,0.2c-14.8,6.4-24.9-1.3-29.7-6.5c-11.4-12.5-14.7-33.9-7.3-46.8
		c8.5-14.8,21.8-16.1,29.8-15.3v2.2c0,1.5,0.7,4.2,3.1,4.9c1.1,0.5,2.5,0.9,4.1,0.9c1.8,0,3.6-0.6,4.9-2.4c0.6-0.9,1-3,1.2-5.6
		c2.4-0.4,5.4-0.6,8.7-0.4c10.7,0.8,18.8,6,24,15.5C1134.2-327.2,1130.7-305,1119.5-292.9z"/>
</g>
</svg>
