<?xml version="1.0" encoding="utf-8"?>
<!-- Generator: Adobe Illustrator 19.1.0, SVG Export Plug-In . SVG Version: 6.00 Build 0)  -->
<svg version="1.1" xmlns="http://www.w3.org/2000/svg" xmlns:xlink="http://www.w3.org/1999/xlink" x="0px" y="0px"
	 viewBox="0 0 110 110" style="enable-background:new 0 0 110 110;" xml:space="preserve">
<style type="text/css">
	.st0{fill:none;}
</style>
<g id="レイヤー_1">
	<g>
		<path d="M104.7,38c-2.5-2.5-5.7-3.3-7.8-3.5c-0.7-1.3-1.8-2.7-3.2-4.1c-9.1-9-26.8-10.5-40.1-10.1c-24.9,0.7-34.9,8.1-38.9,14
			c-1.2,0-6.1,0.2-9.6,3.8c-2.7,2.8-3.9,6.9-3.5,12.1c0.3,4.2,1.8,7.4,4.5,9.5c1.7,1.4,3.7,2,5.4,2.4l-0.1-2.7
			c-1.2-0.3-2.5-0.8-3.7-1.7c-2-1.6-3.2-4.2-3.5-7.6c-0.4-4.4,0.6-7.8,2.7-10c2-2,4.6-2.7,6.2-2.9c-0.5,1.2-0.8,2.3-1,3.1
			c-0.1,0.6-0.1,1-0.2,1.2c-0.3,0-0.7,0.1-1,0.1c-0.7,0.1-1.3,0.4-1.9,0.9c-1.5,1.1-2.2,3.1-2.2,5.8c0.1,2.6,0.9,4.6,2.4,5.9
			c0.6,0.5,1.3,0.9,2,1.1l0-0.1l0,0.1l0,0l0.1,4.2l0.1,2.7l0.2,11.1c0,0.3,0,6.6,7.2,9.9c9.7,4.4,17.3,6.4,39.1,6.8
			c1.6,0,3.1,0,4.5,0c16.9,0,24-2.2,29.3-5.5c1.8-1.1,7.2-4.5,7.2-14.2v-8.1c1-0.3,3.6-1.1,5.3-2.5c2.6-2.2,4-5.4,4.2-9.6
			C108.7,44.7,107.4,40.7,104.7,38z M11,52.1L11,52.1c0-0.1,0-0.1-0.1-0.1c-0.9-0.8-1.4-2.1-1.4-3.9c0-1.2,0.2-2.9,1.1-3.7
			c0.1-0.1,0.3-0.3,0.4-0.3l0.2,8c0.1,0.1,0.1,0.1,0.2,0.2C11.3,52.2,11,52.1,11,52.1z M92.5,53c-5.6,6.9-17.3,10.5-33.9,10.5
			c-2.2,0-4.2,0-6.2-0.1c0.8-5.1-1.3-9.9-5.8-13.2c-4.8-3.5-11.2-4.6-14.9-2.6c-2,1.1-4.3,3.6-3.4,8.8c0.2,1.1,0.5,2.1,0.7,3
			c-6-2.2-9.4-5-11.5-7.5c-0.3-0.4-0.6-0.9-0.9-1.3c0.1-0.2,0.1-0.3,0.1-0.5c0-0.1-0.2-5.1,4.5-10.1c6.1-6.5,17.7-10,33.6-10.1
			c22.7-0.2,32.2,5.6,36.1,10.4c3.4,4.1,3.4,8.4,3,10.6C93.5,51.6,93.1,52.3,92.5,53z M32.2,60.4c-0.6-1.4-3.5-8.2,0.7-10.6
			c2.8-1.5,8.2-0.5,12.1,2.4c2.2,1.6,5.8,5.2,4.7,11C42.5,62.8,36.7,61.8,32.2,60.4z M14.5,42.4c0-0.3,0.1-0.5,0.1-0.5
			c0-0.1,0-0.2,0-0.3c0-0.1,0-0.7,0.3-1.6c0.2-0.7,0.5-1.7,1.1-2.8c0.7-1.4,1.8-2.9,3.5-4.5c4.5-4.2,14-9.3,34.2-9.9
			c23-0.6,33.4,4.7,38.1,9.3c0.9,0.8,1.5,1.7,2.1,2.5c1.5,2.2,2,4,2.2,5.1c0.1,0.5,0.1,0.8,0.1,0.9c0,0.1-0.1,0.2-0.1,0.3
			c0,0.1,0,1.2,0,2.9v0.4c0,0,0.1,0,0.1,0c0,0.1,0,0.2,0,0.4c-0.5-1.9-1.5-3.9-3.1-5.9c-7.8-9.6-25.1-11.4-38.2-11.4
			C37.9,27.4,25.9,31,19.2,38.2c-2.6,2.8-3.9,5.6-4.6,7.8c-0.2-0.8-0.2-1.5-0.2-2C14.4,43.3,14.4,42.8,14.5,42.4z M96,59.7v2.6v7.8
			c0,7.4-3.3,10.4-5.8,12c-5.3,3.3-12.7,5.5-32.2,5.1c-21.3-0.4-28.6-2.3-38-6.6c-5.7-2.6-5.7-7.3-5.7-7.5L14,62.2L14,59.6l0-1.7
			l0,0l0,1.7c0.1,0,0.2,0,0.2,0l-0.3-1.7L13.8,53c0,0,0,0,0,0l0.2-1.8c0,0,0,0,0,0l-0.1,1.7c0.4,0,0.6,0,0.6,0c0.1,0,0.3,0,0.4,0
			c0,0,0,0,0,0c0.1,0.2,0.3,0.4,0.4,0.5c0.2,0.3,0.4,0.5,0.7,0.7c6.9,7.9,21.2,11.9,42.5,11.9c17.3,0,29.2-3.7,35.6-11
			c0.2-0.2,0.3-0.4,0.5-0.5c0.4-0.5,0.6-1,0.9-1.4c0.1,0,0.2-0.1,0.2-0.1c0,0,0.1,0,0.2,0v6.4V59.7z M99,44.3c0-0.2,0-0.4,0-0.5
			L99,44.3c0,0.1,0.2,0.1,0.3,0.2c0.8,0.6,1.2,1.8,1.2,3.6c0,1.8-0.4,3.2-1.3,4c-0.1,0.1-0.1,0.1-0.1,0.1L99,44.3
			C99,44.3,99,44.3,99,44.3z M105.8,49.8c-0.2,3.5-1.2,6.1-3.2,7.7c-1.1,1-2.6,1.5-3.6,1.8v-4.2c0-0.2,1.2-0.6,1.9-1.1
			c1.5-1.3,2.3-3.4,2.2-6c0-2.7-0.7-4.6-2.3-5.7c-0.6-0.4-1.8-0.7-1.8-0.8v0.3c0-0.1,0-0.2,0-0.3c0-0.1,0-0.2,0-0.4v-0.6
			c0-0.2-0.1-0.3-0.2-0.5c0,0,0,0,0,0c0-0.5-0.2-1.5-0.6-2.7c1.5,0.4,3.2,1.1,4.7,2.5C105.1,42.1,106,45.4,105.8,49.8z"/>
		<path d="M46,32.7c-2.1,0-3.8,1.7-3.8,3.8c0,2.1,1.7,3.8,3.8,3.8c2.1,0,3.8-1.7,3.8-3.8C49.8,34.4,48.1,32.7,46,32.7z M46,38.5
			c-1.1,0-2-0.9-2-2c0-1.1,0.9-2,2-2s2,0.9,2,2C48.1,37.6,47.1,38.5,46,38.5z"/>
		<path d="M71.6,38c-0.6-0.5-3.4-2.4-7-1.7c-3.5,0.7-6.6,3.5-9.2,8.3c-2.2,4-2.8,7.7-1.8,11c1.2,4.1,4.5,5.9,4.7,6
			c0.1,0,0.1,0.1,0.2,0.1c0.1,0.1,2.3,0.9,5.1,0.9c1.7,0,3.6-0.3,5.4-1.3c2.8-1.5,4.6-4.2,5.5-8.1C77,41.7,72.6,38.5,71.6,38z
			 M71.9,52.5c-0.7,3.1-2.1,5.3-4.2,6.4c-3.4,1.8-7.6,0.5-8.3,0.3c-0.4-0.3-2.5-1.7-3.3-4.4c-0.8-2.6-0.2-5.6,1.6-9
			c2.2-4.1,4.7-6.4,7.3-7c2.8-0.6,4.9,1.1,5,1.2c0.1,0.1,0.2,0.1,0.3,0.2C70.3,40.3,74.2,42.3,71.9,52.5z"/>
		<path d="M26,42c-1.4,0-2.5,1.1-2.5,2.5c0,1.4,1.1,2.5,2.5,2.5c1.4,0,2.5-1.1,2.5-2.5C28.5,43.1,27.4,42,26,42z M26,45.2
			c-0.4,0-0.7-0.3-0.7-0.7c0-0.4,0.3-0.7,0.7-0.7c0.4,0,0.7,0.3,0.7,0.7C26.7,44.9,26.4,45.2,26,45.2z"/>
		<path d="M83.8,49.9c-1.4,0-2.5,1.1-2.5,2.5s1.1,2.5,2.5,2.5c1.4,0,2.5-1.1,2.5-2.5S85.2,49.9,83.8,49.9z M83.8,53.1
			c-0.4,0-0.7-0.3-0.7-0.7s0.3-0.7,0.7-0.7s0.7,0.3,0.7,0.7S84.2,53.1,83.8,53.1z"/>
	</g>
</g>
<g id="レイヤー_2">
</g>
<g id="レイヤー_3">
</g>
<g id="レイヤー_4">
</g>
<g id="レイヤー_5">
</g>
</svg>
