<?xml version="1.0" encoding="utf-8"?>
<!-- Generator: Adobe Illustrator 19.1.0, SVG Export Plug-In . SVG Version: 6.00 Build 0)  -->
<svg version="1.1" xmlns="http://www.w3.org/2000/svg" xmlns:xlink="http://www.w3.org/1999/xlink" x="0px" y="0px"
	 viewBox="0 0 110 110" style="enable-background:new 0 0 110 110;" xml:space="preserve">
<style type="text/css">
	.st0{fill:none;}
</style>
<g id="レイヤー_1">
	<g>
		<path d="M85.2,102H24.7c-1.1,0-2-0.8-2-1.9l-1.5-43c-3.9-1.8-14.9-8.1-13.5-22.5c1.6-16.5,19.7-27.3,45-26.8
			c21.5,0.4,46.6,3.8,49.4,25.8c0.9,6.8-0.4,12.2-3.7,16.1c-3.4,4-8.1,5.3-10.8,5.7l-0.5,44.6C87.2,101.2,86.3,102,85.2,102z
			 M26.6,98h56.6l0.5-44.4c0-1.1,0.9-1.9,2-2c0.1,0,6.1-0.2,9.8-4.6c2.6-3,3.5-7.3,2.8-12.9c-1.9-14.8-16-21.7-45.6-22.3
			c-23.2-0.5-39.6,8.8-41,23.2c-1.3,14.2,12,18.8,12.1,18.8c0.8,0.3,1.3,0.9,1.4,1.8L26.6,98z"/>
		<path d="M37.7,61.1c-0.5,0-1-0.2-1.4-0.6c-0.8-0.8-0.8-2,0-2.8l22-22.5c0.8-0.8,2-0.8,2.8,0c0.8,0.8,0.8,2,0,2.8l-22,22.5
			C38.7,60.9,38.2,61.1,37.7,61.1z"/>
		<path d="M34.2,51.6c-0.5,0-1-0.2-1.4-0.6c-0.8-0.8-0.8-2,0-2.8l15-15c0.8-0.8,2-0.8,2.8,0s0.8,2,0,2.8l-15,15
			C35.2,51.4,34.7,51.6,34.2,51.6z"/>
		<path d="M41.2,69.6c-0.5,0-1-0.2-1.4-0.6c-0.8-0.8-0.8-2.1,0-2.8l28.5-28c0.8-0.8,2.1-0.8,2.8,0c0.8,0.8,0.8,2.1,0,2.8L42.6,69
			C42.2,69.4,41.7,69.6,41.2,69.6z"/>
		<path d="M47.7,76.6c-0.5,0-1-0.2-1.4-0.6c-0.8-0.8-0.8-2,0-2.8l26-26c0.8-0.8,2-0.8,2.8,0s0.8,2,0,2.8l-26,26
			C48.7,76.4,48.2,76.6,47.7,76.6z"/>
		<path d="M58.7,78.1c-0.5,0-1-0.2-1.4-0.6c-0.8-0.8-0.8-2,0-2.8l15-15c0.8-0.8,2-0.8,2.8,0s0.8,2,0,2.8l-15,15
			C59.7,77.9,59.2,78.1,58.7,78.1z"/>
	</g>
</g>
<g id="レイヤー_2">
</g>
<g id="レイヤー_3">
</g>
<g id="レイヤー_4">
</g>
<g id="レイヤー_5">
</g>
</svg>
