<?xml version="1.0" encoding="utf-8"?>
<!-- Generator: Adobe Illustrator 19.1.0, SVG Export Plug-In . SVG Version: 6.00 Build 0)  -->
<svg version="1.1" xmlns="http://www.w3.org/2000/svg" xmlns:xlink="http://www.w3.org/1999/xlink" x="0px" y="0px"
	 viewBox="0 0 110 110" style="enable-background:new 0 0 110 110;" xml:space="preserve">
<style type="text/css">
	.st0{fill:none;}
</style>
<g id="レイヤー_1">
	<g>
		<path d="M-305.1-448.3c-0.3,0-0.7-0.1-1-0.2c-1-0.5-1.3-1.7-0.8-2.7c5.7-10.4,5.1-31.9-1.1-37.6c-8.1-7.5-8.9-15.9-3-29.8
			c3.1-7.3,2.6-10.6,2-12c-0.5-1.1-1.2-1.3-1.2-1.3c-0.1,0-0.2-0.1-0.4-0.1c-5-2.5-9.7-2.6-13.1-0.4c-3.4,2.2-5.2,6.4-5,11.5
			c0.1,2.4,0.5,3.8,0.8,5.2c0.8,2.9,1.5,5.7,0.1,15.1c-1.5,10.7,1.2,14.1,6.1,20.3c1.8,2.3,3.9,4.9,6.1,8.3
			c8.7,13.6,1.6,22,1.3,22.4c-0.7,0.8-2,0.9-2.8,0.2c-0.8-0.7-0.9-2-0.2-2.8c0.2-0.3,5.3-6.7-1.7-17.6c-2.1-3.2-4.1-5.8-5.8-8
			c-5.1-6.4-8.7-11-7-23.4c1.2-8.7,0.6-10.9,0-13.5c-0.4-1.5-0.9-3.2-1-6.1c-0.3-6.6,2.2-12.1,6.8-15c4.6-3,10.8-2.9,17,0.1
			c0.7,0.2,2.3,1,3.4,3.2c1.7,3.4,1.1,8.6-1.8,15.5c-6,14-3.8,19.8,2,25.2c8,7.5,8,31.3,1.9,42.4
			C-303.7-448.7-304.4-448.3-305.1-448.3z"/>
		<path d="M-295.8-449.8c-0.8,0-1.5-0.5-1.9-1.3c-0.4-1,0.1-2.2,1.1-2.6c0.3-0.1,7.2-3.1,5-13.2c-0.8-4-3.1-8.6-5.5-13.4
			c-4.4-9-9.5-19.1-7.3-29.9c2.1-10,4.1-13.2,5.6-15.5c1.4-2.1,2.1-3.3,1.9-10.3c-0.4-11.2,6.5-17.7,13.4-19.2
			c6.9-1.5,13.2,1.6,15.7,7.7c4.3,10.4,0.6,15.6-3.1,20.7c-1,1.3-1.9,2.7-2.8,4.1c-2.4,4.1-6.8,11.8-6.2,20.1
			c0.5,7.2,0.5,7.2,4.3,13.6l0.4,0.7c3.4,5.7,6.5,18,2.5,27.5c-2.3,5.6-6.8,9.4-13,10.9c-1.1,0.3-2.2-0.4-2.4-1.5
			c-0.3-1.1,0.4-2.2,1.5-2.4c5-1.2,8.5-4.1,10.3-8.6c3.4-8.1,0.6-19.1-2.3-23.9l-0.4-0.7c-4.2-7.1-4.3-7.4-4.8-15.4
			c-0.6-9.5,4.2-17.9,6.8-22.4c0.9-1.6,2-3.1,3-4.5c3.4-4.7,6.1-8.4,2.6-16.8c-2-4.9-7.1-6.2-11.1-5.3c-4.9,1.1-10.6,5.7-10.3,15.2
			c0.3,7.9-0.7,9.7-2.5,12.6c-1.3,2.1-3.1,4.9-5,14.1c-1.9,9.4,2.6,18.5,6.9,27.3c2.5,5,4.9,9.8,5.8,14.4
			c2.2,10.8-3.9,16.3-7.5,17.8C-295.3-449.9-295.6-449.8-295.8-449.8z"/>
		<path d="M-284.3-459.3c-0.2,0-0.5,0-0.7-0.1c-1-0.4-1.6-1.5-1.2-2.6c0.1-0.2,5.8-15.9-2.2-26.6c-7.1-9.5-8.1-20.1-2.9-30.8
			c2.9-6,5.1-15.5,5.1-15.6c0.2-1.1,1.3-1.8,2.4-1.5c1.1,0.2,1.7,1.3,1.5,2.4c-0.1,0.4-2.3,10-5.4,16.4c-4.5,9.4-3.6,18.4,2.6,26.7
			c9.3,12.5,3,29.7,2.8,30.4C-282.8-459.8-283.5-459.3-284.3-459.3z"/>
		<path d="M-307.3-461.8c-0.1,0-0.2,0-0.3,0c-1.1-0.2-1.9-1.2-1.7-2.3c1-6.8,0.4-7.5-2.2-11c-0.4-0.5-0.9-1.1-1.4-1.8
			c-1.8-2.5-3.2-3.4-4.4-4.2c-2.5-1.7-4.1-3.1-6.1-8.8c-3.5-10.1,3-30,3.2-30.8c0.3-1,1.5-1.6,2.5-1.3c1,0.3,1.6,1.5,1.3,2.5
			c-0.1,0.2-6.4,19.4-3.3,28.2c1.7,4.9,2.8,5.6,4.6,6.8c1.4,1,3.2,2.1,5.4,5.2c0.5,0.7,0.9,1.2,1.3,1.7c3.2,4.2,4.2,5.9,3,14
			C-305.5-462.6-306.4-461.8-307.3-461.8z"/>
		<path d="M-263.3-452.1c-0.6,0-1.2-0.3-1.6-0.8c-0.7-0.9-0.5-2.1,0.4-2.8c8.8-6.6,8.7-18.4,8.7-28.8c0-3.4,0-6.6,0.3-9.4
			c1.2-9.8,4-17.1,4.6-18.4c2.2-10.9,2.2-17.8-0.1-20.6c-1.3-1.6-3.5-1.8-6-1.8c-2.8,0-6.7,9.5-7.8,19.2c-0.4,3.8-1.6,6.4-2.7,9
			c-1.6,3.7-3,6.9-2,12.9c1,6.1,2.3,9.8,3.5,13.3c0.9,2.7,1.9,5.4,2.7,9.1c2,9.3-7,17.5-7.4,17.9c-0.8,0.7-2.1,0.7-2.8-0.1
			c-0.7-0.8-0.7-2.1,0.1-2.8l0,0c0.1-0.1,7.6-7.1,6.1-14.1c-0.7-3.4-1.6-5.9-2.6-8.6c-1.3-3.7-2.7-7.6-3.7-14
			c-1.1-7.2,0.6-11.3,2.3-15.2c1.1-2.4,2.1-4.7,2.4-7.9c0.9-7.9,4.5-22.8,11.7-22.8c2.4,0,6.4,0,9.1,3.2c3.2,3.9,3.5,11.6,0.9,24.2
			c0,0.1-0.1,0.3-0.1,0.4c0,0.1-3.2,7.4-4.3,17.4c-0.3,2.5-0.3,5.6-0.3,8.9c0.1,10.8,0.2,24.2-10.3,32
			C-262.5-452.2-262.9-452.1-263.3-452.1z"/>
		<path d="M-261.6-477.1c-0.8,0-1.5-0.5-1.8-1.2c-3.2-7.4-2.5-19.1,0-25.1c2.1-4.9,3.8-17.8,3.9-18c0.1-1.1,1.1-1.9,2.2-1.7
			c1.1,0.1,1.9,1.1,1.7,2.2c-0.1,0.6-1.8,13.6-4.1,19c-2.2,5.1-2.6,15.8,0,21.9c0.4,1,0,2.2-1.1,2.6
			C-261.1-477.2-261.3-477.1-261.6-477.1z"/>
	</g>
	<g>
		<path d="M-765-505.8c0-7.7-3.2-12.5-6-14.4c-0.7-0.5-1.5-0.8-2.2-1c0.4-3.5,0.2-9.9-5.2-15.1c-5.3-5.1-9.9-6.4-17-4.9
			c-1.5-3.2-5.8-9.3-16.6-9c-10.7-0.4-15,5.8-16.6,9c-7.1-1.5-11.7-0.2-17,4.9c-5.4,5.2-5.6,11.6-5.2,15.1c-0.7,0.2-1.5,0.5-2.2,1
			c-2.9,1.9-6,6.7-6,14.4c-0.1,19.5,17.6,29.3,28.9,33.6c-0.8,1.5-1.5,3.6-1.4,6.8c0.2,7.8,10.5,11.4,20.3,11.4c0.1,0,0.1,0,0.2,0
			c9.8,0,20.3-3.5,20.5-11.4c0.1-3.7-0.8-6.2-1.8-7.6C-781-477.5-764.9-487.2-765-505.8z M-803.9-473.5c-1.1,0.2-1.8,1.3-1.6,2.3
			c0.2,1.1,1.3,1.8,2.3,1.6c0.1,0,2.8-0.6,6.8-1.9l0,0.1c0.1,0,2,1.1,1.9,5.8c-0.1,4.6-8,7.3-15.9,7.4c0,0-0.1,0-0.2,0
			c-0.3,0-0.6,0.1-0.9,0.1c0,0,0,0,0,0c0,0-0.1-0.1-0.1-0.1c-7.9-0.1-15.8-2.9-15.9-7.5c-0.1-3.2,0.8-4.7,1.4-5.4
			c3.1,1,5.2,1.4,5.2,1.4c1.1,0.2,2.1-0.5,2.3-1.6c0.2-1.1-0.5-2.1-1.6-2.3c-0.4-0.1-35-7.1-34.9-32.4c0-6.1,2.3-9.8,4.2-11.1
			c0.6-0.4,1.3-0.6,1.6-0.4c0.7,0.3,1.5,0.2,2.1-0.4c0.6-0.5,0.8-1.3,0.6-2.1c-0.1-0.3-2.3-7.9,3.6-13.6c4.8-4.5,8.1-5.3,14.9-3.5
			c0.5,0.1,1.1,0.1,1.5-0.2c0.5-0.3,0.8-0.7,0.9-1.2c0-0.1,2.1-8.2,13.3-7.8c0,0,0.1,0.1,0.1,0.1c0,0,0,0,0,0c0,0,0.1-0.1,0.1-0.1
			c11.1-0.4,13.2,7.4,13.3,7.7c0.1,0.5,0.5,1,0.9,1.3c0.5,0.3,1,0.4,1.5,0.2c6.8-1.8,10.2-1,14.9,3.5c6,5.7,3.7,13.3,3.6,13.6
			c-0.2,0.7,0,1.6,0.6,2.1c0.6,0.5,1.4,0.7,2.1,0.4c0.4-0.2,1,0,1.6,0.4c1.9,1.3,4.2,4.9,4.2,11.1
			C-768.8-480.6-803.5-473.5-803.9-473.5z"/>
		<path d="M-812-522.8c-1.1,0-2,0.9-2,2v35c0,1.1,0.9,2,2,2s2-0.9,2-2v-35C-810-521.9-810.9-522.8-812-522.8z"/>
		<path d="M-818.7-484.3c-14.2-3.2-20.5-21.5-20.5-21.7c-0.4-1-1.5-1.6-2.5-1.3c-1,0.4-1.6,1.5-1.3,2.5c0.3,0.8,7,20.6,23.5,24.3
			c0.1,0,0.3,0,0.4,0c0.9,0,1.7-0.6,1.9-1.6C-817-483-817.6-484-818.7-484.3z"/>
		<path d="M-782.5-507.2c-1-0.3-2.2,0.2-2.5,1.3c-0.1,0.2-6.3,18.5-20.5,21.7c-1.1,0.2-1.8,1.3-1.5,2.4c0.2,0.9,1,1.6,1.9,1.6
			c0.1,0,0.3,0,0.4,0c16.4-3.7,23.2-23.5,23.5-24.3C-780.9-505.7-781.5-506.9-782.5-507.2z"/>
	</g>
	<g>
		<path d="M-853-273c-0.7,0-1.4-0.4-1.7-1c-0.4-0.7-0.4-1.5,0.1-2.1c0.1-0.1,3.5-5.8,1.2-18c-2.4-13.2,1.1-33.6,12.4-45.6
			c1.3-2.2,11.5-16.9,47-19.3c9.4-0.9,20.5-3.2,22-5.2c0.5-0.7,1.5-1,2.3-0.7c0.8,0.3,1.4,1.2,1.3,2.1c0,0.2-1.5,15.6-2,23.9
			c-0.4,7.3-6,39.1-23.9,51c-17.4,11.6-28.6,12.9-58.5,14.8C-852.9-273-853-273-853-273z M-772.9-359.2c-6.2,2.6-17.1,3.8-20.9,4.2
			c-18.5,1.3-29.5,6-35.4,9.7c-6.4,4-8.5,7.7-8.5,7.8c-0.1,0.2-0.2,0.3-0.3,0.4c-10.5,11-13.8,30-11.5,42.3
			c1.6,8.6,0.7,14.4-0.4,17.7c28.7-2,38.2-3.9,53.3-14c15.3-10.2,21.6-38.7,22.1-48C-774.2-344.9-773.3-354-772.9-359.2z"/>
		<path d="M-823-320.5c-0.8,0-1.5-0.5-1.8-1.2c-2.4-5.6-8.3-5.3-8.5-5.3c-1.1,0.1-2-0.8-2.1-1.9s0.8-2,1.9-2.1c0.4,0,9-0.5,12.5,7.7
			c0.4,1,0,2.2-1.1,2.6C-822.5-320.6-822.7-320.5-823-320.5z"/>
		<path d="M-803-288.5c-0.1,0-0.2,0-0.3,0c-1.1-0.2-1.8-1.2-1.7-2.3c1.3-8.7-7.2-16.1-7.3-16.2c-0.8-0.7-0.9-2-0.2-2.8
			c0.7-0.8,2-1,2.8-0.2c0.4,0.4,10.3,8.8,8.7,19.8C-801.2-289.2-802-288.5-803-288.5z"/>
		<path d="M-813-329.5c-0.8,0-1.5-0.5-1.8-1.2c-2.2-5-9.5-8.1-12.2-8.9c-1.1-0.3-1.7-1.4-1.4-2.5c0.3-1.1,1.4-1.7,2.5-1.4
			c0.5,0.1,11.5,3.4,14.8,11.1c0.4,1,0,2.2-1.1,2.6C-812.5-329.6-812.7-329.5-813-329.5z"/>
	</g>
	<path d="M-602.4-345.9c-5.8-8.3-17.2-18.3-38.6-19.4c0,0,0,0-0.1,0c0,0,0,0-0.1,0c-21.4,1-32.8,11.1-38.6,19.4
		c-8.2,11.8-9.9,26.6-7.2,35.2c2.3,7.6,14.1,10.7,25,11.9c-0.5,4-0.9,12,3.7,18.2c3.5,4.7,9.1,7.4,16.6,7.9c0,0,0.1,0,0.1,0
		c0.2,0,0.5,0,0.7-0.1c0.2,0.1,0.4,0.1,0.7,0.1c0,0,0.1,0,0.1,0c7.5-0.5,13.1-3.1,16.6-7.9c4.6-6.2,4.2-14.3,3.7-18.2
		c10.8-1.2,22.3-4.3,24.6-11.8C-592.5-319.3-594.1-334.1-602.4-345.9z M-626.7-283c-2.8,3.7-7.3,5.8-13.6,6.2
		c-0.2,0-0.4,0.1-0.5,0.1c-0.2-0.1-0.4-0.1-0.5-0.1c-6.3-0.4-10.8-2.5-13.6-6.2c-3.8-5.1-3.4-12.2-2.9-15.5c3.6,0.3,7,0.3,9.7,0.3
		c3.1,0,5.4-0.1,6.3-0.1c0.3,0,0.6-0.1,0.9-0.3c0.3,0.1,0.5,0.2,0.9,0.3c0.9,0,3.2,0.1,6.3,0.1c2.8,0,6.4-0.1,10.1-0.4
		C-623.3-295.2-622.9-288.1-626.7-283z M-599-311.8c-1.6,5.3-11.8,8-22.8,9.1c-0.3-0.1-0.6-0.1-0.9,0c-0.1,0-0.2,0.1-0.3,0.1
		c-6,0.5-12.1,0.6-17.1,0.3c-0.4,0-0.7,0.1-1.1,0.2c-0.3-0.2-0.7-0.3-1.1-0.2c-4.8,0.2-10.7,0.2-16.5-0.3c-0.1-0.1-0.3-0.1-0.4-0.1
		c-0.3-0.1-0.7-0.1-1,0c-11.1-1.1-21.4-3.8-23.1-9.2c-1.9-6.2-1.7-19.8,6.7-31.8c5.3-7.5,15.7-16.6,35.4-17.6
		c19.7,1,30.1,10.1,35.4,17.6C-597.2-331.6-597-318.1-599-311.8z"/>
	<g>
		<path d="M-447-341.6c-10.5-5.3-9.6-14.3-9.6-14.6c0,0,0-0.1,0-0.1c0.2-3.5,0-8.3-3.2-9.8c-2-0.9-4,0-5.4,1c-1.3-1.1-3.1-2.2-5-1.5
			c-1.2,0.4-1.9,1.4-2.4,2.5c-2-1.9-4.3-3.2-6.6-2.5c-0.6,0.2-1.2,0.5-1.6,0.9c-0.4-0.4-0.8-0.7-1.4-0.9c-1.9-0.7-3.8,0.4-5,1.5
			c-1.4-0.9-3.4-1.8-5.4-1c-3.2,1.4-3.3,6.3-3.2,9.8c0,0,0,0.1,0,0.1c0,0.4,0.9,9.4-9.6,14.6c-13.9,6.9-21.7,21.1-21.1,37.9
			c0.6,16.6,13.3,26.2,35.7,27.2c0.6,0.7,1.5,1.6,2.8,2.3c2.3,1.3,4.9,1.5,7.4,0.5c0.3,0.5,0.8,0.9,1.3,1.3c0.3,0.8,1,1.3,1.9,1.3
			c0.4,0,0.8,0,1.2-0.1c0.4,0.1,0.8,0.1,1.2,0.1c0.9,0,1.6-0.5,1.9-1.3c0.5-0.4,1-0.8,1.3-1.3c2.5,1,5,0.8,7.4-0.5
			c1.3-0.7,2.2-1.6,2.8-2.3c22.4-1,35-10.7,35.7-27.2C-425.2-320.5-433.1-334.7-447-341.6z M-429.8-303.9
			c-0.4,10.2-6.4,22.5-32.7,23.4c-0.6,0-1.2,0.4-1.6,0.9c-0.5,0.7-3.2,4.2-7.2,1.5c-0.6-0.4-1.3-0.4-1.9-0.2
			c-0.6,0.3-1.1,0.8-1.2,1.5c0,0.1-0.2,1.1-1.5,1.6c-1.1-0.4-1.4-1.3-1.5-1.6c-0.1-0.7-0.6-1.2-1.2-1.5c-0.2-0.1-0.5-0.2-0.8-0.2
			c-0.4,0-0.8,0.1-1.1,0.3c-4.1,2.7-6.7-0.7-7.2-1.4c0,0,0,0-0.1-0.1c-0.1-0.1-0.1-0.2-0.2-0.2c0,0-0.1-0.1-0.1-0.1
			c-0.1-0.1-0.1-0.1-0.2-0.2c0,0-0.1-0.1-0.1-0.1c0,0,0,0-0.1,0c-13.2-6.1-20.5-13.7-21.7-22.7c-2.2-17,17.9-33.8,18.2-34
			c12.3-10.8,8.8-17.2,8.4-17.9l-1.7,1.1l-1.7,1c0,0,2,4.4-7.5,12.8c-0.9,0.7-22,18.4-19.5,37.6c1.1,8.1,6.2,15.1,15.2,21
			c-18.2-3.3-22.7-13.6-23-22.4c-0.6-15.2,6.5-27.9,18.9-34.1c12.7-6.3,11.9-17.4,11.8-18.6c-0.2-5,0.8-5.8,0.8-5.8
			c0.4-0.1,1.6,0.6,2.5,1.4c0.4,0.4,0.9,0.6,1.5,0.6c0.5,0,1.1-0.3,1.4-0.7c1-1.1,1.7-1.5,2-1.7c0.3,0.5,0.6,1.9,0.6,3
			c0,1.1,0.9,2,1.9,2c1.1,0,2-0.8,2.1-1.9c0.1-1.5,0.7-3,1.1-3.1c0,0,1.4-0.2,5,4.3c0.5,0.7,1.4,0.9,2.2,0.6c0.8-0.3,1.3-1,1.3-1.9
			c0-1.1,0.3-2.5,0.6-3c0.3,0.1,0.9,0.5,2,1.7c0.4,0.4,0.9,0.6,1.4,0.7c0.5,0,1.1-0.2,1.5-0.6c0.8-0.8,2.1-1.5,2.5-1.4
			c0,0,1,0.8,0.8,5.9c-0.1,1.2-0.9,12.3,11.8,18.6C-436.3-331.8-429.3-319-429.8-303.9z"/>
		<path d="M-459.9-335.7l-0.4-0.3c-7.6-5.9-5.9-18-5.9-18.1c0.2-1.1-0.6-2.1-1.7-2.3c-1.1-0.2-2.1,0.6-2.3,1.7
			c-0.1,0.6-2.1,14.6,7.4,21.9l0.4,0.3c8.5,6.5,21.4,16.4,8.4,41.9c-0.5,1-0.1,2.2,0.9,2.7c0.3,0.1,0.6,0.2,0.9,0.2
			c0.7,0,1.4-0.4,1.8-1.1C-435.8-317.3-450.9-328.8-459.9-335.7z"/>
		<path d="M-478.3-356.5c-1.1,0.1-1.9,1.1-1.8,2.2c0,0.6,4.6,55.2,2,67.4c-0.2,1.1,0.5,2.1,1.5,2.4c0.1,0,0.3,0,0.4,0
			c0.9,0,1.8-0.6,2-1.6c2.7-12.8-1.8-66.3-2-68.6C-476.2-355.7-477.2-356.5-478.3-356.5z"/>
		<path d="M-491.2-326.7c0.6-0.9,0.4-2.2-0.5-2.8c-0.9-0.6-2.2-0.4-2.8,0.5c-0.1,0.2-3.6,5.4-4.3,13.9c-0.6,7.7,1.3,19.9,13.1,33.9
			c0.4,0.5,1,0.7,1.5,0.7c0.5,0,0.9-0.2,1.3-0.5c0.8-0.7,0.9-2,0.2-2.8C-503.3-308.2-491.7-325.9-491.2-326.7z"/>
	</g>
	<path d="M-240.7-323c-0.5-0.4-1-0.7-1.6-0.9c1-2.9,0.9-5.5-0.2-7.6c-1-2-2.8-3.2-4.1-3.8c0.2-2.1-0.3-3.9-1.4-5.4
		c-1.6-2.2-4.2-3-5.9-3.4c-0.3-1.5-1-2.9-2.1-3.9c-2-1.9-4.8-2.6-6.6-2.7c-0.6-2.8-1.9-4.8-3.8-6.1c-2.1-1.4-4.5-1.6-6.1-1.5
		c-0.8-1.6-1.9-2.5-2.8-2.9c-1.7-0.9-3.6-0.8-5-0.6c-1-2-2.4-3.3-4.2-3.8c-2.2-0.7-4.3,0.1-5.6,0.7c-1.8-1-3.5-1.2-5.2-0.8
		c-1.5,0.4-2.5,1.2-3.3,2c-2.5-1.1-4.7-1.2-6.5-0.4c-1.7,0.8-2.7,2.2-3.2,3.3c-2.7-0.1-4.9,0.6-6.3,2.1c-1.2,1.2-1.6,2.7-1.8,3.9
		c-1.9,0-3.6,0.6-4.8,1.7c-1.4,1.2-2.1,2.8-2.4,4c-2.1-0.1-3.7,0.5-4.7,1.7c-1.3,1.5-1.4,3.7-1.1,5.3c-2,0.7-3.6,1.9-4.6,3.5
		c-1.4,2.4-1.4,5.1-1.1,7.1c-1.9,0.5-3.4,1.4-4.3,2.7c-1.2,1.8-1.2,3.8-0.9,5.1c-0.3,0.1-0.5,0.3-0.7,0.5c-1.2,1.4-1.7,2.7-1.2,5.5
		c0.1,0.6-0.3,1.3-0.2,2.3c0.9,8,2.7,29.1,27.7,33.4v3.8c0,0.2,0.5,0.6,0.6,0.8c0.6,2,3.3,5.6,7.4,5.6h32.4c4.2,0,5.7-3.8,6.1-5.7
		c0-0.1-0.4-0.4-0.4-0.6v-3.8c26-4.3,28-25.4,28.9-33.5c0.1-0.9,0.4-1.6,0.5-2.2C-239.2-320.6-239.3-321.9-240.7-323z M-336.3-326.4
		c0.7-1,2.3-1.3,3.5-1.4c0.6,0,1.2-0.4,1.6-0.9s0.4-1.2,0.2-1.8c0,0-1.2-3.7,0.2-6.1c0.7-1.2,2-1.9,3.9-2.1c0.6-0.1,1.1-0.4,1.4-1
		c0.3-0.5,0.4-1.1,0.2-1.7c-0.4-1-0.6-2.8-0.1-3.4c0.2-0.2,0.6-0.3,1.2-0.3c0.5,0,1,0.1,1.7,0.2c0.6,0.1,1.2,0,1.7-0.4
		c0.5-0.4,0.7-1,0.7-1.6c0,0,0-2.1,1.3-3.2c0.8-0.7,2.1-0.9,3.9-0.6c0.6,0.1,1.3-0.1,1.7-0.6c0.5-0.5,0.7-1.1,0.6-1.8
		c0,0-0.3-1.9,0.7-3c1-1,3-0.9,4.5-0.7c1.1,0.2,2-0.5,2.3-1.6c0,0,0.4-1.7,1.6-2.2c1-0.4,2.5-0.1,4.5,1.1c0.5,0.3,1.1,0.4,1.6,0.2
		c0.5-0.2,1-0.5,1.2-1c0,0,0.7-1.3,1.9-1.6c0.8-0.2,1.9,0.1,3,0.9c0.7,0.5,1.6,0.5,2.3,0c0.5-0.4,2-1.2,3.3-0.8
		c1.2,0.4,1.9,1.9,2.3,3c0.2,0.5,0.6,0.9,1.1,1.2c0.5,0.2,1.1,0.2,1.6,0c0.4-0.2,2.3-0.7,3.6-0.1c0.7,0.3,1.1,1,1.4,2.1
		c0.1,0.5,0.5,1,0.9,1.2c0.5,0.3,1,0.3,1.5,0.2c0,0,2.7-0.7,4.7,0.7c1.3,0.9,2.1,2.6,2.3,5c0.1,1,1,1.9,2.1,1.8c0.9,0,4,0.2,5.5,1.7
		c0.7,0.7,1.1,1.6,1.1,2.8c0,1.1,0.9,2,1.9,2c0.8,0,3.4,0.5,4.6,2c0.7,0.9,0.8,2.2,0.4,3.9c-0.1,0.5,0,1.1,0.2,1.5
		c0.3,0.5,0.8,0.8,1.3,0.9c0,0,2.3,0.7,3.3,2.5c0.7,1.3,0.5,2.5-0.4,5.5h-26h-4.1h-4h-3.6h-3.7h-3.5h-4.2h-4h-4.3h-4.1h-3.2h-1.9
		h-23.8C-336.7-325-336.8-325.7-336.3-326.4z M-243.3-318.4c-0.1,0.6-0.2,1.4-0.3,2.4c-0.9,8.1-3.5,27-27.2,30.2c-1,0.1-2.2,1-2.2,2
		v5.2c0,0.6,0.1,2.6-1.7,2.6H-307c-1.8,0-3-2-4-2.7v-5.1c0-1-0.3-1.8-1.3-2c-23.6-3.2-25.3-21.4-26.2-30.1c0-0.1,0.1-0.2,0.1-0.3
		c-0.1-0.9-0.2-1.6-0.2-2.2c-0.1-1.2,0.2-1.5,0.2-1.6c0.3-0.2,0.3-0.1,0.7-0.1c0.2,0,0.5,0.2,0.7,0.2h1.6h56.3h0.1h31.5h2.9
		c0.2,0,0.3-0.1,0.7-0.2c0.1,0,0.4,0.1,0.5,0.1c0,0,0,0,0.1,0C-243.3-319.9-243.1-319.7-243.3-318.4z"/>
	<g>
		<path d="M-63.2-351.4c1-1.1,2.5-3.5,1-7.5c-1-2.7-2.6-4.4-4.7-5.2c-0.9-0.3-1.7-0.4-2.5-0.4c-0.2-1.4-0.9-2.9-2.1-4.2
			c-2.3-2.4-6.4-3.8-10.4-1.3c-2,1.3-3.2,3.1-3.6,5.2c-0.5,2.9,0.7,5.6,1.6,7.3l-3.6,3.6c-0.6-0.8-1.3-1.5-1.8-2.3
			c-1.2-1.5-2.3-2.9-3.5-4c-5.4-4.9-12.1-6.4-18.8-4c-7.4,2.6-13.6,9.3-14.7,16c-1.4,8.8-8.7,14.4-15.2,15.3
			c-0.8,0.1-1.6,0.2-2.4,0.3c-5,0.5-9.7,1-17.6,11.9c-4.3,6-5.5,12.8-3.3,18.8c1.7,4.5,5,7.8,8.8,8.7c0.4,0.1,0.8,0.2,1.3,0.3
			c1.2,0.3,2.5,0.6,3.8,1l-4.1,3.5c-2.2-0.2-7.5-0.4-10.4,3.6c-1.8,2.5-1.7,5.6,0.1,8c1.4,1.8,3.6,2.9,6.1,2.9
			c-0.2,1.7,0.1,3.7,1.9,5.4c1.3,1.2,2.8,1.8,4.4,1.8c1.6,0,3.3-0.6,4.8-1.7c3-2.1,5.1-6.2,4-10.3l2.9-2.6c1.7,5,4.5,9.8,17.3,12.3
			c1.2,0.2,2.4,0.3,3.5,0.3c11.5,0,18.2-11.3,20.3-18c0.8-1.3,5.8-9.1,12.6-12.5c1.4-0.7,2.8-1.3,4.4-1.9c7.1-2.9,16-6.5,18.7-21.5
			c3.1-17.7-10.8-22.8-12.1-23.2c-0.2-0.1-0.4-0.2-0.7-0.3l2.9-2.8C-70.2-348.2-65.6-348.7-63.2-351.4z M-147.5-280.9
			c-0.7,0.6-0.9,1.6-0.5,2.4c1.2,2.5-0.2,5.3-2.1,6.8c-0.6,0.4-2.6,1.7-4.2,0.3c-1.6-1.5-0.2-3.5,0-3.8c0.5-0.7,0.6-1.7,0-2.4
			c-0.4-0.5-1-0.8-1.6-0.8c-0.2,0-0.5,0-0.7,0.1c-2.7,1-4.6,0.2-5.4-0.9c-0.7-1-0.7-2.2,0-3.2c2-2.9,7.3-1.9,7.3-1.9
			c0.6,0.1,1.2,0,1.7-0.4l6.4-5.5c1.8,1,3.4,2.5,4.1,4.5c0,0.1,0.1,0.2,0.1,0.4L-147.5-280.9z M-77.6-342.1c0,0,0.1,0,0.1,0
			c0.5,0.1,12.1,3.7,9.4,18.7c-2.3,12.9-9.1,15.6-16.2,18.5c-1.6,0.6-3.2,1.3-4.7,2c-8.4,4.2-14.1,13.9-14.3,14.3
			c-0.1,0.1-0.1,0.3-0.2,0.4c-0.1,0.2-5.6,17.8-19.4,15.1c-12-2.3-13.2-6-14.8-11.2c0,0,0,0,0,0c-0.3-1-0.6-2-1-3
			c-1.6-4.1-5-6.4-8.5-7.8c-2.3-0.9-4.7-1.4-6.5-1.8c-0.4-0.1-0.9-0.2-1.2-0.3c-2.5-0.6-4.8-3-6-6.2c-1-2.7-2-8.4,2.8-15
			c6.8-9.4,10.3-9.8,14.7-10.2c0.8-0.1,1.7-0.2,2.6-0.3c7.9-1.2,16.8-8,18.5-18.7c0.8-5.2,6.1-10.8,12-12.9c1.4-0.5,3.2-0.9,5-0.9
			c3,0,6.4,1,9.8,4.1c1,0.9,2,2.1,3.1,3.5c0.7,0.8,1.4,1.7,2.1,2.6c2.4,2.8,5.4,5.7,10.2,7.9C-79.2-342.8-78.4-342.5-77.6-342.1z
			 M-75.9-352.6l-4.8,4.6c-1.5-0.9-2.8-1.9-3.9-2.9l4.8-4.8c0.7-0.7,0.8-1.8,0.2-2.6c-0.6-0.8-2.2-3.5-1.8-5.6
			c0.2-1,0.8-1.8,1.8-2.5c2.2-1.4,4.2-0.6,5.3,0.7c0.8,0.9,1.4,2.2,0.8,3c-0.5,0.8-0.5,1.8,0.2,2.5c0.6,0.7,1.7,0.8,2.5,0.4
			c0,0,1.4-0.8,2.7-0.3c0.9,0.3,1.7,1.3,2.3,2.8c0.9,2.3,0.1,3.1-0.2,3.4c-1.3,1.4-4.9,1.9-7.9,1C-74.7-353.3-75.4-353.1-75.9-352.6
			z"/>
	</g>
	<path d="M110.9-313.6l0-16.2c0.1-1.1-0.3-6.9-13.2-14L74-357.5c-1.1-0.8-7-4.7-16,0.1c-1.8,0.8-27.2,12.3-41.5,22.6
		c-0.7,0.5-5.6,4-5.4,11.4c0,0.6,0.3,13.7,2.3,20.8c0.3,1.2,1.1,2.1,2.2,2.7c0,0,0,0,0,0l38.2,19.6c0.4,0.2,2.9,1.7,6.1,2
		c0.2,0,0.3,0.3,0.5,0.3c0,0,0,0,0,0c0.1,0,0.1-0.2,0.2-0.2c0.2,0,0.4-0.1,0.6-0.1c2.3,0,4.9-0.6,7.5-2.3l39-22.1
		c0.4-0.1,0.8-0.4,1.2-0.8C110.4-305.1,111-308.4,110.9-313.6z M18.8-331.5c14.2-10.3,40.6-22.2,40.9-22.3c0,0,0.1,0,0.1-0.1
		c7.3-4,11.6-0.6,11.7-0.5c0.1,0.1,0.2,0.2,0.3,0.2l23.9,13.9c4.6,2.6,7.3,4.8,8.9,6.6c-17.3,9.8-43,24.3-44.6,25
		c-0.8,0.4-2-0.6-2.3-0.8c-0.1-0.1-0.3-0.2-0.4-0.3l-38.7-21.5c0,0,0.1,0,0.1,0C18.7-331.4,18.8-331.5,18.8-331.5z M55.6-283.8
		l-38.2-19.6c-0.1,0-0.2-0.1-0.2-0.2c-1.9-6.6-2.1-19.6-2.1-19.8c-0.1-2,0.4-3.6,1-4.8l39.1,21.7c0.7,0.6,1.7,1.3,2.9,1.6l0.2,22.1
		C56.8-283.1,55.8-283.7,55.6-283.8C55.7-283.8,55.7-283.8,55.6-283.8z M105.6-306.5C105.6-306.4,105.7-306.4,105.6-306.5
		l-39.1,22.3c0,0,0,0.1-0.1,0.1c-1.4,0.9-2.8,1.4-4.1,1.6l-0.2-22.8c4.6-2.4,38-21.5,44.2-25c0.1,0.2-0.3,0.4-0.3,0.4c0,0,0,0,0,0
		v16.3C107-308.5,105.9-306.9,105.6-306.5z"/>
	<g>
		<path d="M253.2-272h-60.5c-1.1,0-2-0.8-2-1.9l-1.5-43c-3.9-1.8-14.9-8.1-13.5-22.5c1.6-16.5,19.7-27.3,45-26.8
			c21.5,0.4,46.6,3.8,49.4,25.8c0.9,6.8-0.4,12.2-3.7,16.1c-3.4,4-8.1,5.3-10.8,5.7l-0.5,44.6C255.2-272.8,254.3-272,253.2-272z
			 M194.6-276h56.6l0.5-44.4c0-1.1,0.9-1.9,2-2c0.1,0,6.1-0.2,9.8-4.6c2.6-3,3.5-7.3,2.8-12.9c-1.9-14.8-16-21.7-45.6-22.3
			c-23.2-0.5-39.6,8.8-41,23.2c-1.3,14.2,12,18.8,12.1,18.8c0.8,0.3,1.3,0.9,1.4,1.8L194.6-276z"/>
		<path d="M205.7-312.9c-0.5,0-1-0.2-1.4-0.6c-0.8-0.8-0.8-2,0-2.8l22-22.5c0.8-0.8,2-0.8,2.8,0c0.8,0.8,0.8,2,0,2.8l-22,22.5
			C206.7-313.1,206.2-312.9,205.7-312.9z"/>
		<path d="M202.2-322.4c-0.5,0-1-0.2-1.4-0.6c-0.8-0.8-0.8-2,0-2.8l15-15c0.8-0.8,2-0.8,2.8,0s0.8,2,0,2.8l-15,15
			C203.2-322.6,202.7-322.4,202.2-322.4z"/>
		<path d="M209.2-304.4c-0.5,0-1-0.2-1.4-0.6c-0.8-0.8-0.8-2.1,0-2.8l28.5-28c0.8-0.8,2.1-0.8,2.8,0c0.8,0.8,0.8,2.1,0,2.8l-28.5,28
			C210.2-304.6,209.7-304.4,209.2-304.4z"/>
		<path d="M215.7-297.4c-0.5,0-1-0.2-1.4-0.6c-0.8-0.8-0.8-2,0-2.8l26-26c0.8-0.8,2-0.8,2.8,0s0.8,2,0,2.8l-26,26
			C216.7-297.6,216.2-297.4,215.7-297.4z"/>
		<path d="M226.7-295.9c-0.5,0-1-0.2-1.4-0.6c-0.8-0.8-0.8-2,0-2.8l15-15c0.8-0.8,2-0.8,2.8,0s0.8,2,0,2.8l-15,15
			C227.7-296.1,227.2-295.9,226.7-295.9z"/>
	</g>
	<path class="st0" d="M304.2-13.1c0.6-0.3,1.3-0.4,1.9-0.1c0.6,0.3,1,0.8,1.1,1.5c0.1,0.9,0.6,1.5,1.3,1.9c1.5,0.9,4.2,0.8,7-0.2
		c4-1.4,2.7-8.3,2.7-8.4c-0.2-1,0.4-2,1.4-2.3l38.7-12c-0.5-1.8-0.8-4.4,0.2-6.9c1-2.5,3.2-4.4,6.4-5.4c7.3-2.4,12.5,1.1,14.9,4
		c1.5-0.3,3.6-0.9,5.1-1.8c0.9-0.6,1.5-1.8,1.8-2.8c0.1-0.3,0.1-0.5,0.2-0.7c-1.2-1.8-2.5-3.6-3.9-5.4
		c-12.4-15.3-33.9-31.3-34.2-31.5c-2-1.4-3.3-1.8-3.9-1.6c-0.2,0.1-0.4,0.3-0.4,0.3c-0.1,0.2-0.1,0.3-0.2,0.4l-16.9,26.3
		c2.9,2.2,6.3,6.4,6.4,10.8c0.1,2.6-1,6.2-6.3,8.9c-3.9,2-7.6,2.5-11.1,1.4c-2.7-0.9-4.6-2.6-5.9-4.1c-6,8.2-12,17.2-15.7,23.7
		c-2.3,4-3.8,7-4,8.5c0.5,0.1,1.3,0.1,2.2,0C296-9,300.4-10.9,304.2-13.1z"/>
	<g>
		<path d="M37.9-104.7c3.5,0,7.8-0.3,12.8-0.9c1.7-0.1,20.6-1.2,32.2-14.1c0.3-0.3,0.6-0.6,0.8-1c0.3-0.4,0.6-0.8,0.9-1.2l11.6-2.8
			c5.4,0.7,8.5,0,9.8-2.2c1.7-2.8-0.8-6.4-2.4-8.8l-0.1-0.2c-0.8-1.2-1.9-1.8-3.3-2c-2.7-0.3-5.6,1.8-6.8,2.8
			c-0.5,0-0.9,0.1-1.4,0.1c1.3-4.1,1.3-7.1,1.1-8.8c2-2,6.2-6.8,4.3-10.9c-1.3-2.8-5.7-5.3-9.4-4.3c-2.4,0.6-6.3,3.2-5.5,13
			c0,0.7-0.2,5.7-5.5,10.9c-8.8-0.8-14.4-2.5-14.5-2.6c-0.1,0-0.1,0-0.2-0.1c-4.5-0.9-6.8-1.2-7.9-1.3c-0.1,0-0.1-0.1-0.2-0.1
			c-11.6-9.9-22.8-8.7-23.3-8.6c-0.1,0-0.1,0-0.2,0c-6.8,1.4-9.3,2.4-9.4,2.5c-1,0.4-1.4,1.5-1.1,2.5c1.1,3.3,8.1,10.4,9.5,11.8
			c0,0,0.1,0.1,0.2,0.1c3.6,2.9,7.7,5.2,12.4,7c-6.5,0.7-17.4,3.2-22.5,11.3c-0.4,0.6-0.4,1.3-0.2,1.9
			C20.1-109.4,23-104.7,37.9-104.7z M50.4-109.7c-0.1,0-0.1,0-0.2,0c-0.1,0-0.1,0-0.2,0c0.5-1,0.7-1.9,0.7-2.6
			c0.2-2.9-1.3-5.7-2.7-7.7c2-0.2,3.8-0.5,5.6-0.8c3,0.5,6.2,0.8,9.5,1c1.1,0,2.2,0.1,3.2,0.1c4.8,0,8.9-0.4,11.5-0.8
			C67-110.4,50.6-109.7,50.4-109.7z M86.6-146.1c0,0,0-0.1,0-0.1c-0.4-5,0.5-8.2,2.4-8.7c1.8-0.5,4.1,1,4.6,2.1c0.7,1.5-2,5-4.2,6.9
			c-0.6,0.5-0.8,1.4-0.6,2.1c0,0.1,0.9,3.4-1.3,9.1c-1.9,0-3.6,0-5.3,0C86.6-140.4,86.6-145.6,86.6-146.1z M55.2-134.8
			c1.2,0.2,3.1,0.5,6.2,1.1c0.8,0.2,4.8,1.4,11.1,2.2c1.9,0.2,3.9,0.5,6.1,0.6c2.2,0.2,4.6,0.2,7.1,0.2c1.5,0,3.1,0,4.7-0.1
			c1.3-0.1,2.6-0.2,4-0.3c0.4,0,0.9-0.2,1.2-0.5c1.1-1,3.2-2.4,4.2-2.3c0.1,0,0.3,0,0.4,0.3l0.1,0.2c1.7,2.4,2.5,3.9,2.3,4.4
			c0,0-0.9,0.9-6.2,0.3c-0.2,0-0.5,0-0.7,0l-7.5,1.8l-6,1.4l-1.8,0.4c-0.1,0-6.3,1.3-14.8,1.2c-3.8,0-8-0.3-12.3-1.1
			c-1.1-0.2-2.1-0.4-3.2-0.7c0.7-0.4,1.4-0.9,2-1.5C54-129,55-131.6,55.2-134.8z M40-137.7c0,0.6-0.5,1.1-1.1,1.1s-1.1-0.5-1.1-1.1
			s0.5-1.1,1.1-1.1S40-138.3,40-137.7z M32.5-133.8c-2.4-2.4-5.7-6-7.4-8.4c1.4-0.4,3.4-0.9,6.4-1.5c0.4,0,3.1-0.2,7,0.8
			c-2.7,0.2-4.9,2.5-4.9,5.2c0,2.9,2.4,5.3,5.3,5.3s5.3-2.4,5.3-5.3c0-1.6-0.7-3-1.9-4c2.8,1.1,5.8,2.8,9,5.3c0.1,2.9-0.5,5-1.9,6.4
			c-2.3,2.3-6.1,2-6.2,2c-0.2,0-0.3,0-0.4,0C39.1-129.4,35.6-131.3,32.5-133.8z M38-114.7c0,0.6-0.5,1.1-1.1,1.1s-1.1-0.5-1.1-1.1
			s0.5-1.1,1.1-1.1S38-115.3,38-114.7z M32.2-117.1c-0.4,0.7-0.6,1.5-0.6,2.4c0,2.9,2.4,5.3,5.3,5.3s5.3-2.4,5.3-5.3
			c0-1.9-1-3.6-2.6-4.5c1.2-0.2,2.4-0.4,3.4-0.5c1.2,1.2,3.9,4.4,3.7,7c-0.1,1.1-0.7,2.1-2,2.9c-0.2,0.2-0.4,0.4-0.6,0.6
			c-13.1,1-18.2-1.2-19.9-2.4C26.2-114.1,29.1-115.9,32.2-117.1z"/>
		<path d="M103-119.5c-2.9-1.4-5-0.8-6.2,0c-3.1,2-3.7,6.9-3.8,8.9c-1.7,2-5.4,2.8-6.8,3c-6.1,0.6-11.8,6-13.7,8
			c-5.3,0-9,1.5-10.1,2.1C58-97,48.3-98.4,44.9-99c-0.1,0-0.2,0-0.4,0c-17.4,0-25,6.9-25.7,7.6c-1.9,1.7-1.7,3.3-1.4,4.2
			c0.6,1.9,2.8,4,14.1,5.8c5.8,0.9,11.3,1.3,11.6,1.3c1.7,0.1,3.2,0.1,4.7,0.1C64-80.2,69.3-84,71-86.3c6.5-0.3,11.2-1.9,13.8-4.6
			c1.5-1.6,1.9-3.2,2-4.1c2.1-3.2,9.8-8.2,14.5-10.7c2-0.7,7.3-2.7,7.5-6.7C109-116.5,104-119.1,103-119.5z M40-90.7
			c0,0.6-0.5,1.1-1.1,1.1s-1.1-0.5-1.1-1.1s0.5-1.1,1.1-1.1S40-91.3,40-90.7z M51.2-88.2c-0.3,1.9-2.9,3.1-5,3.9
			c-0.9,0-1.9,0-2.9-0.1c-9.9-0.7-19.6-2.5-21.7-4.1c0,0,0,0,0.1-0.1c0,0,4-3.8,13.2-5.5c-0.8,0.9-1.3,2.1-1.3,3.4
			c0,2.9,2.4,5.3,5.3,5.3s5.3-2.4,5.3-5.3c0-1.7-0.8-3.2-2.1-4.2c0.8,0,1.5-0.1,2.3-0.1c0.4,0.1,1.6,0.3,3.2,0.5c0,0,0,0,0,0
			C48.9-93.3,51.6-90.4,51.2-88.2z M83-96.6c-0.2,0.3-0.3,0.7-0.2,1.1c0,0-0.1,0.8-1,1.8c-1.1,1.2-4.1,3.2-12,3.4
			c-1,0-1.8,0.5-1.9,1.4c-0.3,0.5-2.7,3.6-13.9,4.5c0.7-0.9,1.2-1.9,1.3-3c0.4-2.3-0.5-4.4-1.6-6.2c3.5,0.3,7.3,0.5,9.8,0
			c0.2,0,0.5-0.1,0.7-0.2c0,0,3.6-2,9.2-1.7c0.6,0,1.3-0.2,1.7-0.7c1.6-1.9,6.8-6.8,11.7-7.3c0.5,0,3.1-0.4,5.7-1.6
			C88.7-102.7,84.5-99.5,83-96.6z M99.8-109.6c-0.1,0-0.2,0.1-0.3,0.1c-0.5,0.2-2.1,1.2-4.2,2.4c0.6-0.5,1.2-1.1,1.6-1.9
			c0.2-0.3,0.3-0.7,0.3-1.1c0-1.7,0.5-5.2,1.9-6.1c0.2-0.1,0.4-0.2,0.7-0.2c0.4,0,0.9,0.1,1.5,0.4c1.6,0.7,3.4,2.3,3.4,3.1
			C104.7-112.7,104.6-111.3,99.8-109.6z"/>
	</g>
	<g>
		<path d="M-288.8-130.2c-0.3,0-0.6-0.1-0.9-0.4c-0.4-0.5-0.4-1.2,0.1-1.7c1.3-1.1,2-2.4,2-3.8c0.1-2.4-1.7-4.5-1.7-4.5
			c-1.9-2.3-2.7-4.8-2.3-7.3c0.7-5,5.6-8.5,5.8-8.7c0.5-0.4,1.3-0.2,1.6,0.3c0.4,0.5,0.2,1.3-0.3,1.6c0,0-4.3,3.1-4.9,7.1
			c-0.3,1.9,0.3,3.7,1.8,5.5c0.1,0.1,2.5,2.7,2.3,6.1c-0.1,2-1.1,3.8-2.8,5.4C-288.3-130.3-288.6-130.2-288.8-130.2z"/>
		<path d="M-282.6-128.6c-0.3,0-0.6-0.1-0.9-0.4c-0.4-0.5-0.4-1.2,0.1-1.7c4.5-4,2.5-7.7,2.5-7.7c-1.6-3.1-1.8-5.8-0.7-8.2
			c2.1-4.3,8.1-5.4,8.3-5.4c0.6-0.1,1.2,0.3,1.4,0.9c0.1,0.6-0.3,1.2-0.9,1.4c-0.1,0-5.1,1-6.6,4.2c-0.8,1.6-0.6,3.7,0.7,6
			c1,1.8,1.7,6.4-3,10.6C-282-128.7-282.3-128.6-282.6-128.6z"/>
		<path d="M-296-130.6c-0.3,0-0.6-0.1-0.8-0.3c-0.5-0.4-0.5-1.2,0-1.7c1.2-1.3,1.8-2.6,1.7-3.9c-0.2-2.2-2.1-4-2.5-4.3
			c-2.3-1.3-3.8-3.1-4.3-5.3c-1.1-4.5,1.9-9.1,2.1-9.3c0.4-0.5,1.1-0.7,1.6-0.3c0.5,0.4,0.7,1.1,0.3,1.6c-0.1,0.1-2.6,4-1.7,7.5
			c0.4,1.6,1.5,2.9,3.3,3.9c0.1,0,0.1,0.1,0.2,0.1c0.1,0.1,3.2,2.5,3.4,6c0.1,2-0.6,3.9-2.3,5.7C-295.4-130.7-295.7-130.6-296-130.6
			z"/>
		<path d="M-281.4-116.9c-4.1-3-10.3-3.5-13.5-2.1c-2.6,1.1-5.1,1.8-12.5,0.9c-2.2-0.3-4.3-0.4-6.3-0.5l-0.3-0.1
			c-0.2-0.1-0.4,0-0.6,0.1c-4.5-0.1-7.9,0.3-8.1,0.3c-0.1,0-0.1,0-0.2,0c-2.8,0.8-4.9,2.2-6.1,4.4c-2.2,3.8-1,8.3-0.9,8.5
			c0.1,0.5,0.6,0.9,1.1,0.9c0.1,0,0.2,0,0.3,0c0.6-0.2,1-0.8,0.8-1.4c0,0-1-3.8,0.7-6.8c0.9-1.6,2.5-2.7,4.6-3.3
			c0.7-0.1,5.1-0.5,10.4-0.2c-1,0.7-1.8,1.3-2.6,1.9l-3.7-1.2c-0.4-0.1-0.9,0.1-1,0.5c-0.1,0.4,0.1,0.8,0.5,1l2.7,0.9
			c-3,2.2-4,3-4,3c-0.3,0.3-0.4,0.8-0.1,1.1c0.2,0.2,0.4,0.3,0.6,0.3c0.2,0,0.4-0.1,0.5-0.2c0,0,1.1-0.9,4.8-3.6l4.2,1.4
			c-2.3,2.1-3.5,3.2-3.5,3.2c-0.3,0.3-0.3,0.8,0,1.1c0.2,0.2,0.4,0.2,0.6,0.2s0.4-0.1,0.6-0.2c0,0,1.3-1.3,4.1-3.8l4.3,1.4
			c-1.5,1.4-2.3,2.2-2.4,2.2c-0.3,0.3-0.3,0.8,0,1.1c0.2,0.2,0.4,0.2,0.6,0.2c0.2,0,0.4-0.1,0.5-0.2c0,0,1.1-1,3-2.8l4.3,1.4
			c-0.5,0.5-0.8,0.8-0.8,0.8c-0.3,0.3-0.3,0.8,0,1.1c0.2,0.1,0.3,0.2,0.5,0.2c0.2,0,0.4-0.1,0.6-0.2c0,0,0.4-0.5,1.3-1.3l4.7,1.5
			c0.1,0,0.2,0,0.2,0c0.3,0,0.6-0.2,0.7-0.5c0.1-0.4-0.1-0.8-0.5-1l-3.9-1.3c0.6-0.6,1.4-1.3,2.3-2.1l5.4,1.8c0.1,0,0.2,0,0.2,0
			c0.3,0,0.6-0.2,0.7-0.5c0.1-0.4-0.1-0.8-0.5-1l-4.6-1.5c0.6-0.6,1.4-1.2,2.1-1.9l5.9,2c0.1,0,0.2,0,0.2,0c0.3,0,0.6-0.2,0.7-0.5
			c0.1-0.4-0.1-0.9-0.5-1l-5.1-1.7c0.6-0.5,1.2-1.1,1.9-1.7c0.2-0.2,0.3-0.4,0.3-0.6c1.1,0.4,2.1,0.9,3.1,1.6
			c2.7,1.9,3.8,4.7,3.5,8.3c-0.1,0.6,0.4,1.2,1.1,1.3c0.6,0.1,1.2-0.4,1.3-1.1C-276.5-112-279.1-115.2-281.4-116.9z M-297.2-115.8
			l0.4,0.1c-0.8,0.7-1.5,1.3-2.2,1.9l-4.1-1.3c0.1-0.1,0.2-0.2,0.4-0.3C-300.3-115.3-298.6-115.4-297.2-115.8z M-308.7-112.4l-4-1.3
			c0.8-0.6,1.7-1.3,2.8-2l3.7,1.2C-307.1-113.7-307.9-113-308.7-112.4z M-302.7-110.4l-4.3-1.4c0.7-0.6,1.6-1.3,2.5-2.1l4.1,1.4
			C-301.2-111.7-302-111-302.7-110.4z M-296.7-108.4l-4.3-1.4c0.7-0.6,1.5-1.3,2.3-2.1l4.2,1.4C-295.3-109.7-296.1-109-296.7-108.4z
			 M-293.1-111.8l-4.1-1.4c0.7-0.6,1.4-1.3,2.2-1.9l4.1,1.4C-291.8-113-292.5-112.4-293.1-111.8z M-289.7-114.9l-4-1.4
			c0.2-0.2,0.4-0.3,0.5-0.5c0.1-0.1,0.2-0.3,0.2-0.4c1.5-0.3,3.5-0.3,5.6,0.2C-288.2-116.2-289-115.5-289.7-114.9z"/>
		<g>
			<path d="M-234.5-118.7c-1.7-1.4-3.8-1.3-4.3-1.3h-30.9c-4.8-6-17.8-11-39.9-9.5c-24.6,1.6-29.3,11.9-30.2,15.8
				c-0.2,0.7-0.2,0.6-0.3,0.9c-2,13.5,4.5,19.2,5.3,19.8c8.6,8.2,21.5,9.8,30.1,9.8c1.1,0,2.1,0,3-0.1c11.2-0.5,22.6-3.8,27.2-7.7
				c6.2-5.3,7.6-12,7.6-18h26.6c0.3,0,0.9,0,1.7,0c1.4,0,3.3-0.1,4.7-1.2c0.7-0.6,1.6-1.8,1.5-3.8
				C-232.6-116.1-233.2-117.6-234.5-118.7z M-309.4-127.1c18.8-1.3,31.4,2.8,36.7,7.5c1.6,1.5,2.6,3,2.8,4.4
				c-0.3,0.9-0.8,1.8-1.4,2.6c-7.1,9.8-30.3,9.7-30.6,9.7c-26.2,0.6-33.9-7.4-35.6-9.7C-337.1-115.1-333.9-125.4-309.4-127.1z
				 M-276.1-92.7c-8,6.8-41.8,12.6-57.1-2.1c0,0-0.1-0.1-0.1-0.1c-0.1,0-4.7-3.7-4.8-12.9c0-0.6,0-1.2,0-1.9
				c0.7,0.7,1.6,1.5,2.7,2.3c4.9,3.4,14.7,7.3,33.4,6.8c1,0,19.8,0.2,29.5-7.5c0.7-0.6,1.4-1.2,2-1.9c0.3-0.4,0.7-0.8,1-1.2
				c0,0.4,0,0.9,0.1,1.4c0,0.3,0,0.6,0,1C-269.4-104-270.7-97.4-276.1-92.7z M-235.5-111.8c-1.2,1-3.7,0.9-4.6,0.8
				c-0.1,0-0.1,0-0.2,0h-26.8c-0.1-3-0.5-3.8-0.6-4c-0.1-0.7-0.3-2-0.6-2h29.5c0.1,0,0.1-0.2,0.2-0.2c0,0,1.5-0.3,2.6,0.6
				c0.7,0.6,1.1,1.5,1.1,2.9C-234.8-112.9-235-112.3-235.5-111.8z"/>
		</g>
	</g>
	<path d="M218.8-97.9c-0.4-0.1-0.9-0.1-1.3,0c-0.3,0.1-3.1,1.1-3.9,3.7c-0.5,1.7,0.1,3.6,1.7,5.4c0.1,0.2,0.3,0.3,0.5,0.4
		c0.8,0.5,2.1,0.9,3.5,0.9c1.6,0,3.4-0.6,4.8-2.4c0.8-1.1,1.1-2.3,0.7-3.5C224-96,220-97.5,218.8-97.9z M218.1-91.6
		c-0.5-0.7-0.7-1.2-0.6-1.5c0.1-0.3,0.4-0.6,0.7-0.8c1.2,0.5,2.3,1.2,2.6,1.6C220-91,218.7-91.3,218.1-91.6z"/>
	<path d="M243.2-108.3c-5.6,1.2-8.4,8.3-8.6,8.6c0,0.1,0,0.1-0.1,0.2c-0.9,3.5-0.5,6.2,1.3,8.1c1.8,1.9,4.6,2.4,6.7,2.4
		c1.5,0,2.7-0.2,3-0.3c0.1,0,0.3-0.1,0.4-0.1c0.8-0.4,8.1-3.9,9-9c0.3-1.5,0.1-3.7-2.1-5.9C249.7-107.7,246.4-109,243.2-108.3z
		 M251.1-99.2c-0.4,2.2-4.2,4.8-6.6,5.9c-1.5,0.3-4.6,0.3-5.8-1c-0.9-1-0.7-2.8-0.3-4.2c0.3-0.7,2.4-5.3,5.6-6
		c1.8-0.4,3.8,0.6,6.1,2.8C251.2-100.5,251.2-99.7,251.1-99.2z"/>
	<path d="M275.2-101.8l-0.3-29.6c0-0.1,0-0.2,0-0.3c0-0.1,0-0.1,0-0.2c0-0.2-0.1-0.3-0.2-0.5c0,0,0-0.1,0-0.1c0,0,0,0,0,0
		c0,0,0,0,0,0c-11.1-17.4-38.3-37.7-39.5-38.5c-2.9-2.1-5.4-2.8-7.5-2.2c-1.7,0.6-2.5,1.9-2.8,2.5l-17.9,27.9
		c-0.3,0.5-0.4,1.1-0.2,1.6c0.2,0.6,0.6,1,1.1,1.3c1.7,0.8,5.9,4.7,6,8.4c0.1,2.1-1.3,3.8-4.1,5.3c-2.9,1.5-5.6,1.9-7.9,1.1
		c-3.5-1.1-5.3-4.6-5.4-4.6c-0.3-0.6-0.9-1-1.6-1.1c-0.7-0.1-1.4,0.2-1.8,0.8c-0.1,0.1-5.8,7.8-11.3,16.2
		c-11.5,17.4-11,20.4-10.8,21.7c0.1,0.7,0.4,1.1,0.7,1.5l9.5,20.4c0,0.1,0.1,0.2,0.2,0.3c0.1,0.2,2.8,3.9,7.1,3.9c0.2,0,0.5,0,0.7,0
		c0.1,0,0.3,0,0.4-0.1l82-26c0.1,0,0.2-0.1,0.4-0.2C272.2-92.5,275.9-94.7,275.2-101.8z M174.8-93.1c0.2-1.4,1.7-4.5,4-8.5
		c3.8-6.5,9.8-15.4,15.7-23.7c1.3,1.5,3.2,3.2,5.9,4.1c3.4,1.1,7.1,0.6,11.1-1.4c5.3-2.7,6.3-6.4,6.3-8.9c-0.1-4.4-3.5-8.6-6.4-10.8
		l16.9-26.3c0.1-0.1,0.2-0.3,0.2-0.4c0,0,0.1-0.2,0.4-0.3c0.6-0.2,1.9,0.1,3.9,1.6c0.2,0.2,21.8,16.2,34.2,31.5
		c1.5,1.8,2.8,3.6,3.9,5.4c0,0.2-0.1,0.5-0.2,0.7c-0.3,1-0.8,2.2-1.8,2.8c-1.4,0.9-3.6,1.5-5.1,1.8c-2.4-2.9-7.5-6.5-14.9-4
		c-3.2,1.1-5.3,2.9-6.4,5.4c-1,2.5-0.7,5.1-0.2,6.9l-38.7,12c-1,0.3-1.6,1.3-1.4,2.3c0,0.1,1.3,7-2.7,8.4c-2.9,1-5.5,1.1-7,0.2
		c-0.7-0.4-1.2-1.1-1.3-1.9c-0.1-0.6-0.5-1.2-1.1-1.5c-0.6-0.3-1.3-0.2-1.9,0.1c-3.7,2.2-8.2,4.1-11.2,4.6
		C176.1-93,175.3-93,174.8-93.1z M270-95.8L188.5-70c-2,0.1-3.5-1.6-3.9-2.1l-8-17.1c3.9-0.3,8.6-2.4,11.6-4
		c0.6,0.9,1.3,1.6,2.3,2.2c2.6,1.5,6.4,1.6,10.4,0.2c5.4-1.9,5.7-8.1,5.5-11.1l39.1-12.2c0.6-0.2,1-0.6,1.2-1.1
		c0.2-0.5,0.2-1.2-0.1-1.7c0,0-1.5-3.2-0.5-5.7c0.6-1.4,1.9-2.5,4-3.2c7.3-2.4,10.8,3.2,11,3.5c0.4,0.7,1.2,1.1,2,1
		c0.2,0,4.8-0.8,7.8-2.6c0,0,0,0,0,0l0.3,22.3c0,0.1,0,0.1,0,0.2C271.6-97.6,270.3-96.1,270-95.8z"/>
	<path d="M234.4-138.7c0.2,0,0.3,0.1,0.5,0.1c0.1,0,0.2,0,0.3,0c3.5-0.6,5.9-2.1,7-4.4c1.3-2.8,0.4-6.1-0.9-8.2
		c-1.1-1.8-4.1-4.6-7.8-4.7c0,0-0.1,0-0.1,0c-1.8,0-4.4,0.7-6.5,4c-2.1,3.1-1.8,5.6-1.1,7.2C227.5-140.5,233.7-138.9,234.4-138.7z
		 M230.2-149.9c0.9-1.5,2-2.1,3.2-2.1c0,0,0,0,0.1,0c1.8,0,3.7,1.6,4.4,2.7c0.6,1,1.4,3,0.7,4.5c-0.6,1.2-2.2,1.8-3.6,2.1
		c-1.5-0.4-4.7-1.7-5.5-3.7C229.3-146.7,228.8-147.8,230.2-149.9z"/>
	<g>
		<path d="M-829.1-123.7c0.1,0,0.2,0.1,0.3,0.1c0.4,0,0.7-0.2,0.8-0.6c0-0.1,3.8-10.8,5.9-13.7c0.2-0.3,0.2-0.6,0.1-0.9
			c-0.1-0.1-0.1-0.2-0.3-0.3c-0.4-0.3-0.9-0.2-1.2,0.2c-0.1,0.1-0.2,0.3-0.3,0.4c-2.3,3.6-5.7,13.3-5.9,13.7
			C-829.8-124.3-829.6-123.8-829.1-123.7z"/>
		<path d="M-823.7-123.7c0.1,0,0.2,0,0.2,0c0.4,0,0.7-0.2,0.8-0.6c0-0.1,2-6.7,4-9.6c0.3-0.4,0.2-0.9-0.2-1.2
			c-0.4-0.3-0.9-0.2-1.2,0.2c-2.3,3.2-4.2,9.8-4.3,10.1C-824.5-124.3-824.2-123.8-823.7-123.7z"/>
		<path d="M-759.3-131.6c-2.5-2.5-5.7-3.3-7.8-3.5c-0.7-1.3-1.8-2.7-3.2-4.1c-9.1-9-26.8-10.5-40.1-10.1c-3.1,0.1-6,0.3-8.7,0.6
			l-20.6-11.2c0,0,0,0,0,0c-0.1,0-0.2-0.1-0.2-0.1c0,0-0.1,0-0.1,0c-0.1,0-0.1,0-0.2,0c0,0-0.1,0-0.1,0c0,0-0.1,0-0.1,0l-6.1,0.9
			c-0.7,0.1-1.1,0.7-1.1,1.3l0.5,20.1c-0.8,0.8-1.4,1.7-2,2.5c-1.2,0-6.1,0.2-9.6,3.8c-2.7,2.8-3.9,6.9-3.5,12.1
			c0.3,4.2,1.8,7.4,4.5,9.5c1.7,1.4,3.7,2,5.4,2.4l-0.1-2.7c-1.2-0.3-2.5-0.8-3.7-1.7c-2-1.6-3.2-4.2-3.5-7.6
			c-0.4-4.4,0.6-7.8,2.7-10c2-2,4.6-2.7,6.2-2.9c-0.5,1.2-0.8,2.3-1,3.1c-0.1,0.6-0.1,1-0.2,1.2c-0.3,0-0.7,0.1-1,0.1
			c-0.7,0.1-1.3,0.4-1.9,0.9c-1.5,1.1-2.2,3.1-2.2,5.8c0.1,2.6,0.9,4.6,2.5,5.9c0.6,0.5,1,0.9,2,1.1l0-0.1l0-0.4l0,0l0,4.4l0,2.8
			l0.2,11.2c0,0.3-0.1,6.6,7.2,9.9c9.8,4.4,17.3,6.4,39.1,6.8c1.6,0,3.1,0.1,4.5,0.1c16.9,0,24-2.2,29.2-5.5
			c1.8-1.1,7.2-4.5,7.2-14.2l0-8.1c1.7-0.3,3.6-1.1,5.3-2.5c2.6-2.2,4-5.4,4.2-9.6C-755.2-124.9-756.5-128.9-759.3-131.6z
			 M-853-117.7c-0.9-0.8-1.5-2.1-1.5-3.9c0-0.7,0-1.5,0.2-2.2c-0.2,0.7-0.3,1.5-0.2,2.2C-854.4-119.8-854-118.5-853-117.7
			C-853-117.7-853-117.7-853-117.7L-853-117.7C-853-117.7-853-117.7-853-117.7c-1-0.8-1.5-2.1-1.5-3.9c0-0.7,0-1.5,0.2-2.2
			c0.2-0.6,0.4-1.1,0.9-1.5c0.1-0.1,0.3-0.3,0.4-0.3v0c-0.1,0-0.3,0.2-0.4,0.3c-0.4,0.3-0.7,0.9-0.9,1.5c0.2-0.6,0.4-1.1,0.9-1.4
			c0.1-0.1,0.3-0.2,0.4-0.2L-853-117.7C-852.9-117.7-852.9-117.7-853-117.7z M-853-125.5l0.2,7.9c0,0,0,0-0.1,0L-853-125.5z
			 M-852.9-117.6L-852.9-117.6c0.1,0,0.1,0,0.1,0.1l0,0c0,0,0,0.1,0.1,0.1C-852.7-117.5-852.8-117.5-852.9-117.6z M-852.7-117.5
			C-852.7-117.4-852.6-117.4-852.7-117.5L-852.7-117.5C-852.6-117.4-852.7-117.4-852.7-117.5z M-773.5-115.2c-0.7-2-2-3.3-3.7-4.1
			l3.7-10.5c0.1,0.1,0.2,0.3,0.4,0.4c3.5,4.2,3.4,8.6,3,10.8c-0.4,0.7-0.8,1.3-1.4,2c-0.6,0.7-1.3,1.4-2,2
			C-773.4-114.8-773.4-115-773.5-115.2z M-808.9-106.2c-0.5-0.9-1.5-3-0.8-4.9c0.5-1.3,1.9-2.3,4.2-2.9c0.7-0.2,1.1-0.9,0.9-1.6
			c-0.2-0.7-0.9-1.1-1.6-0.9c-3.2,0.8-5.2,2.4-6,4.6c-0.8,2.1-0.3,4.2,0.3,5.7c-2.5-0.1-4.8-0.3-7-0.5c0.1-1.4-0.1-3.1-0.9-4.8
			c0.3-0.2,0.5-0.4,0.5-0.7c0.1-0.3,2-7.1,9.4-5.8c0.6,0.1,1.3-0.3,1.5-0.9c0.1-0.4,1.3-3.6,5.5-2.4c0.7,0.2,1.4-0.2,1.6-0.9
			c0.2-0.7-0.2-1.4-0.9-1.6c-4.6-1.3-7.2,1.1-8.3,3.1c-2.5-0.3-4.5,0.3-6.1,1.2c2.4-1.6,4-3.6,4.9-6.1c2.3-6.3-1-13.1-1.2-13.3
			c0,0,0-0.1-0.1-0.1c0-0.1-0.1-0.2-0.2-0.3c1.3-0.1,2.5-0.1,3.8-0.1c0.2,0,0.3,0,0.5,0c-1.1,3.6-0.4,7.7,0.5,10.4
			c-1.3,0.6-2.1,1.3-2.1,1.4c-0.6,0.5-0.6,1.3-0.1,1.9c0.5,0.6,1.3,0.6,1.9,0.1c0,0,2.2-1.9,4.5-1.6c1.2,0.1,2.1,0.8,3,1.9
			c0.2,0.3,0.5,0.5,0.9,0.5c0.1,0,0.1,0,0.2,0c0.3,0,0.6-0.1,0.8-0.3c0,0,1.9-1.5,4.6-0.5l-1.8,3.5c-2.5-0.1-4.9,1.1-5.2,1.2
			c-0.6,0.3-0.9,1.1-0.6,1.8c0.3,0.6,1.1,0.9,1.8,0.6c0.5-0.2,1.5-0.6,2.6-0.8c0.9-0.2,1.8-0.2,2.6,0.2c0.1,0,0.1,0.1,0.2,0.1
			c0.6,0.3,0.9,0.9,1.2,1.8c0.1,0.4,0.5,0.8,0.9,0.9c0.4,0.1,0.9,0,1.3-0.3c0.5-0.5,2.3-1.7,3.7-1.4c0.7,0.1,1.3,0.7,1.9,1.6
			c0.3,0.6,1.1,0.9,1.7,0.6c0,0,1.7-0.8,3.5-0.9c0.9-0.1,1.8,0,2.7,0.3c0,0,0,0,0.1,0c1,0.4,1.7,1.2,2.2,2.5
			c0.2,0.5,0.7,0.8,1.2,0.9c-6.4,4.8-16.8,7.3-30.6,7.3C-806.6-106.2-807.8-106.2-808.9-106.2z M-824.9-116.7
			c1.7-0.2,3.6-0.6,5.7-1.5c0.7-0.3,1.3-0.7,2-1c-2.1,1.4-3.4,3.4-4.1,5.1C-822.2-115.2-823.4-116.1-824.9-116.7z M-821.5-107.1
			c-8-1-13.6-2.9-17.7-4.9c1.1-1.4,4.3-4.3,10.7-3C-822-113.9-821.4-109-821.5-107.1z M-775.4-132.1l-0.1,0.3l-0.4,1
			c-3.6,1-6.4,0.9-8.2-0.4c-2.2-1.6-2.2-4.5-2.2-4.6c0-0.1,0-0.1,0-0.2c0.2-0.3,0.5-0.6,0.7-0.9c0.6-0.7,1.4-1.4,2.3-2
			c1.4-0.8,2.9-1.1,4.6-0.2c0,0,0.1,0,0.1,0.1c0.1,0.1,2.9,1.1,3.3,4.2C-775.1-134.1-775.1-133.2-775.4-132.1z M-785.6-129.1
			c1.5,1.1,3.3,1.6,5.5,1.6c1,0,2.1-0.1,3.2-0.4l-2.9,8c-1.8-0.1-3.6,0.4-4.7,0.8c-1-1.3-2.2-1.8-3.1-2c-1.7-0.3-3.4,0.4-4.5,1
			c-0.5-0.9-1.2-1.4-1.8-1.8l5.5-10.9C-787.8-131.5-787-130.1-785.6-129.1z M-788.3-137.7c-1,1.3-1.6,2.4-1.6,2.5l-3.5,7
			c-2.8-1.2-5-0.5-6.3,0.1c-1.2-1.2-2.5-1.9-4.1-2.1c-0.6-0.1-1.3,0-1.8,0.1c-0.5-1.4-1.8-6-0.3-9.6c0.4-0.9,1-1.8,1.9-2.6
			c0.5-0.4,1-0.7,1.6-1c6.6-3.2,12-0.5,15.1,3.2c0.2,0.2,0.4,0.5,0.5,0.7C-787.3-138.9-787.9-138.3-788.3-137.7z M-801.1-146.7
			c-0.8,0.3-1.6,0.6-2.5,1c-0.3,0.1-0.5,0.3-0.8,0.5c-0.5-0.4-1.4-1-2.5-1.5C-804.8-146.8-802.9-146.8-801.1-146.7z M-806.5-143.6
			c-0.4,0.4-0.7,0.8-1,1.2c-0.6,0-1.2,0-1.7,0c-1.9,0-3.7,0.1-5.5,0.2c-0.3-0.4-0.5-0.7-0.7-0.9c1.2-1.3,2.5-2,3.9-2.1
			C-809.4-145.3-807.6-144.3-806.5-143.6z M-818.8-146.2c1.1-0.1,2.2-0.2,3.4-0.3c-0.7,0.4-1.4,1-2,1.7c-0.6-0.4-1.2-0.8-1.9-1.1
			L-818.8-146.2z M-817.9-142c0.2,0.2,0.3,0.3,0.5,0.5c0.3,0.3,0.9,1.2,1.4,2c0.3,0.5,0.7,1.1,0.9,1.5c0.3,0.6,2.8,6.2,1,11.2
			c-1,2.7-3,4.7-6.2,6.1c-9.6,4.3-15.1-2.8-15.3-3.1c-2.6-3.8-3.2-7-3.1-9.3c0-0.1,0-0.2,0-0.4l10-6.4c-0.5,0.9-1,1.9-1.6,2.9
			c-1.8,3.6-3.5,7.8-3.6,8c-0.2,0.4,0,1,0.5,1.1c0.1,0,0.2,0.1,0.3,0.1c0.3,0,0.7-0.2,0.8-0.5c0-0.1,2.3-5.6,4.3-9.4
			c0.5-1,1.1-1.9,1.5-2.5c0.1-0.2,0.2-0.4,0.1-0.6c0-0.2-0.1-0.4-0.3-0.5l4.7-3C-820.3-143.7-818.9-142.9-817.9-142z M-839.3-140.1
			l0-0.6l0-3l0.1-6.1l0.1-6.9l15.5,8.4l1.7,0.9l-0.4,0.2l-2.8,1.8l-0.4,0.2l-12.3,7.9l-1.6,1L-839.3-140.1z M-837.7-122.2
			c0,0,2,2.6,5.5,4.2c-5.4,0.3-8.2,3.2-9.3,4.6c-2.3-1.4-3.9-2.9-5-4.4c-0.3-0.4-0.6-0.9-0.9-1.3c0.1-0.2,0.1-0.3,0.1-0.5
			c0-0.1-0.2-5.1,4.5-10.1c0.5-0.5,1-1,1.5-1.5C-841-128.6-840.1-125.6-837.7-122.2z M-841.7-157.4l-0.2,15.1l0,3.2l-0.1,4.2
			l-2.7,0.6l-0.1-2.6l-0.1-3.5l-0.4-16.6L-841.7-157.4z M-849.5-127.2c0-0.3,0.1-0.5,0.1-0.5c0-0.1,0-0.2,0-0.3c0-0.1,0-0.7,0.3-1.6
			c0.2-0.7,0.5-1.7,1.1-2.8c0.2-0.4,0.5-0.9,0.8-1.3l0,1.2c0,0.4,0.2,0.8,0.5,1c0.2,0.2,0.5,0.3,0.8,0.3c0.1,0,0.2,0,0.3,0l0.9-0.2
			c0,0,0,0,0,0c-2.6,2.8-3.9,5.6-4.6,7.8c-0.2-0.8-0.2-1.4-0.2-2C-849.6-126.3-849.5-126.9-849.5-127.2z M-773.7-87.5
			c-5.3,3.3-12.7,5.5-32.3,5c-21.3-0.4-28.7-2.3-38.1-6.6c-5.7-2.6-5.7-7.3-5.7-7.5l-0.2-10.9l-0.1-2.6l0-1.7l0,0.1l0,1.6
			c0.1,0,0.2,0,0.2,0l-0.3-1.7l-0.1-4.3c0,0,0,0,0,0l0-2.2c0,0,0,0,0,0l0,1.7l0.2,0l0-0.3c0,0,0.6,0,0.6,0c0.1,0,0.2,0,0.3,0
			c0,0,0,0,0.1,0.1c0.1,0.2,0.3,0.3,0.4,0.5c0.2,0.3,0.4,0.5,0.7,0.7c6.9,7.9,21.2,11.9,42.5,11.9c17.3,0,29.2-3.7,35.6-11
			c0.2-0.2,0.3-0.4,0.5-0.5c0.4-0.5,0.8-1,1.1-1.6c0,0-0.1,0-0.1,0c0.2-0.3,0.4-0.5,0.4-0.8v0.2v0.2c-0.1,0.1-0.1,0.2-0.2,0.3
			c0,0,0,0,0,0c0,0,0,0,0,0c0,0,0.1,0,0.2,0v6.4v0.3v2.6l0.1,7.8C-767.9-92.2-771.2-89.2-773.7-87.5z M-768-128.8c0,0.1,0,1.2,0,2.9
			v0.4c0,0,0.1,0,0.1,0c0,0.2,0,0.4,0,0.7c-0.5-2-1.5-4.1-3.2-6.2c-0.5-0.6-1-1.1-1.5-1.7c0.5-3.1-0.6-5.4-2.1-6.8
			c-1.2-0.9-2.7-1.7-4.4-2.5c-1.2-0.3-2.5-0.3-3.7,0.1c-0.7,0.2-1.3,0.5-1.9,0.9c-1.3-1.7-2.8-3.2-4.7-4.3c4.2,0.8,7.6,2,10.3,3.2
			c0,0,0,0,0,0c1.7,0.8,3.2,1.7,4.4,2.5l0,0c0.9,0.7,1.8,1.4,2.4,2c0.9,0.8,1.5,1.7,2.1,2.5c1.5,2.2,2,4,2.2,5.1
			c0.1,0.5,0.1,0.8,0.1,0.9C-767.8-129-768-128.9-768-128.8z M-758.1-119.8c-0.2,3.5-1.3,6.1-3.3,7.7c-1.1,1-2.5,1.5-3.7,1.8l0-4.2
			c0.6-0.2,1.3-0.6,1.9-1.1c1.5-1.3,2.3-3.4,2.3-6c0-2.7-0.7-4.6-2.3-5.7c-0.6-0.4-1.8-0.7-1.8-0.8v0.3c0-0.1,0-0.2,0-0.3
			c0-0.1,0-0.1,0-0.2v-0.8c0-0.2-0.1-0.3-0.2-0.5c0,0,0,0,0,0c0-0.5-0.2-1.5-0.6-2.7c1.5,0.4,3.2,1.1,4.7,2.5
			C-758.9-127.6-757.9-124.2-758.1-119.8z M-764.7-125.2c0.8,0.6,1.2,1.8,1.2,3.6c0,1.8-0.4,3.2-1.4,4c-0.1,0.1-0.2,0.1-0.2,0.1
			v-7.9c0,0,0,0,0,0c0-0.2,0-0.4,0-0.5v0.6C-765-125.3-764.8-125.2-764.7-125.2z"/>
	</g>
	<g>
		<circle cx="-290" cy="55" r="4"/>
		<circle cx="-308" cy="55" r="4"/>
		<circle cx="-272" cy="55" r="4"/>
	</g>
	<g>
		<g>
			<path d="M-434.7-121.4c-2.7,0-4.8-2.2-4.8-4.8s2.2-4.8,4.8-4.8c2.7,0,4.8,2.2,4.8,4.8S-432-121.4-434.7-121.4z M-434.7-129.3
				c-1.7,0-3.1,1.4-3.1,3.1c0,1.7,1.4,3.1,3.1,3.1c1.7,0,3.1-1.4,3.1-3.1C-431.6-127.9-433-129.3-434.7-129.3z"/>
		</g>
		<g>
			<path d="M-474.1-131.9c-2.7,0-4.8-2.2-4.8-4.8c0-2.7,2.2-4.8,4.8-4.8s4.8,2.2,4.8,4.8C-469.3-134.1-471.4-131.9-474.1-131.9z
				 M-474.1-139.8c-1.7,0-3.1,1.4-3.1,3.1c0,1.7,1.4,3.1,3.1,3.1s3.1-1.4,3.1-3.1C-471-138.4-472.4-139.8-474.1-139.8z"/>
		</g>
		<g>
			<path d="M-478.6-110c-2.1,0-3.8-1.7-3.8-3.8c0-2.1,1.7-3.8,3.8-3.8c2.1,0,3.8,1.7,3.8,3.8C-474.8-111.7-476.5-110-478.6-110z
				 M-478.6-115.9c-1.1,0-2,0.9-2,2c0,1.1,0.9,2,2,2c1.1,0,2-0.9,2-2C-476.6-114.9-477.5-115.9-478.6-115.9z"/>
		</g>
		<g>
			<path d="M-500.1-122.3c-1.9,0-3.4-1.5-3.4-3.4c0-1.9,1.5-3.4,3.4-3.4c1.9,0,3.4,1.5,3.4,3.4
				C-496.7-123.8-498.2-122.3-500.1-122.3z M-500.1-127.3c-0.9,0-1.6,0.7-1.6,1.6c0,0.9,0.7,1.6,1.6,1.6c0.9,0,1.6-0.7,1.6-1.6
				C-498.5-126.5-499.2-127.3-500.1-127.3z"/>
		</g>
		<g>
			<path d="M-437.4-131.9c-2.1,0-3.8-1.7-3.8-3.8s1.7-3.8,3.8-3.8c2.1,0,3.8,1.7,3.8,3.8S-435.3-131.9-437.4-131.9z M-437.4-137.8
				c-1.1,0-2,0.9-2,2c0,1.1,0.9,2,2,2c1.1,0,2-0.9,2-2C-435.4-136.9-436.3-137.8-437.4-137.8z"/>
		</g>
		<g>
			<path d="M-486.5-120c-3.1,0-5.6-2.5-5.6-5.6c0-3.1,2.5-5.6,5.6-5.6s5.6,2.5,5.6,5.6C-481-122.4-483.4-120-486.5-120z
				 M-486.5-129.3c-2.1,0-3.8,1.7-3.8,3.8c0,2.1,1.7,3.8,3.8,3.8c2.1,0,3.8-1.7,3.8-3.8C-482.7-127.6-484.4-129.3-486.5-129.3z"/>
		</g>
		<path d="M-417.3-133.3c-2.5-2.5-5.7-3.3-7.8-3.5c-0.7-1.3-1.8-2.7-3.2-4.1c-3.6-3.6-8.6-5.9-14.1-7.5c1.6-4.9-0.1-9.4-0.1-9.5
			c-0.1-0.3-0.5-0.6-0.8-0.6c-4.8,0-7.4,3.7-8.6,6c-4.2-6.4-9.1-4.5-9.3-4.4c-0.3,0.1-0.5,0.3-0.5,0.6c-0.5,2-0.5,3.7-0.2,5.3
			c-2.3-0.1-4.5-0.1-6.6,0c-24.9,0.7-34.9,8.1-38.9,14c-1.2,0-6.1,0.2-9.6,3.8c-2.7,2.8-3.9,6.9-3.5,12.1c0.3,4.2,1.8,7.4,4.5,9.5
			c1.7,1.4,3.7,2,5.4,2.4l-0.1-2.7c-1.2-0.3-2.5-0.8-3.7-1.7c-2-1.6-3.2-4.2-3.5-7.6c-0.4-4.4,0.6-7.8,2.7-10c2-2,4.6-2.7,6.2-2.9
			c-0.5,1.2-0.8,2.3-1,3.1c-0.1,0.6-0.1,1-0.2,1.2c-0.3,0-0.7,0.1-1,0.1c-0.7,0.1-1.3,0.4-1.9,0.9c-1.5,1.1-2.2,3.1-2.2,5.8
			c0.1,2.6,0.9,4.6,2.4,5.9c0.6,0.5,1.3,0.9,2,1.1l0-0.1l0,0.1l0,0l0.1,4.2l0.1,2.7l0.2,11.1c0,0.3,0,6.6,7.2,9.9
			c9.7,4.4,17.3,6.4,39.1,6.8c1.6,0,3.1,0,4.5,0c16.9,0,24-2.2,29.3-5.5c1.8-1.1,7.2-4.5,7.2-14.2v-8.1c1-0.3,3.6-1.1,5.3-2.5
			c2.6-2.2,4-5.4,4.2-9.6C-413.3-126.6-414.6-130.6-417.3-133.3z M-510.8-119.3C-510.8-119.3-510.9-119.3-510.8-119.3
			c-1-0.8-1.6-2.2-1.7-4c0-1.2,0.1-2.9,1.1-3.7c0.1-0.1,0.3-0.1,0.4-0.1L-510.8-119.3L-510.8-119.3z M-436.8-143.6
			c-1.3-0.4-2.5-0.3-3.4-0.1c-1.5-0.9-2.6-1.6-3.5-2c0.1-0.1,0.2-0.2,0.2-0.4C-440.9-145.3-438.7-144.5-436.8-143.6z M-430.9-139.7
			c-0.8-0.4-1.5-0.7-1.9-0.8c-0.4-0.7-0.9-1.2-1.4-1.6C-432.8-141.4-431.8-140.6-430.9-139.7z M-443.6-132.1
			c0.2,0.2,0.7,0.7,0.7,1.3c0,0.3-0.1,0.6-0.5,0.9c-0.2,0.2-0.3,0.5-0.3,0.7c0,0,0.3,2.5,0,4.5l-0.2,1.2c-1.4-1.6-3.4-2.6-5.7-2.6
			c-2.9,0-5.4,1.6-6.7,4c-0.1,0.1-0.1,0.3-0.2,0.4c-0.1-0.2-0.1-0.4-0.2-0.6c-0.7-1.7-2.2-2.9-4-3.2c0-0.4,0-0.8-0.1-1.1
			c0.2-0.1,0.5-0.1,0.8-0.1c0.3,0,0.6-0.2,0.8-0.6s0-0.7-0.2-0.9c-0.1-0.1-0.2-0.3-0.2-0.3c0,0,0.2-0.3,1.5-0.5
			c0.3,0,0.5-0.2,0.7-0.5c0.1-0.3,0.1-0.6-0.1-0.8c-0.2-0.3-0.5-1-0.3-1.4c0.1-0.3,0.6-0.5,0.9-0.5c0.3-0.1,0.5-0.3,0.7-0.6
			c0.1-0.3,0-0.6-0.1-0.9c-0.3-0.4-0.9-1.4-0.7-2c0.1-0.4,0.7-0.6,1.1-0.7c0.3-0.1,0.6-0.4,0.6-0.7c0.1-0.3-0.1-0.7-0.4-0.9
			c0,0-0.1-0.1-0.1-0.3c0-0.3,0.2-1.2,2.5-2.8l5.1-0.5c1.2,0.5,3.8,1.9,3.6,3.7c0,0.2,0,0.4,0.1,0.5c0,0,1.2,2.3,0.5,4.2
			C-443.9-132.8-443.8-132.4-443.6-132.1z M-443.6-118.5c0,3.2-2.6,5.8-5.8,5.8c-3.2,0-5.8-2.6-5.8-5.8c0-0.4,0-0.8,0.1-1.2
			c0.1-0.6,0.3-1.1,0.6-1.6c1-1.8,2.9-3,5.1-3c2.3,0,4.3,1.4,5.3,3.3c0.3,0.5,0.4,1.1,0.5,1.7C-443.6-119-443.6-118.8-443.6-118.5z
			 M-464.8-121.1c0.3-1.1,1.1-2,2.1-2.4c0.1-0.1,0.3-0.1,0.4-0.1c0.3-0.1,0.5-0.1,0.8-0.1c0.2,0,0.4,0,0.7,0.1
			c1.4,0.3,2.5,1.4,2.8,2.7c0,0.2,0.1,0.5,0.1,0.7c0,1.9-1.6,3.5-3.5,3.5c-1.6,0-2.9-1.1-3.3-2.5c-0.1-0.3-0.2-0.7-0.2-1
			C-464.9-120.6-464.8-120.9-464.8-121.1z M-466.6-120.6c-0.2,0-0.5,0-0.7,0c-2.7-0.1-4.7-2.4-4.6-5.1c0.1-2.7,2.4-4.7,5.1-4.6
			c1.9,0.1,3.5,1.3,4.2,3c0.2,0.6,0.4,1.2,0.4,1.8c-0.2,0-0.4,0.1-0.7,0.1C-465-124.6-466.5-122.8-466.6-120.6z M-502.6-138.6
			c4.5-4.2,14-9.3,34.2-9.9c2.6-0.1,5-0.1,7.2,0c0.1,0.2,0.2,0.4,0.3,0.7c-2.9,0.7-5.1,2-6,2.6c-5.7-2-8.3-0.7-9.2,0
			c-6.4-1-10,2.3-11.1,3.7c-2.9-0.9-5.5-0.8-7.7,0.3c-2.7,1.5-4,4.2-4.5,5.5c-2.4-0.5-4.4-0.4-5.9,0.3
			C-504.6-136.3-503.7-137.4-502.6-138.6z M-426-118.6c-0.1,0.1-0.2,0.3-0.2,0.4c0,0,0.1,0,0.2,0v6.4v0.3v2.6v7.8
			c0,7.4-3.3,10.4-5.8,12c-5.3,3.3-12.7,5.5-32.2,5.1c-21.3-0.4-28.6-2.3-38-6.6c-5.7-2.6-5.7-7.3-5.7-7.5l-0.2-10.9l-0.1-2.6l0-1.7
			l0,0.2l-0.1-4.8c0,0,0,0,0,0l0-2c0.3,0.6,0.7,1.1,1.2,1.7c0.1,0.2,0.3,0.3,0.4,0.5c0.2,0.3,0.4,0.5,0.7,0.7
			c6.9,7.9,21.2,11.9,42.5,11.9c17.3,0,29.2-3.7,35.6-11c0.2-0.2,0.3-0.4,0.5-0.5c0.4-0.5,0.7-1,1-1.6c0.2-0.3,0.4-0.5,0.4-0.8
			V-118.6z M-426-127.6v0.4c0,0,0.1,0,0.1,0c-0.2,2.4-1,5.7-3.6,8.9c-5.6,6.9-17.3,10.5-33.9,10.5c-26.3,0-36.8-6.3-41.1-11.6
			c-2.4-3-3-6-3.1-7.9c0-0.1,0-0.2,0-0.4c0,0,0-0.2,0-0.5c0-0.3,0-0.5,0.1-0.7c0-0.3,0.1-0.5,0.1-0.5c0-0.1,0-0.2,0-0.3
			c0,0,0-0.4,0.1-0.8c0.2-0.9,0.7-1.8,1.4-2.4c1.4-1.3,3.7-1.5,6.9-0.8c0.5,0.1,0.9-0.2,1.1-0.6c0,0,0.9-3.6,3.9-5.2
			c1.9-1,4.2-1,6.9,0c0.4,0.1,0.8,0,1-0.3c0,0,3.3-4.8,10.2-3.4c0.3,0.1,0.7-0.1,0.9-0.3c0,0,1.9-2,8.1,0.3c0.3,0.1,0.6,0.1,0.8-0.1
			c0,0,2.5-1.9,6.2-2.7c1.5,2.2,3.5,3.7,4.8,4.4c-1.5,1.3-2.3,2.4-2.3,3.5c0,0.2,0,0.4,0.1,0.5c-0.8,0.4-1.2,1-1.3,1.5
			c-0.3,0.9,0,1.9,0.4,2.6c-0.6,0.3-0.9,0.8-1.1,1.2c-0.3,0.7-0.2,1.4,0,1.9c-1,0.3-1.5,0.8-1.7,1.5c-0.1,0.2-0.1,0.5-0.1,0.7
			c-1-2-3.1-3.5-5.5-3.6c-3.6-0.2-6.7,2.6-6.9,6.2c-0.2,3.6,2.6,6.7,6.2,6.9c0.3,0,0.7,0,1,0c0.6,2.2,2.7,3.8,5.1,3.8
			c1.9,0,3.5-1,4.5-2.5c0.5,3.7,3.7,6.6,7.5,6.6c4.2,0,7.6-3.4,7.6-7.6c0-0.9-0.2-1.8-0.5-2.7l0.5-3.4c0.2-1.7,0.1-3.7,0-4.5
			c0.6-0.7,0.7-1.4,0.7-1.9c0-0.9-0.5-1.7-0.9-2.1c0.5-2.1-0.3-4.2-0.7-4.9c0.1-2.3-2.1-3.9-3.6-4.7c0.6-0.5,1.1-1,1.6-1.6
			c0.8,0.3,2,1,3.9,2.2c0.2,0.1,0.5,0.2,0.8,0.1c0.2,0,3.8-1.2,6,2.5c0.1,0.2,0.3,0.3,0.5,0.4c0.1,0,5.9,1.9,7.3,5.9
			c0.1,0.2,0.1,0.4,0.2,0.6c0,0.2,0.1,0.4,0.1,0.6c0,0,0,0.1,0,0.1c0,0,0,0.1,0,0.1c0.1,0.5,0.1,0.8,0.1,0.9c0,0.1-0.1,0.2-0.1,0.3
			C-426-130.4-426-129.3-426-127.6z M-423-127c0-0.2,0-0.4,0-0.5L-423-127c0,0.1,0.2,0.1,0.3,0.2c0.8,0.6,1.2,1.8,1.2,3.6
			c0,1.8-0.4,3.2-1.3,4c-0.1,0.1-0.1,0.1-0.1,0.1L-423-127C-423-127-423-127-423-127z M-416.2-121.5c-0.2,3.5-1.2,6.1-3.2,7.7
			c-1.1,1-2.6,1.5-3.6,1.8v-4.2c0-0.2,1.2-0.6,1.9-1.1c1.5-1.3,2.3-3.4,2.2-6c0-2.7-0.7-4.6-2.3-5.7c-0.6-0.4-1.8-0.7-1.8-0.8v0.3
			c0-0.1,0-0.2,0-0.3c0-0.1,0-0.2,0-0.4v-0.6c0-0.2-0.1-0.3-0.2-0.5c0,0,0,0,0,0c0-0.5-0.2-1.5-0.6-2.7c1.5,0.4,3.2,1.1,4.7,2.5
			C-416.9-129.2-416-125.9-416.2-121.5z"/>
		<path d="M-451.1-132.6c-1.3,0-2.5-1-3.1-1.7c-0.3-0.4-0.3-0.9,0.1-1.2c0.4-0.3,0.9-0.3,1.2,0.1c0.3,0.3,1.4,1.4,2.1,1
			c0.4-0.2,1-0.1,1.2,0.3c0.2,0.4,0.1,1-0.3,1.2C-450.2-132.7-450.7-132.6-451.1-132.6z"/>
		<path d="M-449.5-128.4c-0.7,0-1.3-0.1-1.8-0.3c-0.5-0.2-0.7-0.7-0.5-1.1c0.2-0.5,0.7-0.7,1.1-0.5c0.4,0.1,1.9,0.5,2.3-0.2
			c0.2-0.4,0.8-0.6,1.2-0.4c0.4,0.2,0.6,0.8,0.4,1.2C-447.4-128.7-448.5-128.4-449.5-128.4z"/>
	</g>
	<g>
		<path d="M-140.5-134.8c-0.2,0-0.4,0-0.6,0c-0.9-0.1-1.8-0.1-2.7-0.1c-2.7,0-5,0-6.3-1.7c-0.9-1.1-1.2-2.7-0.7-5c0-0.1,0-0.1,0-0.2
			c0.4-1.1,1.3-4.6,0.8-6.7c-0.2-0.8-0.2-2.3,1.6-3.7c2.7-2.1,8.6-3,12.2-1.1c2.1,1.1,3.5,2.7,4,4.6c0.6,2,0.2,4.3-1.1,6.3
			c-0.4,0.6-0.6,1.3-0.9,2.1C-135-138-136.1-134.8-140.5-134.8z M-147.9-140.9c-0.2,1.2-0.2,2.1,0.1,2.5c0.5,0.6,2.3,0.6,4,0.6
			c0.9,0,1.8,0,2.8,0.1c2.5,0.2,3-0.9,3.9-3.4c0.3-0.9,0.7-1.9,1.2-2.7c0.8-1.3,1.1-2.7,0.7-3.9c-0.3-1.1-1.1-2.1-2.5-2.8
			c-2.5-1.3-7.1-0.6-9,0.9c-0.4,0.3-0.5,0.6-0.5,0.6C-146.4-146-147.7-141.6-147.9-140.9z"/>
		<path d="M-129.8-154.5c-0.5,0-1.1,0-1.8-0.1c-3.7-0.5-3.8-6.2-3.8-6.8c0-0.4,0.2-0.8,0.4-1.1c1.4-1.4,3.7-1.2,6.4,0.5
			c0.7,0.5,4.2,2.9,3.4,5.1C-125.6-155.7-126.7-154.5-129.8-154.5z M-132.3-160.4c0.2,1.4,0.6,2.7,1.1,2.8c1.6,0.2,2.6,0.1,3-0.2
			c-0.6-0.8-2.4-2.3-3.9-2.6C-132.2-160.4-132.2-160.4-132.3-160.4z"/>
		<path d="M-118.4-151.8c-0.7,0-1.3-0.2-1.7-0.3l-0.2,0c-2.3-0.6-3.1-3.7-2.7-5.6c0.1-0.7,0.7-1.3,1.4-1.5c1.8-0.5,4.1,1.5,4.9,2.3
			c1.3,1.4,1.3,2.5,1,3.2C-116.3-152.2-117.4-151.8-118.4-151.8z M-120-155.7c0.1,0.3,0.3,0.6,0.4,0.7l0.2,0c0.1,0,0.2,0.1,0.4,0.1
			C-119.3-155.2-119.6-155.5-120-155.7z"/>
		<path d="M-56.5-169.8c-1.9-1.6-4.1-2.2-6.4-1.9c-5.2,0.6-9.4,5.8-10,6.6l-13.8,14.1c-0.5,0.3-1.7,1.5-1.9,3.2
			c-0.1,0.6,0,1.5,0.6,2.5l-2.7,2.3c-1.7-1.2-3.2-2.1-4-2.5c-0.2-0.3-0.4-0.4-0.4-0.4c-0.1-0.1-0.2-0.2-0.3-0.2c0,0,0,0,0,0
			c-0.9-0.4-21.7-9.9-44.7,18.5c-0.9-1.1-2.3-1.8-3.9-2c-0.2,0-0.5-0.1-0.8-0.1c-2-0.3-5.7-1-8.1,1.3c-1.5,1.5-2.2,3.9-1.8,7.1
			c-0.3,1.3-0.8,5.5,1.7,7.2c0.8,0.5,1.7,1.2,2.8,1.7c-10.2,19.1-5,29.3-3.7,31.3c0,0.1,0.5,0.8,1,1.3v0c1.3,1.5,4.3,4.5,8.9,7.2
			c4.1,2.4,10.2,4.7,18,4.7c3.1,0,6.6-0.4,10.2-1.3c1.3-0.2,11.8-2,25.9-18.5c0,0,0.1,0,0.1,0c0.6-0.8,14.8-20.6,12.3-35.5
			c-0.7-4-2.2-7.5-4.2-10.4l2.7-3.1c0.2,0.1,0.5,0.2,0.8,0.2c0.1,0,0.3,0,0.4,0c1.4,0,2.8-0.7,4.4-2l15-15.3c0.2-0.2,5.2-4.8,5-9.9
			C-53.5-166.2-54.5-168.2-56.5-169.8z M-106-118.3c-5.7-0.5-8,7.2-8.4,9.1c-1.2-0.1-2.8,0.3-4.5,2.4c-0.8,1-0.8,3-0.5,4.5
			c0.3,1.6,1.1,2.8,2.3,3.5c0.9,0.5,1.9,0.7,2.9,0.7c0.6,0,1.3-0.1,1.9-0.3c1.2-0.4,2.2-1.3,2.7-2.3c0.1-0.2,0.1-0.4,0.2-0.6
			c0.3,0.1,0.6,0.1,1,0.1c0.2,0,0.5,0,0.7-0.1c-1,1.1-1.9,2.1-3,3.2c-7.2,7.4-13.3,12-18.4,14.8c0.6-0.7,1.1-1.3,1.4-1.7
			c1.1-1.7,1-3,0.6-4.2c1.4,0,3.4-0.7,5.6-3.4c3-3.5,2.7-5.9,1.9-7.3c-1.1-2-3.9-2.9-7.3-2.3c-1.8,0.3-3.2,1.1-4.1,2.5
			c-0.7,1-0.9,2.1-0.9,3c-0.2-0.1-0.3-0.2-0.5-0.4c-0.5-0.4-0.9-0.6-1.3-0.9c1-0.6,2.1-1.6,3.2-3c0.7-0.8,1.9-2.9,2.2-5
			c0.2,0.1,0.5,0.2,0.7,0.3c1,0.4,2.1,0.6,3.2,0.6c1.9,0,3.6-0.6,4.6-1.2c2.3-1.5,2.8-3.1,3.7-5.6l0.2-0.6c1.5-4.1-1.4-6.5-3-7.8
			c-0.8-0.7-1.5-1-2.2-1.2c0.6-0.6,1.2-1.2,1.9-1.7c0.2,0,0.4,0,0.6,0c0.4,0,0.8-0.1,1.1-0.2c0.9-0.3,1.6-0.9,2-1.8
			c0.1-0.3,0.3-0.8,0.3-1.3c6.6-4.8,14.3-7.6,22.5-5.8c0.1,6.1-2.2,13-7,20.4c0.1-0.7,0.2-1.4,0.2-1.9
			C-99.9-117.4-103.9-118.3-106-118.3z M-107.8-104.3c-0.6,0.2-1.3,0.3-2.2-0.8c-0.1-0.1-0.1-0.2-0.2-0.3c-0.3-0.7-0.7-1.3-1.1-1.9
			c-0.2-0.5-0.2-0.9-0.2-0.9c0.2-0.7,1.8-7.4,5.4-7.1c0.1,0,0.1,0,0.2,0c0,0,3.3-0.1,3.5,2C-102.3-111.4-105.1-105.4-107.8-104.3z
			 M-112.4-101.8c-0.1,0.2-0.4,0.5-0.9,0.6c-0.7,0.3-1.6,0.2-2.3-0.2c-1.1-0.6-1-2.9-0.8-3.5c0.5-0.6,1.3-1.5,2-1.2
			c0.2,0.1,0.3,0.2,0.5,0.4c0.3,0.6,0.6,1.2,1.1,1.9C-112.6-103-112.4-102.2-112.4-101.8z M-128.5-98c0.4-0.6,1.1-1,2.1-1.2
			c0.5-0.1,1-0.1,1.4-0.1c1.4,0,2.4,0.4,2.7,1c0.4,0.8-0.1,2.2-1.5,3.9c-1.5,1.7-2.8,2.6-3.7,2.2c-0.8-0.3-1.3-1.4-1.3-2.8
			c0-0.1,0-0.2,0-0.4C-128.9-95.3-129.2-96.9-128.5-98z M-128.9-111.7c0-0.2-0.1-0.4-0.1-0.7c-0.2-1-0.2-2.5,0.7-3.5
			c1.5-1.5,2.8-1.9,4.1-2.3c0,0,0,0,0.1,0c0.2,0,0.3-0.1,0.5-0.1c0.5-0.1,0.8-0.2,1.2-0.2c0.5,0,1,0.2,1.6,0.7
			c2.2,1.8,2.6,2.8,2,4.5l-0.2,0.6c-0.8,2.3-1.1,3.2-2.5,4.1c-0.8,0.5-3.1,1.1-4.9,0.3c-1.3-0.5-2.1-1.6-2.4-3.3v0L-128.9-111.7z
			 M-120.1-128.6c0.8-0.5,1.2-0.5,1.4-0.5c0.3,0.2,0.4,0.7,0.5,1.3c0.1,0.6,0.1,1.2,0,1.5c-0.1,0.2-0.2,0.3-0.3,0.3
			c-0.1,0-0.5,0.1-1.5-0.4c0,0,0,0,0,0C-120.6-126.8-120.3-128-120.1-128.6z M-98.8-144.3c0.9,0.2,1.5,0.5,1.8,0.6
			c0.2,0.2,0.5,0.5,0.8,1c1,1.3,2.5,3.8,3.2,7.6c-7.5-1.4-15.1,0.5-22.6,5.5c-0.3-0.7-0.6-1.3-1.2-1.7c-0.8-0.7-2.6-1.5-5.4,0.5
			c-0.2,0.2-0.4,0.4-0.5,0.6c-0.6,1.4-1.2,4.2,0.5,5.8c-1.3,1.2-2.5,2.4-3.7,3.7c-1.2,0.4-2.8,1.1-4.5,2.8c-1.4,1.4-1.7,3.1-1.7,4.5
			c-0.1,0.1-0.2,0.3-0.3,0.4c-1.7-1.4-3.6-2.4-5.1-1.8c-0.3,0.1-0.6,0.2-0.9,0.3c-0.1,0-0.2,0.1-0.4,0.1c0.4-0.5,0.6-1.2,0.6-2
			c0-1.1-0.2-2.5-0.4-3.7c-0.1-0.8-0.3-1.9-0.3-2.2c0-0.2,0.2-1.1,0-2.3C-120.8-147.8-104.3-145.8-98.8-144.3z M-137.6-111.7
			c0.4-0.1,0.8-0.3,1-0.3c0,0,0,0,0,0c0.5,0,1.4,0.6,2.3,1.4c0.8,0.7,1.6,1.5,2.2,2.2c0.3,0.3,0.5,0.7,0.7,1
			c0.5,0.9-0.7,3.7-1.5,4.6c-1.7,2.1-2.8,2.6-3.3,2.7c-0.3,0.1-0.7,0-1.1,0c-0.7-0.1-1.6-0.4-2.5-0.9c0-0.1,0-0.4,0-0.7
			c0-0.1,0-0.2,0-0.3c0-0.4,0.1-0.8,0.1-1.2c0-1.2-0.8-2.3-1.5-3.3c-0.3-0.4-0.7-1-0.8-1.3C-141.1-110.7-139.3-111.2-137.6-111.7z
			 M-151.5-116.8c-0.7-0.4-0.7-2.6-0.4-4.3c0-0.2,0-0.3,0-0.5c-0.2-1.6-0.2-3.8,0.9-4.8c1.3-1.2,3.9-0.8,5.5-0.5
			c0.4,0.1,0.7,0.1,1,0.1c1,0.1,1.7,0.5,2.1,1c0.1,0.1,0.2,0.3,0.3,0.4c0.4,0.9,0.4,2,0.3,2.5c-0.1,0.5,0,1.1,0.1,2
			c0.1,0.4,0.1,0.8,0.2,1.2c0.2,1.1,0.4,2.3,0.4,3.2c0,0.7-2,1.2-3.8,1.6l-0.3,0.1c-0.2,0-0.3,0-0.5,0.1c-1.1,0.1-2.1-0.2-3.1-0.6
			C-149.9-115.7-150.7-116.3-151.5-116.8z M-150.6-82c-0.5-0.4-0.8-0.7-0.9-0.8c-0.1-0.1-0.5-0.7-0.9-1.7
			c-1.4-3.5-3.2-12.4,4.8-27.2c0.4,0.1,0.8,0.1,1.2,0.1c0.5,0,1.1-0.1,1.7-0.2l0.3-0.1c0.5-0.1,1-0.2,1.5-0.4
			c-0.9,0.9-1.6,2-2.1,3.7l0,0c-0.4,1.3,0.5,2.5,1.3,3.7c0.3,0.5,0.9,1.3,1,1.6c0,0.3,0,0.6-0.1,0.9c-0.1,0.9-0.1,2,0.5,3
			c-0.6,0.2-1.1,0.5-1.7,0.8l-0.6,0.3c-2.2,1.1-3.5,2.5-5.3,4.7c-2.1,2.6-1.8,4.2-1.1,6.8c0.8,2.8,4.7,6.5,5.1,6.9
			c0.1,0.1,0.1,0.1,0.2,0.1C-148.1-80.3-149.7-81.3-150.6-82z M-148.1-87.5c-0.6-2.3-0.7-2.7,0.5-4.2c1.6-1.9,2.6-3.1,4.4-4l0.6-0.3
			c0.1,0,0.2-0.1,0.3-0.1c1.4-0.7,2.2-1,3.3-0.8c0.1,0,0.2,0.1,0.3,0.1l0.9,0.3c1.6,0.6,2.4,0.9,3.5,1.8c0.2,0.2,0.4,0.3,0.7,0.5
			c1.3,0.9,2.5,1.8,2.8,3.3c0.2,0.8,0.4,1.4,0.6,1.9c0.4,1.2,0.5,1.5,0,2.3c-1.9,2.8-6.2,7.2-13.8,4.4
			C-145.5-83.6-147.7-86.1-148.1-87.5z M-80.4-119.3c-0.3,12.9-11.3,28.5-12,29.4c-13.8,16.2-23.9,17.4-24,17.4
			c-0.1,0-0.1,0.2-0.2,0.2c-12.7,3.2-21.8-0.8-27.6-3.8c0,0,0,0,0,0c0.4,0,0.8-0.1,1.2-0.1c0.3,0,0.6-0.1,0.9-0.1
			c9.6,0,20.9-6.6,33.4-19.6c13-13.4,19.3-25.7,18.9-36.6c0-0.7-0.1-1.4-0.2-2.1c-0.1-0.4-0.1-0.8-0.2-1.2c0-0.2-0.1-0.5-0.1-0.7
			c-0.1-0.5-0.3-1.1-0.4-1.6c0-0.1,0-0.1,0-0.2c-0.2-0.5-0.3-1.1-0.5-1.6c0,0,0-0.1,0-0.1c4.1,3.3,9.2,8.9,10.5,16.7
			C-80.5-121.9-80.4-120.6-80.4-119.3z M-83.3-136.8l-4.9-4.5l2.2-1.8l4.5,4.3L-83.3-136.8z M-60.5-156.2l-15,15.2
			c-1.5,1.2-2.4,1.4-2.7,1.2l-2.5-2.4l-4.2-4.1c-0.3-0.4-0.8-0.9-0.7-1.3c0-0.5,0.6-1,0.7-1.1l14.2-14.4l0.1-0.2
			c1-1.4,4.5-5.1,8-5.5c1.5-0.2,2.8,0.2,4.1,1.3c1.3,1.1,2,2.3,2,3.6C-56.3-160.2-60.4-156.3-60.5-156.2z"/>
	</g>
	<path d="M-585.1,49C-585.1,48.9-585.1,48.9-585.1,49c0-0.1,0-0.1,0-0.2c-0.2-0.6-2.8-9.1-15.4-15.3l8.5-16.5
		c0.4-0.6,2.2-3.4,1.8-6.2c-0.2-1.4-1-2.6-2.2-3.5c-1.6-1.2-3-1.1-3.9-0.8c-2.7,0.8-4.2,4.1-4.3,4.4l-9.1,19.1
		c-6.3-1.8-14.3-3-24.2-3c-0.3,0-0.7,0-1,0c-11.1,0.1-19.7,1.7-26.3,4.2l-8-17.6c-0.3-0.7-2-5.1-5-6.3c-1.2-0.5-2.5-0.4-3.7,0.2
		c-1.2,0.6-2.1,1.6-2.5,2.9c-1,3.1,1,7,1.2,7.4l8.8,18c-11,7.4-12.5,16.9-12.6,17.5c0,0.1,0,0.1,0,0.2c-0.2,1.1-2.9,19.8,9.5,34.3
		c9,10.5,23.4,15.8,43,15.8c15.5,0,27.4-4.6,35.3-13.8C-581.5,73.9-584.9,50-585.1,49z M-588.2,49.2l-0.4,1c-0.5,1.1-1.4,3-3.1,5
		c-0.2-0.6-0.5-1-0.8-1.4c-0.9-1.2-2.3-1.8-3.5-2.3c2.6-3,2.9-6.8,2.9-7c0-0.7-0.4-1.3-1-1.5c-4.2-1.5-8.7-0.4-11.8,0.8l4-7.7
		C-591.9,41.2-588.8,47.5-588.2,49.2z M-610.5,57.8c-1.2-1.2-0.8-3.2-0.7-3.7l3-5.8c1.2-0.7,6.9-3.7,11.9-2.7
		c-0.4,1.6-1.3,4.3-4,5.6c-0.6,0.3-0.9,1-0.8,1.7s0.8,1.2,1.5,1.2c0.9,0,3.7,0.3,4.8,1.7c0.5,0.6,0.6,1.4,0.4,2.5
		c-3.2,3-7.9,6.2-14.7,8.6C-608.1,62.4-608.9,59.4-610.5,57.8z M-608.1,33.7l1.3-2.8l9-18.8c0.3-0.8,1.3-2.5,2.4-2.7
		c0.3-0.1,0.7-0.1,1.4,0.4c2.4,1.7-0.2,5.4-0.3,5.6c0,0.1-0.1,0.1-0.1,0.2l-8.7,16.7l-1.4,2.7l-9.3,17.9c0,0.1-0.1,0.2-0.1,0.3
		c-0.1,0.2-1.2,4.2,1.4,6.8c1,1,1.5,3.7,0.1,7.9c-1,0.3-2,0.5-3.1,0.8c0.6-2.2,1-4.3,0.4-5.4c-0.3-0.7-1-1.1-1.7-1
		c-0.8,0.1-1.9,0.1-4.8,7.6c-0.7,0.1-1.4,0.2-2.2,0.3c1.5-3.4,2.6-7.4,1.2-9.2c-0.5-0.6-1.1-0.8-1.9-0.7c-0.6,0.1-2.5,0.4-6.5,10.4
		c-0.5,0-1,0-1.5,0.1c1-5.7,3.7-14.8,8.9-15.7c0.9,0,4.7-0.6,8.4-6.3c0-0.1,0.1-0.1,0.1-0.2L-608.1,33.7z M-625.5,65.5
		c-0.4,1.4-1.1,3.2-1.9,4.9c-0.1,0-0.3,0-0.4,0C-627,68.6-626.2,66.8-625.5,65.5z M-640.6,57.3c0.2,0,0.3-0.1,0.5-0.2
		c0.1,0,5-3.2,12.5-3.7c-5.3,3.6-7.4,13-8.2,17.4c-0.3,0-0.6,0-0.9,0c-0.9,0-1.7,0-2.5,0C-638.8,65.4-639.2,60.9-640.6,57.3z
		 M-654.1,46.9C-654.1,46.9-654.1,46.9-654.1,46.9c0-0.1-0.5-2.4,1-4.1c1.3-1.5,3.7-2.2,7-2.2c0.1,3.9,1.7,6.4,2.7,7.6l-3,1.6
		c0,0-0.1,0-0.1,0.1c-2.8-1.7-5.7-1.9-7.2-2L-654.1,46.9z M-637.5,48.5C-637.5,48.5-637.4,48.5-637.5,48.5l11-7.1
		c0.1,2.3-0.3,5.9-2.3,8.9c0,0.1-0.1,0.1-0.1,0.2c-7.7,0.7-12.6,3.9-12.8,4.1c0,0,0,0-0.1,0.1c-0.6-1-1.3-1.9-2-2.7L-637.5,48.5z
		 M-643,39.3c0-0.3,0-0.4,0.1-0.7c0.1-0.8,0.3-1.6,0.6-2.6c1.8,0.6,5.2,2.4,6.2,7.2c0.1,0.2,0.2,0.4,0.3,0.6l-3.3,2.1l-1.6,0.9
		c0,0,0,0-0.1-0.1c0,0-2.5-2.1-2.4-6.7C-643.1,39.8-643,39.5-643,39.3z M-621.1,50.7c-1.5-0.2-2.9-0.3-4.3-0.3
		c1.2-2.3,1.6-4.7,1.8-6.7c0.1,0,0.2,0.1,0.3,0.1c0.4,0,0.8-0.1,1.1-0.4c0,0,3.1-3.1,7.6-3l-3.3,6.8C-619,48.9-620.1,50-621.1,50.7z
		 M-634.9,30c0.3,0,0.6,0,1,0c9.4,0,16.9,1.1,22.9,2.8l-2.2,4.6c-0.1,0-0.1,0-0.2,0c-4.9-0.6-8.6,1.9-10.2,3.1
		c-0.1-1.1-0.2-1.8-0.2-1.9c-0.1-0.5-0.4-0.9-0.9-1.1s-1-0.2-1.4,0.1l-7.2,4.6c-2-8.2-9.5-9.4-9.8-9.5c-0.7-0.1-1.4,0.3-1.6,0.9
		c-0.6,1.4-0.9,2.8-1.1,4c-4.4-0.1-7.7,1-9.6,3.2c-0.4,0.4-0.7,0.9-0.9,1.3l-3.7-8.2C-653.7,31.7-645.6,30.1-634.9,30z M-676.6,16.5
		c-0.4-0.8-1.5-3.5-1-5.2c0.2-0.5,0.5-0.9,1-1.1c0.2-0.1,0.5-0.2,0.7-0.2c0.2,0,0.3,0,0.5,0.1c1.4,0.6,2.8,3.1,3.4,4.6
		c0,0,0,0.1,0,0.1l7.9,17.5l1.2,2.7l6.8,15.1c0.3,0.6,0.9,1,1.6,0.9c0.2,0,4.7-0.6,8.2,2.9c3.3,3.2,4.6,8.9,4,16.8
		c-5.6-0.3-10.3-0.9-14.4-1.8c-2.7-4.1-5.1-9.8-2.3-14.7c0.2-0.4,0.3-1,0-1.4l-7.7-15.9l-1.3-2.7L-676.6,16.5z M-672.5,62.5
		c-0.3-1.3-1-6.2,1.4-9.5c1.5-2,3.9-3.1,7.3-3.3l1.8,3.8c-2.4,4.9-1,10.1,1.2,14.4C-665.9,66.4-669.7,64.4-672.5,62.5z M-669.2,38.6
		l4,8.2c-3.7,0.5-6.5,1.9-8.3,4.4c-2,2.7-2.4,6-2.3,8.5c-1.5-1.4-2.5-2.8-3.1-3.9l-1.1-2.6C-679.7,51.6-677.7,44.5-669.2,38.6z
		 M-597.5,87.9c-7.3,8.5-18.4,12.8-33,12.8c-18.6,0-32.3-5-40.7-14.7c-7.2-8.5-8.9-18.8-9.1-25.5c0-0.5,0-1,0-1.5
		c1.1,1.5,2.6,3.1,4.7,4.8c3.7,2.9,9.1,5.7,17.1,7.6c1.4,0.3,2.9,0.6,4.5,0.9c1.8,0.3,3.7,0.6,5.8,0.8c2.7,0.3,5.5,0.4,8.6,0.5
		c1.2,0,2.4,0,3.7,0c0.5,0,0.9,0,1.4,0c1.9,0,3.7-0.1,5.5-0.2c0.2,0,0.5,0,0.7,0c1.6-0.1,3.2-0.3,4.6-0.4c0.2,0,0.5-0.1,0.7-0.1
		c2.2-0.3,4.2-0.6,6.1-1c1-0.2,1.9-0.4,2.8-0.6c1.3-0.3,2.5-0.7,3.7-1c8.6-2.6,14.3-6.4,18.1-10c2-1.9,3.4-3.7,4.5-5.3
		c0,0.5,0,1.1,0,1.7C-587.6,64.8-589.1,78.1-597.5,87.9z"/>
	<g>
		<path d="M-411.6,10.5c-1.1-1.1-2.4-1.6-3.9-1.6l-86.6,0.6c-3,0.1-5.5,2.6-5.4,5.6l-0.4,63.7c0,0,0,0,0,0c0,0.2,0.1,0.4,0,0.6
			c0,2,0,6.2,3,8.8v8.9c0,0,0,0,0,0.1c0.1,1.3,1.2,3.9,5,3.9h6c0,0,0.1,0,0.2,0c0.7,0,2.4-0.1,3.9-1.7c1.8-1.9,2.4-5,1.9-9.3
			l45.4-0.1c0.1,0,0.2,0.1,0.4,0.1c0,0,0,0,0,0c0.1,0,0.3,0,0.4,0l12,0v7.1c0,0,0,0,0,0.1c0.1,1.3,1.2,3.9,5,3.9h6c0,0,0.1,0,0.1,0
			c0.6,0,3,0.2,4.6-1.5c2.3-2.4,2.4-7.2,1.6-13.5c0.7-1,1.2-2.2,1.3-3.7c0,0,0-0.1,0-0.1l1.5-67.6
			C-409.9,13.1-410.5,11.6-411.6,10.5z M-504.5,15.1c0-1.4,1.1-2.6,2.4-2.6l58-0.4l0,9.9h-60.5L-504.5,15.1z M-504.5,25h60.5l0.1,50
			h-60.9L-504.5,25z M-492.2,97.2c-0.8,0.9-1.7,0.8-1.8,0.8c0,0-0.1,0-0.1,0h-6c-1.6,0-2-0.7-2-1v-6.5l11,0
			C-490.7,93.6-491.1,96-492.2,97.2z M-494.8,87.2l-6.9-0.5c-2.9-1.2-3.1-4.3-3.1-7.2c0-0.2,0-0.5,0-0.7l0-0.8h61l0,8.9L-494.8,87.2
			z M-416.2,97.6c-0.8,0.9-2.8,0.5-2.8,0.5c0,0-0.1,0-0.1,0h-6c-1.6,0-2-0.7-2-1v-7l7,0c1.3-0.1,2.9-0.5,4.4-1.4
			C-415.2,93.9-415.4,96.6-416.2,97.6z M-414.5,82.1c-0.1,0.7-0.3,1.4-0.6,1.9c-1.3,2.2-4.1,2.8-5,2.9l-9.4,0l-11.4,0l-0.2-74.8
			l25.6-0.2c0.6,0,1.3,0.2,1.7,0.7c0.5,0.5,0.8,1.2,0.8,1.9L-414.5,82.1z"/>
		<path d="M-427.4,16.6c-6.3,0-11.5,5.2-11.5,11.5c0,6.3,5.2,11.5,11.5,11.5s11.5-5.2,11.5-11.5C-415.9,21.7-421,16.6-427.4,16.6z
			 M-427.4,36.6c-4.7,0-8.5-3.8-8.5-8.5c0-4.7,3.8-8.5,8.5-8.5s8.5,3.8,8.5,8.5C-418.9,32.7-422.7,36.6-427.4,36.6z"/>
		<path d="M-432.4,44.6c-2.5,0-4.5,2-4.5,4.5s2,4.5,4.5,4.5s4.5-2,4.5-4.5S-429.9,44.6-432.4,44.6z M-432.4,50.6
			c-0.8,0-1.5-0.7-1.5-1.5s0.7-1.5,1.5-1.5s1.5,0.7,1.5,1.5S-431.6,50.6-432.4,50.6z"/>
		<path d="M-422.4,44.6c-2.5,0-4.5,2-4.5,4.5s2,4.5,4.5,4.5s4.5-2,4.5-4.5S-419.9,44.6-422.4,44.6z M-422.4,50.6
			c-0.8,0-1.5-0.7-1.5-1.5s0.7-1.5,1.5-1.5s1.5,0.7,1.5,1.5S-421.6,50.6-422.4,50.6z"/>
		<path d="M-432.4,55.6c-2.5,0-4.5,2-4.5,4.5s2,4.5,4.5,4.5s4.5-2,4.5-4.5S-429.9,55.6-432.4,55.6z M-432.4,61.6
			c-0.8,0-1.5-0.7-1.5-1.5s0.7-1.5,1.5-1.5s1.5,0.7,1.5,1.5S-431.6,61.6-432.4,61.6z"/>
		<path d="M-422.4,55.6c-2.5,0-4.5,2-4.5,4.5s2,4.5,4.5,4.5s4.5-2,4.5-4.5S-419.9,55.6-422.4,55.6z M-422.4,61.6
			c-0.8,0-1.5-0.7-1.5-1.5s0.7-1.5,1.5-1.5s1.5,0.7,1.5,1.5S-421.6,61.6-422.4,61.6z"/>
		<path d="M-432.4,65.6c-2.5,0-4.5,2-4.5,4.5s2,4.5,4.5,4.5s4.5-2,4.5-4.5S-429.9,65.6-432.4,65.6z M-432.4,71.6
			c-0.8,0-1.5-0.7-1.5-1.5s0.7-1.5,1.5-1.5s1.5,0.7,1.5,1.5S-431.6,71.6-432.4,71.6z"/>
		<path d="M-422.4,65.6c-2.5,0-4.5,2-4.5,4.5s2,4.5,4.5,4.5s4.5-2,4.5-4.5S-419.9,65.6-422.4,65.6z M-422.4,71.6
			c-0.8,0-1.5-0.7-1.5-1.5s0.7-1.5,1.5-1.5s1.5,0.7,1.5,1.5S-421.6,71.6-422.4,71.6z"/>
	</g>
	<g>
		<path d="M-588.3-137c-2.5-2.5-5.7-3.3-7.8-3.5c-0.7-1.3-1.8-2.7-3.2-4.1c-9.1-9-26.8-10.5-40.1-10.1c-24.9,0.7-34.9,8.1-38.9,14
			c-1.2,0-6.1,0.2-9.6,3.8c-2.7,2.8-3.9,6.9-3.5,12.1c0.3,4.2,1.8,7.4,4.5,9.5c1.7,1.4,3.7,2,5.4,2.4l-0.1-2.7
			c-1.2-0.3-2.5-0.8-3.7-1.7c-2-1.6-3.2-4.2-3.5-7.6c-0.4-4.4,0.6-7.8,2.7-10c2-2,4.6-2.7,6.2-2.9c-0.5,1.2-0.8,2.3-1,3.1
			c-0.1,0.6-0.1,1-0.2,1.2c-0.3,0-0.7,0.1-1,0.1c-0.7,0.1-1.3,0.4-1.9,0.9c-1.5,1.1-2.2,3.1-2.2,5.8c0.1,2.6,0.9,4.6,2.4,5.9
			c0.6,0.5,1.3,0.9,2,1.1l0-0.1l0,0.1l0,0l0.1,4.2l0.1,2.7l0.2,11.1c0,0.3,0,6.6,7.2,9.9c9.7,4.4,17.3,6.4,39.1,6.8
			c1.6,0,3.1,0,4.5,0c16.9,0,24-2.2,29.3-5.5c1.8-1.1,7.2-4.5,7.2-14.2v-8.1c1-0.3,3.6-1.1,5.3-2.5c2.6-2.2,4-5.4,4.2-9.6
			C-584.3-130.3-585.6-134.3-588.3-137z M-682-122.9L-682-122.9c0-0.1,0-0.1-0.1-0.1c-0.9-0.8-1.4-2.1-1.4-3.9
			c0-1.2,0.2-2.9,1.1-3.7c0.1-0.1,0.3-0.3,0.4-0.3l0.2,8c0.1,0.1,0.1,0.1,0.2,0.2C-681.7-122.8-682-122.9-682-122.9z M-600.5-122
			c-5.6,6.9-17.3,10.5-33.9,10.5c-2.2,0-4.2,0-6.2-0.1c0.8-5.1-1.3-9.9-5.8-13.2c-4.8-3.5-11.2-4.6-14.9-2.6c-2,1.1-4.3,3.6-3.4,8.8
			c0.2,1.1,0.5,2.1,0.7,3c-6-2.2-9.4-5-11.5-7.5c-0.3-0.4-0.6-0.9-0.9-1.3c0.1-0.2,0.1-0.3,0.1-0.5c0-0.1-0.2-5.1,4.5-10.1
			c6.1-6.5,17.7-10,33.6-10.1c22.7-0.2,32.2,5.6,36.1,10.4c3.4,4.1,3.4,8.4,3,10.6C-599.5-123.4-599.9-122.7-600.5-122z
			 M-660.8-114.6c-0.6-1.4-3.5-8.2,0.7-10.6c2.8-1.5,8.2-0.5,12.1,2.4c2.2,1.6,5.8,5.2,4.7,11C-650.5-112.2-656.3-113.2-660.8-114.6
			z M-678.5-132.6c0-0.3,0.1-0.5,0.1-0.5c0-0.1,0-0.2,0-0.3c0-0.1,0-0.7,0.3-1.6c0.2-0.7,0.5-1.7,1.1-2.8c0.7-1.4,1.8-2.9,3.5-4.5
			c4.5-4.2,14-9.3,34.2-9.9c23-0.6,33.4,4.7,38.1,9.3c0.9,0.8,1.5,1.7,2.1,2.5c1.5,2.2,2,4,2.2,5.1c0.1,0.5,0.1,0.8,0.1,0.9
			c0,0.1-0.1,0.2-0.1,0.3c0,0.1,0,1.2,0,2.9v0.4c0,0,0.1,0,0.1,0c0,0.1,0,0.2,0,0.4c-0.5-1.9-1.5-3.9-3.1-5.9
			c-7.8-9.6-25.1-11.4-38.2-11.4c-16.9,0.1-28.8,3.8-35.5,10.9c-2.6,2.8-3.9,5.6-4.6,7.8c-0.2-0.8-0.2-1.5-0.2-2
			C-678.6-131.7-678.6-132.2-678.5-132.6z M-597-115.3v2.6v7.8c0,7.4-3.3,10.4-5.8,12c-5.3,3.3-12.7,5.5-32.2,5.1
			c-21.3-0.4-28.6-2.3-38-6.6c-5.7-2.6-5.7-7.3-5.7-7.5l-0.2-10.9l-0.1-2.6l0-1.7l0,0l0,1.7c0.1,0,0.2,0,0.2,0l-0.3-1.7l-0.1-4.9
			c0,0,0,0,0,0l0.2-1.8v0l-0.1,1.7c0.4,0,0.6,0,0.6,0c0.1,0,0.3,0,0.4,0c0,0,0,0,0,0c0.1,0.2,0.3,0.4,0.4,0.5
			c0.2,0.3,0.4,0.5,0.7,0.7c6.9,7.9,21.2,11.9,42.5,11.9c17.3,0,29.2-3.7,35.6-11c0.2-0.2,0.3-0.4,0.5-0.5c0.4-0.5,0.6-1,0.9-1.4
			c0.1,0,0.2-0.1,0.2-0.1c0,0,0.1,0,0.2,0v6.4V-115.3z M-594-130.7c0-0.2,0-0.4,0-0.5L-594-130.7c0,0.1,0.2,0.1,0.3,0.2
			c0.8,0.6,1.2,1.8,1.2,3.6c0,1.8-0.4,3.2-1.3,4c-0.1,0.1-0.1,0.1-0.1,0.1L-594-130.7C-594-130.7-594-130.7-594-130.7z
			 M-587.2-125.2c-0.2,3.5-1.2,6.1-3.2,7.7c-1.1,1-2.6,1.5-3.6,1.8v-4.2c0-0.2,1.2-0.6,1.9-1.1c1.5-1.3,2.3-3.4,2.2-6
			c0-2.7-0.7-4.6-2.3-5.7c-0.6-0.4-1.8-0.7-1.8-0.8v0.3c0-0.1,0-0.2,0-0.3c0-0.1,0-0.2,0-0.4v-0.6c0-0.2-0.1-0.3-0.2-0.5
			c0,0,0,0,0,0c0-0.5-0.2-1.5-0.6-2.7c1.5,0.4,3.2,1.1,4.7,2.5C-587.9-132.9-587-129.6-587.2-125.2z"/>
		<path d="M-647-142.3c-2.1,0-3.8,1.7-3.8,3.8c0,2.1,1.7,3.8,3.8,3.8c2.1,0,3.8-1.7,3.8-3.8C-643.2-140.6-644.9-142.3-647-142.3z
			 M-647-136.5c-1.1,0-2-0.9-2-2c0-1.1,0.9-2,2-2s2,0.9,2,2C-644.9-137.4-645.9-136.5-647-136.5z"/>
		<path d="M-621.4-137c-0.6-0.5-3.4-2.4-7-1.7c-3.5,0.7-6.6,3.5-9.2,8.3c-2.2,4-2.8,7.7-1.8,11c1.2,4.1,4.5,5.9,4.7,6
			c0.1,0,0.1,0.1,0.2,0.1c0.1,0.1,2.3,0.9,5.1,0.9c1.7,0,3.6-0.3,5.4-1.3c2.8-1.5,4.6-4.2,5.5-8.1C-616-133.3-620.4-136.5-621.4-137
			z M-621.1-122.5c-0.7,3.1-2.1,5.3-4.2,6.4c-3.4,1.8-7.6,0.5-8.3,0.3c-0.4-0.3-2.5-1.7-3.3-4.4c-0.8-2.6-0.2-5.6,1.6-9
			c2.2-4.1,4.7-6.4,7.3-7c2.8-0.6,4.9,1.1,5,1.2c0.1,0.1,0.2,0.1,0.3,0.2C-622.7-134.7-618.8-132.7-621.1-122.5z"/>
		<path d="M-667-133c-1.4,0-2.5,1.1-2.5,2.5c0,1.4,1.1,2.5,2.5,2.5c1.4,0,2.5-1.1,2.5-2.5C-664.5-131.9-665.6-133-667-133z
			 M-667-129.8c-0.4,0-0.7-0.3-0.7-0.7c0-0.4,0.3-0.7,0.7-0.7c0.4,0,0.7,0.3,0.7,0.7C-666.3-130.1-666.6-129.8-667-129.8z"/>
		<path d="M-609.2-125.1c-1.4,0-2.5,1.1-2.5,2.5s1.1,2.5,2.5,2.5c1.4,0,2.5-1.1,2.5-2.5S-607.8-125.1-609.2-125.1z M-609.2-121.9
			c-0.4,0-0.7-0.3-0.7-0.7s0.3-0.7,0.7-0.7s0.7,0.3,0.7,0.7S-608.8-121.9-609.2-121.9z"/>
	</g>
	<g>
		<path d="M-815.9,43.7c2.3,0.3,4.4-1,5.3-3.3c0.3-0.9,1.5-2.2,3.1-2.5c1.4-0.2,2.9,0.5,4.4,2.2c0.1,0.1,0.3,0.6,0.4,1
			c0.4,1.3,1.2,3.7,4.2,3.8c0.5,0,1.1,0,1.8-0.2c2.3-0.5,3.7-2.8,3.4-5.6c-0.4-4.4-4.5-9.1-12.8-9.7c-4.9-0.3-8.9,0.9-11.4,3.4
			c-1.8,1.8-2.6,4.1-2.4,6.5C-819.9,41.6-818.2,43.4-815.9,43.7z M-815.7,34.7c2-2,5.3-2.9,9.3-2.6c7.7,0.6,10.1,4.8,10.3,7.3
			c0.1,1.2-0.3,2.5-1.4,2.8c-2.1,0.5-2.3-0.2-2.9-1.8c-0.2-0.7-0.5-1.4-0.9-1.9c-2.1-2.4-4.1-3.2-5.7-3.2c-0.4,0-0.8,0-1.2,0.1
			c-2.6,0.4-4.5,2.5-5.1,4.2c-0.7,1.7-2,1.7-2.4,1.6c-0.8-0.1-1.7-0.8-1.8-2C-817.5,37.5-816.9,35.9-815.7,34.7z"/>
		<path d="M-844.8,29.5c2.3-0.1,3.3-1.2,3.8-2c0.6-1.1,0.6-2.3,0.4-3.4c1.6,0.5,3.7,0.7,5.5,0c1.1-0.5,2.5-1.5,3.2-3.9
			c0.7-2.3,0.4-4.2-0.7-5.4c-0.2-0.2-0.3-0.3-0.5-0.5c1.4-0.9,2.6-2.3,3-3.8c0.6-1.8,0.4-4.6-3.7-7.6c-2.6-1.9-5-2.5-7.2-1.7
			c-1.6,0.6-2.6,1.8-3.4,3c-1-1.5-2.6-2.7-4.5-3.2c-1.9-0.5-5.7-0.6-9.7,4.6c-1.4,1.9-1.9,3.7-1.3,5.6c0.6,1.8,2.1,3.2,3.6,4.2
			c-1.5,0.8-2.8,2.2-3.4,3.8c-0.9,2.4-0.3,4.9,1.7,6.6c1.7,1.5,3.3,1.6,4.3,1.5c1.1-0.2,2-0.7,2.8-1.2c0.3,0.7,0.7,1.4,1.3,2
			c1,1,2.4,1.5,4,1.6C-845.3,29.5-845,29.5-844.8,29.5z M-848.7,23.2c0-0.6-0.4-1.1-0.9-1.3c-0.1,0-0.2-0.1-0.4-0.1
			c-0.5,0-0.9,0.2-1.2,0.6c-0.3,0.5-1.5,1.9-2.8,2.1c-0.7,0.1-1.4-0.2-2.1-0.8c-1.5-1.4-1.2-2.9-0.9-3.6c0.6-1.6,2.4-3.1,4.7-3
			c0.7,0,1.2-0.5,1.4-1.1c0.1-0.7-0.3-1.3-0.9-1.5c-1.2-0.4-4.6-1.9-5.3-4.1c-0.3-0.9,0-2,0.9-3.1c2.3-3,4.6-4.2,6.9-3.7
			c2.1,0.6,3.6,2.7,3.9,4.3c0.1,0.6,0.6,1.1,1.3,1.2c0.7,0,1.2-0.4,1.4-1c0,0,0.8-3.5,3-4.3c1.2-0.5,2.8,0,4.6,1.3
			c2.2,1.6,3.1,3.2,2.7,4.6c-0.6,1.9-3.2,3.3-4.6,3.5c-0.2,0-0.4,0-0.5,0.1c-0.7,0.1-1.2,0.7-1.1,1.5c0.1,0.7,0.7,1.2,1.4,1.2
			c0.2,0,0.3,0,0.5,0c0.7,0,1.8,0,2.4,0.7c0.6,0.7,0.4,2,0.1,2.9c-0.3,1.1-0.8,1.8-1.6,2.1c-1.9,0.8-5.1-0.4-6.1-1
			c-0.5-0.3-1.2-0.2-1.6,0.2c-0.4,0.4-0.5,1.1-0.2,1.6c0.4,0.8,1.2,2.9,0.7,3.8c-0.2,0.4-0.8,0.6-1.6,0.6c-1.2,0.1-2.1-0.2-2.7-0.8
			C-848.7,25-848.7,23.2-848.7,23.2z"/>
		<path d="M-845.9,53.7c0.6,0.8,1.2,1.7,1.9,2.4C-844.6,55.4-845.1,54.6-845.9,53.7z"/>
		<path d="M-768.4,44.9L-768.4,44.9c0,0.1,0,0.1,0,0.2L-768.4,44.9z"/>
		<path d="M-768.3,46.7c0-0.5,0-1.1-0.1-1.6l-0.1,3.4C-768.4,47.9-768.3,47.3-768.3,46.7z"/>
		<path d="M-843.9,56.2C-843.9,56.2-843.9,56.2-843.9,56.2C-843.9,56.2-843.9,56.2-843.9,56.2C-843.9,56.2-843.9,56.2-843.9,56.2z"
			/>
		<path d="M-758.2,26.8c0.6-1.8,0.4-4.6-3.7-7.6c-2.6-1.9-5-2.5-7.2-1.7c-1.6,0.6-2.6,1.8-3.4,3c-1-1.5-2.6-2.7-4.5-3.2
			c-1.9-0.5-5.7-0.6-9.7,4.6c-0.8,1-1.3,2.1-1.4,3.1c-0.1,0.4-0.1,0.8-0.1,1.2c0-0.4,0-0.8,0.1-1.2c-10.8-3.3-22.2-3.3-22.9-3.2
			c0,0-0.1,0-0.1,0c-4.5,0-22,0-31.5,8.8c-3.4,3.2-5.4,7.4-5.8,11.4h0c0,1,0,0,0,0h0l-0.1,0.4l0,1.3l-0.1,1c0,0.3,0,0.7,0,1.1l0,0.2
			c0,0,0,0.1,0,0.1l-0.4,25.1c-0.1,0.3-0.1,0.5,0,0.8l-0.3,17.6c0,0-0.1,4,2.2,6.3c2.5,2.5,8.7,12.5,37.3,13.3c0.4,0,0.9,0,1.3,0
			c29.8,0.6,36.6-9.8,36.6-9.8s2.5-2.9,2.6-7.8l0.7-43.1l0.1-3.4c0-0.1,0-0.1,0-0.2c-0.1-0.8-0.2-1.5-0.3-2.2c-0.2-1-0.5-2.1-0.8-3
			c0.4,1,0.6,2,0.8,3c0.1-0.7,0.1-1.5-0.1-2.2c1.6,0.5,3.7,0.7,5.5,0c1.1-0.5,2.5-1.5,3.2-3.9c0.7-2.3,0.4-4.2-0.7-5.4
			c-0.2-0.2-0.3-0.3-0.5-0.5C-759.9,29.7-758.7,28.4-758.2,26.8z M-845.8,43.9c0-0.5,0-0.9,0.1-1.9h0c0.4-3,2.1-6.5,5-9.2
			c9.6-9,29.6-8,30.6-8c0,0,0,0.1,0,0.1c0.1,0-0.1,0,0,0c3.3,0.1,13.1,0.5,22.1,3.4v0c1,1.5,2.2,2.6,3.5,3.4
			c-1.5,0.8-2.6,2.2-3.3,3.8c-0.9,2.4-0.3,4.9,1.7,6.6c1.7,1.5,3.3,1.6,4.3,1.5c1.1-0.2,2-0.7,2.8-1.2c0.3,0.7,0.7,1.4,1.3,2
			c1,1,2.4,1.5,4,1.6c0.2,0,0.5,0,0.7,0c0.8,0,1.4-0.2,1.9-0.4c0.1,0.4,0.1,0.6,0.1,1c0,0.5-0.1,1.5-0.1,1.5h-0.1v0.3
			c0,3.1-1.8,5.8-4.2,8.1c-8.6,8-27.5,8.1-33.3,8c-0.2-0.1-0.4-0.3-0.6-0.3c0,0,0,0,0,0c-0.2,0-23.3-0.1-32.7-9.9
			c-2.4-2.5-3.7-5.4-3.9-9C-845.8,45.1-845.8,44.3-845.8,43.9z M-809.1,106.4l0-0.2l-0.4,0c-24.9-0.7-31.7-8.2-34.6-11.4
			c-0.3-0.4-0.6-0.6-0.9-0.9c-1.2-1.2-1.4-3.5-1.4-4.3l0-1.8l0.2-12.4c4.3,4.1,14.8,11.1,38.1,11.7c22.7,0.7,32.6-6.7,36.6-11.4
			l-0.3,15.9c-0.1,3.8-1.9,6.1-2,6.2l-0.1,0.1l-0.1,0.2c-0.2,0.2-1.9,2.4-6.6,4.4c-4.7,2.1-13.2,4.4-27.6,4.2
			C-808.6,106.5-809.1,106.4-809.1,106.4z M-846.2,75.3C-846.2,75.3-846.2,75.3-846.2,75.3l-0.2,11.5L-846.2,75.3z M-845.9,53.4
			c0.7,0.8,1.2,1.8,1.9,2.6c0,0,0,0.1,0.1,0.2c0,0,0,0.1,0.1,0.1c9.2,9.5,29.1,10.7,33.7,10.8c0.3,0,0.7,0,1.3,0.1
			c3.7,0.1,12.8,0.1,21.5-2.1c5.2-1.3,10.3-3.4,13.9-6.7c0.8-0.7,1.3-1.5,2.2-2.3l0-0.2l0,0.2l-0.2,14.5c0,0.1-0.1,0.2-0.1,0.3
			c0,0-1.4,3.6-6.5,7.1c-4.8,3.2-13.8,7-30,6.5c-27.9-0.8-36.6-11-38.1-13l0.3-17.7C-845.9,53.7-845.9,53.4-845.9,53.4
			c0,0-0.1-0.4-0.1-0.4h0v0.7l-0.2,17.7c0,0,0,0,0,0L-845.9,53.4c-0.1-0.1,0-0.4,0-0.4h0C-845.9,53-845.9,53.4-845.9,53.4z
			 M-848.4,44.9c0,0.4,0,0.8,0,1.2c0-0.3,0-0.7,0-1L-848.4,44.9z M-845.9,53.7c0,0-0.1-0.1-0.1-0.1l0-0.1
			C-846,53.5-845.9,53.6-845.9,53.7z M-848.4,44L-848.4,44C-848.4,44-848.4,44-848.4,44l0,0.8c0,0,0,0,0,0L-848.4,44
			c0,0.1,0,0.2,0,0.3c0,0,0,0,0,0C-848.4,44.2-848.4,44.2-848.4,44z M-846,53.5c-1.6-2-2.1-4.1-2.3-6.4
			C-848.1,49.4-847.6,51.6-846,53.5z M-773.7,97.7l-0.1,0.1l-0.1,0.2c-0.2,0.2-1.9,2.4-6.6,4.4c-4.7,2.1-13.1,4.5-27.5,4.2
			c0,0-0.1,0-0.1,0c14.3,0.3,22.9-2.1,27.6-4.2c4.7-2.1,6.5-4.2,6.6-4.4l0.1-0.2L-773.7,97.7c0.1-0.1,1.9-2.3,2-6.2
			C-771.8,95.4-773.7,97.6-773.7,97.7z M-760.8,26c-0.6,1.9-3.2,3.3-4.6,3.6c-0.2,0-0.4,0-0.5,0.1c-0.7,0.1-1.2,0.8-1.1,1.5
			c0.1,0.7,0.7,1.2,1.4,1.2c0.2,0,0.3,0,0.5,0c0.7,0,1.8,0,2.4,0.7c0.6,0.7,0.4,2,0.1,2.9c-0.3,1.1-0.8,1.8-1.6,2.1
			c-1.9,0.8-5.1-0.4-6.1-1c-0.1-0.1-0.3-0.1-0.4-0.1c-0.4-0.1-0.8,0.1-1.1,0.4c-0.4,0.4-0.5,1.1-0.2,1.6c0.4,0.8,1.2,2.8,0.7,3.7
			c0,0,0,0,0,0c-0.2,0.4-0.8,0.6-1.6,0.6c-1.2,0.1-2.1-0.2-2.7-0.8c-1.1-1.1-1.1-2.9-1.1-2.9c0-0.6-0.4-1.1-0.9-1.3
			c-0.1,0-0.2-0.1-0.4-0.1c-0.5,0-0.9,0.2-1.2,0.6c-0.3,0.5-1.5,1.9-2.8,2.1c-0.7,0.1-1.4-0.2-2.1-0.8c-1.5-1.4-1.2-2.9-0.9-3.6
			c0.6-1.6,2.4-3.1,4.7-3c0.7,0,1.2-0.5,1.4-1.1c0-0.1,0-0.1,0-0.2c0-0.6-0.3-1.1-0.9-1.3c-1.2-0.4-4.6-2-5.3-4.1
			c-0.1-0.3-0.1-0.5-0.1-0.8c0-0.7,0.3-1.5,1-2.4c2.3-3,4.6-4.3,6.9-3.7c2.1,0.6,3.6,2.5,3.9,4.2c0.1,0.6,0.6,1,1.3,1c0,0,0,0,0,0
			c0.6,0,1.2-0.2,1.3-0.9c0,0,0.8-3.3,3-4.1c1.2-0.5,2.8,0,4.6,1.4C-761.2,23-760.4,24.5-760.8,26z"/>
	</g>
	<path d="M-592.9-535.4c-7.2-16.8-21.6-17.2-28.2-15.1c-0.7,0.2-7.4,2.3-11.3,9.3c-3.4,6.2-3.7,14.2-0.7,23.8
		c2.8,9.1,7.4,15.2,13.7,18.1c4.6,2.1,9,2,12.2,1.5c2.4-0.4,4.1-1,4.5-1.2c1-0.3,8.1-2.9,11.7-10.6
		C-587.8-516.5-588.5-525.2-592.9-535.4z M-617.7-502.9c-5.2-2.4-9-7.6-11.5-15.6c-2.6-8.5-2.5-15.5,0.3-20.7c2.2-4,5.5-6,7.4-6.9
		l15.6,43.9C-608.4-501.5-613-500.8-617.7-502.9z M-594.6-511.4c-2,4.4-5.5,6.7-7.6,7.8l-15.5-43.6c4.6-0.6,15.1-0.4,21.1,13.4
		C-592.6-524.7-592-517.2-594.6-511.4z"/>
	<path d="M-643.3-516.6c7.3-16.7-2.1-27.5-8.2-30.9c-0.7-0.4-6.7-3.9-14.5-1.9c-6.9,1.7-12.9,7-17.9,15.8
		c-4.7,8.3-6.1,15.8-3.9,22.3c1.6,4.8,4.7,8,7.3,10c1.9,1.5,3.5,2.3,4,2.5c0.9,0.5,7.7,3.9,15.7,1.3
		C-653.6-500-647.7-506.4-643.3-516.6z M-684-512.6c-1.8-5.4-0.6-11.8,3.6-19.1c4.4-7.7,9.6-12.4,15.3-13.8
		c4.4-1.1,8.1-0.1,10.1,0.7l-21.5,41.3C-678.6-504.8-682.3-507.7-684-512.6z M-662-501.5c-4.5,1.5-8.6,0.6-10.9-0.2l21.3-41
		c3.6,2.9,10.6,10.8,4.6,24.5C-650.9-509.1-656-503.5-662-501.5z"/>
	<path d="M-619.6-476c2.7-18.1-9.3-26-16-27.7c-0.7-0.2-7.5-2-14.5,1.9c-6.2,3.5-10.6,10.2-13.2,19.9c-2.4,9.2-1.7,16.8,2.1,22.6
		c2.8,4.2,6.6,6.5,9.6,7.7c2.2,0.9,4,1.3,4.5,1.3c1,0.2,8.4,1.8,15.5-2.9C-625.2-457.3-621.2-465-619.6-476z M-657.8-461.5
		c-3.1-4.7-3.7-11.2-1.6-19.3c2.2-8.6,6-14.5,11.2-17.4c3.9-2.2,7.8-2.2,9.9-1.9l-9.9,45.5C-650.6-455.4-655-457.2-657.8-461.5z
		 M-633.7-456.5c-4,2.7-8.2,2.8-10.6,2.6l9.8-45.2c4.3,1.9,13.1,7.6,10.9,22.5C-625-466.8-628.4-460-633.7-456.5z"/>
	<g>
		<g>
			<path d="M-635.9-642.2c-0.5,0-0.9-0.2-1.3-0.5c-2.9-2.5-5.1-5.4-6.4-8.7c-2.5-6.4-1.8-13.7,2.2-21.7c4.3-8.7,9.9-14.3,16.5-16.5
				c4.8-1.6,9.1-1.1,11.9-0.3c0.2,0,0.3,0,0.5,0.1c0,0,0.3,0.1,0.6,0.2c0.3,0.1,0.6,0.2,0.8,0.3c0.5,0.2,0.9,0.7,1.1,1.2
				c0.2,0.5,0.1,1.1-0.1,1.6l-24.1,43.2c-0.3,0.5-0.8,0.9-1.4,1C-635.7-642.2-635.8-642.2-635.9-642.2z M-618.5-686.7
				c-1.5,0-3.3,0.2-5.1,0.8c-5.6,1.9-10.4,6.7-14.2,14.5c-3.4,7-4.1,13.2-2,18.5c0.8,2,1.9,3.8,3.4,5.4l21.7-38.8
				C-615.8-686.5-617.1-686.7-618.5-686.7z"/>
			<path d="M-622.9-637.3c-3,0-5.7-0.6-7.4-1.2c-0.1,0-0.2-0.1-0.3-0.1c0,0-0.2-0.1-0.3-0.1c-1.3-0.5-2.2-0.9-2.3-1
				c-0.3-0.1-0.5-0.3-0.7-0.6c-0.8-0.6-1-1.7-0.5-2.6l24.2-43.3c0.3-0.5,0.8-0.9,1.3-1c0.6-0.1,1.2,0,1.6,0.4
				c2.7,2.1,4.8,4.7,6.3,7.7l0,0c3.1,6.4,3,14.1-0.1,23.1c-3.2,9-8.1,14.9-14.6,17.4C-617.9-637.7-620.3-637.3-622.9-637.3z
				 M-629.4-642.4c0,0,0.1,0,0.1,0c1.5,0.5,3.7,1.1,6.4,1.1c2,0,4-0.4,5.8-1.1c5.4-2.1,9.5-7.1,12.2-15c2.8-7.9,2.9-14.6,0.3-20
				c0,0,0,0,0,0c-0.8-1.8-2-3.3-3.4-4.7l-22,39.4c0.1,0.1,0.3,0.1,0.4,0.2C-629.5-642.5-629.4-642.4-629.4-642.4L-629.4-642.4z"/>
		</g>
		<g>
			<path d="M-571.2-632.7c-0.1,0-0.2,0-0.3,0c-3.8-0.5-7.2-1.9-10-4c-5.5-4-8.8-10.6-9.8-19.5c-1-9.7,0.7-17.4,5.2-22.8
				c3.2-3.9,7.1-5.7,9.9-6.6c0.1-0.1,0.3-0.1,0.4-0.2c0.1,0,0.3-0.1,0.6-0.1c0.4-0.1,0.6-0.1,0.9-0.2c0.6-0.1,1.1,0.1,1.6,0.4
				c0.4,0.4,0.7,0.9,0.8,1.5l2.7,49.4c0,0.6-0.2,1.2-0.6,1.6C-570.2-632.9-570.7-632.7-571.2-632.7z M-575.8-681.6
				c-2.2,0.7-4.9,2.2-7.3,5.1c-3.8,4.6-5.2,11.3-4.3,19.8c0.8,7.7,3.6,13.3,8.1,16.7c1.7,1.3,3.7,2.2,5.8,2.8L-575.8-681.6z"/>
			<path d="M-566.7-632.4c-0.2,0-0.5,0-0.7-0.1c-1-0.1-1.8-0.9-1.8-1.9l-2.7-49.5c0-0.6,0.2-1.1,0.6-1.6c0.4-0.4,1-0.6,1.6-0.5
				c3.4,0.3,6.6,1.4,9.4,3.2c6,3.7,10.1,10.3,12.2,19.5c2.1,9.3,1.1,16.9-3,22.5c-1.5,2-3.3,3.6-5.4,5c-2.6,1.6-5.1,2.5-6.9,2.9
				c-0.1,0-0.2,0.1-0.3,0.1c0,0-0.2,0-0.3,0.1c-1.4,0.3-2.3,0.4-2.5,0.4C-566.6-632.4-566.6-632.4-566.7-632.4z M-567.8-681.7
				l2.4,45.1c0.1,0,0.3-0.1,0.5-0.1c0,0,0.1,0,0.1,0l0.1,0c0,0,0.1,0,0.1,0c1.5-0.4,3.7-1.1,6-2.5c1.7-1.1,3.2-2.4,4.3-4
				c3.4-4.6,4.2-11.1,2.3-19.2c-1.9-8.2-5.4-13.9-10.5-17h0C-564-680.5-565.8-681.3-567.8-681.7z"/>
		</g>
		<g>
			<path d="M-611-596.5c-0.4,0-0.7-0.1-1-0.3c-3-1.8-5.3-4.1-7-6.9c-3.2-5.3-3.6-12-1.3-19.7c2.5-8.4,6.7-14.2,12.3-17.2
				c4.1-2.2,7.9-2.3,10.6-2c0.1,0,0.3,0,0.4,0c0,0,0.3,0,0.6,0.1c0.3,0.1,0.6,0.1,0.8,0.2c0.6,0.1,1,0.5,1.3,1
				c0.3,0.5,0.3,1.1,0.1,1.6l-15,41.8c-0.2,0.6-0.6,1-1.2,1.2C-610.5-596.6-610.7-596.5-611-596.5z M-599.4-638.7
				c-1.9,0-4.2,0.4-6.7,1.7c-4.7,2.5-8.1,7.4-10.4,14.8c-2,6.6-1.7,12.2,0.9,16.5c0.9,1.5,2.1,2.9,3.6,4.1l13.3-37
				C-598.9-638.7-599.2-638.7-599.4-638.7z"/>
			<path d="M-601.7-593.8c-1.3,0-2.5-0.1-3.4-0.3c-0.1,0-0.2,0-0.3,0l-0.3-0.1c-1.3-0.2-2.1-0.5-2.2-0.6c-0.3-0.1-0.5-0.2-0.7-0.4
				c-0.8-0.5-1.2-1.5-0.9-2.4l15-41.9c0.2-0.5,0.6-1,1.2-1.2c0.5-0.2,1.2-0.2,1.7,0.1c2.7,1.5,5,3.5,6.8,6l0,0
				c3.7,5.2,4.8,12.2,3.3,20.6c-1.5,8.5-5,14.5-10.4,17.7c-1.9,1.1-4,1.9-6.3,2.3C-599.5-593.9-600.7-593.8-601.7-593.8z
				 M-604.8-598.1c0,0,0.1,0,0.1,0c1.3,0.2,3.4,0.4,5.7,0c1.8-0.3,3.4-0.9,4.9-1.8c4.4-2.6,7.3-7.6,8.5-14.9
				c1.3-7.3,0.4-13.3-2.7-17.6v0c-0.9-1.3-2.1-2.5-3.4-3.5l-13.5,37.7c0.1,0,0.1,0,0.2,0C-604.9-598.1-604.9-598.1-604.8-598.1
				L-604.8-598.1z"/>
		</g>
	</g>
</g>
<g id="レイヤー_2">
	<g>
		<path d="M-67.5-497c0-0.6,0-1.2,0-1.8c0-47.1-33.2-54.6-42.8-55.8c-0.3-0.1-0.6-0.2-0.9-0.2c0,0-0.3-0.1-0.8-0.1
			c-0.5,0-0.8-0.1-0.8-0.1c0,0,0,0,0,0c-0.3,0-0.6,0.2-0.9,0.3c-8.9,1.1-38.2,7.7-42.3,46.5c-0.2,1.4-0.3,2.9-0.3,4.5
			c-0.1,1.6-0.1,3.2-0.1,4.9c0,17.9,5,31.3,14.8,39.8c9.8,8.5,21.8,9.8,28.4,9.8c0.5,0,0.9,0,1.3,0c0.4,0,0.8,0,1.3,0
			c6.7,0,18.7-1.4,28.4-9.8c8.2-7.1,13-17.7,14.4-31.5l0,0C-67.7-491.8-67.5-494.2-67.5-497z M-112-550.8
			c6.1,0.4,40.5,4.8,40.5,51.9l0,0c0,0.1,0,0.1-0.1,0.2l-0.3-0.2L-84-509.6c-0.8-0.7-1.8-0.7-2.5,0.1l-14,13.4l-15.3-12.8
			c-0.8-0.6-1.9-0.6-2.6,0l-15.6,13.7l-18.1-10.6C-149-546.4-117.8-550.4-112-550.8z M-84.8-462c-7.5,6.5-16.6,8.3-22.9,8.7
			c-0.3-0.1-0.7-0.2-1-0.1c0,0-1.2,0.2-3.2,0.2c-2,0-3.2-0.2-3.2-0.2c-0.4,0-0.7,0-1,0.1c-6.3-0.4-15.5-2.2-22.9-8.7
			c-8.9-7.7-13.3-20.1-13.3-36.8c0-0.9,0-1.7,0-2.6l17.6,10.3c0.7,0.4,1.7,0.3,2.3-0.2l15.4-13.5l15.4,12.9c0.8,0.7,1.9,0.6,2.7-0.1
			l14-13.4l13.3,11.7l0.2,0.1C-72.5-479.5-76.9-468.9-84.8-462z"/>
	</g>
</g>
<g id="レイヤー_3">
	<g>
		<path d="M103.8-501.1c1.8-0.9,3.8-2.3,5.5-4.7c2.9-4.2,3.6-9.9,2.1-17c-0.1-0.6-0.5-1.1-1-1.3c-0.3-0.2-7.2-3.8-14-0.7
			c-4.2,1.9-7.3,5.9-9.2,11.9c-3-1.7-8.6-4.7-15.8-7.4c-9.8-3.6-24.4-7.2-37.9-3.5c-11.7,3.2-20.9,11.1-27.3,23.5
			c-0.2,0.5-0.3,1-0.1,1.4c-0.2,0.7,0,1.4,0.5,1.9C20.2-483,35.4-478,48.4-478c4.7,0,9.1-0.5,13-1.3c12.4-2.4,21.9-7.5,25.8-9.7
			c9.6,15.8,21,9.8,21.2,9.8c0.5-0.3,0.9-0.8,1-1.3c1.5-7.1,0.8-12.8-2.1-17C106.2-499.1,105-500.2,103.8-501.1z M105.6-482.5
			c-2.3,0.7-9.4,1.7-16-10.3c-0.3-0.5-0.7-0.8-1.3-1c-0.5-0.1-1.1,0-1.6,0.3c-0.1,0.1-11.2,7.4-26.3,10.3
			c-19.7,3.8-36.6-2.1-50.5-15.8c5.8-11,14-18.1,24.4-20.9c12.5-3.4,26.2,0,35.4,3.4c10.1,3.7,17.4,8.4,17.4,8.4
			c0.5,0.4,1.2,0.4,1.8,0.2c0.6-0.2,1-0.8,1.2-1.4c1.5-6.2,4-10.1,7.6-11.8c3.8-1.7,7.9-0.5,9.7,0.2c1,5.5,0.5,9.8-1.6,12.8
			c-2.5,3.6-6.4,4.3-6.4,4.3c-0.3,0.1-0.6,0.2-0.9,0.4c-0.3-0.1-0.5-0.1-0.5-0.1c-1.1-0.2-2.1,0.6-2.3,1.7s0.6,2.1,1.7,2.3
			c0,0,3.9,0.7,6.4,4.2C106.1-492.2,106.6-487.9,105.6-482.5z"/>
		<circle cx="30.9" cy="-503.3" r="4.5"/>
	</g>
</g>
<g id="レイヤー_4">
	<path d="M-420.9-498.8c-0.8-0.8-2.8-1.3-4.1-1.2h-31.4c0.8-4,1.9-9.3,1.5-15.1l27.6-0.5c0.5,0,2.3,0,3.4-0.8
		c2.5-1.7,2.7-3.8,2.3-5.7c-0.7-2.9-3.8-4-4.5-4.1c-0.2,0-1.8,0-2,0l-29.6,1.3c-0.3-0.6-0.7-1.1-1.1-1.6c-2.3-2.9-6.8-1.2-8.7-0.2
		c-0.3-0.4-0.7-0.8-1-1.2c-2.2-2.2-5.7-0.9-7.7,0.3c-0.1-0.1-0.2-0.2-0.3-0.3c-0.8-0.8-1.6-1.2-2.6-1.3l50.1-14.9
		c1-0.3,1-0.5,1.4-0.8c2.1-1.6,1.7-4.7,0.8-6.5c-1.4-2.6-4.5-2.8-5.5-2.6c-0.2,0-0.4,0-0.6,0.1l-76.7,25.5c-0.2,0.1-0.4,0.2-0.6,0.3
		c-0.8,0.6-3.2,2.4-2.6,4.8c0.3,1.1,1.1,1.8,2,2.2c-0.6,0.6-1.2,1.4-1.2,2.4c0,3,2.5,4,3,4.2c0.3,0.1,1.2,0.5,1.8,0.5
		c0,0,16.1-0.2,16.1-0.2c0.6,3.3,0.8,7.2,0.3,14.2h-25.7c-3.2,0-4.5,0.5-5.2,1.4c-0.9,1-1,1.6-1,4.4c0,0.6,0.1,1.3,0.2,2.2
		c0.9,8,2.7,29,27.7,33.3c0,0,0,2.8,0,3.8c0,0.7,0.2,1.2,0.3,1.4c0.6,2,3.6,5.6,7.7,5.6h32.4c4.2,0,5.1-3.6,5.6-5.6
		c0-0.1,0.1-1.3,0.1-1.4v-3.8c26-4.3,28-25.4,28.9-33.5c0.1-0.9,0.2-1.4,0.3-2C-419.4-497.1-420.1-497.9-420.9-498.8z M-427.2-522.2
		c0.8,0,1.7-0.2,1.8,0.9c0.1,1.5-0.7,1.5-1.2,1.6l-29,0.4c-0.1-0.5-0.3-1.1-0.4-1.6L-427.2-522.2z M-464.1-524.8
		c0.8-0.7,2-0.7,2.8,0.1c0.6,0.6,5.7,6.6,1.1,23.4c-0.2,0.9-1,1.5-1.9,1.5c-0.2,0-0.4,0-0.5-0.1c-1.1-0.3-1.7-1.4-1.4-2.5
		c4.1-14.6-0.1-19.6-0.1-19.6C-464.9-522.8-464.9-524-464.1-524.8z M-473.9-526.1c0.7-0.8,2-0.9,2.8-0.1c0.3,0.3,7.7,7.2,3.6,24.8
		c-0.2,0.9-1,1.5-1.9,1.5c-0.2,0-0.3,0-0.5-0.1c-1.1-0.3-1.7-1.3-1.5-2.4c3.6-15-2.2-20.7-2.4-20.9
		C-474.6-524-474.6-525.3-473.9-526.1z M-475.5-500.5c-0.3,0.8-1.1,1.4-1.9,1.4c-0.2,0-0.4,0-0.6-0.1c-1.1-0.3-1.6-1.5-1.3-2.5
		c4.8-14.8-3.4-22-3.7-22.3c-0.8-0.7-1-2-0.2-2.8c0.7-0.8,2-1,2.8-0.3C-480-526.8-469.8-518.1-475.5-500.5z M-508.1-524.8L-432-550
		c1.1-0.4,1.7,0.3,1.8,0.5c0,0.1,0.7,1.3-0.7,1.7L-508.1-524.8C-508.1-524.8-508.1-524.8-508.1-524.8z M-494.8-523.3l-5,0.2l4.2-1.2
		C-495.5-523.9-495.2-523.6-494.8-523.3z M-508.3-518.5c0.2-0.4,14.1-1.7,14.1-1.7s0.2,0,0.5,1
		C-493.6-519.2-508.5-518.1-508.3-518.5z M-491-522.2c-0.8-0.7-0.9-2-0.1-2.8c0.7-0.8,2-0.9,2.8-0.1c0.3,0.3,8.3,7.9,4.4,25.1
		c-0.2,0.9-1,1.6-1.9,1.6c-0.1,0-0.3,0-0.4,0c-1.1-0.2-1.8-1.3-1.5-2.4C-484.4-515.9-491-522.1-491-522.2z M-423.4-495
		c0,0.7-0.1,1.4-0.2,2.3c-0.9,8.1-3.5,27-27.2,30.2c-1,0.1-2.2,1-2.2,2v5.2c0,0.6,0.2,3.3-1.6,3.3H-487c-1.8,0-3-2.2-3.6-3.2
		c-0.6-1.1-0.4-5.2-0.4-5.2c0-1-0.2-1.8-1.2-2c-23.6-3.2-25.3-21.4-26.2-30.1c-0.1-1-0.2-1.3-0.2-2c0-0.8,0-0.9,0-1
		c0.2-0.3,0.2-0.4,0.6-0.4c0.2,0,0.7,0,1,0h57.9h0.1h33.5c0.2,0,0.9,0,1.3,0c0.1,0,0.3,0,0.5,0.1
		C-423.4-495.7-423.3-495.8-423.4-495z"/>
</g>
<g id="レイヤー_5">
	<path d="M266.5-517.3c-9.7-17.6-26.3-18.5-36-17.3c0-2.9,0-6-0.2-8.8c0-0.2-0.1-0.4-0.1-0.6c-0.1-0.3-1.3-3.3-4.5-4.2
		c-0.3-0.1-3.1-0.9-5.6,0.6c-1.1,0.7-2.6,2.2-3.1,5.2c0,0.1,0,0.2,0,0.3v7.6c-9-0.8-23.9,0.9-33.2,17.2c-8.2,14.2-4.6,37.8,7.8,51.4
		c6.1,6.8,13.7,10.2,21.7,10.2c3.9,0,7.9-0.8,11.9-2.5c4.2,1.8,8.4,2.7,12.4,2.7c7.7,0,14.8-3.3,20.7-9.7
		C270.9-478.6,274.6-502.5,266.5-517.3z M221-530v-4v-7.9c0.1-1.5,0.6-1.9,1.2-2.3c0.8-0.5,1.9-0.3,2.3-0.2c1,0.3,1.6,0.4,1.8,1.6
		c0.1,3,0.2,6.2,0.1,9c0,1.6-0.1,3-0.2,4.1c-0.1,1.2-0.2,2-0.4,2.6c-1.1,1.4-4.1,0.2-4.2,0.1c-0.1-0.1-0.2-0.1-0.4-0.2
		c-0.2-0.3-0.3-0.6-0.3-1V-530z M255.5-467.9c-7.7,8.3-17.7,10.5-28.2,6.2c-0.5-0.8-1.6-1.1-2.5-0.7c-0.1,0-0.1,0.1-0.2,0.1
		c-0.1,0-0.3,0.1-0.4,0.2c-14.8,6.4-24.9-1.3-29.7-6.5c-11.4-12.5-14.7-33.9-7.3-46.8c8.5-14.8,21.8-16.1,29.8-15.3v2.2
		c0,1.5,0.7,4.2,3.1,4.9c1.1,0.5,2.5,0.9,4.1,0.9c1.8,0,3.6-0.6,4.9-2.4c0.6-0.9,1-3,1.2-5.6c2.4-0.4,5.4-0.6,8.7-0.4
		c10.7,0.8,18.8,6,24,15.5C270.2-502.2,266.7-480,255.5-467.9z"/>
	<path d="M-77.1,104.6c-0.3,0-0.6-0.1-0.9-0.2l-30-15.8l-30,15.8c-0.7,0.4-1.5,0.3-2.1-0.2c-0.6-0.4-0.9-1.2-0.8-2l5.7-33.4
		l-24.2-23.6c-0.5-0.5-0.7-1.3-0.5-2.1c0.2-0.7,0.9-1.3,1.6-1.4l33.5-4.9l15-30.4c0.3-0.7,1-1.1,1.8-1.1s1.5,0.4,1.8,1.1l15,30.4
		l33.5,4.9c0.8,0.1,1.4,0.6,1.6,1.4c0.2,0.7,0,1.5-0.5,2.1l-24.2,23.6l5.7,33.4c0.1,0.8-0.2,1.5-0.8,2
		C-76.3,104.4-76.7,104.6-77.1,104.6z M-108,84.3c0.3,0,0.6,0.1,0.9,0.2l27.3,14.4L-85,68.5c-0.1-0.6,0.1-1.3,0.6-1.8l22.1-21.5
		l-30.5-4.4c-0.7-0.1-1.2-0.5-1.5-1.1L-108,12l-13.7,27.7c-0.3,0.6-0.9,1-1.5,1.1l-30.5,4.4l22.1,21.5c0.5,0.5,0.7,1.1,0.6,1.8
		l-5.2,30.4l27.3-14.4C-108.6,84.4-108.3,84.3-108,84.3z"/>
	<g>
		<path d="M39.7,105h-4.8c-0.1,0-0.2,0-0.3,0c-0.3,0-6.1-1.1-6.1-10.9l1.1-30.9c-5.8-1.4-14.5-6.8-14.5-20c0-0.2,0.3-19,0.3-26.4
			c0-4.7,3.2-7.6,6.1-7.6c1.5,0,2.9,0.7,3.8,2c0.9,1.2,1.3,2.9,1.3,4.9c0,5.9,0.5,20.3,0.6,22c0.1,0.7,0.5,1.5,0.7,1.6
			c0.4,0,0.8-0.1,0.9-0.3c0.4-0.5,0.4-1.6,0.2-2.3c0-0.1,0-0.2,0-0.4l-0.6-20.9c-0.1-0.8-0.3-4.4,1.7-6.7c1-1.1,2.4-1.8,4-1.8
			c2.4,0,3.9,1,4.7,1.9c2.1,2.3,1.9,5.9,1.8,6.7L40.2,36c0,0,0,0.1,0,0.1c-0.1,0.9,0.1,2.5,0.6,3c0.1,0.1,0.1,0.1,0.4,0.1
			c1.6-0.1,1.8-3.6,1.7-4.5l0-18.2c-0.1-0.9-0.3-5,1.9-7.4C46,8,47.4,7.4,49.1,7.4c1.7,0,3.2,0.6,4.3,1.8c2.1,2.3,1.9,6,1.8,6.8
			l0.3,27.3c0.1,1.1,0.7,9.5-4,14.9c-2,2.3-4.6,3.7-7.7,4.3l2.5,30.9c0.2,0.9,0.8,5.4-1.4,8.6c-1.1,1.6-2.8,2.7-4.9,3
			C39.9,105,39.8,105,39.7,105z M35.1,101h4.4c1-0.2,1.6-0.6,2.1-1.3c1.2-1.7,0.9-4.7,0.7-5.6c0-0.1,0-0.2,0-0.2L39.7,61
			c0-0.5,0.1-1.1,0.5-1.5c0.4-0.4,0.9-0.7,1.4-0.7c3-0.2,5.2-1.2,6.9-3.1c3.8-4.4,3.1-12,3.1-12c0-0.1,0-0.1,0-0.2L51.2,16
			c0-0.1,0-0.2,0-0.2c0.1-0.7,0.1-2.9-0.8-3.9c-0.2-0.2-0.5-0.5-1.3-0.5c-0.7,0-1,0.3-1.2,0.5c-0.9,1-1,3.4-0.9,4.4
			c0,0.1,0,0.1,0,0.2v18.2c0.2,3-0.8,8.2-5.5,8.6c-1.4,0.1-2.6-0.3-3.6-1.3c-1.9-1.9-1.8-5.3-1.8-6.1l0.3-20.2c0-0.1,0-0.2,0-0.2
			c0.1-0.6,0.1-2.7-0.8-3.6c-0.2-0.2-0.6-0.6-1.6-0.5c-0.6,0-0.9,0.2-1.1,0.4c-0.8,0.9-0.8,2.9-0.7,3.8c0,0.1,0,0.1,0,0.2L33,36.4
			c0.1,0.8,0.5,3.5-1.1,5.4c-0.7,0.8-1.9,1.8-4.1,1.8c-3,0-4.3-3.2-4.6-5c0-0.1,0-0.2,0-0.3c0-0.2-0.6-16-0.6-22.3
			c0-1.7-0.5-2.9-1.1-2.9c-0.8,0-2.1,1.2-2.1,3.6c0,7.5-0.3,26.2-0.3,26.4c0,14.7,12.2,16.2,12.7,16.3c1,0.1,1.8,1,1.8,2.1
			l-1.1,32.6C32.4,99.7,34.7,100.8,35.1,101z"/>
		<path d="M88.3,104.6c-3.5,0-8.3,0-8.3-6.8V65H69.1c-0.1,0-0.1,0-0.2,0c-1.7-0.2-4.9-2-4.4-7.3c0.3-3.8,9.8-46.3,19.6-51.7
			c2.3-1.3,4.1-0.8,5.2-0.2C94,8.5,94.9,19.4,95,21.6c0,0,0,0.1,0,0.1v77.3c0.1,0.6,0.1,2.1-1,3.5C92.8,103.9,90.9,104.6,88.3,104.6
			z M69.3,61H82c1.1,0,2,0.9,2,2v34.8c0,2.6,0.3,2.8,4.3,2.8c1.8,0,2.4-0.5,2.5-0.6c0.2-0.2,0.2-0.5,0.2-0.5c0-0.2,0-0.1,0-0.3V21.8
			c-0.3-4.4-1.6-11.3-3.7-12.5C87.2,9.2,86.8,9,86,9.5c-7.3,4-17.1,42.8-17.6,48.5C68.2,60.4,69.1,60.9,69.3,61z"/>
	</g>
</g>
</svg>
