<?xml version="1.0" encoding="utf-8"?>
<!-- Generator: Adobe Illustrator 19.1.0, SVG Export Plug-In . SVG Version: 6.00 Build 0)  -->
<svg version="1.1" xmlns="http://www.w3.org/2000/svg" xmlns:xlink="http://www.w3.org/1999/xlink" x="0px" y="0px"
	 viewBox="0 0 110 110" style="enable-background:new 0 0 110 110;" xml:space="preserve">
<style type="text/css">
	.st0{fill:none;}
</style>
<g id="レイヤー_1">
	<path d="M103.9,49C103.9,48.9,103.9,48.9,103.9,49c0-0.1,0-0.1,0-0.2c-0.2-0.6-2.8-9.1-15.4-15.3L97.1,17c0.4-0.6,2.2-3.4,1.8-6.2
		c-0.2-1.4-1-2.6-2.2-3.5c-1.6-1.2-3-1.1-3.9-0.8c-2.7,0.8-4.2,4.1-4.3,4.4L79.3,30C73,28.2,65,27,55.1,27c-0.3,0-0.7,0-1,0
		c-11.1,0.1-19.7,1.7-26.3,4.2l-8-17.6c-0.3-0.7-2-5.1-5-6.3c-1.2-0.5-2.5-0.4-3.7,0.2C9.9,8.1,9,9.1,8.6,10.4c-1,3.1,1,7,1.2,7.4
		l8.8,18C7.5,43.3,6,52.7,6,53.4c0,0.1,0,0.1,0,0.2c-0.2,1.1-2.9,19.8,9.5,34.3c9,10.5,23.4,15.8,43,15.8c15.5,0,27.4-4.6,35.3-13.8
		C107.5,73.9,104.1,50,103.9,49z M100.8,49.2l-0.4,1c-0.5,1.1-1.4,3-3.1,5c-0.2-0.6-0.5-1-0.8-1.4c-0.9-1.2-2.3-1.8-3.5-2.3
		c2.6-3,2.9-6.8,2.9-7c0-0.7-0.4-1.3-1-1.5c-4.2-1.5-8.7-0.4-11.8,0.8l4-7.7C97.1,41.2,100.2,47.5,100.8,49.2z M78.5,57.8
		c-1.2-1.2-0.8-3.2-0.7-3.7l3-5.8c1.2-0.7,6.9-3.7,11.9-2.7c-0.4,1.6-1.3,4.3-4,5.6c-0.6,0.3-0.9,1-0.8,1.7s0.8,1.2,1.5,1.2
		c0.9,0,3.7,0.3,4.8,1.7c0.5,0.6,0.6,1.4,0.4,2.5c-3.2,3-7.9,6.2-14.7,8.6C80.9,62.4,80.1,59.4,78.5,57.8z M80.9,33.7l1.3-2.8
		l9-18.8c0.3-0.8,1.3-2.5,2.4-2.7c0.3-0.1,0.7-0.1,1.4,0.4c2.4,1.7-0.2,5.4-0.3,5.6c0,0.1-0.1,0.1-0.1,0.2l-8.7,16.7L84.4,35
		l-9.3,17.9c0,0.1-0.1,0.2-0.1,0.3c-0.1,0.2-1.2,4.2,1.4,6.8c1,1,1.5,3.7,0.1,7.9c-1,0.3-2,0.5-3.1,0.8c0.6-2.2,1-4.3,0.4-5.4
		c-0.3-0.7-1-1.1-1.7-1c-0.8,0.1-1.9,0.1-4.8,7.6c-0.7,0.1-1.4,0.2-2.2,0.3c1.5-3.4,2.6-7.4,1.2-9.2c-0.5-0.6-1.1-0.8-1.9-0.7
		c-0.6,0.1-2.5,0.4-6.5,10.4c-0.5,0-1,0-1.5,0.1c1-5.7,3.7-14.8,8.9-15.7c0.9,0,4.7-0.6,8.4-6.3c0-0.1,0.1-0.1,0.1-0.2L80.9,33.7z
		 M63.5,65.5c-0.4,1.4-1.1,3.2-1.9,4.9c-0.1,0-0.3,0-0.4,0C62,68.6,62.8,66.8,63.5,65.5z M48.4,57.3c0.2,0,0.3-0.1,0.5-0.2
		c0.1,0,5-3.2,12.5-3.7c-5.3,3.6-7.4,13-8.2,17.4c-0.3,0-0.6,0-0.9,0c-0.9,0-1.7,0-2.5,0C50.2,65.4,49.8,60.9,48.4,57.3z M34.9,46.9
		C34.9,46.9,34.9,46.9,34.9,46.9c0-0.1-0.5-2.4,1-4.1c1.3-1.5,3.7-2.2,7-2.2c0.1,3.9,1.7,6.4,2.7,7.6l-3,1.6c0,0-0.1,0-0.1,0.1
		c-2.8-1.7-5.7-1.9-7.2-2L34.9,46.9z M51.5,48.5C51.5,48.5,51.6,48.5,51.5,48.5l11-7.1c0.1,2.3-0.3,5.9-2.3,8.9
		c0,0.1-0.1,0.1-0.1,0.2c-7.7,0.7-12.6,3.9-12.8,4.1c0,0,0,0-0.1,0.1c-0.6-1-1.3-1.9-2-2.7L51.5,48.5z M46,39.3c0-0.3,0-0.4,0.1-0.7
		c0.1-0.8,0.3-1.6,0.6-2.6c1.8,0.6,5.2,2.4,6.2,7.2c0.1,0.2,0.2,0.4,0.3,0.6L50,45.9l-1.6,0.9c0,0,0,0-0.1-0.1c0,0-2.5-2.1-2.4-6.7
		C45.9,39.8,46,39.5,46,39.3z M67.9,50.7c-1.5-0.2-2.9-0.3-4.3-0.3c1.2-2.3,1.6-4.7,1.8-6.7c0.1,0,0.2,0.1,0.3,0.1
		c0.4,0,0.8-0.1,1.1-0.4c0,0,3.1-3.1,7.6-3l-3.3,6.8C70,48.9,68.9,50,67.9,50.7z M54.1,30c0.3,0,0.6,0,1,0c9.4,0,16.9,1.1,22.9,2.8
		l-2.2,4.6c-0.1,0-0.1,0-0.2,0c-4.9-0.6-8.6,1.9-10.2,3.1c-0.1-1.1-0.2-1.8-0.2-1.9c-0.1-0.5-0.4-0.9-0.9-1.1
		c-0.5-0.2-1-0.2-1.4,0.1l-7.2,4.6c-2-8.2-9.5-9.4-9.8-9.5c-0.7-0.1-1.4,0.3-1.6,0.9c-0.6,1.4-0.9,2.8-1.1,4c-4.4-0.1-7.7,1-9.6,3.2
		c-0.4,0.4-0.7,0.9-0.9,1.3L29,33.9C35.3,31.7,43.4,30.1,54.1,30z M12.4,16.5c-0.4-0.8-1.5-3.5-1-5.2c0.2-0.5,0.5-0.9,1-1.1
		c0.2-0.1,0.5-0.2,0.7-0.2c0.2,0,0.3,0,0.5,0.1c1.4,0.6,2.8,3.1,3.4,4.6c0,0,0,0.1,0,0.1L25,32.4l1.2,2.7l6.8,15.1
		c0.3,0.6,0.9,1,1.6,0.9c0.2,0,4.7-0.6,8.2,2.9c3.3,3.2,4.6,8.9,4,16.8c-5.6-0.3-10.3-0.9-14.4-1.8c-2.7-4.1-5.1-9.8-2.3-14.7
		c0.2-0.4,0.3-1,0-1.4L22.4,37l-1.3-2.7L12.4,16.5z M16.5,62.5c-0.3-1.3-1-6.2,1.4-9.5c1.5-2,3.9-3.1,7.3-3.3l1.8,3.8
		c-2.4,4.9-1,10.1,1.2,14.4C23.1,66.4,19.3,64.4,16.5,62.5z M19.8,38.6l4,8.2c-3.7,0.5-6.5,1.9-8.3,4.4c-2,2.7-2.4,6-2.3,8.5
		c-1.5-1.4-2.5-2.8-3.1-3.9L9,53.4C9.3,51.6,11.3,44.5,19.8,38.6z M91.5,87.9c-7.3,8.5-18.4,12.8-33,12.8c-18.6,0-32.3-5-40.7-14.7
		c-7.2-8.5-8.9-18.8-9.1-25.5c0-0.5,0-1,0-1.5c1.1,1.5,2.6,3.1,4.7,4.8c3.7,2.9,9.1,5.7,17.1,7.6c1.4,0.3,2.9,0.6,4.5,0.9
		c1.8,0.3,3.7,0.6,5.8,0.8c2.7,0.3,5.5,0.4,8.6,0.5c1.2,0,2.4,0,3.7,0c0.5,0,0.9,0,1.4,0c1.9,0,3.7-0.1,5.5-0.2c0.2,0,0.5,0,0.7,0
		c1.6-0.1,3.2-0.3,4.6-0.4c0.2,0,0.5-0.1,0.7-0.1c2.2-0.3,4.2-0.6,6.1-1c1-0.2,1.9-0.4,2.8-0.6c1.3-0.3,2.5-0.7,3.7-1
		c8.6-2.6,14.3-6.4,18.1-10c2-1.9,3.4-3.7,4.5-5.3c0,0.5,0,1.1,0,1.7C101.4,64.8,99.9,78.1,91.5,87.9z"/>
</g>
<g id="レイヤー_2">
</g>
<g id="レイヤー_3">
</g>
<g id="レイヤー_4">
</g>
<g id="レイヤー_5">
</g>
</svg>
