<?xml version="1.0" encoding="utf-8"?>
<!-- Generator: Adobe Illustrator 19.1.0, SVG Export Plug-In . SVG Version: 6.00 Build 0)  -->
<svg version="1.1" xmlns="http://www.w3.org/2000/svg" xmlns:xlink="http://www.w3.org/1999/xlink" x="0px" y="0px"
	 viewBox="0 0 110 110" style="enable-background:new 0 0 110 110;" xml:space="preserve">
<style type="text/css">
	.st0{fill:none;}
</style>
<g id="レイヤー_1">
	<g>
		<path d="M29.9,70.3c3.5,0,7.8-0.3,12.8-0.9c1.7-0.1,20.6-1.2,32.2-14.1c0.3-0.3,0.6-0.6,0.8-1c0.3-0.4,0.6-0.8,0.9-1.2l11.6-2.8
			c5.4,0.7,8.5,0,9.8-2.2c1.7-2.8-0.8-6.4-2.4-8.8l-0.1-0.2c-0.8-1.2-1.9-1.8-3.3-2c-2.7-0.3-5.6,1.8-6.8,2.8
			c-0.5,0-0.9,0.1-1.4,0.1c1.3-4.1,1.3-7.1,1.1-8.8c2-2,6.2-6.8,4.3-10.9c-1.3-2.8-5.7-5.3-9.4-4.3c-2.4,0.6-6.3,3.2-5.5,13
			c0,0.7-0.2,5.7-5.5,10.9c-8.8-0.8-14.4-2.5-14.5-2.6c-0.1,0-0.1,0-0.2-0.1c-4.5-0.9-6.8-1.2-7.9-1.3c-0.1,0-0.1-0.1-0.2-0.1
			c-11.6-9.9-22.8-8.7-23.3-8.6c-0.1,0-0.1,0-0.2,0c-6.8,1.4-9.3,2.4-9.4,2.5c-1,0.4-1.4,1.5-1.1,2.5c1.1,3.3,8.1,10.4,9.5,11.8
			c0,0,0.1,0.1,0.2,0.1c3.6,2.9,7.7,5.2,12.4,7c-6.5,0.7-17.4,3.2-22.5,11.3c-0.4,0.6-0.4,1.3-0.2,1.9C12.1,65.6,15,70.3,29.9,70.3z
			 M42.4,65.3c-0.1,0-0.1,0-0.2,0c-0.1,0-0.1,0-0.2,0c0.5-1,0.7-1.9,0.7-2.6c0.2-2.9-1.3-5.7-2.7-7.7c2-0.2,3.8-0.5,5.6-0.8
			c3,0.5,6.2,0.8,9.5,1c1.1,0,2.2,0.1,3.2,0.1c4.8,0,8.9-0.4,11.5-0.8C59,64.6,42.6,65.3,42.4,65.3z M78.6,28.9c0,0,0-0.1,0-0.1
			c-0.4-5,0.5-8.2,2.4-8.7c1.8-0.5,4.1,1,4.6,2.1c0.7,1.5-2,5-4.2,6.9c-0.6,0.5-0.8,1.4-0.6,2.1c0,0.1,0.9,3.4-1.3,9.1
			c-1.9,0-3.6,0-5.3,0C78.6,34.6,78.6,29.4,78.6,28.9z M47.2,40.2c1.2,0.2,3.1,0.5,6.2,1.1c0.8,0.2,4.8,1.4,11.1,2.2
			c1.9,0.2,3.9,0.5,6.1,0.6c2.2,0.2,4.6,0.2,7.1,0.2c1.5,0,3.1,0,4.7-0.1c1.3-0.1,2.6-0.2,4-0.3c0.4,0,0.9-0.2,1.2-0.5
			c1.1-1,3.2-2.4,4.2-2.3c0.1,0,0.3,0,0.4,0.3l0.1,0.2c1.7,2.4,2.5,3.9,2.3,4.4c0,0-0.9,0.9-6.2,0.3c-0.2,0-0.5,0-0.7,0l-7.5,1.8
			l-6,1.4L72.4,50c-0.1,0-6.3,1.3-14.8,1.2c-3.8,0-8-0.3-12.3-1.1c-1.1-0.2-2.1-0.4-3.2-0.7c0.7-0.4,1.4-0.9,2-1.5
			C46,46,47,43.4,47.2,40.2z M32,37.3c0,0.6-0.5,1.1-1.1,1.1s-1.1-0.5-1.1-1.1s0.5-1.1,1.1-1.1S32,36.7,32,37.3z M24.5,41.2
			c-2.4-2.4-5.7-6-7.4-8.4c1.4-0.4,3.4-0.9,6.4-1.5c0.4,0,3.1-0.2,7,0.8c-2.7,0.2-4.9,2.5-4.9,5.2c0,2.9,2.4,5.3,5.3,5.3
			s5.3-2.4,5.3-5.3c0-1.6-0.7-3-1.9-4c2.8,1.1,5.8,2.8,9,5.3c0.1,2.9-0.5,5-1.9,6.4c-2.3,2.3-6.1,2-6.2,2c-0.2,0-0.3,0-0.4,0
			C31.1,45.6,27.6,43.7,24.5,41.2z M30,60.3c0,0.6-0.5,1.1-1.1,1.1s-1.1-0.5-1.1-1.1s0.5-1.1,1.1-1.1S30,59.7,30,60.3z M24.2,57.9
			c-0.4,0.7-0.6,1.5-0.6,2.4c0,2.9,2.4,5.3,5.3,5.3s5.3-2.4,5.3-5.3c0-1.9-1-3.6-2.6-4.5c1.2-0.2,2.4-0.4,3.4-0.5
			c1.2,1.2,3.9,4.4,3.7,7c-0.1,1.1-0.7,2.1-2,2.9c-0.2,0.2-0.4,0.4-0.6,0.6c-13.1,1-18.2-1.2-19.9-2.4
			C18.2,60.9,21.1,59.1,24.2,57.9z"/>
		<path d="M95,55.5c-2.9-1.4-5-0.8-6.2,0c-3.1,2-3.7,6.9-3.8,8.9c-1.7,2-5.4,2.8-6.8,3c-6.1,0.6-11.8,6-13.7,8
			c-5.3,0-9,1.5-10.1,2.1C50,78,40.3,76.6,36.9,76c-0.1,0-0.2,0-0.4,0c-17.4,0-25,6.9-25.7,7.6c-1.9,1.7-1.7,3.3-1.4,4.2
			c0.6,1.9,2.8,4,14.1,5.8c5.8,0.9,11.3,1.3,11.6,1.3c1.7,0.1,3.2,0.1,4.7,0.1C56,94.8,61.3,91,63,88.7c6.5-0.3,11.2-1.9,13.8-4.6
			c1.5-1.6,1.9-3.2,2-4.1c2.1-3.2,9.8-8.2,14.5-10.7c2-0.7,7.3-2.7,7.5-6.7C101,58.5,96,55.9,95,55.5z M32,84.3
			c0,0.6-0.5,1.1-1.1,1.1s-1.1-0.5-1.1-1.1s0.5-1.1,1.1-1.1S32,83.7,32,84.3z M43.2,86.8c-0.3,1.9-2.9,3.1-5,3.9
			c-0.9,0-1.9,0-2.9-0.1c-9.9-0.7-19.6-2.5-21.7-4.1c0,0,0,0,0.1-0.1c0,0,4-3.8,13.2-5.5c-0.8,0.9-1.3,2.1-1.3,3.4
			c0,2.9,2.4,5.3,5.3,5.3s5.3-2.4,5.3-5.3c0-1.7-0.8-3.2-2.1-4.2c0.8,0,1.5-0.1,2.3-0.1c0.4,0.1,1.6,0.3,3.2,0.5c0,0,0,0,0,0
			C40.9,81.7,43.6,84.6,43.2,86.8z M75,78.4c-0.2,0.3-0.3,0.7-0.2,1.1c0,0-0.1,0.8-1,1.8c-1.1,1.2-4.1,3.2-12,3.4
			c-1,0-1.8,0.5-1.9,1.4c-0.3,0.5-2.7,3.6-13.9,4.5c0.7-0.9,1.2-1.9,1.3-3c0.4-2.3-0.5-4.4-1.6-6.2c3.5,0.3,7.3,0.5,9.8,0
			c0.2,0,0.5-0.1,0.7-0.2c0,0,3.6-2,9.2-1.7c0.6,0,1.3-0.2,1.7-0.7c1.6-1.9,6.8-6.8,11.7-7.3c0.5,0,3.1-0.4,5.7-1.6
			C80.7,72.3,76.5,75.5,75,78.4z M91.8,65.4c-0.1,0-0.2,0.1-0.3,0.1c-0.5,0.2-2.1,1.2-4.2,2.4c0.6-0.5,1.2-1.1,1.6-1.9
			c0.2-0.3,0.3-0.7,0.3-1.1c0-1.7,0.5-5.2,1.9-6.1c0.2-0.1,0.4-0.2,0.7-0.2c0.4,0,0.9,0.1,1.5,0.4c1.6,0.7,3.4,2.3,3.4,3.1
			C96.7,62.3,96.6,63.7,91.8,65.4z"/>
	</g>
</g>
<g id="レイヤー_2">
</g>
<g id="レイヤー_3">
</g>
<g id="レイヤー_4">
</g>
<g id="レイヤー_5">
</g>
</svg>
