<?xml version="1.0" encoding="utf-8"?>
<!-- Generator: Adobe Illustrator 19.1.0, SVG Export Plug-In . SVG Version: 6.00 Build 0)  -->
<svg version="1.1" xmlns="http://www.w3.org/2000/svg" xmlns:xlink="http://www.w3.org/1999/xlink" x="0px" y="0px"
	 viewBox="0 0 110 110" style="enable-background:new 0 0 110 110;" xml:space="preserve">
<style type="text/css">
	.st0{fill:none;}
</style>
<g id="レイヤー_1">
</g>
<g id="レイヤー_2">
	<g>
		<path d="M99.5,60c0-0.6,0-1.2,0-1.8c0-47.1-33.2-54.6-42.8-55.8c-0.3-0.1-0.6-0.2-0.9-0.2c0,0-0.3-0.1-0.8-0.1
			c-0.5,0-0.8-0.1-0.8-0.1c0,0,0,0,0,0c-0.3,0-0.6,0.2-0.9,0.3C44.4,3.4,15,10.1,11,48.8c-0.2,1.4-0.3,2.9-0.3,4.5
			c-0.1,1.6-0.1,3.2-0.1,4.9c0,17.9,5,31.3,14.8,39.8c9.8,8.5,21.8,9.8,28.4,9.8c0.5,0,0.9,0,1.3,0c0.4,0,0.8,0,1.3,0
			c6.7,0,18.7-1.4,28.4-9.8c8.2-7.1,13-17.7,14.4-31.5l0,0C99.3,65.2,99.5,62.8,99.5,60z M55,6.2c6.1,0.4,40.5,4.8,40.5,51.9l0,0
			c0,0.1,0,0.1-0.1,0.2l-0.3-0.2L83,47.4c-0.8-0.7-1.8-0.7-2.5,0.1l-14,13.4L51.1,48c-0.8-0.6-1.9-0.6-2.6,0L32.9,61.7L14.8,51.1
			C18,10.6,49.2,6.6,55,6.2z M82.2,95c-7.5,6.5-16.6,8.3-22.9,8.7c-0.3-0.1-0.7-0.2-1-0.1c0,0-1.2,0.2-3.2,0.2c-2,0-3.2-0.2-3.2-0.2
			c-0.4,0-0.7,0-1,0.1c-6.3-0.4-15.5-2.2-22.9-8.7C19,87.3,14.5,74.9,14.5,58.2c0-0.9,0-1.7,0-2.6l17.6,10.3
			c0.7,0.4,1.7,0.3,2.3-0.2l15.4-13.5l15.4,12.9c0.8,0.7,1.9,0.6,2.7-0.1l14-13.4l13.3,11.7l0.2,0.1C94.5,77.5,90.1,88.1,82.2,95z"
			/>
	</g>
</g>
<g id="レイヤー_3">
</g>
<g id="レイヤー_4">
</g>
<g id="レイヤー_5">
</g>
</svg>
