<?xml version="1.0" encoding="utf-8"?>
<!-- Generator: Adobe Illustrator 19.1.0, SVG Export Plug-In . SVG Version: 6.00 Build 0)  -->
<svg version="1.1" xmlns="http://www.w3.org/2000/svg" xmlns:xlink="http://www.w3.org/1999/xlink" x="0px" y="0px"
	 viewBox="0 0 110 110" style="enable-background:new 0 0 110 110;" xml:space="preserve">
<style type="text/css">
	.st0{fill:none;}
</style>
<g id="レイヤー_1">
</g>
<g id="レイヤー_2">
</g>
<g id="レイヤー_3">
	<g>
		<path d="M99.8,55.9c1.8-0.9,3.8-2.3,5.5-4.7c2.9-4.2,3.6-9.9,2.1-17c-0.1-0.6-0.5-1.1-1-1.3c-0.3-0.2-7.2-3.8-14-0.7
			c-4.2,1.9-7.3,5.9-9.2,11.9c-3-1.7-8.6-4.7-15.8-7.4c-9.8-3.6-24.4-7.2-37.9-3.5C17.6,36.4,8.5,44.3,2.1,56.8
			c-0.2,0.5-0.3,1-0.1,1.4c-0.2,0.7,0,1.4,0.5,1.9C16.2,74,31.4,79,44.4,79c4.7,0,9.1-0.5,13-1.3c12.4-2.4,21.9-7.5,25.8-9.7
			c9.6,15.8,21,9.8,21.2,9.8c0.5-0.3,0.9-0.8,1-1.3c1.5-7.1,0.8-12.8-2.1-17C102.2,57.9,101,56.8,99.8,55.9z M101.6,74.5
			c-2.3,0.7-9.4,1.7-16-10.3c-0.3-0.5-0.7-0.8-1.3-1c-0.5-0.1-1.1,0-1.6,0.3c-0.1,0.1-11.2,7.4-26.3,10.3C36.8,77.6,19.9,71.7,6,58
			c5.8-11,14-18.1,24.4-20.9c12.5-3.4,26.2,0,35.4,3.4c10.1,3.7,17.4,8.4,17.4,8.4c0.5,0.4,1.2,0.4,1.8,0.2c0.6-0.2,1-0.8,1.2-1.4
			c1.5-6.2,4-10.1,7.6-11.8c3.8-1.7,7.9-0.5,9.7,0.2c1,5.5,0.5,9.8-1.6,12.8c-2.5,3.6-6.4,4.3-6.4,4.3c-0.3,0.1-0.6,0.2-0.9,0.4
			c-0.3-0.1-0.5-0.1-0.5-0.1c-1.1-0.2-2.1,0.6-2.3,1.7s0.6,2.1,1.7,2.3c0,0,3.9,0.7,6.4,4.2C102.1,64.8,102.6,69.1,101.6,74.5z"/>
		<circle cx="26.9" cy="53.7" r="4.5"/>
	</g>
</g>
<g id="レイヤー_4">
</g>
<g id="レイヤー_5">
</g>
</svg>
