<?xml version="1.0" encoding="utf-8"?>
<!-- Generator: Adobe Illustrator 19.1.0, SVG Export Plug-In . SVG Version: 6.00 Build 0)  -->
<svg version="1.1" xmlns="http://www.w3.org/2000/svg" xmlns:xlink="http://www.w3.org/1999/xlink" x="0px" y="0px"
	 viewBox="0 0 110 110" style="enable-background:new 0 0 110 110;" xml:space="preserve">
<style type="text/css">
	.st0{fill:none;}
</style>
<g id="レイヤー_1">
	<g>
		<g>
			<path d="M87.3,53.6c-2.7,0-4.8-2.2-4.8-4.8c0-2.7,2.2-4.8,4.8-4.8s4.8,2.2,4.8,4.8C92.2,51.4,90,53.6,87.3,53.6z M87.3,45.7
				c-1.7,0-3.1,1.4-3.1,3.1c0,1.7,1.4,3.1,3.1,3.1s3.1-1.4,3.1-3.1C90.4,47.1,89,45.7,87.3,45.7z"/>
		</g>
		<g>
			<path d="M47.9,43.1c-2.7,0-4.8-2.2-4.8-4.8s2.2-4.8,4.8-4.8c2.7,0,4.8,2.2,4.8,4.8S50.6,43.1,47.9,43.1z M47.9,35.2
				c-1.7,0-3.1,1.4-3.1,3.1s1.4,3.1,3.1,3.1c1.7,0,3.1-1.4,3.1-3.1S49.6,35.2,47.9,35.2z"/>
		</g>
		<g>
			<path d="M43.4,65c-2.1,0-3.8-1.7-3.8-3.8c0-2.1,1.7-3.8,3.8-3.8c2.1,0,3.8,1.7,3.8,3.8C47.2,63.3,45.5,65,43.4,65z M43.4,59.1
				c-1.1,0-2,0.9-2,2c0,1.1,0.9,2,2,2c1.1,0,2-0.9,2-2C45.4,60.1,44.5,59.1,43.4,59.1z"/>
		</g>
		<g>
			<path d="M21.9,52.7c-1.9,0-3.4-1.5-3.4-3.4c0-1.9,1.5-3.4,3.4-3.4s3.4,1.5,3.4,3.4C25.3,51.2,23.8,52.7,21.9,52.7z M21.9,47.7
				c-0.9,0-1.6,0.7-1.6,1.6c0,0.9,0.7,1.6,1.6,1.6c0.9,0,1.6-0.7,1.6-1.6C23.5,48.5,22.8,47.7,21.9,47.7z"/>
		</g>
		<g>
			<path d="M84.6,43.1c-2.1,0-3.8-1.7-3.8-3.8c0-2.1,1.7-3.8,3.8-3.8c2.1,0,3.8,1.7,3.8,3.8C88.4,41.4,86.7,43.1,84.6,43.1z
				 M84.6,37.2c-1.1,0-2,0.9-2,2c0,1.1,0.9,2,2,2c1.1,0,2-0.9,2-2C86.6,38.1,85.7,37.2,84.6,37.2z"/>
		</g>
		<g>
			<path d="M35.5,55c-3.1,0-5.6-2.5-5.6-5.6s2.5-5.6,5.6-5.6s5.6,2.5,5.6,5.6S38.6,55,35.5,55z M35.5,45.7c-2.1,0-3.8,1.7-3.8,3.8
				c0,2.1,1.7,3.8,3.8,3.8c2.1,0,3.8-1.7,3.8-3.8C39.3,47.4,37.6,45.7,35.5,45.7z"/>
		</g>
		<path d="M104.7,41.7c-2.5-2.5-5.7-3.3-7.8-3.5c-0.7-1.3-1.8-2.7-3.2-4.1c-3.6-3.6-8.6-5.9-14.1-7.5c1.6-4.9-0.1-9.4-0.1-9.5
			c-0.1-0.3-0.5-0.6-0.8-0.6c-4.8,0-7.4,3.7-8.6,6c-4.2-6.4-9.1-4.5-9.3-4.4c-0.3,0.1-0.5,0.3-0.5,0.6c-0.5,2-0.5,3.7-0.2,5.3
			c-2.3-0.1-4.5-0.1-6.6,0c-24.9,0.7-34.9,8.1-38.9,14c-1.2,0-6.1,0.2-9.6,3.8c-2.7,2.8-3.9,6.9-3.5,12.1C1.9,58,3.4,61.2,6,63.3
			c1.7,1.4,3.7,2,5.4,2.4L11.3,63c-1.2-0.3-2.5-0.8-3.7-1.7c-2-1.6-3.2-4.2-3.5-7.6c-0.4-4.4,0.6-7.8,2.7-10c2-2,4.6-2.7,6.2-2.9
			c-0.5,1.2-0.8,2.3-1,3.1c-0.1,0.6-0.1,1-0.2,1.2c-0.3,0-0.7,0.1-1,0.1C10.3,45.3,9.6,45.5,9,46c-1.5,1.1-2.2,3.1-2.2,5.8
			c0.1,2.6,0.9,4.6,2.4,5.9c0.6,0.5,1.3,0.9,2,1.1l0-0.1l0,0.1l0,0l0.1,4.2l0.1,2.7l0.2,11.1c0,0.3,0,6.6,7.2,9.9
			c9.7,4.4,17.3,6.4,39.1,6.8c1.6,0,3.1,0,4.5,0c16.9,0,24-2.2,29.3-5.5c1.8-1.1,7.2-4.5,7.2-14.2v-8.1c1-0.3,3.6-1.1,5.3-2.5
			c2.6-2.2,4-5.4,4.2-9.6C108.7,48.4,107.4,44.4,104.7,41.7z M11.2,55.7C11.2,55.7,11.1,55.7,11.2,55.7c-1-0.8-1.6-2.2-1.7-4
			c0-1.2,0.1-2.9,1.1-3.7c0.1-0.1,0.3-0.1,0.4-0.1L11.2,55.7L11.2,55.7z M85.2,31.4c-1.3-0.4-2.5-0.3-3.4-0.1
			c-1.5-0.9-2.6-1.6-3.5-2c0.1-0.1,0.2-0.2,0.2-0.4C81.1,29.7,83.3,30.5,85.2,31.4z M91.1,35.3c-0.8-0.4-1.5-0.7-1.9-0.8
			c-0.4-0.7-0.9-1.2-1.4-1.6C89.2,33.6,90.2,34.4,91.1,35.3z M78.4,42.9c0.2,0.2,0.7,0.7,0.7,1.3c0,0.3-0.1,0.6-0.5,0.9
			c-0.2,0.2-0.3,0.5-0.3,0.7c0,0,0.3,2.5,0,4.5l-0.2,1.2c-1.4-1.6-3.4-2.6-5.7-2.6c-2.9,0-5.4,1.6-6.7,4c-0.1,0.1-0.1,0.3-0.2,0.4
			c-0.1-0.2-0.1-0.4-0.2-0.6c-0.7-1.7-2.2-2.9-4-3.2c0-0.4,0-0.8-0.1-1.1c0.2-0.1,0.5-0.1,0.8-0.1c0.3,0,0.6-0.2,0.8-0.6
			s0-0.7-0.2-0.9c-0.1-0.1-0.2-0.3-0.2-0.3c0,0,0.2-0.3,1.5-0.5c0.3,0,0.5-0.2,0.7-0.5c0.1-0.3,0.1-0.6-0.1-0.8
			c-0.2-0.3-0.5-1-0.3-1.4c0.1-0.3,0.6-0.5,0.9-0.5c0.3-0.1,0.5-0.3,0.7-0.6c0.1-0.3,0-0.6-0.1-0.9c-0.3-0.4-0.9-1.4-0.7-2
			c0.1-0.4,0.7-0.6,1.1-0.7c0.3-0.1,0.6-0.4,0.6-0.7c0.1-0.3-0.1-0.7-0.4-0.9c0,0-0.1-0.1-0.1-0.3c0-0.3,0.2-1.2,2.5-2.8l5.1-0.5
			c1.2,0.5,3.8,1.9,3.6,3.7c0,0.2,0,0.4,0.1,0.5c0,0,1.2,2.3,0.5,4.2C78.1,42.2,78.2,42.6,78.4,42.9z M78.4,56.5
			c0,3.2-2.6,5.8-5.8,5.8c-3.2,0-5.8-2.6-5.8-5.8c0-0.4,0-0.8,0.1-1.2c0.1-0.6,0.3-1.1,0.6-1.6c1-1.8,2.9-3,5.1-3
			c2.3,0,4.3,1.4,5.3,3.3c0.3,0.5,0.4,1.1,0.5,1.7C78.4,56,78.4,56.2,78.4,56.5z M57.2,53.9c0.3-1.1,1.1-2,2.1-2.4
			c0.1-0.1,0.3-0.1,0.4-0.1c0.3-0.1,0.5-0.1,0.8-0.1c0.2,0,0.4,0,0.7,0.1c1.4,0.3,2.5,1.4,2.8,2.7c0,0.2,0.1,0.5,0.1,0.7
			c0,1.9-1.6,3.5-3.5,3.5c-1.6,0-2.9-1.1-3.3-2.5c-0.1-0.3-0.2-0.7-0.2-1C57.1,54.4,57.2,54.1,57.2,53.9z M55.4,54.4
			c-0.2,0-0.5,0-0.7,0C52,54.3,50,52,50.1,49.4c0.1-2.7,2.4-4.7,5.1-4.6c1.9,0.1,3.5,1.3,4.2,3c0.2,0.6,0.4,1.2,0.4,1.8
			c-0.2,0-0.4,0.1-0.7,0.1C57,50.4,55.5,52.2,55.4,54.4z M19.4,36.4c4.5-4.2,14-9.3,34.2-9.9c2.6-0.1,5-0.1,7.2,0
			c0.1,0.2,0.2,0.4,0.3,0.7c-2.9,0.7-5.1,2-6,2.6c-5.7-2-8.3-0.7-9.2,0c-6.4-1-10,2.3-11.1,3.7c-2.9-0.9-5.5-0.8-7.7,0.3
			c-2.7,1.5-4,4.2-4.5,5.5c-2.4-0.5-4.4-0.4-5.9,0.3C17.4,38.7,18.3,37.6,19.4,36.4z M96,56.4c-0.1,0.1-0.2,0.3-0.2,0.4
			c0,0,0.1,0,0.2,0v6.4v0.3v2.6v7.8c0,7.4-3.3,10.4-5.8,12c-5.3,3.3-12.7,5.5-32.2,5.1c-21.3-0.4-28.6-2.3-38-6.6
			c-5.7-2.6-5.7-7.3-5.7-7.5L14,65.9L14,63.3l0-1.7l0,0.2L13.8,57c0,0,0,0,0,0l0-2c0.3,0.6,0.7,1.1,1.2,1.7c0.1,0.2,0.3,0.3,0.4,0.5
			c0.2,0.3,0.4,0.5,0.7,0.7c6.9,7.9,21.2,11.9,42.5,11.9c17.3,0,29.2-3.7,35.6-11c0.2-0.2,0.3-0.4,0.5-0.5c0.4-0.5,0.7-1,1-1.6
			c0.2-0.3,0.4-0.5,0.4-0.8V56.4z M96,47.4v0.4c0,0,0.1,0,0.1,0c-0.2,2.4-1,5.7-3.6,8.9c-5.6,6.9-17.3,10.5-33.9,10.5
			c-26.3,0-36.8-6.3-41.1-11.6c-2.4-3-3-6-3.1-7.9c0-0.1,0-0.2,0-0.4c0,0,0-0.2,0-0.5c0-0.3,0-0.5,0.1-0.7c0-0.3,0.1-0.5,0.1-0.5
			c0-0.1,0-0.2,0-0.3c0,0,0-0.4,0.1-0.8c0.2-0.9,0.7-1.8,1.4-2.4c1.4-1.3,3.7-1.5,6.9-0.8c0.5,0.1,0.9-0.2,1.1-0.6
			c0,0,0.9-3.6,3.9-5.2c1.9-1,4.2-1,6.9,0c0.4,0.1,0.8,0,1-0.3c0,0,3.3-4.8,10.2-3.4c0.3,0.1,0.7-0.1,0.9-0.3c0,0,1.9-2,8.1,0.3
			c0.3,0.1,0.6,0.1,0.8-0.1c0,0,2.5-1.9,6.2-2.7c1.5,2.2,3.5,3.7,4.8,4.4c-1.5,1.3-2.3,2.4-2.3,3.5c0,0.2,0,0.4,0.1,0.5
			c-0.8,0.4-1.2,1-1.3,1.5c-0.3,0.9,0,1.9,0.4,2.6c-0.6,0.3-0.9,0.8-1.1,1.2c-0.3,0.7-0.2,1.4,0,1.9c-1,0.3-1.5,0.8-1.7,1.5
			c-0.1,0.2-0.1,0.5-0.1,0.7c-1-2-3.1-3.5-5.5-3.6c-3.6-0.2-6.7,2.6-6.9,6.2c-0.2,3.6,2.6,6.7,6.2,6.9c0.3,0,0.7,0,1,0
			c0.6,2.2,2.7,3.8,5.1,3.8c1.9,0,3.5-1,4.5-2.5c0.5,3.7,3.7,6.6,7.5,6.6c4.2,0,7.6-3.4,7.6-7.6c0-0.9-0.2-1.8-0.5-2.7l0.5-3.4
			c0.2-1.7,0.1-3.7,0-4.5c0.6-0.7,0.7-1.4,0.7-1.9c0-0.9-0.5-1.7-0.9-2.1c0.5-2.1-0.3-4.2-0.7-4.9c0.1-2.3-2.1-3.9-3.6-4.7
			c0.6-0.5,1.1-1,1.6-1.6c0.8,0.3,2,1,3.9,2.2c0.2,0.1,0.5,0.2,0.8,0.1c0.2,0,3.8-1.2,6,2.5c0.1,0.2,0.3,0.3,0.5,0.4
			c0.1,0,5.9,1.9,7.3,5.9c0.1,0.2,0.1,0.4,0.2,0.6c0,0.2,0.1,0.4,0.1,0.6c0,0,0,0.1,0,0.1c0,0,0,0.1,0,0.1c0.1,0.5,0.1,0.8,0.1,0.9
			c0,0.1-0.1,0.2-0.1,0.3C96,44.6,96,45.7,96,47.4z M99,48c0-0.2,0-0.4,0-0.5L99,48c0,0.1,0.2,0.1,0.3,0.2c0.8,0.6,1.2,1.8,1.2,3.6
			c0,1.8-0.4,3.2-1.3,4c-0.1,0.1-0.1,0.1-0.1,0.1L99,48C99,48,99,48,99,48z M105.8,53.5c-0.2,3.5-1.2,6.1-3.2,7.7
			c-1.1,1-2.6,1.5-3.6,1.8v-4.2c0-0.2,1.2-0.6,1.9-1.1c1.5-1.3,2.3-3.4,2.2-6c0-2.7-0.7-4.6-2.3-5.7c-0.6-0.4-1.8-0.7-1.8-0.8v0.3
			c0-0.1,0-0.2,0-0.3c0-0.1,0-0.2,0-0.4v-0.6c0-0.2-0.1-0.3-0.2-0.5c0,0,0,0,0,0c0-0.5-0.2-1.5-0.6-2.7c1.5,0.4,3.2,1.1,4.7,2.5
			C105.1,45.8,106,49.1,105.8,53.5z"/>
		<path d="M70.9,42.4c-1.3,0-2.5-1-3.1-1.7c-0.3-0.4-0.3-0.9,0.1-1.2c0.4-0.3,0.9-0.3,1.2,0.1c0.3,0.3,1.4,1.4,2.1,1
			c0.4-0.2,1-0.1,1.2,0.3c0.2,0.4,0.1,1-0.3,1.2C71.8,42.3,71.3,42.4,70.9,42.4z"/>
		<path d="M72.5,46.6c-0.7,0-1.3-0.1-1.8-0.3c-0.5-0.2-0.7-0.7-0.5-1.1c0.2-0.5,0.7-0.7,1.1-0.5c0.4,0.1,1.9,0.5,2.3-0.2
			c0.2-0.4,0.8-0.6,1.2-0.4c0.4,0.2,0.6,0.8,0.4,1.2C74.6,46.3,73.5,46.6,72.5,46.6z"/>
	</g>
</g>
<g id="レイヤー_2">
</g>
<g id="レイヤー_3">
</g>
<g id="レイヤー_4">
</g>
<g id="レイヤー_5">
</g>
</svg>
