<?xml version="1.0" encoding="utf-8"?>
<!-- Generator: Adobe Illustrator 19.1.0, SVG Export Plug-In . SVG Version: 6.00 Build 0)  -->
<svg version="1.1" xmlns="http://www.w3.org/2000/svg" xmlns:xlink="http://www.w3.org/1999/xlink" x="0px" y="0px"
	 viewBox="0 0 110 110" style="enable-background:new 0 0 110 110;" xml:space="preserve">
<style type="text/css">
	.st0{fill:none;}
</style>
<g id="レイヤー_1">
</g>
<g id="レイヤー_2">
</g>
<g id="レイヤー_3">
</g>
<g id="レイヤー_4">
</g>
<g id="レイヤー_5">
	<path d="M96.5,39.7c-9.7-17.6-26.3-18.5-36-17.3c0-2.9,0-6-0.2-8.8c0-0.2-0.1-0.4-0.1-0.6c-0.1-0.3-1.3-3.3-4.5-4.2
		c-0.3-0.1-3.1-0.9-5.6,0.6c-1.1,0.7-2.6,2.2-3.1,5.2c0,0.1,0,0.2,0,0.3v7.6c-9-0.8-23.9,0.9-33.2,17.2c-8.2,14.2-4.6,37.8,7.8,51.4
		c6.1,6.8,13.7,10.2,21.7,10.2c3.9,0,7.9-0.8,11.9-2.5c4.2,1.8,8.4,2.7,12.4,2.7c7.7,0,14.8-3.3,20.7-9.7
		C100.9,78.4,104.6,54.5,96.5,39.7z M51,27v-4v-7.9c0.1-1.5,0.6-1.9,1.2-2.3c0.8-0.5,1.9-0.3,2.3-0.2c1,0.3,1.6,0.4,1.8,1.6
		c0.1,3,0.2,6.2,0.1,9c0,1.6-0.1,3-0.2,4.1c-0.1,1.2-0.2,2-0.4,2.6c-1.1,1.4-4.1,0.2-4.2,0.1c-0.1-0.1-0.2-0.1-0.4-0.2
		C51,29.4,51,29,51,28.6V27z M85.5,89.1c-7.7,8.3-17.7,10.5-28.2,6.2c-0.5-0.8-1.6-1.1-2.5-0.7c-0.1,0-0.1,0.1-0.2,0.1
		c-0.1,0-0.3,0.1-0.4,0.2c-14.8,6.4-24.9-1.3-29.7-6.5C13.2,75.9,9.8,54.5,17.2,41.7C25.7,26.9,39,25.6,47,26.4v2.2
		c0,1.5,0.7,4.2,3.1,4.9c1.1,0.5,2.5,0.9,4.1,0.9c1.8,0,3.6-0.6,4.9-2.4c0.6-0.9,1-3,1.2-5.6c2.4-0.4,5.4-0.6,8.7-0.4
		c10.7,0.8,18.8,6,24,15.5C100.2,54.8,96.7,77,85.5,89.1z"/>
</g>
</svg>
