<?xml version="1.0" encoding="utf-8"?>
<!-- Generator: Adobe Illustrator 19.1.0, SVG Export Plug-In . SVG Version: 6.00 Build 0)  -->
<svg version="1.1" xmlns="http://www.w3.org/2000/svg" xmlns:xlink="http://www.w3.org/1999/xlink" x="0px" y="0px"
	 viewBox="0 0 110 110" style="enable-background:new 0 0 110 110;" xml:space="preserve">
<style type="text/css">
	.st0{fill:none;}
</style>
<g id="レイヤー_1">
	<g>
		<path d="M52.2,44.8c-0.3,0-0.6-0.1-0.9-0.4c-0.4-0.5-0.4-1.2,0.1-1.7c1.3-1.1,2-2.4,2-3.8c0.1-2.4-1.7-4.5-1.7-4.5
			c-1.9-2.3-2.7-4.8-2.3-7.3c0.7-5,5.6-8.5,5.8-8.7c0.5-0.4,1.3-0.2,1.6,0.3c0.4,0.5,0.2,1.3-0.3,1.6c0,0-4.3,3.1-4.9,7.1
			c-0.3,1.9,0.3,3.7,1.8,5.5c0.1,0.1,2.5,2.7,2.3,6.1c-0.1,2-1.1,3.8-2.8,5.4C52.7,44.7,52.4,44.8,52.2,44.8z"/>
		<path d="M58.4,46.4c-0.3,0-0.6-0.1-0.9-0.4c-0.4-0.5-0.4-1.2,0.1-1.7c4.5-4,2.5-7.7,2.5-7.7c-1.6-3.1-1.8-5.8-0.7-8.2
			c2.1-4.3,8.1-5.4,8.3-5.4c0.6-0.1,1.2,0.3,1.4,0.9c0.1,0.6-0.3,1.2-0.9,1.4c-0.1,0-5.1,1-6.6,4.2c-0.8,1.6-0.6,3.7,0.7,6
			c1,1.8,1.7,6.4-3,10.6C59,46.3,58.7,46.4,58.4,46.4z"/>
		<path d="M45,44.4c-0.3,0-0.6-0.1-0.8-0.3c-0.5-0.4-0.5-1.2,0-1.7c1.2-1.3,1.8-2.6,1.7-3.9c-0.2-2.2-2.1-4-2.5-4.3
			C41,33,39.5,31.2,39,28.9c-1.1-4.5,1.9-9.1,2.1-9.3c0.4-0.5,1.1-0.7,1.6-0.3c0.5,0.4,0.7,1.1,0.3,1.6c-0.1,0.1-2.6,4-1.7,7.5
			c0.4,1.6,1.5,2.9,3.3,3.9c0.1,0,0.1,0.1,0.2,0.1c0.1,0.1,3.2,2.5,3.4,6c0.1,2-0.6,3.9-2.3,5.7C45.6,44.3,45.3,44.4,45,44.4z"/>
		<path d="M59.6,58.1c-4.1-3-10.3-3.5-13.5-2.1c-2.6,1.1-5.1,1.8-12.5,0.9c-2.2-0.3-4.3-0.4-6.3-0.5l-0.3-0.1
			c-0.2-0.1-0.4,0-0.6,0.1c-4.5-0.1-7.9,0.3-8.1,0.3c-0.1,0-0.1,0-0.2,0c-2.8,0.8-4.9,2.2-6.1,4.4c-2.2,3.8-1,8.3-0.9,8.5
			c0.1,0.5,0.6,0.9,1.1,0.9c0.1,0,0.2,0,0.3,0c0.6-0.2,1-0.8,0.8-1.4c0,0-1-3.8,0.7-6.8c0.9-1.6,2.5-2.7,4.6-3.3
			c0.7-0.1,5.1-0.5,10.4-0.2c-1,0.7-1.8,1.3-2.6,1.9l-3.7-1.2c-0.4-0.1-0.9,0.1-1,0.5c-0.1,0.4,0.1,0.8,0.5,1l2.7,0.9
			c-3,2.2-4,3-4,3c-0.3,0.3-0.4,0.8-0.1,1.1c0.2,0.2,0.4,0.3,0.6,0.3c0.2,0,0.4-0.1,0.5-0.2c0,0,1.1-0.9,4.8-3.6l4.2,1.4
			c-2.3,2.1-3.5,3.2-3.5,3.2c-0.3,0.3-0.3,0.8,0,1.1c0.2,0.2,0.4,0.2,0.6,0.2c0.2,0,0.4-0.1,0.6-0.2c0,0,1.3-1.3,4.1-3.8l4.3,1.4
			c-1.5,1.4-2.3,2.2-2.4,2.2c-0.3,0.3-0.3,0.8,0,1.1c0.2,0.2,0.4,0.2,0.6,0.2c0.2,0,0.4-0.1,0.5-0.2c0,0,1.1-1,3-2.8l4.3,1.4
			c-0.5,0.5-0.8,0.8-0.8,0.8c-0.3,0.3-0.3,0.8,0,1.1c0.2,0.1,0.3,0.2,0.5,0.2c0.2,0,0.4-0.1,0.6-0.2c0,0,0.4-0.5,1.3-1.3l4.7,1.5
			c0.1,0,0.2,0,0.2,0c0.3,0,0.6-0.2,0.7-0.5c0.1-0.4-0.1-0.8-0.5-1L46,67.1c0.6-0.6,1.4-1.3,2.3-2.1l5.4,1.8c0.1,0,0.2,0,0.2,0
			c0.3,0,0.6-0.2,0.7-0.5c0.1-0.4-0.1-0.8-0.5-1l-4.6-1.5c0.6-0.6,1.4-1.2,2.1-1.9l5.9,2c0.1,0,0.2,0,0.2,0c0.3,0,0.6-0.2,0.7-0.5
			c0.1-0.4-0.1-0.9-0.5-1L53,60.7c0.6-0.5,1.2-1.1,1.9-1.7c0.2-0.2,0.3-0.4,0.3-0.6c1.1,0.4,2.1,0.9,3.1,1.6
			c2.7,1.9,3.8,4.7,3.5,8.3c-0.1,0.6,0.4,1.2,1.1,1.3c0.6,0.1,1.2-0.4,1.3-1.1C64.5,63,61.9,59.8,59.6,58.1z M43.8,59.2l0.4,0.1
			c-0.8,0.7-1.5,1.3-2.2,1.9L38,60c0.1-0.1,0.2-0.2,0.4-0.3C40.7,59.7,42.4,59.6,43.8,59.2z M32.3,62.6l-4-1.3
			c0.8-0.6,1.7-1.3,2.8-2l3.7,1.2C33.9,61.3,33.1,62,32.3,62.6z M38.3,64.6l-4.3-1.4c0.7-0.6,1.6-1.3,2.5-2.1l4.1,1.4
			C39.8,63.3,39,64,38.3,64.6z M44.3,66.6L40,65.2c0.7-0.6,1.5-1.3,2.3-2.1l4.2,1.4C45.7,65.3,44.9,66,44.3,66.6z M47.9,63.2
			l-4.1-1.4c0.7-0.6,1.4-1.3,2.2-1.9l4.1,1.4C49.2,62,48.5,62.6,47.9,63.2z M51.3,60.1l-4-1.4c0.2-0.2,0.4-0.3,0.5-0.5
			c0.1-0.1,0.2-0.3,0.2-0.4c1.5-0.3,3.5-0.3,5.6,0.2C52.8,58.8,52,59.5,51.3,60.1z"/>
		<g>
			<path d="M106.5,56.3c-1.7-1.4-3.8-1.3-4.3-1.3H71.3c-4.8-6-17.8-11-39.9-9.5C6.9,47.1,2.1,57.3,1.2,61.3C1,61.9,1,61.9,0.9,62.1
				c-2,13.5,4.5,19.2,5.3,19.8c8.6,8.2,21.5,9.8,30.1,9.8c1.1,0,2.1,0,3-0.1c11.2-0.5,22.6-3.8,27.2-7.7c6.2-5.3,7.6-12,7.6-18h26.6
				c0.3,0,0.9,0,1.7,0c1.4,0,3.3-0.1,4.7-1.2c0.7-0.6,1.6-1.8,1.5-3.8C108.4,58.9,107.7,57.4,106.5,56.3z M31.6,47.9
				c18.8-1.3,31.4,2.8,36.7,7.5c1.6,1.5,2.6,3,2.8,4.4c-0.3,0.9-0.8,1.8-1.4,2.6c-7.1,9.8-30.3,9.7-30.6,9.7
				c-26.2,0.6-33.9-7.4-35.6-9.7C3.9,59.9,7.1,49.6,31.6,47.9z M64.9,82.3c-8,6.8-41.8,12.6-57.1-2.1c0,0-0.1-0.1-0.1-0.1
				c-0.1,0-4.7-3.7-4.8-12.9c0-0.6,0-1.2,0-1.9c0.7,0.7,1.6,1.5,2.7,2.3c4.9,3.4,14.7,7.3,33.4,6.8c1,0,19.8,0.2,29.5-7.5
				c0.7-0.6,1.4-1.2,2-1.9c0.3-0.4,0.7-0.8,1-1.2c0,0.4,0,0.9,0.1,1.4c0,0.3,0,0.6,0,1C71.6,71,70.3,77.6,64.9,82.3z M105.5,63.2
				c-1.2,1-3.7,0.9-4.6,0.8c-0.1,0-0.1,0-0.2,0H73.9c-0.1-3-0.5-3.8-0.6-4c-0.1-0.7-0.3-2-0.6-2h29.5c0.1,0,0.1-0.2,0.2-0.2
				c0,0,1.5-0.3,2.6,0.6c0.7,0.6,1.1,1.5,1.1,2.9C106.2,62.1,106,62.7,105.5,63.2z"/>
		</g>
	</g>
</g>
<g id="レイヤー_2">
</g>
<g id="レイヤー_3">
</g>
<g id="レイヤー_4">
</g>
<g id="レイヤー_5">
</g>
</svg>
