<?xml version="1.0" encoding="utf-8"?>
<!-- Generator: Adobe Illustrator 19.1.0, SVG Export Plug-In . SVG Version: 6.00 Build 0)  -->
<svg version="1.1" xmlns="http://www.w3.org/2000/svg" xmlns:xlink="http://www.w3.org/1999/xlink" x="0px" y="0px"
	 viewBox="0 0 110 110" style="enable-background:new 0 0 110 110;" xml:space="preserve">
<style type="text/css">
	.st0{fill:none;}
</style>
<g id="レイヤー_1">
	<g>
		<path d="M558.9-273.3c-0.3,0-0.7-0.1-1-0.2c-1-0.5-1.3-1.7-0.8-2.7c5.7-10.4,5.1-31.9-1.1-37.6c-8.1-7.5-8.9-15.9-3-29.8
			c3.1-7.3,2.6-10.6,2-12c-0.5-1.1-1.2-1.3-1.2-1.3c-0.1,0-0.2-0.1-0.4-0.1c-5-2.5-9.7-2.6-13.1-0.4c-3.4,2.2-5.2,6.4-5,11.5
			c0.1,2.4,0.5,3.8,0.8,5.2c0.8,2.9,1.5,5.7,0.1,15.1c-1.5,10.7,1.2,14.1,6.1,20.3c1.8,2.3,3.9,4.9,6.1,8.3
			c8.7,13.6,1.6,22,1.3,22.4c-0.7,0.8-2,0.9-2.8,0.2c-0.8-0.7-0.9-2-0.2-2.8c0.2-0.3,5.3-6.7-1.7-17.6c-2.1-3.2-4.1-5.8-5.8-8
			c-5.1-6.4-8.7-11-7-23.4c1.2-8.7,0.6-10.9,0-13.5c-0.4-1.5-0.9-3.2-1-6.1c-0.3-6.6,2.2-12.1,6.8-15c4.6-3,10.8-2.9,17,0.1
			c0.7,0.2,2.3,1,3.4,3.2c1.7,3.4,1.1,8.6-1.8,15.5c-6,14-3.8,19.8,2,25.2c8,7.5,8,31.3,1.9,42.4
			C560.3-273.7,559.6-273.3,558.9-273.3z"/>
		<path d="M568.2-274.8c-0.8,0-1.5-0.5-1.9-1.3c-0.4-1,0.1-2.2,1.1-2.6c0.3-0.1,7.2-3.1,5-13.2c-0.8-4-3.1-8.6-5.5-13.4
			c-4.4-9-9.5-19.1-7.3-29.9c2.1-10,4.1-13.2,5.6-15.5c1.4-2.1,2.1-3.3,1.9-10.3c-0.4-11.2,6.5-17.7,13.4-19.2
			c6.9-1.5,13.2,1.6,15.7,7.7c4.3,10.4,0.6,15.6-3.1,20.7c-1,1.3-1.9,2.7-2.8,4.1c-2.4,4.1-6.8,11.8-6.2,20.1
			c0.5,7.2,0.5,7.2,4.3,13.6l0.4,0.7c3.4,5.7,6.5,18,2.5,27.5c-2.3,5.6-6.8,9.4-13,10.9c-1.1,0.3-2.2-0.4-2.4-1.5
			c-0.3-1.1,0.4-2.2,1.5-2.4c5-1.2,8.5-4.1,10.3-8.6c3.4-8.1,0.6-19.1-2.3-23.9l-0.4-0.7c-4.2-7.1-4.3-7.4-4.8-15.4
			c-0.6-9.5,4.2-17.9,6.8-22.4c0.9-1.6,2-3.1,3-4.5c3.4-4.7,6.1-8.4,2.6-16.8c-2-4.9-7.1-6.2-11.1-5.3c-4.9,1.1-10.6,5.7-10.3,15.2
			c0.3,7.9-0.7,9.7-2.5,12.6c-1.3,2.1-3.1,4.9-5,14.1c-1.9,9.4,2.6,18.5,6.9,27.3c2.5,5,4.9,9.8,5.8,14.4
			c2.2,10.8-3.9,16.3-7.5,17.8C568.7-274.9,568.4-274.8,568.2-274.8z"/>
		<path d="M579.7-284.3c-0.2,0-0.5,0-0.7-0.1c-1-0.4-1.6-1.5-1.2-2.6c0.1-0.2,5.8-15.9-2.2-26.6c-7.1-9.5-8.1-20.1-2.9-30.8
			c2.9-6,5.1-15.5,5.1-15.6c0.2-1.1,1.3-1.8,2.4-1.5c1.1,0.2,1.7,1.3,1.5,2.4c-0.1,0.4-2.3,10-5.4,16.4c-4.5,9.4-3.6,18.4,2.6,26.7
			c9.3,12.5,3,29.7,2.8,30.4C581.2-284.8,580.5-284.3,579.7-284.3z"/>
		<path d="M556.7-286.8c-0.1,0-0.2,0-0.3,0c-1.1-0.2-1.9-1.2-1.7-2.3c1-6.8,0.4-7.5-2.2-11c-0.4-0.5-0.9-1.1-1.4-1.8
			c-1.8-2.5-3.2-3.4-4.4-4.2c-2.5-1.7-4.1-3.1-6.1-8.8c-3.5-10.1,3-30,3.2-30.8c0.3-1,1.5-1.6,2.5-1.3c1,0.3,1.6,1.5,1.3,2.5
			c-0.1,0.2-6.4,19.4-3.3,28.2c1.7,4.9,2.8,5.6,4.6,6.8c1.4,1,3.2,2.1,5.4,5.2c0.5,0.7,0.9,1.2,1.3,1.7c3.2,4.2,4.2,5.9,3,14
			C558.5-287.6,557.6-286.8,556.7-286.8z"/>
		<path d="M600.7-277.1c-0.6,0-1.2-0.3-1.6-0.8c-0.7-0.9-0.5-2.1,0.4-2.8c8.8-6.6,8.7-18.4,8.7-28.8c0-3.4,0-6.6,0.3-9.4
			c1.2-9.8,4-17.1,4.6-18.4c2.2-10.9,2.2-17.8-0.1-20.6c-1.3-1.6-3.5-1.8-6-1.8c-2.8,0-6.7,9.5-7.8,19.2c-0.4,3.8-1.6,6.4-2.7,9
			c-1.6,3.7-3,6.9-2,12.9c1,6.1,2.3,9.8,3.5,13.3c0.9,2.7,1.9,5.4,2.7,9.1c2,9.3-7,17.5-7.4,17.9c-0.8,0.7-2.1,0.7-2.8-0.1
			c-0.7-0.8-0.7-2.1,0.1-2.8l0,0c0.1-0.1,7.6-7.1,6.1-14.1c-0.7-3.4-1.6-5.9-2.6-8.6c-1.3-3.7-2.7-7.6-3.7-14
			c-1.1-7.2,0.6-11.3,2.3-15.2c1.1-2.4,2.1-4.7,2.4-7.9c0.9-7.9,4.5-22.8,11.7-22.8c2.4,0,6.4,0,9.1,3.2c3.2,3.9,3.5,11.6,0.9,24.2
			c0,0.1-0.1,0.3-0.1,0.4c0,0.1-3.2,7.4-4.3,17.4c-0.3,2.5-0.3,5.6-0.3,8.9c0.1,10.8,0.2,24.2-10.3,32
			C601.5-277.2,601.1-277.1,600.7-277.1z"/>
		<path d="M602.4-302.1c-0.8,0-1.5-0.5-1.8-1.2c-3.2-7.4-2.5-19.1,0-25.1c2.1-4.9,3.8-17.8,3.9-18c0.1-1.1,1.1-1.9,2.2-1.7
			c1.1,0.1,1.9,1.1,1.7,2.2c-0.1,0.6-1.8,13.6-4.1,19c-2.2,5.1-2.6,15.8,0,21.9c0.4,1,0,2.2-1.1,2.6
			C602.9-302.2,602.7-302.1,602.4-302.1z"/>
	</g>
	<g>
		<g>
			<path d="M186.1-327.2c-0.5,0-0.9-0.2-1.3-0.5c-2.9-2.5-5.1-5.4-6.4-8.7c-2.5-6.4-1.8-13.7,2.2-21.7c4.3-8.7,9.9-14.3,16.5-16.5
				c4.8-1.6,9.1-1.1,11.9-0.3c0.2,0,0.3,0,0.5,0.1c0,0,0.3,0.1,0.6,0.2c0.3,0.1,0.6,0.2,0.8,0.3c0.5,0.2,0.9,0.7,1.1,1.2
				c0.2,0.5,0.1,1.1-0.1,1.6l-24.1,43.2c-0.3,0.5-0.8,0.9-1.4,1C186.3-327.2,186.2-327.2,186.1-327.2z M203.5-371.7
				c-1.5,0-3.3,0.2-5.1,0.8c-5.6,1.9-10.4,6.7-14.2,14.5c-3.4,7-4.1,13.2-2,18.5c0.8,2,1.9,3.8,3.4,5.4l21.7-38.8
				C206.2-371.5,204.9-371.7,203.5-371.7z"/>
			<path d="M199.1-322.3c-3,0-5.7-0.6-7.4-1.2c-0.1,0-0.2-0.1-0.3-0.1c0,0-0.2-0.1-0.3-0.1c-1.3-0.5-2.2-0.9-2.3-1
				c-0.3-0.1-0.5-0.3-0.7-0.6c-0.8-0.6-1-1.7-0.5-2.6l24.2-43.3c0.3-0.5,0.8-0.9,1.3-1c0.6-0.1,1.2,0,1.6,0.4
				c2.7,2.1,4.8,4.7,6.3,7.7l0,0c3.1,6.4,3,14.1-0.1,23.1c-3.2,9-8.1,14.9-14.6,17.4C204.1-322.7,201.7-322.3,199.1-322.3z
				 M192.6-327.4c0,0,0.1,0,0.1,0c1.5,0.5,3.7,1.1,6.4,1.1c2,0,4-0.4,5.8-1.1c5.4-2.1,9.5-7.1,12.2-15c2.8-7.9,2.9-14.6,0.3-20
				c0,0,0,0,0,0c-0.8-1.8-2-3.3-3.4-4.7l-22,39.4c0.1,0.1,0.3,0.1,0.4,0.2C192.5-327.5,192.6-327.4,192.6-327.4L192.6-327.4z"/>
		</g>
		<g>
			<path d="M250.8-317.7c-0.1,0-0.2,0-0.3,0c-3.8-0.5-7.2-1.9-10-4c-5.5-4-8.8-10.6-9.8-19.5c-1-9.7,0.7-17.4,5.2-22.8
				c3.2-3.9,7.1-5.7,9.9-6.6c0.1-0.1,0.3-0.1,0.4-0.2c0.1,0,0.3-0.1,0.6-0.1c0.4-0.1,0.6-0.1,0.9-0.2c0.6-0.1,1.1,0.1,1.6,0.4
				c0.4,0.4,0.7,0.9,0.8,1.5l2.7,49.4c0,0.6-0.2,1.2-0.6,1.6C251.8-317.9,251.3-317.7,250.8-317.7z M246.2-366.6
				c-2.2,0.7-4.9,2.2-7.3,5.1c-3.8,4.6-5.2,11.3-4.3,19.8c0.8,7.7,3.6,13.3,8.1,16.7c1.7,1.3,3.7,2.2,5.8,2.8L246.2-366.6z"/>
			<path d="M255.3-317.4c-0.2,0-0.5,0-0.7-0.1c-1-0.1-1.8-0.9-1.8-1.9l-2.7-49.5c0-0.6,0.2-1.1,0.6-1.6c0.4-0.4,1-0.6,1.6-0.5
				c3.4,0.3,6.6,1.4,9.4,3.2c6,3.7,10.1,10.3,12.2,19.5c2.1,9.3,1.1,16.9-3,22.5c-1.5,2-3.3,3.6-5.4,5c-2.6,1.6-5.1,2.5-6.9,2.9
				c-0.1,0-0.2,0.1-0.3,0.1c0,0-0.2,0-0.3,0.1c-1.4,0.3-2.3,0.4-2.5,0.4C255.4-317.4,255.4-317.4,255.3-317.4z M254.2-366.7
				l2.4,45.1c0.1,0,0.3-0.1,0.5-0.1c0,0,0.1,0,0.1,0l0.1,0c0,0,0.1,0,0.1,0c1.5-0.4,3.7-1.1,6-2.5c1.7-1.1,3.2-2.4,4.3-4
				c3.4-4.6,4.2-11.1,2.3-19.2c-1.9-8.2-5.4-13.9-10.5-17h0C258-365.5,256.2-366.3,254.2-366.7z"/>
		</g>
		<g>
			<path d="M211-281.5c-0.4,0-0.7-0.1-1-0.3c-3-1.8-5.3-4.1-7-6.9c-3.2-5.3-3.6-12-1.3-19.7c2.5-8.4,6.7-14.2,12.3-17.2
				c4.1-2.2,7.9-2.3,10.6-2c0.1,0,0.3,0,0.4,0c0,0,0.3,0,0.6,0.1c0.3,0.1,0.6,0.1,0.8,0.2c0.6,0.1,1,0.5,1.3,1
				c0.3,0.5,0.3,1.1,0.1,1.6l-15,41.8c-0.2,0.6-0.6,1-1.2,1.2C211.5-281.6,211.3-281.5,211-281.5z M222.6-323.7
				c-1.9,0-4.2,0.4-6.7,1.7c-4.7,2.5-8.1,7.4-10.4,14.8c-2,6.6-1.7,12.2,0.9,16.5c0.9,1.5,2.1,2.9,3.6,4.1l13.3-37
				C223.1-323.7,222.8-323.7,222.6-323.7z"/>
			<path d="M220.3-278.8c-1.3,0-2.5-0.1-3.4-0.3c-0.1,0-0.2,0-0.3,0l-0.3-0.1c-1.3-0.2-2.1-0.5-2.2-0.6c-0.3-0.1-0.5-0.2-0.7-0.4
				c-0.8-0.5-1.2-1.5-0.9-2.4l15-41.9c0.2-0.5,0.6-1,1.2-1.2c0.5-0.2,1.2-0.2,1.7,0.1c2.7,1.5,5,3.5,6.8,6l0,0
				c3.7,5.2,4.8,12.2,3.3,20.6c-1.5,8.5-5,14.5-10.4,17.7c-1.9,1.1-4,1.9-6.3,2.3C222.5-278.9,221.3-278.8,220.3-278.8z
				 M217.2-283.1c0,0,0.1,0,0.1,0c1.3,0.2,3.4,0.4,5.7,0c1.8-0.3,3.4-0.9,4.9-1.8c4.4-2.6,7.3-7.6,8.5-14.9
				c1.3-7.3,0.4-13.3-2.7-17.6v0c-0.9-1.3-2.1-2.5-3.4-3.5l-13.5,37.7c0.1,0,0.1,0,0.2,0C217.1-283.1,217.1-283.1,217.2-283.1
				L217.2-283.1z"/>
		</g>
	</g>
	<g>
		<path d="M99-330.8c0-7.7-3.2-12.5-6-14.4c-0.7-0.5-1.5-0.8-2.2-1c0.4-3.5,0.2-9.9-5.2-15.1c-5.3-5.1-9.9-6.4-17-4.9
			c-1.5-3.2-5.8-9.3-16.6-9c-10.7-0.4-15,5.8-16.6,9c-7.1-1.5-11.7-0.2-17,4.9c-5.4,5.2-5.6,11.6-5.2,15.1c-0.7,0.2-1.5,0.5-2.2,1
			c-2.9,1.9-6,6.7-6,14.4c-0.1,19.5,17.6,29.3,28.9,33.6c-0.8,1.5-1.5,3.6-1.4,6.8C32.7-282.6,43-279,52.8-279c0.1,0,0.1,0,0.2,0
			c9.8,0,20.3-3.5,20.5-11.4c0.1-3.7-0.8-6.2-1.8-7.6C83-302.5,99.1-312.2,99-330.8z M60.1-298.5c-1.1,0.2-1.8,1.3-1.6,2.3
			c0.2,1.1,1.3,1.8,2.3,1.6c0.1,0,2.8-0.6,6.8-1.9l0,0.1c0.1,0,2,1.1,1.9,5.8c-0.1,4.6-8,7.3-15.9,7.4c0,0-0.1,0-0.2,0
			c-0.3,0-0.6,0.1-0.9,0.1c0,0,0,0,0,0c0,0-0.1-0.1-0.1-0.1c-7.9-0.1-15.8-2.9-15.9-7.5c-0.1-3.2,0.8-4.7,1.4-5.4
			c3.1,1,5.2,1.4,5.2,1.4c1.1,0.2,2.1-0.5,2.3-1.6c0.2-1.1-0.5-2.1-1.6-2.3c-0.4-0.1-35-7.1-34.9-32.4c0-6.1,2.3-9.8,4.2-11.1
			c0.6-0.4,1.3-0.6,1.6-0.4c0.7,0.3,1.5,0.2,2.1-0.4c0.6-0.5,0.8-1.3,0.6-2.1c-0.1-0.3-2.3-7.9,3.6-13.6c4.8-4.5,8.1-5.3,14.9-3.5
			c0.5,0.1,1.1,0.1,1.5-0.2c0.5-0.3,0.8-0.7,0.9-1.2c0-0.1,2.1-8.2,13.3-7.8c0,0,0.1,0.1,0.1,0.1c0,0,0,0,0,0c0,0,0.1-0.1,0.1-0.1
			c11.1-0.4,13.2,7.4,13.3,7.7c0.1,0.5,0.5,1,0.9,1.3c0.5,0.3,1,0.4,1.5,0.2c6.8-1.8,10.2-1,14.9,3.5c6,5.7,3.7,13.3,3.6,13.6
			c-0.2,0.7,0,1.6,0.6,2.1c0.6,0.5,1.4,0.7,2.1,0.4c0.4-0.2,1,0,1.6,0.4c1.9,1.3,4.2,4.9,4.2,11.1C95.2-305.6,60.5-298.5,60.1-298.5
			z"/>
		<path d="M52-347.8c-1.1,0-2,0.9-2,2v35c0,1.1,0.9,2,2,2s2-0.9,2-2v-35C54-346.9,53.1-347.8,52-347.8z"/>
		<path d="M45.3-309.3c-14.2-3.2-20.5-21.5-20.5-21.7c-0.4-1-1.5-1.6-2.5-1.3c-1,0.4-1.6,1.5-1.3,2.5c0.3,0.8,7,20.6,23.5,24.3
			c0.1,0,0.3,0,0.4,0c0.9,0,1.7-0.6,1.9-1.6C47-308,46.4-309,45.3-309.3z"/>
		<path d="M81.5-332.2c-1-0.3-2.2,0.2-2.5,1.3c-0.1,0.2-6.3,18.5-20.5,21.7c-1.1,0.2-1.8,1.3-1.5,2.4c0.2,0.9,1,1.6,1.9,1.6
			c0.1,0,0.3,0,0.4,0c16.4-3.7,23.2-23.5,23.5-24.3C83.1-330.7,82.5-331.9,81.5-332.2z"/>
	</g>
	<g>
		<path d="M11-98c-0.7,0-1.4-0.4-1.7-1c-0.4-0.7-0.4-1.5,0.1-2.1c0.1-0.1,3.5-5.8,1.2-18c-2.4-13.2,1.1-33.6,12.4-45.6
			c1.3-2.2,11.5-16.9,47-19.3c9.4-0.9,20.5-3.2,22-5.2c0.5-0.7,1.5-1,2.3-0.7c0.8,0.3,1.4,1.2,1.3,2.1c0,0.2-1.5,15.6-2,23.9
			c-0.4,7.3-6,39.1-23.9,51C52.2-101.2,41-100,11.1-98C11.1-98,11-98,11-98z M91.1-184.2c-6.2,2.6-17.1,3.8-20.9,4.2
			c-18.5,1.3-29.5,6-35.4,9.7c-6.4,4-8.5,7.7-8.5,7.8c-0.1,0.2-0.2,0.3-0.3,0.4c-10.5,11-13.8,30-11.5,42.3
			c1.6,8.6,0.7,14.4-0.4,17.7c28.7-2,38.2-3.9,53.3-14c15.3-10.2,21.6-38.7,22.1-48C89.8-169.9,90.7-179,91.1-184.2z"/>
		<path d="M41-145.5c-0.8,0-1.5-0.5-1.8-1.2c-2.4-5.6-8.3-5.3-8.5-5.3c-1.1,0.1-2-0.8-2.1-1.9s0.8-2,1.9-2.1c0.4,0,9-0.5,12.5,7.7
			c0.4,1,0,2.2-1.1,2.6C41.5-145.6,41.3-145.5,41-145.5z"/>
		<path d="M61-113.5c-0.1,0-0.2,0-0.3,0c-1.1-0.2-1.8-1.2-1.7-2.3c1.3-8.7-7.2-16.1-7.3-16.2c-0.8-0.7-0.9-2-0.2-2.8
			c0.7-0.8,2-1,2.8-0.2c0.4,0.4,10.3,8.8,8.7,19.8C62.8-114.2,62-113.5,61-113.5z"/>
		<path d="M51-154.5c-0.8,0-1.5-0.5-1.8-1.2c-2.2-5-9.5-8.1-12.2-8.9c-1.1-0.3-1.7-1.4-1.4-2.5c0.3-1.1,1.4-1.7,2.5-1.4
			c0.5,0.1,11.5,3.4,14.8,11.1c0.4,1,0,2.2-1.1,2.6C51.5-154.6,51.3-154.5,51-154.5z"/>
	</g>
	<path d="M261.6-170.9c-5.8-8.3-17.2-18.3-38.6-19.4c0,0,0,0-0.1,0c0,0,0,0-0.1,0c-21.4,1-32.8,11.1-38.6,19.4
		c-8.2,11.8-9.9,26.6-7.2,35.2c2.3,7.6,14.1,10.7,25,11.9c-0.5,4-0.9,12,3.7,18.2c3.5,4.7,9.1,7.4,16.6,7.9c0,0,0.1,0,0.1,0
		c0.2,0,0.5,0,0.7-0.1c0.2,0.1,0.4,0.1,0.7,0.1c0,0,0.1,0,0.1,0c7.5-0.5,13.1-3.1,16.6-7.9c4.6-6.2,4.2-14.3,3.7-18.2
		c10.8-1.2,22.3-4.3,24.6-11.8C271.5-144.3,269.9-159.1,261.6-170.9z M237.3-108c-2.8,3.7-7.3,5.8-13.6,6.2c-0.2,0-0.4,0.1-0.5,0.1
		c-0.2-0.1-0.4-0.1-0.5-0.1c-6.3-0.4-10.8-2.5-13.6-6.2c-3.8-5.1-3.4-12.2-2.9-15.5c3.6,0.3,7,0.3,9.7,0.3c3.1,0,5.4-0.1,6.3-0.1
		c0.3,0,0.6-0.1,0.9-0.3c0.3,0.1,0.5,0.2,0.9,0.3c0.9,0,3.2,0.1,6.3,0.1c2.8,0,6.4-0.1,10.1-0.4C240.7-120.2,241.1-113.1,237.3-108z
		 M265-136.8c-1.6,5.3-11.8,8-22.8,9.1c-0.3-0.1-0.6-0.1-0.9,0c-0.1,0-0.2,0.1-0.3,0.1c-6,0.5-12.1,0.6-17.1,0.3
		c-0.4,0-0.7,0.1-1.1,0.2c-0.3-0.2-0.7-0.3-1.1-0.2c-4.8,0.2-10.7,0.2-16.5-0.3c-0.1-0.1-0.3-0.1-0.4-0.1c-0.3-0.1-0.7-0.1-1,0
		c-11.1-1.1-21.4-3.8-23.1-9.2c-1.9-6.2-1.7-19.8,6.7-31.8c5.3-7.5,15.7-16.6,35.4-17.6c19.7,1,30.1,10.1,35.4,17.6
		C266.8-156.6,267-143.1,265-136.8z"/>
	<g>
		<path d="M417-166.6c-10.5-5.3-9.6-14.3-9.6-14.6c0,0,0-0.1,0-0.1c0.2-3.5,0-8.3-3.2-9.8c-2-0.9-4,0-5.4,1c-1.3-1.1-3.1-2.2-5-1.5
			c-1.2,0.4-1.9,1.4-2.4,2.5c-2-1.9-4.3-3.2-6.6-2.5c-0.6,0.2-1.2,0.5-1.6,0.9c-0.4-0.4-0.8-0.7-1.4-0.9c-1.9-0.7-3.8,0.4-5,1.5
			c-1.4-0.9-3.4-1.8-5.4-1c-3.2,1.4-3.3,6.3-3.2,9.8c0,0,0,0.1,0,0.1c0,0.4,0.9,9.4-9.6,14.6c-13.9,6.9-21.7,21.1-21.1,37.9
			c0.6,16.6,13.3,26.2,35.7,27.2c0.6,0.7,1.5,1.6,2.8,2.3c2.3,1.3,4.9,1.5,7.4,0.5c0.3,0.5,0.8,0.9,1.3,1.3c0.3,0.8,1,1.3,1.9,1.3
			c0.4,0,0.8,0,1.2-0.1c0.4,0.1,0.8,0.1,1.2,0.1c0.9,0,1.6-0.5,1.9-1.3c0.5-0.4,1-0.8,1.3-1.3c2.5,1,5,0.8,7.4-0.5
			c1.3-0.7,2.2-1.6,2.8-2.3c22.4-1,35-10.7,35.7-27.2C438.8-145.5,430.9-159.7,417-166.6z M434.2-128.9
			c-0.4,10.2-6.4,22.5-32.7,23.4c-0.6,0-1.2,0.4-1.6,0.9c-0.5,0.7-3.2,4.2-7.2,1.5c-0.6-0.4-1.3-0.4-1.9-0.2
			c-0.6,0.3-1.1,0.8-1.2,1.5c0,0.1-0.2,1.1-1.5,1.6c-1.1-0.4-1.4-1.3-1.5-1.6c-0.1-0.7-0.6-1.2-1.2-1.5c-0.2-0.1-0.5-0.2-0.8-0.2
			c-0.4,0-0.8,0.1-1.1,0.3c-4.1,2.7-6.7-0.7-7.2-1.4c0,0,0,0-0.1-0.1c-0.1-0.1-0.1-0.2-0.2-0.2c0,0-0.1-0.1-0.1-0.1
			c-0.1-0.1-0.1-0.1-0.2-0.2c0,0-0.1-0.1-0.1-0.1c0,0,0,0-0.1,0c-13.2-6.1-20.5-13.7-21.7-22.7c-2.2-17,17.9-33.8,18.2-34
			c12.3-10.8,8.8-17.2,8.4-17.9l-1.7,1.1l-1.7,1c0,0,2,4.4-7.5,12.8c-0.9,0.7-22,18.4-19.5,37.6c1.1,8.1,6.2,15.1,15.2,21
			c-18.2-3.3-22.7-13.6-23-22.4c-0.6-15.2,6.5-27.9,18.9-34.1c12.7-6.3,11.9-17.4,11.8-18.6c-0.2-5,0.8-5.8,0.8-5.8
			c0.4-0.1,1.6,0.6,2.5,1.4c0.4,0.4,0.9,0.6,1.5,0.6c0.5,0,1.1-0.3,1.4-0.7c1-1.1,1.7-1.5,2-1.7c0.3,0.5,0.6,1.9,0.6,3
			c0,1.1,0.9,2,1.9,2c1.1,0,2-0.8,2.1-1.9c0.1-1.5,0.7-3,1.1-3.1c0,0,1.4-0.2,5,4.3c0.5,0.7,1.4,0.9,2.2,0.6c0.8-0.3,1.3-1,1.3-1.9
			c0-1.1,0.3-2.5,0.6-3c0.3,0.1,0.9,0.5,2,1.7c0.4,0.4,0.9,0.6,1.4,0.7c0.5,0,1.1-0.2,1.5-0.6c0.8-0.8,2.1-1.5,2.5-1.4
			c0,0,1,0.8,0.8,5.9c-0.1,1.2-0.9,12.3,11.8,18.6C427.7-156.8,434.7-144,434.2-128.9z"/>
		<path d="M404.1-160.7l-0.4-0.3c-7.6-5.9-5.9-18-5.9-18.1c0.2-1.1-0.6-2.1-1.7-2.3c-1.1-0.2-2.1,0.6-2.3,1.7
			c-0.1,0.6-2.1,14.6,7.4,21.9l0.4,0.3c8.5,6.5,21.4,16.4,8.4,41.9c-0.5,1-0.1,2.2,0.9,2.7c0.3,0.1,0.6,0.2,0.9,0.2
			c0.7,0,1.4-0.4,1.8-1.1C428.2-142.3,413.1-153.8,404.1-160.7z"/>
		<path d="M385.7-181.5c-1.1,0.1-1.9,1.1-1.8,2.2c0,0.6,4.6,55.2,2,67.4c-0.2,1.1,0.5,2.1,1.5,2.4c0.1,0,0.3,0,0.4,0
			c0.9,0,1.8-0.6,2-1.6c2.7-12.8-1.8-66.3-2-68.6C387.8-180.7,386.8-181.5,385.7-181.5z"/>
		<path d="M372.8-151.7c0.6-0.9,0.4-2.2-0.5-2.8c-0.9-0.6-2.2-0.4-2.8,0.5c-0.1,0.2-3.6,5.4-4.3,13.9c-0.6,7.7,1.3,19.9,13.1,33.9
			c0.4,0.5,1,0.7,1.5,0.7c0.5,0,0.9-0.2,1.3-0.5c0.8-0.7,0.9-2,0.2-2.8C360.7-133.2,372.3-150.9,372.8-151.7z"/>
	</g>
	<path d="M623.3-148c-0.5-0.4-1-0.7-1.6-0.9c1-2.9,0.9-5.5-0.2-7.6c-1-2-2.8-3.2-4.1-3.8c0.2-2.1-0.3-3.9-1.4-5.4
		c-1.6-2.2-4.2-3-5.9-3.4c-0.3-1.5-1-2.9-2.1-3.9c-2-1.9-4.8-2.6-6.6-2.7c-0.6-2.8-1.9-4.8-3.8-6.1c-2.1-1.4-4.5-1.6-6.1-1.5
		c-0.8-1.6-1.9-2.5-2.8-2.9c-1.7-0.9-3.6-0.8-5-0.6c-1-2-2.4-3.3-4.2-3.8c-2.2-0.7-4.3,0.1-5.6,0.7c-1.8-1-3.5-1.2-5.2-0.8
		c-1.5,0.4-2.5,1.2-3.3,2c-2.5-1.1-4.7-1.2-6.5-0.4c-1.7,0.8-2.7,2.2-3.2,3.3c-2.7-0.1-4.9,0.6-6.3,2.1c-1.2,1.2-1.6,2.7-1.8,3.9
		c-1.9,0-3.6,0.6-4.8,1.7c-1.4,1.2-2.1,2.8-2.4,4c-2.1-0.1-3.7,0.5-4.7,1.7c-1.3,1.5-1.4,3.7-1.1,5.3c-2,0.7-3.6,1.9-4.6,3.5
		c-1.4,2.4-1.4,5.1-1.1,7.1c-1.9,0.5-3.4,1.4-4.3,2.7c-1.2,1.8-1.2,3.8-0.9,5.1c-0.3,0.1-0.5,0.3-0.7,0.5c-1.2,1.4-1.7,2.7-1.2,5.5
		c0.1,0.6-0.3,1.3-0.2,2.3c0.9,8,2.7,29.1,27.7,33.4v3.8c0,0.2,0.5,0.6,0.6,0.8c0.6,2,3.3,5.6,7.4,5.6h32.4c4.2,0,5.7-3.8,6.1-5.7
		c0-0.1-0.4-0.4-0.4-0.6v-3.8c26-4.3,28-25.4,28.9-33.5c0.1-0.9,0.4-1.6,0.5-2.2C624.8-145.6,624.7-146.9,623.3-148z M527.7-151.4
		c0.7-1,2.3-1.3,3.5-1.4c0.6,0,1.2-0.4,1.6-0.9s0.4-1.2,0.2-1.8c0,0-1.2-3.7,0.2-6.1c0.7-1.2,2-1.9,3.9-2.1c0.6-0.1,1.1-0.4,1.4-1
		c0.3-0.5,0.4-1.1,0.2-1.7c-0.4-1-0.6-2.8-0.1-3.4c0.2-0.2,0.6-0.3,1.2-0.3c0.5,0,1,0.1,1.7,0.2c0.6,0.1,1.2,0,1.7-0.4
		c0.5-0.4,0.7-1,0.7-1.6c0,0,0-2.1,1.3-3.2c0.8-0.7,2.1-0.9,3.9-0.6c0.6,0.1,1.3-0.1,1.7-0.6c0.5-0.5,0.7-1.1,0.6-1.8
		c0,0-0.3-1.9,0.7-3c1-1,3-0.9,4.5-0.7c1.1,0.2,2-0.5,2.3-1.6c0,0,0.4-1.7,1.6-2.2c1-0.4,2.5-0.1,4.5,1.1c0.5,0.3,1.1,0.4,1.6,0.2
		c0.5-0.2,1-0.5,1.2-1c0,0,0.7-1.3,1.9-1.6c0.8-0.2,1.9,0.1,3,0.9c0.7,0.5,1.6,0.5,2.3,0c0.5-0.4,2-1.2,3.3-0.8
		c1.2,0.4,1.9,1.9,2.3,3c0.2,0.5,0.6,0.9,1.1,1.2c0.5,0.2,1.1,0.2,1.6,0c0.4-0.2,2.3-0.7,3.6-0.1c0.7,0.3,1.1,1,1.4,2.1
		c0.1,0.5,0.5,1,0.9,1.2c0.5,0.3,1,0.3,1.5,0.2c0,0,2.7-0.7,4.7,0.7c1.3,0.9,2.1,2.6,2.3,5c0.1,1,1,1.9,2.1,1.8c0.9,0,4,0.2,5.5,1.7
		c0.7,0.7,1.1,1.6,1.1,2.8c0,1.1,0.9,2,1.9,2c0.8,0,3.4,0.5,4.6,2c0.7,0.9,0.8,2.2,0.4,3.9c-0.1,0.5,0,1.1,0.2,1.5
		c0.3,0.5,0.8,0.8,1.3,0.9c0,0,2.3,0.7,3.3,2.5c0.7,1.3,0.5,2.5-0.4,5.5h-26h-4.1h-4H580h-3.7h-3.5h-4.2h-4h-4.3h-4.1H553h-1.9
		h-23.8C527.3-150,527.2-150.7,527.7-151.4z M620.7-143.4c-0.1,0.6-0.2,1.4-0.3,2.4c-0.9,8.1-3.5,27-27.2,30.2c-1,0.1-2.2,1-2.2,2
		v5.2c0,0.6,0.1,2.6-1.7,2.6H557c-1.8,0-3-2-4-2.7v-5.1c0-1-0.3-1.8-1.3-2c-23.6-3.2-25.3-21.4-26.2-30.1c0-0.1,0.1-0.2,0.1-0.3
		c-0.1-0.9-0.2-1.6-0.2-2.2c-0.1-1.2,0.2-1.5,0.2-1.6c0.3-0.2,0.3-0.1,0.7-0.1c0.2,0,0.5,0.2,0.7,0.2h1.6h56.3h0.1h31.5h2.9
		c0.2,0,0.3-0.1,0.7-0.2c0.1,0,0.4,0.1,0.5,0.1c0,0,0,0,0.1,0C620.7-144.9,620.9-144.7,620.7-143.4z"/>
	<g>
		<path class="st0" d="M788.1-177.6c0.5-0.5,1.3-0.7,2-0.5c2.9,0.9,6.5,0.4,7.9-1c0.3-0.3,1-1.1,0.2-3.4c-0.6-1.6-1.4-2.5-2.3-2.8
			c-1.2-0.4-2.6,0.3-2.7,0.3c-0.8,0.5-1.9,0.3-2.5-0.4c-0.6-0.7-0.7-1.7-0.2-2.5c0.6-0.8,0-2.1-0.8-3c-1.2-1.2-3.2-2-5.3-0.7
			c-1,0.7-1.6,1.5-1.8,2.5c-0.4,2.1,1.2,4.8,1.8,5.6c0.6,0.8,0.5,1.9-0.2,2.6l-4.8,4.8c1.1,1,2.4,2,3.9,2.9L788.1-177.6z"/>
		<path class="st0" d="M709.4-109.4c0,0-5.3-1-7.3,1.9c-0.7,1.1-0.7,2.3,0,3.2c0.8,1.1,2.7,1.9,5.4,0.9c0.2-0.1,0.5-0.1,0.7-0.1
			c0.6,0,1.2,0.3,1.6,0.8c0.5,0.7,0.5,1.7,0,2.4c-0.3,0.4-1.6,2.3,0,3.8c1.5,1.5,3.6,0.2,4.2-0.3c2-1.4,3.4-4.2,2.1-6.8
			c-0.4-0.8-0.2-1.8,0.5-2.4l5.2-4.6c0-0.1-0.1-0.2-0.1-0.4c-0.8-2-2.3-3.5-4.1-4.5l-6.4,5.5C710.6-109.4,710-109.3,709.4-109.4z"/>
		<path d="M800.8-176.4c1-1.1,2.5-3.5,1-7.5c-1-2.7-2.6-4.4-4.7-5.2c-0.9-0.3-1.7-0.4-2.5-0.4c-0.2-1.4-0.9-2.9-2.1-4.2
			c-2.3-2.4-6.4-3.8-10.4-1.3c-2,1.3-3.2,3.1-3.6,5.2c-0.5,2.9,0.7,5.6,1.6,7.3l-3.6,3.6c-0.6-0.8-1.3-1.5-1.8-2.3
			c-1.2-1.5-2.3-2.9-3.5-4c-5.4-4.9-12.1-6.4-18.8-4c-7.4,2.6-13.6,9.3-14.7,16c-1.4,8.8-8.7,14.4-15.2,15.3
			c-0.8,0.1-1.6,0.2-2.4,0.3c-5,0.5-9.7,1-17.6,11.9c-4.3,6-5.5,12.8-3.3,18.8c1.7,4.5,5,7.8,8.8,8.7c0.4,0.1,0.8,0.2,1.3,0.3
			c1.2,0.3,2.5,0.6,3.8,1l-4.1,3.5c-2.2-0.2-7.5-0.4-10.4,3.6c-1.8,2.5-1.7,5.6,0.1,8c1.4,1.8,3.6,2.9,6.1,2.9
			c-0.2,1.7,0.1,3.7,1.9,5.4c1.3,1.2,2.8,1.8,4.4,1.8c1.6,0,3.3-0.6,4.8-1.7c3-2.1,5.1-6.2,4-10.3l2.9-2.6c1.7,5,4.5,9.8,17.3,12.3
			c1.2,0.2,2.4,0.3,3.5,0.3c11.5,0,18.2-11.3,20.3-18c0.8-1.3,5.8-9.1,12.6-12.5c1.4-0.7,2.8-1.3,4.4-1.9c7.1-2.9,16-6.5,18.7-21.5
			c3.1-17.7-10.8-22.8-12.1-23.2c-0.2-0.1-0.4-0.2-0.7-0.3l2.9-2.8C793.8-173.2,798.4-173.7,800.8-176.4z M716.5-105.9
			c-0.7,0.6-0.9,1.6-0.5,2.4c1.2,2.5-0.2,5.3-2.1,6.8c-0.6,0.4-2.6,1.7-4.2,0.3c-1.6-1.5-0.2-3.5,0-3.8c0.5-0.7,0.6-1.7,0-2.4
			c-0.4-0.5-1-0.8-1.6-0.8c-0.2,0-0.5,0-0.7,0.1c-2.7,1-4.6,0.2-5.4-0.9c-0.7-1-0.7-2.2,0-3.2c2-2.9,7.3-1.9,7.3-1.9
			c0.6,0.1,1.2,0,1.7-0.4l6.4-5.5c1.8,1,3.4,2.5,4.1,4.5c0,0.1,0.1,0.2,0.1,0.4L716.5-105.9z M786.4-167.1c0,0,0.1,0,0.1,0
			c0.5,0.1,12.1,3.7,9.4,18.7c-2.3,12.9-9.1,15.6-16.2,18.5c-1.6,0.6-3.2,1.3-4.7,2c-8.4,4.2-14.1,13.9-14.3,14.3
			c-0.1,0.1-0.1,0.3-0.2,0.4c-0.1,0.2-5.6,17.8-19.4,15.1c-12-2.3-13.2-6-14.8-11.2c0,0,0,0,0,0c-0.3-1-0.6-2-1-3
			c-1.6-4.1-5-6.4-8.5-7.8c-2.3-0.9-4.7-1.4-6.5-1.8c-0.4-0.1-0.9-0.2-1.2-0.3c-2.5-0.6-4.8-3-6-6.2c-1-2.7-2-8.4,2.8-15
			c6.8-9.4,10.3-9.8,14.7-10.2c0.8-0.1,1.7-0.2,2.6-0.3c7.9-1.2,16.8-8,18.5-18.7c0.8-5.2,6.1-10.8,12-12.9c1.4-0.5,3.2-0.9,5-0.9
			c3,0,6.4,1,9.8,4.1c1,0.9,2,2.1,3.1,3.5c0.7,0.8,1.4,1.7,2.1,2.6c2.4,2.8,5.4,5.7,10.2,7.9C784.8-167.8,785.6-167.5,786.4-167.1z
			 M788.1-177.6l-4.8,4.6c-1.5-0.9-2.8-1.9-3.9-2.9l4.8-4.8c0.7-0.7,0.8-1.8,0.2-2.6c-0.6-0.8-2.2-3.5-1.8-5.6
			c0.2-1,0.8-1.8,1.8-2.5c2.2-1.4,4.2-0.6,5.3,0.7c0.8,0.9,1.4,2.2,0.8,3c-0.5,0.8-0.5,1.8,0.2,2.5c0.6,0.7,1.7,0.8,2.5,0.4
			c0,0,1.4-0.8,2.7-0.3c0.9,0.3,1.7,1.3,2.3,2.8c0.9,2.3,0.1,3.1-0.2,3.4c-1.3,1.4-4.9,1.9-7.9,1
			C789.3-178.3,788.6-178.1,788.1-177.6z"/>
	</g>
	<path d="M974.9-138.6l0-16.2c0.1-1.1-0.3-6.9-13.2-14L938-182.5c-1.1-0.8-7-4.7-16,0.1c-1.8,0.8-27.2,12.3-41.5,22.6
		c-0.7,0.5-5.6,4-5.4,11.4c0,0.6,0.3,13.7,2.3,20.8c0.3,1.2,1.1,2.1,2.2,2.7c0,0,0,0,0,0l38.2,19.6c0.4,0.2,2.9,1.7,6.1,2
		c0.2,0,0.3,0.3,0.5,0.3c0,0,0,0,0,0c0.1,0,0.1-0.2,0.2-0.2c0.2,0,0.4-0.1,0.6-0.1c2.3,0,4.9-0.6,7.5-2.3l39-22.1
		c0.4-0.1,0.8-0.4,1.2-0.8C974.4-130.1,975-133.4,974.9-138.6z M882.8-156.5c14.2-10.3,40.6-22.2,40.9-22.3c0,0,0.1,0,0.1-0.1
		c7.3-4,11.6-0.6,11.7-0.5c0.1,0.1,0.2,0.2,0.3,0.2l23.9,13.9c4.6,2.6,7.3,4.8,8.9,6.6c-17.3,9.8-43,24.3-44.6,25
		c-0.8,0.4-2-0.6-2.3-0.8c-0.1-0.1-0.3-0.2-0.4-0.3l-38.7-21.5c0,0,0.1,0,0.1,0C882.7-156.4,882.8-156.5,882.8-156.5z M919.6-108.8
		l-38.2-19.6c-0.1,0-0.2-0.1-0.2-0.2c-1.9-6.6-2.1-19.6-2.1-19.8c-0.1-2,0.4-3.6,1-4.8l39.1,21.7c0.7,0.6,1.7,1.3,2.9,1.6l0.2,22.1
		C920.8-108.1,919.8-108.7,919.6-108.8C919.7-108.8,919.7-108.8,919.6-108.8z M969.6-131.5C969.6-131.4,969.7-131.4,969.6-131.5
		l-39.1,22.3c0,0,0,0.1-0.1,0.1c-1.4,0.9-2.8,1.4-4.1,1.6l-0.2-22.8c4.6-2.4,38-21.5,44.2-25c0.1,0.2-0.3,0.4-0.3,0.4c0,0,0,0,0,0
		v16.3C971-133.5,969.9-131.9,969.6-131.5z"/>
	<g>
		<path d="M1117.2-97h-60.5c-1.1,0-2-0.8-2-1.9l-1.5-43c-3.9-1.8-14.9-8.1-13.5-22.5c1.6-16.5,19.7-27.3,45-26.8
			c21.5,0.4,46.6,3.8,49.4,25.8c0.9,6.8-0.4,12.2-3.7,16.1c-3.4,4-8.1,5.3-10.8,5.7l-0.5,44.6C1119.2-97.8,1118.3-97,1117.2-97z
			 M1058.6-101h56.6l0.5-44.4c0-1.1,0.9-1.9,2-2c0.1,0,6.1-0.2,9.8-4.6c2.6-3,3.5-7.3,2.8-12.9c-1.9-14.8-16-21.7-45.6-22.3
			c-23.2-0.5-39.6,8.8-41,23.2c-1.3,14.2,12,18.8,12.1,18.8c0.8,0.3,1.3,0.9,1.4,1.8L1058.6-101z"/>
		<path d="M1069.7-137.9c-0.5,0-1-0.2-1.4-0.6c-0.8-0.8-0.8-2,0-2.8l22-22.5c0.8-0.8,2-0.8,2.8,0c0.8,0.8,0.8,2,0,2.8l-22,22.5
			C1070.7-138.1,1070.2-137.9,1069.7-137.9z"/>
		<path d="M1066.2-147.4c-0.5,0-1-0.2-1.4-0.6c-0.8-0.8-0.8-2,0-2.8l15-15c0.8-0.8,2-0.8,2.8,0s0.8,2,0,2.8l-15,15
			C1067.2-147.6,1066.7-147.4,1066.2-147.4z"/>
		<path d="M1073.2-129.4c-0.5,0-1-0.2-1.4-0.6c-0.8-0.8-0.8-2.1,0-2.8l28.5-28c0.8-0.8,2.1-0.8,2.8,0c0.8,0.8,0.8,2.1,0,2.8
			l-28.5,28C1074.2-129.6,1073.7-129.4,1073.2-129.4z"/>
		<path d="M1079.7-122.4c-0.5,0-1-0.2-1.4-0.6c-0.8-0.8-0.8-2,0-2.8l26-26c0.8-0.8,2-0.8,2.8,0s0.8,2,0,2.8l-26,26
			C1080.7-122.6,1080.2-122.4,1079.7-122.4z"/>
		<path d="M1090.7-120.9c-0.5,0-1-0.2-1.4-0.6c-0.8-0.8-0.8-2,0-2.8l15-15c0.8-0.8,2-0.8,2.8,0s0.8,2,0,2.8l-15,15
			C1091.7-121.1,1091.2-120.9,1090.7-120.9z"/>
	</g>
	<path class="st0" d="M1168.2,161.9c0.6-0.3,1.3-0.4,1.9-0.1c0.6,0.3,1,0.8,1.1,1.5c0.1,0.9,0.6,1.5,1.3,1.9c1.5,0.9,4.2,0.8,7-0.2
		c4-1.4,2.7-8.3,2.7-8.4c-0.2-1,0.4-2,1.4-2.3l38.7-12c-0.5-1.8-0.8-4.4,0.2-6.9c1-2.5,3.2-4.4,6.4-5.4c7.3-2.4,12.5,1.1,14.9,4
		c1.5-0.3,3.6-0.9,5.1-1.8c0.9-0.6,1.5-1.8,1.8-2.8c0.1-0.3,0.1-0.5,0.2-0.7c-1.2-1.8-2.5-3.6-3.9-5.4
		c-12.4-15.3-33.9-31.3-34.2-31.5c-2-1.4-3.3-1.8-3.9-1.6c-0.2,0.1-0.4,0.3-0.4,0.3c-0.1,0.2-0.1,0.3-0.2,0.4l-16.9,26.3
		c2.9,2.2,6.3,6.4,6.4,10.8c0.1,2.6-1,6.2-6.3,8.9c-3.9,2-7.6,2.5-11.1,1.4c-2.7-0.9-4.6-2.6-5.9-4.1c-6,8.2-12,17.2-15.7,23.7
		c-2.3,4-3.8,7-4,8.5c0.5,0.1,1.3,0.1,2.2,0C1160,166,1164.4,164.1,1168.2,161.9z"/>
	<g>
		<path d="M900.8,65.6c-2.9,0-5.3-2.4-5.3-5.3s2.4-5.3,5.3-5.3s5.3,2.4,5.3,5.3S903.7,65.6,900.8,65.6z M900.8,59.2
			c-0.6,0-1.1,0.5-1.1,1.1s0.5,1.1,1.1,1.1s1.1-0.5,1.1-1.1S901.5,59.2,900.8,59.2z"/>
		<path d="M902.8,89.6c-2.9,0-5.3-2.4-5.3-5.3s2.4-5.3,5.3-5.3s5.3,2.4,5.3,5.3S905.7,89.6,902.8,89.6z M902.8,83.2
			c-0.6,0-1.1,0.5-1.1,1.1s0.5,1.1,1.1,1.1s1.1-0.5,1.1-1.1S903.5,83.2,902.8,83.2z"/>
		<path d="M902.8,42.6c-2.9,0-5.3-2.4-5.3-5.3s2.4-5.3,5.3-5.3s5.3,2.4,5.3,5.3S905.7,42.6,902.8,42.6z M902.8,36.2
			c-0.6,0-1.1,0.5-1.1,1.1s0.5,1.1,1.1,1.1s1.1-0.5,1.1-1.1S903.5,36.2,902.8,36.2z"/>
		<g>
			<path class="st0" d="M907.1,47.1c0.1,0,3.9,0.3,6.2-2c1.4-1.4,2-3.5,1.9-6.4c-9.7-7.9-18.9-7.4-19.7-7.3c-2.9,0.6-5,1.1-6.4,1.5
				c1.7,2.3,5,5.9,7.4,8.4c3.1,2.5,6.6,4.4,10.1,5.9C906.8,47,906.9,47,907.1,47.1z"/>
			<path class="st0" d="M964.2,41.5c-0.2-0.2-0.3-0.3-0.4-0.3c-1.1-0.1-3.1,1.2-4.2,2.3c-0.3,0.3-0.7,0.5-1.2,0.5
				c-1.4,0.1-2.7,0.2-4,0.3c-1.6,0.1-3.2,0.1-4.7,0.1c-2.5,0-4.9-0.1-7.1-0.2c-2.2-0.2-4.3-0.4-6.1-0.6c-6.3-0.8-10.3-2-11.1-2.2
				c-3-0.6-5-0.9-6.2-1.1c-0.1,3.2-1.1,5.8-3,7.7c-0.6,0.6-1.3,1.1-2,1.5c1.1,0.3,2.1,0.5,3.2,0.7c4.3,0.8,8.6,1.1,12.3,1.1
				c8.4,0.1,14.7-1.2,14.8-1.2l1.8-0.4l6-1.4l7.5-1.8c0.2-0.1,0.5-0.1,0.7,0c5.3,0.7,6.2-0.2,6.2-0.3c0.2-0.5-0.6-2-2.3-4.4
				L964.2,41.5z"/>
			<path class="st0" d="M951.5,40.4c2.2-5.7,1.3-9.1,1.3-9.1c-0.2-0.8,0-1.6,0.6-2.1c2.1-1.9,4.8-5.5,4.2-6.9
				c-0.5-1.1-2.9-2.5-4.6-2.1c-2,0.5-2.9,3.7-2.4,8.7c0,0,0,0.1,0,0.1c0,0.4,0.1,5.7-4.4,11.4C947.9,40.4,949.7,40.4,951.5,40.4z"/>
			<path class="st0" d="M908.7,65.3c1.2-0.8,1.9-1.8,2-2.9c0.2-2.6-2.5-5.8-3.7-7c-5.4,0.6-14.1,2.4-18.8,8.2
				c1.7,1.2,6.8,3.4,19.9,2.4C908.2,65.7,908.4,65.5,908.7,65.3z"/>
			<path class="st0" d="M927.2,55.2c-3.3-0.1-6.5-0.4-9.5-1c-1.8,0.3-3.6,0.5-5.6,0.8c1.4,2,2.9,4.8,2.7,7.7
				c-0.1,0.8-0.3,1.7-0.7,2.6c0.1,0,0.1,0,0.2,0c0.1,0,0.1,0,0.2,0c0.2,0,16.6-0.7,27.5-10.8c-2.7,0.4-6.7,0.8-11.5,0.8
				C929.3,55.3,928.3,55.2,927.2,55.2z"/>
			<path d="M918.3,36.1c-0.1,0-0.1-0.1-0.2-0.1C918.2,36,918.3,36,918.3,36.1C918.3,36.1,918.3,36.1,918.3,36.1z"/>
			<path d="M967.6,39.4l-0.1-0.2c-0.8-1.2-1.9-1.8-3.3-2c-2.7-0.3-5.6,1.8-6.8,2.8c-0.5,0-0.9,0.1-1.4,0.1c1.3-4.1,1.3-7.1,1.1-8.8
				c2-2,6.2-6.8,4.3-10.9c-1.3-2.8-5.7-5.3-9.4-4.3c-2.4,0.6-6.3,3.2-5.5,13c0,0.7-0.2,5.7-5.5,10.9c-8.8-0.8-14.4-2.5-14.5-2.6
				c-0.1,0-0.1,0-0.2-0.1c-4.5-0.9-6.8-1.2-7.9-1.3c0,0,0,0,0,0c0,0-0.1-0.1-0.1-0.1c-11.6-9.9-22.8-8.7-23.3-8.6
				c-0.1,0-0.1,0-0.2,0c-6.8,1.4-9.3,2.4-9.4,2.5c-1,0.4-1.4,1.5-1.1,2.5c1.1,3.3,8.1,10.4,9.5,11.8c0,0,0.1,0.1,0.2,0.1
				c3.6,2.9,7.7,5.2,12.4,7c-6.5,0.7-17.4,3.2-22.5,11.3c-0.4,0.6-0.4,1.3-0.2,1.9c0.5,1.1,3.4,5.8,18.3,5.8c3.5,0,7.8-0.3,12.8-0.9
				c1.7-0.1,20.6-1.2,32.2-14.1c0.3-0.3,0.6-0.6,0.8-1c0.3-0.4,0.6-0.8,0.9-1.2l11.6-2.8c5.4,0.7,8.5,0,9.8-2.2
				C971.8,45.3,969.3,41.8,967.6,39.4z M950.6,28.9c0,0,0-0.1,0-0.1c-0.4-5,0.5-8.2,2.4-8.7c1.8-0.5,4.1,1,4.6,2.1
				c0.7,1.5-2,5-4.2,6.9c-0.6,0.5-0.8,1.4-0.6,2.1c0,0.1,0.9,3.4-1.3,9.1c-1.9,0-3.6,0-5.3,0C950.6,34.6,950.6,29.4,950.6,28.9z
				 M896.5,41.2c-2.4-2.4-5.7-6-7.4-8.4c1.4-0.4,3.4-0.9,6.4-1.5c0.8-0.1,10-0.6,19.7,7.3c0.1,2.9-0.5,5-1.9,6.4
				c-2.3,2.3-6.1,2-6.2,2c-0.2,0-0.3,0-0.4,0C903.1,45.6,899.6,43.7,896.5,41.2z M888.2,63.5c4.6-5.7,13.4-7.6,18.8-8.2
				c1.2,1.2,3.9,4.4,3.7,7c-0.1,1.1-0.7,2.1-2,2.9c-0.2,0.2-0.4,0.4-0.6,0.6C894.9,66.9,889.9,64.7,888.2,63.5z M914.4,65.3
				c-0.1,0-0.1,0-0.2,0c-0.1,0-0.1,0-0.2,0c0.5-1,0.7-1.9,0.7-2.6c0.2-2.9-1.3-5.7-2.7-7.7c2-0.2,3.8-0.5,5.6-0.8
				c3,0.5,6.2,0.8,9.5,1c1.1,0,2.2,0.1,3.2,0.1c4.8,0,8.9-0.4,11.5-0.8C931,64.6,914.6,65.3,914.4,65.3z M966.6,46.1
				c0,0-0.9,0.9-6.2,0.3c-0.2,0-0.5,0-0.7,0l-7.5,1.8l-6,1.4l-1.8,0.4c-0.1,0-6.3,1.3-14.8,1.2c-3.8,0-8-0.3-12.3-1.1
				c-1.1-0.2-2.1-0.4-3.2-0.7c0.7-0.4,1.4-0.9,2-1.5c1.9-1.9,2.9-4.5,3-7.7c1.2,0.2,3.1,0.5,6.2,1.1c0.8,0.2,4.8,1.4,11.1,2.2
				c1.9,0.2,3.9,0.5,6.1,0.6c2.2,0.2,4.6,0.2,7.1,0.2c1.5,0,3.1,0,4.7-0.1c1.3-0.1,2.6-0.2,4-0.3c0.4,0,0.9-0.2,1.2-0.5
				c1.1-1,3.2-2.4,4.2-2.3c0.1,0,0.3,0,0.4,0.3l0.1,0.2C966,44.1,966.8,45.6,966.6,46.1z"/>
		</g>
		<path d="M967,55.5c-2.9-1.4-5-0.8-6.2,0c-3.1,2-3.7,6.9-3.8,8.9c-1.7,2-5.4,2.8-6.8,3c-6.1,0.6-11.8,6-13.7,8
			c-5.3,0-9,1.5-10.1,2.1c-4.5,0.7-14.2-0.8-17.6-1.4c-0.1,0-0.2,0-0.4,0c-17.4,0-25,6.9-25.7,7.6c-1.9,1.7-1.7,3.3-1.4,4.2
			c0.6,1.9,2.8,4,14.1,5.8c5.8,0.9,11.3,1.3,11.6,1.3c1.7,0.1,3.2,0.1,4.7,0.1c16.2,0,21.5-3.8,23.3-6.1c6.5-0.3,11.2-1.9,13.8-4.6
			c1.5-1.6,1.9-3.2,2-4.1c2.1-3.2,9.8-8.2,14.5-10.7c2-0.7,7.3-2.7,7.5-6.7C973,58.5,968,55.9,967,55.5z M885.6,86.5
			C885.6,86.5,885.6,86.5,885.6,86.5c0.1-0.1,6.6-6.4,22.8-6.5c0.4,0.1,1.6,0.3,3.2,0.5c0,0,0,0,0,0c1.4,1.1,4,4,3.7,6.2
			c-0.3,1.9-2.9,3.1-5,3.9c-0.9,0-1.9,0-2.9-0.1C897.4,89.9,887.7,88.1,885.6,86.5z M947,78.4c-0.2,0.3-0.3,0.7-0.2,1.1
			c0,0-0.1,0.8-1,1.8c-1.1,1.2-4.1,3.2-12,3.4c-1,0-1.8,0.5-1.9,1.4c-0.3,0.5-2.7,3.6-13.9,4.5c0.7-0.9,1.2-1.9,1.3-3
			c0.4-2.3-0.5-4.4-1.6-6.2c3.5,0.3,7.3,0.5,9.8,0c0.2,0,0.5-0.1,0.7-0.2c0,0,3.6-2,9.2-1.7c0.6,0,1.3-0.2,1.7-0.7
			c1.6-1.9,6.8-6.8,11.7-7.3c0.5,0,3.1-0.4,5.7-1.6C952.7,72.3,948.5,75.5,947,78.4z M963.8,65.4c-0.1,0-0.2,0.1-0.3,0.1
			c-0.5,0.2-2.1,1.2-4.2,2.4c0.6-0.5,1.2-1.1,1.6-1.9c0.2-0.3,0.3-0.7,0.3-1.1c0-1.7,0.5-5.2,1.9-6.1c0.2-0.1,0.4-0.2,0.7-0.2
			c0.4,0,0.9,0.1,1.5,0.4c1.6,0.7,3.4,2.3,3.4,3.1C968.7,62.3,968.6,63.7,963.8,65.4z"/>
	</g>
	<g>
		<path d="M723.7,40.2c-0.2,0-0.4,0-0.6,0c-0.9-0.1-1.8-0.1-2.7-0.1c-2.7,0-5,0-6.3-1.7c-0.9-1.1-1.2-2.7-0.7-5c0-0.1,0-0.1,0-0.2
			c0.4-1.1,1.3-4.6,0.8-6.7c-0.2-0.8-0.2-2.3,1.6-3.7c2.7-2.1,8.6-3,12.2-1.1c2.1,1.1,3.5,2.7,4,4.6c0.6,2,0.2,4.3-1.1,6.3
			c-0.4,0.6-0.6,1.3-0.9,2.1C729.2,37,728.1,40.2,723.7,40.2z M716.3,34.1c-0.2,1.2-0.2,2.1,0.1,2.5c0.5,0.6,2.3,0.6,4,0.6
			c0.9,0,1.8,0,2.8,0.1c2.5,0.2,3-0.9,3.9-3.4c0.3-0.9,0.7-1.9,1.2-2.7c0.8-1.3,1.1-2.7,0.7-3.9c-0.3-1.1-1.1-2.1-2.5-2.8
			c-2.5-1.3-7.1-0.6-9,0.9c-0.4,0.3-0.5,0.6-0.5,0.6C717.8,29,716.5,33.4,716.3,34.1z"/>
		<g>
			<path class="st0" d="M774,38.6c-0.1-0.5-0.3-1.1-0.4-1.5C773.7,37.5,773.9,38,774,38.6z"/>
			<path class="st0" d="M774.3,40.5c-0.1-0.4-0.1-0.8-0.2-1.2C774.2,39.7,774.3,40,774.3,40.5z"/>
			<path class="st0" d="M773.6,36.8c-0.2-0.5-0.3-1.1-0.5-1.6C773.2,35.8,773.4,36.3,773.6,36.8z"/>
			<path class="st0" d="M725.3,52.6c0,0.3,0.1,1.4,0.3,2.2c0.2,1.2,0.4,2.6,0.4,3.7c0,3.1-3.3,3.9-6.1,4.5l-0.3,0.1
				c-0.6,0.1-1.1,0.2-1.7,0.2c-0.4,0-0.8,0-1.2-0.1c-8.1,14.8-6.2,23.7-4.8,27.2c0.4,1,0.8,1.6,0.9,1.7c0.1,0.1,0.4,0.4,0.9,0.8
				c1.3,1,3.8,2.6,7.9,2.7c6.1,0.2,16.6-2.8,32-18.7c12.2-12.6,18.4-24.4,18.1-34.2c-0.2-5.4-2.2-8.8-3.5-10.5
				c-0.4-0.5-0.7-0.8-0.8-1c-0.3-0.1-0.9-0.4-1.8-0.6c-5.5-1.6-22-3.5-40.1,19.6C725.5,51.5,725.3,52.5,725.3,52.6z"/>
			<path class="st0" d="M773,35.3C773,35.3,773,35.3,773,35.3c0,0.5,0.4,1,0.5,1.6c0,0.1,0,0.1,0.1,0.2c0.1,0.5,0.3,1,0.4,1.5
				c0,0.2,0.1,0.5,0.1,0.7c0.1,0.4,0.2,0.8,0.2,1.2c0.1,0.7,0.1,1.4,0.2,2.1c0.4,10.9-6,23.1-18.9,36.5
				c-12.6,13-23.8,19.6-33.5,19.6c-0.3,0-0.6,0-0.9,0c-0.5,0-0.9-0.1-1.4-0.1c5.8,3.8,15.1,7.2,27.8,4c0.1,0,0.1,0,0.2,0
				c0.1,0,10.2-1.3,24-17.4c0.7-1,11.6-16.6,12-29.4c0-1.3-0.1-2.6-0.3-3.8C782.2,44.1,777,38.6,773,35.3z"/>
			<polygon points="710.3,94 710.3,94 710.3,94 			"/>
			<polygon points="710.3,94 710.3,94 710.3,94 			"/>
			<path d="M774.5,42.6c0-0.7-0.1-1.4-0.2-2.1C774.4,41.1,774.5,41.8,774.5,42.6z"/>
			<path d="M774.1,39.3c0-0.2-0.1-0.5-0.1-0.7C774,38.8,774.1,39,774.1,39.3z"/>
			<path d="M773.6,37c0-0.1,0-0.1,0-0.2C773.6,36.9,773.6,37,773.6,37z"/>
			<path d="M783.5,51.8c-1.3-7.8-6.4-13.3-10.6-16.7c0,0,0,0.1,0,0.1c0,0,0,0,0,0C777,38.6,782.2,44.1,783.5,51.8
				c0.2,1.3,0.3,2.6,0.3,3.9C783.8,54.4,783.7,53.1,783.5,51.8z"/>
			<path d="M786.5,51.5c-2.3-13.3-13.9-20.5-17-22.1c-0.2-0.3-0.4-0.4-0.4-0.4c-0.1-0.1-0.2-0.2-0.3-0.2c0,0,0,0,0,0
				c-0.9-0.4-21.7-9.9-44.7,18.5c-0.9-1.1-2.3-1.8-3.9-2c-0.2,0-0.5-0.1-0.8-0.1c-2-0.3-5.7-1-8.1,1.3c-1.5,1.5-2.2,3.9-1.8,7.1
				c-0.3,1.3-0.8,5.5,1.7,7.2c0.8,0.5,1.7,1.2,2.8,1.7c-11.1,20.8-3.9,31-3.5,31.6c0,0,0,0,0,0c0,0,0,0,0,0c0,0,0,0,0,0
				c0.1,0.2,3.2,3.8,9.5,4.6c0.4,0.1,0.9,0.1,1.4,0.1c0.3,0,0.6,0,0.9,0c9.6,0,20.9-6.6,33.5-19.6c13-13.4,19.3-25.7,18.9-36.5
				c0-0.7-0.1-1.4-0.2-2.1c-0.1-0.4-0.1-0.8-0.2-1.2c0-0.2-0.1-0.5-0.1-0.7c-0.1-0.5-0.3-1.1-0.4-1.5c0-0.1,0-0.1,0-0.2
				c-0.2-0.5-0.3-1.1-0.5-1.6c0,0,0-0.1,0-0.1c4.1,3.3,9.2,8.9,10.5,16.7c0.2,1.3,0.3,2.6,0.3,3.9c-0.3,12.9-11.3,28.5-12,29.4
				c-13.8,16.2-23.9,17.4-24,17.4c-0.1,0-0.1,0-0.2,0c-12.7,3.2-22-0.3-27.8-4c-6.3-0.7-9.4-4.4-9.5-4.6c0,0,0,0,0,0
				c0.2,0.3,3.4,4.6,9.7,8.1c4.1,2.4,10.2,4.7,18,4.7c3.1,0,6.6-0.4,10.2-1.3c1.3-0.2,11.8-2,25.9-18.5c0,0,0.1,0,0.1,0
				C774.8,86.2,789.1,66.4,786.5,51.5z M712.7,58.2c-0.7-0.4-0.7-2.6-0.4-4.3c0-0.2,0-0.3,0-0.5c-0.2-1.6-0.2-3.8,0.9-4.8
				c1.3-1.2,3.9-0.8,5.5-0.5c0.4,0.1,0.7,0.1,1,0.1c1,0.1,1.7,0.5,2.1,1c0.1,0.1,0.2,0.3,0.3,0.4c0.4,0.9,0.4,2,0.3,2.5
				c-0.1,0.5,0,1.1,0.1,2c0.1,0.4,0.1,0.8,0.2,1.2c0.2,1.1,0.4,2.3,0.4,3.2c0,0.7-2,1.2-3.8,1.6l-0.3,0.1c-0.2,0-0.3,0-0.5,0.1
				c-1.1,0.1-2.1-0.2-3.1-0.6C714.3,59.3,713.5,58.7,712.7,58.2z M753.4,77c-15.3,15.8-25.8,18.9-32,18.7c-4-0.1-6.6-1.7-7.9-2.7
				c-0.5-0.4-0.8-0.7-0.9-0.8c-0.1-0.1-0.5-0.7-0.9-1.7c-1.4-3.5-3.2-12.4,4.8-27.2c0.4,0.1,0.8,0.1,1.2,0.1c0.5,0,1.1-0.1,1.7-0.2
				l0.3-0.1c2.9-0.7,6.1-1.4,6.1-4.5c0-1.1-0.2-2.5-0.4-3.7c-0.1-0.8-0.3-1.9-0.3-2.2c0-0.2,0.2-1.1,0-2.3
				c18.1-23.2,34.5-21.2,40.1-19.6c0.9,0.2,1.5,0.5,1.8,0.6c0.2,0.2,0.5,0.5,0.8,1c1.3,1.6,3.3,5.1,3.5,10.5
				C771.8,52.6,765.6,64.5,753.4,77z"/>
		</g>
		<path d="M737,85.9c-0.6,0-1-0.1-1.4-0.2c-1.9-0.7-3.2-2.8-3.3-5.4c-0.1-0.7-0.4-2.9,0.8-4.8c0.9-1.3,2.2-2.2,4.1-2.5
			c3.3-0.6,6.1,0.3,7.3,2.3c0.8,1.4,1.1,3.8-1.9,7.3C740.4,85.2,738.4,85.9,737,85.9z M739.2,75.7c-0.4,0-0.9,0-1.4,0.1
			c-1,0.2-1.7,0.6-2.1,1.2c-0.7,1.1-0.4,2.7-0.4,2.7c0,0.1,0,0.2,0,0.4c0,1.3,0.5,2.5,1.3,2.8c0.9,0.3,2.3-0.5,3.7-2.2
			c1.4-1.7,2-3.1,1.5-3.9C741.6,76.2,740.6,75.7,739.2,75.7z"/>
		<path d="M764.7,61.4c-0.4-3.8-4.3-4.7-6.4-4.7c-5.7-0.5-8,7.2-8.4,9.1c-1.2-0.1-2.8,0.3-4.5,2.4c-0.8,1-0.8,3-0.5,4.5
			c0.3,1.6,1.1,2.8,2.3,3.5c0.9,0.5,1.9,0.7,2.9,0.7c0.6,0,1.3-0.1,1.9-0.3c1.2-0.4,2.2-1.3,2.7-2.3c0.1-0.2,0.1-0.4,0.2-0.6
			c0.3,0.1,0.6,0.1,1,0.1c0.6,0,1.2-0.1,1.8-0.4C761.5,71.9,765,64.7,764.7,61.4z M750.9,73.8c-0.7,0.3-1.6,0.2-2.3-0.2
			c-1.1-0.6-1-2.9-0.8-3.5c0.5-0.6,1.3-1.5,2-1.2c0.2,0.1,0.3,0.2,0.5,0.4c0.3,0.6,0.6,1.2,1.1,1.9c0.3,0.8,0.5,1.6,0.4,2
			C751.6,73.4,751.4,73.6,750.9,73.8z M756.3,70.7c-0.6,0.2-1.3,0.3-2.2-0.8c-0.1-0.1-0.1-0.2-0.2-0.3c-0.3-0.7-0.7-1.3-1.1-1.9
			c-0.2-0.5-0.2-0.9-0.2-0.9c0.2-0.7,1.8-7.4,5.4-7.1c0.1,0,0.1,0,0.2,0c0,0,3.3-0.1,3.5,2C761.9,63.6,759.1,69.6,756.3,70.7z"/>
		<path d="M734.4,20.5c-0.5,0-1.1,0-1.8-0.1c-3.7-0.5-3.8-6.2-3.8-6.8c0-0.4,0.2-0.8,0.4-1.1c1.4-1.4,3.7-1.2,6.4,0.5
			c0.7,0.5,4.2,2.9,3.4,5.1C738.6,19.3,737.5,20.5,734.4,20.5z M731.9,14.6c0.2,1.4,0.6,2.7,1.1,2.8c1.6,0.2,2.6,0.1,3-0.2
			c-0.6-0.8-2.4-2.3-3.9-2.6C732,14.6,732,14.6,731.9,14.6z"/>
		<path d="M745.8,23.2c-0.7,0-1.3-0.2-1.7-0.3l-0.2,0c-2.3-0.6-3.1-3.7-2.7-5.6c0.1-0.7,0.7-1.3,1.4-1.5c1.8-0.5,4.1,1.5,4.9,2.3
			c1.3,1.4,1.3,2.5,1,3.2C747.9,22.8,746.8,23.2,745.8,23.2z M744.2,19.3c0.1,0.3,0.3,0.6,0.4,0.7l0.2,0c0.1,0,0.2,0.1,0.4,0.1
			C744.9,19.8,744.6,19.5,744.2,19.3z"/>
		<g>
			<path d="M732.1,61.6c-0.1,0.1-0.2,0.3-0.3,0.4c0.1,0.1,0.2,0.2,0.4,0.3C732.1,62,732.1,61.8,732.1,61.6z"/>
			<path d="M772.3,40.1c-7.8-1.8-15.8,0-23.8,5.3c-0.3-0.7-0.6-1.3-1.2-1.7c-0.8-0.7-2.6-1.5-5.4,0.5c-0.2,0.2-0.4,0.4-0.5,0.6
				c-0.6,1.4-1.2,4.2,0.5,5.8c-1.3,1.2-2.5,2.4-3.7,3.7c-1.2,0.4-2.8,1.1-4.5,2.8c-1.4,1.4-1.7,3.1-1.7,4.5c0,0.3,0,0.5,0,0.7
				c-0.1-0.1-0.2-0.2-0.4-0.3c-1.7-1.4-3.6-2.4-5.1-1.8c-0.3,0.1-0.6,0.2-0.9,0.3c-1.9,0.6-5.2,1.5-6.6,6.1l0,0
				c-0.4,1.3,0.5,2.5,1.3,3.7c0.3,0.5,0.9,1.3,1,1.6c0,0.3,0,0.6-0.1,0.9c-0.1,0.9-0.1,2,0.5,3c-0.6,0.2-1.1,0.5-1.7,0.8l-0.6,0.3
				c-2.2,1.1-3.5,2.5-5.3,4.7c-2.1,2.6-1.8,4.2-1.1,6.8c0.8,2.8,4.7,6.5,5.1,6.9c0.1,0.1,0.3,0.2,0.5,0.3c2.2,0.8,4.2,1.2,6,1.2
				c6.6,0,10.5-4.8,11.7-6.6c1.4-2.1,0.8-3.6,0.4-4.9c-0.2-0.5-0.3-1-0.5-1.5c-0.5-2.6-2.4-3.9-3.9-5.1c-0.2-0.2-0.4-0.3-0.6-0.5
				c-0.5-0.4-0.9-0.6-1.3-0.9c1-0.6,2.1-1.6,3.2-3c0.7-0.8,1.9-2.9,2.2-5c0.2,0.1,0.5,0.2,0.7,0.3c1,0.4,2.1,0.6,3.2,0.6
				c1.9,0,3.6-0.6,4.6-1.2c2.3-1.5,2.8-3.1,3.7-5.6l0.2-0.6c1.5-4.1-1.4-6.5-3-7.8c-0.8-0.7-1.5-1-2.2-1.2c0.6-0.6,1.2-1.2,1.9-1.7
				c0.2,0,0.4,0,0.6,0c0.4,0,0.8-0.1,1.1-0.2c0.9-0.3,1.6-0.9,2-1.8c0.1-0.3,0.3-0.8,0.3-1.3c6.7-4.8,14.4-7.6,22.7-5.7
				c0.8,0.2,1.6-0.3,1.8-1.1C773.6,41.1,773.1,40.3,772.3,40.1z M730.6,80.9c1.3,0.9,2.5,1.8,2.8,3.3c0.2,0.8,0.4,1.4,0.6,1.9
				c0.4,1.2,0.5,1.5,0,2.3c-1.9,2.8-6.2,7.2-13.8,4.4c-1.4-1.4-3.6-3.8-4-5.3c-0.6-2.3-0.7-2.7,0.5-4.2c1.6-1.9,2.6-3.1,4.4-4
				l0.6-0.3c0.1,0,0.2-0.1,0.3-0.1c1.4-0.7,2.2-1,3.3-0.8c0.1,0,0.2,0.1,0.3,0.1l0.9,0.3c1.6,0.6,2.4,0.9,3.5,1.8
				C730.1,80.6,730.4,80.8,730.6,80.9z M731.3,72.3c-1.7,2.1-2.8,2.6-3.3,2.7c-0.3,0.1-0.7,0-1.1,0c-0.7-0.1-1.6-0.4-2.5-0.9
				c0-0.1,0-0.4,0-0.7c0-0.1,0-0.2,0-0.3c0-0.4,0.1-0.8,0.1-1.2c0-1.2-0.8-2.3-1.5-3.3c-0.3-0.4-0.7-1-0.8-1.3
				c0.9-2.8,2.7-3.4,4.4-3.8c0.4-0.1,0.8-0.3,1-0.3c0,0,0,0,0,0c0.5,0,1.4,0.6,2.3,1.4c0.8,0.7,1.6,1.5,2.2,2.2
				c0.3,0.3,0.5,0.7,0.7,1C733.4,68.6,732.2,71.3,731.3,72.3z M743.4,57.2c2.2,1.8,2.6,2.8,2,4.5l-0.2,0.6c-0.8,2.3-1.1,3.2-2.5,4.1
				c-0.8,0.5-3.1,1.1-4.9,0.3c-1.3-0.5-2.1-1.6-2.4-3.3v0l0-0.1c0-0.2-0.1-0.4-0.1-0.7c-0.2-1-0.2-2.5,0.7-3.5
				c1.5-1.5,2.8-1.9,4.1-2.3c0,0,0,0,0.1,0c0.2,0,0.3-0.1,0.5-0.1c0.5-0.1,0.8-0.2,1.2-0.2C742.2,56.5,742.7,56.7,743.4,57.2z
				 M746,48.7c-0.1,0.2-0.2,0.3-0.3,0.3c-0.1,0-0.5,0.1-1.5-0.4c0,0,0,0,0,0c-0.6-0.3-0.3-1.6-0.1-2.2c0.8-0.5,1.2-0.5,1.4-0.5
				c0.3,0.2,0.4,0.7,0.5,1.3C746.1,47.8,746.1,48.5,746,48.7z"/>
		</g>
		<path d="M807.7,5.2c-1.9-1.6-4.1-2.2-6.4-1.9c-5.2,0.6-9.4,5.8-10,6.6l-13.8,14.1c-0.5,0.3-1.7,1.5-1.9,3.2
			c-0.1,0.6,0,1.5,0.6,2.5l-4.7,3.9l9.6,9L785,38c0.2,0.1,0.5,0.2,0.8,0.2c0.1,0,0.3,0,0.4,0c1.4,0,2.8-0.7,4.4-2l15-15.3
			c0.2-0.2,5.2-4.8,5-9.9C810.7,8.8,809.7,6.8,807.7,5.2z M780.9,38.2l-4.9-4.5l2.2-1.8l4.5,4.3L780.9,38.2z M803.7,18.8l-15,15.2
			c-1.5,1.2-2.4,1.4-2.7,1.2l-2.5-2.4l-4.2-4.1c-0.3-0.4-0.8-0.9-0.7-1.3c0-0.5,0.6-1,0.7-1.1l14.2-14.4l0.1-0.2
			c1-1.4,4.5-5.1,8-5.5c1.5-0.2,2.8,0.2,4.1,1.3c1.3,1.1,2,2.3,2,3.6C807.9,14.8,803.8,18.7,803.7,18.8z"/>
	</g>
	<g>
		<path d="M575.2,44.8c-0.3,0-0.6-0.1-0.9-0.4c-0.4-0.5-0.4-1.2,0.1-1.7c1.3-1.1,2-2.4,2-3.8c0.1-2.4-1.7-4.5-1.7-4.5
			c-1.9-2.3-2.7-4.8-2.3-7.3c0.7-5,5.6-8.5,5.8-8.7c0.5-0.4,1.3-0.2,1.6,0.3c0.4,0.5,0.2,1.3-0.3,1.6c0,0-4.3,3.1-4.9,7.1
			c-0.3,1.9,0.3,3.7,1.8,5.5c0.1,0.1,2.5,2.7,2.3,6.1c-0.1,2-1,3.8-2.8,5.4C575.7,44.7,575.4,44.8,575.2,44.8z"/>
		<path d="M581.4,46.4c-0.3,0-0.6-0.1-0.9-0.4c-0.4-0.5-0.4-1.2,0.1-1.7c4.5-4,2.5-7.7,2.5-7.7c-1.6-3.1-1.8-5.8-0.7-8.2
			c2.1-4.3,8.1-5.4,8.3-5.4c0.6-0.1,1.2,0.3,1.4,0.9c0.1,0.6-0.3,1.2-0.9,1.4c-0.1,0-5.1,1-6.6,4.2c-0.8,1.6-0.6,3.7,0.7,6
			c1,1.8,1.7,6.4-3,10.6C582,46.3,581.7,46.4,581.4,46.4z"/>
		<path d="M568,44.4c-0.3,0-0.6-0.1-0.8-0.3c-0.5-0.4-0.5-1.2,0-1.7c1.2-1.3,1.8-2.6,1.7-3.9c-0.2-2.2-2.1-4-2.5-4.3
			c-2.3-1.3-3.8-3.1-4.3-5.3c-1.1-4.5,1.9-9.1,2.1-9.3c0.4-0.5,1.1-0.7,1.6-0.3c0.5,0.4,0.7,1.1,0.3,1.6c-0.1,0.1-2.6,4-1.7,7.5
			c0.4,1.6,1.5,2.9,3.3,3.9c0.1,0,0.1,0.1,0.2,0.1c0.1,0.1,3.2,2.5,3.4,6c0.1,2-0.6,3.9-2.3,5.7C568.6,44.3,568.3,44.4,568,44.4z"/>
		<path d="M582.6,58.1c-4.1-3-10.3-3.5-13.5-2.1c-2.6,1.1-5.1,1.8-12.5,0.9c-2.2-0.3-4.3-0.4-6.3-0.5l-0.3-0.1
			c-0.2-0.1-0.4,0-0.6,0.1c-4.5-0.1-7.9,0.3-8.1,0.3c-0.1,0-0.1,0-0.2,0c-2.8,0.8-4.9,2.2-6.1,4.4c-2.2,3.8-1,8.3-0.9,8.5
			c0.1,0.5,0.6,0.9,1.1,0.9c0.1,0,0.2,0,0.3,0c0.6-0.2,1-0.8,0.8-1.4c0,0-1-3.8,0.7-6.8c0.9-1.6,2.5-2.7,4.6-3.3
			c0.7-0.1,5.1-0.5,10.4-0.2c-1,0.7-1.8,1.3-2.6,1.9l-3.7-1.2c-0.4-0.1-0.9,0.1-1,0.5c-0.1,0.4,0.1,0.8,0.5,1l2.7,0.9
			c-3,2.2-4,3-4,3c-0.3,0.3-0.4,0.8-0.1,1.1c0.2,0.2,0.4,0.3,0.6,0.3c0.2,0,0.4-0.1,0.5-0.2c0,0,1.1-0.9,4.8-3.6l4.2,1.4
			c-2.3,2.1-3.5,3.2-3.5,3.2c-0.3,0.3-0.3,0.8,0,1.1c0.2,0.2,0.4,0.2,0.6,0.2c0.2,0,0.4-0.1,0.6-0.2c0,0,1.3-1.3,4.1-3.8l4.3,1.4
			c-1.5,1.4-2.3,2.2-2.4,2.2c-0.3,0.3-0.3,0.8,0,1.1c0.2,0.2,0.4,0.2,0.6,0.2c0.2,0,0.4-0.1,0.5-0.2c0,0,1.1-1,3-2.8l4.3,1.4
			c-0.5,0.5-0.8,0.8-0.8,0.8c-0.3,0.3-0.3,0.8,0,1.1c0.2,0.1,0.3,0.2,0.5,0.2c0.2,0,0.4-0.1,0.6-0.2c0,0,0.4-0.5,1.3-1.3l4.7,1.5
			c0.1,0,0.2,0,0.2,0c0.3,0,0.6-0.2,0.7-0.5c0.1-0.4-0.1-0.8-0.5-1l-3.9-1.3c0.6-0.6,1.4-1.3,2.3-2.1l5.4,1.8c0.1,0,0.2,0,0.2,0
			c0.3,0,0.6-0.2,0.7-0.5c0.1-0.4-0.1-0.8-0.5-1l-4.6-1.5c0.6-0.6,1.4-1.2,2.1-1.9l5.9,2c0.1,0,0.2,0,0.2,0c0.3,0,0.6-0.2,0.7-0.5
			c0.1-0.4-0.1-0.9-0.5-1l-5.1-1.7c0.6-0.5,1.2-1.1,1.9-1.7c0.2-0.2,0.3-0.4,0.3-0.6c1.1,0.4,2.1,0.9,3.1,1.6
			c2.7,1.9,3.8,4.7,3.5,8.3c-0.1,0.6,0.4,1.2,1.1,1.3c0.6,0.1,1.2-0.4,1.3-1.1C587.5,63,584.9,59.8,582.6,58.1z M566.8,59.2l0.4,0.1
			c-0.8,0.7-1.5,1.3-2.2,1.9L561,60c0.1-0.1,0.2-0.2,0.4-0.3C563.7,59.7,565.4,59.6,566.8,59.2z M555.3,62.6l-4-1.3
			c0.8-0.6,1.7-1.3,2.8-2l3.7,1.2C556.9,61.3,556.1,62,555.3,62.6z M561.3,64.6l-4.3-1.4c0.7-0.6,1.6-1.3,2.5-2.1l4.1,1.4
			C562.8,63.3,562,64,561.3,64.6z M567.3,66.6l-4.3-1.4c0.7-0.6,1.5-1.3,2.3-2.1l4.2,1.4C568.7,65.3,567.9,66,567.3,66.6z
			 M570.9,63.2l-4.1-1.4c0.7-0.6,1.4-1.3,2.2-1.9l4.1,1.4C572.2,62,571.5,62.6,570.9,63.2z M574.3,60.1l-4-1.4
			c0.2-0.2,0.4-0.3,0.5-0.5c0.1-0.1,0.2-0.3,0.2-0.4c1.5-0.3,3.5-0.3,5.6,0.2C575.8,58.8,575,59.5,574.3,60.1z"/>
		<g>
			<path class="st0" d="M596.9,64h26.8c0.1,0,0.1,0,0.2,0c0.9,0.1,3.4,0.3,4.6-0.8c0.5-0.4,0.7-1.1,0.7-2c-0.1-1.4-0.4-2.3-1.1-2.9
				c-1.1-0.9-2.6-0.5-2.6-0.5c-0.1,0-0.1,0.2-0.2,0.2h-29.5c0.3,0,0.5,1.3,0.6,2C596.4,60.2,596.8,61,596.9,64z"/>
			<path class="st0" d="M591.5,66.9c-9.6,7.7-28.5,7.5-29.5,7.5c-18.7,0.5-28.5-3.4-33.4-6.8c-1.2-0.8-2.1-1.6-2.7-2.3
				c0,0.7-0.1,1.3,0,1.9c0.1,9.1,4.7,12.8,4.8,12.9c0,0,0.1,0.1,0.1,0.1c15.3,14.7,49.1,8.9,57.1,2.1c5.5-4.7,6.7-11.3,6.8-16.1
				c-0.4-0.1-0.7-0.3-0.9-0.7l-0.2-0.5C593,65.7,592.3,66.3,591.5,66.9z"/>
			<path d="M629.5,56.3c-1.7-1.4-3.8-1.3-4.3-1.3h-30.9c-4.8-6-17.8-11-39.9-9.5c-24.6,1.6-29.3,11.9-30.2,15.8
				c-0.2,0.7-0.2,0.6-0.3,0.9c-2,13.5,4.5,19.2,5.3,19.8c8.6,8.2,21.5,9.8,30.1,9.8c1.1,0,2.1,0,3-0.1c11.2-0.5,22.6-3.8,27.2-7.7
				c6.2-5.3,7.6-12,7.6-18h26.6c0.3,0,0.9,0,1.7,0c1.4,0,3.3-0.1,4.7-1.2c0.7-0.6,1.6-1.8,1.5-3.8C631.4,58.9,630.8,57.4,629.5,56.3
				z M554.6,47.9c18.8-1.3,31.4,2.8,36.7,7.5c1.6,1.5,2.6,3,2.8,4.4c-0.3,0.9-0.8,1.8-1.4,2.6c-7.1,9.8-30.3,9.7-30.6,9.7
				c-26.2,0.6-33.9-7.4-35.6-9.7C526.9,59.9,530.1,49.6,554.6,47.9z M587.9,82.3c-8,6.8-41.8,12.6-57.1-2.1c0,0-0.1-0.1-0.1-0.1
				c-0.1,0-4.7-3.7-4.8-12.9c0-0.6,0-1.2,0-1.9c0.7,0.7,1.6,1.5,2.7,2.3c4.9,3.4,14.7,7.3,33.4,6.8c1,0,19.8,0.2,29.5-7.5
				c0.7-0.6,1.4-1.2,2-1.9c0.3-0.4,0.7-0.8,1-1.2c0,0.4,0,0.9,0.1,1.4c0,0.3,0,0.6,0,1C594.6,71,593.3,77.6,587.9,82.3z M628.5,63.2
				c-1.2,1-3.7,0.9-4.6,0.8c-0.1,0-0.1,0-0.2,0h-26.8c-0.1-3-0.5-3.8-0.6-4c-0.1-0.7-0.3-2-0.6-2h29.5c0.1,0,0.1-0.2,0.2-0.2
				c0,0,1.5-0.3,2.6,0.6c0.7,0.6,1.1,1.5,1.1,2.9C629.2,62.1,629,62.7,628.5,63.2z"/>
		</g>
	</g>
	<g>
		<g>
			<path class="st0" d="M441.3,45.1C441.3,45.1,441.3,45.1,441.3,45.1l0-1c0-0.2-0.1-0.4-0.2-0.5c0,0.1,0,0.3,0,0.4
				C441.2,44.2,441.2,44.6,441.3,45.1z"/>
			<path class="st0" d="M438.1,56.7c0.1,0,0.3,0,0.5,0V56C438.5,56.2,438.3,56.5,438.1,56.7z"/>
			<path class="st0" d="M355.5,56.6c0.4,0,0.7,0,0.7,0c0.2,0,0.3,0,0.5,0c-0.5-0.6-0.8-1.2-1.2-1.8L355.5,56.6z"/>
			<path class="st0" d="M442,44.1v1c1,0.1,0.9,0.4,1.5,0.8c1.5,1.1,2.2,3.1,2.2,5.8c0,2.6-0.5,4.7-2,6c-0.6,0.5-0.7,0.9-1.7,1.2v4.2
				c1-0.3,2.2-0.9,3.3-1.8c2-1.7,2.9-4.3,3.1-7.8c0.2-4.4-0.9-7.8-3.1-10c-1.4-1.4-3.2-2.1-4.8-2.5c0.4,1.2,0.8,2.2,0.9,2.7
				C441.6,43.8,442,43.9,442,44.1z"/>
			<path class="st0" d="M355.6,61.6l0,1.7c0.1,0,0.2,0,0.2,0L355.6,61.6z"/>
			<path class="st0" d="M441.8,55.7c0.9-0.8,1.2-2.2,1.2-4c0-1.8-0.2-3-1-3.6C442,48,442,48,442,47.9v8
				C442,55.8,441.8,55.8,441.8,55.7z"/>
			<path class="st0" d="M351.1,51.7c0,1.8,0.6,3.1,1.5,3.9c0.1,0.1,0.1,0.1,0.2,0.1l-0.2-8c-0.1,0.1-0.3,0.1-0.4,0.2
				C351.3,48.8,351.1,50.5,351.1,51.7z"/>
			<path class="st0" d="M438.6,63.5C438.6,63.5,438.6,63.5,438.6,63.5l0-0.3L438.6,63.5z"/>
			<path d="M441.3,45.4v-0.3c0,0,0,0,0,0C441.3,45.2,441.3,45.3,441.3,45.4z"/>
			<path d="M441.3,47.4c0,0.2,0,0.4,0,0.5c0,0,0,0,0,0V47.4z"/>
			<path d="M438.6,47.7v-0.4C438.6,47.5,438.6,47.6,438.6,47.7C438.6,47.8,438.6,47.7,438.6,47.7z"/>
			<path d="M442,45.4v1.9C442,46.6,442,46,442,45.4z"/>
			<path d="M447.1,41.6c-2.5-2.5-5.7-3.3-7.9-3.6c-0.7-1.3-1.8-2.7-3.2-4.2c-9.2-9.1-27.1-10.5-40.5-10.2
				c-25.1,0.7-35.2,8.1-39.3,14.1c-1.2,0-6.2,0.2-9.7,3.9c-2.7,2.8-3.9,6.9-3.5,12.2c0.3,4.2,1.9,7.4,4.5,9.5
				c1.7,1.4,3.7,2.1,5.4,2.4L353,63c-1.2-0.3-2.5-0.8-3.7-1.7c-2.1-1.6-3.2-4.2-3.5-7.7c-0.4-4.5,0.6-7.9,2.7-10.1
				c2-2,4.6-2.7,6.3-3c-0.5,1.2-0.8,2.3-1,3.1c-0.1,0.6-0.2,1-0.2,1.3c-0.3,0-0.7,0.1-1,0.1c-0.7,0.1-1.3,0.4-2,0.9
				c-1.5,1.2-2.3,3.1-2.2,5.8c0.1,2.6,0.9,4.6,2.5,5.9c0.6,0.5,1.3,0.9,2,1.1l0-0.1l0,0.1l0,0L353,63l0.1,2.7l0.2,11.2
				c0,0.3,0,6.6,7.3,10c9.8,4.5,17.5,6.4,39.4,6.9c1.6,0,3.1,0,4.6,0c17,0,24.6-2.2,29.8-5.6c1.8-1.1,7.6-4.6,7.6-14.3v-8.1
				c2-0.4,3.3-1.1,5-2.5c2.6-2.2,3.9-5.4,4.1-9.7C451.4,48.4,449.9,44.3,447.1,41.6z M352,55.8L352,55.8c0-0.1,0.3-0.1,0.2-0.1
				c-1-0.8-1.2-2.1-1.3-3.9c0-1.2,0.2-3,1.2-3.7c0.1-0.1,0.3-0.3,0.5-0.3l0.2,8.1c0.1,0.1-0.2,0.1-0.1,0.2
				C352.6,55.9,352,55.8,352,55.8z M439,56.8v6.4v0.3v2.7V74c0,7.4-3.6,10.4-6.2,12.1c-5.3,3.4-13,5.5-32.6,5.1
				c-21.5-0.4-29-2.3-38.4-6.6c-5.7-2.6-5.8-7.3-5.8-7.6L355.7,66l-0.1-2.7l0-1.7l0,0.2l-0.1-4.8c0,0,0,0,0,0l0-2
				c0.3,0.6,0.7,1.1,1.2,1.7c0.1,0.2,0.3,0.3,0.4,0.5c0.2,0.3,0.4,0.5,0.7,0.7c7,7.9,21.4,12,42.9,12c17.4,0,29.5-3.7,35.9-11.1
				c0.2-0.2,0.3-0.4,0.5-0.5c0.4-0.5,1-1.1,1.3-1.6c0.2-0.3,0.7-0.5,0.7-0.8V56.8z M439,47.3v0.4c0,0-0.2,0-0.2,0
				c-0.2,2.4-1.1,5.7-3.8,8.9c-5.7,6.9-17.6,10.6-34.3,10.6c-26.5,0-37.2-6.4-41.5-11.7c-2.5-3.1-3-6.1-3.1-8c0-0.6,0-1.2,0.1-1.5
				c0-0.3,0.1-0.5,0.1-0.5c0-0.1,0-0.2,0-0.3c0-0.1,0-0.7,0.3-1.6c0.2-0.7,0.5-1.7,1.1-2.8c0.7-1.4,1.8-2.9,3.5-4.5
				c4.5-4.2,14.1-9.4,34.5-10c23.2-0.6,33.7,4.7,38.4,9.3c0.9,0.8,1.6,1.7,2.1,2.5c1.5,2.2,2,4.1,2.2,5.1c0.1,0.5,0.1,0.8,0.1,0.9
				c0,0.1,0.2,0.2,0.2,0.3C438.7,44.5,439,45.6,439,47.3z M448.3,53.5c-0.2,3.5-0.9,6.1-2.9,7.8c-1.2,1-2.3,1.5-3.3,1.8v-4.2
				c1-0.3,1-0.6,1.6-1.2c1.5-1.4,2.1-3.4,2.1-6c0-2.7-0.5-4.6-2.1-5.8c-0.6-0.4-0.6-0.7-1.6-0.8v0.3c0,0.5,0,1.2,0,1.9v0.6
				c0,0.1-0.1,0.1,0,0.2c0.8,0.6,1.1,1.8,1.1,3.6c0,1.8-0.2,3.2-1.1,4c-0.1,0.1,0.1,0.1,0.1,0.1v-8c0,0,0,0,0,0c0-0.2,0-0.4,0-0.5
				v-1.9c0-0.1-0.4-0.2-0.4-0.3c0-0.5-0.3-0.9-0.3-1.1c0-0.1-0.1-0.2-0.1-0.4c0-0.5-0.2-1.5-0.6-2.7c1.5,0.4,3.3,1.1,4.7,2.5
				C447.5,45.7,448.5,49.1,448.3,53.5z"/>
		</g>
		<path d="M355.3,48.3c-0.4,0-0.8-0.3-0.9-0.8c0-0.2-0.5-4.4,2.3-6.9c1.8-1.6,4.4-2,7.7-1.3c0.5-1.4,1.8-4.1,4.6-5.6
			c2.2-1.2,4.8-1.3,7.8-0.3c1.2-1.4,4.8-4.8,11.2-3.7c0.9-0.8,3.6-2.1,9.3,0c1.4-1,6.3-3.9,12.4-2.8c0,0,0.1,0,0.1,0
			c0,0,5,1.7,6.6,2c0.2,0,0.3,0,0.6-0.1c1.2-0.5,2.4-0.6,7.1,2.4c1.9-0.4,5.3-0.2,7.5,3.2c1.5,0.5,8,3.1,8.5,8.6
			c0.1,0.5-0.3,0.9-0.8,1c-0.5,0.1-0.9-0.3-1-0.8c-0.5-4.9-7.6-7.2-7.6-7.2c-0.2-0.1-0.4-0.2-0.5-0.4c-2.2-3.7-5.9-2.6-6-2.6
			c-0.3,0.1-0.5,0-0.8-0.1c-4.5-3-5.3-2.6-5.8-2.4c-0.3,0.1-0.8,0.3-1.6,0.2c-1.7-0.3-6.2-1.8-6.9-2.1c-6.3-1.1-11.3,2.7-11.3,2.8
			c-0.2,0.2-0.6,0.2-0.9,0.1c-6.2-2.3-8.1-0.3-8.1-0.3c-0.2,0.3-0.5,0.4-0.9,0.3c-7-1.3-10.3,3.4-10.3,3.5c-0.2,0.3-0.7,0.5-1,0.3
			c-2.7-1-5.1-1-7,0c-3,1.6-4,5.2-4,5.3c-0.1,0.5-0.6,0.8-1.1,0.6c-3.2-0.8-5.5-0.5-6.9,0.8c-2.1,1.9-1.7,5.3-1.7,5.3
			c0.1,0.5-0.3,0.9-0.8,1C355.3,48.3,355.3,48.3,355.3,48.3z"/>
		<path d="M421.8,16.7c-0.1-0.3-0.5-0.6-0.8-0.6c-4.8,0-7.5,3.8-8.7,6c-4.3-6.5-9.1-4.6-9.4-4.5c-0.3,0.1-0.5,0.3-0.5,0.6
			c-2.5,10.9,7.8,15.4,7.9,15.4c0.1,0,0.2,0.1,0.3,0.1c0,0,0.1,0,0.1,0l5.6-0.6c0.2,0,0.3-0.1,0.4-0.2
			C425.5,26.9,421.8,16.8,421.8,16.7z"/>
		<g>
			<path d="M429.7,53.6c-2.7,0-4.9-2.2-4.9-4.9s2.2-4.9,4.9-4.9c2.7,0,4.9,2.2,4.9,4.9S432.3,53.6,429.7,53.6z M429.7,45.6
				c-1.7,0-3.1,1.4-3.1,3.1s1.4,3.1,3.1,3.1s3.1-1.4,3.1-3.1S431.4,45.6,429.7,45.6z"/>
		</g>
		<g>
			<path d="M389.9,43c-2.7,0-4.9-2.2-4.9-4.9s2.2-4.9,4.9-4.9c2.7,0,4.9,2.2,4.9,4.9S392.6,43,389.9,43z M389.9,35
				c-1.7,0-3.1,1.4-3.1,3.1s1.4,3.1,3.1,3.1s3.1-1.4,3.1-3.1S391.6,35,389.9,35z"/>
		</g>
		<g>
			<path d="M385.3,65.1c-2.1,0-3.8-1.7-3.8-3.8c0-2.1,1.7-3.8,3.8-3.8c2.1,0,3.8,1.7,3.8,3.8C389.1,63.3,387.4,65.1,385.3,65.1z
				 M385.3,59.2c-1.1,0-2.1,0.9-2.1,2.1c0,1.1,0.9,2.1,2.1,2.1c1.1,0,2.1-0.9,2.1-2.1C387.4,60.1,386.4,59.2,385.3,59.2z"/>
		</g>
		<g>
			<path d="M363.7,52.7c-1.9,0-3.4-1.5-3.4-3.4c0-1.9,1.5-3.4,3.4-3.4s3.4,1.5,3.4,3.4C367,51.2,365.5,52.7,363.7,52.7z M363.7,47.7
				c-0.9,0-1.6,0.7-1.6,1.6c0,0.9,0.7,1.6,1.6,1.6c0.9,0,1.6-0.7,1.6-1.6C365.3,48.4,364.5,47.7,363.7,47.7z"/>
		</g>
		<g>
			<path d="M426.9,43c-2.1,0-3.8-1.7-3.8-3.8c0-2.1,1.7-3.8,3.8-3.8c2.1,0,3.8,1.7,3.8,3.8C430.7,41.3,429,43,426.9,43z M426.9,37.1
				c-1.1,0-2.1,0.9-2.1,2.1c0,1.1,0.9,2.1,2.1,2.1c1.1,0,2.1-0.9,2.1-2.1C428.9,38,428,37.1,426.9,37.1z"/>
		</g>
		<g>
			<path d="M377.4,55c-3.1,0-5.6-2.5-5.6-5.6s2.5-5.6,5.6-5.6c3.1,0,5.6,2.5,5.6,5.6S380.4,55,377.4,55z M377.4,45.6
				c-2.1,0-3.8,1.7-3.8,3.8s1.7,3.8,3.8,3.8c2.1,0,3.8-1.7,3.8-3.8S379.5,45.6,377.4,45.6z"/>
		</g>
		<g>
			<path class="st0" d="M403.6,49.5c1.8,0.3,3.3,1.5,4,3.2l0.4,0.2c1.3-2.4,3.8-4.1,6.8-4.1c2.3,0,4.3,1,5.7,2.6l0.2-1.2
				c0.3-1.9,0-4.5,0-4.5c0-0.3,0.1-0.5,0.3-0.7c0.3-0.3,0.5-0.6,0.5-1c0-0.6-0.5-1.1-0.7-1.3c-0.3-0.2-0.4-0.6-0.2-1
				c0.7-1.9-0.5-4.2-0.5-4.3c-0.1-0.2-0.1-0.3-0.1-0.5c0.2-1.9-2.7-3.4-3.9-3.8c-0.3-0.1-0.5-0.4-0.6-0.7l-0.5-2.3l-2-0.2l-1.5,3.3
				c-0.1,0.1-0.2,0.3-0.3,0.4c-2.5,1.7-2.7,2.7-2.7,3c0,0.2,0.1,0.3,0.1,0.3c0.3,0.2,0.4,0.5,0.4,0.9c-0.1,0.3-0.3,0.6-0.7,0.7
				c-0.4,0.1-1,0.3-1.1,0.7c-0.2,0.6,0.4,1.6,0.7,2c0.2,0.2,0.3,0.6,0.1,0.9s-0.4,0.5-0.7,0.6c-0.3,0.1-0.8,0.2-0.9,0.5
				c-0.2,0.4,0.2,1.1,0.3,1.4c0.2,0.2,0.2,0.6,0.1,0.8c-0.1,0.3-0.4,0.5-0.7,0.5c-1.3,0.2-1.5,0.5-1.5,0.5c0,0.1,0.1,0.2,0.2,0.3
				c0.2,0.2,0.3,0.6,0.2,0.9c-0.1,0.3-0.4,0.5-0.8,0.6c-0.3,0-0.6,0.1-0.8,0.1C403.5,48.8,403.6,49.2,403.6,49.5z"/>
			<path d="M422.5,45.9c0.6-0.7,0.7-1.5,0.7-2c0-0.9-0.5-1.7-0.9-2.1c0.5-2.1-0.3-4.3-0.7-5c0.1-2.8-3.3-4.6-4.5-5.2l-0.5-2.5
				c-0.1-0.4-0.4-0.7-0.8-0.7l-3.2-0.3c-0.4,0-0.7,0.2-0.9,0.5l-1.7,3.6c-2.2,1.5-3.3,3-3.3,4.3c0,0.2,0,0.4,0.1,0.6
				c-0.8,0.4-1.2,1-1.3,1.5c-0.3,0.9,0,1.9,0.4,2.6c-0.6,0.3-0.9,0.8-1.1,1.2c-0.3,0.7-0.2,1.4,0,1.9c-1,0.3-1.5,0.8-1.8,1.5
				c-0.1,0.2-0.1,0.5-0.1,0.7c-1-2-3.1-3.5-5.6-3.6c-3.7-0.2-6.8,2.6-7,6.3c-0.2,3.6,2.6,6.8,6.3,7c0.3,0,0.7,0,1,0
				c0.6,2.2,2.7,3.9,5.1,3.9c1.9,0,3.6-1,4.5-2.5c0.5,3.7,3.7,6.6,7.6,6.6c4.2,0,7.7-3.4,7.7-7.7c0-0.9-0.2-1.8-0.5-2.7l0.5-3.4
				C422.7,48.8,422.5,46.8,422.5,45.9z M397.4,54.4c-0.2,0-0.5,0-0.7,0c-2.7-0.1-4.7-2.4-4.6-5.1c0.1-2.7,2.4-4.7,5.1-4.6
				c1.9,0.1,3.5,1.3,4.2,3c0.2,0.6,0.4,1.2,0.4,1.8c-0.2,0-0.4,0.1-0.7,0.1C399.1,50.3,397.6,52.2,397.4,54.4z M402.7,58.3
				c-1.6,0-2.9-1.1-3.4-2.5c-0.1-0.3-0.2-0.7-0.2-1c0-0.3,0.1-0.6,0.1-0.9c0.3-1.1,1.1-2,2.1-2.4c0.1-0.1,0.3-0.1,0.4-0.1
				c0.3-0.1,0.5-0.1,0.8-0.1c0.2,0,0.4,0,0.7,0.1c1.4,0.3,2.5,1.4,2.8,2.8c0,0.2,0.1,0.5,0.1,0.7C406.2,56.7,404.6,58.3,402.7,58.3z
				 M414.8,62.4c-3.2,0-5.9-2.6-5.9-5.9c0-0.4,0-0.8,0.1-1.2c0.1-0.6,0.3-1.1,0.6-1.7c1-1.8,2.9-3,5.1-3c2.3,0,4.3,1.4,5.3,3.3
				c0.3,0.5,0.4,1.1,0.5,1.7c0,0.3,0.1,0.5,0.1,0.8C420.7,59.8,418,62.4,414.8,62.4z M420.9,45c-0.2,0.2-0.3,0.5-0.3,0.7
				c0,0,0.3,2.6,0,4.5l-0.2,1.2c-1.4-1.6-3.4-2.6-5.7-2.6c-2.9,0-5.5,1.7-6.8,4.1c-0.1,0.1-0.1,0.3-0.2,0.4
				c-0.1-0.2-0.1-0.4-0.2-0.6c-0.7-1.7-2.2-2.9-4-3.2c0-0.4,0-0.8-0.1-1.1c0.2-0.1,0.5-0.1,0.8-0.1c0.3,0,0.6-0.2,0.8-0.6
				c0.1-0.3,0-0.7-0.2-0.9c-0.1-0.1-0.2-0.3-0.2-0.3c0,0,0.2-0.3,1.5-0.5c0.3,0,0.5-0.2,0.7-0.5c0.1-0.3,0.1-0.6-0.1-0.8
				c-0.2-0.3-0.5-1-0.3-1.4c0.1-0.3,0.7-0.5,0.9-0.5c0.3-0.1,0.6-0.3,0.7-0.6s0-0.6-0.1-0.9c-0.3-0.4-0.9-1.4-0.7-2
				c0.1-0.4,0.7-0.6,1.1-0.7c0.3-0.1,0.6-0.4,0.7-0.7c0.1-0.3-0.1-0.7-0.4-0.9c0,0-0.1-0.1-0.1-0.3c0-0.3,0.2-1.3,2.7-3
				c0.1-0.1,0.2-0.2,0.3-0.4l1.5-3.3l2,0.2l0.5,2.3c0.1,0.3,0.3,0.5,0.6,0.7c1.1,0.4,4,1.9,3.9,3.8c0,0.2,0,0.4,0.1,0.5
				c0,0,1.3,2.3,0.5,4.3c-0.1,0.3,0,0.7,0.2,1c0.2,0.2,0.7,0.7,0.7,1.3C421.4,44.4,421.2,44.7,420.9,45z"/>
		</g>
		<path d="M413.1,42.3c-1.3,0-2.5-1-3.1-1.7c-0.3-0.4-0.3-0.9,0.1-1.2c0.4-0.3,0.9-0.3,1.2,0.1c0.3,0.3,1.4,1.4,2.1,1
			c0.4-0.3,1-0.1,1.2,0.3c0.3,0.4,0.1,1-0.3,1.2C413.9,42.2,413.5,42.3,413.1,42.3z"/>
		<path d="M414.7,46.5c-0.7,0-1.3-0.1-1.8-0.3c-0.5-0.2-0.7-0.7-0.6-1.1c0.2-0.5,0.7-0.7,1.1-0.6c0.4,0.1,2,0.5,2.3-0.2
			c0.2-0.4,0.8-0.6,1.2-0.4c0.4,0.2,0.6,0.8,0.4,1.2C416.8,46.2,415.7,46.5,414.7,46.5z"/>
	</g>
	<g>
		<g>
			<path d="M217,47.6c-2.1,0-3.8-1.7-3.8-3.8c0-2.1,1.7-3.8,3.8-3.8c2.1,0,3.8,1.7,3.8,3.8C220.8,45.9,219.1,47.6,217,47.6z
				 M217,41.7c-1.1,0-2.1,0.9-2.1,2.1c0,1.1,0.9,2.1,2.1,2.1s2.1-0.9,2.1-2.1C219,42.6,218.1,41.7,217,41.7z"/>
		</g>
		<path d="M266.5,60.7c-0.1,0-0.2,0-0.3,0c-0.7-0.2-1.2-0.9-1-1.6c0.4-1.9,0.9-6.8-2.9-11.5c-4-4.9-13.5-10.7-36.4-10.5
			c-16,0.1-27.8,3.6-33.9,10.2c-4.8,5.1-4.6,10.2-4.6,10.2c0,0.7-0.5,1.4-1.3,1.4c-0.7,0-1.4-0.5-1.4-1.3c0-0.3-0.3-6.3,5.3-12.2
			c6.8-7.2,18.8-10.9,35.9-11c13.2-0.1,30.7,1.8,38.5,11.5c4.6,5.6,4,11.5,3.5,13.7C267.7,60.3,267.1,60.7,266.5,60.7z"/>
		<g>
			<path class="st0" d="M267.5,47.9c0,0,0-0.4-0.1-0.9c-0.2-1-0.7-3-2.2-5.1c-0.6-0.8-1.3-1.6-2.1-2.5c-4.7-4.6-15.2-9.9-38.5-9.3
				c-20.4,0.5-30,5.7-34.5,10c-1.7,1.6-2.8,3.2-3.5,4.5c-0.6,1.1-0.9,2.1-1.1,2.8c-0.2,0.9-0.3,1.5-0.3,1.6c0,0.1,0,0.2,0,0.3
				c0,0,0,0.2-0.1,0.5c0,0.4-0.1,0.9-0.1,1.5c0.1,1.9,0.6,4.9,3.1,8c2,2.5,5.5,5.3,11.5,7.5c-0.3-0.9-0.6-1.9-0.7-3
				c-0.9-5.3,1.4-7.8,3.5-8.9c3.7-2.1,10.2-0.9,15,2.6c4.6,3.3,6.7,8.2,5.9,13.3c2,0.1,4.1,0.1,6.3,0.1c16.7,0,28.6-3.7,34.3-10.6
				c2.7-3.2,3.6-6.6,3.8-9c0,0,0.2,0,0.2,0v-0.4c0-1.7-0.3-2.8-0.3-2.9C267.7,48.1,267.5,48,267.5,47.9z M267.7,51.5
				C267.7,51.5,267.7,51.5,267.7,51.5c0-0.1,0-0.3,0-0.4V51.5z"/>
			<path class="st0" d="M215.9,59.7c-3.9-2.9-9.4-3.9-12.2-2.4c-4.2,2.3-1.4,9.2-0.8,10.6c4.6,1.3,10.4,2.4,17.7,2.8
				C221.8,65,218.2,61.4,215.9,59.7z"/>
			<path class="st0" d="M270,51.7v-0.6C270,51.3,270,51.5,270,51.7C270,51.7,270,51.7,270,51.7z"/>
			<path class="st0" d="M270.1,48.9C270.1,48.9,270.1,48.9,270.1,48.9c0.1,0,0.1,0,0.2,0c0,0,0,0,0,0
				C270.3,48.9,270.2,48.9,270.1,48.9z"/>
			<path class="st0" d="M181.3,51.7c-0.3,0.2-0.5,0.5-0.6,0.8C180.8,52.2,181,52,181.3,51.7c0.1,0,0.3-0.1,0.4-0.2l0.2,7.9
				c0,0,0,0,0,0l-0.2-8C181.5,51.4,181.4,51.6,181.3,51.7z"/>
			<path class="st0" d="M182,59.6c0,0,0.1,0,0.1,0.1C182.1,59.7,182.1,59.6,182,59.6z"/>
			<path class="st0" d="M267.4,60.2c0.1-0.1,0.2-0.2,0.2-0.4C267.4,60,267.3,60.1,267.4,60.2z"/>
			<path class="st0" d="M268,60.5c0,0-0.4,0-0.5,0c-0.4,0.5-1,1-1.4,1.6c-0.2,0.2-0.4,0.4-0.5,0.5c-6.4,7.3-18.5,11.1-35.9,11.1
				c-21.5,0-36-4.1-42.9-12c-0.2-0.3-0.5-0.5-0.7-0.8c-0.1-0.2-0.3-0.4-0.4-0.6c-0.5-0.6-0.8-1.3-1.2-1.9l0,0.1
				c0.3,0.6,0.7,1.2,1.2,1.8c-0.1,0-0.3,0-0.5,0c0,0-0.3,0-0.7,0l0-0.4l-0.5,5.2v0.2l0.3,1.7l0.4,2.7l0.2,11c0,0.2,0.1,5,5.8,7.6
				c9.5,4.3,17,6.2,38.5,6.6c19.7,0.4,27.3-1.7,32.7-5.1c2.6-1.6,6.2-4.7,6.2-12.1v-7.8v-2.7V67V60.5v-0.8c-0.1,0,0,0.1,0,0.1V60.5z
				 M184.6,67.1l0-1.7l0.3,1.7C184.8,67.1,184.7,67.1,184.6,67.1z M267.7,67.3C267.7,67.3,267.7,67.3,267.7,67.3V67V67.3z"/>
			<path class="st0" d="M271.8,55.5c0-1.8-0.5-3-1.3-3.6c-0.1-0.1-0.5-0.1-0.5-0.2c0,0.1,0.4,0.1,0.5,0.2
				C271.3,52.5,271.8,53.7,271.8,55.5z"/>
			<path class="st0" d="M272.1,49.7c-0.5-0.4-1-0.6-1.7-0.8v0C271.1,49.1,271.5,49.3,272.1,49.7c1.5,1.1,2.4,3.1,2.4,5.8
				C274.5,52.8,273.6,50.8,272.1,49.7z"/>
			<path class="st0" d="M269.6,44.7c1.5,0.4,3.3,1.1,4.7,2.5c2.2,2.2,3.2,5.6,3,10c-0.2,3.5-1.4,6.1-3.4,7.8c2-1.7,3.3-4.3,3.5-7.8
				c0.2-4.4-0.8-7.8-3-10C272.9,45.8,271.1,45.1,269.6,44.7z"/>
			<path class="st0" d="M267.7,60.5v-0.7c0,0-0.1,0-0.1,0c-0.1,0.1-0.2,0.2-0.2,0.4c0,0.1,0,0.2,0,0.3c0,0,0,0,0,0
				C267.4,60.5,267.5,60.5,267.7,60.5z"/>
			<path class="st0" d="M185.2,60.4c0.2,0,0.3,0,0.5,0c-0.4-0.6-0.8-1.2-1.2-1.8l0,1.5c0,0,0,0,0,0l0,0l0,0.4
				C184.9,60.4,185.2,60.4,185.2,60.4z"/>
			<path class="st0" d="M277.3,57.3c0.2-4.4-0.7-7.8-3-10c-1.4-1.4-3.2-2.2-4.7-2.5c0.4,1.2,0.5,2.2,0.5,2.7c0,0.1,0,0.3,0,0.4
				c0,0.2,0,0.6,0,1.1c0,0,0,0,0,0c0.1,0,0.1,0,0.2,0c0,0,0,0,0-0.1c0-0.5-0.1-0.9-0.1-1.1c0-0.1-0.2-0.2-0.2-0.4
				c0.1,0.1,0,0.3,0,0.5v1v0.1c1,0.2,1.4,0.4,1.9,0.8c1.5,1.1,2.5,3.1,2.5,5.8c0,2.6-0.8,4.7-2.3,6c-0.6,0.5-1.1,0.9-2.1,1.2v4.2
				c1-0.3,2.7-0.9,3.9-1.8C275.9,63.4,277.1,60.8,277.3,57.3z"/>
			<path class="st0" d="M270.3,47.9c0-0.2-0.1-0.4-0.2-0.5c0,0.1,0,0.3,0,0.4c0,0.2,0.1,0.6,0.1,1.1c0,0,0,0,0,0V47.9z"/>
			<path class="st0" d="M184.6,67.1c0.1,0,0.2,0,0.2,0l-0.3-1.7L184.6,67.1z"/>
			<path class="st0" d="M270.3,59.5c0.9-0.8,1.5-2.2,1.5-4c0-1.8-0.6-3-1.4-3.6c-0.1-0.1-0.5-0.1-0.5-0.2v8
				C270,59.6,270.3,59.6,270.3,59.5z"/>
			<path class="st0" d="M181.3,51.8c-0.2,0.2-0.4,0.4-0.6,0.7c-0.4,0.9-0.5,2-0.5,3c0,1.8,0.6,3.2,1.5,4c0,0,0.1,0,0.1,0.1l-0.2-7.9
				C181.5,51.6,181.4,51.7,181.3,51.8z"/>
			<path class="st0" d="M267.7,67.3V67V67.3C267.7,67.3,267.7,67.3,267.7,67.3z"/>
			<path d="M270.3,48.9C270.3,48.9,270.3,48.9,270.3,48.9C270.3,48.9,270.3,48.9,270.3,48.9L270.3,48.9
				C270.3,48.9,270.3,48.9,270.3,48.9z"/>
			<path d="M270.3,48.9C270.3,48.9,270.3,48.9,270.3,48.9C270.3,48.9,270.3,48.9,270.3,48.9C270.3,48.9,270.3,48.9,270.3,48.9
				L270.3,48.9z"/>
			<path d="M267.7,51.5v-0.4C267.7,51.2,267.7,51.4,267.7,51.5C267.7,51.5,267.7,51.5,267.7,51.5z"/>
			<path d="M270,48.9c0.1,0,0.1,0,0.1,0c0,0,0,0,0,0C270.1,48.9,270.1,48.9,270,48.9z"/>
			<path d="M270,49.2c0-0.1,0.1-0.2,0.1-0.3c-0.1,0-0.1,0-0.1,0V49.2z"/>
			<path d="M182,59.6c0,0-0.1-0.1-0.2-0.1l0,0C181.9,59.5,182,59.6,182,59.6C182,59.6,182,59.6,182,59.6L182,59.6z"/>
			<path d="M267.7,59.7c0,0-0.1,0.1-0.1,0.1C267.6,59.9,267.7,59.8,267.7,59.7L267.7,59.7z"/>
			<path d="M267.4,60.2c-0.1,0.1-0.1,0.2-0.2,0.3c0,0,0.1,0,0.1,0c0,0,0,0,0,0C267.4,60.4,267.4,60.3,267.4,60.2z"/>
			<polygon points="184.5,60 184.5,58.5 184.5,58.5 184.5,60 184.5,60 			"/>
			<path d="M274.5,55.5c0,2.6-0.9,4.7-2.4,6c-0.6,0.5-1.1,0.9-2.1,1.2c1-0.3,1.5-0.6,2.1-1.2C273.6,60.2,274.5,58.1,274.5,55.5z"/>
			<path d="M270.2,48.9c0-0.5,0-0.9,0-1.1c0-0.1,0-0.2,0-0.4c0-0.5-0.2-1.5-0.5-2.7c0.4,1.2,0.4,2.2,0.4,2.7c0.1,0.1,0,0.3,0,0.5v1
				C270.1,48.9,270.1,48.9,270.2,48.9C270.1,48.9,270.2,48.9,270.2,48.9z"/>
			<path d="M270,59.6c0,0,0.3-0.1,0.4-0.1c0.9-0.8,1.5-2.2,1.5-4c0,1.8-0.6,3.2-1.5,4C270.3,59.6,270,59.6,270,59.6z"/>
			<path d="M180.2,55.5c0-0.9,0.1-2.1,0.5-3C180.2,53.4,180.1,54.5,180.2,55.5c0,1.8,0.5,3.2,1.5,4c0.1,0.1,0.1,0.1,0.2,0.1l0-0.1
				c-0.1,0-0.1,0-0.1-0.1C180.8,58.6,180.2,57.3,180.2,55.5z"/>
			<path d="M270.3,49.2v-0.3c0,0,0,0,0,0C270.3,49,270.3,49.1,270.3,49.2z"/>
			<path d="M270.3,51.1c0,0.2,0,0.4,0,0.5c0,0,0,0,0,0V51.1z"/>
			<path d="M276.2,45.3c-2.5-2.5-5.7-3.3-7.9-3.6c-0.7-1.3-1.8-2.7-3.2-4.2c-9.2-9.1-27.1-10.6-40.5-10.2
				c-25.2,0.7-35.2,8.1-39.3,14.1c-1.2,0-6.2,0.2-9.7,3.9c-2.7,2.8-3.9,6.9-3.5,12.2c0.3,4.2,1.9,7.4,4.5,9.5
				c1.7,1.4,3.7,2.1,5.4,2.4l-0.1-2.7c-1.2-0.3-2.5-0.8-3.7-1.7c-2.1-1.6-3.2-4.2-3.5-7.7c-0.4-4.5,0.6-7.9,2.7-10.1
				c2-2.1,4.6-2.7,6.3-3c-0.5,1.2-0.8,2.3-1,3.1c-0.1,0.6-0.2,1-0.2,1.3c-0.3,0-0.7,0.1-1,0.1c-0.7,0.1-1.3,0.4-2,0.9
				c-1.5,1.2-2.3,3.1-2.2,5.9c0.1,2.6,0.9,4.6,2.5,5.9c0.6,0.5,1.3,0.9,2,1.1l0-0.1l0,0.1l0,0l0.1,4.2l0.1,2.7l0.2,11.2
				c0,0.3,0,6.6,7.3,10c9.8,4.5,17.5,6.4,39.5,6.9c1.6,0,3.1,0,4.6,0c17,0,24-2.2,29.3-5.6c1.8-1.1,7.1-4.6,7.1-14.3v-8.1
				c2-0.4,3.8-1.1,5.6-2.5c2.6-2.2,4.1-5.4,4.3-9.7C280.2,52.2,279,48.1,276.2,45.3z M181.9,59.6c-0.1,0-0.2-0.1-0.2-0.1
				c-1-0.8-1.5-2.1-1.5-4c0-0.9,0.1-2.1,0.5-3c0.2-0.3,0.4-0.6,0.6-0.8c0.1-0.1,0.3-0.3,0.4-0.3L181.9,59.6
				C181.9,59.5,181.9,59.5,181.9,59.6L181.9,59.6z M268,59.8v0.7V67v0.3v2.7v7.8c0,7.4-3.6,10.4-6.2,12.1c-5.3,3.4-13,5.5-32.7,5.1
				c-21.5-0.4-29-2.3-38.5-6.6c-5.7-2.6-5.8-7.3-5.8-7.6l-0.2-11l-0.4-2.7l-0.3-1.7v-0.2l0.5-5.2l0-1.5c0,0,0,0,0,0l0-0.1
				c0.3,0.6,0.7,1.3,1.2,1.9c0.1,0.2,0.3,0.4,0.4,0.6c0.2,0.3,0.4,0.5,0.7,0.8c7,8,21.4,12,42.9,12c17.4,0,29.5-3.7,35.9-11.1
				c0.2-0.2,0.3-0.4,0.5-0.5c0.4-0.5,1-1,1.3-1.6c-0.1,0-0.1,0-0.1,0c0.1-0.1,0.1-0.2,0.2-0.3c0-0.1,0.1-0.2,0.4-0.4
				C267.8,59.8,267.9,59.8,268,59.8C267.9,59.8,267.9,59.7,268,59.8C268,59.7,268,59.8,268,59.8C268,59.8,268,59.8,268,59.8z
				 M203.8,57.3c2.8-1.5,8.3-0.5,12.2,2.4c2.3,1.6,5.8,5.3,4.8,11.1c-7.3-0.5-13.1-1.5-17.7-2.8C202.4,66.5,199.5,59.7,203.8,57.3z
				 M268,51.5c0,0-0.2,0-0.2,0c-0.2,2.4-1.1,5.7-3.8,9c-5.7,6.9-17.6,10.6-34.3,10.6c-2.2,0-4.3,0-6.3-0.1c0.8-5.2-1.3-10-5.9-13.3
				c-4.8-3.5-11.3-4.6-15-2.6c-2.1,1.1-4.3,3.6-3.5,8.9c0.2,1.1,0.5,2.1,0.7,3c-6-2.2-9.5-5-11.5-7.5c-2.5-3.1-3-6.1-3.1-8
				c0-0.6,0-1.2,0.1-1.5c0-0.3,0.1-0.5,0.1-0.5c0-0.1,0-0.2,0-0.3c0-0.1,0-0.7,0.3-1.6c0.2-0.8,0.5-1.7,1.1-2.8
				c0.7-1.4,1.8-2.9,3.5-4.5c4.5-4.3,14.1-9.4,34.5-10c23.2-0.6,33.7,4.7,38.5,9.3c0.9,0.8,1.6,1.7,2.1,2.5c1.5,2.2,2,4.1,2.2,5.1
				c0.1,0.5,0.1,0.8,0.1,0.9c0,0.1,0.2,0.2,0.2,0.3c0,0.1,0.3,1.2,0.3,2.9V51.5z M270,51.7c0-0.2,0-0.4,0-0.5L270,51.7
				c0,0.1,0.4,0.1,0.5,0.2c0.8,0.6,1.3,1.8,1.3,3.6c0,1.8-0.6,3.2-1.5,4c-0.1,0.1-0.4,0.1-0.4,0.1L270,51.7
				C270,51.7,270,51.7,270,51.7z M270.3,51.7c0-0.2,0-0.4,0-0.5L270.3,51.7C270.3,51.7,270.3,51.7,270.3,51.7z M277.3,57.3
				c-0.2,3.5-1.5,6.1-3.5,7.8c-1.2,1-2.9,1.5-3.9,1.8v-4.2c1-0.3,1.4-0.6,2.1-1.2c1.5-1.4,2.4-3.4,2.4-6c0-2.7-1.1-4.6-2.6-5.8
				c-0.5-0.4-0.8-0.6-1.7-0.7c0,0,0,0,0,0c-0.1,0,0,0-0.1,0c0,0,0,0,0,0c0,0,0,0,0,0v-0.1v-1c0-0.2,0.1-0.4,0-0.5
				c0-0.5,0-1.5-0.4-2.7c1.5,0.4,3.3,1.1,4.7,2.5C276.6,49.4,277.6,52.8,277.3,57.3z"/>
		</g>
		<path d="M234.7,70.1c-2.8,0-5-0.8-5.2-0.9c-0.1,0-0.1,0-0.2-0.1c-0.1-0.1-3.5-1.9-4.7-6c-1-3.3-0.4-7,1.8-11.1
			c2.6-4.9,5.8-7.7,9.3-8.4c3.6-0.7,6.4,1.2,7.1,1.7c1.1,0.6,5.5,3.8,2.9,15.3c-0.9,3.9-2.8,6.7-5.6,8.2
			C238.3,69.8,236.4,70.1,234.7,70.1z M230.5,66.7c0.7,0.2,5,1.5,8.4-0.3c2.1-1.1,3.5-3.3,4.2-6.4c2.3-10.3-1.6-12.3-1.6-12.4
			c-0.1,0-0.2-0.1-0.3-0.2c-0.1-0.1-2.2-1.8-5-1.2c-2.7,0.5-5.2,2.9-7.4,7c-1.9,3.4-2.4,6.5-1.6,9.1C228,65.1,230.1,66.5,230.5,66.7
			z"/>
		<path d="M196.8,54.4c-1.4,0-2.5-1.1-2.5-2.5s1.1-2.5,2.5-2.5c1.4,0,2.5,1.1,2.5,2.5S198.2,54.4,196.8,54.4z M196.8,51.1
			c-0.4,0-0.7,0.3-0.7,0.7s0.3,0.7,0.7,0.7s0.7-0.3,0.7-0.7S197.2,51.1,196.8,51.1z"/>
		<path d="M255.2,62.4c-1.4,0-2.5-1.1-2.5-2.5s1.1-2.5,2.5-2.5c1.4,0,2.5,1.1,2.5,2.5S256.5,62.4,255.2,62.4z M255.2,59.1
			c-0.4,0-0.7,0.3-0.7,0.7s0.3,0.7,0.7,0.7c0.4,0,0.7-0.3,0.7-0.7S255.6,59.1,255.2,59.1z"/>
	</g>
	<g>
		<g>
			<path class="st0" d="M197.4,212l7.7,15.9c0.2,0.4,0.2,1,0,1.4c-2.8,4.9-0.4,10.5,2.3,14.7c4.1,0.9,8.8,1.5,14.4,1.8
				c0.6-7.9-0.7-13.6-4-16.8c-3.5-3.4-8-2.9-8.2-2.9c-0.7,0.1-1.3-0.3-1.6-0.9l-6.8-15.1l-1.2-2.7l-7.9-17.5c0,0,0-0.1,0-0.1
				c-0.5-1.5-1.9-4-3.4-4.6c-0.2-0.1-0.3-0.1-0.5-0.1c-0.2,0-0.5,0.1-0.7,0.2c-0.5,0.3-0.8,0.6-1,1.1c-0.5,1.7,0.6,4.3,1,5.2
				l8.7,17.8L197.4,212z"/>
			<path class="st0" d="M271.9,235.3c-3.8,3.6-9.5,7.4-18.1,10c-1.2,0.4-2.4,0.7-3.7,1c-0.9,0.2-1.8,0.4-2.8,0.6
				c-1.9,0.4-4,0.7-6.1,1c-0.2,0-0.5,0.1-0.7,0.1c-1.5,0.2-3,0.3-4.6,0.4c-0.2,0-0.5,0-0.7,0c-1.8,0.1-3.6,0.2-5.5,0.2
				c-0.5,0-0.9,0-1.4,0c-1.3,0-2.5,0-3.7,0c-3.1-0.1-5.9-0.2-8.6-0.5c-2-0.2-4-0.5-5.8-0.8c-1.6-0.3-3.1-0.6-4.5-0.9
				c-8-1.9-13.4-4.8-17.1-7.6c-2.1-1.7-3.6-3.3-4.7-4.8c0,0.5,0,1,0,1.5c0.2,6.6,1.9,17,9.1,25.5c8.4,9.8,22,14.7,40.7,14.7
				c14.6,0,25.7-4.3,33-12.8c8.4-9.8,9.9-23.1,9.9-31.2c0-0.6,0-1.2,0-1.7C275.3,231.6,273.9,233.4,271.9,235.3z"/>
			<path class="st0" d="M248.7,223.7c-3.7,5.7-7.6,6.3-8.4,6.3c-5.2,0.9-7.9,10-8.9,15.7c0.5,0,1,0,1.5-0.1c4-10,5.9-10.3,6.5-10.4
				c0.7-0.1,1.4,0.1,1.9,0.7c1.5,1.8,0.3,5.7-1.2,9.2c0.7-0.1,1.5-0.2,2.2-0.3c2.9-7.5,4-7.5,4.8-7.6c0.7,0,1.4,0.3,1.7,1
				c0.6,1.2,0.3,3.3-0.4,5.4c1.1-0.2,2.1-0.5,3.1-0.8c1.4-4.2,0.9-6.9-0.1-7.9c-2.6-2.6-1.4-6.7-1.4-6.8c0-0.1,0.1-0.2,0.1-0.3
				l9.3-17.9l1.4-2.7l8.7-16.7c0-0.1,0.1-0.1,0.1-0.2c0.1-0.2,2.7-3.8,0.3-5.6c-0.7-0.5-1.1-0.5-1.4-0.4c-1,0.3-2,2-2.4,2.7l-9,18.8
				l-1.3,2.8l-7.1,14.8C248.8,223.6,248.7,223.6,248.7,223.7z"/>
			<path class="st0" d="M219.9,226.7c3.9,3.9,5.6,10.3,4.9,19.1c0.8,0,1.7,0,2.5,0c0.3,0,0.6,0,0.9,0c0.9-5.2,3.8-17.6,11.6-18.8
				c0.1,0,0.2,0,0.2,0c0.1,0,2.9-0.2,6-4.9l6.8-14.4c-6-1.7-13.5-2.8-22.9-2.8c-0.3,0-0.6,0-1,0c-10.7,0.1-18.8,1.6-25.1,3.9l6.3,14
				C212.4,223,216.5,223.4,219.9,226.7z"/>
			<path class="st0" d="M252.8,229.1c-0.1,0.5-0.5,2.6,0.7,3.7c1.6,1.6,2.4,4.6,1.4,9c14.4-5,19.2-13.4,20.6-16.6l0.4-1
				c-0.7-1.7-3.8-8-13.7-13L252.8,229.1z"/>
			<path class="st0" d="M188.2,234.8c-0.1-2.5,0.3-5.8,2.3-8.5c1.8-2.5,4.6-4,8.3-4.4l-4-8.2c-8.6,5.9-10.5,13-10.9,14.8l1.1,2.6
				C185.7,232,186.7,233.3,188.2,234.8z"/>
			<path class="st0" d="M192.9,228c-2.4,3.3-1.7,8.1-1.4,9.5c2.8,2,6.6,3.9,11.8,5.4c-2.2-4.3-3.6-9.5-1.2-14.4l-1.8-3.8
				C196.9,224.9,194.4,226,192.9,228z"/>
			<path class="st0" d="M236.6,245.4c0.8-1.8,1.5-3.5,1.9-4.9c-0.7,1.3-1.5,3.1-2.3,5C236.4,245.4,236.5,245.4,236.6,245.4z"/>
			<path d="M278.9,224C278.9,223.9,278.9,223.9,278.9,224c0-0.1,0-0.1,0-0.2c-0.2-0.6-2.8-9.1-15.4-15.3l8.5-16.5
				c0.4-0.6,2.2-3.4,1.8-6.2c-0.2-1.4-1-2.6-2.2-3.5c-1.6-1.2-3-1.1-3.9-0.8c-2.7,0.8-4.2,4.1-4.3,4.4l-9.1,19.1
				c-6.3-1.8-14.3-3-24.2-3c-0.3,0-0.7,0-1,0c-11.1,0.1-19.7,1.7-26.3,4.2l-8-17.6c-0.3-0.7-2-5.1-5-6.3c-1.2-0.5-2.5-0.4-3.7,0.2
				c-1.2,0.6-2.1,1.6-2.5,2.9c-1,3.1,1,7,1.2,7.4l8.8,18c-11,7.4-12.5,16.9-12.6,17.5c0,0.1,0,0.1,0,0.2c-0.2,1.1-2.9,19.8,9.5,34.3
				c9,10.5,23.4,15.8,43,15.8c15.5,0,27.4-4.6,35.3-13.8C282.5,248.9,279.1,225,278.9,224z M275.8,224.2l-0.4,1
				c-1.4,3.2-6.2,11.5-20.6,16.6c1-4.4,0.2-7.4-1.4-9c-1.2-1.2-0.8-3.2-0.7-3.7l9.3-17.9C272.1,216.2,275.2,222.5,275.8,224.2z
				 M255.9,208.7l1.3-2.8l9-18.8c0.3-0.8,1.3-2.5,2.4-2.7c0.3-0.1,0.7-0.1,1.4,0.4c2.4,1.7-0.2,5.4-0.3,5.6c0,0.1-0.1,0.1-0.1,0.2
				l-8.7,16.7l-1.4,2.7l-9.3,17.9c0,0.1-0.1,0.2-0.1,0.3c-0.1,0.2-1.2,4.2,1.4,6.8c1,1,1.5,3.7,0.1,7.9c-1,0.3-2,0.5-3.1,0.8
				c0.6-2.2,1-4.3,0.4-5.4c-0.3-0.7-1-1.1-1.7-1c-0.8,0.1-1.9,0.1-4.8,7.6c-0.7,0.1-1.4,0.2-2.2,0.3c1.5-3.4,2.6-7.4,1.2-9.2
				c-0.5-0.6-1.1-0.8-1.9-0.7c-0.6,0.1-2.5,0.4-6.5,10.4c-0.5,0-1,0-1.5,0.1c1-5.7,3.7-14.8,8.9-15.7c0.9,0,4.7-0.6,8.4-6.3
				c0-0.1,0.1-0.1,0.1-0.2L255.9,208.7z M238.5,240.5c-0.4,1.4-1.1,3.2-1.9,4.9c-0.1,0-0.3,0-0.4,0
				C237,243.6,237.8,241.8,238.5,240.5z M229.1,205c0.3,0,0.6,0,1,0c9.4,0,16.9,1.1,22.9,2.8l-6.8,14.4c-3.1,4.7-5.9,4.9-6,4.9
				c-0.1,0-0.2,0-0.2,0c-7.8,1.2-10.7,13.6-11.6,18.8c-0.3,0-0.6,0-0.9,0c-0.9,0-1.7,0-2.5,0c0.7-8.8-0.9-15.2-4.9-19.1
				c-3.4-3.3-7.5-3.7-9.5-3.7l-6.3-14C210.3,206.7,218.4,205.1,229.1,205z M187.4,191.5c-0.4-0.8-1.5-3.5-1-5.2
				c0.2-0.5,0.5-0.9,1-1.1c0.2-0.1,0.5-0.2,0.7-0.2c0.2,0,0.3,0,0.5,0.1c1.4,0.6,2.8,3.1,3.4,4.6c0,0,0,0.1,0,0.1l7.9,17.5l1.2,2.7
				l6.8,15.1c0.3,0.6,0.9,1,1.6,0.9c0.2,0,4.7-0.6,8.2,2.9c3.3,3.2,4.6,8.9,4,16.8c-5.6-0.3-10.3-0.9-14.4-1.8
				c-2.7-4.1-5.1-9.8-2.3-14.7c0.2-0.4,0.3-1,0-1.4l-7.7-15.9l-1.3-2.7L187.4,191.5z M192.9,228c1.5-2,3.9-3.1,7.3-3.3l1.8,3.8
				c-2.4,4.9-1,10.1,1.2,14.4c-5.2-1.5-9-3.4-11.8-5.4C191.2,236.2,190.5,231.3,192.9,228z M194.8,213.6l4,8.2
				c-3.7,0.5-6.5,1.9-8.3,4.4c-2,2.7-2.4,6-2.3,8.5c-1.5-1.4-2.5-2.8-3.1-3.9l-1.1-2.6C184.3,226.6,186.3,219.5,194.8,213.6z
				 M266.5,262.9c-7.3,8.5-18.4,12.8-33,12.8c-18.6,0-32.3-5-40.7-14.7c-7.2-8.5-8.9-18.8-9.1-25.5c0-0.5,0-1,0-1.5
				c1.1,1.5,2.6,3.1,4.7,4.8c3.7,2.9,9.1,5.7,17.1,7.6c1.4,0.3,2.9,0.6,4.5,0.9c1.8,0.3,3.7,0.6,5.8,0.8c2.7,0.3,5.5,0.4,8.6,0.5
				c1.2,0,2.4,0,3.7,0c0.5,0,0.9,0,1.4,0c1.9,0,3.7-0.1,5.5-0.2c0.2,0,0.5,0,0.7,0c1.6-0.1,3.2-0.3,4.6-0.4c0.2,0,0.5-0.1,0.7-0.1
				c2.2-0.3,4.2-0.6,6.1-1c1-0.2,1.9-0.4,2.8-0.6c1.3-0.3,2.5-0.7,3.7-1c8.6-2.6,14.3-6.4,18.1-10c2-1.9,3.4-3.7,4.5-5.3
				c0,0.5,0,1.1,0,1.7C276.4,239.8,274.9,253.1,266.5,262.9z"/>
		</g>
		<path d="M250.6,212.4c-4.9-0.6-8.6,1.9-10.2,3.1c-0.1-1.1-0.2-1.8-0.2-1.9c-0.1-0.5-0.4-0.9-0.9-1.1s-1-0.2-1.4,0.1l-7.2,4.6
			c-2-8.2-9.5-9.4-9.8-9.5c-0.7-0.1-1.4,0.3-1.6,0.9c-0.6,1.4-0.9,2.8-1.1,4c-4.4-0.1-7.7,1-9.6,3.2c-2.5,2.9-1.7,6.5-1.7,6.7
			c0.2,0.7,0.8,1.2,1.5,1.2c0.1,0,0.2,0,0.3,0c0.8-0.2,1.3-1,1.1-1.8c0,0-0.5-2.3,1-4.1c1.3-1.5,3.7-2.2,7-2.2
			c0.1,3.9,1.7,6.4,2.7,7.6l-3,1.6c-0.7,0.4-1,1.3-0.6,2c0.3,0.5,0.8,0.8,1.3,0.8c0.2,0,0.5-0.1,0.7-0.2l7.3-4c0,0,0.1,0,0.1-0.1
			l10.9-7c0.1,2.3-0.3,5.9-2.3,8.9c0,0.1-0.1,0.1-0.1,0.2c-7.7,0.7-12.6,3.9-12.8,4.1c-0.7,0.5-0.9,1.4-0.4,2.1
			c0.3,0.4,0.8,0.7,1.3,0.7c0.3,0,0.6-0.1,0.8-0.2c0.1,0,7.7-5,18.6-3.4c0.8,0.1,1.6-0.5,1.7-1.3c0.1-0.8-0.5-1.6-1.3-1.7
			c-1.5-0.2-3-0.3-4.3-0.3c1.2-2.3,1.6-4.7,1.8-6.7c0.1,0,0.2,0.1,0.3,0.1c0.4,0,0.8-0.1,1.1-0.4c0,0,3.6-3.5,8.4-2.9
			c0.8,0.1,1.6-0.5,1.7-1.3C252,213.2,251.4,212.5,250.6,212.4z M225,220.9l-1.6,0.9c0,0,0,0-0.1-0.1c0,0-2.5-2.1-2.4-6.7
			c-0.1-0.3,0-0.5,0-0.8c0-0.3,0-0.4,0.1-0.7c0.1-0.8,0.3-1.6,0.6-2.6c1.8,0.6,5.2,2.4,6.2,7.2c0.1,0.2,0.2,0.4,0.3,0.6L225,220.9z"
			/>
		<path d="M271.1,235c-0.1,0-0.2,0-0.3,0c-0.8-0.2-1.3-1-1.1-1.8c0.2-1.1,0.1-1.9-0.4-2.5c-1.1-1.4-3.9-1.7-4.8-1.7
			c-0.7,0-1.3-0.5-1.5-1.2s0.2-1.4,0.8-1.7c2.6-1.3,3.6-4,4-5.6c-5.6-1.1-12.1,2.8-12.2,2.9c-0.7,0.4-1.6,0.2-2.1-0.5
			c-0.4-0.7-0.2-1.6,0.5-2.1c0.4-0.2,8.7-5.3,16-2.8c0.6,0.2,1,0.8,1,1.5c0,0.2-0.3,4-2.9,7c1.3,0.4,2.6,1.1,3.5,2.3
			c0.7,0.9,1.5,2.5,1,5C272.4,234.5,271.8,235,271.1,235z"/>
	</g>
	<g>
		<path d="M370,276c-0.1,0-0.1,0-0.2,0h-6c-3.7,0-4.9-2.5-5-3.9c0,0,0,0,0-0.1v-9c0-0.4,0.1-0.8,0.4-1.1c0.3-0.3,0.7-0.4,1.1-0.4
			l13.8,1c0.7,0.1,1.3,0.6,1.4,1.3c0.7,4.9,0.1,8.4-1.8,10.5C372.5,275.9,370.7,276,370,276z M370.1,273c0,0,1,0,1.8-0.8
			c1.1-1.2,1.5-3.6,1.1-6.7l-11-0.8v7.3c0,0.3,0.3,1,1.9,1h6C370,273,370,273,370.1,273L370.1,273z"/>
		<g>
			<path class="st0" d="M448.9,259c0.3-0.5,0.5-1.2,0.6-1.9l1.5-67.5c0-0.7-0.3-1.4-0.8-1.9c-0.5-0.5-1.1-0.7-1.7-0.7l-25.6,0.2
				l0.2,74.8l11.4,0l9.4,0C444.8,261.8,447.6,261.2,448.9,259z"/>
			<path class="st0" d="M438.9,273h6c0,0,0.1,0,0.1,0c0,0,0.9,0,1.7-0.9c0.8-0.9,2-3.2,1.6-8.6c-1.5,0.9-3.1,1.3-4.4,1.4l-7,0v7
				C437,272.3,437.3,273,438.9,273z"/>
			<path class="st0" d="M419.9,187.1l-58,0.4c-1.3,0-2.4,1.2-2.4,2.6l0,6.9H420L419.9,187.1z"/>
			<path class="st0" d="M359.1,253l0,0.8c0,0.2,0,0.4,0,0.7c0,3.5,0.3,7.3,5.2,7.8l55.8-0.3l0-8.9H359.1z"/>
			<polygon class="st0" points="420,200 359.4,200 359.1,250 420.1,250 			"/>
			<path d="M452.4,185.6c-1.1-1.1-2.4-1.6-3.9-1.6l-86.6,0.6c-3,0.1-5.5,2.6-5.4,5.6l-0.4,63.7c0,0,0,0,0,0c0,0.2,0,0.4,0,0.6
				c0,2.8-0.1,9.9,8.1,10.7c0,0,0.1-0.1,0.2-0.1c0,0,0,0,0,0l57-0.1c0.1,0,0.2,0.1,0.4,0.1c0,0,0,0,0,0c0.1,0,0.3,0,0.4,0l12,0v7.1
				c0,0,0,0,0,0.1c0.1,1.3,1.2,3.9,5,3.9h6c0,0,0.1,0,0.1,0c0.6,0,2.3-0.1,3.9-1.8c2.3-2.4,3-6.9,2.3-13.2c0.7-1,1.2-2.2,1.3-3.7
				c0,0,0-0.1,0-0.1l1.5-67.6C454.1,188.1,453.5,186.6,452.4,185.6z M359.5,190.1c0-1.4,1.1-2.6,2.4-2.6l58-0.4l0,9.9h-60.5
				L359.5,190.1z M359.4,200H420l0.1,50h-60.9L359.4,200z M364.3,262.2c-4.9-0.5-5.3-4.3-5.2-7.8c0-0.2,0-0.5,0-0.7l0-0.8h61l0,8.9
				L364.3,262.2z M423.1,262l-0.2-74.8l25.6-0.2c0.6,0,1.3,0.2,1.7,0.7c0.5,0.5,0.8,1.2,0.8,1.9l-1.5,67.5c-0.1,0.7-0.3,1.4-0.6,1.9
				c-1.3,2.2-4.1,2.8-5,2.9l-9.4,0L423.1,262z M446.8,272.1c-0.8,0.9-1.7,0.9-1.7,0.9c0,0-0.1,0-0.1,0h-6c-1.6,0-1.9-0.7-1.9-1v-7
				l7,0c1.3-0.1,2.9-0.5,4.4-1.4C448.8,268.9,447.6,271.2,446.8,272.1z"/>
		</g>
		<path d="M436.6,214.6c-6.3,0-11.5-5.2-11.5-11.5c0-6.3,5.2-11.5,11.5-11.5s11.5,5.2,11.5,11.5
			C448.1,209.4,442.9,214.6,436.6,214.6z M436.6,194.6c-4.7,0-8.5,3.8-8.5,8.5c0,4.7,3.8,8.5,8.5,8.5s8.5-3.8,8.5-8.5
			C445.1,198.4,441.3,194.6,436.6,194.6z"/>
		<path d="M431.6,228.6c-2.5,0-4.5-2-4.5-4.5s2-4.5,4.5-4.5s4.5,2,4.5,4.5S434.1,228.6,431.6,228.6z M431.6,222.6
			c-0.8,0-1.5,0.7-1.5,1.5s0.7,1.5,1.5,1.5s1.5-0.7,1.5-1.5S432.4,222.6,431.6,222.6z"/>
		<path d="M441.6,228.6c-2.5,0-4.5-2-4.5-4.5s2-4.5,4.5-4.5s4.5,2,4.5,4.5S444.1,228.6,441.6,228.6z M441.6,222.6
			c-0.8,0-1.5,0.7-1.5,1.5s0.7,1.5,1.5,1.5s1.5-0.7,1.5-1.5S442.4,222.6,441.6,222.6z"/>
		<path d="M431.6,239.6c-2.5,0-4.5-2-4.5-4.5s2-4.5,4.5-4.5s4.5,2,4.5,4.5S434.1,239.6,431.6,239.6z M431.6,233.6
			c-0.8,0-1.5,0.7-1.5,1.5s0.7,1.5,1.5,1.5s1.5-0.7,1.5-1.5S432.4,233.6,431.6,233.6z"/>
		<path d="M441.6,239.6c-2.5,0-4.5-2-4.5-4.5s2-4.5,4.5-4.5s4.5,2,4.5,4.5S444.1,239.6,441.6,239.6z M441.6,233.6
			c-0.8,0-1.5,0.7-1.5,1.5s0.7,1.5,1.5,1.5s1.5-0.7,1.5-1.5S442.4,233.6,441.6,233.6z"/>
		<path d="M431.6,249.6c-2.5,0-4.5-2-4.5-4.5s2-4.5,4.5-4.5s4.5,2,4.5,4.5S434.1,249.6,431.6,249.6z M431.6,243.6
			c-0.8,0-1.5,0.7-1.5,1.5s0.7,1.5,1.5,1.5s1.5-0.7,1.5-1.5S432.4,243.6,431.6,243.6z"/>
		<path d="M441.6,249.6c-2.5,0-4.5-2-4.5-4.5s2-4.5,4.5-4.5s4.5,2,4.5,4.5S444.1,249.6,441.6,249.6z M441.6,243.6
			c-0.8,0-1.5,0.7-1.5,1.5s0.7,1.5,1.5,1.5s1.5-0.7,1.5-1.5S442.4,243.6,441.6,243.6z"/>
	</g>
	<path d="M1082.8,77.1c-0.4-0.1-0.9-0.1-1.3,0c-0.3,0.1-3.1,1.1-3.9,3.7c-0.5,1.7,0.1,3.6,1.7,5.4c0.1,0.2,0.3,0.3,0.5,0.4
		c0.8,0.5,2.1,0.9,3.5,0.9c1.6,0,3.4-0.6,4.8-2.4c0.8-1.1,1.1-2.3,0.7-3.5C1088,79,1084,77.5,1082.8,77.1z M1082.1,83.4
		c-0.5-0.7-0.7-1.2-0.6-1.5c0.1-0.3,0.4-0.6,0.7-0.8c1.2,0.5,2.3,1.2,2.6,1.6C1084,84,1082.7,83.7,1082.1,83.4z"/>
	<path d="M1107.2,66.7c-5.6,1.2-8.4,8.3-8.6,8.6c0,0.1,0,0.1-0.1,0.2c-0.9,3.5-0.5,6.2,1.3,8.1c1.8,1.9,4.6,2.4,6.7,2.4
		c1.5,0,2.7-0.2,3-0.3c0.1,0,0.3-0.1,0.4-0.1c0.8-0.4,8.1-3.9,9-9c0.3-1.5,0.1-3.7-2.1-5.9C1113.7,67.3,1110.4,66,1107.2,66.7z
		 M1115.1,75.8c-0.4,2.2-4.2,4.8-6.6,5.9c-1.5,0.3-4.6,0.3-5.8-1c-0.9-1-0.7-2.8-0.3-4.2c0.3-0.7,2.4-5.3,5.6-6
		c1.8-0.4,3.8,0.6,6.1,2.8C1115.2,74.5,1115.2,75.3,1115.1,75.8z"/>
	<path d="M1139.2,73.2l-0.3-29.6c0-0.1,0-0.2,0-0.3c0-0.1,0-0.1,0-0.2c0-0.2-0.1-0.3-0.2-0.5c0,0,0-0.1,0-0.1c0,0,0,0,0,0
		c0,0,0,0,0,0C1127.4,25.1,1100.2,4.9,1099,4c-2.9-2.1-5.4-2.8-7.5-2.2c-1.7,0.6-2.5,1.9-2.8,2.5l-17.9,27.9
		c-0.3,0.5-0.4,1.1-0.2,1.6c0.2,0.6,0.6,1,1.1,1.3c1.7,0.8,5.9,4.7,6,8.4c0.1,2.1-1.3,3.8-4.1,5.3c-2.9,1.5-5.6,1.9-7.9,1.1
		c-3.5-1.1-5.3-4.6-5.4-4.6c-0.3-0.6-0.9-1-1.6-1.1c-0.7-0.1-1.4,0.2-1.8,0.8c-0.1,0.1-5.8,7.8-11.3,16.2
		c-11.5,17.4-11,20.4-10.8,21.7c0.1,0.7,0.4,1.1,0.7,1.5l9.5,20.4c0,0.1,0.1,0.2,0.2,0.3c0.1,0.2,2.8,3.9,7.1,3.9c0.2,0,0.5,0,0.7,0
		c0.1,0,0.3,0,0.4-0.1l82-26c0.1,0,0.2-0.1,0.4-0.2C1136.2,82.5,1139.9,80.3,1139.2,73.2z M1038.8,81.9c0.2-1.4,1.7-4.5,4-8.5
		c3.8-6.5,9.8-15.4,15.7-23.7c1.3,1.5,3.2,3.2,5.9,4.1c3.4,1.1,7.1,0.6,11.1-1.4c5.3-2.7,6.3-6.4,6.3-8.9c-0.1-4.4-3.5-8.6-6.4-10.8
		l16.9-26.3c0.1-0.1,0.2-0.3,0.2-0.4c0,0,0.1-0.2,0.4-0.3c0.6-0.2,1.9,0.1,3.9,1.6c0.2,0.2,21.8,16.2,34.2,31.5
		c1.5,1.8,2.8,3.6,3.9,5.4c0,0.2-0.1,0.5-0.2,0.7c-0.3,1-0.8,2.2-1.8,2.8c-1.4,0.9-3.6,1.5-5.1,1.8c-2.4-2.9-7.5-6.5-14.9-4
		c-3.2,1.1-5.3,2.9-6.4,5.4c-1,2.5-0.7,5.1-0.2,6.9l-38.7,12c-1,0.3-1.6,1.3-1.4,2.3c0,0.1,1.3,7-2.7,8.4c-2.9,1-5.5,1.1-7,0.2
		c-0.7-0.4-1.2-1.1-1.3-1.9c-0.1-0.6-0.5-1.2-1.1-1.5c-0.6-0.3-1.3-0.2-1.9,0.1c-3.7,2.2-8.2,4.1-11.2,4.6
		C1040.1,82,1039.3,82,1038.8,81.9z M1134,79.2l-81.5,25.8c-2,0.1-3.5-1.6-3.9-2.1l-8-17.1c3.9-0.3,8.6-2.4,11.6-4
		c0.6,0.9,1.3,1.6,2.3,2.2c2.6,1.5,6.4,1.6,10.4,0.2c5.4-1.9,5.7-8.1,5.5-11.1l39.1-12.2c0.6-0.2,1-0.6,1.2-1.1
		c0.2-0.5,0.2-1.2-0.1-1.7c0,0-1.5-3.2-0.5-5.7c0.6-1.4,1.9-2.5,4-3.2c7.3-2.4,10.8,3.2,11,3.5c0.4,0.7,1.2,1.1,2,1
		c0.2,0,4.8-0.8,7.8-2.6c0,0,0,0,0,0l0.3,22.3c0,0.1,0,0.1,0,0.2C1135.6,77.4,1134.3,78.9,1134,79.2z"/>
	<path d="M1098.4,36.3c0.2,0,0.3,0.1,0.5,0.1c0.1,0,0.2,0,0.3,0c3.5-0.6,5.9-2.1,7-4.4c1.3-2.8,0.4-6.1-0.9-8.2
		c-1.1-1.8-4.1-4.6-7.8-4.7c0,0-0.1,0-0.1,0c-1.8,0-4.4,0.7-6.5,4c-2.1,3.1-1.8,5.6-1.1,7.2C1091.5,34.5,1097.7,36.1,1098.4,36.3z
		 M1094.2,25.1c0.9-1.5,2-2.1,3.2-2.1c0,0,0,0,0.1,0c1.8,0,3.7,1.6,4.4,2.7c0.6,1,1.4,3,0.7,4.5c-0.6,1.2-2.2,1.8-3.6,2.1
		c-1.5-0.4-4.7-1.7-5.5-3.7C1093.3,28.3,1092.8,27.2,1094.2,25.1z"/>
	<g>
		<path d="M34.9,51.3c0.1,0,0.2,0.1,0.3,0.1c0.4,0,0.7-0.2,0.8-0.6c0-0.1,3.8-10.8,5.9-13.7c0.2-0.3,0.2-0.6,0.1-0.9
			c-0.1-0.1-0.1-0.2-0.3-0.3c-0.4-0.3-0.9-0.2-1.2,0.2c-0.1,0.1-0.2,0.3-0.3,0.4c-2.3,3.6-5.7,13.3-5.9,13.7
			C34.2,50.7,34.4,51.2,34.9,51.3z"/>
		<path d="M40.3,51.3c0.1,0,0.2,0,0.2,0c0.4,0,0.7-0.2,0.8-0.6c0-0.1,2-6.7,4-9.6c0.3-0.4,0.2-0.9-0.2-1.2c-0.4-0.3-0.9-0.2-1.2,0.2
			c-2.3,3.2-4.2,9.8-4.3,10.1C39.5,50.7,39.8,51.2,40.3,51.3z"/>
		<path d="M104.7,43.4c-2.5-2.5-5.7-3.3-7.8-3.5c-0.7-1.3-1.8-2.7-3.2-4.1c-9.1-9-26.8-10.5-40.1-10.1c-3.1,0.1-6,0.3-8.7,0.6
			L24.3,15c0,0,0,0,0,0c-0.1,0-0.2-0.1-0.2-0.1c0,0-0.1,0-0.1,0c-0.1,0-0.1,0-0.2,0c0,0-0.1,0-0.1,0c0,0-0.1,0-0.1,0l-6.1,0.9
			c-0.7,0.1-1.1,0.7-1.1,1.3l0.5,20.1c-0.8,0.8-1.4,1.7-2,2.5c-1.2,0-6.1,0.2-9.6,3.8c-2.7,2.8-3.9,6.9-3.5,12.1
			C1.9,59.7,3.4,62.9,6,65c1.7,1.4,3.7,2,5.4,2.4l-0.1-2.7c-1.2-0.3-2.5-0.8-3.7-1.7c-2-1.6-3.2-4.2-3.5-7.6
			c-0.4-4.4,0.6-7.8,2.7-10c2-2,4.6-2.7,6.2-2.9c-0.5,1.2-0.8,2.3-1,3.1c-0.1,0.6-0.1,1-0.2,1.2c-0.3,0-0.7,0.1-1,0.1
			c-0.7,0.1-1.3,0.4-1.9,0.9c-1.5,1.1-2.2,3.1-2.2,5.8C6.9,56,7.8,58,9.3,59.3c0.6,0.5,1,0.9,2,1.1l0-0.1l0-0.4l0,0l0,4.4l0,2.8
			l0.2,11.2c0,0.3-0.1,6.6,7.2,9.9c9.8,4.4,17.3,6.4,39.1,6.8c1.6,0,3.1,0.1,4.5,0.1c16.9,0,24-2.2,29.2-5.5
			c1.8-1.1,7.2-4.5,7.2-14.2l0-8.1c1.7-0.3,3.6-1.1,5.3-2.5c2.6-2.2,4-5.4,4.2-9.6C108.8,50.1,107.5,46.1,104.7,43.4z M11,57.3
			c-0.9-0.8-1.5-2.1-1.5-3.9c0-0.7,0-1.5,0.2-2.2c-0.2,0.7-0.3,1.5-0.2,2.2C9.6,55.2,10,56.5,11,57.3C11,57.3,11,57.3,11,57.3
			L11,57.3C11,57.3,11,57.3,11,57.3c-1-0.8-1.5-2.1-1.5-3.9c0-0.7,0-1.5,0.2-2.2c0.2-0.6,0.4-1.1,0.9-1.5c0.1-0.1,0.3-0.3,0.4-0.3v0
			c-0.1,0-0.3,0.2-0.4,0.3c-0.4,0.3-0.7,0.9-0.9,1.5c0.2-0.6,0.4-1.1,0.9-1.4c0.1-0.1,0.3-0.2,0.4-0.2L11,57.3
			C11.1,57.3,11.1,57.3,11,57.3z M11,49.5l0.2,7.9c0,0,0,0-0.1,0L11,49.5z M11.1,57.4L11.1,57.4c0.1,0,0.1,0,0.1,0.1l0,0
			c0,0,0,0.1,0.1,0.1C11.3,57.5,11.2,57.5,11.1,57.4z M11.3,57.5C11.3,57.6,11.4,57.6,11.3,57.5C11.4,57.6,11.4,57.6,11.3,57.5
			C11.4,57.6,11.3,57.6,11.3,57.5z M90.5,59.8c-0.7-2-2-3.3-3.7-4.1l3.7-10.5c0.1,0.1,0.2,0.3,0.4,0.4c3.5,4.2,3.4,8.6,3,10.8
			c-0.4,0.7-0.8,1.3-1.4,2c-0.6,0.7-1.3,1.4-2,2C90.6,60.2,90.6,60,90.5,59.8z M55.1,68.8c-0.5-0.9-1.5-3-0.8-4.9
			c0.5-1.3,1.9-2.3,4.2-2.9c0.7-0.2,1.1-0.9,0.9-1.6c-0.2-0.7-0.9-1.1-1.6-0.9c-3.2,0.8-5.2,2.4-6,4.6c-0.8,2.1-0.3,4.2,0.3,5.7
			c-2.5-0.1-4.8-0.3-7-0.5c0.1-1.4-0.1-3.1-0.9-4.8c0.3-0.2,0.5-0.4,0.5-0.7c0.1-0.3,2-7.1,9.4-5.8c0.6,0.1,1.3-0.3,1.5-0.9
			c0.1-0.4,1.3-3.6,5.5-2.4c0.7,0.2,1.4-0.2,1.6-0.9c0.2-0.7-0.2-1.4-0.9-1.6c-4.6-1.3-7.2,1.1-8.3,3.1c-2.5-0.3-4.5,0.3-6.1,1.2
			c2.4-1.6,4-3.6,4.9-6.1c2.3-6.3-1-13.1-1.2-13.3c0,0,0-0.1-0.1-0.1c0-0.1-0.1-0.2-0.2-0.3c1.3-0.1,2.5-0.1,3.8-0.1
			c0.2,0,0.3,0,0.5,0c-1.1,3.6-0.4,7.7,0.5,10.4c-1.3,0.6-2.1,1.3-2.1,1.4c-0.6,0.5-0.6,1.3-0.1,1.9c0.5,0.6,1.3,0.6,1.9,0.1
			c0,0,2.2-1.9,4.5-1.6c1.2,0.1,2.1,0.8,3,1.9c0.2,0.3,0.5,0.5,0.9,0.5c0.1,0,0.1,0,0.2,0c0.3,0,0.6-0.1,0.8-0.3
			c0,0,1.9-1.5,4.6-0.5l-1.8,3.5c-2.5-0.1-4.9,1.1-5.2,1.2c-0.6,0.3-0.9,1.1-0.6,1.8c0.3,0.6,1.1,0.9,1.8,0.6
			c0.5-0.2,1.5-0.6,2.6-0.8c0.9-0.2,1.8-0.2,2.6,0.2c0.1,0,0.1,0.1,0.2,0.1c0.6,0.3,0.9,0.9,1.2,1.8c0.1,0.4,0.5,0.8,0.9,0.9
			c0.4,0.1,0.9,0,1.3-0.3c0.5-0.5,2.3-1.7,3.7-1.4c0.7,0.1,1.3,0.7,1.9,1.6c0.3,0.6,1.1,0.9,1.7,0.6c0,0,1.7-0.8,3.5-0.9
			c0.9-0.1,1.8,0,2.7,0.3c0,0,0,0,0.1,0c1,0.4,1.7,1.2,2.2,2.5c0.2,0.5,0.7,0.8,1.2,0.9c-6.4,4.8-16.8,7.3-30.6,7.3
			C57.4,68.8,56.2,68.8,55.1,68.8z M39.1,58.3c1.7-0.2,3.6-0.6,5.7-1.5c0.7-0.3,1.3-0.7,2-1c-2.1,1.4-3.4,3.4-4.1,5.1
			C41.8,59.8,40.6,58.9,39.1,58.3z M42.5,67.9c-8-1-13.6-2.9-17.7-4.9c1.1-1.4,4.3-4.3,10.7-3C42,61.1,42.6,66,42.5,67.9z
			 M88.6,42.9l-0.1,0.3l-0.4,1c-3.6,1-6.4,0.9-8.2-0.4c-2.2-1.6-2.2-4.5-2.2-4.6c0-0.1,0-0.1,0-0.2c0.2-0.3,0.5-0.6,0.7-0.9
			c0.6-0.7,1.4-1.4,2.3-2c1.4-0.8,2.9-1.1,4.6-0.2c0,0,0.1,0,0.1,0.1c0.1,0.1,2.9,1.1,3.3,4.2C88.9,40.9,88.9,41.8,88.6,42.9z
			 M78.4,45.9c1.5,1.1,3.3,1.6,5.5,1.6c1,0,2.1-0.1,3.2-0.4l-2.9,8c-1.8-0.1-3.6,0.4-4.7,0.8c-1-1.3-2.2-1.8-3.1-2
			c-1.7-0.3-3.4,0.4-4.5,1c-0.5-0.9-1.2-1.4-1.8-1.8l5.5-10.9C76.2,43.5,77,44.9,78.4,45.9z M75.7,37.3c-1,1.3-1.6,2.4-1.6,2.5
			l-3.5,7c-2.8-1.2-5-0.5-6.3,0.1c-1.2-1.2-2.5-1.9-4.1-2.1c-0.6-0.1-1.3,0-1.8,0.1c-0.5-1.4-1.8-6-0.3-9.6c0.4-0.9,1-1.8,1.9-2.6
			c0.5-0.4,1-0.7,1.6-1c6.6-3.2,12-0.5,15.1,3.2c0.2,0.2,0.4,0.5,0.5,0.7C76.7,36.1,76.1,36.7,75.7,37.3z M62.9,28.3
			c-0.8,0.3-1.6,0.6-2.5,1c-0.3,0.1-0.5,0.3-0.8,0.5c-0.5-0.4-1.4-1-2.5-1.5C59.2,28.2,61.1,28.2,62.9,28.3z M57.5,31.4
			c-0.4,0.4-0.7,0.8-1,1.2c-0.6,0-1.2,0-1.7,0c-1.9,0-3.7,0.1-5.5,0.2c-0.3-0.4-0.5-0.7-0.7-0.9c1.2-1.3,2.5-2,3.9-2.1
			C54.6,29.7,56.4,30.7,57.5,31.4z M45.2,28.8c1.1-0.1,2.2-0.2,3.4-0.3c-0.7,0.4-1.4,1-2,1.7c-0.6-0.4-1.2-0.8-1.9-1.1L45.2,28.8z
			 M46.1,33c0.2,0.2,0.3,0.3,0.5,0.5c0.3,0.3,0.9,1.2,1.4,2c0.3,0.5,0.7,1.1,0.9,1.5c0.3,0.6,2.8,6.2,1,11.2c-1,2.7-3,4.7-6.2,6.1
			c-9.6,4.3-15.1-2.8-15.3-3.1c-2.6-3.8-3.2-7-3.1-9.3c0-0.1,0-0.2,0-0.4l10-6.4c-0.5,0.9-1,1.9-1.6,2.9c-1.8,3.6-3.5,7.8-3.6,8
			c-0.2,0.4,0,1,0.5,1.1c0.1,0,0.2,0.1,0.3,0.1c0.3,0,0.7-0.2,0.8-0.5c0-0.1,2.3-5.6,4.3-9.4c0.5-1,1.1-1.9,1.5-2.5
			c0.1-0.2,0.2-0.4,0.1-0.6c0-0.2-0.1-0.4-0.3-0.5l4.7-3C43.7,31.3,45.1,32.1,46.1,33z M24.7,34.9l0-0.6l0-3l0.1-6.1l0.1-6.9
			l15.5,8.4l1.7,0.9l-0.4,0.2L39,29.6l-0.4,0.2l-12.3,7.9l-1.6,1L24.7,34.9z M26.3,52.8c0,0,2,2.6,5.5,4.2c-5.4,0.3-8.2,3.2-9.3,4.6
			c-2.3-1.4-3.9-2.9-5-4.4c-0.3-0.4-0.6-0.9-0.9-1.3c0.1-0.2,0.1-0.3,0.1-0.5c0-0.1-0.2-5.1,4.5-10.1c0.5-0.5,1-1,1.5-1.5
			C23,46.4,23.9,49.4,26.3,52.8z M22.3,17.6l-0.2,15.1l0,3.2l-0.1,4.2l-2.7,0.6l-0.1-2.6l-0.1-3.5l-0.4-16.6L22.3,17.6z M14.5,47.8
			c0-0.3,0.1-0.5,0.1-0.5c0-0.1,0-0.2,0-0.3c0-0.1,0-0.7,0.3-1.6c0.2-0.7,0.5-1.7,1.1-2.8c0.2-0.4,0.5-0.9,0.8-1.3l0,1.2
			c0,0.4,0.2,0.8,0.5,1c0.2,0.2,0.5,0.3,0.8,0.3c0.1,0,0.2,0,0.3,0l0.9-0.2c0,0,0,0,0,0c-2.6,2.8-3.9,5.6-4.6,7.8
			c-0.2-0.8-0.2-1.4-0.2-2C14.4,48.7,14.5,48.1,14.5,47.8z M90.3,87.5c-5.3,3.3-12.7,5.5-32.3,5c-21.3-0.4-28.7-2.3-38.1-6.6
			c-5.7-2.6-5.7-7.3-5.7-7.5L14,67.6L14,64.9l0-1.7l0,0.1l0,1.6c0.1,0,0.2,0,0.2,0L14,63.3L13.9,59c0,0,0,0,0,0l0-2.2c0,0,0,0,0,0
			l0,1.7l0.2,0l0-0.3c0,0,0.6,0,0.6,0c0.1,0,0.2,0,0.3,0c0,0,0,0,0.1,0.1c0.1,0.2,0.3,0.3,0.4,0.5c0.2,0.3,0.4,0.5,0.7,0.7
			c6.9,7.9,21.2,11.9,42.5,11.9c17.3,0,29.2-3.7,35.6-11c0.2-0.2,0.3-0.4,0.5-0.5c0.4-0.5,0.8-1,1.1-1.6c0,0-0.1,0-0.1,0
			c0.2-0.3,0.4-0.5,0.4-0.8v0.2v0.2c-0.1,0.1-0.1,0.2-0.2,0.3c0,0,0,0,0,0c0,0,0,0,0,0c0,0,0.1,0,0.2,0v6.4v0.3v2.6l0.1,7.8
			C96.1,82.8,92.8,85.8,90.3,87.5z M96,46.2c0,0.1,0,1.2,0,2.9v0.4c0,0,0.1,0,0.1,0c0,0.2,0,0.4,0,0.7c-0.5-2-1.5-4.1-3.2-6.2
			c-0.5-0.6-1-1.1-1.5-1.7c0.5-3.1-0.6-5.4-2.1-6.8c-1.2-0.9-2.7-1.7-4.4-2.5c-1.2-0.3-2.5-0.3-3.7,0.1c-0.7,0.2-1.3,0.5-1.9,0.9
			c-1.3-1.7-2.8-3.2-4.7-4.3c4.2,0.8,7.6,2,10.3,3.2c0,0,0,0,0,0c1.7,0.8,3.2,1.7,4.4,2.5c0,0,0,0,0,0c0.9,0.7,1.8,1.4,2.4,2
			c0.9,0.8,1.5,1.7,2.1,2.5c1.5,2.2,2,4,2.2,5.1c0.1,0.5,0.1,0.8,0.1,0.9C96.2,46,96,46.1,96,46.2z M105.9,55.2
			c-0.2,3.5-1.3,6.1-3.3,7.7c-1.1,1-2.5,1.5-3.7,1.8l0-4.2c0.6-0.2,1.3-0.6,1.9-1.1c1.5-1.3,2.3-3.4,2.3-6c0-2.7-0.7-4.6-2.3-5.7
			c-0.6-0.4-1.8-0.7-1.8-0.8v0.3c0-0.1,0-0.2,0-0.3c0-0.1,0-0.1,0-0.2v-0.8c0-0.2-0.1-0.3-0.2-0.5c0,0,0,0,0,0
			c0-0.5-0.2-1.5-0.6-2.7c1.5,0.4,3.2,1.1,4.7,2.5C105.1,47.4,106.1,50.8,105.9,55.2z M99.3,49.8c0.8,0.6,1.2,1.8,1.2,3.6
			c0,1.8-0.4,3.2-1.4,4c-0.1,0.1-0.2,0.1-0.2,0.1v-7.9c0,0,0,0,0,0c0-0.2,0-0.4,0-0.5v0.6C99,49.7,99.2,49.8,99.3,49.8z"/>
	</g>
	<g>
		<path d="M57.8,261.5c-32.6,0-40.5-13.1-40.9-13.6c-0.4-0.6-0.2-1.5,0.5-1.8c0.6-0.4,1.4-0.2,1.8,0.5c0.1,0.2,7.8,12.3,38.6,12.3
			c16.1,0,25-4,29.7-7.3c5-3.6,6.3-7.2,6.3-7.3c0.2-0.7,1-1.1,1.7-0.8c0.7,0.2,1.1,1,0.8,1.7C96,245.7,90.5,261.5,57.8,261.5z"/>
		<path d="M66,219.2c-2.9,0-3.8-2.4-4.3-3.7c-0.1-0.4-0.3-0.9-0.4-1c-1.5-1.7-3-2.4-4.4-2.1c-1.5,0.3-2.7,1.7-3,2.6
			c-0.8,2.3-2.8,3.7-5.2,3.4c-2.2-0.3-4-2-4.2-4.3c-0.3-2.4,0.5-4.7,2.2-6.6c2.4-2.6,6.5-3.9,11.3-3.7c8.3,0.4,12.6,5,13,9.3
			c0.3,2.8-1,5.1-3.3,5.7C67.2,219.2,66.6,219.3,66,219.2z M57.6,209.8c1.6,0,3.6,0.6,5.8,3c0.5,0.5,0.7,1.2,1,1.9
			c0.6,1.6,0.8,2.3,2.9,1.7c1.1-0.3,1.4-1.6,1.3-2.8c-0.3-2.4-2.8-6.6-10.5-7c-4.1-0.2-7.3,0.8-9.2,2.9c-1.2,1.3-1.7,2.8-1.5,4.5
			c0.1,1.2,1,1.8,1.9,1.9c0.4,0,1.7,0.1,2.3-1.7l0,0c0.6-1.7,2.4-3.8,5-4.3C56.8,209.8,57.2,209.8,57.6,209.8z"/>
		<path d="M19,205.2c-1.6,0-3-0.5-4-1.5c-0.6-0.6-1.1-1.3-1.4-2c-0.7,0.6-1.6,1.1-2.7,1.3c-1,0.2-2.6,0.1-4.3-1.3
			c-2-1.7-2.7-4.1-1.8-6.6c0.6-1.6,1.8-3,3.3-3.8c-1.5-0.9-3.1-2.2-3.7-4.1c-0.6-1.8-0.2-3.7,1.1-5.6c3.8-5.3,7.6-5.3,9.5-4.9
			c1.9,0.5,3.5,1.7,4.6,3.1c0.7-1.2,1.7-2.5,3.3-3.1c2.1-0.9,4.5-0.4,7.2,1.5c4.1,2.8,4.3,5.6,3.8,7.4c-0.4,1.6-1.6,2.9-2.9,3.9
			c0.2,0.1,0.4,0.3,0.5,0.5c1.2,1.2,1.4,3,0.8,5.4c-0.6,2.4-2,3.5-3.1,3.9c-1.8,0.8-3.8,0.6-5.5,0.2c0.2,1.1,0.3,2.3-0.3,3.4
			c-0.4,0.9-1.5,1.9-3.7,2.1C19.5,205.2,19.2,205.2,19,205.2z M14.3,197.6c0.1,0,0.2,0,0.4,0c0.6,0.2,1,0.7,1,1.3c0,0,0,1.8,1.2,2.8
			c0.6,0.6,1.5,0.8,2.7,0.7c0.8-0.1,1.4-0.3,1.6-0.7c0.5-0.9-0.4-3-0.8-3.8c-0.3-0.5-0.2-1.2,0.2-1.6c0.4-0.4,1-0.5,1.6-0.3
			c1.1,0.5,4.2,1.7,6.1,0.8c0.8-0.4,1.3-1.1,1.6-2.2c0.2-1,0.4-2.3-0.2-2.9c-0.6-0.6-1.7-0.6-2.4-0.6c-0.2,0-0.3,0-0.5,0.1
			c-0.7,0.1-1.3-0.5-1.4-1.2c-0.1-0.7,0.4-1.4,1.1-1.5c0.1,0,0.2,0,0.5-0.1c1.4-0.3,3.9-1.7,4.5-3.7c0.4-1.5-0.5-3-2.8-4.5
			c-1.9-1.3-3.5-1.7-4.7-1.2c-2.1,0.9-2.8,4.3-2.8,4.4c-0.1,0.6-0.7,1.1-1.3,1.1c-0.6,0-1.2-0.5-1.3-1.1c-0.3-1.6-1.9-3.7-4-4.2
			c-2.2-0.5-4.6,0.8-6.7,3.8c-0.8,1.2-1.1,2.2-0.8,3.1c0.7,2.1,4.2,3.6,5.4,3.9c0.6,0.2,1,0.8,0.9,1.5c-0.1,0.7-0.7,1.1-1.3,1.1
			c-2.3,0-4.1,1.6-4.6,3.1c-0.3,0.8-0.5,2.3,1,3.6c0.8,0.6,1.5,0.9,2.2,0.8c1.3-0.2,2.4-1.7,2.7-2.2
			C13.4,197.9,13.8,197.6,14.3,197.6z"/>
		<g>
			<path d="M55.3,241.6c0.3,0,0.7,0,1.3,0c3.6,0,12.8-0.3,21.4-2.7c-8.6,2.4-17.8,2.7-21.4,2.7C56,241.6,55.5,241.6,55.3,241.6
				c-4.6,0-24.5-0.7-33.9-9.9c0,0,0,0,0.1,0.1C30.8,241,50.7,241.6,55.3,241.6z"/>
			<path d="M92.3,271.1L92.3,271.1l-0.2,0.2c-0.2,0.2-1.8,2.4-6.5,4.6c-4.6,2.2-13.1,4.8-27.5,4.9c-0.4,0-0.8,0-1.3,0c0,0,0,0,0,0
				c0.4,0,0.8,0,1.3,0c14.4-0.1,22.9-2.7,27.5-4.9c4.6-2.2,6.3-4.4,6.5-4.6L92.3,271.1L92.3,271.1c0.1-0.1,2-2.4,2-6.2L94,229.3v0
				c0,0.1-0.2,0.1-0.2,0.2l0.4,35.5C94.1,268.8,92.3,271.1,92.3,271.1z"/>
			<path d="M19.3,229.3c0.6,0.8,1.2,1.6,2,2.4C20.6,230.9,20,230.1,19.3,229.3z"/>
			<path d="M16.5,218.6L16.5,218.6l0,1l0,0C16.5,219.3,16.5,219.2,16.5,218.6z"/>
			<path d="M96.2,218.4L96.2,218.4c0,0.1,0,0.1,0,0.2L96.2,218.4z"/>
			<path d="M96.3,220.2c0-0.5-0.1-1.1-0.1-1.6l0,3.4C96.3,221.4,96.3,220.8,96.3,220.2z"/>
			<path d="M19,229.1c0,0.1,0.1,0.1,0.1,0.2l0.1-0.3h0.1h0c-1.8-3-2.7-5.3-2.8-8.5l0,1.3C16.7,224.4,18,226.9,19,229.1L19,229.1z"/>
			<polygon points="93.8,221.8 93.8,221.8 93.8,221.8 			"/>
			<path d="M93.6,219c0.1,0.4,0.1,0.6,0.1,1c0,0.5,0,1.5,0,1.5l0.1,0l0.2,0.2c0,0,0,0,0,0c-1,3.1-1.8,5.8-4.1,8.2
				c-8.3,8.2-27.2,9-33,9.1c-0.2-0.1-0.5-0.1-0.7-0.1c0,0,0,0,0,0c-0.2,0-23.2,0.3-32.8-9.2c-2.5-2.4-3.9-5.3-4.1-8.8
				c0,0,0-0.9,0-1.2c0-0.5,0-0.8,0.1-1.8h0c0.3-3,1.9-6.8,4.7-9.5c9.3-9.2,29.3-8.9,30.2-8.9c0,0,0,0,0,0c0.1,0,0.1,0,0.2,0
				c3.3,0,13.3,0.1,22.3,2.7c-0.1-0.2-0.2-0.5-0.3-0.8c-0.3-0.8-0.3-1.6-0.2-2.4c-10.8-3-22.2-2.6-22.9-2.6c0,0-0.1,0-0.1,0
				c-4.5,0.1-21.9,0.8-31.1,9.8c-3.3,3.3-5.1,7.6-5.5,11.6h0c0,0,0,0,0,0h0c0,1,0,1.1-0.1,1.5l0,1c0-0.2,0-0.3,0-0.5
				c0-0.1,0-0.2,0-0.3l0-0.1l-0.1,0.9c0,0.4,0,0.9,0.1,1.3l0-1.2c0.1,3.2,1,6.1,2.8,8.6l0,0c0,0,0,0,0,0c0.8,0.8,1.3,1.6,2,2.4
				c0,0,0,0,0.1,0.1c9.4,9.2,29.3,9.8,33.9,9.9c0.3,0,0.7,0,1.3,0c3.6,0,12.8-0.3,21.4-2.7c5.2-1.5,10.1-3.7,13.6-7.1
				c0.8-0.8,1.5-1.7,2.2-2.6l0.1,0.2c0.1-0.1,0.2-0.1,0.2-0.2v0l0.2,35.6c0,3.8-1.8,6.1-1.9,6.2l-0.1,0.1l-0.1,0.2
				c-0.2,0.2-1.9,2.4-6.5,4.6c-4.6,2.2-12.6,4.8-26.9,4.9c-0.4,0-0.7-0.1-0.7-0.1v0.2c0,0-1.1,0-1.1,0c-24.8,0-31.8-7.4-34.8-10.6
				c-0.3-0.4-0.6-0.7-0.9-1c-1.2-1.2-1.5-3.5-1.5-4.3l-0.5-35.9c0-0.1-0.2-0.1-0.2-0.2v0c-1-2.2-2.3-4.6-2.6-7.3l0.5,43.3
				c0,0,0,4,2.4,6.2c2.6,2.4,9,12.2,37.5,12.2c0.4,0,0.9,0,1.3,0c29.6-0.3,36.2-10.8,36.2-10.8s2.4-3,2.4-7.9l-0.5-43l0-3.4
				c0-0.1,0-0.1,0-0.2c-0.1-0.8-0.2-1.5-0.4-2.2c-0.1,0.4-0.2,0.8-0.4,1.2C95.2,218,94.6,218.6,93.6,219z"/>
			<path d="M22.1,270.4c-0.3-0.4-0.6-0.7-0.9-0.9c-1.2-1.2-1.5-3.5-1.5-4.3l-0.4-35.8l0,0l0.4,35.8c0,0.8,0.3,3.2,1.5,4.3
				C21.5,269.7,21.8,270,22.1,270.4c3,3.1,10,10.5,34.8,10.5c0,0,0,0,0,0C32.1,280.9,25.1,273.5,22.1,270.4z"/>
			<rect x="19.3" y="229.3" width="0" height="0"/>
			<path d="M19.3,229.3C19.3,229.3,19.3,229.3,19.3,229.3L19.3,229.3C19.3,229.3,19.3,229.3,19.3,229.3z"/>
			<path d="M21.4,231.7C21.3,231.7,21.3,231.7,21.4,231.7C21.3,231.7,21.3,231.7,21.4,231.7C21.3,231.7,21.4,231.7,21.4,231.7z"/>
			<path d="M93.7,229.5l0-0.2c-0.6,0.9-1.3,1.8-2.2,2.6c-3.5,3.4-8.4,5.6-13.6,7.1c5.2-1.4,10.2-3.7,13.7-7.1
				C92.4,231.1,92.9,230.3,93.7,229.5z"/>
			<path d="M16.5,218.6L16.5,218.6c0,0.6,0,0.7-0.1,1l0,0l0,0.1C16.5,219.4,16.5,219,16.5,218.6z"/>
			<path d="M16.5,220.6l0-0.9c0,0.1,0,0.2,0,0.3C16.5,220.3,16.5,220.5,16.5,220.6z"/>
			<path d="M105.8,200.1c0.5-1.8,0.2-4.6-3.8-7.4c-2.7-1.8-5.1-2.3-7.2-1.5c-1.5,0.6-2.6,1.9-3.3,3.1c-1.1-1.4-2.6-2.7-4.6-3.1
				c-1.9-0.4-5.7-0.4-9.5,4.9c-0.8,1.1-1.2,2.1-1.3,3.1c0.9,0.2,1.7,0.5,2.6,0.8c0-0.7,0.3-1.5,0.9-2.4c2.2-3,4.5-4.4,6.7-3.9
				c2.1,0.5,3.7,2.6,4,4.2c0.1,0.6,0.6,1.1,1.3,1.1c0,0,0,0,0,0c0.6,0,1.2-0.4,1.3-1.1c0,0,0.7-3.4,2.8-4.3c1.2-0.5,2.8-0.1,4.7,1.2
				c2.2,1.5,3.2,3.1,2.8,4.5c-0.5,1.9-3,3.4-4.5,3.7c-0.2,0-0.4,0-0.5,0.1c-0.7,0.1-1.2,0.8-1.1,1.5c0.1,0.7,0.7,1.2,1.4,1.2
				c0.2,0,0.3,0,0.5-0.1c0.7-0.1,1.8,0,2.4,0.6c0.6,0.7,0.4,2,0.2,2.9c-0.3,1.1-0.8,1.8-1.6,2.2c-1.9,0.9-5-0.3-6.1-0.8
				c-0.1-0.1-0.3-0.1-0.4-0.1c1.1,1.8,1.8,3.7,2.3,5.8c0.1-0.7,0-1.5-0.1-2.2c1.6,0.4,3.7,0.6,5.5-0.2c1.1-0.5,2.5-1.6,3.1-3.9
				c0.6-2.4,0.3-4.2-0.8-5.4c-0.2-0.2-0.3-0.3-0.5-0.5C104.2,203,105.4,201.6,105.8,200.1z"/>
			<path d="M91.5,216.8c-1.2,0.1-2.1-0.1-2.7-0.7c-1.1-1-1.2-2.8-1.2-2.8c0-0.6-0.4-1.1-1-1.3c-0.1,0-0.2,0-0.4,0
				c-0.5,0-0.9,0.2-1.1,0.6c-0.3,0.5-1.4,2-2.7,2.2c-0.7,0.1-1.4-0.1-2.2-0.8c-1.6-1.3-1.3-2.8-1-3.6c0.6-1.6,2.3-3.2,4.6-3.1
				c0.7,0,1.2-0.5,1.3-1.1c0-0.1,0-0.1,0-0.2c-2.5-1.5-5.5-2.7-8.5-3.6c0.7,1.4,2.1,2.5,3.3,3.3c-1.5,0.9-2.7,2.2-3.3,3.8
				c-0.9,2.4-0.2,4.9,1.8,6.6c1.7,1.4,3.3,1.5,4.3,1.3c1.1-0.2,2-0.7,2.7-1.3c0.3,0.7,0.7,1.4,1.4,2c1,1,2.4,1.5,4,1.5
				c0.2,0,0.5,0,0.7,0c0.8-0.1,1.4-0.2,1.9-0.5c0-0.2-0.1-0.4-0.1-0.6c-0.1-0.8-0.2-1.5-0.4-2.3c0,0,0,0,0,0
				C92.9,216.5,92.4,216.8,91.5,216.8z"/>
			<path d="M76.3,201.6c0.1,0.3,0.2,0.5,0.3,0.8c3,0.9,6,2,8.5,3.6c0-0.6-0.4-1.1-0.9-1.3c-1.2-0.3-4.7-1.8-5.4-3.9
				c-0.1-0.2-0.1-0.5-0.1-0.8c-0.9-0.3-1.7-0.5-2.6-0.8C76,200,76,200.8,76.3,201.6z"/>
			<path d="M92.4,210.8c-0.4,0.4-0.5,1.1-0.2,1.6c0.5,0.8,1.3,2.8,0.8,3.7c0.2,0.7,0.3,1.5,0.4,2.3c0,0.2,0.1,0.4,0.1,0.6
				c1-0.4,1.5-1.1,1.8-1.7c0.2-0.4,0.3-0.8,0.4-1.2c-0.4-2.1-1.2-4-2.3-5.8C93.1,210.4,92.7,210.5,92.4,210.8z"/>
		</g>
	</g>
	<g>
		<circle cx="574" cy="230" r="4"/>
		<circle cx="556" cy="230" r="4"/>
		<circle cx="592" cy="230" r="4"/>
	</g>
</g>
<g id="レイヤー_2">
	<g>
		<path class="st0" d="M764.9-317c-0.7,0.7-1.9,0.7-2.7,0.1l-15.4-12.9l-15.4,13.5c-0.6,0.6-1.6,0.7-2.3,0.2l-17.6-10.3
			c0,0.8,0,1.7,0,2.6c0,16.7,4.5,29.1,13.3,36.8c7.5,6.5,16.6,8.3,22.9,8.7c0.3-0.1,0.7-0.2,1-0.1c0,0,1.2,0.2,3.2,0.2
			c2,0,3.2-0.2,3.2-0.2c0.4,0,0.7,0,1,0.1c6.3-0.4,15.5-2.2,22.9-8.7c7.9-6.9,12.3-17.5,13.2-31.7l-13.4-11.7L764.9-317z"/>
		<path class="st0" d="M752-375.8c-5.8,0.4-37,4.3-40.2,44.9l18.1,10.6l15.6-13.7c0.7-0.7,1.9-0.7,2.6,0l15.3,12.8l14-13.4
			c0.7-0.7,1.9-0.7,2.7-0.1l12.4,10.8C792.5-371,758.1-375.4,752-375.8z"/>
		<path d="M796.5-322c0-0.6,0-1.2,0-1.8c0-47.1-33.2-54.6-42.8-55.8c-0.3-0.1-0.6-0.2-0.9-0.2c0,0-0.3-0.1-0.8-0.1
			c-0.5,0-0.8-0.1-0.8-0.1c0,0,0,0,0,0c-0.3,0-0.6,0.2-0.9,0.3c-8.9,1.1-38.2,7.7-42.3,46.5c-0.2,1.4-0.3,2.9-0.3,4.5
			c-0.1,1.6-0.1,3.2-0.1,4.9c0,17.9,5,31.3,14.8,39.8c9.8,8.5,21.8,9.8,28.4,9.8c0.5,0,0.9,0,1.3,0c0.4,0,0.8,0,1.3,0
			c6.7,0,18.7-1.4,28.4-9.8c8.2-7.1,13-17.7,14.4-31.5l0,0C796.3-316.8,796.5-319.2,796.5-322z M752-375.8
			c6.1,0.4,40.5,4.8,40.5,51.9l0,0c0,0.1,0,0.1-0.1,0.2l-0.3-0.2L780-334.6c-0.8-0.7-1.8-0.7-2.5,0.1l-14,13.4L748.1-334
			c-0.8-0.6-1.9-0.6-2.6,0l-15.6,13.7l-18.1-10.6C715-371.4,746.2-375.4,752-375.8z M779.2-287c-7.5,6.5-16.6,8.3-22.9,8.7
			c-0.3-0.1-0.7-0.2-1-0.1c0,0-1.2,0.2-3.2,0.2c-2,0-3.2-0.2-3.2-0.2c-0.4,0-0.7,0-1,0.1c-6.3-0.4-15.5-2.2-22.9-8.7
			c-8.9-7.7-13.3-20.1-13.3-36.8c0-0.9,0-1.7,0-2.6l17.6,10.3c0.7,0.4,1.7,0.3,2.3-0.2l15.4-13.5l15.4,12.9c0.8,0.7,1.9,0.6,2.7-0.1
			l14-13.4l13.3,11.7l0.2,0.1C791.5-304.5,787.1-293.9,779.2-287z"/>
	</g>
</g>
<g id="レイヤー_3">
	<g>
		<path d="M967.8-326.1c1.8-0.9,3.8-2.3,5.5-4.7c2.9-4.2,3.6-9.9,2.1-17c-0.1-0.6-0.5-1.1-1-1.3c-0.3-0.2-7.2-3.8-14-0.7
			c-4.2,1.9-7.3,5.9-9.2,11.9c-3-1.7-8.6-4.7-15.8-7.4c-9.8-3.6-24.4-7.2-37.9-3.5c-11.7,3.2-20.9,11.1-27.3,23.5
			c-0.2,0.5-0.3,1-0.1,1.4c-0.2,0.7,0,1.4,0.5,1.9c13.7,13.9,28.9,18.9,41.9,18.9c4.7,0,9.1-0.5,13-1.3c12.4-2.4,21.9-7.5,25.8-9.7
			c9.6,15.8,21,9.8,21.2,9.8c0.5-0.3,0.9-0.8,1-1.3c1.5-7.1,0.8-12.8-2.1-17C970.2-324.1,969-325.2,967.8-326.1z M969.6-307.5
			c-2.3,0.7-9.4,1.7-16-10.3c-0.3-0.5-0.7-0.8-1.3-1c-0.5-0.1-1.1,0-1.6,0.3c-0.1,0.1-11.2,7.4-26.3,10.3
			c-19.7,3.8-36.6-2.1-50.5-15.8c5.8-11,14-18.1,24.4-20.9c12.5-3.4,26.2,0,35.4,3.4c10.1,3.7,17.4,8.4,17.4,8.4
			c0.5,0.4,1.2,0.4,1.8,0.2c0.6-0.2,1-0.8,1.2-1.4c1.5-6.2,4-10.1,7.6-11.8c3.8-1.7,7.9-0.5,9.7,0.2c1,5.5,0.5,9.8-1.6,12.8
			c-2.5,3.6-6.4,4.3-6.4,4.3c-0.3,0.1-0.6,0.2-0.9,0.4c-0.3-0.1-0.5-0.1-0.5-0.1c-1.1-0.2-2.1,0.6-2.3,1.7s0.6,2.1,1.7,2.3
			c0,0,3.9,0.7,6.4,4.2C970.1-317.2,970.6-312.9,969.6-307.5z"/>
		<circle cx="894.9" cy="-328.3" r="4.5"/>
	</g>
</g>
<g id="レイヤー_4">
	<g>
		<path d="M355.4-345.6c-0.1,0-0.2,0-0.3,0c-0.6-0.1-3.3-0.6-3.9-2.8c-0.6-2.4,1.8-4.2,2.6-4.8c0.2-0.1,0.4-0.2,0.6-0.3l76.7-25.5
			c0.2-0.1,0.4-0.1,0.6-0.1c1-0.2,4.1,0,5.5,2.6c1,1.7,1.3,4.9-0.8,6.5c-0.4,0.3-0.4,0.5-1.4,0.8l-79.1,23.5
			C355.7-345.6,355.5-345.6,355.4-345.6z M355.9-349.8C355.9-349.8,355.9-349.8,355.9-349.8l77.2-23c1.3-0.4,0.7-1.6,0.7-1.7
			c-0.1-0.2-0.8-0.9-1.8-0.5L355.9-349.8z"/>
		<path class="st0" d="M384.6-350.1c-0.3-0.1-1.1,0.1-2.1,0.5c0.1,0.2,0.3,0.4,0.4,0.7l2.6-0.1C385.2-349.4,384.9-349.8,384.6-350.1
			z"/>
		<path class="st0" d="M386.2-327.3l2.4,0.3c0.4-2.7,1-8.2,0.2-13.4l-3,0C386.3-337,386.6-332.7,386.2-327.3z"/>
		<path class="st0" d="M378.8-344.7l-2.9,0.1c0.1,0.2,0.1,0.4,0.2,0.6l3,0C378.9-344.3,378.8-344.5,378.8-344.7z"/>
		<path class="st0" d="M375.6-350.1c-0.3-0.1-1.1,0.1-2.1,0.5c0.2,0.3,0.4,0.7,0.7,1l2.7-0.1C376.4-349.2,376-349.6,375.6-350.1z"/>
		<path class="st0" d="M392.9-344.2l3,0c-0.1-0.4-0.3-0.8-0.4-1.2l-2.9,0.1C392.7-345,392.8-344.6,392.9-344.2z"/>
		<path class="st0" d="M356.9-343.8C356.9-343.8,356.9-343.8,356.9-343.8l14.9-0.2c-0.1-0.2-0.1-0.3-0.2-0.5L356.9-343.8z"/>
		<path class="st0" d="M392.6-350.1c-0.3-0.1-1.1,0.1-2.1,0.5c0.1,0.1,0.1,0.2,0.2,0.3l2.5-0.1C393-349.6,392.8-349.9,392.6-350.1z"
			/>
		<path class="st0" d="M437.5-344.7c0.9-0.9,1-1.4,1-1.5c-0.1-0.3-0.8-0.7-1.5-1l-29,1.3c0.2,0.5,0.3,1.1,0.4,1.6L437.5-344.7z"/>
		<path class="st0" d="M440-322c-0.3,0-0.4,0-0.7,0H405h-0.1H347c-0.2,0-0.5,0-0.7,0c-0.4,0-0.3,0.1-0.6,0.3c0,0.1-0.3,0.4-0.2,1.6
			c0.1,0.7,0.2,1.5,0.3,2.5c0.9,8.7,2.9,27,26.5,30.1c1,0.1,1.7,1,1.7,2v5.1c0.3,0.6,1.2,2.4,3,2.4h32.4c1.8,0,2.5-1.7,2.6-2.3v-5.2
			c0-1,0.7-1.8,1.7-2c23.7-3.2,25.8-22.1,26.7-30.2c0.1-1,0.2-1.8,0.3-2.4c0.2-1.3,0-1.6-0.1-1.7C440.4-321.8,440.1-322,440-322z"/>
		<path class="st0" d="M404.3-344.3c-0.1-0.5-0.3-1-0.5-1.5l-2.7,0.1c0.1,0.4,0.2,0.9,0.3,1.4L404.3-344.3z"/>
		<path class="st0" d="M400.9-326.7l2.7,0.1c0.7-2.6,2-8.4,1.5-14l-3.1,0C402.2-337,402-332.5,400.9-326.7z"/>
		<path class="st0" d="M394.2-327.3l2.4,0.3c0.4-2.8,1-8.2,0.2-13.5l-3,0C394.3-337,394.6-332.8,394.2-327.3z"/>
		<path class="st0" d="M384.7-345c0.1,0.3,0.2,0.6,0.3,0.9l3,0c-0.1-0.3-0.2-0.6-0.3-1L384.7-345z"/>
		<g>
			<path class="st0" d="M440-322c-0.3,0-0.4,0-0.7,0H405h-0.1H347c-0.2,0-0.5,0-0.7,0c-0.4,0-0.3,0.1-0.6,0.3c0,0.1-0.3,0.4-0.2,1.6
				c0.1,0.7,0.2,1.5,0.3,2.5c0.9,8.7,2.9,27,26.5,30.1c1,0.1,1.7,1,1.7,2v5.1c0.3,0.6,1.2,2.4,3,2.4h32.4c1.8,0,2.5-1.7,2.6-2.3
				v-5.2c0-1,0.7-1.8,1.7-2c23.7-3.2,25.8-22.1,26.7-30.2c0.1-1,0.2-1.8,0.3-2.4c0.2-1.3,0-1.6-0.1-1.7
				C440.4-321.8,440.1-322,440-322z"/>
			<path class="st0" d="M356.9-343.8C356.9-343.8,356.9-343.8,356.9-343.8l14.9-0.2c-0.1-0.2-0.1-0.3-0.2-0.5L356.9-343.8z"/>
			<path class="st0" d="M437.5-344.7c0.9-0.9,1-1.4,1-1.5c-0.1-0.3-0.8-0.7-1.5-1l-29,1.3c0.2,0.5,0.3,1.1,0.4,1.6L437.5-344.7z"/>
			<path d="M443.1-323.8c-0.8-0.8-2.8-1.3-4.1-1.2h-31.4c0.8-4,1.9-9.3,1.5-15.1l27.6-0.5c0.5,0,2.3,0,3.4-0.8
				c2.5-1.7,2.7-3.8,2.3-5.7c-0.7-2.9-3.8-4-4.5-4.1c-0.2,0-1.8,0-2,0l-29.6,1.3c-0.3-0.6-0.7-1.1-1.1-1.6c-2.3-2.9-6.8-1.2-8.7-0.2
				c-0.3-0.4-0.7-0.8-1-1.2c-2.2-2.2-5.7-0.9-7.7,0.3c-0.1-0.1-0.2-0.2-0.3-0.3c-2.5-2.5-6.4-1.2-8.3,0c-0.2-0.2-0.5,0.2-0.7,0
				c-3.1-3.1-8.3,0.5-9.4,1.3c-0.5,0.4-0.9,1.1-0.8,1.7c0,0.6,0.4,1.2,0.9,1.6l-12.8,0.6c-0.2,0-0.4,0-0.6,0.1
				c-0.9,0.4-3.8,1.4-3.8,3.9c-0.1,2.3,2.5,4,3,4.2c0.3,0.1,1.2,0.5,1.8,0.5c0,0,16.1-0.2,16.1-0.2c0.6,3.3,0.8,7.2,0.3,14.2h-25.7
				c-3.2,0-4.5,0.5-5.2,1.4c-0.9,1-1,1.6-1,4.4c0,0.6,0.1,1.3,0.2,2.2c0.9,8,2.7,29,27.7,33.3c0,0,0,2.8,0,3.8
				c0,0.7,0.2,1.2,0.3,1.4c0.6,2,3.6,5.6,7.7,5.6h32.4c4.2,0,5.1-3.6,5.6-5.6c0-0.1,0.1-1.3,0.1-1.4v-3.8c26-4.3,28-25.4,28.9-33.5
				c0.1-0.9,0.2-1.4,0.3-2C444.6-322.1,443.9-322.9,443.1-323.8z M436.8-347.2c0.8,0,1.7-0.2,1.8,0.9c0.1,1.5-0.7,1.5-1.2,1.6
				l-29,0.4c-0.1-0.5-0.3-1.1-0.4-1.6L436.8-347.2z M399.9-349.8c0.8-0.7,2-0.7,2.8,0.1c0.6,0.6,5.7,6.6,1.1,23.4
				c-0.2,0.9-1,1.5-1.9,1.5c-0.2,0-0.4,0-0.5-0.1c-1.1-0.3-1.7-1.4-1.4-2.5c4.1-14.6-0.1-19.6-0.1-19.6
				C399.1-347.8,399.1-349,399.9-349.8z M390.1-351.1c0.7-0.8,2-0.9,2.8-0.1c0.3,0.3,7.7,7.2,3.6,24.8c-0.2,0.9-1,1.5-1.9,1.5
				c-0.2,0-0.3,0-0.5-0.1c-1.1-0.3-1.7-1.3-1.5-2.4c3.6-15-2.2-20.7-2.4-20.9C389.4-349,389.4-350.3,390.1-351.1z M380.7-351.9
				c0.7-0.8,2-1,2.8-0.3c0.4,0.4,10.6,9.1,5,26.6c-0.3,0.8-1.1,1.4-1.9,1.4c-0.2,0-0.4,0-0.6-0.1c-1.1-0.3-1.6-1.5-1.3-2.5
				c4.8-14.8-3.4-22-3.7-22.3C380.1-349.8,380-351,380.7-351.9z M356.9-343.8C356.9-343.8,356.9-343.8,356.9-343.8l14.7-0.6
				c0.1,0.1,0.1,0.3,0.2,0.5L356.9-343.8z M373-347.2c-0.8-0.7-0.9-2-0.1-2.8c0.7-0.8,2-0.9,2.8-0.1c0.3,0.3,8.3,7.9,4.4,25.1
				c-0.2,0.9-1,1.6-1.9,1.6c-0.1,0-0.3,0-0.4,0c-1.1-0.2-1.8-1.3-1.5-2.4C379.6-340.9,373-347.1,373-347.2z M440.6-320
				c0,0.7-0.1,1.4-0.2,2.3c-0.9,8.1-3.5,27-27.2,30.2c-1,0.1-2.2,1-2.2,2v5.2c0,0.6,0.2,3.3-1.6,3.3H377c-1.8,0-3-2.2-3.6-3.2
				c-0.6-1.1-0.4-5.2-0.4-5.2c0-1-0.2-1.8-1.2-2c-23.6-3.2-25.3-21.4-26.2-30.1c-0.1-1-0.2-1.3-0.2-2c0-0.8,0-0.9,0-1
				c0.2-0.3,0.2-0.4,0.6-0.4c0.2,0,0.7,0,1,0h57.9h0.1h33.5c0.2,0,0.9,0,1.3,0c0.1,0,0.3,0,0.5,0.1
				C440.6-320.7,440.7-320.8,440.6-320z"/>
		</g>
	</g>
</g>
<g id="レイヤー_5">
	<path d="M1130.5-342.3c-9.7-17.6-26.3-18.5-36-17.3c0-2.9,0-6-0.2-8.8c0-0.2-0.1-0.4-0.1-0.6c-0.1-0.3-1.3-3.3-4.5-4.2
		c-0.3-0.1-3.1-0.9-5.6,0.6c-1.1,0.7-2.6,2.2-3.1,5.2c0,0.1,0,0.2,0,0.3v7.6c-9-0.8-23.9,0.9-33.2,17.2c-8.2,14.2-4.6,37.8,7.8,51.4
		c6.1,6.8,13.7,10.2,21.7,10.2c3.9,0,7.9-0.8,11.9-2.5c4.2,1.8,8.4,2.7,12.4,2.7c7.7,0,14.8-3.3,20.7-9.7
		C1134.9-303.6,1138.6-327.5,1130.5-342.3z M1085-355v-4v-7.9c0.1-1.5,0.6-1.9,1.2-2.3c0.8-0.5,1.9-0.3,2.3-0.2
		c1,0.3,1.6,0.4,1.8,1.6c0.1,3,0.2,6.2,0.1,9c0,1.6-0.1,3-0.2,4.1c-0.1,1.2-0.2,2-0.4,2.6c-1.1,1.4-4.1,0.2-4.2,0.1
		c-0.1-0.1-0.2-0.1-0.4-0.2c-0.2-0.3-0.3-0.6-0.3-1V-355z M1119.5-292.9c-7.7,8.3-17.7,10.5-28.2,6.2c-0.5-0.8-1.6-1.1-2.5-0.7
		c-0.1,0-0.1,0.1-0.2,0.1c-0.1,0-0.3,0.1-0.4,0.2c-14.8,6.4-24.9-1.3-29.7-6.5c-11.4-12.5-14.7-33.9-7.3-46.8
		c8.5-14.8,21.8-16.1,29.8-15.3v2.2c0,1.5,0.7,4.2,3.1,4.9c1.1,0.5,2.5,0.9,4.1,0.9c1.8,0,3.6-0.6,4.9-2.4c0.6-0.9,1-3,1.2-5.6
		c2.4-0.4,5.4-0.6,8.7-0.4c10.7,0.8,18.8,6,24,15.5C1134.2-327.2,1130.7-305,1119.5-292.9z"/>
</g>
</svg>
