<?xml version="1.0" encoding="UTF-8" standalone="no"?>
<svg width="14px" height="23px" viewBox="0 0 14 23" version="1.1" xmlns="http://www.w3.org/2000/svg" xmlns:xlink="http://www.w3.org/1999/xlink" xmlns:sketch="http://www.bohemiancoding.com/sketch/ns">
    <!-- Generator: Sketch 3.4.2 (15857) - http://www.bohemiancoding.com/sketch -->
    <title>Page 1</title>
    <desc>Created with Sketch.</desc>
    <defs>
        <path id="path-1" d="M0,0.0211987952 L13.9842559,0.0211987952 L13.9842559,23 L0,23"></path>
    </defs>
    <g id="Page-1" stroke="none" stroke-width="1" fill="none" fill-rule="evenodd" sketch:type="MSPage">
        <g id="レシピ詳細（通常レシピ）" sketch:type="MSArtboardGroup" transform="translate(-288.000000, -1093.000000)">
            <g id="Page-1" sketch:type="MSLayerGroup" transform="translate(288.000000, 1093.000000)">
                <g id="Group-3">
                    <mask id="mask-2" sketch:name="Clip 2" fill="white">
                        <use xlink:href="#path-1"></use>
                    </mask>
                    <g id="Clip-2"></g>
                    <path d="M6.78487138,15.4710147 C9.12796229,13.2831512 11.3130465,9.88132189 12.8172687,7.07328976 C13.4839892,5.82865723 14.0715178,4.47105683 13.9735178,3.06865723 C13.8755178,1.66630382 12.8912283,0.234392169 11.4698747,0.0431873494 C10.4865279,-0.0891319277 9.49757172,0.390588956 8.80577374,1.0880247 C8.11392862,1.78541426 7.67134949,2.6795508 7.26992189,3.56897651 C5.51850774,7.44960301 4.32516094,11.5714986 3.73612391,15.7751412 C3.71580741,15.920346 3.69817778,16.0771432 3.77011044,16.2056291 C3.84468283,16.3387335 3.99816431,16.4089805 4.1470734,16.451101 C5.09723502,16.7198962 6.09811717,16.1683118 6.78487138,15.4710147" id="Fill-1" fill="#FFFFFF" sketch:type="MSShapeGroup" mask="url(#mask-2)"></path>
                </g>
                <path d="M3.03667071,18.6309329 C3.71050909,18.5263245 4.34470438,18.4707181 4.85289966,18.9195414 C5.36109495,19.3683185 5.71250909,20.3264209 5.54356633,20.9782723 C5.41737778,21.4653827 5.07609832,21.8745795 4.68225993,22.1937622 C3.92013199,22.8113908 2.888233,23.1445213 1.9239771,22.9395534 C0.959721212,22.7346317 0.11566734,21.9318486 0.0113037037,20.9644169 C-0.0681710438,20.2278627 0.278387879,19.4811016 0.834192593,18.9829992 C1.38999731,18.4848968 2.13331717,18.2200735 2.88087946,18.1493647 C3.62811178,18.0786558 4.50176835,18.2651498 4.85289966,18.9195414" id="Fill-4" fill="#FFFFFF" sketch:type="MSShapeGroup"></path>
            </g>
        </g>
    </g>
</svg>