<?xml version="1.0" encoding="UTF-8" standalone="no"?>
<svg width="22px" height="24px" viewBox="0 0 22 24" version="1.1" xmlns="http://www.w3.org/2000/svg" xmlns:xlink="http://www.w3.org/1999/xlink" xmlns:sketch="http://www.bohemiancoding.com/sketch/ns">
    <!-- Generator: Sketch 3.4.2 (15857) - http://www.bohemiancoding.com/sketch -->
    <title>Page 1</title>
    <desc>Created with Sketch.</desc>
    <defs>
        <path id="path-1" d="M0,0.327876923 L21.6735,0.327876923 L21.6735,24 L0,24 L0,0.327876923 Z"></path>
    </defs>
    <g id="Page-1" stroke="none" stroke-width="1" fill="none" fill-rule="evenodd" sketch:type="MSPage">
        <g id="お気に入り" sketch:type="MSArtboardGroup" transform="translate(-268.000000, -458.000000)">
            <g id="Oval-132-Copy-+-条件を-Copy-+-編集-+-Page-1" sketch:type="MSLayerGroup" transform="translate(251.000000, 446.000000)">
                <g id="Page-1" transform="translate(17.000000, 12.000000)">
                    <path d="M13.0317,3.49229538 C12.793575,3.27961846 12.4257,3.29697231 12.210075,3.53143385 L2.44845,14.1121108 C2.23245,14.3465723 2.25045,14.7095262 2.488575,14.9225723 L8.31195,20.1228185 C8.5512,20.3354954 8.91945,20.3174031 9.135075,20.0833108 L18.895575,9.50300308 C19.1127,9.26854154 19.093575,8.90558769 18.856575,8.69254154 L13.0317,3.49229538 Z" id="Fill-1" fill="#FFFFFF" sketch:type="MSShapeGroup"></path>
                    <g id="Group-5">
                        <mask id="mask-2" sketch:name="Clip 4" fill="white">
                            <use xlink:href="#path-1"></use>
                        </mask>
                        <g id="Clip-4"></g>
                        <path d="M15.6585375,0.476824615 C15.4204125,0.264147692 15.0529125,0.281501538 14.8369125,0.516332308 L13.5709125,1.86070154 C13.3541625,2.09553231 13.3729125,2.45811692 13.6110375,2.67116308 L19.4344125,7.87104 C19.6729125,8.08445538 20.0415375,8.06673231 20.2579125,7.83153231 L21.5227875,6.48753231 C21.7387875,6.25233231 21.7204125,5.89011692 21.4826625,5.67707077 L15.6585375,0.476824615 Z" id="Fill-3" fill="#FFFFFF" sketch:type="MSShapeGroup" mask="url(#mask-2)"></path>
                    </g>
                    <path d="M7.0895625,21.4317415 C7.3051875,21.1969108 7.2871875,20.8346954 7.0490625,20.6216492 L2.5321875,16.6771569 C2.2940625,16.4648492 1.9250625,16.4825723 1.7086875,16.7166646 L0.0609375,23.5164185 C0.0609375,23.5164185 -0.2375625,24.2714954 0.4873125,23.8945108 L7.0895625,21.4317415 Z" id="Fill-6" fill="#FFFFFF" sketch:type="MSShapeGroup"></path>
                </g>
            </g>
        </g>
    </g>
</svg>