<?xml version="1.0" encoding="UTF-8" standalone="no"?>
<svg width="41px" height="34px" viewBox="0 0 41 34" version="1.1" xmlns="http://www.w3.org/2000/svg" xmlns:xlink="http://www.w3.org/1999/xlink" xmlns:sketch="http://www.bohemiancoding.com/sketch/ns">
    <!-- Generator: Sketch 3.4.2 (15857) - http://www.bohemiancoding.com/sketch -->
    <title>Page 1</title>
    <desc>Created with Sketch.</desc>
    <defs>
        <path id="path-1" d="M0,0.0750639098 L40.945282,0.0750639098 L40.945282,33.9868421 L0,33.9868421"></path>
        <path id="path-3" d="M0,0.0750639098 L40.945282,0.0750639098 L40.945282,33.9868421 L0,33.9868421"></path>
        <path id="path-5" d="M0,0.0750639098 L40.945282,0.0750639098 L40.945282,33.9868421 L0,33.9868421"></path>
        <path id="path-7" d="M0,0.0750639098 L40.945282,0.0750639098 L40.945282,33.9868421 L0,33.9868421"></path>
    </defs>
    <g id="Page-1" stroke="none" stroke-width="1" fill="none" fill-rule="evenodd" sketch:type="MSPage">
        <g id="レシピ詳細（通常レシピ）" sketch:type="MSArtboardGroup" transform="translate(-269.000000, -842.000000)">
            <g id="Page-1" sketch:type="MSLayerGroup" transform="translate(269.000000, 842.000000)">
                <path d="M31.7122592,17.0885611 C30.9814265,16.8453355 30.1076333,16.8602096 29.3434303,16.8464145 C28.5483231,16.8320799 27.7533701,16.8162039 26.9581859,16.8092679 C25.3423852,16.7951645 23.7265844,16.7685761 22.1107066,16.7597904 C18.8791051,16.742219 15.6475036,16.7113919 12.4161333,16.6671551 C10.569669,16.6419539 8.7232047,16.6188336 6.87681748,16.5893167 C6.12802801,16.5773712 6.1277968,17.7405536 6.87681748,17.7525761 C13.3389415,17.8559239 19.8029152,17.9077133 26.2657329,17.8422058 C27.1892348,17.8328036 28.1123513,17.8175442 29.0356991,17.7955028 C29.8987799,17.7750028 30.8877893,17.8107622 31.7122592,17.5274615 C31.9263532,17.4539389 31.9298983,17.1610047 31.7122592,17.0885611" id="Fill-1" fill="#FFFFFF" sketch:type="MSShapeGroup"></path>
                <g id="Group-5">
                    <mask id="mask-2" sketch:name="Clip 4" fill="white">
                        <use xlink:href="#path-1"></use>
                    </mask>
                    <g id="Clip-4"></g>
                    <path d="M6.3461141,17.2469814 C6.17286598,18.1983818 6.0414656,19.1287427 6.00139041,20.0955566 C5.96085282,21.0718498 5.995225,22.0590096 6.05587726,23.0338385 C6.1134468,23.9586506 6.19906898,24.8843103 6.30673252,25.8045754 C6.40445432,26.6408367 6.53123064,27.4817991 6.82254643,28.275519 C7.95544117,31.3626186 11.2674242,32.6198235 14.2353773,33.2591769 C17.9128923,34.0512784 21.7054694,34.114628 25.4444844,33.8375697 C27.031693,33.7198874 28.6740821,33.5807803 30.169272,32.9959908 C31.6523622,32.4159024 32.8178566,31.3935998 33.4608321,29.921222 C34.2364412,28.1451205 34.4917664,26.0989739 34.6937607,24.1876186 C34.9214957,22.0329607 34.9281235,19.8604231 34.7265915,17.7035303 C34.6626254,17.0196318 33.5854506,17.0129269 33.6500333,17.7035303 C33.9744882,21.175737 33.805787,24.7885923 32.9220521,28.1731731 C32.5463472,29.6121036 31.8790953,30.8860321 30.5429731,31.6336656 C29.2880032,32.3359062 27.8054524,32.5720415 26.3934957,32.7198573 C22.9341592,33.0820754 19.3594524,33.1925904 15.9157607,32.6270679 C14.3727118,32.3736694 12.8060803,32.0251694 11.3673039,31.3974532 C10.1053979,30.8468818 8.86907838,30.0527765 8.14872688,28.8465133 C7.21458966,27.2820397 7.19370432,25.2519231 7.06284342,23.4855321 C6.98847312,22.4813404 6.92997876,21.4788442 6.90061598,20.4722633 C6.86994305,19.4201355 6.81476259,18.3645397 6.82863477,17.3122577 C6.83217989,17.042675 6.39674756,16.9687671 6.3461141,17.2469814" id="Fill-3" fill="#FFFFFF" sketch:type="MSShapeGroup" mask="url(#mask-2)"></path>
                </g>
                <path d="M34.1455398,17.1344318 C33.3589102,17.0374036 32.5693519,17.0141291 31.7777128,17.0011047 C30.995553,16.9883115 30.1985192,16.9174863 29.4185173,16.9361367 C29.0778011,16.9443058 28.9847034,17.4641273 29.3359778,17.5464355 C30.1116639,17.7281611 30.9862278,17.7045013 31.7777128,17.6726724 C32.5849966,17.6403039 33.3868086,17.5512908 34.1858462,17.4324524 C34.3703462,17.4050164 34.2985192,17.1533133 34.1455398,17.1344318" id="Fill-6" fill="#FFFFFF" sketch:type="MSShapeGroup"></path>
                <g id="Group-10">
                    <mask id="mask-4" sketch:name="Clip 9" fill="white">
                        <use xlink:href="#path-3"></use>
                    </mask>
                    <g id="Clip-9"></g>
                    <path d="M35.6151432,18.0938241 C36.4971827,18.4557338 37.5784421,18.5574632 38.5262203,18.5157695 C38.7690605,18.5051342 39.012209,18.4822451 39.253662,18.4555797 C39.4525737,18.4336154 39.7455079,18.3298053 39.9406432,18.3623278 C40.2123838,18.4077207 40.1794759,18.8170271 40.1911132,19.0509274 C40.2008237,19.2445214 40.2805887,19.655215 40.0525455,19.7319744 C39.8883914,19.787309 39.5542259,19.6912827 39.3843688,19.671091 C39.1149402,19.639185 38.8462823,19.5998805 38.5779327,19.5602677 C38.0792278,19.486668 37.5816789,19.4052846 37.0855173,19.3158861 C36.8376677,19.2711868 36.5901263,19.224638 36.3429703,19.1760853 C36.1948462,19.1469538 36.046568,19.1177451 35.8987523,19.0866098 C35.849506,19.0762827 35.8001827,19.0660327 35.7509365,19.0557827 C35.6530605,19.029888 35.6389571,19.0278842 35.7086263,19.0496944 C35.7389139,19.1499594 35.7757523,18.7478203 35.7736714,18.7732526 C35.7833049,18.6522564 35.7929383,18.5312602 35.8025718,18.4102639 C35.8237654,18.1434556 35.8485812,17.8778034 35.876865,17.6116887 C35.9261113,17.1478184 35.1884195,17.1444274 35.1471113,17.6116887 C35.1128162,17.9997244 35.0688876,18.3862188 35.0243425,18.7732526 C34.9955962,19.0231831 34.933788,19.296388 35.0911602,19.5184199 C35.2373575,19.724653 35.4625492,19.7714331 35.6972974,19.8173654 C36.0436395,19.8851079 36.3917541,19.9452207 36.7398688,20.0034068 C37.4684665,20.1250966 38.1999929,20.2297545 38.9332917,20.319153 C39.4312259,20.3798053 40.1680699,20.6169425 40.611132,20.273606 C41.0629797,19.9234876 40.9462992,19.1088053 40.8850305,18.6134143 C40.8090417,17.9994162 40.5558744,17.564215 39.8847692,17.5446398 C39.2142034,17.5251417 38.5427128,17.5562 37.8712222,17.5267602 C37.1504853,17.4951624 36.4320605,17.3934331 35.711632,17.3811023 C35.2716526,17.3735496 35.2600154,17.9480891 35.6151432,18.0938241" id="Fill-8" fill="#FFFFFF" sketch:type="MSShapeGroup" mask="url(#mask-4)"></path>
                </g>
                <g id="Group-13">
                    <mask id="mask-6" sketch:name="Clip 12" fill="white">
                        <use xlink:href="#path-5"></use>
                    </mask>
                    <g id="Clip-12"></g>
                    <path d="M5.23308741,17.1226327 C4.5127359,17.1349635 3.79415695,17.2366929 3.07349718,17.2682906 C2.40239192,17.2977305 1.72966823,17.2615857 1.05995019,17.2862474 C0.390617481,17.310832 0.136448308,17.735706 0.0596889098,18.3549447 C-0.00104041353,18.8445556 -0.116950188,19.666097 0.333510338,20.0151365 C0.778113722,20.359706 1.50802162,20.1219523 2.01135056,20.0606835 C2.74464944,19.9714391 3.47625282,19.8667812 4.20485056,19.7449372 C4.55296523,19.6867511 4.90100282,19.6267154 5.24742199,19.5588959 C5.48286372,19.5128865 5.70612876,19.4678789 5.85348214,19.2600274 C6.01054605,19.0384579 5.94896898,18.7640199 5.92029981,18.5147831 C5.87583177,18.1278263 5.83182613,17.741332 5.79753102,17.3532192 C5.75637688,16.8868056 5.01853102,16.8885782 5.06785432,17.3532192 C5.11864192,17.8323489 5.18676974,18.323347 5.19409117,18.8051741 C5.29242951,18.7751947 5.30630169,18.7692605 5.23586184,18.7873714 C5.17297462,18.802785 5.109625,18.8163489 5.04589004,18.8281402 C4.9227359,18.854035 4.7992735,18.8784654 4.67581109,18.9028959 C4.42873214,18.9519109 4.18126786,18.9988451 3.9334953,19.0439297 C3.43748778,19.1340218 2.94017011,19.2163301 2.44154229,19.2907004 C2.14829981,19.3344748 1.85474906,19.3775556 1.56035056,19.4126985 C1.37245959,19.4350481 1.07366823,19.5290707 0.892173872,19.473582 C0.620510338,19.3905801 0.698117481,18.2119071 0.936025376,18.0964598 C1.06118327,18.0357305 1.47141447,18.1720632 1.61838252,18.1890951 C1.85991259,18.2171477 2.10275282,18.240268 2.34567011,18.2532925 C3.31556673,18.3055444 4.42603477,18.20605 5.32957613,17.8353545 C5.68169831,17.6909297 5.67638064,17.115003 5.23308741,17.1226327" id="Fill-11" fill="#FFFFFF" sketch:type="MSShapeGroup" mask="url(#mask-6)"></path>
                </g>
                <path d="M34.3837329,15.7225367 C32.6069378,15.6302096 30.8116464,15.6174934 29.032231,15.5983806 C27.2481145,15.5791908 25.4639209,15.5685555 23.6798043,15.5497509 C20.1382367,15.5124502 16.5961295,15.4262885 13.0583382,15.2578186 C11.0484904,15.1621006 9.03972162,15.0432622 7.03210883,14.9081626 C6.48292462,14.8712472 6.48916711,15.7180667 7.03210883,15.7607622 C14.1110055,16.317422 21.2424622,16.6603731 28.3440938,16.5202641 C30.3501652,16.4807284 32.3881427,16.4046626 34.3837329,16.192187 C34.6798269,16.1606664 34.6912329,15.7384897 34.3837329,15.7225367" id="Fill-14" fill="#FFFFFF" sketch:type="MSShapeGroup"></path>
                <path d="M34.5934803,15.9894682 C35.4286626,15.3303085 34.3222021,13.9947258 33.8345179,13.4681994 C33.1429126,12.7214137 32.3263806,12.1004795 31.448657,11.5879795 C29.6609182,10.5442521 27.6320348,9.93094756 25.5892791,9.64533477 C23.156484,9.30515808 20.6977171,9.42176147 18.2688524,9.73928026 C17.0209727,9.90243252 15.7802603,10.1110547 14.5429389,10.3398686 C13.3818374,10.5545791 12.2080968,10.7498686 11.068266,11.0624551 C8.9250141,11.6500961 6.48875094,13.0146562 6.3649032,15.5103385 C6.33330545,16.1473028 7.29541823,16.1331994 7.34751598,15.5103385 C7.50604417,13.6145509 9.640125,12.6092032 11.2305705,12.1641374 C12.2685179,11.8736694 13.3370611,11.6962596 14.3960479,11.5022803 C15.5097528,11.2982821 16.6255385,11.1046882 17.7467961,10.9472389 C21.7791306,10.3809457 26.1369991,10.2992539 29.8989032,12.085066 C30.8103055,12.5176468 31.6649088,13.0545002 32.4380517,13.7030246 C32.8344878,14.0354945 33.2165893,14.3999476 33.5506006,14.79569 C33.8694295,15.1734758 34.0338148,15.663472 34.3993468,15.9894682 C34.4596137,16.0432615 34.5322885,16.0377897 34.5934803,15.9894682" id="Fill-16" fill="#FFFFFF" sketch:type="MSShapeGroup"></path>
                <path d="M22.4379436,8.43823929 C22.6529624,7.96134455 22.3049248,7.32569041 21.972532,6.9836641 C21.5571372,6.5562468 20.9362801,6.3562562 20.3481767,6.42615658 C19.0756353,6.57751748 18.7584248,7.83094605 18.7496391,8.9182938 C18.7446297,9.52735959 19.6932556,9.52813026 19.6961071,8.9182938 C19.6988045,8.3294968 19.7304793,7.44984643 20.4716391,7.33424492 C20.8529699,7.27482575 21.2312951,7.43921109 21.5121297,7.68906447 C21.7799398,7.92728064 21.9127274,8.29165658 22.1957199,8.50174305 C22.2671617,8.55468853 22.4016447,8.51869793 22.4379436,8.43823929" id="Fill-18" fill="#FFFFFF" sketch:type="MSShapeGroup"></path>
                <path d="M22.3701395,8.28543722 C22.1540417,8.24690338 22.0348951,8.20536391 21.8064665,8.24921541 C21.5669402,8.29514774 21.3303425,8.35772669 21.0902767,8.40134699 C20.579318,8.49421353 20.1016526,8.4478188 19.5947015,8.37945977 C19.0245549,8.30270038 18.75135,9.14304624 19.3488556,9.27128684 C19.9217767,9.39420977 20.5466414,9.36214962 21.1216432,9.26697105 C21.4020925,9.22057632 21.6651244,9.14851805 21.9236865,9.03029624 C22.2160812,8.89658383 22.3152673,8.78314023 22.4608481,8.50831692 C22.5027729,8.42916842 22.4712523,8.30347105 22.3701395,8.28543722" id="Fill-20" fill="#FFFFFF" sketch:type="MSShapeGroup"></path>
                <path d="M14.9818239,7.55406504 C14.9073765,7.56470038 15.0474855,7.58288835 15.0786209,7.58620226 C15.1566133,7.59452556 15.2519461,7.59360075 15.3290137,7.57101992 C15.5032637,7.52000113 15.6788239,7.38937143 15.8220156,7.28355752 C16.115181,7.06699737 16.3937036,6.79394662 16.5785118,6.47681316 C16.9389573,5.85819098 16.8380758,5.17452368 16.3995607,4.63058008 C16.0581509,4.20701617 15.4745945,3.91693346 15.2228145,3.42971165 C14.8342393,2.6775312 16.2502036,2.28348421 16.6708389,2.01490338 C16.9913633,1.81013459 16.8938727,1.21470977 16.4629103,1.24746353 C15.6211002,1.31150677 14.6350964,1.76235263 14.2730325,2.57133195 C13.9630664,3.26401617 14.2403558,3.93165338 14.7559385,4.42789211 C15.0982731,4.75735639 15.8607036,5.14654812 15.8879855,5.68270789 C15.9051716,6.02034135 15.604993,6.30734135 15.3744836,6.51372857 C15.2221979,6.65006128 15.029837,6.77568158 14.9046021,6.93698421 C14.8595945,6.9949391 14.806572,7.08248797 14.7909273,7.15439211 C14.7868427,7.18506504 14.782681,7.21573797 14.7785964,7.24633383 C14.8011002,7.35977744 14.7967844,7.36856316 14.765572,7.27276805 C14.6614536,7.42798233 14.8331603,7.57525865 14.9818239,7.55406504" id="Fill-22" fill="#FFFFFF" sketch:type="MSShapeGroup"></path>
                <g id="Group-26">
                    <mask id="mask-8" sketch:name="Clip 25" fill="white">
                        <use xlink:href="#path-7"></use>
                    </mask>
                    <g id="Clip-25"></g>
                    <path d="M20.8011419,5.50455056 C21.8773148,5.24190395 22.6238694,3.89923102 21.7229483,3.03576485 C21.4424991,2.76695282 20.7406438,2.49459568 20.7687735,2.03912575 C20.8063055,1.43167838 21.6575179,1.12841711 22.1144521,0.923031767 C22.6526927,0.681039286 22.1862021,-0.132024624 21.6477303,0.124456579 C21.0975442,0.386409586 20.5151438,0.679112594 20.1687246,1.20332688 C19.8622265,1.66719718 19.7817679,2.26624417 20.0811758,2.75354305 C20.3486776,3.18882124 20.8473825,3.34873665 21.1709126,3.71997162 C21.5793712,4.18869718 20.7616062,4.66551485 20.4959539,4.98025921 C20.2982754,5.21446786 20.4820047,5.58238891 20.8011419,5.50455056" id="Fill-24" fill="#FFFFFF" sketch:type="MSShapeGroup" mask="url(#mask-8)"></path>
                </g>
                <path d="M24.9519758,6.2710656 C25.3208987,6.73570658 26.0402483,6.15346034 26.235769,5.79401673 C26.5334043,5.24675921 26.3096769,4.6744547 25.9595585,4.21721222 C25.6378009,3.79703929 25.2230227,3.41863703 25.3191261,2.84163139 C25.4174645,2.25129305 25.8434945,1.93046034 26.3529118,1.70164643 C26.7848761,1.50766711 26.4625021,0.890894549 26.046722,0.975360714 C24.9250021,1.20317274 24.1772915,2.54461259 24.555925,3.61523665 C24.657269,3.90185132 24.8299006,4.13921974 25.020566,4.37304305 C25.2011355,4.59438139 25.4805829,4.83853177 25.5468611,5.12661071 C25.6203066,5.44597914 25.3682182,5.59148289 25.136784,5.74877801 C24.9631506,5.86676861 24.7932934,6.07122914 24.9519758,6.2710656" id="Fill-27" fill="#FFFFFF" sketch:type="MSShapeGroup"></path>
            </g>
        </g>
    </g>
</svg>