<?xml version="1.0" encoding="UTF-8" standalone="no"?>
<svg width="42px" height="31px" viewBox="0 0 42 31" version="1.1" xmlns="http://www.w3.org/2000/svg" xmlns:xlink="http://www.w3.org/1999/xlink" xmlns:sketch="http://www.bohemiancoding.com/sketch/ns">
    <!-- Generator: Sketch 3.4.2 (15857) - http://www.bohemiancoding.com/sketch -->
    <title>Page 1</title>
    <desc>Created with Sketch.</desc>
    <defs>
        <path id="path-1" d="M0,0.100701754 L41.992386,0.100701754 L41.992386,31.0701754 L0,31.0701754"></path>
    </defs>
    <g id="Page-1" stroke="none" stroke-width="1" fill="none" fill-rule="evenodd" sketch:type="MSPage">
        <g id="レシピ詳細（通常レシピ）" sketch:type="MSArtboardGroup" transform="translate(-269.000000, -576.000000)">
            <g id="Page-1" sketch:type="MSLayerGroup" transform="translate(269.000000, 576.000000)">
                <path d="M38.4528175,9.34987544 C39.3163965,9.71731404 40.7086596,10.1721912 40.6746421,11.3339456 C40.6578175,11.9049982 40.1379754,12.1797175 39.7022561,12.4395772 C39.2134842,12.7311211 38.7115719,13.0038754 38.2010632,13.2553842 C36.2266947,14.2277702 34.0846947,14.8463491 31.9277123,15.2573842 C27.2174491,16.1551035 22.2702912,16.1990684 17.5311684,15.4962439 C16.3870982,15.3265246 15.2429053,15.1224193 14.117993,14.8522439 C13.235993,14.6405246 12.1756772,14.3736649 11.6483439,13.5653491 C11.1313263,12.7729982 11.4015018,12.0924018 12.217186,11.6959807 C13.2262912,11.2056123 14.3659404,10.8956474 15.4354667,10.5645596 C19.9277474,9.17389298 24.6105018,8.38485789 29.3132737,8.27801579 C33.3715544,8.18578772 37.8929404,8.64103333 40.7948702,11.8136298 C41.3866772,12.4607 42.2988877,11.5155772 41.7473614,10.8611386 C38.9072035,7.49082281 34.1512561,6.58094561 29.9502737,6.57517368 C24.5510632,6.56768246 19.1038351,7.49499825 13.981186,9.1847 C12.8352737,9.5627 11.437607,9.89084035 10.5133614,10.7102088 C9.68490526,11.4447175 9.41841404,12.5864544 9.74802807,13.6337526 C10.5403789,16.1509281 13.4373965,16.558893 15.6791158,16.9039807 C21.1764491,17.7501211 26.8131684,17.6215421 32.2521684,16.4343667 C34.996414,15.835314 37.7596947,14.9226123 40.1243439,13.3736474 C41.0560807,12.7632965 41.9233439,11.9493316 41.4548351,10.7404193 C40.9978702,9.5609807 39.7476947,9.1567 38.6036246,8.9921386 C38.4082386,8.96401579 38.2284491,9.25445439 38.4528175,9.34987544" id="Fill-1" fill="#FFFFFF" sketch:type="MSShapeGroup"></path>
                <g id="Group-5">
                    <mask id="mask-2" sketch:name="Clip 4" fill="white">
                        <use xlink:href="#path-1"></use>
                    </mask>
                    <g id="Clip-4"></g>
                    <path d="M40.9709263,11.2830667 C40.9183649,12.8072246 40.9049789,14.3389965 40.6275579,15.8438737 C40.3519789,17.3394175 39.8935404,18.8121193 39.2469614,20.1891544 C37.9608035,22.9282421 35.9763649,25.3711193 33.4666807,27.0791193 C30.6065053,29.0256105 27.116207,30.0388912 23.7154351,29.0563123 C20.6638035,28.1745579 18.0633649,25.9869965 16.2554,23.4210667 C13.9542421,20.1552596 12.6434,16.3133649 11.4035404,12.5514175 C11.0415053,11.4532772 9.30759298,11.9163825 9.66054035,13.0319614 C11.8554702,19.9708035 14.9481193,27.6840667 22.3737684,30.3784526 C29.3983298,32.9273123 36.6633474,28.0561719 39.8547333,21.9138561 C41.4902772,18.7659439 42.5706105,14.7107333 41.6607333,11.1897333 C41.5596632,10.798593 40.9844351,10.8926632 40.9709263,11.2830667" id="Fill-3" fill="#FFFFFF" sketch:type="MSShapeGroup" mask="url(#mask-2)"></path>
                </g>
                <path d="M6.56505439,4.97439649 C5.32679123,4.16006316 3.72145789,4.21741404 2.43480877,4.91397544 C1.05384386,5.66150175 0.207580702,7.07930877 0.0298789474,8.61611579 C-0.140945614,10.0940982 0.42875614,11.6517825 1.54654561,12.6424667 C2.62307193,13.5965544 4.39014211,14.3067474 5.81372105,13.7498175 C6.67951053,13.4112386 6.58015965,12.1527123 5.59033509,12.0989228 C4.62482632,12.0464842 3.7548614,11.9849579 2.96877368,11.3418175 C2.17703684,10.6942561 1.84324737,9.70983509 1.94554561,8.70539649 C2.1658614,6.54067719 4.38768596,5.70018596 6.30642281,5.92909825 C6.85082632,5.99406316 6.9468614,5.22541404 6.56505439,4.97439649" id="Fill-6" fill="#FFFFFF" sketch:type="MSShapeGroup"></path>
                <path d="M6.6647,5.44005614 C6.65524386,5.44202105 6.64578772,5.44398596 6.63633158,5.44595088 C6.68361228,5.45847719 6.73089298,5.4708807 6.77817368,5.48340702 C6.68533158,5.37263509 6.55748947,5.34905614 6.42092807,5.36747719 C6.2971386,5.38405614 6.21129649,5.46805614 6.11759474,5.54247719 C6.01701579,5.62242456 6.00301579,5.80835439 6.06994561,5.91212632 C6.14399825,6.02695088 6.27945439,6.08810877 6.4144193,6.05237193 C6.53133158,6.02142456 6.64677018,5.99305614 6.72438421,5.89247719 C6.74759474,5.86251228 6.77436667,5.83144211 6.79364737,5.79865263 C6.84068246,5.71858246 6.83785789,5.63445965 6.81575263,5.54775789 L6.77817368,5.6896 L6.79917368,5.67093333 C6.90920877,5.57305614 6.79020877,5.41402105 6.6647,5.44005614" id="Fill-8" fill="#FFFFFF" sketch:type="MSShapeGroup"></path>
                <path d="M6.31565789,5.43127544 C5.75295614,5.50041579 5.4005,5.84427544 4.96490351,6.18383684 C4.56099123,6.49871404 3.96181579,6.81985439 3.86762281,7.37408246 C3.7992193,7.77676667 4.03328947,8.16213509 4.36486842,8.3775386 C4.53962281,8.49088947 4.73414912,8.54971404 4.93235965,8.60559123 C4.96232456,8.61406491 5.56935965,8.76536316 5.23790351,8.85611754 C4.74188596,8.99194211 4.73746491,9.5991 5.10551754,9.86890702 C5.71071053,10.312486 6.37411404,10.6257667 7.09671053,10.8261877 C6.96469298,10.6527842 6.83255263,10.4792579 6.70053509,10.3058544 C6.63618421,11.3320298 6.56802632,12.399714 5.42088596,12.7471351 C4.71916667,12.959714 5.0259386,14.0746789 5.72385088,13.8462579 C7.40520175,13.2958368 7.66014912,11.8705386 7.77988596,10.3058544 C7.7979386,10.0693281 7.59899123,9.84839825 7.38358772,9.78539825 C6.74953509,9.60008246 6.19113158,9.30890702 5.6647807,8.91199474 C5.62069298,9.24959123 5.57660526,9.58718772 5.53239474,9.9246614 C6.43846491,9.68997719 6.78011404,8.4388193 5.9920614,7.85290702 C5.75995614,7.68036316 5.49457018,7.63013509 5.22218421,7.55436316 C5.12811404,7.52820526 4.97435965,7.51494211 4.90325439,7.43757368 C4.99941228,7.54232807 4.9927807,7.47441579 5.14235965,7.34522281 C5.66662281,6.89206491 6.37435965,6.49245088 6.60425439,5.81013509 C6.66111404,5.64176667 6.50527193,5.40794211 6.31565789,5.43127544" id="Fill-10" fill="#FFFFFF" sketch:type="MSShapeGroup"></path>
                <path d="M7.09086491,2.52964035 C7.23356667,1.90700877 7.64619825,1.36972807 8.29904035,1.33128947 C8.98098772,1.29113158 9.79875965,1.30279825 10.3773035,1.70572807 C11.0630579,2.18332456 11.4242333,2.97542982 11.5759,3.77453509 C11.6650579,4.24476316 11.6743912,4.72764035 11.6666544,5.20499123 C11.6629702,5.43451754 11.6515491,5.66392105 11.6389,5.89307895 C11.6300579,6.04535965 11.6203561,6.19764035 11.6100404,6.34979825 C11.5535491,6.49323684 11.5631281,6.51841228 11.6385316,6.42532456 C11.8786193,6.60830702 12.118707,6.79116667 12.3587947,6.97402632 C12.4154088,6.10725439 11.8299877,5.26885088 10.9612509,5.10109649 C10.0700404,4.92904386 9.29660175,5.4967807 8.96698772,6.28888596 L10.0483035,6.43527193 C10.0077772,5.68172807 9.74754912,4.77909649 8.85056667,4.7057807 C7.92840877,4.6305 7.36079474,5.88976316 6.89621579,6.49311404 L7.80154912,6.49311404 C7.21097018,5.26627193 7.09651404,3.92276316 7.29619825,2.58625439 C7.40070702,1.88711404 6.3661807,1.56179825 6.20825088,2.28635965 C5.85481228,3.90851754 6.16072456,5.54848246 6.89621579,7.02228947 C7.08975965,7.41023684 7.58626842,7.31027193 7.80154912,7.02228947 C8.02726842,6.72042982 8.3034614,6.17197368 8.61182982,5.95742982 C8.69779474,5.8975 8.70786491,5.78476316 8.84270702,5.85844737 C8.9386193,5.91100877 8.94168947,6.3437807 8.9473386,6.43527193 C8.98749649,7.0822193 9.79814561,7.14865789 10.0286544,6.58165789 C10.3418123,5.81104386 11.2761281,6.26481579 11.2208649,6.97402632 C11.1905316,7.36344737 11.607093,7.5949386 11.9410053,7.52272807 C12.4804965,7.4060614 12.6873035,6.92085088 12.7509175,6.42004386 C12.8486719,5.6490614 12.8818298,4.83865789 12.8080228,4.06460526 C12.6858298,2.78188596 12.1934965,1.54042982 11.124707,0.760114035 C10.2596544,0.128640351 8.93800526,-0.0486929825 7.90765439,0.225535088 C6.91881228,0.488587719 6.33805789,1.42265789 6.40105789,2.43630702 C6.42451404,2.81271053 6.99777719,2.93564035 7.09086491,2.52964035" id="Fill-12" fill="#FFFFFF" sketch:type="MSShapeGroup"></path>
            </g>
        </g>
    </g>
</svg>