<?xml version="1.0" encoding="utf-8"?>
<!-- Generator: Adobe Illustrator 19.1.0, SVG Export Plug-In . SVG Version: 6.00 Build 0)  -->
<svg version="1.1" xmlns="http://www.w3.org/2000/svg" xmlns:xlink="http://www.w3.org/1999/xlink" x="0px" y="0px"
	 viewBox="-468 266 23 30" style="enable-background:new -468 266 23 30;" xml:space="preserve">
<style type="text/css">
	.st0{fill:#FFFFFF;}
</style>
<g id="レイヤー_2">
</g>
<g id="レイヤー_1" xmlns:sketch="http://www.bohemiancoding.com/sketch/ns">
	<title>Trash</title>
	<desc>Created with Sketch.</desc>
	<g>
		<path class="st0" d="M-460.2,292.6c0.3,0,0.6-0.3,0.5-0.6l-1-18.4c0-0.3-0.3-0.6-0.6-0.6s-0.6,0.3-0.5,0.6l1,18.4
			C-460.8,292.4-460.5,292.7-460.2,292.6z"/>
		<path class="st0" d="M-453.2,292.6c0.3,0,0.6-0.2,0.6-0.6l1.1-18.3c0-0.3-0.2-0.6-0.5-0.6s-0.6,0.2-0.6,0.6l-1.1,18.3
			C-453.8,292.3-453.6,292.6-453.2,292.6z"/>
		<path class="st0" d="M-445.8,269.9h-5.4l-0.3-2.2c-0.1-0.9-0.9-1.7-1.9-1.7h-7c-0.9,0-1.8,0.7-1.9,1.7l-0.3,2.3h-5
			c-0.3,0-0.6,0.3-0.6,0.6s0.3,0.6,0.6,0.6h1l0.9,23.1c0,1,0.8,1.8,1.8,1.8h13.9c0.9,0,1.7-0.8,1.8-1.8l0.9-23.1h1.3
			c0.3,0,0.6-0.3,0.6-0.6S-445.5,269.9-445.8,269.9z M-461,267.9c0-0.4,0.4-0.7,0.7-0.7h7c0.3,0,0.7,0.3,0.7,0.7l0.3,2.1h-9
			L-461,267.9z M-449.2,294.2c0,0.3-0.3,0.6-0.6,0.6h-13.9c-0.3,0-0.6-0.3-0.6-0.6l-0.9-23.1h17L-449.2,294.2z"/>
		<path class="st0" d="M-456.6,292.7c0.3,0,0.6-0.3,0.6-0.6v-18.5c0-0.3-0.3-0.6-0.6-0.6s-0.6,0.3-0.6,0.6v18.5
			C-457.2,292.4-456.9,292.7-456.6,292.7z"/>
	</g>
</g>
</svg>
