<?xml version="1.0" encoding="UTF-8" standalone="no"?>
<svg width="23px" height="18px" viewBox="0 0 23 18" version="1.1" xmlns="http://www.w3.org/2000/svg" xmlns:xlink="http://www.w3.org/1999/xlink" xmlns:sketch="http://www.bohemiancoding.com/sketch/ns">
    <!-- Generator: Sketch 3.4.1 (15681) - http://www.bohemiancoding.com/sketch -->
    <title>Page 1</title>
    <desc>Created with Sketch.</desc>
    <defs></defs>
    <g id="Page-1" stroke="none" stroke-width="1" fill="none" fill-rule="evenodd" sketch:type="MSPage">
        <g id="離乳食検索" sketch:type="MSArtboardGroup" transform="translate(-14.000000, -158.000000)">
            <g id="離乳食を検索する-+-Page-1" sketch:type="MSLayerGroup" transform="translate(15.000000, 154.000000)">
                <g id="Page-1" transform="translate(0.000000, 4.000000)" sketch:type="MSShapeGroup">
                    <path d="M18.5748571,6.51234583 C18.4877143,6.51234583 18.4027143,6.52042083 18.3185714,6.53189583 C17.4182857,3.06970417 14.2482857,0.512054167 10.4758571,0.512054167 C6.70342857,0.512054167 3.53357143,3.06970417 2.63314286,6.53189583 C2.549,6.52042083 2.464,6.51234583 2.37685714,6.51234583 C1.30085714,6.51234583 0.428571429,7.42170417 0.428571429,8.5435625 C0.428571429,9.66527917 1.30085714,10.5746375 2.37685714,10.5746375 C2.464,10.5746375 2.54914286,10.5667042 2.63314286,10.5550875 C3.53357143,14.0172792 6.70342857,16.5750708 10.4758571,16.5750708 C14.2482857,16.5750708 17.4182857,14.0172792 18.3185714,10.5550875 C18.4027143,10.5667042 18.4877143,10.5746375 18.5748571,10.5746375 C19.6508571,10.5746375 20.5231429,9.66527917 20.5231429,8.5435625 C20.5231429,7.42170417 19.6508571,6.51234583 18.5748571,6.51234583" id="Fill-1" fill="#FEFEFE"></path>
                    <path d="M18.5748571,6.51234583 C18.4877143,6.51234583 18.4027143,6.52042083 18.3185714,6.53189583 C17.4182857,3.06970417 14.2482857,0.512054167 10.4758571,0.512054167 C6.70342857,0.512054167 3.53357143,3.06970417 2.63314286,6.53189583 C2.549,6.52042083 2.464,6.51234583 2.37685714,6.51234583 C1.30085714,6.51234583 0.428571429,7.42170417 0.428571429,8.5435625 C0.428571429,9.66527917 1.30085714,10.5746375 2.37685714,10.5746375 C2.464,10.5746375 2.54914286,10.5667042 2.63314286,10.5550875 C3.53357143,14.0172792 6.70342857,16.5750708 10.4758571,16.5750708 C14.2482857,16.5750708 17.4182857,14.0172792 18.3185714,10.5550875 C18.4027143,10.5667042 18.4877143,10.5746375 18.5748571,10.5746375 C19.6508571,10.5746375 20.5231429,9.66527917 20.5231429,8.5435625 C20.5231429,7.42170417 19.6508571,6.51234583 18.5748571,6.51234583 L18.5748571,6.51234583 Z" id="Stroke-3" stroke="#FD9696" stroke-linecap="round" stroke-linejoin="round"></path>
                    <path d="M7.24724286,7.15073833 C7.24724286,7.59429667 6.88467143,7.95384667 6.43738571,7.95384667 C5.9901,7.95384667 5.62738571,7.59429667 5.62738571,7.15073833 C5.62738571,6.70718 5.9901,6.34763 6.43738571,6.34763 C6.88467143,6.34763 7.24724286,6.70718 7.24724286,7.15073833" id="Fill-5" fill="#FD9696"></path>
                    <path d="M14.8276143,7.15073833 C14.8276143,7.59429667 14.4650429,7.95384667 14.0177571,7.95384667 C13.5704714,7.95384667 13.2077571,7.59429667 13.2077571,7.15073833 C13.2077571,6.70718 13.5704714,6.34763 14.0177571,6.34763 C14.4650429,6.34763 14.8276143,6.70718 14.8276143,7.15073833" id="Fill-7" fill="#FD9696"></path>
                    <path d="M11.246582,1.51318359 C8.02978502,0.951660158 8.37801056,4.31078577 11.246582,5.25683577 C9.79418945,3.32515835 14.463379,2.07470702 11.246582,1.51318359 Z" id="Fill-9" fill="#FD9696"></path>
                    <g id="Group-14" transform="translate(8.400000, 9.350000)">
                        <path d="M0.603057143,0.516346667 C0.603057143,0.516346667 0.4602,2.12157167 1.78162857,2.12157167 C3.10305714,2.12157167 3.13877143,0.516346667 3.13877143,0.516346667" id="Fill-11" fill="#FEFEFE"></path>
                        <path d="M0.603057143,0.516346667 C0.603057143,0.516346667 0.4602,2.12157167 1.78162857,2.12157167 C3.10305714,2.12157167 3.13877143,0.516346667 3.13877143,0.516346667" id="Stroke-13" stroke="#FD9696" stroke-linecap="round" stroke-linejoin="round"></path>
                    </g>
                </g>
            </g>
        </g>
    </g>
</svg>