<?xml version="1.0" encoding="UTF-8" standalone="no"?>
<svg width="14px" height="14px" viewBox="0 0 14 14" version="1.1" xmlns="http://www.w3.org/2000/svg" xmlns:xlink="http://www.w3.org/1999/xlink" xmlns:sketch="http://www.bohemiancoding.com/sketch/ns">
    <!-- Generator: Sketch 3.4.1 (15681) - http://www.bohemiancoding.com/sketch -->
    <title>Page 1</title>
    <desc>Created with Sketch.</desc>
    <defs>
        <path id="path-1" d="M0,0.0228675136 L13.9997967,0.0228675136 L13.9997967,14 L0,14"></path>
        <path id="path-3" d="M0,0.0228675136 L13.9997967,0.0228675136 L13.9997967,14 L0,14"></path>
    </defs>
    <g id="Page-1" stroke="none" stroke-width="1" fill="none" fill-rule="evenodd" sketch:type="MSPage">
        <g id="離乳食検索" sketch:type="MSArtboardGroup" transform="translate(-179.000000, -158.000000)">
            <g id="レシピを検索する-+-Page-1" sketch:type="MSLayerGroup" transform="translate(179.000000, 153.000000)">
                <g id="Page-1" transform="translate(0.000000, 5.000000)">
                    <g id="Group-3">
                        <mask id="mask-2" sketch:name="Clip 2" fill="white">
                            <use xlink:href="#path-1"></use>
                        </mask>
                        <g id="Clip-2"></g>
                        <path d="M12.866404,12.0833644 L1.14680327,0.363763702 C1.14680327,0.363763702 0.838091833,0.0702972777 0.47983412,0.405687477 C0.47983412,0.405687477 -0.122343739,1.42710309 0.0224838475,2.6238363 C0.0224838475,2.6238363 0.106331397,4.15595971 1.16585953,5.20024283 C2.22538766,6.24452595 3.38400835,7.42601416 3.44498838,7.5022392 C3.50596842,7.57846425 3.86422613,7.81476189 4.12339129,7.8300069 C4.38255644,7.84525191 5.62502468,7.69280181 5.62502468,7.69280181 L11.1818305,13.6536004 C11.1818305,13.6536004 11.4143169,14.0156693 11.7801971,13.8784642 L12.957874,12.7693898 C12.957874,12.7693898 13.2265673,12.4435278 12.866404,12.0833644" id="Fill-1" fill="#FFC94B" sketch:type="MSShapeGroup" mask="url(#mask-2)"></path>
                    </g>
                    <g id="Group-6">
                        <mask id="mask-4" sketch:name="Clip 5" fill="white">
                            <use xlink:href="#path-3"></use>
                        </mask>
                        <g id="Clip-5"></g>
                        <path d="M6.04426497,9.53744791 L5.23627949,8.65323739 C5.23627949,8.65323739 4.13863884,8.82093249 3.77275862,8.65323739 L0.220671506,12.2053245 C0.220671506,12.2053245 0.00724137931,12.4949797 0.0834664247,12.7388998 L1.2115971,13.935633 C1.2115971,13.935633 1.44027223,14.0804606 1.60796733,13.935633 C1.77566243,13.7908054 6.04426497,9.53744791 6.04426497,9.53744791" id="Fill-4" fill="#FFC94B" sketch:type="MSShapeGroup" mask="url(#mask-4)"></path>
                    </g>
                    <path d="M7.18763811,5.10115027 L8.92556915,6.83908131 C8.92556915,6.83908131 10.282375,7.20496152 11.2885456,6.16830091 C12.2947162,5.13164029 13.8918341,3.57108494 13.8918341,3.57108494 C13.8918341,3.57108494 14.1517615,3.25523376 13.8649521,2.99733902 C13.5501681,2.71429002 13.2856417,2.93635898 13.2856417,2.93635898 L11.0141354,5.16213031 C11.0141354,5.16213031 10.5485528,5.65207949 10.1451699,5.22311034 C9.78264356,4.83758947 10.2366399,4.44561488 10.2366399,4.44561488 L12.5081463,2.14361851 C12.5081463,2.14361851 12.823286,1.85477641 12.4319212,1.53381815 C12.0936853,1.25643521 11.7763858,1.61004319 11.7763858,1.61004319 L9.45914446,3.8053245 C9.45914446,3.8053245 8.99798294,4.19310672 8.69689401,3.91203956 C8.26548566,3.50931724 8.75787405,3.02782904 8.75787405,3.02782904 L11.0903604,0.69534265 C11.0903604,0.69534265 11.2885456,0.375197459 11.0141354,0.131277314 C10.7397252,-0.112642831 10.41958,0.131277314 10.41958,0.131277314 L7.6754784,2.90586897 C7.6754784,2.90586897 6.74947114,3.88198149 7.18763811,5.10115027" id="Fill-7" fill="#FFC94B" sketch:type="MSShapeGroup"></path>
                </g>
            </g>
        </g>
    </g>
</svg>