<?xml version="1.0" encoding="UTF-8" standalone="no"?>
<svg width="41px" height="33px" viewBox="0 0 41 33" version="1.1" xmlns="http://www.w3.org/2000/svg" xmlns:xlink="http://www.w3.org/1999/xlink" xmlns:sketch="http://www.bohemiancoding.com/sketch/ns">
    <!-- Generator: Sketch 3.4.2 (15857) - http://www.bohemiancoding.com/sketch -->
    <title>Page 1</title>
    <desc>Created with Sketch.</desc>
    <defs>
        <path id="path-1" d="M0,0.0440393324 L40.5401051,0.0440393324 L40.5401051,32.0508475 L0,32.0508475"></path>
    </defs>
    <g id="Page-1" stroke="none" stroke-width="1" fill="none" fill-rule="evenodd" sketch:type="MSPage">
        <g id="検索結果（通常レシピ）" sketch:type="MSArtboardGroup" transform="translate(-271.000000, -70.000000)">
            <g id="Page-1" sketch:type="MSLayerGroup" transform="translate(271.000000, 70.000000)">
                <g id="Group-3">
                    <mask id="mask-2" sketch:name="Clip 2" fill="white">
                        <use xlink:href="#path-1"></use>
                    </mask>
                    <g id="Clip-2"></g>
                    <path d="M5.05387344,18.5558014 C5.18320114,16.2037953 5.2040723,13.8446327 5.23357346,11.4894459 C5.26313583,9.13401443 5.29263699,6.77858297 5.32219936,4.42315151 C5.33896973,3.08301016 5.35292463,1.74280765 5.36638989,0.402666296 C5.36951139,0.0936569802 5.05448549,-0.0235365765 4.80709193,0.0819131582 C3.70802063,0.550198059 2.9182831,1.53521113 2.36896167,2.56579267 C1.71644738,3.79002495 1.2830496,5.14949467 0.933258854,6.48706706 C0.193587604,9.31561551 -0.0654962519,12.2605012 0.013703963,15.178107 C0.0585677633,16.833313 0.216478547,18.4816686 0.446489681,20.1208492 C0.485661349,20.4003155 0.892679455,20.5443608 1.11185717,20.3913853 C1.46397374,20.1455602 2.38885353,20.2562702 2.73429867,20.4457616 C2.65895442,20.3144999 2.58361016,20.1831771 2.50826591,20.0519154 C2.34105185,22.0427991 2.17377659,24.0336827 2.00656254,26.0245664 C1.92619942,26.9808316 1.83243224,27.9369744 1.76730934,28.8944017 C1.7135095,29.6847242 1.7316876,30.5778664 2.21209138,31.249038 C2.58887386,31.775308 3.25130347,32.117408 3.90400138,32.039911 C4.2278409,32.0014378 4.54953822,31.8499302 4.75427139,31.589303 C4.89198428,31.4139408 4.88616974,31.2420651 4.89149463,31.0289025 C4.89853329,30.744176 4.90544954,30.4593883 4.91242699,30.1746006 C4.96022867,28.2215174 5.01617071,26.269107 5.08227289,24.3165131 C5.15804559,22.0791927 5.22714686,19.8418723 5.29012755,17.6041237 C5.30750998,16.9878177 4.34817137,16.9880012 4.33189064,17.6041237 C4.21131535,22.1604208 4.12164896,26.7170237 3.99024026,31.273015 C4.03387994,31.1675652 4.07758083,31.0621767 4.12128172,30.9567269 C3.91354948,31.1793091 3.63243156,31.1753945 3.36312634,31.0517785 C3.01253992,30.8908514 2.83437004,30.5716274 2.74201059,30.2110554 C2.62394474,29.7497434 2.65638378,29.2607233 2.69139345,28.7905423 C2.73435988,28.2135659 2.78711922,27.6371399 2.83528813,27.0605917 C3.03053441,24.7243663 3.22578069,22.3881408 3.42102696,20.0519154 C3.43381896,19.8988787 3.32603567,19.7298778 3.1949942,19.6580692 C2.81056101,19.4474756 2.34319406,19.3864933 1.91144883,19.367532 C1.5051652,19.3497327 0.999911894,19.3655747 0.65465037,19.6096871 L1.32001786,19.8802232 C0.530402738,14.4853438 0.633350776,8.73980124 2.72358767,3.62879206 C3.19052618,2.48707236 3.90234883,1.26057696 5.09347354,0.760852866 C4.93666446,0.641457342 4.77979418,0.522061819 4.6229851,0.402666296 C4.54917098,5.11328455 4.48270156,9.8242698 4.44475401,14.5353162 C4.4339818,15.8763139 4.42933016,17.2151096 4.46856304,18.5558014 C4.47964127,18.9337445 5.0332471,18.9306863 5.05387344,18.5558014" id="Fill-1" fill="#FFFFFF" sketch:type="MSShapeGroup" mask="url(#mask-2)"></path>
                </g>
                <path d="M32.7253085,2.12560119 C32.068877,4.36469542 31.6882998,6.67517006 31.2933392,8.97139308 C31.1673166,9.70428097 31.032358,10.4429184 31.0056723,11.1876113 C30.9937371,11.5204141 30.9971647,11.8819648 31.1144348,12.197947 C31.2402738,12.5370499 31.5245744,12.7765749 31.8384374,12.9417224 C32.6220544,13.3540406 33.6006728,13.5044472 34.4787302,13.4921529 C34.329021,13.3782623 34.1793118,13.2643105 34.0295414,13.1504199 C34.2131586,14.1113948 34.1694577,15.1167149 34.1549519,16.0968347 C34.1333463,17.5580842 34.1117407,19.0192726 34.090135,20.4805221 C34.0685294,21.9415881 34.0459445,23.4025318 34.0328465,24.8637202 C34.0199321,26.3120637 34.0479643,27.7592451 34.0390895,29.2069158 C34.0360904,29.7011962 34.1244715,30.2223894 34.4663667,30.6014947 C34.7972448,30.9683668 35.2679169,31.0423162 35.7357735,31.0757127 C36.6820753,31.1432396 37.7303458,30.8892183 38.012137,29.8580863 C38.2953359,28.8213882 38.136201,27.6056579 38.0025277,26.55795 C37.8375783,25.2649674 37.6433725,23.9861141 37.5556035,22.6835897 C37.3389352,19.4687796 37.4366195,16.2437548 37.3017221,13.0259476 C37.1458923,13.1816756 36.9901237,13.3374036 36.834294,13.4930704 C37.6414751,13.5810879 38.4982941,13.5677537 39.2469626,13.2193537 C40.1411171,12.8033043 40.5396277,11.9044126 40.5400561,10.954264 C40.5405457,9.9861327 40.3666603,8.9984895 40.1855525,8.05042054 C39.9920812,7.03739357 39.7427903,6.03396961 39.4392098,5.04828372 C39.1212461,4.0160507 38.7451369,2.99323721 38.2529816,2.03018264 C38.0345995,1.60281762 37.4192371,1.83500277 37.3986108,2.2614503 C37.3042928,4.21012959 37.498621,6.16474196 37.4295197,8.11507273 C37.4223586,8.31710317 37.4080365,8.5064723 37.3499522,8.70146867 C37.3214304,8.79719306 37.2875836,8.88961449 37.2411284,8.97812131 C37.2095463,9.03818607 37.1147998,9.12553074 37.0952752,9.18516734 C37.0957648,9.18522851 37.0963157,9.18528967 37.0968053,9.18535084 C37.1209204,9.18847029 37.1452803,9.18761397 37.1697626,9.18284304 C37.1750263,9.18480035 37.1803512,9.18669648 37.1856761,9.18865379 C37.217503,9.20388406 37.2126066,9.18944894 37.1709255,9.14528728 C37.1827994,9.06656697 37.125572,8.91824005 37.1179213,8.83217986 C37.0971114,8.59889373 37.0811367,8.36505711 37.0619793,8.13158748 C36.9762912,7.08742714 36.8785457,6.04400079 36.7469534,5.00455022 C36.6024466,3.86319752 36.4351714,2.71523892 36.1330599,1.60336811 C36.0244197,1.20340534 35.4746699,1.23447754 35.3520136,1.60336811 C34.7965716,3.27380445 34.8568592,5.03733505 34.7276539,6.76808082 C34.6961942,7.18994092 34.5917772,7.61027188 34.4681416,8.01378226 C34.4215641,8.16590146 34.2352538,8.93695677 34.0257466,8.94772194 C33.9436697,8.95194238 33.8457406,8.75621201 33.8191773,8.69559676 C33.7135362,8.45460375 33.7476278,8.13495159 33.74114,7.87885064 C33.726879,7.31936763 33.7127405,6.75988461 33.6985408,6.20040159 C33.6822601,5.56128078 33.6549623,4.92136481 33.649821,4.28212167 C33.6444961,3.62287733 33.67718,2.96393882 33.6698965,2.30383816 C33.662919,1.67199607 32.662695,1.67358638 32.6886462,2.30383816 C32.7158828,2.96467281 32.7830255,3.62226567 32.8121594,4.28212167 C32.8412933,4.94075435 32.8476587,5.60128317 32.8653472,6.26034401 C32.882546,6.89970949 32.8966233,7.53931962 32.9166988,8.17862393 C32.933714,8.72226502 33.0466998,9.30382888 33.5375085,9.62458201 C34.5469134,10.2842545 35.0896246,8.87915515 35.3012128,8.14510511 C35.5792093,7.18064373 35.5625613,6.21495903 35.6158103,5.2230954 C35.6771996,4.08064172 35.7744555,2.91176444 36.1330599,1.81854918 L35.3520136,1.81854918 C35.9645605,4.03764221 36.1116991,6.38744642 36.283626,8.67363826 C36.3220632,9.18480035 36.3918377,9.85444286 37.0000391,9.98882399 C37.4885832,10.0967815 37.8490238,9.64690751 38.0265816,9.25434579 C38.2481463,8.76434705 38.2687114,8.25177816 38.2814422,7.72300034 C38.2952135,7.15513761 38.2919084,6.5869079 38.2867059,6.01898401 C38.2750768,4.7662485 38.2474731,3.51326832 38.315595,2.2614503 L37.461163,2.49271796 C38.2488808,4.05721524 38.7358336,5.78808334 39.1052714,7.49393465 C39.2857671,8.32719551 39.434803,9.16932541 39.5178592,10.0182447 C39.5895311,10.7508879 39.7299983,11.7314359 39.0532465,12.2355028 C38.4430254,12.6900254 37.5471571,12.6361995 36.834294,12.5588249 C36.5898383,12.5322789 36.3570117,12.7943741 36.3668046,13.0259476 C36.4807085,15.7151605 36.4333352,18.4081657 36.5407513,21.0975621 C36.5945511,22.444187 36.6880123,23.7900779 36.8625098,25.1268552 C37.0010796,26.1881419 37.1657842,27.2393363 37.1709867,28.312795 C37.1730677,28.7395484 37.2032421,29.2677757 37.0370685,29.6716531 C36.9177786,29.961701 36.6149938,30.0470884 36.32647,30.0743072 C36.0343351,30.1018929 35.4942557,30.1322311 35.2623472,29.9694079 C34.9918791,29.7794883 35.0516159,29.2480192 35.0595114,28.9366856 C35.0760369,28.2871054 35.0333153,27.6380758 35.0330705,26.9885568 C35.0328257,26.2803799 35.0483107,25.5718359 35.0565123,24.8637202 C35.0725482,23.4838211 35.0799541,22.1039832 35.0879109,20.7240229 C35.0966633,19.2016688 35.1054157,17.6792536 35.1141681,16.1568995 C35.1204111,15.0694338 35.1428736,13.9751176 34.9279803,12.9028821 C34.888931,12.7081916 34.6720179,12.5566229 34.4787302,12.561088 C33.8026517,12.5766241 33.0741199,12.4881173 32.4411915,12.2423533 C32.3109457,12.1918304 32.1738448,12.1298084 32.0621444,12.044788 C32.0231563,12.0150614 31.9868613,11.9805028 31.9542999,11.9435587 C31.9332451,11.9197652 31.9380192,11.9217837 31.9308581,11.9009262 C31.8381314,11.6289833 31.8480467,11.3224818 31.8542285,11.0393456 C31.8687343,10.3725778 31.9639704,9.71131503 32.0524127,9.0513367 C32.19441,7.9919461 32.3259411,6.92955837 32.5061919,5.87573384 C32.7130673,4.66630368 32.9723348,3.46586488 33.26753,2.27496793 C33.3546258,1.92381542 32.827216,1.77805746 32.7253085,2.12560119" id="Fill-4" fill="#FFFFFF" sketch:type="MSShapeGroup"></path>
                <path d="M21.219433,5.03315743 C22.4597671,5.30467215 23.6293474,5.74745094 24.6690491,6.48566025 C25.6720274,7.19775179 26.5221138,8.09303471 27.1850943,9.12753086 C28.6360985,11.3915195 29.1324158,14.1833074 28.9626311,16.8387568 C28.8048427,19.3069167 27.9852368,21.8418696 26.3731391,23.7516475 C24.8157593,25.5965897 22.5563497,26.5792785 20.185607,26.8602127 C17.8208012,27.1404741 15.5566176,26.8406397 13.3787953,25.8526907 C12.3692068,25.3946816 11.5010035,24.8700019 10.7842232,24.0445091 C10.0763177,23.2292921 9.55564058,22.2423217 9.19881117,21.2272763 C8.43416799,19.0519779 8.29088537,16.6137892 8.64930613,14.3637463 C8.99983135,12.16337 9.79091541,9.96366652 11.2543444,8.26417645 C11.9771229,7.42486018 12.8276989,6.72151534 13.7916892,6.17530529 C14.0104385,6.05132233 14.2329213,5.93290546 14.463116,5.83137033 C14.3489673,5.88170974 14.5922601,5.7807251 14.6267189,5.76781913 C14.7417245,5.72475845 14.8577706,5.68481722 14.9746735,5.64738379 C15.4436318,5.49746656 15.9252597,5.38797989 16.4102539,5.30448865 C18.378875,4.96532463 20.6522395,4.99437835 22.5981533,5.6289729 C23.0295312,5.7696541 23.3359271,5.88807097 23.7423944,6.13573105 C24.447362,6.56535921 25.0910014,5.4599108 24.3882372,5.03156712 C23.4747417,4.47489773 22.4385287,4.16949719 21.3880548,3.99707097 C20.1930129,3.80103478 18.9780179,3.74298849 17.7695108,3.81865051 C16.6659715,3.88782896 15.5408265,4.04661522 14.4894345,4.39941921 C13.3714506,4.77460985 12.3571493,5.41825693 11.4558949,6.17047319 C7.55990534,9.42192157 6.43953444,15.2878995 7.47078979,20.0673292 C7.98552998,22.4528542 9.18883464,24.8673106 11.2959643,26.2185229 C13.4109283,27.5746897 16.0342671,28.257177 18.5336031,28.2458002 C21.2152098,28.2336282 23.9601032,27.5518137 26.0826567,25.8556878 C28.2311002,24.1388266 29.5365572,21.4319368 30.0218575,18.7674961 C31.0070861,13.3580592 29.032222,6.557163 23.2379368,4.80537622 C22.5955214,4.611175 21.9583698,4.51196417 21.2873101,4.5319042 C21.0095585,4.54016157 20.9280937,4.96936157 21.219433,5.03315743" id="Fill-6" fill="#FFFFFF" sketch:type="MSShapeGroup"></path>
                <path d="M19.6490653,10.1636234 C20.2669372,10.3719539 20.8741592,10.5950254 21.3976518,10.997863 C21.9063938,11.3893849 22.3400977,11.8505745 22.6829722,12.3930535 C23.4309674,13.5766105 23.6761575,15.0187152 23.5976918,16.4011832 C23.5262647,17.6597295 23.119063,18.974854 22.3148809,19.9630477 C21.5147384,20.9462258 20.3529924,21.4615472 19.1111282,21.6218014 C17.87465,21.7813828 16.6918493,21.6294471 15.554708,21.1048897 C15.018607,20.8575355 14.5886367,20.5979481 14.2127111,20.1585334 C13.8555757,19.7411384 13.5961858,19.2237374 13.4208926,18.7051743 C12.694809,16.5570947 12.9926973,13.7346628 14.5087633,11.994681 C14.9333474,11.5074347 15.4365197,11.1092458 16.0150975,10.8191367 C16.0684689,10.7923461 16.1221463,10.7660448 16.1771091,10.7427407 C16.0678568,10.7891043 16.2299296,10.7261036 16.2551464,10.7172345 C16.3860042,10.6711156 16.5193103,10.6318472 16.6536569,10.5973497 C16.9156786,10.5300674 17.2117307,10.4754464 17.4269913,10.4512859 C18.0758944,10.3784987 18.7399154,10.3699355 19.3887573,10.4492063 C19.6252563,10.4781377 19.9555224,10.5449307 20.2239095,10.6234063 C20.363275,10.6642039 20.5012327,10.7108733 20.6353957,10.7664118 C20.7032116,10.7944869 20.7772093,10.8311863 20.9039052,10.9025667 C21.6249087,11.3089519 22.2413728,10.2413039 21.5497481,9.79840281 C20.4832382,9.11548733 19.0274599,9.01156674 17.7958782,9.08839091 C17.1597059,9.12808747 16.503764,9.21690013 15.8991126,9.42657628 C15.2587171,9.64860791 14.685097,10.0134616 14.1654603,10.4441295 C11.9375717,12.2904785 11.310519,15.6569797 11.9252082,18.3727385 C12.236929,19.7500686 12.965828,21.1062354 14.1960632,21.8625498 C15.4215855,22.6159893 16.9219216,22.9879994 18.3539521,22.9592515 C19.8947451,22.9282404 21.4502275,22.5005696 22.6401893,21.4896834 C23.8049956,20.5001441 24.5204906,18.9801755 24.7682514,17.4925023 C25.069506,15.6838926 24.8444525,13.7554592 23.9055566,12.1559751 C23.4741174,11.4209464 22.8617541,10.7483067 22.1293663,10.3035095 C21.427153,9.87706195 20.5422405,9.55698164 19.7169425,9.66237021 C19.4399865,9.69778517 19.3596846,10.0660641 19.6490653,10.1636234" id="Fill-8" fill="#FFFFFF" sketch:type="MSShapeGroup"></path>
            </g>
        </g>
    </g>
</svg>