<?xml version="1.0" encoding="utf-8"?>
<!-- Generator: Adobe Illustrator 19.1.0, SVG Export Plug-In . SVG Version: 6.00 Build 0)  -->
<svg version="1.1" xmlns="http://www.w3.org/2000/svg" xmlns:xlink="http://www.w3.org/1999/xlink" x="0px" y="0px"
	 viewBox="0 0 110 110" style="enable-background:new 0 0 110 110;" xml:space="preserve">
<style type="text/css">
	.st0{fill:none;}
</style>
<g id="レイヤー_1">
	<g>
		<path d="M105.8,22.6c1-1.1,2.5-3.5,1-7.5c-1-2.7-2.6-4.4-4.7-5.2c-0.9-0.3-1.7-0.4-2.5-0.4c-0.2-1.4-0.9-2.9-2.1-4.2
			C95.3,3,91.1,1.6,87.2,4.1c-2,1.3-3.2,3.1-3.6,5.2c-0.5,2.9,0.7,5.6,1.6,7.3l-3.6,3.6c-0.6-0.8-1.3-1.5-1.8-2.3
			c-1.2-1.5-2.3-2.9-3.5-4c-5.4-4.9-12.1-6.4-18.8-4c-7.4,2.6-13.6,9.3-14.7,16c-1.4,8.8-8.7,14.4-15.2,15.3
			c-0.8,0.1-1.6,0.2-2.4,0.3c-5,0.5-9.7,1-17.6,11.9c-4.3,6-5.5,12.8-3.3,18.8c1.7,4.5,5,7.8,8.8,8.7c0.4,0.1,0.8,0.2,1.3,0.3
			c1.2,0.3,2.5,0.6,3.8,1l-4.1,3.5c-2.2-0.2-7.5-0.4-10.4,3.6c-1.8,2.5-1.7,5.6,0.1,8C5.3,99,7.5,100,10,100
			c-0.2,1.7,0.1,3.7,1.9,5.4c1.3,1.2,2.8,1.8,4.4,1.8c1.6,0,3.3-0.6,4.8-1.7c3-2.1,5.1-6.2,4-10.3l2.9-2.6c1.7,5,4.5,9.8,17.3,12.3
			c1.2,0.2,2.4,0.3,3.5,0.3c11.5,0,18.2-11.3,20.3-18c0.8-1.3,5.8-9.1,12.6-12.5c1.4-0.7,2.8-1.3,4.4-1.9c7.1-2.9,16-6.5,18.7-21.5
			c3.1-17.7-10.8-22.8-12.1-23.2c-0.2-0.1-0.4-0.2-0.7-0.3L95,25C98.8,25.8,103.4,25.3,105.8,22.6z M21.5,93.1
			c-0.7,0.6-0.9,1.6-0.5,2.4c1.2,2.5-0.2,5.3-2.1,6.8c-0.6,0.4-2.6,1.7-4.2,0.3c-1.6-1.5-0.2-3.5,0-3.8c0.5-0.7,0.6-1.7,0-2.4
			c-0.4-0.5-1-0.8-1.6-0.8c-0.2,0-0.5,0-0.7,0.1c-2.7,1-4.6,0.2-5.4-0.9c-0.7-1-0.7-2.2,0-3.2c2-2.9,7.3-1.9,7.3-1.9
			c0.6,0.1,1.2,0,1.7-0.4l6.4-5.5c1.8,1,3.4,2.5,4.1,4.5c0,0.1,0.1,0.2,0.1,0.4L21.5,93.1z M91.4,31.9c0,0,0.1,0,0.1,0
			c0.5,0.1,12.1,3.7,9.4,18.7c-2.3,12.9-9.1,15.6-16.2,18.5c-1.6,0.6-3.2,1.3-4.7,2C71.6,75.4,66,85.1,65.7,85.5
			c-0.1,0.1-0.1,0.3-0.2,0.4c-0.1,0.2-5.6,17.8-19.4,15.1c-12-2.3-13.2-6-14.8-11.2c0,0,0,0,0,0c-0.3-1-0.6-2-1-3
			c-1.6-4.1-5-6.4-8.5-7.8c-2.3-0.9-4.7-1.4-6.5-1.8c-0.4-0.1-0.9-0.2-1.2-0.3c-2.5-0.6-4.8-3-6-6.2c-1-2.7-2-8.4,2.8-15
			c6.8-9.4,10.3-9.8,14.7-10.2c0.8-0.1,1.7-0.2,2.6-0.3c7.9-1.2,16.8-8,18.5-18.7c0.8-5.2,6.1-10.8,12-12.9c1.4-0.5,3.2-0.9,5-0.9
			c3,0,6.4,1,9.8,4.1c1,0.9,2,2.1,3.1,3.5c0.7,0.8,1.4,1.7,2.1,2.6c2.4,2.8,5.4,5.7,10.2,7.9C89.8,31.2,90.6,31.5,91.4,31.9z
			 M93.1,21.4L88.3,26c-1.5-0.9-2.8-1.9-3.9-2.9l4.8-4.8c0.7-0.7,0.8-1.8,0.2-2.6c-0.6-0.8-2.2-3.5-1.8-5.6c0.2-1,0.8-1.8,1.8-2.5
			c2.2-1.4,4.2-0.6,5.3,0.7c0.8,0.9,1.4,2.2,0.8,3c-0.5,0.8-0.5,1.8,0.2,2.5c0.6,0.7,1.7,0.8,2.5,0.4c0,0,1.4-0.8,2.7-0.3
			c0.9,0.3,1.7,1.3,2.3,2.8c0.9,2.3,0.1,3.1-0.2,3.4c-1.3,1.4-4.9,1.9-7.9,1C94.3,20.7,93.6,20.9,93.1,21.4z"/>
	</g>
</g>
<g id="レイヤー_2">
</g>
<g id="レイヤー_3">
</g>
<g id="レイヤー_4">
</g>
<g id="レイヤー_5">
</g>
</svg>
