<?xml version="1.0" encoding="utf-8"?>
<!-- Generator: Adobe Illustrator 19.1.0, SVG Export Plug-In . SVG Version: 6.00 Build 0)  -->
<svg version="1.1" xmlns="http://www.w3.org/2000/svg" xmlns:xlink="http://www.w3.org/1999/xlink" x="0px" y="0px"
	 viewBox="0 0 110 110" style="enable-background:new 0 0 110 110;" xml:space="preserve">
<style type="text/css">
	.st0{fill:none;}
</style>
<g id="レイヤー_1">
	<g>
		<path d="M102.4,10.5c-1.1-1.1-2.4-1.6-3.9-1.6L11.9,9.5c-3,0.1-5.5,2.6-5.4,5.6L6,78.8c0,0,0,0,0,0c0,0.2,0.1,0.4,0,0.6
			c0,2,0,6.2,3,8.8v8.9c0,0,0,0,0,0.1c0.1,1.3,1.2,3.9,5,3.9h6c0,0,0.1,0,0.2,0c0.7,0,2.4-0.1,3.9-1.7c1.8-1.9,2.4-5,1.9-9.3
			l45.4-0.1c0.1,0,0.2,0.1,0.4,0.1c0,0,0,0,0,0c0.1,0,0.3,0,0.4,0l12,0v7.1c0,0,0,0,0,0.1c0.1,1.3,1.2,3.9,5,3.9h6c0,0,0.1,0,0.1,0
			c0.6,0,3,0.2,4.6-1.5c2.3-2.4,2.4-7.2,1.6-13.5c0.7-1,1.2-2.2,1.3-3.7c0,0,0-0.1,0-0.1l1.5-67.6C104.1,13.1,103.5,11.6,102.4,10.5
			z M9.5,15.1c0-1.4,1.1-2.6,2.4-2.6l58-0.4l0,9.9H9.5L9.5,15.1z M9.5,25H70l0.1,50H9.2L9.5,25z M21.8,97.2
			c-0.8,0.9-1.7,0.8-1.8,0.8c0,0-0.1,0-0.1,0h-6c-1.6,0-2-0.7-2-1v-6.5l11,0C23.3,93.6,22.9,96,21.8,97.2z M19.2,87.2l-6.9-0.5
			c-2.9-1.2-3.1-4.3-3.1-7.2c0-0.2,0-0.5,0-0.7l0-0.8h61l0,8.9L19.2,87.2z M97.8,97.6C97,98.5,95.1,98,95.1,98c0,0-0.1,0-0.1,0h-6
			c-1.6,0-2-0.7-2-1v-7l7,0c1.3-0.1,2.9-0.5,4.4-1.4C98.8,93.9,98.6,96.6,97.8,97.6z M99.5,82.1c-0.1,0.7-0.3,1.4-0.6,1.9
			c-1.3,2.2-4.1,2.8-5,2.9l-9.4,0l-11.4,0L73,12.1L98.5,12c0.6,0,1.3,0.2,1.7,0.7c0.5,0.5,0.8,1.2,0.8,1.9L99.5,82.1z"/>
		<path d="M86.6,16.6c-6.3,0-11.5,5.2-11.5,11.5c0,6.3,5.2,11.5,11.5,11.5s11.5-5.2,11.5-11.5C98.1,21.7,93,16.6,86.6,16.6z
			 M86.6,36.6c-4.7,0-8.5-3.8-8.5-8.5c0-4.7,3.8-8.5,8.5-8.5s8.5,3.8,8.5,8.5C95.1,32.7,91.3,36.6,86.6,36.6z"/>
		<path d="M81.6,44.6c-2.5,0-4.5,2-4.5,4.5s2,4.5,4.5,4.5s4.5-2,4.5-4.5S84.1,44.6,81.6,44.6z M81.6,50.6c-0.8,0-1.5-0.7-1.5-1.5
			s0.7-1.5,1.5-1.5s1.5,0.7,1.5,1.5S82.4,50.6,81.6,50.6z"/>
		<path d="M91.6,44.6c-2.5,0-4.5,2-4.5,4.5s2,4.5,4.5,4.5s4.5-2,4.5-4.5S94.1,44.6,91.6,44.6z M91.6,50.6c-0.8,0-1.5-0.7-1.5-1.5
			s0.7-1.5,1.5-1.5s1.5,0.7,1.5,1.5S92.4,50.6,91.6,50.6z"/>
		<path d="M81.6,55.6c-2.5,0-4.5,2-4.5,4.5s2,4.5,4.5,4.5s4.5-2,4.5-4.5S84.1,55.6,81.6,55.6z M81.6,61.6c-0.8,0-1.5-0.7-1.5-1.5
			s0.7-1.5,1.5-1.5s1.5,0.7,1.5,1.5S82.4,61.6,81.6,61.6z"/>
		<path d="M91.6,55.6c-2.5,0-4.5,2-4.5,4.5s2,4.5,4.5,4.5s4.5-2,4.5-4.5S94.1,55.6,91.6,55.6z M91.6,61.6c-0.8,0-1.5-0.7-1.5-1.5
			s0.7-1.5,1.5-1.5s1.5,0.7,1.5,1.5S92.4,61.6,91.6,61.6z"/>
		<path d="M81.6,65.6c-2.5,0-4.5,2-4.5,4.5s2,4.5,4.5,4.5s4.5-2,4.5-4.5S84.1,65.6,81.6,65.6z M81.6,71.6c-0.8,0-1.5-0.7-1.5-1.5
			s0.7-1.5,1.5-1.5s1.5,0.7,1.5,1.5S82.4,71.6,81.6,71.6z"/>
		<path d="M91.6,65.6c-2.5,0-4.5,2-4.5,4.5s2,4.5,4.5,4.5s4.5-2,4.5-4.5S94.1,65.6,91.6,65.6z M91.6,71.6c-0.8,0-1.5-0.7-1.5-1.5
			s0.7-1.5,1.5-1.5s1.5,0.7,1.5,1.5S92.4,71.6,91.6,71.6z"/>
	</g>
</g>
<g id="レイヤー_2">
</g>
<g id="レイヤー_3">
</g>
<g id="レイヤー_4">
</g>
<g id="レイヤー_5">
</g>
</svg>
