<?xml version="1.0" encoding="utf-8"?>
<!-- Generator: Adobe Illustrator 19.1.0, SVG Export Plug-In . SVG Version: 6.00 Build 0)  -->
<svg version="1.1" xmlns="http://www.w3.org/2000/svg" xmlns:xlink="http://www.w3.org/1999/xlink" x="0px" y="0px"
	 viewBox="0 0 110 110" style="enable-background:new 0 0 110 110;" xml:space="preserve">
<style type="text/css">
	.st0{fill:none;}
</style>
<g id="レイヤー_1">
	<path d="M50.8,77.1c-0.4-0.1-0.9-0.1-1.3,0c-0.3,0.1-3.1,1.1-3.9,3.7c-0.5,1.7,0.1,3.6,1.7,5.4c0.1,0.2,0.3,0.3,0.5,0.4
		c0.8,0.5,2.1,0.9,3.5,0.9c1.6,0,3.4-0.6,4.8-2.4c0.8-1.1,1.1-2.3,0.7-3.5C56,79,52,77.5,50.8,77.1z M50.1,83.4
		c-0.5-0.7-0.7-1.2-0.6-1.5c0.1-0.3,0.4-0.6,0.7-0.8c1.2,0.5,2.3,1.2,2.6,1.6C52,84,50.7,83.7,50.1,83.4z"/>
	<path d="M75.2,66.7c-5.6,1.2-8.4,8.3-8.6,8.6c0,0.1,0,0.1-0.1,0.2c-0.9,3.5-0.5,6.2,1.3,8.1c1.8,1.9,4.6,2.4,6.7,2.4
		c1.5,0,2.7-0.2,3-0.3c0.1,0,0.3-0.1,0.4-0.1c0.8-0.4,8.1-3.9,9-9c0.3-1.5,0.1-3.7-2.1-5.9C81.7,67.3,78.4,66,75.2,66.7z M83.1,75.8
		c-0.4,2.2-4.2,4.8-6.6,5.9c-1.5,0.3-4.6,0.3-5.8-1c-0.9-1-0.7-2.8-0.3-4.2c0.3-0.7,2.4-5.3,5.6-6c1.8-0.4,3.8,0.6,6.1,2.8
		C83.2,74.5,83.2,75.3,83.1,75.8z"/>
	<path d="M107.2,73.2l-0.3-29.6c0-0.1,0-0.2,0-0.3c0-0.1,0-0.1,0-0.2c0-0.2-0.1-0.3-0.2-0.5c0,0,0-0.1,0-0.1c0,0,0,0,0,0
		c0,0,0,0,0,0C95.4,25.1,68.2,4.9,67,4c-2.9-2.1-5.4-2.8-7.5-2.2c-1.7,0.6-2.5,1.9-2.8,2.5L38.8,32.3c-0.3,0.5-0.4,1.1-0.2,1.6
		c0.2,0.6,0.6,1,1.1,1.3c1.7,0.8,5.9,4.7,6,8.4c0.1,2.1-1.3,3.8-4.1,5.3c-2.9,1.5-5.6,1.9-7.9,1.1c-3.5-1.1-5.3-4.6-5.4-4.6
		c-0.3-0.6-0.9-1-1.6-1.1c-0.7-0.1-1.4,0.2-1.8,0.8c-0.1,0.1-5.8,7.8-11.3,16.2C2.1,78.7,2.6,81.7,2.8,83c0.1,0.7,0.4,1.1,0.7,1.5
		l9.5,20.4c0,0.1,0.1,0.2,0.2,0.3c0.1,0.2,2.8,3.9,7.1,3.9c0.2,0,0.5,0,0.7,0c0.1,0,0.3,0,0.4-0.1l82-26c0.1,0,0.2-0.1,0.4-0.2
		C104.2,82.5,107.9,80.3,107.2,73.2z M6.8,81.9c0.2-1.4,1.7-4.5,4-8.5c3.8-6.5,9.8-15.4,15.7-23.7c1.3,1.5,3.2,3.2,5.9,4.1
		c3.4,1.1,7.1,0.6,11.1-1.4c5.3-2.7,6.3-6.4,6.3-8.9c-0.1-4.4-3.5-8.6-6.4-10.8L60.2,6.4c0.1-0.1,0.2-0.3,0.2-0.4
		c0,0,0.1-0.2,0.4-0.3c0.6-0.2,1.9,0.1,3.9,1.6c0.2,0.2,21.8,16.2,34.2,31.5c1.5,1.8,2.8,3.6,3.9,5.4c0,0.2-0.1,0.5-0.2,0.7
		c-0.3,1-0.8,2.2-1.8,2.8c-1.4,0.9-3.6,1.5-5.1,1.8c-2.4-2.9-7.5-6.5-14.9-4c-3.2,1.1-5.3,2.9-6.4,5.4c-1,2.5-0.7,5.1-0.2,6.9
		l-38.7,12c-1,0.3-1.6,1.3-1.4,2.3c0,0.1,1.3,7-2.7,8.4c-2.9,1-5.5,1.1-7,0.2c-0.7-0.4-1.2-1.1-1.3-1.9C23,78,22.6,77.5,22,77.2
		c-0.6-0.3-1.3-0.2-1.9,0.1C16.4,79.4,12,81.3,9,81.8C8.1,82,7.3,82,6.8,81.9z M102,79.2L20.5,105c-2,0.1-3.5-1.6-3.9-2.1l-8-17.1
		c3.9-0.3,8.6-2.4,11.6-4c0.6,0.9,1.3,1.6,2.3,2.2c2.6,1.5,6.4,1.6,10.4,0.2c5.4-1.9,5.7-8.1,5.5-11.1l39.1-12.2
		c0.6-0.2,1-0.6,1.2-1.1c0.2-0.5,0.2-1.2-0.1-1.7c0,0-1.5-3.2-0.5-5.7c0.6-1.4,1.9-2.5,4-3.2c7.3-2.4,10.8,3.2,11,3.5
		c0.4,0.7,1.2,1.1,2,1c0.2,0,4.8-0.8,7.8-2.6c0,0,0,0,0,0l0.3,22.3c0,0.1,0,0.1,0,0.2C103.6,77.4,102.3,78.9,102,79.2z"/>
	<path d="M66.4,36.3c0.2,0,0.3,0.1,0.5,0.1c0.1,0,0.2,0,0.3,0c3.5-0.6,5.9-2.1,7-4.4c1.3-2.8,0.4-6.1-0.9-8.2
		c-1.1-1.8-4.1-4.6-7.8-4.7c0,0-0.1,0-0.1,0c-1.8,0-4.4,0.7-6.5,4c-2.1,3.1-1.8,5.6-1.1,7.2C59.5,34.5,65.7,36.1,66.4,36.3z
		 M62.2,25.1c0.9-1.5,2-2.1,3.2-2.1c0,0,0,0,0.1,0c1.8,0,3.7,1.6,4.4,2.7c0.6,1,1.4,3,0.7,4.5c-0.6,1.2-2.2,1.8-3.6,2.1
		c-1.5-0.4-4.7-1.7-5.5-3.7C61.3,28.3,60.8,27.2,62.2,25.1z"/>
</g>
<g id="レイヤー_2">
</g>
<g id="レイヤー_3">
</g>
<g id="レイヤー_4">
</g>
<g id="レイヤー_5">
</g>
</svg>
