<?xml version="1.0" encoding="utf-8"?>
<!-- Generator: Adobe Illustrator 19.1.0, SVG Export Plug-In . SVG Version: 6.00 Build 0)  -->
<svg version="1.1" xmlns="http://www.w3.org/2000/svg" xmlns:xlink="http://www.w3.org/1999/xlink" x="0px" y="0px"
	 viewBox="0 0 110 110" style="enable-background:new 0 0 110 110;" xml:space="preserve">
<style type="text/css">
	.st0{fill:none;}
</style>
<g id="レイヤー_1">
	<path d="M93.6,28.1C87.9,19.9,76.5,9.8,55.1,8.8c0,0,0,0-0.1,0c0,0,0,0-0.1,0c-21.4,1-32.8,11.1-38.6,19.4
		C8.1,39.9,6.5,54.7,9.1,63.3c2.3,7.6,14.1,10.7,25,11.9c-0.5,4-0.9,12,3.7,18.2c3.5,4.7,9.1,7.4,16.6,7.9c0,0,0.1,0,0.1,0
		c0.2,0,0.5,0,0.7-0.1c0.2,0.1,0.4,0.1,0.7,0.1c0,0,0.1,0,0.1,0c7.5-0.5,13.1-3.1,16.6-7.9c4.6-6.2,4.2-14.3,3.7-18.2
		c10.8-1.2,22.3-4.3,24.6-11.8C103.5,54.7,101.9,39.9,93.6,28.1z M69.3,91c-2.8,3.7-7.3,5.8-13.6,6.2c-0.2,0-0.4,0.1-0.5,0.1
		c-0.2-0.1-0.4-0.1-0.5-0.1c-6.3-0.4-10.8-2.5-13.6-6.2c-3.8-5.1-3.4-12.2-2.9-15.5c3.6,0.3,7,0.3,9.7,0.3c3.1,0,5.4-0.1,6.3-0.1
		c0.3,0,0.6-0.1,0.9-0.3c0.3,0.1,0.5,0.2,0.9,0.3c0.9,0,3.2,0.1,6.3,0.1c2.8,0,6.4-0.1,10.1-0.4C72.7,78.8,73.1,85.9,69.3,91z
		 M97,62.2c-1.6,5.3-11.8,8-22.8,9.1c-0.3-0.1-0.6-0.1-0.9,0c-0.1,0-0.2,0.1-0.3,0.1c-6,0.5-12.1,0.6-17.1,0.3
		c-0.4,0-0.7,0.1-1.1,0.2c-0.3-0.2-0.7-0.3-1.1-0.2c-4.8,0.2-10.7,0.2-16.5-0.3c-0.1-0.1-0.3-0.1-0.4-0.1c-0.3-0.1-0.7-0.1-1,0
		C25,70.2,14.6,67.5,13,62.2c-1.9-6.2-1.7-19.8,6.7-31.8c5.3-7.5,15.7-16.6,35.4-17.6c19.7,1,30.1,10.1,35.4,17.6
		C98.8,42.4,99,55.9,97,62.2z"/>
</g>
<g id="レイヤー_2">
</g>
<g id="レイヤー_3">
</g>
<g id="レイヤー_4">
</g>
<g id="レイヤー_5">
</g>
</svg>
