<?xml version="1.0" encoding="utf-8"?>
<!-- Generator: Adobe Illustrator 19.1.0, SVG Export Plug-In . SVG Version: 6.00 Build 0)  -->
<svg version="1.1" xmlns="http://www.w3.org/2000/svg" xmlns:xlink="http://www.w3.org/1999/xlink" x="0px" y="0px"
	 viewBox="0 0 110 110" style="enable-background:new 0 0 110 110;" xml:space="preserve">
<style type="text/css">
	.st0{fill:none;}
</style>
<g id="レイヤー_1">
</g>
<g id="レイヤー_2">
</g>
<g id="レイヤー_3">
</g>
<g id="レイヤー_4">
	<path d="M106.1,58.2c-0.8-0.8-2.8-1.3-4.1-1.2H70.6c0.8-4,1.9-9.3,1.5-15.1l27.6-0.5c0.5,0,2.3,0,3.4-0.8c2.5-1.7,2.7-3.8,2.3-5.7
		c-0.7-2.9-3.8-4-4.5-4.1c-0.2,0-1.8,0-2,0l-29.6,1.3c-0.3-0.6-0.7-1.1-1.1-1.6c-2.3-2.9-6.8-1.2-8.7-0.2c-0.3-0.4-0.7-0.8-1-1.2
		c-2.2-2.2-5.7-0.9-7.7,0.3c-0.1-0.1-0.2-0.2-0.3-0.3c-0.8-0.8-1.6-1.2-2.6-1.3L98,12.8c1-0.3,1-0.5,1.4-0.8
		c2.1-1.6,1.7-4.7,0.8-6.5c-1.4-2.6-4.5-2.8-5.5-2.6c-0.2,0-0.4,0-0.6,0.1L17.4,28.5c-0.2,0.1-0.4,0.2-0.6,0.3
		c-0.8,0.6-3.2,2.4-2.6,4.8c0.3,1.1,1.1,1.8,2,2.2c-0.6,0.6-1.2,1.4-1.2,2.4c0,3,2.5,4,3,4.2c0.3,0.1,1.2,0.5,1.8,0.5
		c0,0,16.1-0.2,16.1-0.2C36.4,46.1,36.6,50,36,57H10.3c-3.2,0-4.5,0.5-5.2,1.4c-0.9,1-1,1.6-1,4.4c0,0.6,0.1,1.3,0.2,2.2
		C5.2,73,7,93.9,32,98.2c0,0,0,2.8,0,3.8c0,0.7,0.2,1.2,0.3,1.4c0.6,2,3.6,5.6,7.7,5.6h32.4c4.2,0,5.1-3.6,5.6-5.6
		c0-0.1,0.1-1.3,0.1-1.4v-3.8c26-4.3,28-25.4,28.9-33.5c0.1-0.9,0.2-1.4,0.3-2C107.6,59.9,106.9,59.1,106.1,58.2z M99.8,34.8
		c0.8,0,1.7-0.2,1.8,0.9c0.1,1.5-0.7,1.5-1.2,1.6l-29,0.4c-0.1-0.5-0.3-1.1-0.4-1.6L99.8,34.8z M62.9,32.2c0.8-0.7,2-0.7,2.8,0.1
		c0.6,0.6,5.7,6.6,1.1,23.4c-0.2,0.9-1,1.5-1.9,1.5c-0.2,0-0.4,0-0.5-0.1c-1.1-0.3-1.7-1.4-1.4-2.5C67,40,62.8,35.1,62.8,35
		C62.1,34.2,62.1,33,62.9,32.2z M53.1,30.9c0.7-0.8,2-0.9,2.8-0.1c0.3,0.3,7.7,7.2,3.6,24.8c-0.2,0.9-1,1.5-1.9,1.5
		c-0.2,0-0.3,0-0.5-0.1c-1.1-0.3-1.7-1.3-1.5-2.4c3.6-15-2.2-20.7-2.4-20.9C52.4,33,52.4,31.7,53.1,30.9z M51.5,56.5
		c-0.3,0.8-1.1,1.4-1.9,1.4c-0.2,0-0.4,0-0.6-0.1c-1.1-0.3-1.6-1.5-1.3-2.5c4.8-14.8-3.4-22-3.7-22.3c-0.8-0.7-1-2-0.2-2.8
		c0.7-0.8,2-1,2.8-0.3C47,30.2,57.2,38.9,51.5,56.5z M18.9,32.2L95,7c1.1-0.4,1.7,0.3,1.8,0.5c0,0.1,0.7,1.3-0.7,1.7L18.9,32.2
		C18.9,32.2,18.9,32.2,18.9,32.2z M32.2,33.7l-5,0.2l4.2-1.2C31.5,33.1,31.8,33.4,32.2,33.7z M18.7,38.5c0.2-0.4,14.1-1.7,14.1-1.7
		s0.2,0,0.5,1C33.4,37.8,18.5,38.9,18.7,38.5z M36,34.8c-0.8-0.7-0.9-2-0.1-2.8c0.7-0.8,2-0.9,2.8-0.1c0.3,0.3,8.3,7.9,4.4,25.1
		c-0.2,0.9-1,1.6-1.9,1.6c-0.1,0-0.3,0-0.4,0c-1.1-0.2-1.8-1.3-1.5-2.4C42.6,41.1,36,34.9,36,34.8z M103.6,62c0,0.7-0.1,1.4-0.2,2.3
		c-0.9,8.1-3.5,27-27.2,30.2c-1,0.1-2.2,1-2.2,2v5.2c0,0.6,0.2,3.3-1.6,3.3H40c-1.8,0-3-2.2-3.6-3.2c-0.6-1.1-0.4-5.2-0.4-5.2
		c0-1-0.2-1.8-1.2-2C11.2,91.4,9.5,73.2,8.5,64.4c-0.1-1-0.2-1.3-0.2-2c0-0.8,0-0.9,0-1C8.6,61.1,8.6,61,9,61c0.2,0,0.7,0,1,0h57.9
		H68h33.5c0.2,0,0.9,0,1.3,0c0.1,0,0.3,0,0.5,0.1C103.6,61.3,103.7,61.2,103.6,62z"/>
</g>
<g id="レイヤー_5">
</g>
</svg>
