<?xml version="1.0" encoding="utf-8"?>
<!-- Generator: Adobe Illustrator 19.1.0, SVG Export Plug-In . SVG Version: 6.00 Build 0)  -->
<svg version="1.1" xmlns="http://www.w3.org/2000/svg" xmlns:xlink="http://www.w3.org/1999/xlink" x="0px" y="0px"
	 viewBox="0 0 110 110" style="enable-background:new 0 0 110 110;" xml:space="preserve">
<style type="text/css">
	.st0{fill:none;}
</style>
<g id="レイヤー_1">
	<g>
		<path d="M14,101c-0.7,0-1.4-0.4-1.7-1c-0.4-0.7-0.4-1.5,0.1-2.1c0.1-0.1,3.5-5.8,1.2-18c-2.4-13.2,1.1-33.6,12.4-45.6
			c1.3-2.2,11.5-16.9,47-19.3c9.4-0.9,20.5-3.2,22-5.2c0.5-0.7,1.5-1,2.3-0.7c0.8,0.3,1.4,1.2,1.3,2.1c0,0.2-1.5,15.6-2,23.9
			c-0.4,7.3-6,39.1-23.9,51C55.2,97.8,44,99,14.1,101C14.1,101,14,101,14,101z M94.1,14.8c-6.2,2.6-17.1,3.8-20.9,4.2
			c-18.5,1.3-29.5,6-35.4,9.7c-6.4,4-8.5,7.7-8.5,7.8c-0.1,0.2-0.2,0.3-0.3,0.4c-10.5,11-13.8,30-11.5,42.3
			c1.6,8.6,0.7,14.4-0.4,17.7c28.7-2,38.2-3.9,53.3-14c15.3-10.2,21.6-38.7,22.1-48C92.8,29.1,93.7,20,94.1,14.8z"/>
		<path d="M44,53.5c-0.8,0-1.5-0.5-1.8-1.2c-2.4-5.6-8.3-5.3-8.5-5.3c-1.1,0.1-2-0.8-2.1-1.9s0.8-2,1.9-2.1c0.4,0,9-0.5,12.5,7.7
			c0.4,1,0,2.2-1.1,2.6C44.5,53.4,44.3,53.5,44,53.5z"/>
		<path d="M64,85.5c-0.1,0-0.2,0-0.3,0c-1.1-0.2-1.8-1.2-1.7-2.3c1.3-8.7-7.2-16.1-7.3-16.2c-0.8-0.7-0.9-2-0.2-2.8
			c0.7-0.8,2-1,2.8-0.2c0.4,0.4,10.3,8.8,8.7,19.8C65.8,84.8,65,85.5,64,85.5z"/>
		<path d="M54,44.5c-0.8,0-1.5-0.5-1.8-1.2c-2.2-5-9.5-8.1-12.2-8.9c-1.1-0.3-1.7-1.4-1.4-2.5c0.3-1.1,1.4-1.7,2.5-1.4
			c0.5,0.1,11.5,3.4,14.8,11.1c0.4,1,0,2.2-1.1,2.6C54.5,44.4,54.3,44.5,54,44.5z"/>
	</g>
</g>
<g id="レイヤー_2">
</g>
<g id="レイヤー_3">
</g>
<g id="レイヤー_4">
</g>
<g id="レイヤー_5">
</g>
</svg>
