<?xml version="1.0" encoding="utf-8"?>
<!-- Generator: Adobe Illustrator 19.1.0, SVG Export Plug-In . SVG Version: 6.00 Build 0)  -->
<svg version="1.1" xmlns="http://www.w3.org/2000/svg" xmlns:xlink="http://www.w3.org/1999/xlink" x="0px" y="0px"
	 viewBox="0 0 110 110" style="enable-background:new 0 0 110 110;" xml:space="preserve">
<style type="text/css">
	.st0{fill:none;}
</style>
<g id="レイヤー_1">
	<g>
		<path d="M38.9,108.7c-0.3,0-0.7-0.1-1-0.2c-1-0.5-1.3-1.7-0.8-2.7c5.7-10.4,5.1-31.9-1.1-37.6c-8.1-7.5-8.9-15.9-3-29.8
			c3.1-7.3,2.6-10.6,2-12c-0.5-1.1-1.2-1.3-1.2-1.3c-0.1,0-0.2-0.1-0.4-0.1c-5-2.5-9.7-2.6-13.1-0.4c-3.4,2.2-5.2,6.4-5,11.5
			c0.1,2.4,0.5,3.8,0.8,5.2c0.8,2.9,1.5,5.7,0.1,15.1c-1.5,10.7,1.2,14.1,6.1,20.3c1.8,2.3,3.9,4.9,6.1,8.3
			c8.7,13.6,1.6,22,1.3,22.4c-0.7,0.8-2,0.9-2.8,0.2c-0.8-0.7-0.9-2-0.2-2.8c0.2-0.3,5.3-6.7-1.7-17.6c-2.1-3.2-4.1-5.8-5.8-8
			c-5.1-6.4-8.7-11-7-23.4c1.2-8.7,0.6-10.9,0-13.5c-0.4-1.5-0.9-3.2-1-6.1c-0.3-6.6,2.2-12.1,6.8-15c4.6-3,10.8-2.9,17,0.1
			c0.7,0.2,2.3,1,3.4,3.2c1.7,3.4,1.1,8.6-1.8,15.5c-6,14-3.8,19.8,2,25.2c8,7.5,8,31.3,1.9,42.4C40.3,108.3,39.6,108.7,38.9,108.7z
			"/>
		<path d="M48.2,107.2c-0.8,0-1.5-0.5-1.9-1.3c-0.4-1,0.1-2.2,1.1-2.6c0.3-0.1,7.2-3.1,5-13.2c-0.8-4-3.1-8.6-5.5-13.4
			c-4.4-9-9.5-19.1-7.3-29.9c2.1-10,4.1-13.2,5.6-15.5c1.4-2.1,2.1-3.3,1.9-10.3C46.8,9.8,53.6,3.2,60.6,1.7
			c6.9-1.5,13.2,1.6,15.7,7.7C80.6,19.8,76.8,25,73.2,30c-1,1.3-1.9,2.7-2.8,4.1C68,38.3,63.6,46,64.2,54.3
			c0.5,7.2,0.5,7.2,4.3,13.6l0.4,0.7c3.4,5.7,6.5,18,2.5,27.5c-2.3,5.6-6.8,9.4-13,10.9c-1.1,0.3-2.2-0.4-2.4-1.5
			c-0.3-1.1,0.4-2.2,1.5-2.4c5-1.2,8.5-4.1,10.3-8.6c3.4-8.1,0.6-19.1-2.3-23.9L65,69.9c-4.2-7.1-4.3-7.4-4.8-15.4
			c-0.6-9.5,4.2-17.9,6.8-22.4c0.9-1.6,2-3.1,3-4.5c3.4-4.7,6.1-8.4,2.6-16.8c-2-4.9-7.1-6.2-11.1-5.3c-4.9,1.1-10.6,5.7-10.3,15.2
			c0.3,7.9-0.7,9.7-2.5,12.6c-1.3,2.1-3.1,4.9-5,14.1c-1.9,9.4,2.6,18.5,6.9,27.3c2.5,5,4.9,9.8,5.8,14.4
			c2.2,10.8-3.9,16.3-7.5,17.8C48.7,107.1,48.4,107.2,48.2,107.2z"/>
		<path d="M59.7,97.7c-0.2,0-0.5,0-0.7-0.1c-1-0.4-1.6-1.5-1.2-2.6c0.1-0.2,5.8-15.9-2.2-26.6c-7.1-9.5-8.1-20.1-2.9-30.8
			c2.9-6,5.1-15.5,5.1-15.6c0.2-1.1,1.3-1.8,2.4-1.5c1.1,0.2,1.7,1.3,1.5,2.4c-0.1,0.4-2.3,10-5.4,16.4c-4.5,9.4-3.6,18.4,2.6,26.7
			c9.3,12.5,3,29.7,2.8,30.4C61.2,97.2,60.5,97.7,59.7,97.7z"/>
		<path d="M36.7,95.2c-0.1,0-0.2,0-0.3,0c-1.1-0.2-1.9-1.2-1.7-2.3c1-6.8,0.4-7.5-2.2-11c-0.4-0.5-0.9-1.1-1.4-1.8
			c-1.8-2.5-3.2-3.4-4.4-4.2c-2.5-1.7-4.1-3.1-6.1-8.8c-3.5-10.1,3-30,3.2-30.8c0.3-1,1.5-1.6,2.5-1.3c1,0.3,1.6,1.5,1.3,2.5
			c-0.1,0.2-6.4,19.4-3.3,28.2c1.7,4.9,2.8,5.6,4.6,6.8c1.4,1,3.2,2.1,5.4,5.2c0.5,0.7,0.9,1.2,1.3,1.7c3.2,4.2,4.2,5.9,3,14
			C38.5,94.4,37.6,95.2,36.7,95.2z"/>
		<path d="M80.7,104.9c-0.6,0-1.2-0.3-1.6-0.8c-0.7-0.9-0.5-2.1,0.4-2.8c8.8-6.6,8.7-18.4,8.7-28.8c0-3.4,0-6.6,0.3-9.4
			c1.2-9.8,4-17.1,4.6-18.4c2.2-10.9,2.2-17.8-0.1-20.6c-1.3-1.6-3.5-1.8-6-1.8c-2.8,0-6.7,9.5-7.8,19.2c-0.4,3.8-1.6,6.4-2.7,9
			c-1.6,3.7-3,6.9-2,12.9c1,6.1,2.3,9.8,3.5,13.3c0.9,2.7,1.9,5.4,2.7,9.1c2,9.3-7,17.5-7.4,17.9c-0.8,0.7-2.1,0.7-2.8-0.1
			c-0.7-0.8-0.7-2.1,0.1-2.8l0,0c0.1-0.1,7.6-7.1,6.1-14.1c-0.7-3.4-1.6-5.9-2.6-8.6c-1.3-3.7-2.7-7.6-3.7-14
			C69.3,57,71,53,72.7,49.1c1.1-2.4,2.1-4.7,2.4-7.9c0.9-7.9,4.5-22.8,11.7-22.8c2.4,0,6.4,0,9.1,3.2c3.2,3.9,3.5,11.6,0.9,24.2
			c0,0.1-0.1,0.3-0.1,0.4c0,0.1-3.2,7.4-4.3,17.4c-0.3,2.5-0.3,5.6-0.3,8.9c0.1,10.8,0.2,24.2-10.3,32
			C81.5,104.8,81.1,104.9,80.7,104.9z"/>
		<path d="M82.4,79.9c-0.8,0-1.5-0.5-1.8-1.2c-3.2-7.4-2.5-19.1,0-25.1c2.1-4.9,3.8-17.8,3.9-18c0.1-1.1,1.1-1.9,2.2-1.7
			c1.1,0.1,1.9,1.1,1.7,2.2c-0.1,0.6-1.8,13.6-4.1,19c-2.2,5.1-2.6,15.8,0,21.9c0.4,1,0,2.2-1.1,2.6C82.9,79.8,82.7,79.9,82.4,79.9z
			"/>
	</g>
</g>
<g id="レイヤー_2">
</g>
<g id="レイヤー_3">
</g>
<g id="レイヤー_4">
</g>
<g id="レイヤー_5">
</g>
</svg>
