<?xml version="1.0" encoding="utf-8"?>
<!-- Generator: Adobe Illustrator 19.1.0, SVG Export Plug-In . SVG Version: 6.00 Build 0)  -->
<svg version="1.1" xmlns="http://www.w3.org/2000/svg" xmlns:xlink="http://www.w3.org/1999/xlink" x="0px" y="0px"
	 viewBox="0 0 110 110" style="enable-background:new 0 0 110 110;" xml:space="preserve">
<style type="text/css">
	.st0{fill:none;}
</style>
<g id="レイヤー_1">
	<g>
		<path d="M102,51.2c0-7.7-3.2-12.5-6-14.4c-0.7-0.5-1.5-0.8-2.2-1c0.4-3.5,0.2-9.9-5.2-15.1c-5.3-5.1-9.9-6.4-17-4.9
			c-1.5-3.2-5.8-9.3-16.6-9c-10.7-0.4-15,5.8-16.6,9c-7.1-1.5-11.7-0.2-17,4.9c-5.4,5.2-5.6,11.6-5.2,15.1c-0.7,0.2-1.5,0.5-2.2,1
			c-2.9,1.9-6,6.7-6,14.4C7.9,70.7,25.6,80.5,36.9,84.8c-0.8,1.5-1.5,3.6-1.4,6.8C35.7,99.4,46,103,55.8,103c0.1,0,0.1,0,0.2,0
			c9.8,0,20.3-3.5,20.5-11.4c0.1-3.7-0.8-6.2-1.8-7.6C86,79.5,102.1,69.8,102,51.2z M63.1,83.5c-1.1,0.2-1.8,1.3-1.6,2.3
			c0.2,1.1,1.3,1.8,2.3,1.6c0.1,0,2.8-0.6,6.8-1.9l0,0.1c0.1,0,2,1.1,1.9,5.8c-0.1,4.6-8,7.3-15.9,7.4c0,0-0.1,0-0.2,0
			c-0.3,0-0.6,0.1-0.9,0.1c0,0,0,0,0,0c0,0-0.1-0.1-0.1-0.1c-7.9-0.1-15.8-2.9-15.9-7.5c-0.1-3.2,0.8-4.7,1.4-5.4
			c3.1,1,5.2,1.4,5.2,1.4c1.1,0.2,2.1-0.5,2.3-1.6c0.2-1.1-0.5-2.1-1.6-2.3c-0.4-0.1-35-7.1-34.9-32.4c0-6.1,2.3-9.8,4.2-11.1
			c0.6-0.4,1.3-0.6,1.6-0.4c0.7,0.3,1.5,0.2,2.1-0.4c0.6-0.5,0.8-1.3,0.6-2.1c-0.1-0.3-2.3-7.9,3.6-13.6c4.8-4.5,8.1-5.3,14.9-3.5
			c0.5,0.1,1.1,0.1,1.5-0.2c0.5-0.3,0.8-0.7,0.9-1.2c0-0.1,2.1-8.2,13.3-7.8c0,0,0.1,0.1,0.1,0.1c0,0,0,0,0,0c0,0,0.1-0.1,0.1-0.1
			c11.1-0.4,13.2,7.4,13.3,7.7c0.1,0.5,0.5,1,0.9,1.3c0.5,0.3,1,0.4,1.5,0.2c6.8-1.8,10.2-1,14.9,3.5c6,5.7,3.7,13.3,3.6,13.6
			c-0.2,0.7,0,1.6,0.6,2.1c0.6,0.5,1.4,0.7,2.1,0.4c0.4-0.2,1,0,1.6,0.4c1.9,1.3,4.2,4.9,4.2,11.1C98.2,76.4,63.5,83.5,63.1,83.5z"
			/>
		<path d="M55,34.2c-1.1,0-2,0.9-2,2v35c0,1.1,0.9,2,2,2s2-0.9,2-2v-35C57,35.1,56.1,34.2,55,34.2z"/>
		<path d="M48.3,72.7C34.1,69.5,27.8,51.2,27.7,51c-0.4-1-1.5-1.6-2.5-1.3c-1,0.4-1.6,1.5-1.3,2.5c0.3,0.8,7,20.6,23.5,24.3
			c0.1,0,0.3,0,0.4,0c0.9,0,1.7-0.6,1.9-1.6C50,74,49.4,73,48.3,72.7z"/>
		<path d="M84.5,49.8c-1-0.3-2.2,0.2-2.5,1.3c-0.1,0.2-6.3,18.5-20.5,21.7c-1.1,0.2-1.8,1.3-1.5,2.4c0.2,0.9,1,1.6,1.9,1.6
			c0.1,0,0.3,0,0.4,0c16.4-3.7,23.2-23.5,23.5-24.3C86.1,51.3,85.5,50.1,84.5,49.8z"/>
	</g>
</g>
<g id="レイヤー_2">
</g>
<g id="レイヤー_3">
</g>
<g id="レイヤー_4">
</g>
<g id="レイヤー_5">
</g>
</svg>
