<?xml version="1.0" encoding="utf-8"?>
<!-- Generator: Adobe Illustrator 19.1.0, SVG Export Plug-In . SVG Version: 6.00 Build 0)  -->
<svg version="1.1" xmlns="http://www.w3.org/2000/svg" xmlns:xlink="http://www.w3.org/1999/xlink" x="0px" y="0px"
	 viewBox="0 0 110 110" style="enable-background:new 0 0 110 110;" xml:space="preserve">
<style type="text/css">
	.st0{fill:none;}
</style>
<g id="レイヤー_1">
	<g>
		<path d="M-142.1-448.3c-0.3,0-0.7-0.1-1-0.2c-1-0.5-1.3-1.7-0.8-2.7c5.7-10.4,5.1-31.9-1.1-37.6c-8.1-7.5-8.9-15.9-3-29.8
			c3.1-7.3,2.6-10.6,2-12c-0.5-1.1-1.2-1.3-1.2-1.3c-0.1,0-0.2-0.1-0.4-0.1c-5-2.5-9.7-2.6-13.1-0.4c-3.4,2.2-5.2,6.4-5,11.5
			c0.1,2.4,0.5,3.8,0.8,5.2c0.8,2.9,1.5,5.7,0.1,15.1c-1.5,10.7,1.2,14.1,6.1,20.3c1.8,2.3,3.9,4.9,6.1,8.3
			c8.7,13.6,1.6,22,1.3,22.4c-0.7,0.8-2,0.9-2.8,0.2c-0.8-0.7-0.9-2-0.2-2.8c0.2-0.3,5.3-6.7-1.7-17.6c-2.1-3.2-4.1-5.8-5.8-8
			c-5.1-6.4-8.7-11-7-23.4c1.2-8.7,0.6-10.9,0-13.5c-0.4-1.5-0.9-3.2-1-6.1c-0.3-6.6,2.2-12.1,6.8-15c4.6-3,10.8-2.9,17,0.1
			c0.7,0.2,2.3,1,3.4,3.2c1.7,3.4,1.1,8.6-1.8,15.5c-6,14-3.8,19.8,2,25.2c8,7.5,8,31.3,1.9,42.4
			C-140.7-448.7-141.4-448.3-142.1-448.3z"/>
		<path d="M-132.8-449.8c-0.8,0-1.5-0.5-1.9-1.3c-0.4-1,0.1-2.2,1.1-2.6c0.3-0.1,7.2-3.1,5-13.2c-0.8-4-3.1-8.6-5.5-13.4
			c-4.4-9-9.5-19.1-7.3-29.9c2.1-10,4.1-13.2,5.6-15.5c1.4-2.1,2.1-3.3,1.9-10.3c-0.4-11.2,6.5-17.7,13.4-19.2
			c6.9-1.5,13.2,1.6,15.7,7.7c4.3,10.4,0.6,15.6-3.1,20.7c-1,1.3-1.9,2.7-2.8,4.1c-2.4,4.1-6.8,11.8-6.2,20.1
			c0.5,7.2,0.5,7.2,4.3,13.6l0.4,0.7c3.4,5.7,6.5,18,2.5,27.5c-2.3,5.6-6.8,9.4-13,10.9c-1.1,0.3-2.2-0.4-2.4-1.5
			c-0.3-1.1,0.4-2.2,1.5-2.4c5-1.2,8.5-4.1,10.3-8.6c3.4-8.1,0.6-19.1-2.3-23.9l-0.4-0.7c-4.2-7.1-4.3-7.4-4.8-15.4
			c-0.6-9.5,4.2-17.9,6.8-22.4c0.9-1.6,2-3.1,3-4.5c3.4-4.7,6.1-8.4,2.6-16.8c-2-4.9-7.1-6.2-11.1-5.3c-4.9,1.1-10.6,5.7-10.3,15.2
			c0.3,7.9-0.7,9.7-2.5,12.6c-1.3,2.1-3.1,4.9-5,14.1c-1.9,9.4,2.6,18.5,6.9,27.3c2.5,5,4.9,9.8,5.8,14.4
			c2.2,10.8-3.9,16.3-7.5,17.8C-132.3-449.9-132.6-449.8-132.8-449.8z"/>
		<path d="M-121.3-459.3c-0.2,0-0.5,0-0.7-0.1c-1-0.4-1.6-1.5-1.2-2.6c0.1-0.2,5.8-15.9-2.2-26.6c-7.1-9.5-8.1-20.1-2.9-30.8
			c2.9-6,5.1-15.5,5.1-15.6c0.2-1.1,1.3-1.8,2.4-1.5c1.1,0.2,1.7,1.3,1.5,2.4c-0.1,0.4-2.3,10-5.4,16.4c-4.5,9.4-3.6,18.4,2.6,26.7
			c9.3,12.5,3,29.7,2.8,30.4C-119.8-459.8-120.5-459.3-121.3-459.3z"/>
		<path d="M-144.3-461.8c-0.1,0-0.2,0-0.3,0c-1.1-0.2-1.9-1.2-1.7-2.3c1-6.8,0.4-7.5-2.2-11c-0.4-0.5-0.9-1.1-1.4-1.8
			c-1.8-2.5-3.2-3.4-4.4-4.2c-2.5-1.7-4.1-3.1-6.1-8.8c-3.5-10.1,3-30,3.2-30.8c0.3-1,1.5-1.6,2.5-1.3c1,0.3,1.6,1.5,1.3,2.5
			c-0.1,0.2-6.4,19.4-3.3,28.2c1.7,4.9,2.8,5.6,4.6,6.8c1.4,1,3.2,2.1,5.4,5.2c0.5,0.7,0.9,1.2,1.3,1.7c3.2,4.2,4.2,5.9,3,14
			C-142.5-462.6-143.4-461.8-144.3-461.8z"/>
		<path d="M-100.3-452.1c-0.6,0-1.2-0.3-1.6-0.8c-0.7-0.9-0.5-2.1,0.4-2.8c8.8-6.6,8.7-18.4,8.7-28.8c0-3.4,0-6.6,0.3-9.4
			c1.2-9.8,4-17.1,4.6-18.4c2.2-10.9,2.2-17.8-0.1-20.6c-1.3-1.6-3.5-1.8-6-1.8c-2.8,0-6.7,9.5-7.8,19.2c-0.4,3.8-1.6,6.4-2.7,9
			c-1.6,3.7-3,6.9-2,12.9c1,6.1,2.3,9.8,3.5,13.3c0.9,2.7,1.9,5.4,2.7,9.1c2,9.3-7,17.5-7.4,17.9c-0.8,0.7-2.1,0.7-2.8-0.1
			c-0.7-0.8-0.7-2.1,0.1-2.8l0,0c0.1-0.1,7.6-7.1,6.1-14.1c-0.7-3.4-1.6-5.9-2.6-8.6c-1.3-3.7-2.7-7.6-3.7-14
			c-1.1-7.2,0.6-11.3,2.3-15.2c1.1-2.4,2.1-4.7,2.4-7.9c0.9-7.9,4.5-22.8,11.7-22.8c2.4,0,6.4,0,9.1,3.2c3.2,3.9,3.5,11.6,0.9,24.2
			c0,0.1-0.1,0.3-0.1,0.4c0,0.1-3.2,7.4-4.3,17.4c-0.3,2.5-0.3,5.6-0.3,8.9c0.1,10.8,0.2,24.2-10.3,32
			C-99.5-452.2-99.9-452.1-100.3-452.1z"/>
		<path d="M-98.6-477.1c-0.8,0-1.5-0.5-1.8-1.2c-3.2-7.4-2.5-19.1,0-25.1c2.1-4.9,3.8-17.8,3.9-18c0.1-1.1,1.1-1.9,2.2-1.7
			c1.1,0.1,1.9,1.1,1.7,2.2c-0.1,0.6-1.8,13.6-4.1,19c-2.2,5.1-2.6,15.8,0,21.9c0.4,1,0,2.2-1.1,2.6
			C-98.1-477.2-98.3-477.1-98.6-477.1z"/>
	</g>
	<g>
		<path d="M-602-505.8c0-7.7-3.2-12.5-6-14.4c-0.7-0.5-1.5-0.8-2.2-1c0.4-3.5,0.2-9.9-5.2-15.1c-5.3-5.1-9.9-6.4-17-4.9
			c-1.5-3.2-5.8-9.3-16.6-9c-10.7-0.4-15,5.8-16.6,9c-7.1-1.5-11.7-0.2-17,4.9c-5.4,5.2-5.6,11.6-5.2,15.1c-0.7,0.2-1.5,0.5-2.2,1
			c-2.9,1.9-6,6.7-6,14.4c-0.1,19.5,17.6,29.3,28.9,33.6c-0.8,1.5-1.5,3.6-1.4,6.8c0.2,7.8,10.5,11.4,20.3,11.4c0.1,0,0.1,0,0.2,0
			c9.8,0,20.3-3.5,20.5-11.4c0.1-3.7-0.8-6.2-1.8-7.6C-618-477.5-601.9-487.2-602-505.8z M-640.9-473.5c-1.1,0.2-1.8,1.3-1.6,2.3
			c0.2,1.1,1.3,1.8,2.3,1.6c0.1,0,2.8-0.6,6.8-1.9l0,0.1c0.1,0,2,1.1,1.9,5.8c-0.1,4.6-8,7.3-15.9,7.4c0,0-0.1,0-0.2,0
			c-0.3,0-0.6,0.1-0.9,0.1c0,0,0,0,0,0c0,0-0.1-0.1-0.1-0.1c-7.9-0.1-15.8-2.9-15.9-7.5c-0.1-3.2,0.8-4.7,1.4-5.4
			c3.1,1,5.2,1.4,5.2,1.4c1.1,0.2,2.1-0.5,2.3-1.6c0.2-1.1-0.5-2.1-1.6-2.3c-0.4-0.1-35-7.1-34.9-32.4c0-6.1,2.3-9.8,4.2-11.1
			c0.6-0.4,1.3-0.6,1.6-0.4c0.7,0.3,1.5,0.2,2.1-0.4c0.6-0.5,0.8-1.3,0.6-2.1c-0.1-0.3-2.3-7.9,3.6-13.6c4.8-4.5,8.1-5.3,14.9-3.5
			c0.5,0.1,1.1,0.1,1.5-0.2c0.5-0.3,0.8-0.7,0.9-1.2c0-0.1,2.1-8.2,13.3-7.8c0,0,0.1,0.1,0.1,0.1c0,0,0,0,0,0c0,0,0.1-0.1,0.1-0.1
			c11.1-0.4,13.2,7.4,13.3,7.7c0.1,0.5,0.5,1,0.9,1.3c0.5,0.3,1,0.4,1.5,0.2c6.8-1.8,10.2-1,14.9,3.5c6,5.7,3.7,13.3,3.6,13.6
			c-0.2,0.7,0,1.6,0.6,2.1c0.6,0.5,1.4,0.7,2.1,0.4c0.4-0.2,1,0,1.6,0.4c1.9,1.3,4.2,4.9,4.2,11.1
			C-605.8-480.6-640.5-473.5-640.9-473.5z"/>
		<path d="M-649-522.8c-1.1,0-2,0.9-2,2v35c0,1.1,0.9,2,2,2s2-0.9,2-2v-35C-647-521.9-647.9-522.8-649-522.8z"/>
		<path d="M-655.7-484.3c-14.2-3.2-20.5-21.5-20.5-21.7c-0.4-1-1.5-1.6-2.5-1.3c-1,0.4-1.6,1.5-1.3,2.5c0.3,0.8,7,20.6,23.5,24.3
			c0.1,0,0.3,0,0.4,0c0.9,0,1.7-0.6,1.9-1.6C-654-483-654.6-484-655.7-484.3z"/>
		<path d="M-619.5-507.2c-1-0.3-2.2,0.2-2.5,1.3c-0.1,0.2-6.3,18.5-20.5,21.7c-1.1,0.2-1.8,1.3-1.5,2.4c0.2,0.9,1,1.6,1.9,1.6
			c0.1,0,0.3,0,0.4,0c16.4-3.7,23.2-23.5,23.5-24.3C-617.9-505.7-618.5-506.9-619.5-507.2z"/>
	</g>
	<g>
		<path d="M-690-273c-0.7,0-1.4-0.4-1.7-1c-0.4-0.7-0.4-1.5,0.1-2.1c0.1-0.1,3.5-5.8,1.2-18c-2.4-13.2,1.1-33.6,12.4-45.6
			c1.3-2.2,11.5-16.9,47-19.3c9.4-0.9,20.5-3.2,22-5.2c0.5-0.7,1.5-1,2.3-0.7c0.8,0.3,1.4,1.2,1.3,2.1c0,0.2-1.5,15.6-2,23.9
			c-0.4,7.3-6,39.1-23.9,51c-17.4,11.6-28.6,12.9-58.5,14.8C-689.9-273-690-273-690-273z M-609.9-359.2c-6.2,2.6-17.1,3.8-20.9,4.2
			c-18.5,1.3-29.5,6-35.4,9.7c-6.4,4-8.5,7.7-8.5,7.8c-0.1,0.2-0.2,0.3-0.3,0.4c-10.5,11-13.8,30-11.5,42.3
			c1.6,8.6,0.7,14.4-0.4,17.7c28.7-2,38.2-3.9,53.3-14c15.3-10.2,21.6-38.7,22.1-48C-611.2-344.9-610.3-354-609.9-359.2z"/>
		<path d="M-660-320.5c-0.8,0-1.5-0.5-1.8-1.2c-2.4-5.6-8.3-5.3-8.5-5.3c-1.1,0.1-2-0.8-2.1-1.9s0.8-2,1.9-2.1c0.4,0,9-0.5,12.5,7.7
			c0.4,1,0,2.2-1.1,2.6C-659.5-320.6-659.7-320.5-660-320.5z"/>
		<path d="M-640-288.5c-0.1,0-0.2,0-0.3,0c-1.1-0.2-1.8-1.2-1.7-2.3c1.3-8.7-7.2-16.1-7.3-16.2c-0.8-0.7-0.9-2-0.2-2.8
			c0.7-0.8,2-1,2.8-0.2c0.4,0.4,10.3,8.8,8.7,19.8C-638.2-289.2-639-288.5-640-288.5z"/>
		<path d="M-650-329.5c-0.8,0-1.5-0.5-1.8-1.2c-2.2-5-9.5-8.1-12.2-8.9c-1.1-0.3-1.7-1.4-1.4-2.5c0.3-1.1,1.4-1.7,2.5-1.4
			c0.5,0.1,11.5,3.4,14.8,11.1c0.4,1,0,2.2-1.1,2.6C-649.5-329.6-649.7-329.5-650-329.5z"/>
	</g>
	<path d="M-439.4-345.9c-5.8-8.3-17.2-18.3-38.6-19.4c0,0,0,0-0.1,0c0,0,0,0-0.1,0c-21.4,1-32.8,11.1-38.6,19.4
		c-8.2,11.8-9.9,26.6-7.2,35.2c2.3,7.6,14.1,10.7,25,11.9c-0.5,4-0.9,12,3.7,18.2c3.5,4.7,9.1,7.4,16.6,7.9c0,0,0.1,0,0.1,0
		c0.2,0,0.5,0,0.7-0.1c0.2,0.1,0.4,0.1,0.7,0.1c0,0,0.1,0,0.1,0c7.5-0.5,13.1-3.1,16.6-7.9c4.6-6.2,4.2-14.3,3.7-18.2
		c10.8-1.2,22.3-4.3,24.6-11.8C-429.5-319.3-431.1-334.1-439.4-345.9z M-463.7-283c-2.8,3.7-7.3,5.8-13.6,6.2
		c-0.2,0-0.4,0.1-0.5,0.1c-0.2-0.1-0.4-0.1-0.5-0.1c-6.3-0.4-10.8-2.5-13.6-6.2c-3.8-5.1-3.4-12.2-2.9-15.5c3.6,0.3,7,0.3,9.7,0.3
		c3.1,0,5.4-0.1,6.3-0.1c0.3,0,0.6-0.1,0.9-0.3c0.3,0.1,0.5,0.2,0.9,0.3c0.9,0,3.2,0.1,6.3,0.1c2.8,0,6.4-0.1,10.1-0.4
		C-460.3-295.2-459.9-288.1-463.7-283z M-436-311.8c-1.6,5.3-11.8,8-22.8,9.1c-0.3-0.1-0.6-0.1-0.9,0c-0.1,0-0.2,0.1-0.3,0.1
		c-6,0.5-12.1,0.6-17.1,0.3c-0.4,0-0.7,0.1-1.1,0.2c-0.3-0.2-0.7-0.3-1.1-0.2c-4.8,0.2-10.7,0.2-16.5-0.3c-0.1-0.1-0.3-0.1-0.4-0.1
		c-0.3-0.1-0.7-0.1-1,0c-11.1-1.1-21.4-3.8-23.1-9.2c-1.9-6.2-1.7-19.8,6.7-31.8c5.3-7.5,15.7-16.6,35.4-17.6
		c19.7,1,30.1,10.1,35.4,17.6C-434.2-331.6-434-318.1-436-311.8z"/>
	<g>
		<path d="M-284-341.6c-10.5-5.3-9.6-14.3-9.6-14.6c0,0,0-0.1,0-0.1c0.2-3.5,0-8.3-3.2-9.8c-2-0.9-4,0-5.4,1c-1.3-1.1-3.1-2.2-5-1.5
			c-1.2,0.4-1.9,1.4-2.4,2.5c-2-1.9-4.3-3.2-6.6-2.5c-0.6,0.2-1.2,0.5-1.6,0.9c-0.4-0.4-0.8-0.7-1.4-0.9c-1.9-0.7-3.8,0.4-5,1.5
			c-1.4-0.9-3.4-1.8-5.4-1c-3.2,1.4-3.3,6.3-3.2,9.8c0,0,0,0.1,0,0.1c0,0.4,0.9,9.4-9.6,14.6c-13.9,6.9-21.7,21.1-21.1,37.9
			c0.6,16.6,13.3,26.2,35.7,27.2c0.6,0.7,1.5,1.6,2.8,2.3c2.3,1.3,4.9,1.5,7.4,0.5c0.3,0.5,0.8,0.9,1.3,1.3c0.3,0.8,1,1.3,1.9,1.3
			c0.4,0,0.8,0,1.2-0.1c0.4,0.1,0.8,0.1,1.2,0.1c0.9,0,1.6-0.5,1.9-1.3c0.5-0.4,1-0.8,1.3-1.3c2.5,1,5,0.8,7.4-0.5
			c1.3-0.7,2.2-1.6,2.8-2.3c22.4-1,35-10.7,35.7-27.2C-262.2-320.5-270.1-334.7-284-341.6z M-266.8-303.9
			c-0.4,10.2-6.4,22.5-32.7,23.4c-0.6,0-1.2,0.4-1.6,0.9c-0.5,0.7-3.2,4.2-7.2,1.5c-0.6-0.4-1.3-0.4-1.9-0.2
			c-0.6,0.3-1.1,0.8-1.2,1.5c0,0.1-0.2,1.1-1.5,1.6c-1.1-0.4-1.4-1.3-1.5-1.6c-0.1-0.7-0.6-1.2-1.2-1.5c-0.2-0.1-0.5-0.2-0.8-0.2
			c-0.4,0-0.8,0.1-1.1,0.3c-4.1,2.7-6.7-0.7-7.2-1.4c0,0,0,0-0.1-0.1c-0.1-0.1-0.1-0.2-0.2-0.2c0,0-0.1-0.1-0.1-0.1
			c-0.1-0.1-0.1-0.1-0.2-0.2c0,0-0.1-0.1-0.1-0.1c0,0,0,0-0.1,0c-13.2-6.1-20.5-13.7-21.7-22.7c-2.2-17,17.9-33.8,18.2-34
			c12.3-10.8,8.8-17.2,8.4-17.9l-1.7,1.1l-1.7,1c0,0,2,4.4-7.5,12.8c-0.9,0.7-22,18.4-19.5,37.6c1.1,8.1,6.2,15.1,15.2,21
			c-18.2-3.3-22.7-13.6-23-22.4c-0.6-15.2,6.5-27.9,18.9-34.1c12.7-6.3,11.9-17.4,11.8-18.6c-0.2-5,0.8-5.8,0.8-5.8
			c0.4-0.1,1.6,0.6,2.5,1.4c0.4,0.4,0.9,0.6,1.5,0.6c0.5,0,1.1-0.3,1.4-0.7c1-1.1,1.7-1.5,2-1.7c0.3,0.5,0.6,1.9,0.6,3
			c0,1.1,0.9,2,1.9,2c1.1,0,2-0.8,2.1-1.9c0.1-1.5,0.7-3,1.1-3.1c0,0,1.4-0.2,5,4.3c0.5,0.7,1.4,0.9,2.2,0.6c0.8-0.3,1.3-1,1.3-1.9
			c0-1.1,0.3-2.5,0.6-3c0.3,0.1,0.9,0.5,2,1.7c0.4,0.4,0.9,0.6,1.4,0.7c0.5,0,1.1-0.2,1.5-0.6c0.8-0.8,2.1-1.5,2.5-1.4
			c0,0,1,0.8,0.8,5.9c-0.1,1.2-0.9,12.3,11.8,18.6C-273.3-331.8-266.3-319-266.8-303.9z"/>
		<path d="M-296.9-335.7l-0.4-0.3c-7.6-5.9-5.9-18-5.9-18.1c0.2-1.1-0.6-2.1-1.7-2.3c-1.1-0.2-2.1,0.6-2.3,1.7
			c-0.1,0.6-2.1,14.6,7.4,21.9l0.4,0.3c8.5,6.5,21.4,16.4,8.4,41.9c-0.5,1-0.1,2.2,0.9,2.7c0.3,0.1,0.6,0.2,0.9,0.2
			c0.7,0,1.4-0.4,1.8-1.1C-272.8-317.3-287.9-328.8-296.9-335.7z"/>
		<path d="M-315.3-356.5c-1.1,0.1-1.9,1.1-1.8,2.2c0,0.6,4.6,55.2,2,67.4c-0.2,1.1,0.5,2.1,1.5,2.4c0.1,0,0.3,0,0.4,0
			c0.9,0,1.8-0.6,2-1.6c2.7-12.8-1.8-66.3-2-68.6C-313.2-355.7-314.2-356.5-315.3-356.5z"/>
		<path d="M-328.2-326.7c0.6-0.9,0.4-2.2-0.5-2.8c-0.9-0.6-2.2-0.4-2.8,0.5c-0.1,0.2-3.6,5.4-4.3,13.9c-0.6,7.7,1.3,19.9,13.1,33.9
			c0.4,0.5,1,0.7,1.5,0.7c0.5,0,0.9-0.2,1.3-0.5c0.8-0.7,0.9-2,0.2-2.8C-340.3-308.2-328.7-325.9-328.2-326.7z"/>
	</g>
	<path d="M-77.7-323c-0.5-0.4-1-0.7-1.6-0.9c1-2.9,0.9-5.5-0.2-7.6c-1-2-2.8-3.2-4.1-3.8c0.2-2.1-0.3-3.9-1.4-5.4
		c-1.6-2.2-4.2-3-5.9-3.4c-0.3-1.5-1-2.9-2.1-3.9c-2-1.9-4.8-2.6-6.6-2.7c-0.6-2.8-1.9-4.8-3.8-6.1c-2.1-1.4-4.5-1.6-6.1-1.5
		c-0.8-1.6-1.9-2.5-2.8-2.9c-1.7-0.9-3.6-0.8-5-0.6c-1-2-2.4-3.3-4.2-3.8c-2.2-0.7-4.3,0.1-5.6,0.7c-1.8-1-3.5-1.2-5.2-0.8
		c-1.5,0.4-2.5,1.2-3.3,2c-2.5-1.1-4.7-1.2-6.5-0.4c-1.7,0.8-2.7,2.2-3.2,3.3c-2.7-0.1-4.9,0.6-6.3,2.1c-1.2,1.2-1.6,2.7-1.8,3.9
		c-1.9,0-3.6,0.6-4.8,1.7c-1.4,1.2-2.1,2.8-2.4,4c-2.1-0.1-3.7,0.5-4.7,1.7c-1.3,1.5-1.4,3.7-1.1,5.3c-2,0.7-3.6,1.9-4.6,3.5
		c-1.4,2.4-1.4,5.1-1.1,7.1c-1.9,0.5-3.4,1.4-4.3,2.7c-1.2,1.8-1.2,3.8-0.9,5.1c-0.3,0.1-0.5,0.3-0.7,0.5c-1.2,1.4-1.7,2.7-1.2,5.5
		c0.1,0.6-0.3,1.3-0.2,2.3c0.9,8,2.7,29.1,27.7,33.4v3.8c0,0.2,0.5,0.6,0.6,0.8c0.6,2,3.3,5.6,7.4,5.6h32.4c4.2,0,5.7-3.8,6.1-5.7
		c0-0.1-0.4-0.4-0.4-0.6v-3.8c26-4.3,28-25.4,28.9-33.5c0.1-0.9,0.4-1.6,0.5-2.2C-76.2-320.6-76.3-321.9-77.7-323z M-173.3-326.4
		c0.7-1,2.3-1.3,3.5-1.4c0.6,0,1.2-0.4,1.6-0.9s0.4-1.2,0.2-1.8c0,0-1.2-3.7,0.2-6.1c0.7-1.2,2-1.9,3.9-2.1c0.6-0.1,1.1-0.4,1.4-1
		c0.3-0.5,0.4-1.1,0.2-1.7c-0.4-1-0.6-2.8-0.1-3.4c0.2-0.2,0.6-0.3,1.2-0.3c0.5,0,1,0.1,1.7,0.2c0.6,0.1,1.2,0,1.7-0.4
		c0.5-0.4,0.7-1,0.7-1.6c0,0,0-2.1,1.3-3.2c0.8-0.7,2.1-0.9,3.9-0.6c0.6,0.1,1.3-0.1,1.7-0.6c0.5-0.5,0.7-1.1,0.6-1.8
		c0,0-0.3-1.9,0.7-3c1-1,3-0.9,4.5-0.7c1.1,0.2,2-0.5,2.3-1.6c0,0,0.4-1.7,1.6-2.2c1-0.4,2.5-0.1,4.5,1.1c0.5,0.3,1.1,0.4,1.6,0.2
		c0.5-0.2,1-0.5,1.2-1c0,0,0.7-1.3,1.9-1.6c0.8-0.2,1.9,0.1,3,0.9c0.7,0.5,1.6,0.5,2.3,0c0.5-0.4,2-1.2,3.3-0.8
		c1.2,0.4,1.9,1.9,2.3,3c0.2,0.5,0.6,0.9,1.1,1.2c0.5,0.2,1.1,0.2,1.6,0c0.4-0.2,2.3-0.7,3.6-0.1c0.7,0.3,1.1,1,1.4,2.1
		c0.1,0.5,0.5,1,0.9,1.2c0.5,0.3,1,0.3,1.5,0.2c0,0,2.7-0.7,4.7,0.7c1.3,0.9,2.1,2.6,2.3,5c0.1,1,1,1.9,2.1,1.8c0.9,0,4,0.2,5.5,1.7
		c0.7,0.7,1.1,1.6,1.1,2.8c0,1.1,0.9,2,1.9,2c0.8,0,3.4,0.5,4.6,2c0.7,0.9,0.8,2.2,0.4,3.9c-0.1,0.5,0,1.1,0.2,1.5
		c0.3,0.5,0.8,0.8,1.3,0.9c0,0,2.3,0.7,3.3,2.5c0.7,1.3,0.5,2.5-0.4,5.5h-26h-4.1h-4h-3.6h-3.7h-3.5h-4.2h-4h-4.3h-4.1h-3.2h-1.9
		h-23.8C-173.7-325-173.8-325.7-173.3-326.4z M-80.3-318.4c-0.1,0.6-0.2,1.4-0.3,2.4c-0.9,8.1-3.5,27-27.2,30.2c-1,0.1-2.2,1-2.2,2
		v5.2c0,0.6,0.1,2.6-1.7,2.6H-144c-1.8,0-3-2-4-2.7v-5.1c0-1-0.3-1.8-1.3-2c-23.6-3.2-25.3-21.4-26.2-30.1c0-0.1,0.1-0.2,0.1-0.3
		c-0.1-0.9-0.2-1.6-0.2-2.2c-0.1-1.2,0.2-1.5,0.2-1.6c0.3-0.2,0.3-0.1,0.7-0.1c0.2,0,0.5,0.2,0.7,0.2h1.6h56.3h0.1h31.5h2.9
		c0.2,0,0.3-0.1,0.7-0.2c0.1,0,0.4,0.1,0.5,0.1c0,0,0,0,0.1,0C-80.3-319.9-80.1-319.7-80.3-318.4z"/>
	<g>
		<path d="M99.8-351.4c1-1.1,2.5-3.5,1-7.5c-1-2.7-2.6-4.4-4.7-5.2c-0.9-0.3-1.7-0.4-2.5-0.4c-0.2-1.4-0.9-2.9-2.1-4.2
			c-2.3-2.4-6.4-3.8-10.4-1.3c-2,1.3-3.2,3.1-3.6,5.2c-0.5,2.9,0.7,5.6,1.6,7.3l-3.6,3.6c-0.6-0.8-1.3-1.5-1.8-2.3
			c-1.2-1.5-2.3-2.9-3.5-4c-5.4-4.9-12.1-6.4-18.8-4c-7.4,2.6-13.6,9.3-14.7,16c-1.4,8.8-8.7,14.4-15.2,15.3
			c-0.8,0.1-1.6,0.2-2.4,0.3c-5,0.5-9.7,1-17.6,11.9c-4.3,6-5.5,12.8-3.3,18.8c1.7,4.5,5,7.8,8.8,8.7c0.4,0.1,0.8,0.2,1.3,0.3
			c1.2,0.3,2.5,0.6,3.8,1l-4.1,3.5c-2.2-0.2-7.5-0.4-10.4,3.6c-1.8,2.5-1.7,5.6,0.1,8C-0.7-275,1.5-274,4-274
			c-0.2,1.7,0.1,3.7,1.9,5.4c1.3,1.2,2.8,1.8,4.4,1.8c1.6,0,3.3-0.6,4.8-1.7c3-2.1,5.1-6.2,4-10.3l2.9-2.6c1.7,5,4.5,9.8,17.3,12.3
			c1.2,0.2,2.4,0.3,3.5,0.3c11.5,0,18.2-11.3,20.3-18c0.8-1.3,5.8-9.1,12.6-12.5c1.4-0.7,2.8-1.3,4.4-1.9c7.1-2.9,16-6.5,18.7-21.5
			c3.1-17.7-10.8-22.8-12.1-23.2c-0.2-0.1-0.4-0.2-0.7-0.3L89-349C92.8-348.2,97.4-348.7,99.8-351.4z M15.5-280.9
			c-0.7,0.6-0.9,1.6-0.5,2.4c1.2,2.5-0.2,5.3-2.1,6.8c-0.6,0.4-2.6,1.7-4.2,0.3c-1.6-1.5-0.2-3.5,0-3.8c0.5-0.7,0.6-1.7,0-2.4
			c-0.4-0.5-1-0.8-1.6-0.8c-0.2,0-0.5,0-0.7,0.1c-2.7,1-4.6,0.2-5.4-0.9c-0.7-1-0.7-2.2,0-3.2c2-2.9,7.3-1.9,7.3-1.9
			c0.6,0.1,1.2,0,1.7-0.4l6.4-5.5c1.8,1,3.4,2.5,4.1,4.5c0,0.1,0.1,0.2,0.1,0.4L15.5-280.9z M85.4-342.1c0,0,0.1,0,0.1,0
			c0.5,0.1,12.1,3.7,9.4,18.7c-2.3,12.9-9.1,15.6-16.2,18.5c-1.6,0.6-3.2,1.3-4.7,2c-8.4,4.2-14.1,13.9-14.3,14.3
			c-0.1,0.1-0.1,0.3-0.2,0.4c-0.1,0.2-5.6,17.8-19.4,15.1c-12-2.3-13.2-6-14.8-11.2c0,0,0,0,0,0c-0.3-1-0.6-2-1-3
			c-1.6-4.1-5-6.4-8.5-7.8c-2.3-0.9-4.7-1.4-6.5-1.8c-0.4-0.1-0.9-0.2-1.2-0.3c-2.5-0.6-4.8-3-6-6.2c-1-2.7-2-8.4,2.8-15
			c6.8-9.4,10.3-9.8,14.7-10.2c0.8-0.1,1.7-0.2,2.6-0.3c7.9-1.2,16.8-8,18.5-18.7c0.8-5.2,6.1-10.8,12-12.9c1.4-0.5,3.2-0.9,5-0.9
			c3,0,6.4,1,9.8,4.1c1,0.9,2,2.1,3.1,3.5c0.7,0.8,1.4,1.7,2.1,2.6c2.4,2.8,5.4,5.7,10.2,7.9C83.8-342.8,84.6-342.5,85.4-342.1z
			 M87.1-352.6l-4.8,4.6c-1.5-0.9-2.8-1.9-3.9-2.9l4.8-4.8c0.7-0.7,0.8-1.8,0.2-2.6c-0.6-0.8-2.2-3.5-1.8-5.6c0.2-1,0.8-1.8,1.8-2.5
			c2.2-1.4,4.2-0.6,5.3,0.7c0.8,0.9,1.4,2.2,0.8,3c-0.5,0.8-0.5,1.8,0.2,2.5c0.6,0.7,1.7,0.8,2.5,0.4c0,0,1.4-0.8,2.7-0.3
			c0.9,0.3,1.7,1.3,2.3,2.8c0.9,2.3,0.1,3.1-0.2,3.4c-1.3,1.4-4.9,1.9-7.9,1C88.3-353.3,87.6-353.1,87.1-352.6z"/>
	</g>
	<path d="M273.9-313.6l0-16.2c0.1-1.1-0.3-6.9-13.2-14L237-357.5c-1.1-0.8-7-4.7-16,0.1c-1.8,0.8-27.2,12.3-41.5,22.6
		c-0.7,0.5-5.6,4-5.4,11.4c0,0.6,0.3,13.7,2.3,20.8c0.3,1.2,1.1,2.1,2.2,2.7c0,0,0,0,0,0l38.2,19.6c0.4,0.2,2.9,1.7,6.1,2
		c0.2,0,0.3,0.3,0.5,0.3c0,0,0,0,0,0c0.1,0,0.1-0.2,0.2-0.2c0.2,0,0.4-0.1,0.6-0.1c2.3,0,4.9-0.6,7.5-2.3l39-22.1
		c0.4-0.1,0.8-0.4,1.2-0.8C273.4-305.1,274-308.4,273.9-313.6z M181.8-331.5c14.2-10.3,40.6-22.2,40.9-22.3c0,0,0.1,0,0.1-0.1
		c7.3-4,11.6-0.6,11.7-0.5c0.1,0.1,0.2,0.2,0.3,0.2l23.9,13.9c4.6,2.6,7.3,4.8,8.9,6.6c-17.3,9.8-43,24.3-44.6,25
		c-0.8,0.4-2-0.6-2.3-0.8c-0.1-0.1-0.3-0.2-0.4-0.3l-38.7-21.5c0,0,0.1,0,0.1,0C181.7-331.4,181.8-331.5,181.8-331.5z M218.6-283.8
		l-38.2-19.6c-0.1,0-0.2-0.1-0.2-0.2c-1.9-6.6-2.1-19.6-2.1-19.8c-0.1-2,0.4-3.6,1-4.8l39.1,21.7c0.7,0.6,1.7,1.3,2.9,1.6l0.2,22.1
		C219.8-283.1,218.8-283.7,218.6-283.8C218.7-283.8,218.7-283.8,218.6-283.8z M268.6-306.5C268.6-306.4,268.7-306.4,268.6-306.5
		l-39.1,22.3c0,0,0,0.1-0.1,0.1c-1.4,0.9-2.8,1.4-4.1,1.6l-0.2-22.8c4.6-2.4,38-21.5,44.2-25c0.1,0.2-0.3,0.4-0.3,0.4c0,0,0,0,0,0
		v16.3C270-308.5,268.9-306.9,268.6-306.5z"/>
	<g>
		<path d="M416.2-272h-60.5c-1.1,0-2-0.8-2-1.9l-1.5-43c-3.9-1.8-14.9-8.1-13.5-22.5c1.6-16.5,19.7-27.3,45-26.8
			c21.5,0.4,46.6,3.8,49.4,25.8c0.9,6.8-0.4,12.2-3.7,16.1c-3.4,4-8.1,5.3-10.8,5.7l-0.5,44.6C418.2-272.8,417.3-272,416.2-272z
			 M357.6-276h56.6l0.5-44.4c0-1.1,0.9-1.9,2-2c0.1,0,6.1-0.2,9.8-4.6c2.6-3,3.5-7.3,2.8-12.9c-1.9-14.8-16-21.7-45.6-22.3
			c-23.2-0.5-39.6,8.8-41,23.2c-1.3,14.2,12,18.8,12.1,18.8c0.8,0.3,1.3,0.9,1.4,1.8L357.6-276z"/>
		<path d="M368.7-312.9c-0.5,0-1-0.2-1.4-0.6c-0.8-0.8-0.8-2,0-2.8l22-22.5c0.8-0.8,2-0.8,2.8,0c0.8,0.8,0.8,2,0,2.8l-22,22.5
			C369.7-313.1,369.2-312.9,368.7-312.9z"/>
		<path d="M365.2-322.4c-0.5,0-1-0.2-1.4-0.6c-0.8-0.8-0.8-2,0-2.8l15-15c0.8-0.8,2-0.8,2.8,0s0.8,2,0,2.8l-15,15
			C366.2-322.6,365.7-322.4,365.2-322.4z"/>
		<path d="M372.2-304.4c-0.5,0-1-0.2-1.4-0.6c-0.8-0.8-0.8-2.1,0-2.8l28.5-28c0.8-0.8,2.1-0.8,2.8,0c0.8,0.8,0.8,2.1,0,2.8l-28.5,28
			C373.2-304.6,372.7-304.4,372.2-304.4z"/>
		<path d="M378.7-297.4c-0.5,0-1-0.2-1.4-0.6c-0.8-0.8-0.8-2,0-2.8l26-26c0.8-0.8,2-0.8,2.8,0s0.8,2,0,2.8l-26,26
			C379.7-297.6,379.2-297.4,378.7-297.4z"/>
		<path d="M389.7-295.9c-0.5,0-1-0.2-1.4-0.6c-0.8-0.8-0.8-2,0-2.8l15-15c0.8-0.8,2-0.8,2.8,0s0.8,2,0,2.8l-15,15
			C390.7-296.1,390.2-295.9,389.7-295.9z"/>
	</g>
	<path class="st0" d="M467.2-13.1c0.6-0.3,1.3-0.4,1.9-0.1c0.6,0.3,1,0.8,1.1,1.5c0.1,0.9,0.6,1.5,1.3,1.9c1.5,0.9,4.2,0.8,7-0.2
		c4-1.4,2.7-8.3,2.7-8.4c-0.2-1,0.4-2,1.4-2.3l38.7-12c-0.5-1.8-0.8-4.4,0.2-6.9c1-2.5,3.2-4.4,6.4-5.4c7.3-2.4,12.5,1.1,14.9,4
		c1.5-0.3,3.6-0.9,5.1-1.8c0.9-0.6,1.5-1.8,1.8-2.8c0.1-0.3,0.1-0.5,0.2-0.7c-1.2-1.8-2.5-3.6-3.9-5.4
		c-12.4-15.3-33.9-31.3-34.2-31.5c-2-1.4-3.3-1.8-3.9-1.6c-0.2,0.1-0.4,0.3-0.4,0.3c-0.1,0.2-0.1,0.3-0.2,0.4l-16.9,26.3
		c2.9,2.2,6.3,6.4,6.4,10.8c0.1,2.6-1,6.2-6.3,8.9c-3.9,2-7.6,2.5-11.1,1.4c-2.7-0.9-4.6-2.6-5.9-4.1c-6,8.2-12,17.2-15.7,23.7
		c-2.3,4-3.8,7-4,8.5c0.5,0.1,1.3,0.1,2.2,0C459-9,463.4-10.9,467.2-13.1z"/>
	<g>
		<path d="M200.9-104.7c3.5,0,7.8-0.3,12.8-0.9c1.7-0.1,20.6-1.2,32.2-14.1c0.3-0.3,0.6-0.6,0.8-1c0.3-0.4,0.6-0.8,0.9-1.2l11.6-2.8
			c5.4,0.7,8.5,0,9.8-2.2c1.7-2.8-0.8-6.4-2.4-8.8l-0.1-0.2c-0.8-1.2-1.9-1.8-3.3-2c-2.7-0.3-5.6,1.8-6.8,2.8
			c-0.5,0-0.9,0.1-1.4,0.1c1.3-4.1,1.3-7.1,1.1-8.8c2-2,6.2-6.8,4.3-10.9c-1.3-2.8-5.7-5.3-9.4-4.3c-2.4,0.6-6.3,3.2-5.5,13
			c0,0.7-0.2,5.7-5.5,10.9c-8.8-0.8-14.4-2.5-14.5-2.6c-0.1,0-0.1,0-0.2-0.1c-4.5-0.9-6.8-1.2-7.9-1.3c-0.1,0-0.1-0.1-0.2-0.1
			c-11.6-9.9-22.8-8.7-23.3-8.6c-0.1,0-0.1,0-0.2,0c-6.8,1.4-9.3,2.4-9.4,2.5c-1,0.4-1.4,1.5-1.1,2.5c1.1,3.3,8.1,10.4,9.5,11.8
			c0,0,0.1,0.1,0.2,0.1c3.6,2.9,7.7,5.2,12.4,7c-6.5,0.7-17.4,3.2-22.5,11.3c-0.4,0.6-0.4,1.3-0.2,1.9
			C183.1-109.4,186-104.7,200.9-104.7z M213.4-109.7c-0.1,0-0.1,0-0.2,0c-0.1,0-0.1,0-0.2,0c0.5-1,0.7-1.9,0.7-2.6
			c0.2-2.9-1.3-5.7-2.7-7.7c2-0.2,3.8-0.5,5.6-0.8c3,0.5,6.2,0.8,9.5,1c1.1,0,2.2,0.1,3.2,0.1c4.8,0,8.9-0.4,11.5-0.8
			C230-110.4,213.6-109.7,213.4-109.7z M249.6-146.1c0,0,0-0.1,0-0.1c-0.4-5,0.5-8.2,2.4-8.7c1.8-0.5,4.1,1,4.6,2.1
			c0.7,1.5-2,5-4.2,6.9c-0.6,0.5-0.8,1.4-0.6,2.1c0,0.1,0.9,3.4-1.3,9.1c-1.9,0-3.6,0-5.3,0C249.6-140.4,249.6-145.6,249.6-146.1z
			 M218.2-134.8c1.2,0.2,3.1,0.5,6.2,1.1c0.8,0.2,4.8,1.4,11.1,2.2c1.9,0.2,3.9,0.5,6.1,0.6c2.2,0.2,4.6,0.2,7.1,0.2
			c1.5,0,3.1,0,4.7-0.1c1.3-0.1,2.6-0.2,4-0.3c0.4,0,0.9-0.2,1.2-0.5c1.1-1,3.2-2.4,4.2-2.3c0.1,0,0.3,0,0.4,0.3l0.1,0.2
			c1.7,2.4,2.5,3.9,2.3,4.4c0,0-0.9,0.9-6.2,0.3c-0.2,0-0.5,0-0.7,0l-7.5,1.8l-6,1.4l-1.8,0.4c-0.1,0-6.3,1.3-14.8,1.2
			c-3.8,0-8-0.3-12.3-1.1c-1.1-0.2-2.1-0.4-3.2-0.7c0.7-0.4,1.4-0.9,2-1.5C217-129,218-131.6,218.2-134.8z M203-137.7
			c0,0.6-0.5,1.1-1.1,1.1s-1.1-0.5-1.1-1.1s0.5-1.1,1.1-1.1S203-138.3,203-137.7z M195.5-133.8c-2.4-2.4-5.7-6-7.4-8.4
			c1.4-0.4,3.4-0.9,6.4-1.5c0.4,0,3.1-0.2,7,0.8c-2.7,0.2-4.9,2.5-4.9,5.2c0,2.9,2.4,5.3,5.3,5.3s5.3-2.4,5.3-5.3c0-1.6-0.7-3-1.9-4
			c2.8,1.1,5.8,2.8,9,5.3c0.1,2.9-0.5,5-1.9,6.4c-2.3,2.3-6.1,2-6.2,2c-0.2,0-0.3,0-0.4,0C202.1-129.4,198.6-131.3,195.5-133.8z
			 M201-114.7c0,0.6-0.5,1.1-1.1,1.1s-1.1-0.5-1.1-1.1s0.5-1.1,1.1-1.1S201-115.3,201-114.7z M195.2-117.1c-0.4,0.7-0.6,1.5-0.6,2.4
			c0,2.9,2.4,5.3,5.3,5.3s5.3-2.4,5.3-5.3c0-1.9-1-3.6-2.6-4.5c1.2-0.2,2.4-0.4,3.4-0.5c1.2,1.2,3.9,4.4,3.7,7
			c-0.1,1.1-0.7,2.1-2,2.9c-0.2,0.2-0.4,0.4-0.6,0.6c-13.1,1-18.2-1.2-19.9-2.4C189.2-114.1,192.1-115.9,195.2-117.1z"/>
		<path d="M266-119.5c-2.9-1.4-5-0.8-6.2,0c-3.1,2-3.7,6.9-3.8,8.9c-1.7,2-5.4,2.8-6.8,3c-6.1,0.6-11.8,6-13.7,8
			c-5.3,0-9,1.5-10.1,2.1c-4.5,0.7-14.2-0.8-17.6-1.4c-0.1,0-0.2,0-0.4,0c-17.4,0-25,6.9-25.7,7.6c-1.9,1.7-1.7,3.3-1.4,4.2
			c0.6,1.9,2.8,4,14.1,5.8c5.8,0.9,11.3,1.3,11.6,1.3c1.7,0.1,3.2,0.1,4.7,0.1c16.2,0,21.5-3.8,23.3-6.1c6.5-0.3,11.2-1.9,13.8-4.6
			c1.5-1.6,1.9-3.2,2-4.1c2.1-3.2,9.8-8.2,14.5-10.7c2-0.7,7.3-2.7,7.5-6.7C272-116.5,267-119.1,266-119.5z M203-90.7
			c0,0.6-0.5,1.1-1.1,1.1s-1.1-0.5-1.1-1.1s0.5-1.1,1.1-1.1S203-91.3,203-90.7z M214.2-88.2c-0.3,1.9-2.9,3.1-5,3.9
			c-0.9,0-1.9,0-2.9-0.1c-9.9-0.7-19.6-2.5-21.7-4.1c0,0,0,0,0.1-0.1c0,0,4-3.8,13.2-5.5c-0.8,0.9-1.3,2.1-1.3,3.4
			c0,2.9,2.4,5.3,5.3,5.3s5.3-2.4,5.3-5.3c0-1.7-0.8-3.2-2.1-4.2c0.8,0,1.5-0.1,2.3-0.1c0.4,0.1,1.6,0.3,3.2,0.5c0,0,0,0,0,0
			C211.9-93.3,214.6-90.4,214.2-88.2z M246-96.6c-0.2,0.3-0.3,0.7-0.2,1.1c0,0-0.1,0.8-1,1.8c-1.1,1.2-4.1,3.2-12,3.4
			c-1,0-1.8,0.5-1.9,1.4c-0.3,0.5-2.7,3.6-13.9,4.5c0.7-0.9,1.2-1.9,1.3-3c0.4-2.3-0.5-4.4-1.6-6.2c3.5,0.3,7.3,0.5,9.8,0
			c0.2,0,0.5-0.1,0.7-0.2c0,0,3.6-2,9.2-1.7c0.6,0,1.3-0.2,1.7-0.7c1.6-1.9,6.8-6.8,11.7-7.3c0.5,0,3.1-0.4,5.7-1.6
			C251.7-102.7,247.5-99.5,246-96.6z M262.8-109.6c-0.1,0-0.2,0.1-0.3,0.1c-0.5,0.2-2.1,1.2-4.2,2.4c0.6-0.5,1.2-1.1,1.6-1.9
			c0.2-0.3,0.3-0.7,0.3-1.1c0-1.7,0.5-5.2,1.9-6.1c0.2-0.1,0.4-0.2,0.7-0.2c0.4,0,0.9,0.1,1.5,0.4c1.6,0.7,3.4,2.3,3.4,3.1
			C267.7-112.7,267.6-111.3,262.8-109.6z"/>
	</g>
	<g>
		<path d="M-125.8-130.2c-0.3,0-0.6-0.1-0.9-0.4c-0.4-0.5-0.4-1.2,0.1-1.7c1.3-1.1,2-2.4,2-3.8c0.1-2.4-1.7-4.5-1.7-4.5
			c-1.9-2.3-2.7-4.8-2.3-7.3c0.7-5,5.6-8.5,5.8-8.7c0.5-0.4,1.3-0.2,1.6,0.3c0.4,0.5,0.2,1.3-0.3,1.6c0,0-4.3,3.1-4.9,7.1
			c-0.3,1.9,0.3,3.7,1.8,5.5c0.1,0.1,2.5,2.7,2.3,6.1c-0.1,2-1.1,3.8-2.8,5.4C-125.3-130.3-125.6-130.2-125.8-130.2z"/>
		<path d="M-119.6-128.6c-0.3,0-0.6-0.1-0.9-0.4c-0.4-0.5-0.4-1.2,0.1-1.7c4.5-4,2.5-7.7,2.5-7.7c-1.6-3.1-1.8-5.8-0.7-8.2
			c2.1-4.3,8.1-5.4,8.3-5.4c0.6-0.1,1.2,0.3,1.4,0.9c0.1,0.6-0.3,1.2-0.9,1.4c-0.1,0-5.1,1-6.6,4.2c-0.8,1.6-0.6,3.7,0.7,6
			c1,1.8,1.7,6.4-3,10.6C-119-128.7-119.3-128.6-119.6-128.6z"/>
		<path d="M-133-130.6c-0.3,0-0.6-0.1-0.8-0.3c-0.5-0.4-0.5-1.2,0-1.7c1.2-1.3,1.8-2.6,1.7-3.9c-0.2-2.2-2.1-4-2.5-4.3
			c-2.3-1.3-3.8-3.1-4.3-5.3c-1.1-4.5,1.9-9.1,2.1-9.3c0.4-0.5,1.1-0.7,1.6-0.3c0.5,0.4,0.7,1.1,0.3,1.6c-0.1,0.1-2.6,4-1.7,7.5
			c0.4,1.6,1.5,2.9,3.3,3.9c0.1,0,0.1,0.1,0.2,0.1c0.1,0.1,3.2,2.5,3.4,6c0.1,2-0.6,3.9-2.3,5.7C-132.4-130.7-132.7-130.6-133-130.6
			z"/>
		<path d="M-118.4-116.9c-4.1-3-10.3-3.5-13.5-2.1c-2.6,1.1-5.1,1.8-12.5,0.9c-2.2-0.3-4.3-0.4-6.3-0.5l-0.3-0.1
			c-0.2-0.1-0.4,0-0.6,0.1c-4.5-0.1-7.9,0.3-8.1,0.3c-0.1,0-0.1,0-0.2,0c-2.8,0.8-4.9,2.2-6.1,4.4c-2.2,3.8-1,8.3-0.9,8.5
			c0.1,0.5,0.6,0.9,1.1,0.9c0.1,0,0.2,0,0.3,0c0.6-0.2,1-0.8,0.8-1.4c0,0-1-3.8,0.7-6.8c0.9-1.6,2.5-2.7,4.6-3.3
			c0.7-0.1,5.1-0.5,10.4-0.2c-1,0.7-1.8,1.3-2.6,1.9l-3.7-1.2c-0.4-0.1-0.9,0.1-1,0.5c-0.1,0.4,0.1,0.8,0.5,1l2.7,0.9
			c-3,2.2-4,3-4,3c-0.3,0.3-0.4,0.8-0.1,1.1c0.2,0.2,0.4,0.3,0.6,0.3c0.2,0,0.4-0.1,0.5-0.2c0,0,1.1-0.9,4.8-3.6l4.2,1.4
			c-2.3,2.1-3.5,3.2-3.5,3.2c-0.3,0.3-0.3,0.8,0,1.1c0.2,0.2,0.4,0.2,0.6,0.2s0.4-0.1,0.6-0.2c0,0,1.3-1.3,4.1-3.8l4.3,1.4
			c-1.5,1.4-2.3,2.2-2.4,2.2c-0.3,0.3-0.3,0.8,0,1.1c0.2,0.2,0.4,0.2,0.6,0.2c0.2,0,0.4-0.1,0.5-0.2c0,0,1.1-1,3-2.8l4.3,1.4
			c-0.5,0.5-0.8,0.8-0.8,0.8c-0.3,0.3-0.3,0.8,0,1.1c0.2,0.1,0.3,0.2,0.5,0.2c0.2,0,0.4-0.1,0.6-0.2c0,0,0.4-0.5,1.3-1.3l4.7,1.5
			c0.1,0,0.2,0,0.2,0c0.3,0,0.6-0.2,0.7-0.5c0.1-0.4-0.1-0.8-0.5-1l-3.9-1.3c0.6-0.6,1.4-1.3,2.3-2.1l5.4,1.8c0.1,0,0.2,0,0.2,0
			c0.3,0,0.6-0.2,0.7-0.5c0.1-0.4-0.1-0.8-0.5-1l-4.6-1.5c0.6-0.6,1.4-1.2,2.1-1.9l5.9,2c0.1,0,0.2,0,0.2,0c0.3,0,0.6-0.2,0.7-0.5
			c0.1-0.4-0.1-0.9-0.5-1l-5.1-1.7c0.6-0.5,1.2-1.1,1.9-1.7c0.2-0.2,0.3-0.4,0.3-0.6c1.1,0.4,2.1,0.9,3.1,1.6
			c2.7,1.9,3.8,4.7,3.5,8.3c-0.1,0.6,0.4,1.2,1.1,1.3c0.6,0.1,1.2-0.4,1.3-1.1C-113.5-112-116.1-115.2-118.4-116.9z M-134.2-115.8
			l0.4,0.1c-0.8,0.7-1.5,1.3-2.2,1.9l-4.1-1.3c0.1-0.1,0.2-0.2,0.4-0.3C-137.3-115.3-135.6-115.4-134.2-115.8z M-145.7-112.4l-4-1.3
			c0.8-0.6,1.7-1.3,2.8-2l3.7,1.2C-144.1-113.7-144.9-113-145.7-112.4z M-139.7-110.4l-4.3-1.4c0.7-0.6,1.6-1.3,2.5-2.1l4.1,1.4
			C-138.2-111.7-139-111-139.7-110.4z M-133.7-108.4l-4.3-1.4c0.7-0.6,1.5-1.3,2.3-2.1l4.2,1.4C-132.3-109.7-133.1-109-133.7-108.4z
			 M-130.1-111.8l-4.1-1.4c0.7-0.6,1.4-1.3,2.2-1.9l4.1,1.4C-128.8-113-129.5-112.4-130.1-111.8z M-126.7-114.9l-4-1.4
			c0.2-0.2,0.4-0.3,0.5-0.5c0.1-0.1,0.2-0.3,0.2-0.4c1.5-0.3,3.5-0.3,5.6,0.2C-125.2-116.2-126-115.5-126.7-114.9z"/>
		<g>
			<path d="M-71.5-118.7c-1.7-1.4-3.8-1.3-4.3-1.3h-30.9c-4.8-6-17.8-11-39.9-9.5c-24.6,1.6-29.3,11.9-30.2,15.8
				c-0.2,0.7-0.2,0.6-0.3,0.9c-2,13.5,4.5,19.2,5.3,19.8c8.6,8.2,21.5,9.8,30.1,9.8c1.1,0,2.1,0,3-0.1c11.2-0.5,22.6-3.8,27.2-7.7
				c6.2-5.3,7.6-12,7.6-18h26.6c0.3,0,0.9,0,1.7,0c1.4,0,3.3-0.1,4.7-1.2c0.7-0.6,1.6-1.8,1.5-3.8
				C-69.6-116.1-70.3-117.6-71.5-118.7z M-146.4-127.1c18.8-1.3,31.4,2.8,36.7,7.5c1.6,1.5,2.6,3,2.8,4.4c-0.3,0.9-0.8,1.8-1.4,2.6
				c-7.1,9.8-30.3,9.7-30.6,9.7c-26.2,0.6-33.9-7.4-35.6-9.7C-174.1-115.1-170.9-125.4-146.4-127.1z M-113.1-92.7
				c-8,6.8-41.8,12.6-57.1-2.1c0,0-0.1-0.1-0.1-0.1c-0.1,0-4.7-3.7-4.8-12.9c0-0.6,0-1.2,0-1.9c0.7,0.7,1.6,1.5,2.7,2.3
				c4.9,3.4,14.7,7.3,33.4,6.8c1,0,19.8,0.2,29.5-7.5c0.7-0.6,1.4-1.2,2-1.9c0.3-0.4,0.7-0.8,1-1.2c0,0.4,0,0.9,0.1,1.4
				c0,0.3,0,0.6,0,1C-106.4-104-107.7-97.4-113.1-92.7z M-72.5-111.8c-1.2,1-3.7,0.9-4.6,0.8c-0.1,0-0.1,0-0.2,0h-26.8
				c-0.1-3-0.5-3.8-0.6-4c-0.1-0.7-0.3-2-0.6-2h29.5c0.1,0,0.1-0.2,0.2-0.2c0,0,1.5-0.3,2.6,0.6c0.7,0.6,1.1,1.5,1.1,2.9
				C-71.8-112.9-72-112.3-72.5-111.8z"/>
		</g>
	</g>
	<path d="M381.8-97.9c-0.4-0.1-0.9-0.1-1.3,0c-0.3,0.1-3.1,1.1-3.9,3.7c-0.5,1.7,0.1,3.6,1.7,5.4c0.1,0.2,0.3,0.3,0.5,0.4
		c0.8,0.5,2.1,0.9,3.5,0.9c1.6,0,3.4-0.6,4.8-2.4c0.8-1.1,1.1-2.3,0.7-3.5C387-96,383-97.5,381.8-97.9z M381.1-91.6
		c-0.5-0.7-0.7-1.2-0.6-1.5c0.1-0.3,0.4-0.6,0.7-0.8c1.2,0.5,2.3,1.2,2.6,1.6C383-91,381.7-91.3,381.1-91.6z"/>
	<path d="M406.2-108.3c-5.6,1.2-8.4,8.3-8.6,8.6c0,0.1,0,0.1-0.1,0.2c-0.9,3.5-0.5,6.2,1.3,8.1c1.8,1.9,4.6,2.4,6.7,2.4
		c1.5,0,2.7-0.2,3-0.3c0.1,0,0.3-0.1,0.4-0.1c0.8-0.4,8.1-3.9,9-9c0.3-1.5,0.1-3.7-2.1-5.9C412.7-107.7,409.4-109,406.2-108.3z
		 M414.1-99.2c-0.4,2.2-4.2,4.8-6.6,5.9c-1.5,0.3-4.6,0.3-5.8-1c-0.9-1-0.7-2.8-0.3-4.2c0.3-0.7,2.4-5.3,5.6-6
		c1.8-0.4,3.8,0.6,6.1,2.8C414.2-100.5,414.2-99.7,414.1-99.2z"/>
	<path d="M438.2-101.8l-0.3-29.6c0-0.1,0-0.2,0-0.3c0-0.1,0-0.1,0-0.2c0-0.2-0.1-0.3-0.2-0.5c0,0,0-0.1,0-0.1c0,0,0,0,0,0
		c0,0,0,0,0,0c-11.1-17.4-38.3-37.7-39.5-38.5c-2.9-2.1-5.4-2.8-7.5-2.2c-1.7,0.6-2.5,1.9-2.8,2.5l-17.9,27.9
		c-0.3,0.5-0.4,1.1-0.2,1.6c0.2,0.6,0.6,1,1.1,1.3c1.7,0.8,5.9,4.7,6,8.4c0.1,2.1-1.3,3.8-4.1,5.3c-2.9,1.5-5.6,1.9-7.9,1.1
		c-3.5-1.1-5.3-4.6-5.4-4.6c-0.3-0.6-0.9-1-1.6-1.1c-0.7-0.1-1.4,0.2-1.8,0.8c-0.1,0.1-5.8,7.8-11.3,16.2
		c-11.5,17.4-11,20.4-10.8,21.7c0.1,0.7,0.4,1.1,0.7,1.5l9.5,20.4c0,0.1,0.1,0.2,0.2,0.3c0.1,0.2,2.8,3.9,7.1,3.9c0.2,0,0.5,0,0.7,0
		c0.1,0,0.3,0,0.4-0.1l82-26c0.1,0,0.2-0.1,0.4-0.2C435.2-92.5,438.9-94.7,438.2-101.8z M337.8-93.1c0.2-1.4,1.7-4.5,4-8.5
		c3.8-6.5,9.8-15.4,15.7-23.7c1.3,1.5,3.2,3.2,5.9,4.1c3.4,1.1,7.1,0.6,11.1-1.4c5.3-2.7,6.3-6.4,6.3-8.9c-0.1-4.4-3.5-8.6-6.4-10.8
		l16.9-26.3c0.1-0.1,0.2-0.3,0.2-0.4c0,0,0.1-0.2,0.4-0.3c0.6-0.2,1.9,0.1,3.9,1.6c0.2,0.2,21.8,16.2,34.2,31.5
		c1.5,1.8,2.8,3.6,3.9,5.4c0,0.2-0.1,0.5-0.2,0.7c-0.3,1-0.8,2.2-1.8,2.8c-1.4,0.9-3.6,1.5-5.1,1.8c-2.4-2.9-7.5-6.5-14.9-4
		c-3.2,1.1-5.3,2.9-6.4,5.4c-1,2.5-0.7,5.1-0.2,6.9l-38.7,12c-1,0.3-1.6,1.3-1.4,2.3c0,0.1,1.3,7-2.7,8.4c-2.9,1-5.5,1.1-7,0.2
		c-0.7-0.4-1.2-1.1-1.3-1.9c-0.1-0.6-0.5-1.2-1.1-1.5c-0.6-0.3-1.3-0.2-1.9,0.1c-3.7,2.2-8.2,4.1-11.2,4.6
		C339.1-93,338.3-93,337.8-93.1z M433-95.8L351.5-70c-2,0.1-3.5-1.6-3.9-2.1l-8-17.1c3.9-0.3,8.6-2.4,11.6-4
		c0.6,0.9,1.3,1.6,2.3,2.2c2.6,1.5,6.4,1.6,10.4,0.2c5.4-1.9,5.7-8.1,5.5-11.1l39.1-12.2c0.6-0.2,1-0.6,1.2-1.1
		c0.2-0.5,0.2-1.2-0.1-1.7c0,0-1.5-3.2-0.5-5.7c0.6-1.4,1.9-2.5,4-3.2c7.3-2.4,10.8,3.2,11,3.5c0.4,0.7,1.2,1.1,2,1
		c0.2,0,4.8-0.8,7.8-2.6c0,0,0,0,0,0l0.3,22.3c0,0.1,0,0.1,0,0.2C434.6-97.6,433.3-96.1,433-95.8z"/>
	<path d="M397.4-138.7c0.2,0,0.3,0.1,0.5,0.1c0.1,0,0.2,0,0.3,0c3.5-0.6,5.9-2.1,7-4.4c1.3-2.8,0.4-6.1-0.9-8.2
		c-1.1-1.8-4.1-4.6-7.8-4.7c0,0-0.1,0-0.1,0c-1.8,0-4.4,0.7-6.5,4c-2.1,3.1-1.8,5.6-1.1,7.2C390.5-140.5,396.7-138.9,397.4-138.7z
		 M393.2-149.9c0.9-1.5,2-2.1,3.2-2.1c0,0,0,0,0.1,0c1.8,0,3.7,1.6,4.4,2.7c0.6,1,1.4,3,0.7,4.5c-0.6,1.2-2.2,1.8-3.6,2.1
		c-1.5-0.4-4.7-1.7-5.5-3.7C392.3-146.7,391.8-147.8,393.2-149.9z"/>
	<g>
		<path d="M-666.1-123.7c0.1,0,0.2,0.1,0.3,0.1c0.4,0,0.7-0.2,0.8-0.6c0-0.1,3.8-10.8,5.9-13.7c0.2-0.3,0.2-0.6,0.1-0.9
			c-0.1-0.1-0.1-0.2-0.3-0.3c-0.4-0.3-0.9-0.2-1.2,0.2c-0.1,0.1-0.2,0.3-0.3,0.4c-2.3,3.6-5.7,13.3-5.9,13.7
			C-666.8-124.3-666.6-123.8-666.1-123.7z"/>
		<path d="M-660.7-123.7c0.1,0,0.2,0,0.2,0c0.4,0,0.7-0.2,0.8-0.6c0-0.1,2-6.7,4-9.6c0.3-0.4,0.2-0.9-0.2-1.2
			c-0.4-0.3-0.9-0.2-1.2,0.2c-2.3,3.2-4.2,9.8-4.3,10.1C-661.5-124.3-661.2-123.8-660.7-123.7z"/>
		<path d="M-596.3-131.6c-2.5-2.5-5.7-3.3-7.8-3.5c-0.7-1.3-1.8-2.7-3.2-4.1c-9.1-9-26.8-10.5-40.1-10.1c-3.1,0.1-6,0.3-8.7,0.6
			l-20.6-11.2c0,0,0,0,0,0c-0.1,0-0.2-0.1-0.2-0.1c0,0-0.1,0-0.1,0c-0.1,0-0.1,0-0.2,0c0,0-0.1,0-0.1,0c0,0-0.1,0-0.1,0l-6.1,0.9
			c-0.7,0.1-1.1,0.7-1.1,1.3l0.5,20.1c-0.8,0.8-1.4,1.7-2,2.5c-1.2,0-6.1,0.2-9.6,3.8c-2.7,2.8-3.9,6.9-3.5,12.1
			c0.3,4.2,1.8,7.4,4.5,9.5c1.7,1.4,3.7,2,5.4,2.4l-0.1-2.7c-1.2-0.3-2.5-0.8-3.7-1.7c-2-1.6-3.2-4.2-3.5-7.6
			c-0.4-4.4,0.6-7.8,2.7-10c2-2,4.6-2.7,6.2-2.9c-0.5,1.2-0.8,2.3-1,3.1c-0.1,0.6-0.1,1-0.2,1.2c-0.3,0-0.7,0.1-1,0.1
			c-0.7,0.1-1.3,0.4-1.9,0.9c-1.5,1.1-2.2,3.1-2.2,5.8c0.1,2.6,0.9,4.6,2.5,5.9c0.6,0.5,1,0.9,2,1.1l0-0.1l0-0.4l0,0l0,4.4l0,2.8
			l0.2,11.2c0,0.3-0.1,6.6,7.2,9.9c9.8,4.4,17.3,6.4,39.1,6.8c1.6,0,3.1,0.1,4.5,0.1c16.9,0,24-2.2,29.2-5.5
			c1.8-1.1,7.2-4.5,7.2-14.2l0-8.1c1.7-0.3,3.6-1.1,5.3-2.5c2.6-2.2,4-5.4,4.2-9.6C-592.2-124.9-593.5-128.9-596.3-131.6z
			 M-690-117.7c-0.9-0.8-1.5-2.1-1.5-3.9c0-0.7,0-1.5,0.2-2.2c-0.2,0.7-0.3,1.5-0.2,2.2C-691.4-119.8-691-118.5-690-117.7
			C-690-117.7-690-117.7-690-117.7L-690-117.7C-690-117.7-690-117.7-690-117.7c-1-0.8-1.5-2.1-1.5-3.9c0-0.7,0-1.5,0.2-2.2
			c0.2-0.6,0.4-1.1,0.9-1.5c0.1-0.1,0.3-0.3,0.4-0.3v0c-0.1,0-0.3,0.2-0.4,0.3c-0.4,0.3-0.7,0.9-0.9,1.5c0.2-0.6,0.4-1.1,0.9-1.4
			c0.1-0.1,0.3-0.2,0.4-0.2L-690-117.7C-689.9-117.7-689.9-117.7-690-117.7z M-690-125.5l0.2,7.9c0,0,0,0-0.1,0L-690-125.5z
			 M-689.9-117.6L-689.9-117.6c0.1,0,0.1,0,0.1,0.1l0,0c0,0,0,0.1,0.1,0.1C-689.7-117.5-689.8-117.5-689.9-117.6z M-689.7-117.5
			C-689.7-117.4-689.6-117.4-689.7-117.5L-689.7-117.5C-689.6-117.4-689.7-117.4-689.7-117.5z M-610.5-115.2c-0.7-2-2-3.3-3.7-4.1
			l3.7-10.5c0.1,0.1,0.2,0.3,0.4,0.4c3.5,4.2,3.4,8.6,3,10.8c-0.4,0.7-0.8,1.3-1.4,2c-0.6,0.7-1.3,1.4-2,2
			C-610.4-114.8-610.4-115-610.5-115.2z M-645.9-106.2c-0.5-0.9-1.5-3-0.8-4.9c0.5-1.3,1.9-2.3,4.2-2.9c0.7-0.2,1.1-0.9,0.9-1.6
			c-0.2-0.7-0.9-1.1-1.6-0.9c-3.2,0.8-5.2,2.4-6,4.6c-0.8,2.1-0.3,4.2,0.3,5.7c-2.5-0.1-4.8-0.3-7-0.5c0.1-1.4-0.1-3.1-0.9-4.8
			c0.3-0.2,0.5-0.4,0.5-0.7c0.1-0.3,2-7.1,9.4-5.8c0.6,0.1,1.3-0.3,1.5-0.9c0.1-0.4,1.3-3.6,5.5-2.4c0.7,0.2,1.4-0.2,1.6-0.9
			c0.2-0.7-0.2-1.4-0.9-1.6c-4.6-1.3-7.2,1.1-8.3,3.1c-2.5-0.3-4.5,0.3-6.1,1.2c2.4-1.6,4-3.6,4.9-6.1c2.3-6.3-1-13.1-1.2-13.3
			c0,0,0-0.1-0.1-0.1c0-0.1-0.1-0.2-0.2-0.3c1.3-0.1,2.5-0.1,3.8-0.1c0.2,0,0.3,0,0.5,0c-1.1,3.6-0.4,7.7,0.5,10.4
			c-1.3,0.6-2.1,1.3-2.1,1.4c-0.6,0.5-0.6,1.3-0.1,1.9c0.5,0.6,1.3,0.6,1.9,0.1c0,0,2.2-1.9,4.5-1.6c1.2,0.1,2.1,0.8,3,1.9
			c0.2,0.3,0.5,0.5,0.9,0.5c0.1,0,0.1,0,0.2,0c0.3,0,0.6-0.1,0.8-0.3c0,0,1.9-1.5,4.6-0.5l-1.8,3.5c-2.5-0.1-4.9,1.1-5.2,1.2
			c-0.6,0.3-0.9,1.1-0.6,1.8c0.3,0.6,1.1,0.9,1.8,0.6c0.5-0.2,1.5-0.6,2.6-0.8c0.9-0.2,1.8-0.2,2.6,0.2c0.1,0,0.1,0.1,0.2,0.1
			c0.6,0.3,0.9,0.9,1.2,1.8c0.1,0.4,0.5,0.8,0.9,0.9c0.4,0.1,0.9,0,1.3-0.3c0.5-0.5,2.3-1.7,3.7-1.4c0.7,0.1,1.3,0.7,1.9,1.6
			c0.3,0.6,1.1,0.9,1.7,0.6c0,0,1.7-0.8,3.5-0.9c0.9-0.1,1.8,0,2.7,0.3c0,0,0,0,0.1,0c1,0.4,1.7,1.2,2.2,2.5
			c0.2,0.5,0.7,0.8,1.2,0.9c-6.4,4.8-16.8,7.3-30.6,7.3C-643.6-106.2-644.8-106.2-645.9-106.2z M-661.9-116.7
			c1.7-0.2,3.6-0.6,5.7-1.5c0.7-0.3,1.3-0.7,2-1c-2.1,1.4-3.4,3.4-4.1,5.1C-659.2-115.2-660.4-116.1-661.9-116.7z M-658.5-107.1
			c-8-1-13.6-2.9-17.7-4.9c1.1-1.4,4.3-4.3,10.7-3C-659-113.9-658.4-109-658.5-107.1z M-612.4-132.1l-0.1,0.3l-0.4,1
			c-3.6,1-6.4,0.9-8.2-0.4c-2.2-1.6-2.2-4.5-2.2-4.6c0-0.1,0-0.1,0-0.2c0.2-0.3,0.5-0.6,0.7-0.9c0.6-0.7,1.4-1.4,2.3-2
			c1.4-0.8,2.9-1.1,4.6-0.2c0,0,0.1,0,0.1,0.1c0.1,0.1,2.9,1.1,3.3,4.2C-612.1-134.1-612.1-133.2-612.4-132.1z M-622.6-129.1
			c1.5,1.1,3.3,1.6,5.5,1.6c1,0,2.1-0.1,3.2-0.4l-2.9,8c-1.8-0.1-3.6,0.4-4.7,0.8c-1-1.3-2.2-1.8-3.1-2c-1.7-0.3-3.4,0.4-4.5,1
			c-0.5-0.9-1.2-1.4-1.8-1.8l5.5-10.9C-624.8-131.5-624-130.1-622.6-129.1z M-625.3-137.7c-1,1.3-1.6,2.4-1.6,2.5l-3.5,7
			c-2.8-1.2-5-0.5-6.3,0.1c-1.2-1.2-2.5-1.9-4.1-2.1c-0.6-0.1-1.3,0-1.8,0.1c-0.5-1.4-1.8-6-0.3-9.6c0.4-0.9,1-1.8,1.9-2.6
			c0.5-0.4,1-0.7,1.6-1c6.6-3.2,12-0.5,15.1,3.2c0.2,0.2,0.4,0.5,0.5,0.7C-624.3-138.9-624.9-138.3-625.3-137.7z M-638.1-146.7
			c-0.8,0.3-1.6,0.6-2.5,1c-0.3,0.1-0.5,0.3-0.8,0.5c-0.5-0.4-1.4-1-2.5-1.5C-641.8-146.8-639.9-146.8-638.1-146.7z M-643.5-143.6
			c-0.4,0.4-0.7,0.8-1,1.2c-0.6,0-1.2,0-1.7,0c-1.9,0-3.7,0.1-5.5,0.2c-0.3-0.4-0.5-0.7-0.7-0.9c1.2-1.3,2.5-2,3.9-2.1
			C-646.4-145.3-644.6-144.3-643.5-143.6z M-655.8-146.2c1.1-0.1,2.2-0.2,3.4-0.3c-0.7,0.4-1.4,1-2,1.7c-0.6-0.4-1.2-0.8-1.9-1.1
			L-655.8-146.2z M-654.9-142c0.2,0.2,0.3,0.3,0.5,0.5c0.3,0.3,0.9,1.2,1.4,2c0.3,0.5,0.7,1.1,0.9,1.5c0.3,0.6,2.8,6.2,1,11.2
			c-1,2.7-3,4.7-6.2,6.1c-9.6,4.3-15.1-2.8-15.3-3.1c-2.6-3.8-3.2-7-3.1-9.3c0-0.1,0-0.2,0-0.4l10-6.4c-0.5,0.9-1,1.9-1.6,2.9
			c-1.8,3.6-3.5,7.8-3.6,8c-0.2,0.4,0,1,0.5,1.1c0.1,0,0.2,0.1,0.3,0.1c0.3,0,0.7-0.2,0.8-0.5c0-0.1,2.3-5.6,4.3-9.4
			c0.5-1,1.1-1.9,1.5-2.5c0.1-0.2,0.2-0.4,0.1-0.6c0-0.2-0.1-0.4-0.3-0.5l4.7-3C-657.3-143.7-655.9-142.9-654.9-142z M-676.3-140.1
			l0-0.6l0-3l0.1-6.1l0.1-6.9l15.5,8.4l1.7,0.9l-0.4,0.2l-2.8,1.8l-0.4,0.2l-12.3,7.9l-1.6,1L-676.3-140.1z M-674.7-122.2
			c0,0,2,2.6,5.5,4.2c-5.4,0.3-8.2,3.2-9.3,4.6c-2.3-1.4-3.9-2.9-5-4.4c-0.3-0.4-0.6-0.9-0.9-1.3c0.1-0.2,0.1-0.3,0.1-0.5
			c0-0.1-0.2-5.1,4.5-10.1c0.5-0.5,1-1,1.5-1.5C-678-128.6-677.1-125.6-674.7-122.2z M-678.7-157.4l-0.2,15.1l0,3.2l-0.1,4.2
			l-2.7,0.6l-0.1-2.6l-0.1-3.5l-0.4-16.6L-678.7-157.4z M-686.5-127.2c0-0.3,0.1-0.5,0.1-0.5c0-0.1,0-0.2,0-0.3c0-0.1,0-0.7,0.3-1.6
			c0.2-0.7,0.5-1.7,1.1-2.8c0.2-0.4,0.5-0.9,0.8-1.3l0,1.2c0,0.4,0.2,0.8,0.5,1c0.2,0.2,0.5,0.3,0.8,0.3c0.1,0,0.2,0,0.3,0l0.9-0.2
			c0,0,0,0,0,0c-2.6,2.8-3.9,5.6-4.6,7.8c-0.2-0.8-0.2-1.4-0.2-2C-686.6-126.3-686.5-126.9-686.5-127.2z M-610.7-87.5
			c-5.3,3.3-12.7,5.5-32.3,5c-21.3-0.4-28.7-2.3-38.1-6.6c-5.7-2.6-5.7-7.3-5.7-7.5l-0.2-10.9l-0.1-2.6l0-1.7l0,0.1l0,1.6
			c0.1,0,0.2,0,0.2,0l-0.3-1.7l-0.1-4.3c0,0,0,0,0,0l0-2.2c0,0,0,0,0,0l0,1.7l0.2,0l0-0.3c0,0,0.6,0,0.6,0c0.1,0,0.2,0,0.3,0
			c0,0,0,0,0.1,0.1c0.1,0.2,0.3,0.3,0.4,0.5c0.2,0.3,0.4,0.5,0.7,0.7c6.9,7.9,21.2,11.9,42.5,11.9c17.3,0,29.2-3.7,35.6-11
			c0.2-0.2,0.3-0.4,0.5-0.5c0.4-0.5,0.8-1,1.1-1.6c0,0-0.1,0-0.1,0c0.2-0.3,0.4-0.5,0.4-0.8v0.2v0.2c-0.1,0.1-0.1,0.2-0.2,0.3
			c0,0,0,0,0,0c0,0,0,0,0,0c0,0,0.1,0,0.2,0v6.4v0.3v2.6l0.1,7.8C-604.9-92.2-608.2-89.2-610.7-87.5z M-605-128.8c0,0.1,0,1.2,0,2.9
			v0.4c0,0,0.1,0,0.1,0c0,0.2,0,0.4,0,0.7c-0.5-2-1.5-4.1-3.2-6.2c-0.5-0.6-1-1.1-1.5-1.7c0.5-3.1-0.6-5.4-2.1-6.8
			c-1.2-0.9-2.7-1.7-4.4-2.5c-1.2-0.3-2.5-0.3-3.7,0.1c-0.7,0.2-1.3,0.5-1.9,0.9c-1.3-1.7-2.8-3.2-4.7-4.3c4.2,0.8,7.6,2,10.3,3.2
			c0,0,0,0,0,0c1.7,0.8,3.2,1.7,4.4,2.5l0,0c0.9,0.7,1.8,1.4,2.4,2c0.9,0.8,1.5,1.7,2.1,2.5c1.5,2.2,2,4,2.2,5.1
			c0.1,0.5,0.1,0.8,0.1,0.9C-604.8-129-605-128.9-605-128.8z M-595.1-119.8c-0.2,3.5-1.3,6.1-3.3,7.7c-1.1,1-2.5,1.5-3.7,1.8l0-4.2
			c0.6-0.2,1.3-0.6,1.9-1.1c1.5-1.3,2.3-3.4,2.3-6c0-2.7-0.7-4.6-2.3-5.7c-0.6-0.4-1.8-0.7-1.8-0.8v0.3c0-0.1,0-0.2,0-0.3
			c0-0.1,0-0.1,0-0.2v-0.8c0-0.2-0.1-0.3-0.2-0.5c0,0,0,0,0,0c0-0.5-0.2-1.5-0.6-2.7c1.5,0.4,3.2,1.1,4.7,2.5
			C-595.9-127.6-594.9-124.2-595.1-119.8z M-601.7-125.2c0.8,0.6,1.2,1.8,1.2,3.6c0,1.8-0.4,3.2-1.4,4c-0.1,0.1-0.2,0.1-0.2,0.1
			v-7.9c0,0,0,0,0,0c0-0.2,0-0.4,0-0.5v0.6C-602-125.3-601.8-125.2-601.7-125.2z"/>
	</g>
	<g>
		<circle cx="-127" cy="55" r="4"/>
		<circle cx="-145" cy="55" r="4"/>
		<circle cx="-109" cy="55" r="4"/>
	</g>
	<g>
		<g>
			<path d="M-271.7-121.4c-2.7,0-4.8-2.2-4.8-4.8s2.2-4.8,4.8-4.8c2.7,0,4.8,2.2,4.8,4.8S-269-121.4-271.7-121.4z M-271.7-129.3
				c-1.7,0-3.1,1.4-3.1,3.1c0,1.7,1.4,3.1,3.1,3.1c1.7,0,3.1-1.4,3.1-3.1C-268.6-127.9-270-129.3-271.7-129.3z"/>
		</g>
		<g>
			<path d="M-311.1-131.9c-2.7,0-4.8-2.2-4.8-4.8c0-2.7,2.2-4.8,4.8-4.8s4.8,2.2,4.8,4.8C-306.3-134.1-308.4-131.9-311.1-131.9z
				 M-311.1-139.8c-1.7,0-3.1,1.4-3.1,3.1c0,1.7,1.4,3.1,3.1,3.1s3.1-1.4,3.1-3.1C-308-138.4-309.4-139.8-311.1-139.8z"/>
		</g>
		<g>
			<path d="M-315.6-110c-2.1,0-3.8-1.7-3.8-3.8c0-2.1,1.7-3.8,3.8-3.8c2.1,0,3.8,1.7,3.8,3.8C-311.8-111.7-313.5-110-315.6-110z
				 M-315.6-115.9c-1.1,0-2,0.9-2,2c0,1.1,0.9,2,2,2c1.1,0,2-0.9,2-2C-313.6-114.9-314.5-115.9-315.6-115.9z"/>
		</g>
		<g>
			<path d="M-337.1-122.3c-1.9,0-3.4-1.5-3.4-3.4c0-1.9,1.5-3.4,3.4-3.4c1.9,0,3.4,1.5,3.4,3.4
				C-333.7-123.8-335.2-122.3-337.1-122.3z M-337.1-127.3c-0.9,0-1.6,0.7-1.6,1.6c0,0.9,0.7,1.6,1.6,1.6c0.9,0,1.6-0.7,1.6-1.6
				C-335.5-126.5-336.2-127.3-337.1-127.3z"/>
		</g>
		<g>
			<path d="M-274.4-131.9c-2.1,0-3.8-1.7-3.8-3.8s1.7-3.8,3.8-3.8c2.1,0,3.8,1.7,3.8,3.8S-272.3-131.9-274.4-131.9z M-274.4-137.8
				c-1.1,0-2,0.9-2,2c0,1.1,0.9,2,2,2c1.1,0,2-0.9,2-2C-272.4-136.9-273.3-137.8-274.4-137.8z"/>
		</g>
		<g>
			<path d="M-323.5-120c-3.1,0-5.6-2.5-5.6-5.6c0-3.1,2.5-5.6,5.6-5.6s5.6,2.5,5.6,5.6C-318-122.4-320.4-120-323.5-120z
				 M-323.5-129.3c-2.1,0-3.8,1.7-3.8,3.8c0,2.1,1.7,3.8,3.8,3.8c2.1,0,3.8-1.7,3.8-3.8C-319.7-127.6-321.4-129.3-323.5-129.3z"/>
		</g>
		<path d="M-254.3-133.3c-2.5-2.5-5.7-3.3-7.8-3.5c-0.7-1.3-1.8-2.7-3.2-4.1c-3.6-3.6-8.6-5.9-14.1-7.5c1.6-4.9-0.1-9.4-0.1-9.5
			c-0.1-0.3-0.5-0.6-0.8-0.6c-4.8,0-7.4,3.7-8.6,6c-4.2-6.4-9.1-4.5-9.3-4.4c-0.3,0.1-0.5,0.3-0.5,0.6c-0.5,2-0.5,3.7-0.2,5.3
			c-2.3-0.1-4.5-0.1-6.6,0c-24.9,0.7-34.9,8.1-38.9,14c-1.2,0-6.1,0.2-9.6,3.8c-2.7,2.8-3.9,6.9-3.5,12.1c0.3,4.2,1.8,7.4,4.5,9.5
			c1.7,1.4,3.7,2,5.4,2.4l-0.1-2.7c-1.2-0.3-2.5-0.8-3.7-1.7c-2-1.6-3.2-4.2-3.5-7.6c-0.4-4.4,0.6-7.8,2.7-10c2-2,4.6-2.7,6.2-2.9
			c-0.5,1.2-0.8,2.3-1,3.1c-0.1,0.6-0.1,1-0.2,1.2c-0.3,0-0.7,0.1-1,0.1c-0.7,0.1-1.3,0.4-1.9,0.9c-1.5,1.1-2.2,3.1-2.2,5.8
			c0.1,2.6,0.9,4.6,2.4,5.9c0.6,0.5,1.3,0.9,2,1.1l0-0.1l0,0.1l0,0l0.1,4.2l0.1,2.7l0.2,11.1c0,0.3,0,6.6,7.2,9.9
			c9.7,4.4,17.3,6.4,39.1,6.8c1.6,0,3.1,0,4.5,0c16.9,0,24-2.2,29.3-5.5c1.8-1.1,7.2-4.5,7.2-14.2v-8.1c1-0.3,3.6-1.1,5.3-2.5
			c2.6-2.2,4-5.4,4.2-9.6C-250.3-126.6-251.6-130.6-254.3-133.3z M-347.8-119.3C-347.8-119.3-347.9-119.3-347.8-119.3
			c-1-0.8-1.6-2.2-1.7-4c0-1.2,0.1-2.9,1.1-3.7c0.1-0.1,0.3-0.1,0.4-0.1L-347.8-119.3L-347.8-119.3z M-273.8-143.6
			c-1.3-0.4-2.5-0.3-3.4-0.1c-1.5-0.9-2.6-1.6-3.5-2c0.1-0.1,0.2-0.2,0.2-0.4C-277.9-145.3-275.7-144.5-273.8-143.6z M-267.9-139.7
			c-0.8-0.4-1.5-0.7-1.9-0.8c-0.4-0.7-0.9-1.2-1.4-1.6C-269.8-141.4-268.8-140.6-267.9-139.7z M-280.6-132.1
			c0.2,0.2,0.7,0.7,0.7,1.3c0,0.3-0.1,0.6-0.5,0.9c-0.2,0.2-0.3,0.5-0.3,0.7c0,0,0.3,2.5,0,4.5l-0.2,1.2c-1.4-1.6-3.4-2.6-5.7-2.6
			c-2.9,0-5.4,1.6-6.7,4c-0.1,0.1-0.1,0.3-0.2,0.4c-0.1-0.2-0.1-0.4-0.2-0.6c-0.7-1.7-2.2-2.9-4-3.2c0-0.4,0-0.8-0.1-1.1
			c0.2-0.1,0.5-0.1,0.8-0.1c0.3,0,0.6-0.2,0.8-0.6s0-0.7-0.2-0.9c-0.1-0.1-0.2-0.3-0.2-0.3c0,0,0.2-0.3,1.5-0.5
			c0.3,0,0.5-0.2,0.7-0.5c0.1-0.3,0.1-0.6-0.1-0.8c-0.2-0.3-0.5-1-0.3-1.4c0.1-0.3,0.6-0.5,0.9-0.5c0.3-0.1,0.5-0.3,0.7-0.6
			c0.1-0.3,0-0.6-0.1-0.9c-0.3-0.4-0.9-1.4-0.7-2c0.1-0.4,0.7-0.6,1.1-0.7c0.3-0.1,0.6-0.4,0.6-0.7c0.1-0.3-0.1-0.7-0.4-0.9
			c0,0-0.1-0.1-0.1-0.3c0-0.3,0.2-1.2,2.5-2.8l5.1-0.5c1.2,0.5,3.8,1.9,3.6,3.7c0,0.2,0,0.4,0.1,0.5c0,0,1.2,2.3,0.5,4.2
			C-280.9-132.8-280.8-132.4-280.6-132.1z M-280.6-118.5c0,3.2-2.6,5.8-5.8,5.8c-3.2,0-5.8-2.6-5.8-5.8c0-0.4,0-0.8,0.1-1.2
			c0.1-0.6,0.3-1.1,0.6-1.6c1-1.8,2.9-3,5.1-3c2.3,0,4.3,1.4,5.3,3.3c0.3,0.5,0.4,1.1,0.5,1.7C-280.6-119-280.6-118.8-280.6-118.5z
			 M-301.8-121.1c0.3-1.1,1.1-2,2.1-2.4c0.1-0.1,0.3-0.1,0.4-0.1c0.3-0.1,0.5-0.1,0.8-0.1c0.2,0,0.4,0,0.7,0.1
			c1.4,0.3,2.5,1.4,2.8,2.7c0,0.2,0.1,0.5,0.1,0.7c0,1.9-1.6,3.5-3.5,3.5c-1.6,0-2.9-1.1-3.3-2.5c-0.1-0.3-0.2-0.7-0.2-1
			C-301.9-120.6-301.8-120.9-301.8-121.1z M-303.6-120.6c-0.2,0-0.5,0-0.7,0c-2.7-0.1-4.7-2.4-4.6-5.1c0.1-2.7,2.4-4.7,5.1-4.6
			c1.9,0.1,3.5,1.3,4.2,3c0.2,0.6,0.4,1.2,0.4,1.8c-0.2,0-0.4,0.1-0.7,0.1C-302-124.6-303.5-122.8-303.6-120.6z M-339.6-138.6
			c4.5-4.2,14-9.3,34.2-9.9c2.6-0.1,5-0.1,7.2,0c0.1,0.2,0.2,0.4,0.3,0.7c-2.9,0.7-5.1,2-6,2.6c-5.7-2-8.3-0.7-9.2,0
			c-6.4-1-10,2.3-11.1,3.7c-2.9-0.9-5.5-0.8-7.7,0.3c-2.7,1.5-4,4.2-4.5,5.5c-2.4-0.5-4.4-0.4-5.9,0.3
			C-341.6-136.3-340.7-137.4-339.6-138.6z M-263-118.6c-0.1,0.1-0.2,0.3-0.2,0.4c0,0,0.1,0,0.2,0v6.4v0.3v2.6v7.8
			c0,7.4-3.3,10.4-5.8,12c-5.3,3.3-12.7,5.5-32.2,5.1c-21.3-0.4-28.6-2.3-38-6.6c-5.7-2.6-5.7-7.3-5.7-7.5l-0.2-10.9l-0.1-2.6l0-1.7
			l0,0.2l-0.1-4.8c0,0,0,0,0,0l0-2c0.3,0.6,0.7,1.1,1.2,1.7c0.1,0.2,0.3,0.3,0.4,0.5c0.2,0.3,0.4,0.5,0.7,0.7
			c6.9,7.9,21.2,11.9,42.5,11.9c17.3,0,29.2-3.7,35.6-11c0.2-0.2,0.3-0.4,0.5-0.5c0.4-0.5,0.7-1,1-1.6c0.2-0.3,0.4-0.5,0.4-0.8
			V-118.6z M-263-127.6v0.4c0,0,0.1,0,0.1,0c-0.2,2.4-1,5.7-3.6,8.9c-5.6,6.9-17.3,10.5-33.9,10.5c-26.3,0-36.8-6.3-41.1-11.6
			c-2.4-3-3-6-3.1-7.9c0-0.1,0-0.2,0-0.4c0,0,0-0.2,0-0.5c0-0.3,0-0.5,0.1-0.7c0-0.3,0.1-0.5,0.1-0.5c0-0.1,0-0.2,0-0.3
			c0,0,0-0.4,0.1-0.8c0.2-0.9,0.7-1.8,1.4-2.4c1.4-1.3,3.7-1.5,6.9-0.8c0.5,0.1,0.9-0.2,1.1-0.6c0,0,0.9-3.6,3.9-5.2
			c1.9-1,4.2-1,6.9,0c0.4,0.1,0.8,0,1-0.3c0,0,3.3-4.8,10.2-3.4c0.3,0.1,0.7-0.1,0.9-0.3c0,0,1.9-2,8.1,0.3c0.3,0.1,0.6,0.1,0.8-0.1
			c0,0,2.5-1.9,6.2-2.7c1.5,2.2,3.5,3.7,4.8,4.4c-1.5,1.3-2.3,2.4-2.3,3.5c0,0.2,0,0.4,0.1,0.5c-0.8,0.4-1.2,1-1.3,1.5
			c-0.3,0.9,0,1.9,0.4,2.6c-0.6,0.3-0.9,0.8-1.1,1.2c-0.3,0.7-0.2,1.4,0,1.9c-1,0.3-1.5,0.8-1.7,1.5c-0.1,0.2-0.1,0.5-0.1,0.7
			c-1-2-3.1-3.5-5.5-3.6c-3.6-0.2-6.7,2.6-6.9,6.2c-0.2,3.6,2.6,6.7,6.2,6.9c0.3,0,0.7,0,1,0c0.6,2.2,2.7,3.8,5.1,3.8
			c1.9,0,3.5-1,4.5-2.5c0.5,3.7,3.7,6.6,7.5,6.6c4.2,0,7.6-3.4,7.6-7.6c0-0.9-0.2-1.8-0.5-2.7l0.5-3.4c0.2-1.7,0.1-3.7,0-4.5
			c0.6-0.7,0.7-1.4,0.7-1.9c0-0.9-0.5-1.7-0.9-2.1c0.5-2.1-0.3-4.2-0.7-4.9c0.1-2.3-2.1-3.9-3.6-4.7c0.6-0.5,1.1-1,1.6-1.6
			c0.8,0.3,2,1,3.9,2.2c0.2,0.1,0.5,0.2,0.8,0.1c0.2,0,3.8-1.2,6,2.5c0.1,0.2,0.3,0.3,0.5,0.4c0.1,0,5.9,1.9,7.3,5.9
			c0.1,0.2,0.1,0.4,0.2,0.6c0,0.2,0.1,0.4,0.1,0.6c0,0,0,0.1,0,0.1c0,0,0,0.1,0,0.1c0.1,0.5,0.1,0.8,0.1,0.9c0,0.1-0.1,0.2-0.1,0.3
			C-263-130.4-263-129.3-263-127.6z M-260-127c0-0.2,0-0.4,0-0.5L-260-127c0,0.1,0.2,0.1,0.3,0.2c0.8,0.6,1.2,1.8,1.2,3.6
			c0,1.8-0.4,3.2-1.3,4c-0.1,0.1-0.1,0.1-0.1,0.1L-260-127C-260-127-260-127-260-127z M-253.2-121.5c-0.2,3.5-1.2,6.1-3.2,7.7
			c-1.1,1-2.6,1.5-3.6,1.8v-4.2c0-0.2,1.2-0.6,1.9-1.1c1.5-1.3,2.3-3.4,2.2-6c0-2.7-0.7-4.6-2.3-5.7c-0.6-0.4-1.8-0.7-1.8-0.8v0.3
			c0-0.1,0-0.2,0-0.3c0-0.1,0-0.2,0-0.4v-0.6c0-0.2-0.1-0.3-0.2-0.5c0,0,0,0,0,0c0-0.5-0.2-1.5-0.6-2.7c1.5,0.4,3.2,1.1,4.7,2.5
			C-253.9-129.2-253-125.9-253.2-121.5z"/>
		<path d="M-288.1-132.6c-1.3,0-2.5-1-3.1-1.7c-0.3-0.4-0.3-0.9,0.1-1.2c0.4-0.3,0.9-0.3,1.2,0.1c0.3,0.3,1.4,1.4,2.1,1
			c0.4-0.2,1-0.1,1.2,0.3c0.2,0.4,0.1,1-0.3,1.2C-287.2-132.7-287.7-132.6-288.1-132.6z"/>
		<path d="M-286.5-128.4c-0.7,0-1.3-0.1-1.8-0.3c-0.5-0.2-0.7-0.7-0.5-1.1c0.2-0.5,0.7-0.7,1.1-0.5c0.4,0.1,1.9,0.5,2.3-0.2
			c0.2-0.4,0.8-0.6,1.2-0.4c0.4,0.2,0.6,0.8,0.4,1.2C-284.4-128.7-285.5-128.4-286.5-128.4z"/>
	</g>
	<g>
		<path d="M22.5-134.8c-0.2,0-0.4,0-0.6,0c-0.9-0.1-1.8-0.1-2.7-0.1c-2.7,0-5,0-6.3-1.7c-0.9-1.1-1.2-2.7-0.7-5c0-0.1,0-0.1,0-0.2
			c0.4-1.1,1.3-4.6,0.8-6.7c-0.2-0.8-0.2-2.3,1.6-3.7c2.7-2.1,8.6-3,12.2-1.1c2.1,1.1,3.5,2.7,4,4.6c0.6,2,0.2,4.3-1.1,6.3
			c-0.4,0.6-0.6,1.3-0.9,2.1C28-138,26.9-134.8,22.5-134.8z M15.1-140.9c-0.2,1.2-0.2,2.1,0.1,2.5c0.5,0.6,2.3,0.6,4,0.6
			c0.9,0,1.8,0,2.8,0.1c2.5,0.2,3-0.9,3.9-3.4c0.3-0.9,0.7-1.9,1.2-2.7c0.8-1.3,1.1-2.7,0.7-3.9c-0.3-1.1-1.1-2.1-2.5-2.8
			c-2.5-1.3-7.1-0.6-9,0.9c-0.4,0.3-0.5,0.6-0.5,0.6C16.6-146,15.3-141.6,15.1-140.9z"/>
		<path d="M33.2-154.5c-0.5,0-1.1,0-1.8-0.1c-3.7-0.5-3.8-6.2-3.8-6.8c0-0.4,0.2-0.8,0.4-1.1c1.4-1.4,3.7-1.2,6.4,0.5
			c0.7,0.5,4.2,2.9,3.4,5.1C37.4-155.7,36.3-154.5,33.2-154.5z M30.7-160.4c0.2,1.4,0.6,2.7,1.1,2.8c1.6,0.2,2.6,0.1,3-0.2
			c-0.6-0.8-2.4-2.3-3.9-2.6C30.8-160.4,30.8-160.4,30.7-160.4z"/>
		<path d="M44.6-151.8c-0.7,0-1.3-0.2-1.7-0.3l-0.2,0c-2.3-0.6-3.1-3.7-2.7-5.6c0.1-0.7,0.7-1.3,1.4-1.5c1.8-0.5,4.1,1.5,4.9,2.3
			c1.3,1.4,1.3,2.5,1,3.2C46.7-152.2,45.6-151.8,44.6-151.8z M43-155.7c0.1,0.3,0.3,0.6,0.4,0.7l0.2,0c0.1,0,0.2,0.1,0.4,0.1
			C43.7-155.2,43.4-155.5,43-155.7z"/>
		<path d="M106.5-169.8c-1.9-1.6-4.1-2.2-6.4-1.9c-5.2,0.6-9.4,5.8-10,6.6l-13.8,14.1c-0.5,0.3-1.7,1.5-1.9,3.2
			c-0.1,0.6,0,1.5,0.6,2.5l-2.7,2.3c-1.7-1.2-3.2-2.1-4-2.5c-0.2-0.3-0.4-0.4-0.4-0.4c-0.1-0.1-0.2-0.2-0.3-0.2c0,0,0,0,0,0
			c-0.9-0.4-21.7-9.9-44.7,18.5c-0.9-1.1-2.3-1.8-3.9-2c-0.2,0-0.5-0.1-0.8-0.1c-2-0.3-5.7-1-8.1,1.3c-1.5,1.5-2.2,3.9-1.8,7.1
			c-0.3,1.3-0.8,5.5,1.7,7.2c0.8,0.5,1.7,1.2,2.8,1.7c-10.2,19.1-5,29.3-3.7,31.3c0,0.1,0.5,0.8,1,1.3v0c1.3,1.5,4.3,4.5,8.9,7.2
			c4.1,2.4,10.2,4.7,18,4.7c3.1,0,6.6-0.4,10.2-1.3c1.3-0.2,11.8-2,25.9-18.5c0,0,0.1,0,0.1,0c0.6-0.8,14.8-20.6,12.3-35.5
			c-0.7-4-2.2-7.5-4.2-10.4l2.7-3.1c0.2,0.1,0.5,0.2,0.8,0.2c0.1,0,0.3,0,0.4,0c1.4,0,2.8-0.7,4.4-2l15-15.3c0.2-0.2,5.2-4.8,5-9.9
			C109.5-166.2,108.5-168.2,106.5-169.8z M57-118.3c-5.7-0.5-8,7.2-8.4,9.1c-1.2-0.1-2.8,0.3-4.5,2.4c-0.8,1-0.8,3-0.5,4.5
			c0.3,1.6,1.1,2.8,2.3,3.5c0.9,0.5,1.9,0.7,2.9,0.7c0.6,0,1.3-0.1,1.9-0.3c1.2-0.4,2.2-1.3,2.7-2.3c0.1-0.2,0.1-0.4,0.2-0.6
			c0.3,0.1,0.6,0.1,1,0.1c0.2,0,0.5,0,0.7-0.1c-1,1.1-1.9,2.1-3,3.2C45.1-90.6,39-86,33.9-83.2c0.6-0.7,1.1-1.3,1.4-1.7
			c1.1-1.7,1-3,0.6-4.2c1.4,0,3.4-0.7,5.6-3.4c3-3.5,2.7-5.9,1.9-7.3c-1.1-2-3.9-2.9-7.3-2.3c-1.8,0.3-3.2,1.1-4.1,2.5
			c-0.7,1-0.9,2.1-0.9,3c-0.2-0.1-0.3-0.2-0.5-0.4c-0.5-0.4-0.9-0.6-1.3-0.9c1-0.6,2.1-1.6,3.2-3c0.7-0.8,1.9-2.9,2.2-5
			c0.2,0.1,0.5,0.2,0.7,0.3c1,0.4,2.1,0.6,3.2,0.6c1.9,0,3.6-0.6,4.6-1.2c2.3-1.5,2.8-3.1,3.7-5.6l0.2-0.6c1.5-4.1-1.4-6.5-3-7.8
			c-0.8-0.7-1.5-1-2.2-1.2c0.6-0.6,1.2-1.2,1.9-1.7c0.2,0,0.4,0,0.6,0c0.4,0,0.8-0.1,1.1-0.2c0.9-0.3,1.6-0.9,2-1.8
			c0.1-0.3,0.3-0.8,0.3-1.3c6.6-4.8,14.3-7.6,22.5-5.8c0.1,6.1-2.2,13-7,20.4c0.1-0.7,0.2-1.4,0.2-1.9
			C63.1-117.4,59.1-118.3,57-118.3z M55.2-104.3c-0.6,0.2-1.3,0.3-2.2-0.8c-0.1-0.1-0.1-0.2-0.2-0.3c-0.3-0.7-0.7-1.3-1.1-1.9
			c-0.2-0.5-0.2-0.9-0.2-0.9c0.2-0.7,1.8-7.4,5.4-7.1c0.1,0,0.1,0,0.2,0c0,0,3.3-0.1,3.5,2C60.7-111.4,57.9-105.4,55.2-104.3z
			 M50.6-101.8c-0.1,0.2-0.4,0.5-0.9,0.6c-0.7,0.3-1.6,0.2-2.3-0.2c-1.1-0.6-1-2.9-0.8-3.5c0.5-0.6,1.3-1.5,2-1.2
			c0.2,0.1,0.3,0.2,0.5,0.4c0.3,0.6,0.6,1.2,1.1,1.9C50.4-103,50.6-102.2,50.6-101.8z M34.5-98c0.4-0.6,1.1-1,2.1-1.2
			c0.5-0.1,1-0.1,1.4-0.1c1.4,0,2.4,0.4,2.7,1c0.4,0.8-0.1,2.2-1.5,3.9c-1.5,1.7-2.8,2.6-3.7,2.2c-0.8-0.3-1.3-1.4-1.3-2.8
			c0-0.1,0-0.2,0-0.4C34.1-95.3,33.8-96.9,34.5-98z M34.1-111.7c0-0.2-0.1-0.4-0.1-0.7c-0.2-1-0.2-2.5,0.7-3.5
			c1.5-1.5,2.8-1.9,4.1-2.3c0,0,0,0,0.1,0c0.2,0,0.3-0.1,0.5-0.1c0.5-0.1,0.8-0.2,1.2-0.2c0.5,0,1,0.2,1.6,0.7
			c2.2,1.8,2.6,2.8,2,4.5l-0.2,0.6c-0.8,2.3-1.1,3.2-2.5,4.1c-0.8,0.5-3.1,1.1-4.9,0.3c-1.3-0.5-2.1-1.6-2.4-3.3v0L34.1-111.7z
			 M42.9-128.6c0.8-0.5,1.2-0.5,1.4-0.5c0.3,0.2,0.4,0.7,0.5,1.3c0.1,0.6,0.1,1.2,0,1.5c-0.1,0.2-0.2,0.3-0.3,0.3
			c-0.1,0-0.5,0.1-1.5-0.4c0,0,0,0,0,0C42.4-126.8,42.7-128,42.9-128.6z M64.2-144.3c0.9,0.2,1.5,0.5,1.8,0.6c0.2,0.2,0.5,0.5,0.8,1
			c1,1.3,2.5,3.8,3.2,7.6c-7.5-1.4-15.1,0.5-22.6,5.5c-0.3-0.7-0.6-1.3-1.2-1.7c-0.8-0.7-2.6-1.5-5.4,0.5c-0.2,0.2-0.4,0.4-0.5,0.6
			c-0.6,1.4-1.2,4.2,0.5,5.8c-1.3,1.2-2.5,2.4-3.7,3.7c-1.2,0.4-2.8,1.1-4.5,2.8c-1.4,1.4-1.7,3.1-1.7,4.5c-0.1,0.1-0.2,0.3-0.3,0.4
			c-1.7-1.4-3.6-2.4-5.1-1.8c-0.3,0.1-0.6,0.2-0.9,0.3c-0.1,0-0.2,0.1-0.4,0.1c0.4-0.5,0.6-1.2,0.6-2c0-1.1-0.2-2.5-0.4-3.7
			c-0.1-0.8-0.3-1.9-0.3-2.2c0-0.2,0.2-1.1,0-2.3C42.2-147.8,58.7-145.8,64.2-144.3z M25.4-111.7c0.4-0.1,0.8-0.3,1-0.3c0,0,0,0,0,0
			c0.5,0,1.4,0.6,2.3,1.4c0.8,0.7,1.6,1.5,2.2,2.2c0.3,0.3,0.5,0.7,0.7,1c0.5,0.9-0.7,3.7-1.5,4.6c-1.7,2.1-2.8,2.6-3.3,2.7
			c-0.3,0.1-0.7,0-1.1,0c-0.7-0.1-1.6-0.4-2.5-0.9c0-0.1,0-0.4,0-0.7c0-0.1,0-0.2,0-0.3c0-0.4,0.1-0.8,0.1-1.2
			c0-1.2-0.8-2.3-1.5-3.3c-0.3-0.4-0.7-1-0.8-1.3C21.9-110.7,23.7-111.2,25.4-111.7z M11.5-116.8c-0.7-0.4-0.7-2.6-0.4-4.3
			c0-0.2,0-0.3,0-0.5c-0.2-1.6-0.2-3.8,0.9-4.8c1.3-1.2,3.9-0.8,5.5-0.5c0.4,0.1,0.7,0.1,1,0.1c1,0.1,1.7,0.5,2.1,1
			c0.1,0.1,0.2,0.3,0.3,0.4c0.4,0.9,0.4,2,0.3,2.5c-0.1,0.5,0,1.1,0.1,2c0.1,0.4,0.1,0.8,0.2,1.2c0.2,1.1,0.4,2.3,0.4,3.2
			c0,0.7-2,1.2-3.8,1.6l-0.3,0.1c-0.2,0-0.3,0-0.5,0.1c-1.1,0.1-2.1-0.2-3.1-0.6C13.1-115.7,12.3-116.3,11.5-116.8z M12.4-82
			c-0.5-0.4-0.8-0.7-0.9-0.8c-0.1-0.1-0.5-0.7-0.9-1.7c-1.4-3.5-3.2-12.4,4.8-27.2c0.4,0.1,0.8,0.1,1.2,0.1c0.5,0,1.1-0.1,1.7-0.2
			l0.3-0.1c0.5-0.1,1-0.2,1.5-0.4c-0.9,0.9-1.6,2-2.1,3.7l0,0c-0.4,1.3,0.5,2.5,1.3,3.7c0.3,0.5,0.9,1.3,1,1.6c0,0.3,0,0.6-0.1,0.9
			c-0.1,0.9-0.1,2,0.5,3c-0.6,0.2-1.1,0.5-1.7,0.8l-0.6,0.3c-2.2,1.1-3.5,2.5-5.3,4.7C11-91,11.3-89.4,12-86.7
			c0.8,2.8,4.7,6.5,5.1,6.9c0.1,0.1,0.1,0.1,0.2,0.1C14.9-80.3,13.3-81.3,12.4-82z M14.9-87.5c-0.6-2.3-0.7-2.7,0.5-4.2
			c1.6-1.9,2.6-3.1,4.4-4l0.6-0.3c0.1,0,0.2-0.1,0.3-0.1c1.4-0.7,2.2-1,3.3-0.8c0.1,0,0.2,0.1,0.3,0.1l0.9,0.3
			c1.6,0.6,2.4,0.9,3.5,1.8c0.2,0.2,0.4,0.3,0.7,0.5c1.3,0.9,2.5,1.8,2.8,3.3c0.2,0.8,0.4,1.4,0.6,1.9c0.4,1.2,0.5,1.5,0,2.3
			c-1.9,2.8-6.2,7.2-13.8,4.4C17.5-83.6,15.3-86.1,14.9-87.5z M82.6-119.3c-0.3,12.9-11.3,28.5-12,29.4
			c-13.8,16.2-23.9,17.4-24,17.4c-0.1,0-0.1,0.2-0.2,0.2C33.7-69,24.6-73,18.8-76c0,0,0,0,0,0c0.4,0,0.8-0.1,1.2-0.1
			c0.3,0,0.6-0.1,0.9-0.1c9.6,0,20.9-6.6,33.4-19.6c13-13.4,19.3-25.7,18.9-36.6c0-0.7-0.1-1.4-0.2-2.1c-0.1-0.4-0.1-0.8-0.2-1.2
			c0-0.2-0.1-0.5-0.1-0.7c-0.1-0.5-0.3-1.1-0.4-1.6c0-0.1,0-0.1,0-0.2c-0.2-0.5-0.3-1.1-0.5-1.6c0,0,0-0.1,0-0.1
			c4.1,3.3,9.2,8.9,10.5,16.7C82.5-121.9,82.6-120.6,82.6-119.3z M79.7-136.8l-4.9-4.5l2.2-1.8l4.5,4.3L79.7-136.8z M102.5-156.2
			l-15,15.2c-1.5,1.2-2.4,1.4-2.7,1.2l-2.5-2.4l-4.2-4.1c-0.3-0.4-0.8-0.9-0.7-1.3c0-0.5,0.6-1,0.7-1.1l14.2-14.4l0.1-0.2
			c1-1.4,4.5-5.1,8-5.5c1.5-0.2,2.8,0.2,4.1,1.3c1.3,1.1,2,2.3,2,3.6C106.7-160.2,102.6-156.3,102.5-156.2z"/>
	</g>
	<path d="M-422.1,49C-422.1,48.9-422.1,48.9-422.1,49c0-0.1,0-0.1,0-0.2c-0.2-0.6-2.8-9.1-15.4-15.3l8.5-16.5
		c0.4-0.6,2.2-3.4,1.8-6.2c-0.2-1.4-1-2.6-2.2-3.5c-1.6-1.2-3-1.1-3.9-0.8c-2.7,0.8-4.2,4.1-4.3,4.4l-9.1,19.1
		c-6.3-1.8-14.3-3-24.2-3c-0.3,0-0.7,0-1,0c-11.1,0.1-19.7,1.7-26.3,4.2l-8-17.6c-0.3-0.7-2-5.1-5-6.3c-1.2-0.5-2.5-0.4-3.7,0.2
		c-1.2,0.6-2.1,1.6-2.5,2.9c-1,3.1,1,7,1.2,7.4l8.8,18c-11,7.4-12.5,16.9-12.6,17.5c0,0.1,0,0.1,0,0.2c-0.2,1.1-2.9,19.8,9.5,34.3
		c9,10.5,23.4,15.8,43,15.8c15.5,0,27.4-4.6,35.3-13.8C-418.5,73.9-421.9,50-422.1,49z M-425.2,49.2l-0.4,1c-0.5,1.1-1.4,3-3.1,5
		c-0.2-0.6-0.5-1-0.8-1.4c-0.9-1.2-2.3-1.8-3.5-2.3c2.6-3,2.9-6.8,2.9-7c0-0.7-0.4-1.3-1-1.5c-4.2-1.5-8.7-0.4-11.8,0.8l4-7.7
		C-428.9,41.2-425.8,47.5-425.2,49.2z M-447.5,57.8c-1.2-1.2-0.8-3.2-0.7-3.7l3-5.8c1.2-0.7,6.9-3.7,11.9-2.7
		c-0.4,1.6-1.3,4.3-4,5.6c-0.6,0.3-0.9,1-0.8,1.7s0.8,1.2,1.5,1.2c0.9,0,3.7,0.3,4.8,1.7c0.5,0.6,0.6,1.4,0.4,2.5
		c-3.2,3-7.9,6.2-14.7,8.6C-445.1,62.4-445.9,59.4-447.5,57.8z M-445.1,33.7l1.3-2.8l9-18.8c0.3-0.8,1.3-2.5,2.4-2.7
		c0.3-0.1,0.7-0.1,1.4,0.4c2.4,1.7-0.2,5.4-0.3,5.6c0,0.1-0.1,0.1-0.1,0.2l-8.7,16.7l-1.4,2.7l-9.3,17.9c0,0.1-0.1,0.2-0.1,0.3
		c-0.1,0.2-1.2,4.2,1.4,6.8c1,1,1.5,3.7,0.1,7.9c-1,0.3-2,0.5-3.1,0.8c0.6-2.2,1-4.3,0.4-5.4c-0.3-0.7-1-1.1-1.7-1
		c-0.8,0.1-1.9,0.1-4.8,7.6c-0.7,0.1-1.4,0.2-2.2,0.3c1.5-3.4,2.6-7.4,1.2-9.2c-0.5-0.6-1.1-0.8-1.9-0.7c-0.6,0.1-2.5,0.4-6.5,10.4
		c-0.5,0-1,0-1.5,0.1c1-5.7,3.7-14.8,8.9-15.7c0.9,0,4.7-0.6,8.4-6.3c0-0.1,0.1-0.1,0.1-0.2L-445.1,33.7z M-462.5,65.5
		c-0.4,1.4-1.1,3.2-1.9,4.9c-0.1,0-0.3,0-0.4,0C-464,68.6-463.2,66.8-462.5,65.5z M-477.6,57.3c0.2,0,0.3-0.1,0.5-0.2
		c0.1,0,5-3.2,12.5-3.7c-5.3,3.6-7.4,13-8.2,17.4c-0.3,0-0.6,0-0.9,0c-0.9,0-1.7,0-2.5,0C-475.8,65.4-476.2,60.9-477.6,57.3z
		 M-491.1,46.9C-491.1,46.9-491.1,46.9-491.1,46.9c0-0.1-0.5-2.4,1-4.1c1.3-1.5,3.7-2.2,7-2.2c0.1,3.9,1.7,6.4,2.7,7.6l-3,1.6
		c0,0-0.1,0-0.1,0.1c-2.8-1.7-5.7-1.9-7.2-2L-491.1,46.9z M-474.5,48.5C-474.5,48.5-474.4,48.5-474.5,48.5l11-7.1
		c0.1,2.3-0.3,5.9-2.3,8.9c0,0.1-0.1,0.1-0.1,0.2c-7.7,0.7-12.6,3.9-12.8,4.1c0,0,0,0-0.1,0.1c-0.6-1-1.3-1.9-2-2.7L-474.5,48.5z
		 M-480,39.3c0-0.3,0-0.4,0.1-0.7c0.1-0.8,0.3-1.6,0.6-2.6c1.8,0.6,5.2,2.4,6.2,7.2c0.1,0.2,0.2,0.4,0.3,0.6l-3.3,2.1l-1.6,0.9
		c0,0,0,0-0.1-0.1c0,0-2.5-2.1-2.4-6.7C-480.1,39.8-480,39.5-480,39.3z M-458.1,50.7c-1.5-0.2-2.9-0.3-4.3-0.3
		c1.2-2.3,1.6-4.7,1.8-6.7c0.1,0,0.2,0.1,0.3,0.1c0.4,0,0.8-0.1,1.1-0.4c0,0,3.1-3.1,7.6-3l-3.3,6.8C-456,48.9-457.1,50-458.1,50.7z
		 M-471.9,30c0.3,0,0.6,0,1,0c9.4,0,16.9,1.1,22.9,2.8l-2.2,4.6c-0.1,0-0.1,0-0.2,0c-4.9-0.6-8.6,1.9-10.2,3.1
		c-0.1-1.1-0.2-1.8-0.2-1.9c-0.1-0.5-0.4-0.9-0.9-1.1s-1-0.2-1.4,0.1l-7.2,4.6c-2-8.2-9.5-9.4-9.8-9.5c-0.7-0.1-1.4,0.3-1.6,0.9
		c-0.6,1.4-0.9,2.8-1.1,4c-4.4-0.1-7.7,1-9.6,3.2c-0.4,0.4-0.7,0.9-0.9,1.3l-3.7-8.2C-490.7,31.7-482.6,30.1-471.9,30z M-513.6,16.5
		c-0.4-0.8-1.5-3.5-1-5.2c0.2-0.5,0.5-0.9,1-1.1c0.2-0.1,0.5-0.2,0.7-0.2c0.2,0,0.3,0,0.5,0.1c1.4,0.6,2.8,3.1,3.4,4.6
		c0,0,0,0.1,0,0.1l7.9,17.5l1.2,2.7l6.8,15.1c0.3,0.6,0.9,1,1.6,0.9c0.2,0,4.7-0.6,8.2,2.9c3.3,3.2,4.6,8.9,4,16.8
		c-5.6-0.3-10.3-0.9-14.4-1.8c-2.7-4.1-5.1-9.8-2.3-14.7c0.2-0.4,0.3-1,0-1.4l-7.7-15.9l-1.3-2.7L-513.6,16.5z M-509.5,62.5
		c-0.3-1.3-1-6.2,1.4-9.5c1.5-2,3.9-3.1,7.3-3.3l1.8,3.8c-2.4,4.9-1,10.1,1.2,14.4C-502.9,66.4-506.7,64.4-509.5,62.5z M-506.2,38.6
		l4,8.2c-3.7,0.5-6.5,1.9-8.3,4.4c-2,2.7-2.4,6-2.3,8.5c-1.5-1.4-2.5-2.8-3.1-3.9l-1.1-2.6C-516.7,51.6-514.7,44.5-506.2,38.6z
		 M-434.5,87.9c-7.3,8.5-18.4,12.8-33,12.8c-18.6,0-32.3-5-40.7-14.7c-7.2-8.5-8.9-18.8-9.1-25.5c0-0.5,0-1,0-1.5
		c1.1,1.5,2.6,3.1,4.7,4.8c3.7,2.9,9.1,5.7,17.1,7.6c1.4,0.3,2.9,0.6,4.5,0.9c1.8,0.3,3.7,0.6,5.8,0.8c2.7,0.3,5.5,0.4,8.6,0.5
		c1.2,0,2.4,0,3.7,0c0.5,0,0.9,0,1.4,0c1.9,0,3.7-0.1,5.5-0.2c0.2,0,0.5,0,0.7,0c1.6-0.1,3.2-0.3,4.6-0.4c0.2,0,0.5-0.1,0.7-0.1
		c2.2-0.3,4.2-0.6,6.1-1c1-0.2,1.9-0.4,2.8-0.6c1.3-0.3,2.5-0.7,3.7-1c8.6-2.6,14.3-6.4,18.1-10c2-1.9,3.4-3.7,4.5-5.3
		c0,0.5,0,1.1,0,1.7C-424.6,64.8-426.1,78.1-434.5,87.9z"/>
	<g>
		<path d="M-248.6,10.5c-1.1-1.1-2.4-1.6-3.9-1.6l-86.6,0.6c-3,0.1-5.5,2.6-5.4,5.6l-0.4,63.7c0,0,0,0,0,0c0,0.2,0.1,0.4,0,0.6
			c0,2,0,6.2,3,8.8v8.9c0,0,0,0,0,0.1c0.1,1.3,1.2,3.9,5,3.9h6c0,0,0.1,0,0.2,0c0.7,0,2.4-0.1,3.9-1.7c1.8-1.9,2.4-5,1.9-9.3
			l45.4-0.1c0.1,0,0.2,0.1,0.4,0.1c0,0,0,0,0,0c0.1,0,0.3,0,0.4,0l12,0v7.1c0,0,0,0,0,0.1c0.1,1.3,1.2,3.9,5,3.9h6c0,0,0.1,0,0.1,0
			c0.6,0,3,0.2,4.6-1.5c2.3-2.4,2.4-7.2,1.6-13.5c0.7-1,1.2-2.2,1.3-3.7c0,0,0-0.1,0-0.1l1.5-67.6
			C-246.9,13.1-247.5,11.6-248.6,10.5z M-341.5,15.1c0-1.4,1.1-2.6,2.4-2.6l58-0.4l0,9.9h-60.5L-341.5,15.1z M-341.5,25h60.5l0.1,50
			h-60.9L-341.5,25z M-329.2,97.2c-0.8,0.9-1.7,0.8-1.8,0.8c0,0-0.1,0-0.1,0h-6c-1.6,0-2-0.7-2-1v-6.5l11,0
			C-327.7,93.6-328.1,96-329.2,97.2z M-331.8,87.2l-6.9-0.5c-2.9-1.2-3.1-4.3-3.1-7.2c0-0.2,0-0.5,0-0.7l0-0.8h61l0,8.9L-331.8,87.2
			z M-253.2,97.6c-0.8,0.9-2.8,0.5-2.8,0.5c0,0-0.1,0-0.1,0h-6c-1.6,0-2-0.7-2-1v-7l7,0c1.3-0.1,2.9-0.5,4.4-1.4
			C-252.2,93.9-252.4,96.6-253.2,97.6z M-251.5,82.1c-0.1,0.7-0.3,1.4-0.6,1.9c-1.3,2.2-4.1,2.8-5,2.9l-9.4,0l-11.4,0l-0.2-74.8
			l25.6-0.2c0.6,0,1.3,0.2,1.7,0.7c0.5,0.5,0.8,1.2,0.8,1.9L-251.5,82.1z"/>
		<path d="M-264.4,16.6c-6.3,0-11.5,5.2-11.5,11.5c0,6.3,5.2,11.5,11.5,11.5s11.5-5.2,11.5-11.5C-252.9,21.7-258,16.6-264.4,16.6z
			 M-264.4,36.6c-4.7,0-8.5-3.8-8.5-8.5c0-4.7,3.8-8.5,8.5-8.5s8.5,3.8,8.5,8.5C-255.9,32.7-259.7,36.6-264.4,36.6z"/>
		<path d="M-269.4,44.6c-2.5,0-4.5,2-4.5,4.5s2,4.5,4.5,4.5s4.5-2,4.5-4.5S-266.9,44.6-269.4,44.6z M-269.4,50.6
			c-0.8,0-1.5-0.7-1.5-1.5s0.7-1.5,1.5-1.5s1.5,0.7,1.5,1.5S-268.6,50.6-269.4,50.6z"/>
		<path d="M-259.4,44.6c-2.5,0-4.5,2-4.5,4.5s2,4.5,4.5,4.5s4.5-2,4.5-4.5S-256.9,44.6-259.4,44.6z M-259.4,50.6
			c-0.8,0-1.5-0.7-1.5-1.5s0.7-1.5,1.5-1.5s1.5,0.7,1.5,1.5S-258.6,50.6-259.4,50.6z"/>
		<path d="M-269.4,55.6c-2.5,0-4.5,2-4.5,4.5s2,4.5,4.5,4.5s4.5-2,4.5-4.5S-266.9,55.6-269.4,55.6z M-269.4,61.6
			c-0.8,0-1.5-0.7-1.5-1.5s0.7-1.5,1.5-1.5s1.5,0.7,1.5,1.5S-268.6,61.6-269.4,61.6z"/>
		<path d="M-259.4,55.6c-2.5,0-4.5,2-4.5,4.5s2,4.5,4.5,4.5s4.5-2,4.5-4.5S-256.9,55.6-259.4,55.6z M-259.4,61.6
			c-0.8,0-1.5-0.7-1.5-1.5s0.7-1.5,1.5-1.5s1.5,0.7,1.5,1.5S-258.6,61.6-259.4,61.6z"/>
		<path d="M-269.4,65.6c-2.5,0-4.5,2-4.5,4.5s2,4.5,4.5,4.5s4.5-2,4.5-4.5S-266.9,65.6-269.4,65.6z M-269.4,71.6
			c-0.8,0-1.5-0.7-1.5-1.5s0.7-1.5,1.5-1.5s1.5,0.7,1.5,1.5S-268.6,71.6-269.4,71.6z"/>
		<path d="M-259.4,65.6c-2.5,0-4.5,2-4.5,4.5s2,4.5,4.5,4.5s4.5-2,4.5-4.5S-256.9,65.6-259.4,65.6z M-259.4,71.6
			c-0.8,0-1.5-0.7-1.5-1.5s0.7-1.5,1.5-1.5s1.5,0.7,1.5,1.5S-258.6,71.6-259.4,71.6z"/>
	</g>
	<g>
		<path d="M-425.3-137c-2.5-2.5-5.7-3.3-7.8-3.5c-0.7-1.3-1.8-2.7-3.2-4.1c-9.1-9-26.8-10.5-40.1-10.1c-24.9,0.7-34.9,8.1-38.9,14
			c-1.2,0-6.1,0.2-9.6,3.8c-2.7,2.8-3.9,6.9-3.5,12.1c0.3,4.2,1.8,7.4,4.5,9.5c1.7,1.4,3.7,2,5.4,2.4l-0.1-2.7
			c-1.2-0.3-2.5-0.8-3.7-1.7c-2-1.6-3.2-4.2-3.5-7.6c-0.4-4.4,0.6-7.8,2.7-10c2-2,4.6-2.7,6.2-2.9c-0.5,1.2-0.8,2.3-1,3.1
			c-0.1,0.6-0.1,1-0.2,1.2c-0.3,0-0.7,0.1-1,0.1c-0.7,0.1-1.3,0.4-1.9,0.9c-1.5,1.1-2.2,3.1-2.2,5.8c0.1,2.6,0.9,4.6,2.4,5.9
			c0.6,0.5,1.3,0.9,2,1.1l0-0.1l0,0.1l0,0l0.1,4.2l0.1,2.7l0.2,11.1c0,0.3,0,6.6,7.2,9.9c9.7,4.4,17.3,6.4,39.1,6.8
			c1.6,0,3.1,0,4.5,0c16.9,0,24-2.2,29.3-5.5c1.8-1.1,7.2-4.5,7.2-14.2v-8.1c1-0.3,3.6-1.1,5.3-2.5c2.6-2.2,4-5.4,4.2-9.6
			C-421.3-130.3-422.6-134.3-425.3-137z M-519-122.9L-519-122.9c0-0.1,0-0.1-0.1-0.1c-0.9-0.8-1.4-2.1-1.4-3.9
			c0-1.2,0.2-2.9,1.1-3.7c0.1-0.1,0.3-0.3,0.4-0.3l0.2,8c0.1,0.1,0.1,0.1,0.2,0.2C-518.7-122.8-519-122.9-519-122.9z M-437.5-122
			c-5.6,6.9-17.3,10.5-33.9,10.5c-2.2,0-4.2,0-6.2-0.1c0.8-5.1-1.3-9.9-5.8-13.2c-4.8-3.5-11.2-4.6-14.9-2.6c-2,1.1-4.3,3.6-3.4,8.8
			c0.2,1.1,0.5,2.1,0.7,3c-6-2.2-9.4-5-11.5-7.5c-0.3-0.4-0.6-0.9-0.9-1.3c0.1-0.2,0.1-0.3,0.1-0.5c0-0.1-0.2-5.1,4.5-10.1
			c6.1-6.5,17.7-10,33.6-10.1c22.7-0.2,32.2,5.6,36.1,10.4c3.4,4.1,3.4,8.4,3,10.6C-436.5-123.4-436.9-122.7-437.5-122z
			 M-497.8-114.6c-0.6-1.4-3.5-8.2,0.7-10.6c2.8-1.5,8.2-0.5,12.1,2.4c2.2,1.6,5.8,5.2,4.7,11C-487.5-112.2-493.3-113.2-497.8-114.6
			z M-515.5-132.6c0-0.3,0.1-0.5,0.1-0.5c0-0.1,0-0.2,0-0.3c0-0.1,0-0.7,0.3-1.6c0.2-0.7,0.5-1.7,1.1-2.8c0.7-1.4,1.8-2.9,3.5-4.5
			c4.5-4.2,14-9.3,34.2-9.9c23-0.6,33.4,4.7,38.1,9.3c0.9,0.8,1.5,1.7,2.1,2.5c1.5,2.2,2,4,2.2,5.1c0.1,0.5,0.1,0.8,0.1,0.9
			c0,0.1-0.1,0.2-0.1,0.3c0,0.1,0,1.2,0,2.9v0.4c0,0,0.1,0,0.1,0c0,0.1,0,0.2,0,0.4c-0.5-1.9-1.5-3.9-3.1-5.9
			c-7.8-9.6-25.1-11.4-38.2-11.4c-16.9,0.1-28.8,3.8-35.5,10.9c-2.6,2.8-3.9,5.6-4.6,7.8c-0.2-0.8-0.2-1.5-0.2-2
			C-515.6-131.7-515.6-132.2-515.5-132.6z M-434-115.3v2.6v7.8c0,7.4-3.3,10.4-5.8,12c-5.3,3.3-12.7,5.5-32.2,5.1
			c-21.3-0.4-28.6-2.3-38-6.6c-5.7-2.6-5.7-7.3-5.7-7.5l-0.2-10.9l-0.1-2.6l0-1.7l0,0l0,1.7c0.1,0,0.2,0,0.2,0l-0.3-1.7l-0.1-4.9
			c0,0,0,0,0,0l0.2-1.8v0l-0.1,1.7c0.4,0,0.6,0,0.6,0c0.1,0,0.3,0,0.4,0c0,0,0,0,0,0c0.1,0.2,0.3,0.4,0.4,0.5
			c0.2,0.3,0.4,0.5,0.7,0.7c6.9,7.9,21.2,11.9,42.5,11.9c17.3,0,29.2-3.7,35.6-11c0.2-0.2,0.3-0.4,0.5-0.5c0.4-0.5,0.6-1,0.9-1.4
			c0.1,0,0.2-0.1,0.2-0.1c0,0,0.1,0,0.2,0v6.4V-115.3z M-431-130.7c0-0.2,0-0.4,0-0.5L-431-130.7c0,0.1,0.2,0.1,0.3,0.2
			c0.8,0.6,1.2,1.8,1.2,3.6c0,1.8-0.4,3.2-1.3,4c-0.1,0.1-0.1,0.1-0.1,0.1L-431-130.7C-431-130.7-431-130.7-431-130.7z
			 M-424.2-125.2c-0.2,3.5-1.2,6.1-3.2,7.7c-1.1,1-2.6,1.5-3.6,1.8v-4.2c0-0.2,1.2-0.6,1.9-1.1c1.5-1.3,2.3-3.4,2.2-6
			c0-2.7-0.7-4.6-2.3-5.7c-0.6-0.4-1.8-0.7-1.8-0.8v0.3c0-0.1,0-0.2,0-0.3c0-0.1,0-0.2,0-0.4v-0.6c0-0.2-0.1-0.3-0.2-0.5
			c0,0,0,0,0,0c0-0.5-0.2-1.5-0.6-2.7c1.5,0.4,3.2,1.1,4.7,2.5C-424.9-132.9-424-129.6-424.2-125.2z"/>
		<path d="M-484-142.3c-2.1,0-3.8,1.7-3.8,3.8c0,2.1,1.7,3.8,3.8,3.8c2.1,0,3.8-1.7,3.8-3.8C-480.2-140.6-481.9-142.3-484-142.3z
			 M-484-136.5c-1.1,0-2-0.9-2-2c0-1.1,0.9-2,2-2s2,0.9,2,2C-481.9-137.4-482.9-136.5-484-136.5z"/>
		<path d="M-458.4-137c-0.6-0.5-3.4-2.4-7-1.7c-3.5,0.7-6.6,3.5-9.2,8.3c-2.2,4-2.8,7.7-1.8,11c1.2,4.1,4.5,5.9,4.7,6
			c0.1,0,0.1,0.1,0.2,0.1c0.1,0.1,2.3,0.9,5.1,0.9c1.7,0,3.6-0.3,5.4-1.3c2.8-1.5,4.6-4.2,5.5-8.1C-453-133.3-457.4-136.5-458.4-137
			z M-458.1-122.5c-0.7,3.1-2.1,5.3-4.2,6.4c-3.4,1.8-7.6,0.5-8.3,0.3c-0.4-0.3-2.5-1.7-3.3-4.4c-0.8-2.6-0.2-5.6,1.6-9
			c2.2-4.1,4.7-6.4,7.3-7c2.8-0.6,4.9,1.1,5,1.2c0.1,0.1,0.2,0.1,0.3,0.2C-459.7-134.7-455.8-132.7-458.1-122.5z"/>
		<path d="M-504-133c-1.4,0-2.5,1.1-2.5,2.5c0,1.4,1.1,2.5,2.5,2.5c1.4,0,2.5-1.1,2.5-2.5C-501.5-131.9-502.6-133-504-133z
			 M-504-129.8c-0.4,0-0.7-0.3-0.7-0.7c0-0.4,0.3-0.7,0.7-0.7c0.4,0,0.7,0.3,0.7,0.7C-503.3-130.1-503.6-129.8-504-129.8z"/>
		<path d="M-446.2-125.1c-1.4,0-2.5,1.1-2.5,2.5s1.1,2.5,2.5,2.5c1.4,0,2.5-1.1,2.5-2.5S-444.8-125.1-446.2-125.1z M-446.2-121.9
			c-0.4,0-0.7-0.3-0.7-0.7s0.3-0.7,0.7-0.7s0.7,0.3,0.7,0.7S-445.8-121.9-446.2-121.9z"/>
	</g>
	<g>
		<path d="M-652.9,43.7c2.3,0.3,4.4-1,5.3-3.3c0.3-0.9,1.5-2.2,3.1-2.5c1.4-0.2,2.9,0.5,4.4,2.2c0.1,0.1,0.3,0.6,0.4,1
			c0.4,1.3,1.2,3.7,4.2,3.8c0.5,0,1.1,0,1.8-0.2c2.3-0.5,3.7-2.8,3.4-5.6c-0.4-4.4-4.5-9.1-12.8-9.7c-4.9-0.3-8.9,0.9-11.4,3.4
			c-1.8,1.8-2.6,4.1-2.4,6.5C-656.9,41.6-655.2,43.4-652.9,43.7z M-652.7,34.7c2-2,5.3-2.9,9.3-2.6c7.7,0.6,10.1,4.8,10.3,7.3
			c0.1,1.2-0.3,2.5-1.4,2.8c-2.1,0.5-2.3-0.2-2.9-1.8c-0.2-0.7-0.5-1.4-0.9-1.9c-2.1-2.4-4.1-3.2-5.7-3.2c-0.4,0-0.8,0-1.2,0.1
			c-2.6,0.4-4.5,2.5-5.1,4.2c-0.7,1.7-2,1.7-2.4,1.6c-0.8-0.1-1.7-0.8-1.8-2C-654.5,37.5-653.9,35.9-652.7,34.7z"/>
		<path d="M-681.8,29.5c2.3-0.1,3.3-1.2,3.8-2c0.6-1.1,0.6-2.3,0.4-3.4c1.6,0.5,3.7,0.7,5.5,0c1.1-0.5,2.5-1.5,3.2-3.9
			c0.7-2.3,0.4-4.2-0.7-5.4c-0.2-0.2-0.3-0.3-0.5-0.5c1.4-0.9,2.6-2.3,3-3.8c0.6-1.8,0.4-4.6-3.7-7.6c-2.6-1.9-5-2.5-7.2-1.7
			c-1.6,0.6-2.6,1.8-3.4,3c-1-1.5-2.6-2.7-4.5-3.2c-1.9-0.5-5.7-0.6-9.7,4.6c-1.4,1.9-1.9,3.7-1.3,5.6c0.6,1.8,2.1,3.2,3.6,4.2
			c-1.5,0.8-2.8,2.2-3.4,3.8c-0.9,2.4-0.3,4.9,1.7,6.6c1.7,1.5,3.3,1.6,4.3,1.5c1.1-0.2,2-0.7,2.8-1.2c0.3,0.7,0.7,1.4,1.3,2
			c1,1,2.4,1.5,4,1.6C-682.3,29.5-682,29.5-681.8,29.5z M-685.7,23.2c0-0.6-0.4-1.1-0.9-1.3c-0.1,0-0.2-0.1-0.4-0.1
			c-0.5,0-0.9,0.2-1.2,0.6c-0.3,0.5-1.5,1.9-2.8,2.1c-0.7,0.1-1.4-0.2-2.1-0.8c-1.5-1.4-1.2-2.9-0.9-3.6c0.6-1.6,2.4-3.1,4.7-3
			c0.7,0,1.2-0.5,1.4-1.1c0.1-0.7-0.3-1.3-0.9-1.5c-1.2-0.4-4.6-1.9-5.3-4.1c-0.3-0.9,0-2,0.9-3.1c2.3-3,4.6-4.2,6.9-3.7
			c2.1,0.6,3.6,2.7,3.9,4.3c0.1,0.6,0.6,1.1,1.3,1.2c0.7,0,1.2-0.4,1.4-1c0,0,0.8-3.5,3-4.3c1.2-0.5,2.8,0,4.6,1.3
			c2.2,1.6,3.1,3.2,2.7,4.6c-0.6,1.9-3.2,3.3-4.6,3.5c-0.2,0-0.4,0-0.5,0.1c-0.7,0.1-1.2,0.7-1.1,1.5c0.1,0.7,0.7,1.2,1.4,1.2
			c0.2,0,0.3,0,0.5,0c0.7,0,1.8,0,2.4,0.7c0.6,0.7,0.4,2,0.1,2.9c-0.3,1.1-0.8,1.8-1.6,2.1c-1.9,0.8-5.1-0.4-6.1-1
			c-0.5-0.3-1.2-0.2-1.6,0.2c-0.4,0.4-0.5,1.1-0.2,1.6c0.4,0.8,1.2,2.9,0.7,3.8c-0.2,0.4-0.8,0.6-1.6,0.6c-1.2,0.1-2.1-0.2-2.7-0.8
			C-685.7,25-685.7,23.2-685.7,23.2z"/>
		<path d="M-682.9,53.7c0.6,0.8,1.2,1.7,1.9,2.4C-681.6,55.4-682.1,54.6-682.9,53.7z"/>
		<path d="M-605.4,44.9L-605.4,44.9c0,0.1,0,0.1,0,0.2L-605.4,44.9z"/>
		<path d="M-605.3,46.7c0-0.5,0-1.1-0.1-1.6l-0.1,3.4C-605.4,47.9-605.3,47.3-605.3,46.7z"/>
		<path d="M-680.9,56.2C-680.9,56.2-680.9,56.2-680.9,56.2C-680.9,56.2-680.9,56.2-680.9,56.2C-680.9,56.2-680.9,56.2-680.9,56.2z"
			/>
		<path d="M-595.2,26.8c0.6-1.8,0.4-4.6-3.7-7.6c-2.6-1.9-5-2.5-7.2-1.7c-1.6,0.6-2.6,1.8-3.4,3c-1-1.5-2.6-2.7-4.5-3.2
			c-1.9-0.5-5.7-0.6-9.7,4.6c-0.8,1-1.3,2.1-1.4,3.1c-0.1,0.4-0.1,0.8-0.1,1.2c0-0.4,0-0.8,0.1-1.2c-10.8-3.3-22.2-3.3-22.9-3.2
			c0,0-0.1,0-0.1,0c-4.5,0-22,0-31.5,8.8c-3.4,3.2-5.4,7.4-5.8,11.4h0c0,1,0,0,0,0h0l-0.1,0.4l0,1.3l-0.1,1c0,0.3,0,0.7,0,1.1l0,0.2
			c0,0,0,0.1,0,0.1l-0.4,25.1c-0.1,0.3-0.1,0.5,0,0.8l-0.3,17.6c0,0-0.1,4,2.2,6.3c2.5,2.5,8.7,12.5,37.3,13.3c0.4,0,0.9,0,1.3,0
			c29.8,0.6,36.6-9.8,36.6-9.8s2.5-2.9,2.6-7.8l0.7-43.1l0.1-3.4c0-0.1,0-0.1,0-0.2c-0.1-0.8-0.2-1.5-0.3-2.2c-0.2-1-0.5-2.1-0.8-3
			c0.4,1,0.6,2,0.8,3c0.1-0.7,0.1-1.5-0.1-2.2c1.6,0.5,3.7,0.7,5.5,0c1.1-0.5,2.5-1.5,3.2-3.9c0.7-2.3,0.4-4.2-0.7-5.4
			c-0.2-0.2-0.3-0.3-0.5-0.5C-596.9,29.7-595.7,28.4-595.2,26.8z M-682.8,43.9c0-0.5,0-0.9,0.1-1.9h0c0.4-3,2.1-6.5,5-9.2
			c9.6-9,29.6-8,30.6-8c0,0,0,0.1,0,0.1c0.1,0-0.1,0,0,0c3.3,0.1,13.1,0.5,22.1,3.4v0c1,1.5,2.2,2.6,3.5,3.4
			c-1.5,0.8-2.6,2.2-3.3,3.8c-0.9,2.4-0.3,4.9,1.7,6.6c1.7,1.5,3.3,1.6,4.3,1.5c1.1-0.2,2-0.7,2.8-1.2c0.3,0.7,0.7,1.4,1.3,2
			c1,1,2.4,1.5,4,1.6c0.2,0,0.5,0,0.7,0c0.8,0,1.4-0.2,1.9-0.4c0.1,0.4,0.1,0.6,0.1,1c0,0.5-0.1,1.5-0.1,1.5h-0.1v0.3
			c0,3.1-1.8,5.8-4.2,8.1c-8.6,8-27.5,8.1-33.3,8c-0.2-0.1-0.4-0.3-0.6-0.3c0,0,0,0,0,0c-0.2,0-23.3-0.1-32.7-9.9
			c-2.4-2.5-3.7-5.4-3.9-9C-682.8,45.1-682.8,44.3-682.8,43.9z M-646.1,106.4l0-0.2l-0.4,0c-24.9-0.7-31.7-8.2-34.6-11.4
			c-0.3-0.4-0.6-0.6-0.9-0.9c-1.2-1.2-1.4-3.5-1.4-4.3l0-1.8l0.2-12.4c4.3,4.1,14.8,11.1,38.1,11.7c22.7,0.7,32.6-6.7,36.6-11.4
			l-0.3,15.9c-0.1,3.8-1.9,6.1-2,6.2l-0.1,0.1l-0.1,0.2c-0.2,0.2-1.9,2.4-6.6,4.4c-4.7,2.1-13.2,4.4-27.6,4.2
			C-645.6,106.5-646.1,106.4-646.1,106.4z M-683.2,75.3C-683.2,75.3-683.2,75.3-683.2,75.3l-0.2,11.5L-683.2,75.3z M-682.9,53.4
			c0.7,0.8,1.2,1.8,1.9,2.6c0,0,0,0.1,0.1,0.2c0,0,0,0.1,0.1,0.1c9.2,9.5,29.1,10.7,33.7,10.8c0.3,0,0.7,0,1.3,0.1
			c3.7,0.1,12.8,0.1,21.5-2.1c5.2-1.3,10.3-3.4,13.9-6.7c0.8-0.7,1.3-1.5,2.2-2.3l0-0.2l0,0.2l-0.2,14.5c0,0.1-0.1,0.2-0.1,0.3
			c0,0-1.4,3.6-6.5,7.1c-4.8,3.2-13.8,7-30,6.5c-27.9-0.8-36.6-11-38.1-13l0.3-17.7C-682.9,53.7-682.9,53.4-682.9,53.4
			c0,0-0.1-0.4-0.1-0.4h0v0.7l-0.2,17.7c0,0,0,0,0,0L-682.9,53.4c-0.1-0.1,0-0.4,0-0.4h0C-682.9,53-682.9,53.4-682.9,53.4z
			 M-685.4,44.9c0,0.4,0,0.8,0,1.2c0-0.3,0-0.7,0-1L-685.4,44.9z M-682.9,53.7c0,0-0.1-0.1-0.1-0.1l0-0.1
			C-683,53.5-682.9,53.6-682.9,53.7z M-685.4,44L-685.4,44C-685.4,44-685.4,44-685.4,44l0,0.8c0,0,0,0,0,0L-685.4,44
			c0,0.1,0,0.2,0,0.3c0,0,0,0,0,0C-685.4,44.2-685.4,44.2-685.4,44z M-683,53.5c-1.6-2-2.1-4.1-2.3-6.4
			C-685.1,49.4-684.6,51.6-683,53.5z M-610.7,97.7l-0.1,0.1l-0.1,0.2c-0.2,0.2-1.9,2.4-6.6,4.4c-4.7,2.1-13.1,4.5-27.5,4.2
			c0,0-0.1,0-0.1,0c14.3,0.3,22.9-2.1,27.6-4.2c4.7-2.1,6.5-4.2,6.6-4.4l0.1-0.2L-610.7,97.7c0.1-0.1,1.9-2.3,2-6.2
			C-608.8,95.4-610.7,97.6-610.7,97.7z M-597.8,26c-0.6,1.9-3.2,3.3-4.6,3.6c-0.2,0-0.4,0-0.5,0.1c-0.7,0.1-1.2,0.8-1.1,1.5
			c0.1,0.7,0.7,1.2,1.4,1.2c0.2,0,0.3,0,0.5,0c0.7,0,1.8,0,2.4,0.7c0.6,0.7,0.4,2,0.1,2.9c-0.3,1.1-0.8,1.8-1.6,2.1
			c-1.9,0.8-5.1-0.4-6.1-1c-0.1-0.1-0.3-0.1-0.4-0.1c-0.4-0.1-0.8,0.1-1.1,0.4c-0.4,0.4-0.5,1.1-0.2,1.6c0.4,0.8,1.2,2.8,0.7,3.7
			c0,0,0,0,0,0c-0.2,0.4-0.8,0.6-1.6,0.6c-1.2,0.1-2.1-0.2-2.7-0.8c-1.1-1.1-1.1-2.9-1.1-2.9c0-0.6-0.4-1.1-0.9-1.3
			c-0.1,0-0.2-0.1-0.4-0.1c-0.5,0-0.9,0.2-1.2,0.6c-0.3,0.5-1.5,1.9-2.8,2.1c-0.7,0.1-1.4-0.2-2.1-0.8c-1.5-1.4-1.2-2.9-0.9-3.6
			c0.6-1.6,2.4-3.1,4.7-3c0.7,0,1.2-0.5,1.4-1.1c0-0.1,0-0.1,0-0.2c0-0.6-0.3-1.1-0.9-1.3c-1.2-0.4-4.6-2-5.3-4.1
			c-0.1-0.3-0.1-0.5-0.1-0.8c0-0.7,0.3-1.5,1-2.4c2.3-3,4.6-4.3,6.9-3.7c2.1,0.6,3.6,2.5,3.9,4.2c0.1,0.6,0.6,1,1.3,1c0,0,0,0,0,0
			c0.6,0,1.2-0.2,1.3-0.9c0,0,0.8-3.3,3-4.1c1.2-0.5,2.8,0,4.6,1.4C-598.2,23-597.4,24.5-597.8,26z"/>
	</g>
	<path d="M-429.9-535.4c-7.2-16.8-21.6-17.2-28.2-15.1c-0.7,0.2-7.4,2.3-11.3,9.3c-3.4,6.2-3.7,14.2-0.7,23.8
		c2.8,9.1,7.4,15.2,13.7,18.1c4.6,2.1,9,2,12.2,1.5c2.4-0.4,4.1-1,4.5-1.2c1-0.3,8.1-2.9,11.7-10.6
		C-424.8-516.5-425.5-525.2-429.9-535.4z M-454.7-502.9c-5.2-2.4-9-7.6-11.5-15.6c-2.6-8.5-2.5-15.5,0.3-20.7c2.2-4,5.5-6,7.4-6.9
		l15.6,43.9C-445.4-501.5-450-500.8-454.7-502.9z M-431.6-511.4c-2,4.4-5.5,6.7-7.6,7.8l-15.5-43.6c4.6-0.6,15.1-0.4,21.1,13.4
		C-429.6-524.7-429-517.2-431.6-511.4z"/>
	<path d="M-480.3-516.6c7.3-16.7-2.1-27.5-8.2-30.9c-0.7-0.4-6.7-3.9-14.5-1.9c-6.9,1.7-12.9,7-17.9,15.8
		c-4.7,8.3-6.1,15.8-3.9,22.3c1.6,4.8,4.7,8,7.3,10c1.9,1.5,3.5,2.3,4,2.5c0.9,0.5,7.7,3.9,15.7,1.3
		C-490.6-500-484.7-506.4-480.3-516.6z M-521-512.6c-1.8-5.4-0.6-11.8,3.6-19.1c4.4-7.7,9.6-12.4,15.3-13.8
		c4.4-1.1,8.1-0.1,10.1,0.7l-21.5,41.3C-515.6-504.8-519.3-507.7-521-512.6z M-499-501.5c-4.5,1.5-8.6,0.6-10.9-0.2l21.3-41
		c3.6,2.9,10.6,10.8,4.6,24.5C-487.9-509.1-493-503.5-499-501.5z"/>
	<path d="M-456.6-476c2.7-18.1-9.3-26-16-27.7c-0.7-0.2-7.5-2-14.5,1.9c-6.2,3.5-10.6,10.2-13.2,19.9c-2.4,9.2-1.7,16.8,2.1,22.6
		c2.8,4.2,6.6,6.5,9.6,7.7c2.2,0.9,4,1.3,4.5,1.3c1,0.2,8.4,1.8,15.5-2.9C-462.2-457.3-458.2-465-456.6-476z M-494.8-461.5
		c-3.1-4.7-3.7-11.2-1.6-19.3c2.2-8.6,6-14.5,11.2-17.4c3.9-2.2,7.8-2.2,9.9-1.9l-9.9,45.5C-487.6-455.4-492-457.2-494.8-461.5z
		 M-470.7-456.5c-4,2.7-8.2,2.8-10.6,2.6l9.8-45.2c4.3,1.9,13.1,7.6,10.9,22.5C-462-466.8-465.4-460-470.7-456.5z"/>
	<g>
		<g>
			<path d="M-472.9-642.2c-0.5,0-0.9-0.2-1.3-0.5c-2.9-2.5-5.1-5.4-6.4-8.7c-2.5-6.4-1.8-13.7,2.2-21.7c4.3-8.7,9.9-14.3,16.5-16.5
				c4.8-1.6,9.1-1.1,11.9-0.3c0.2,0,0.3,0,0.5,0.1c0,0,0.3,0.1,0.6,0.2c0.3,0.1,0.6,0.2,0.8,0.3c0.5,0.2,0.9,0.7,1.1,1.2
				c0.2,0.5,0.1,1.1-0.1,1.6l-24.1,43.2c-0.3,0.5-0.8,0.9-1.4,1C-472.7-642.2-472.8-642.2-472.9-642.2z M-455.5-686.7
				c-1.5,0-3.3,0.2-5.1,0.8c-5.6,1.9-10.4,6.7-14.2,14.5c-3.4,7-4.1,13.2-2,18.5c0.8,2,1.9,3.8,3.4,5.4l21.7-38.8
				C-452.8-686.5-454.1-686.7-455.5-686.7z"/>
			<path d="M-459.9-637.3c-3,0-5.7-0.6-7.4-1.2c-0.1,0-0.2-0.1-0.3-0.1c0,0-0.2-0.1-0.3-0.1c-1.3-0.5-2.2-0.9-2.3-1
				c-0.3-0.1-0.5-0.3-0.7-0.6c-0.8-0.6-1-1.7-0.5-2.6l24.2-43.3c0.3-0.5,0.8-0.9,1.3-1c0.6-0.1,1.2,0,1.6,0.4
				c2.7,2.1,4.8,4.7,6.3,7.7l0,0c3.1,6.4,3,14.1-0.1,23.1c-3.2,9-8.1,14.9-14.6,17.4C-454.9-637.7-457.3-637.3-459.9-637.3z
				 M-466.4-642.4c0,0,0.1,0,0.1,0c1.5,0.5,3.7,1.1,6.4,1.1c2,0,4-0.4,5.8-1.1c5.4-2.1,9.5-7.1,12.2-15c2.8-7.9,2.9-14.6,0.3-20
				c0,0,0,0,0,0c-0.8-1.8-2-3.3-3.4-4.7l-22,39.4c0.1,0.1,0.3,0.1,0.4,0.2C-466.5-642.5-466.4-642.4-466.4-642.4L-466.4-642.4z"/>
		</g>
		<g>
			<path d="M-408.2-632.7c-0.1,0-0.2,0-0.3,0c-3.8-0.5-7.2-1.9-10-4c-5.5-4-8.8-10.6-9.8-19.5c-1-9.7,0.7-17.4,5.2-22.8
				c3.2-3.9,7.1-5.7,9.9-6.6c0.1-0.1,0.3-0.1,0.4-0.2c0.1,0,0.3-0.1,0.6-0.1c0.4-0.1,0.6-0.1,0.9-0.2c0.6-0.1,1.1,0.1,1.6,0.4
				c0.4,0.4,0.7,0.9,0.8,1.5l2.7,49.4c0,0.6-0.2,1.2-0.6,1.6C-407.2-632.9-407.7-632.7-408.2-632.7z M-412.8-681.6
				c-2.2,0.7-4.9,2.2-7.3,5.1c-3.8,4.6-5.2,11.3-4.3,19.8c0.8,7.7,3.6,13.3,8.1,16.7c1.7,1.3,3.7,2.2,5.8,2.8L-412.8-681.6z"/>
			<path d="M-403.7-632.4c-0.2,0-0.5,0-0.7-0.1c-1-0.1-1.8-0.9-1.8-1.9l-2.7-49.5c0-0.6,0.2-1.1,0.6-1.6c0.4-0.4,1-0.6,1.6-0.5
				c3.4,0.3,6.6,1.4,9.4,3.2c6,3.7,10.1,10.3,12.2,19.5c2.1,9.3,1.1,16.9-3,22.5c-1.5,2-3.3,3.6-5.4,5c-2.6,1.6-5.1,2.5-6.9,2.9
				c-0.1,0-0.2,0.1-0.3,0.1c0,0-0.2,0-0.3,0.1c-1.4,0.3-2.3,0.4-2.5,0.4C-403.6-632.4-403.6-632.4-403.7-632.4z M-404.8-681.7
				l2.4,45.1c0.1,0,0.3-0.1,0.5-0.1c0,0,0.1,0,0.1,0l0.1,0c0,0,0.1,0,0.1,0c1.5-0.4,3.7-1.1,6-2.5c1.7-1.1,3.2-2.4,4.3-4
				c3.4-4.6,4.2-11.1,2.3-19.2c-1.9-8.2-5.4-13.9-10.5-17h0C-401-680.5-402.8-681.3-404.8-681.7z"/>
		</g>
		<g>
			<path d="M-448-596.5c-0.4,0-0.7-0.1-1-0.3c-3-1.8-5.3-4.1-7-6.9c-3.2-5.3-3.6-12-1.3-19.7c2.5-8.4,6.7-14.2,12.3-17.2
				c4.1-2.2,7.9-2.3,10.6-2c0.1,0,0.3,0,0.4,0c0,0,0.3,0,0.6,0.1c0.3,0.1,0.6,0.1,0.8,0.2c0.6,0.1,1,0.5,1.3,1
				c0.3,0.5,0.3,1.1,0.1,1.6l-15,41.8c-0.2,0.6-0.6,1-1.2,1.2C-447.5-596.6-447.7-596.5-448-596.5z M-436.4-638.7
				c-1.9,0-4.2,0.4-6.7,1.7c-4.7,2.5-8.1,7.4-10.4,14.8c-2,6.6-1.7,12.2,0.9,16.5c0.9,1.5,2.1,2.9,3.6,4.1l13.3-37
				C-435.9-638.7-436.2-638.7-436.4-638.7z"/>
			<path d="M-438.7-593.8c-1.3,0-2.5-0.1-3.4-0.3c-0.1,0-0.2,0-0.3,0l-0.3-0.1c-1.3-0.2-2.1-0.5-2.2-0.6c-0.3-0.1-0.5-0.2-0.7-0.4
				c-0.8-0.5-1.2-1.5-0.9-2.4l15-41.9c0.2-0.5,0.6-1,1.2-1.2c0.5-0.2,1.2-0.2,1.7,0.1c2.7,1.5,5,3.5,6.8,6l0,0
				c3.7,5.2,4.8,12.2,3.3,20.6c-1.5,8.5-5,14.5-10.4,17.7c-1.9,1.1-4,1.9-6.3,2.3C-436.5-593.9-437.7-593.8-438.7-593.8z
				 M-441.8-598.1c0,0,0.1,0,0.1,0c1.3,0.2,3.4,0.4,5.7,0c1.8-0.3,3.4-0.9,4.9-1.8c4.4-2.6,7.3-7.6,8.5-14.9
				c1.3-7.3,0.4-13.3-2.7-17.6v0c-0.9-1.3-2.1-2.5-3.4-3.5l-13.5,37.7c0.1,0,0.1,0,0.2,0C-441.9-598.1-441.9-598.1-441.8-598.1
				L-441.8-598.1z"/>
		</g>
	</g>
</g>
<g id="レイヤー_2">
	<g>
		<path d="M95.5-497c0-0.6,0-1.2,0-1.8c0-47.1-33.2-54.6-42.8-55.8c-0.3-0.1-0.6-0.2-0.9-0.2c0,0-0.3-0.1-0.8-0.1
			c-0.5,0-0.8-0.1-0.8-0.1c0,0,0,0,0,0c-0.3,0-0.6,0.2-0.9,0.3c-8.9,1.1-38.2,7.7-42.3,46.5c-0.2,1.4-0.3,2.9-0.3,4.5
			c-0.1,1.6-0.1,3.2-0.1,4.9c0,17.9,5,31.3,14.8,39.8c9.8,8.5,21.8,9.8,28.4,9.8c0.5,0,0.9,0,1.3,0c0.4,0,0.8,0,1.3,0
			c6.7,0,18.7-1.4,28.4-9.8c8.2-7.1,13-17.7,14.4-31.5l0,0C95.3-491.8,95.5-494.2,95.5-497z M51-550.8c6.1,0.4,40.5,4.8,40.5,51.9
			l0,0c0,0.1,0,0.1-0.1,0.2l-0.3-0.2L79-509.6c-0.8-0.7-1.8-0.7-2.5,0.1l-14,13.4L47.1-509c-0.8-0.6-1.9-0.6-2.6,0l-15.6,13.7
			l-18.1-10.6C14-546.4,45.2-550.4,51-550.8z M78.2-462c-7.5,6.5-16.6,8.3-22.9,8.7c-0.3-0.1-0.7-0.2-1-0.1c0,0-1.2,0.2-3.2,0.2
			c-2,0-3.2-0.2-3.2-0.2c-0.4,0-0.7,0-1,0.1c-6.3-0.4-15.5-2.2-22.9-8.7c-8.9-7.7-13.3-20.1-13.3-36.8c0-0.9,0-1.7,0-2.6l17.6,10.3
			c0.7,0.4,1.7,0.3,2.3-0.2l15.4-13.5l15.4,12.9c0.8,0.7,1.9,0.6,2.7-0.1l14-13.4l13.3,11.7l0.2,0.1C90.5-479.5,86.1-468.9,78.2-462
			z"/>
	</g>
</g>
<g id="レイヤー_3">
	<g>
		<path d="M266.8-501.1c1.8-0.9,3.8-2.3,5.5-4.7c2.9-4.2,3.6-9.9,2.1-17c-0.1-0.6-0.5-1.1-1-1.3c-0.3-0.2-7.2-3.8-14-0.7
			c-4.2,1.9-7.3,5.9-9.2,11.9c-3-1.7-8.6-4.7-15.8-7.4c-9.8-3.6-24.4-7.2-37.9-3.5c-11.7,3.2-20.9,11.1-27.3,23.5
			c-0.2,0.5-0.3,1-0.1,1.4c-0.2,0.7,0,1.4,0.5,1.9c13.7,13.9,28.9,18.9,41.9,18.9c4.7,0,9.1-0.5,13-1.3c12.4-2.4,21.9-7.5,25.8-9.7
			c9.6,15.8,21,9.8,21.2,9.8c0.5-0.3,0.9-0.8,1-1.3c1.5-7.1,0.8-12.8-2.1-17C269.2-499.1,268-500.2,266.8-501.1z M268.6-482.5
			c-2.3,0.7-9.4,1.7-16-10.3c-0.3-0.5-0.7-0.8-1.3-1c-0.5-0.1-1.1,0-1.6,0.3c-0.1,0.1-11.2,7.4-26.3,10.3
			c-19.7,3.8-36.6-2.1-50.5-15.8c5.8-11,14-18.1,24.4-20.9c12.5-3.4,26.2,0,35.4,3.4c10.1,3.7,17.4,8.4,17.4,8.4
			c0.5,0.4,1.2,0.4,1.8,0.2c0.6-0.2,1-0.8,1.2-1.4c1.5-6.2,4-10.1,7.6-11.8c3.8-1.7,7.9-0.5,9.7,0.2c1,5.5,0.5,9.8-1.6,12.8
			c-2.5,3.6-6.4,4.3-6.4,4.3c-0.3,0.1-0.6,0.2-0.9,0.4c-0.3-0.1-0.5-0.1-0.5-0.1c-1.1-0.2-2.1,0.6-2.3,1.7s0.6,2.1,1.7,2.3
			c0,0,3.9,0.7,6.4,4.2C269.1-492.2,269.6-487.9,268.6-482.5z"/>
		<circle cx="193.9" cy="-503.3" r="4.5"/>
	</g>
</g>
<g id="レイヤー_4">
	<path d="M-257.9-498.8c-0.8-0.8-2.8-1.3-4.1-1.2h-31.4c0.8-4,1.9-9.3,1.5-15.1l27.6-0.5c0.5,0,2.3,0,3.4-0.8
		c2.5-1.7,2.7-3.8,2.3-5.7c-0.7-2.9-3.8-4-4.5-4.1c-0.2,0-1.8,0-2,0l-29.6,1.3c-0.3-0.6-0.7-1.1-1.1-1.6c-2.3-2.9-6.8-1.2-8.7-0.2
		c-0.3-0.4-0.7-0.8-1-1.2c-2.2-2.2-5.7-0.9-7.7,0.3c-0.1-0.1-0.2-0.2-0.3-0.3c-0.8-0.8-1.6-1.2-2.6-1.3l50.1-14.9
		c1-0.3,1-0.5,1.4-0.8c2.1-1.6,1.7-4.7,0.8-6.5c-1.4-2.6-4.5-2.8-5.5-2.6c-0.2,0-0.4,0-0.6,0.1l-76.7,25.5c-0.2,0.1-0.4,0.2-0.6,0.3
		c-0.8,0.6-3.2,2.4-2.6,4.8c0.3,1.1,1.1,1.8,2,2.2c-0.6,0.6-1.2,1.4-1.2,2.4c0,3,2.5,4,3,4.2c0.3,0.1,1.2,0.5,1.8,0.5
		c0,0,16.1-0.2,16.1-0.2c0.6,3.3,0.8,7.2,0.3,14.2h-25.7c-3.2,0-4.5,0.5-5.2,1.4c-0.9,1-1,1.6-1,4.4c0,0.6,0.1,1.3,0.2,2.2
		c0.9,8,2.7,29,27.7,33.3c0,0,0,2.8,0,3.8c0,0.7,0.2,1.2,0.3,1.4c0.6,2,3.6,5.6,7.7,5.6h32.4c4.2,0,5.1-3.6,5.6-5.6
		c0-0.1,0.1-1.3,0.1-1.4v-3.8c26-4.3,28-25.4,28.9-33.5c0.1-0.9,0.2-1.4,0.3-2C-256.4-497.1-257.1-497.9-257.9-498.8z M-264.2-522.2
		c0.8,0,1.7-0.2,1.8,0.9c0.1,1.5-0.7,1.5-1.2,1.6l-29,0.4c-0.1-0.5-0.3-1.1-0.4-1.6L-264.2-522.2z M-301.1-524.8
		c0.8-0.7,2-0.7,2.8,0.1c0.6,0.6,5.7,6.6,1.1,23.4c-0.2,0.9-1,1.5-1.9,1.5c-0.2,0-0.4,0-0.5-0.1c-1.1-0.3-1.7-1.4-1.4-2.5
		c4.1-14.6-0.1-19.6-0.1-19.6C-301.9-522.8-301.9-524-301.1-524.8z M-310.9-526.1c0.7-0.8,2-0.9,2.8-0.1c0.3,0.3,7.7,7.2,3.6,24.8
		c-0.2,0.9-1,1.5-1.9,1.5c-0.2,0-0.3,0-0.5-0.1c-1.1-0.3-1.7-1.3-1.5-2.4c3.6-15-2.2-20.7-2.4-20.9
		C-311.6-524-311.6-525.3-310.9-526.1z M-312.5-500.5c-0.3,0.8-1.1,1.4-1.9,1.4c-0.2,0-0.4,0-0.6-0.1c-1.1-0.3-1.6-1.5-1.3-2.5
		c4.8-14.8-3.4-22-3.7-22.3c-0.8-0.7-1-2-0.2-2.8c0.7-0.8,2-1,2.8-0.3C-317-526.8-306.8-518.1-312.5-500.5z M-345.1-524.8L-269-550
		c1.1-0.4,1.7,0.3,1.8,0.5c0,0.1,0.7,1.3-0.7,1.7L-345.1-524.8C-345.1-524.8-345.1-524.8-345.1-524.8z M-331.8-523.3l-5,0.2l4.2-1.2
		C-332.5-523.9-332.2-523.6-331.8-523.3z M-345.3-518.5c0.2-0.4,14.1-1.7,14.1-1.7s0.2,0,0.5,1
		C-330.6-519.2-345.5-518.1-345.3-518.5z M-328-522.2c-0.8-0.7-0.9-2-0.1-2.8c0.7-0.8,2-0.9,2.8-0.1c0.3,0.3,8.3,7.9,4.4,25.1
		c-0.2,0.9-1,1.6-1.9,1.6c-0.1,0-0.3,0-0.4,0c-1.1-0.2-1.8-1.3-1.5-2.4C-321.4-515.9-328-522.1-328-522.2z M-260.4-495
		c0,0.7-0.1,1.4-0.2,2.3c-0.9,8.1-3.5,27-27.2,30.2c-1,0.1-2.2,1-2.2,2v5.2c0,0.6,0.2,3.3-1.6,3.3H-324c-1.8,0-3-2.2-3.6-3.2
		c-0.6-1.1-0.4-5.2-0.4-5.2c0-1-0.2-1.8-1.2-2c-23.6-3.2-25.3-21.4-26.2-30.1c-0.1-1-0.2-1.3-0.2-2c0-0.8,0-0.9,0-1
		c0.2-0.3,0.2-0.4,0.6-0.4c0.2,0,0.7,0,1,0h57.9h0.1h33.5c0.2,0,0.9,0,1.3,0c0.1,0,0.3,0,0.5,0.1
		C-260.4-495.7-260.3-495.8-260.4-495z"/>
</g>
<g id="レイヤー_5">
	<path d="M429.5-517.3c-9.7-17.6-26.3-18.5-36-17.3c0-2.9,0-6-0.2-8.8c0-0.2-0.1-0.4-0.1-0.6c-0.1-0.3-1.3-3.3-4.5-4.2
		c-0.3-0.1-3.1-0.9-5.6,0.6c-1.1,0.7-2.6,2.2-3.1,5.2c0,0.1,0,0.2,0,0.3v7.6c-9-0.8-23.9,0.9-33.2,17.2c-8.2,14.2-4.6,37.8,7.8,51.4
		c6.1,6.8,13.7,10.2,21.7,10.2c3.9,0,7.9-0.8,11.9-2.5c4.2,1.8,8.4,2.7,12.4,2.7c7.7,0,14.8-3.3,20.7-9.7
		C433.9-478.6,437.6-502.5,429.5-517.3z M384-530v-4v-7.9c0.1-1.5,0.6-1.9,1.2-2.3c0.8-0.5,1.9-0.3,2.3-0.2c1,0.3,1.6,0.4,1.8,1.6
		c0.1,3,0.2,6.2,0.1,9c0,1.6-0.1,3-0.2,4.1c-0.1,1.2-0.2,2-0.4,2.6c-1.1,1.4-4.1,0.2-4.2,0.1c-0.1-0.1-0.2-0.1-0.4-0.2
		c-0.2-0.3-0.3-0.6-0.3-1V-530z M418.5-467.9c-7.7,8.3-17.7,10.5-28.2,6.2c-0.5-0.8-1.6-1.1-2.5-0.7c-0.1,0-0.1,0.1-0.2,0.1
		c-0.1,0-0.3,0.1-0.4,0.2c-14.8,6.4-24.9-1.3-29.7-6.5c-11.4-12.5-14.7-33.9-7.3-46.8c8.5-14.8,21.8-16.1,29.8-15.3v2.2
		c0,1.5,0.7,4.2,3.1,4.9c1.1,0.5,2.5,0.9,4.1,0.9c1.8,0,3.6-0.6,4.9-2.4c0.6-0.9,1-3,1.2-5.6c2.4-0.4,5.4-0.6,8.7-0.4
		c10.7,0.8,18.8,6,24,15.5C433.2-502.2,429.7-480,418.5-467.9z"/>
	<path d="M85.9,104.6c-0.3,0-0.6-0.1-0.9-0.2L55,88.6l-30,15.8c-0.7,0.4-1.5,0.3-2.1-0.2c-0.6-0.4-0.9-1.2-0.8-2l5.7-33.4L3.6,45.2
		c-0.5-0.5-0.7-1.3-0.5-2.1c0.2-0.7,0.9-1.3,1.6-1.4l33.5-4.9l15-30.4c0.3-0.7,1-1.1,1.8-1.1s1.5,0.4,1.8,1.1l15,30.4l33.5,4.9
		c0.8,0.1,1.4,0.6,1.6,1.4c0.2,0.7,0,1.5-0.5,2.1L82.1,68.8l5.7,33.4c0.1,0.8-0.2,1.5-0.8,2C86.7,104.4,86.3,104.6,85.9,104.6z
		 M55,84.3c0.3,0,0.6,0.1,0.9,0.2l27.3,14.4L78,68.5c-0.1-0.6,0.1-1.3,0.6-1.8l22.1-21.5l-30.5-4.4c-0.7-0.1-1.2-0.5-1.5-1.1L55,12
		L41.3,39.6c-0.3,0.6-0.9,1-1.5,1.1L9.3,45.2l22.1,21.5c0.5,0.5,0.7,1.1,0.6,1.8l-5.2,30.4l27.3-14.4C54.4,84.4,54.7,84.3,55,84.3z"
		/>
</g>
</svg>
