<?xml version="1.0" encoding="utf-8"?>
<!-- Generator: Adobe Illustrator 19.1.0, SVG Export Plug-In . SVG Version: 6.00 Build 0)  -->
<svg version="1.1" xmlns="http://www.w3.org/2000/svg" xmlns:xlink="http://www.w3.org/1999/xlink" x="0px" y="0px"
	 viewBox="0 0 110 110" style="enable-background:new 0 0 110 110;" xml:space="preserve">
<style type="text/css">
	.st0{fill:none;}
</style>
<g id="レイヤー_1">
	<g>
		<path d="M48.1,43.7c2.3,0.3,4.4-1,5.3-3.3c0.3-0.9,1.5-2.2,3.1-2.5c1.4-0.2,2.9,0.5,4.4,2.2c0.1,0.1,0.3,0.6,0.4,1
			c0.4,1.3,1.2,3.7,4.2,3.8c0.5,0,1.1,0,1.8-0.2c2.3-0.5,3.7-2.8,3.4-5.6c-0.4-4.4-4.5-9.1-12.8-9.7c-4.9-0.3-8.9,0.9-11.4,3.4
			c-1.8,1.8-2.6,4.1-2.4,6.5C44.1,41.6,45.8,43.4,48.1,43.7z M48.3,34.7c2-2,5.3-2.9,9.3-2.6c7.7,0.6,10.1,4.8,10.3,7.3
			c0.1,1.2-0.3,2.5-1.4,2.8c-2.1,0.5-2.3-0.2-2.9-1.8c-0.2-0.7-0.5-1.4-0.9-1.9c-2.1-2.4-4.1-3.2-5.7-3.2c-0.4,0-0.8,0-1.2,0.1
			c-2.6,0.4-4.5,2.5-5.1,4.2c-0.7,1.7-2,1.7-2.4,1.6c-0.8-0.1-1.7-0.8-1.8-2C46.5,37.5,47.1,35.9,48.3,34.7z"/>
		<path d="M19.2,29.5c2.3-0.1,3.3-1.2,3.8-2c0.6-1.1,0.6-2.3,0.4-3.4c1.6,0.5,3.7,0.7,5.5,0c1.1-0.5,2.5-1.5,3.2-3.9
			c0.7-2.3,0.4-4.2-0.7-5.4c-0.2-0.2-0.3-0.3-0.5-0.5c1.4-0.9,2.6-2.3,3-3.8c0.6-1.8,0.4-4.6-3.7-7.6c-2.6-1.9-5-2.5-7.2-1.7
			c-1.6,0.6-2.6,1.8-3.4,3c-1-1.5-2.6-2.7-4.5-3.2c-1.9-0.5-5.7-0.6-9.7,4.6c-1.4,1.9-1.9,3.7-1.3,5.6c0.6,1.8,2.1,3.2,3.6,4.2
			c-1.5,0.8-2.8,2.2-3.4,3.8c-0.9,2.4-0.3,4.9,1.7,6.6c1.7,1.5,3.3,1.6,4.3,1.5c1.1-0.2,2-0.7,2.8-1.2c0.3,0.7,0.7,1.4,1.3,2
			c1,1,2.4,1.5,4,1.6C18.7,29.5,19,29.5,19.2,29.5z M15.3,23.2c0-0.6-0.4-1.1-0.9-1.3c-0.1,0-0.2-0.1-0.4-0.1
			c-0.5,0-0.9,0.2-1.2,0.6c-0.3,0.5-1.5,1.9-2.8,2.1c-0.7,0.1-1.4-0.2-2.1-0.8c-1.5-1.4-1.2-2.9-0.9-3.6c0.6-1.6,2.4-3.1,4.7-3
			c0.7,0,1.2-0.5,1.4-1.1c0.1-0.7-0.3-1.3-0.9-1.5C11,14,7.5,12.5,6.8,10.3c-0.3-0.9,0-2,0.9-3.1c2.3-3,4.6-4.2,6.9-3.7
			c2.1,0.6,3.6,2.7,3.9,4.3C18.5,8.5,19,9,19.7,9c0.7,0,1.2-0.4,1.4-1c0,0,0.8-3.5,3-4.3c1.2-0.5,2.8,0,4.6,1.3
			c2.2,1.6,3.1,3.2,2.7,4.6c-0.6,1.9-3.2,3.3-4.6,3.5c-0.2,0-0.4,0-0.5,0.1c-0.7,0.1-1.2,0.7-1.1,1.5c0.1,0.7,0.7,1.2,1.4,1.2
			c0.2,0,0.3,0,0.5,0c0.7,0,1.8,0,2.4,0.7c0.6,0.7,0.4,2,0.1,2.9c-0.3,1.1-0.8,1.8-1.6,2.1c-1.9,0.8-5.1-0.4-6.1-1
			c-0.5-0.3-1.2-0.2-1.6,0.2c-0.4,0.4-0.5,1.1-0.2,1.6c0.4,0.8,1.2,2.9,0.7,3.8c-0.2,0.4-0.8,0.6-1.6,0.6c-1.2,0.1-2.1-0.2-2.7-0.8
			C15.3,25,15.3,23.2,15.3,23.2z"/>
		<path d="M18.1,53.7c0.6,0.8,1.2,1.7,1.9,2.4C19.4,55.4,18.9,54.6,18.1,53.7z"/>
		<path d="M95.6,44.9L95.6,44.9c0,0.1,0,0.1,0,0.2L95.6,44.9z"/>
		<path d="M95.7,46.7c0-0.5,0-1.1-0.1-1.6l-0.1,3.4C95.6,47.9,95.7,47.3,95.7,46.7z"/>
		<path d="M20.1,56.2C20.1,56.2,20.1,56.2,20.1,56.2C20.1,56.2,20.1,56.2,20.1,56.2C20.1,56.2,20.1,56.2,20.1,56.2z"/>
		<path d="M105.8,26.8c0.6-1.8,0.4-4.6-3.7-7.6c-2.6-1.9-5-2.5-7.2-1.7c-1.6,0.6-2.6,1.8-3.4,3c-1-1.5-2.6-2.7-4.5-3.2
			c-1.9-0.5-5.7-0.6-9.7,4.6C76.6,23,76.2,24,76,25c-0.1,0.4-0.1,0.8-0.1,1.2c0-0.4,0-0.8,0.1-1.2c-10.8-3.3-22.2-3.3-22.9-3.2
			c0,0-0.1,0-0.1,0c-4.5,0-22,0-31.5,8.8c-3.4,3.2-5.4,7.4-5.8,11.4h0c0,1,0,0,0,0h0l-0.1,0.4l0,1.3l-0.1,1c0,0.3,0,0.7,0,1.1l0,0.2
			c0,0,0,0.1,0,0.1l-0.4,25.1c-0.1,0.3-0.1,0.5,0,0.8l-0.3,17.6c0,0-0.1,4,2.2,6.3c2.5,2.5,8.7,12.5,37.3,13.3c0.4,0,0.9,0,1.3,0
			c29.8,0.6,36.6-9.8,36.6-9.8s2.5-2.9,2.6-7.8l0.7-43.1l0.1-3.4c0-0.1,0-0.1,0-0.2c-0.1-0.8-0.2-1.5-0.3-2.2c-0.2-1-0.5-2.1-0.8-3
			c0.4,1,0.6,2,0.8,3c0.1-0.7,0.1-1.5-0.1-2.2c1.6,0.5,3.7,0.7,5.5,0c1.1-0.5,2.5-1.5,3.2-3.9c0.7-2.3,0.4-4.2-0.7-5.4
			c-0.2-0.2-0.3-0.3-0.5-0.5C104.1,29.7,105.3,28.4,105.8,26.8z M18.2,43.9c0-0.5,0-0.9,0.1-1.9h0c0.4-3,2.1-6.5,5-9.2
			c9.6-9,29.6-8,30.6-8c0,0,0,0.1,0,0.1c0.1,0-0.1,0,0,0c3.3,0.1,13.1,0.5,22.1,3.4c0,0,0,0,0,0c1,1.5,2.2,2.6,3.5,3.4
			c-1.5,0.8-2.6,2.2-3.3,3.8c-0.9,2.4-0.3,4.9,1.7,6.6c1.7,1.5,3.3,1.6,4.3,1.5c1.1-0.2,2-0.7,2.8-1.2c0.3,0.7,0.7,1.4,1.3,2
			c1,1,2.4,1.5,4,1.6c0.2,0,0.5,0,0.7,0c0.8,0,1.4-0.2,1.9-0.4c0.1,0.4,0.1,0.6,0.1,1c0,0.5-0.1,1.5-0.1,1.5H93v0.3
			c0,3.1-1.8,5.8-4.2,8.1c-8.6,8-27.5,8.1-33.3,8c-0.2-0.1-0.4-0.3-0.6-0.3c0,0,0,0,0,0c-0.2,0-23.3-0.1-32.7-9.9
			c-2.4-2.5-3.7-5.4-3.9-9C18.2,45.1,18.2,44.3,18.2,43.9z M54.9,106.4l0-0.2l-0.4,0c-24.9-0.7-31.7-8.2-34.6-11.4
			c-0.3-0.4-0.6-0.6-0.9-0.9c-1.2-1.2-1.4-3.5-1.4-4.3l0-1.8l0.2-12.4c4.3,4.1,14.8,11.1,38.1,11.7c22.7,0.7,32.6-6.7,36.6-11.4
			l-0.3,15.9c-0.1,3.8-1.9,6.1-2,6.2l-0.1,0.1L90,97.9c-0.2,0.2-1.9,2.4-6.6,4.4c-4.7,2.1-13.2,4.4-27.6,4.2
			C55.4,106.5,54.9,106.4,54.9,106.4z M17.8,75.3C17.8,75.3,17.8,75.3,17.8,75.3l-0.2,11.5L17.8,75.3z M18.1,53.4
			c0.7,0.8,1.2,1.8,1.9,2.6c0,0,0,0.1,0.1,0.2c0,0,0,0.1,0.1,0.1c9.2,9.5,29.1,10.7,33.7,10.8c0.3,0,0.7,0,1.3,0.1
			c3.7,0.1,12.8,0.1,21.5-2.1c5.2-1.3,10.3-3.4,13.9-6.7c0.8-0.7,1.3-1.5,2.2-2.3l0-0.2l0,0.2l-0.2,14.5c0,0.1-0.1,0.2-0.1,0.3
			c0,0-1.4,3.6-6.5,7.1c-4.8,3.2-13.8,7-30,6.5c-27.9-0.8-36.6-11-38.1-13l0.3-17.7C18.1,53.7,18.1,53.4,18.1,53.4
			c0,0-0.1-0.4-0.1-0.4h0v0.7l-0.2,17.7c0,0,0,0,0,0L18.1,53.4c-0.1-0.1,0-0.4,0-0.4h0C18.1,53,18.1,53.4,18.1,53.4z M15.6,44.9
			c0,0.4,0,0.8,0,1.2c0-0.3,0-0.7,0-1L15.6,44.9z M18.1,53.7c0,0-0.1-0.1-0.1-0.1l0-0.1C18,53.5,18.1,53.6,18.1,53.7z M15.6,44
			L15.6,44C15.6,44,15.6,44,15.6,44l0,0.8c0,0,0,0,0,0L15.6,44c0,0.1,0,0.2,0,0.3c0,0,0,0,0,0C15.6,44.2,15.6,44.2,15.6,44z
			 M18,53.5c-1.6-2-2.1-4.1-2.3-6.4C15.9,49.4,16.4,51.6,18,53.5z M90.3,97.7l-0.1,0.1l-0.1,0.2c-0.2,0.2-1.9,2.4-6.6,4.4
			c-4.7,2.1-13.1,4.5-27.5,4.2c0,0-0.1,0-0.1,0c14.3,0.3,22.9-2.1,27.6-4.2c4.7-2.1,6.5-4.2,6.6-4.4l0.1-0.2L90.3,97.7
			c0.1-0.1,1.9-2.3,2-6.2C92.2,95.4,90.3,97.6,90.3,97.7z M103.2,26c-0.6,1.9-3.2,3.3-4.6,3.6c-0.2,0-0.4,0-0.5,0.1
			c-0.7,0.1-1.2,0.8-1.1,1.5c0.1,0.7,0.7,1.2,1.4,1.2c0.2,0,0.3,0,0.5,0c0.7,0,1.8,0,2.4,0.7c0.6,0.7,0.4,2,0.1,2.9
			c-0.3,1.1-0.8,1.8-1.6,2.1c-1.9,0.8-5.1-0.4-6.1-1c-0.1-0.1-0.3-0.1-0.4-0.1c-0.4-0.1-0.8,0.1-1.1,0.4c-0.4,0.4-0.5,1.1-0.2,1.6
			c0.4,0.8,1.2,2.8,0.7,3.7c0,0,0,0,0,0c-0.2,0.4-0.8,0.6-1.6,0.6c-1.2,0.1-2.1-0.2-2.7-0.8c-1.1-1.1-1.1-2.9-1.1-2.9
			c0-0.6-0.4-1.1-0.9-1.3c-0.1,0-0.2-0.1-0.4-0.1c-0.5,0-0.9,0.2-1.2,0.6c-0.3,0.5-1.5,1.9-2.8,2.1c-0.7,0.1-1.4-0.2-2.1-0.8
			c-1.5-1.4-1.2-2.9-0.9-3.6c0.6-1.6,2.4-3.1,4.7-3c0.7,0,1.2-0.5,1.4-1.1c0-0.1,0-0.1,0-0.2c0-0.6-0.3-1.1-0.9-1.3
			c-1.2-0.4-4.6-2-5.3-4.1c-0.1-0.3-0.1-0.5-0.1-0.8c0-0.7,0.3-1.5,1-2.4c2.3-3,4.6-4.3,6.9-3.7c2.1,0.6,3.6,2.5,3.9,4.2
			c0.1,0.6,0.6,1,1.3,1c0,0,0,0,0,0c0.6,0,1.2-0.2,1.3-0.9c0,0,0.8-3.3,3-4.1c1.2-0.5,2.8,0,4.6,1.4C102.8,23,103.6,24.5,103.2,26z"
			/>
	</g>
</g>
<g id="レイヤー_2">
</g>
<g id="レイヤー_3">
</g>
<g id="レイヤー_4">
</g>
<g id="レイヤー_5">
</g>
</svg>
