<?xml version="1.0" encoding="utf-8"?>
<!-- Generator: Adobe Illustrator 19.1.0, SVG Export Plug-In . SVG Version: 6.00 Build 0)  -->
<svg version="1.1" xmlns="http://www.w3.org/2000/svg" xmlns:xlink="http://www.w3.org/1999/xlink" x="0px" y="0px"
	 viewBox="0 0 110 110" style="enable-background:new 0 0 110 110;" xml:space="preserve">
<style type="text/css">
	.st0{fill:none;}
</style>
<g id="レイヤー_1">
	<g>
		<path d="M19.5,40.2c-0.2,0-0.4,0-0.6,0c-0.9-0.1-1.8-0.1-2.7-0.1c-2.7,0-5,0-6.3-1.7c-0.9-1.1-1.2-2.7-0.7-5c0-0.1,0-0.1,0-0.2
			c0.4-1.1,1.3-4.6,0.8-6.7c-0.2-0.8-0.2-2.3,1.6-3.7c2.7-2.1,8.6-3,12.2-1.1c2.1,1.1,3.5,2.7,4,4.6c0.6,2,0.2,4.3-1.1,6.3
			c-0.4,0.6-0.6,1.3-0.9,2.1C25,37,23.9,40.2,19.5,40.2z M12.1,34.1c-0.2,1.2-0.2,2.1,0.1,2.5c0.5,0.6,2.3,0.6,4,0.6
			c0.9,0,1.8,0,2.8,0.1c2.5,0.2,3-0.9,3.9-3.4c0.3-0.9,0.7-1.9,1.2-2.7c0.8-1.3,1.1-2.7,0.7-3.9c-0.3-1.1-1.1-2.1-2.5-2.8
			c-2.5-1.3-7.1-0.6-9,0.9c-0.4,0.3-0.5,0.6-0.5,0.6C13.6,29,12.3,33.4,12.1,34.1z"/>
		<path d="M30.2,20.5c-0.5,0-1.1,0-1.8-0.1c-3.7-0.5-3.8-6.2-3.8-6.8c0-0.4,0.2-0.8,0.4-1.1c1.4-1.4,3.7-1.2,6.4,0.5
			c0.7,0.5,4.2,2.9,3.4,5.1C34.4,19.3,33.3,20.5,30.2,20.5z M27.7,14.6c0.2,1.4,0.6,2.7,1.1,2.8c1.6,0.2,2.6,0.1,3-0.2
			c-0.6-0.8-2.4-2.3-3.9-2.6C27.8,14.6,27.8,14.6,27.7,14.6z"/>
		<path d="M41.6,23.2c-0.7,0-1.3-0.2-1.7-0.3l-0.2,0c-2.3-0.6-3.1-3.7-2.7-5.6c0.1-0.7,0.7-1.3,1.4-1.5c1.8-0.5,4.1,1.5,4.9,2.3
			c1.3,1.4,1.3,2.5,1,3.2C43.7,22.8,42.6,23.2,41.6,23.2z M40,19.3c0.1,0.3,0.3,0.6,0.4,0.7l0.2,0c0.1,0,0.2,0.1,0.4,0.1
			C40.7,19.8,40.4,19.5,40,19.3z"/>
		<path d="M103.5,5.2c-1.9-1.6-4.1-2.2-6.4-1.9c-5.2,0.6-9.4,5.8-10,6.6L73.3,23.9c-0.5,0.3-1.7,1.5-1.9,3.2c-0.1,0.6,0,1.5,0.6,2.5
			l-2.7,2.3c-1.7-1.2-3.2-2.1-4-2.5c-0.2-0.3-0.4-0.4-0.4-0.4c-0.1-0.1-0.2-0.2-0.3-0.2c0,0,0,0,0,0c-0.9-0.4-21.7-9.9-44.7,18.5
			c-0.9-1.1-2.3-1.8-3.9-2c-0.2,0-0.5-0.1-0.8-0.1c-2-0.3-5.7-1-8.1,1.3c-1.5,1.5-2.2,3.9-1.8,7.1c-0.3,1.3-0.8,5.5,1.7,7.2
			c0.8,0.5,1.7,1.2,2.8,1.7c-10.2,19.1-5,29.3-3.7,31.3c0,0.1,0.5,0.8,1,1.3v0c1.3,1.5,4.3,4.5,8.9,7.2c4.1,2.4,10.2,4.7,18,4.7
			c3.1,0,6.6-0.4,10.2-1.3c1.3-0.2,11.8-2,25.9-18.5c0,0,0.1,0,0.1,0c0.6-0.8,14.8-20.6,12.3-35.5c-0.7-4-2.2-7.5-4.2-10.4l2.7-3.1
			c0.2,0.1,0.5,0.2,0.8,0.2c0.1,0,0.3,0,0.4,0c1.4,0,2.8-0.7,4.4-2l15-15.3c0.2-0.2,5.2-4.8,5-9.9C106.5,8.8,105.5,6.8,103.5,5.2z
			 M54,56.7c-5.7-0.5-8,7.2-8.4,9.1c-1.2-0.1-2.8,0.3-4.5,2.4c-0.8,1-0.8,3-0.5,4.5c0.3,1.6,1.1,2.8,2.3,3.5
			c0.9,0.5,1.9,0.7,2.9,0.7c0.6,0,1.3-0.1,1.9-0.3c1.2-0.4,2.2-1.3,2.7-2.3c0.1-0.2,0.1-0.4,0.2-0.6c0.3,0.1,0.6,0.1,1,0.1
			c0.2,0,0.5,0,0.7-0.1c-1,1.1-1.9,2.1-3,3.2C42.1,84.4,36,89,30.9,91.8c0.6-0.7,1.1-1.3,1.4-1.7c1.1-1.7,1-3,0.6-4.2
			c1.4,0,3.4-0.7,5.6-3.4c3-3.5,2.7-5.9,1.9-7.3c-1.1-2-3.9-2.9-7.3-2.3c-1.8,0.3-3.2,1.1-4.1,2.5c-0.7,1-0.9,2.1-0.9,3
			c-0.2-0.1-0.3-0.2-0.5-0.4c-0.5-0.4-0.9-0.6-1.3-0.9c1-0.6,2.1-1.6,3.2-3c0.7-0.8,1.9-2.9,2.2-5c0.2,0.1,0.5,0.2,0.7,0.3
			c1,0.4,2.1,0.6,3.2,0.6c1.9,0,3.6-0.6,4.6-1.2c2.3-1.5,2.8-3.1,3.7-5.6l0.2-0.6c1.5-4.1-1.4-6.5-3-7.8c-0.8-0.7-1.5-1-2.2-1.2
			c0.6-0.6,1.2-1.2,1.9-1.7c0.2,0,0.4,0,0.6,0c0.4,0,0.8-0.1,1.1-0.2c0.9-0.3,1.6-0.9,2-1.8c0.1-0.3,0.3-0.8,0.3-1.3
			c6.6-4.8,14.3-7.6,22.5-5.8c0.1,6.1-2.2,13-7,20.4c0.1-0.7,0.2-1.4,0.2-1.9C60.1,57.6,56.1,56.7,54,56.7z M52.2,70.7
			C51.5,71,50.9,71.1,50,70c-0.1-0.1-0.1-0.2-0.2-0.3c-0.3-0.7-0.7-1.3-1.1-1.9c-0.2-0.5-0.2-0.9-0.2-0.9c0.2-0.7,1.8-7.4,5.4-7.1
			c0.1,0,0.1,0,0.2,0c0,0,3.3-0.1,3.5,2C57.7,63.6,54.9,69.6,52.2,70.7z M47.6,73.2c-0.1,0.2-0.4,0.5-0.9,0.6
			c-0.7,0.3-1.6,0.2-2.3-0.2c-1.1-0.6-1-2.9-0.8-3.5c0.5-0.6,1.3-1.5,2-1.2c0.2,0.1,0.3,0.2,0.5,0.4c0.3,0.6,0.6,1.2,1.1,1.9
			C47.4,72,47.6,72.8,47.6,73.2z M31.5,77c0.4-0.6,1.1-1,2.1-1.2c0.5-0.1,1-0.1,1.4-0.1c1.4,0,2.4,0.4,2.7,1
			c0.4,0.8-0.1,2.2-1.5,3.9c-1.5,1.7-2.8,2.6-3.7,2.2c-0.8-0.3-1.3-1.4-1.3-2.8c0-0.1,0-0.2,0-0.4C31.1,79.7,30.8,78.1,31.5,77z
			 M31.1,63.3c0-0.2-0.1-0.4-0.1-0.7c-0.2-1-0.2-2.5,0.7-3.5c1.5-1.5,2.8-1.9,4.1-2.3c0,0,0,0,0.1,0c0.2,0,0.3-0.1,0.5-0.1
			c0.5-0.1,0.8-0.2,1.2-0.2c0.5,0,1,0.2,1.6,0.7c2.2,1.8,2.6,2.8,2,4.5L41,62.4c-0.8,2.3-1.1,3.2-2.5,4.1c-0.8,0.5-3.1,1.1-4.9,0.3
			c-1.3-0.5-2.1-1.6-2.4-3.3v0L31.1,63.3z M39.9,46.4c0.8-0.5,1.2-0.5,1.4-0.5c0.3,0.2,0.4,0.7,0.5,1.3c0.1,0.6,0.1,1.2,0,1.5
			c-0.1,0.2-0.2,0.3-0.3,0.3c-0.1,0-0.5,0.1-1.5-0.4c0,0,0,0,0,0C39.4,48.2,39.7,47,39.9,46.4z M61.2,30.7c0.9,0.2,1.5,0.5,1.8,0.6
			c0.2,0.2,0.5,0.5,0.8,1c1,1.3,2.5,3.8,3.2,7.6c-7.5-1.4-15.1,0.5-22.6,5.5c-0.3-0.7-0.6-1.3-1.2-1.7c-0.8-0.7-2.6-1.5-5.4,0.5
			c-0.2,0.2-0.4,0.4-0.5,0.6c-0.6,1.4-1.2,4.2,0.5,5.8c-1.3,1.2-2.5,2.4-3.7,3.7c-1.2,0.4-2.8,1.1-4.5,2.8c-1.4,1.4-1.7,3.1-1.7,4.5
			c-0.1,0.1-0.2,0.3-0.3,0.4c-1.7-1.4-3.6-2.4-5.1-1.8c-0.3,0.1-0.6,0.2-0.9,0.3c-0.1,0-0.2,0.1-0.4,0.1c0.4-0.5,0.6-1.2,0.6-2
			c0-1.1-0.2-2.5-0.4-3.7c-0.1-0.8-0.3-1.9-0.3-2.2c0-0.2,0.2-1.1,0-2.3C39.2,27.2,55.7,29.2,61.2,30.7z M22.4,63.3
			c0.4-0.1,0.8-0.3,1-0.3c0,0,0,0,0,0c0.5,0,1.4,0.6,2.3,1.4c0.8,0.7,1.6,1.5,2.2,2.2c0.3,0.3,0.5,0.7,0.7,1
			c0.5,0.9-0.7,3.7-1.5,4.6c-1.7,2.1-2.8,2.6-3.3,2.7c-0.3,0.1-0.7,0-1.1,0c-0.7-0.1-1.6-0.4-2.5-0.9c0-0.1,0-0.4,0-0.7
			c0-0.1,0-0.2,0-0.3c0-0.4,0.1-0.8,0.1-1.2c0-1.2-0.8-2.3-1.5-3.3c-0.3-0.4-0.7-1-0.8-1.3C18.9,64.3,20.7,63.8,22.4,63.3z
			 M8.5,58.2c-0.7-0.4-0.7-2.6-0.4-4.3c0-0.2,0-0.3,0-0.5c-0.2-1.6-0.2-3.8,0.9-4.8c1.3-1.2,3.9-0.8,5.5-0.5c0.4,0.1,0.7,0.1,1,0.1
			c1,0.1,1.7,0.5,2.1,1c0.1,0.1,0.2,0.3,0.3,0.4c0.4,0.9,0.4,2,0.3,2.5c-0.1,0.5,0,1.1,0.1,2c0.1,0.4,0.1,0.8,0.2,1.2
			c0.2,1.1,0.4,2.3,0.4,3.2c0,0.7-2,1.2-3.8,1.6l-0.3,0.1c-0.2,0-0.3,0-0.5,0.1c-1.1,0.1-2.1-0.2-3.1-0.6
			C10.1,59.3,9.3,58.7,8.5,58.2z M9.4,93c-0.5-0.4-0.8-0.7-0.9-0.8C8.4,92,8,91.5,7.6,90.5C6.2,87,4.4,78.1,12.5,63.3
			c0.4,0.1,0.8,0.1,1.2,0.1c0.5,0,1.1-0.1,1.7-0.2l0.3-0.1c0.5-0.1,1-0.2,1.5-0.4c-0.9,0.9-1.6,2-2.1,3.7l0,0
			c-0.4,1.3,0.5,2.5,1.3,3.7c0.3,0.5,0.9,1.3,1,1.6c0,0.3,0,0.6-0.1,0.9c-0.1,0.9-0.1,2,0.5,3c-0.6,0.2-1.1,0.5-1.7,0.8l-0.6,0.3
			c-2.2,1.1-3.5,2.5-5.3,4.7C8,84,8.3,85.6,9,88.3c0.8,2.8,4.7,6.5,5.1,6.9c0.1,0.1,0.1,0.1,0.2,0.1C11.9,94.7,10.3,93.7,9.4,93z
			 M11.9,87.5c-0.6-2.3-0.7-2.7,0.5-4.2c1.6-1.9,2.6-3.1,4.4-4l0.6-0.3c0.1,0,0.2-0.1,0.3-0.1c1.4-0.7,2.2-1,3.3-0.8
			c0.1,0,0.2,0.1,0.3,0.1l0.9,0.3c1.6,0.6,2.4,0.9,3.5,1.8c0.2,0.2,0.4,0.3,0.7,0.5c1.3,0.9,2.5,1.8,2.8,3.3
			c0.2,0.8,0.4,1.4,0.6,1.9c0.4,1.2,0.5,1.5,0,2.3c-1.9,2.8-6.2,7.2-13.8,4.4C14.5,91.4,12.3,88.9,11.9,87.5z M79.6,55.7
			c-0.3,12.9-11.3,28.5-12,29.4c-13.8,16.2-23.9,17.4-24,17.4c-0.1,0-0.1,0.2-0.2,0.2C30.7,106,21.6,102,15.8,99c0,0,0,0,0,0
			c0.4,0,0.8-0.1,1.2-0.1c0.3,0,0.6-0.1,0.9-0.1c9.6,0,20.9-6.6,33.4-19.6c13-13.4,19.3-25.7,18.9-36.6c0-0.7-0.1-1.4-0.2-2.1
			c-0.1-0.4-0.1-0.8-0.2-1.2c0-0.2-0.1-0.5-0.1-0.7c-0.1-0.5-0.3-1.1-0.4-1.6c0-0.1,0-0.1,0-0.2c-0.2-0.5-0.3-1.1-0.5-1.6
			c0,0,0-0.1,0-0.1c4.1,3.3,9.2,8.9,10.5,16.7C79.5,53.1,79.6,54.4,79.6,55.7z M76.7,38.2l-4.9-4.5l2.2-1.8l4.5,4.3L76.7,38.2z
			 M99.5,18.8L84.5,34c-1.5,1.2-2.4,1.4-2.7,1.2l-2.5-2.4l-4.2-4.1c-0.3-0.4-0.8-0.9-0.7-1.3c0-0.5,0.6-1,0.7-1.1l14.2-14.4l0.1-0.2
			c1-1.4,4.5-5.1,8-5.5c1.5-0.2,2.8,0.2,4.1,1.3c1.3,1.1,2,2.3,2,3.6C103.7,14.8,99.6,18.7,99.5,18.8z"/>
	</g>
</g>
<g id="レイヤー_2">
</g>
<g id="レイヤー_3">
</g>
<g id="レイヤー_4">
</g>
<g id="レイヤー_5">
</g>
</svg>
