<?xml version="1.0" encoding="utf-8"?>
<!-- Generator: Adobe Illustrator 19.1.0, SVG Export Plug-In . SVG Version: 6.00 Build 0)  -->
<svg version="1.1" xmlns="http://www.w3.org/2000/svg" xmlns:xlink="http://www.w3.org/1999/xlink" x="0px" y="0px"
	 viewBox="0 0 110 110" style="enable-background:new 0 0 110 110;" xml:space="preserve">
<style type="text/css">
	.st0{fill:none;}
</style>
<g id="レイヤー_1">
	<path d="M104.9,60.4l0-16.2c0.1-1.1-0.3-6.9-13.2-14L68,16.5c-1.1-0.8-7-4.7-16,0.1c-1.8,0.8-27.2,12.3-41.5,22.6
		c-0.7,0.5-5.6,4-5.4,11.4c0,0.6,0.3,13.7,2.3,20.8c0.3,1.2,1.1,2.1,2.2,2.7c0,0,0,0,0,0l38.2,19.6c0.4,0.2,2.9,1.7,6.1,2
		c0.2,0,0.3,0.3,0.5,0.3c0,0,0,0,0,0c0.1,0,0.1-0.2,0.2-0.2c0.2,0,0.4-0.1,0.6-0.1c2.3,0,4.9-0.6,7.5-2.3l39-22.1
		c0.4-0.1,0.8-0.4,1.2-0.8C104.4,68.9,105,65.6,104.9,60.4z M12.8,42.5C27,32.2,53.4,20.3,53.7,20.2c0,0,0.1,0,0.1-0.1
		c7.3-4,11.6-0.6,11.7-0.5c0.1,0.1,0.2,0.2,0.3,0.2l23.9,13.9c4.6,2.6,7.3,4.8,8.9,6.6c-17.3,9.8-43,24.3-44.6,25
		c-0.8,0.4-2-0.6-2.3-0.8c-0.1-0.1-0.3-0.2-0.4-0.3L12.6,42.6c0,0,0.1,0,0.1,0C12.7,42.6,12.8,42.5,12.8,42.5z M49.6,90.2L11.4,70.6
		c-0.1,0-0.2-0.1-0.2-0.2c-1.9-6.6-2.1-19.6-2.1-19.8c-0.1-2,0.4-3.6,1-4.8l39.1,21.7c0.7,0.6,1.7,1.3,2.9,1.6l0.2,22.1
		C50.8,90.9,49.8,90.3,49.6,90.2C49.7,90.2,49.7,90.2,49.6,90.2z M99.6,67.5C99.6,67.6,99.7,67.6,99.6,67.5L60.5,89.9
		c0,0,0,0.1-0.1,0.1c-1.4,0.9-2.8,1.4-4.1,1.6l-0.2-22.8c4.6-2.4,38-21.5,44.2-25c0.1,0.2-0.3,0.4-0.3,0.4c0,0,0,0,0,0v16.3
		C101,65.5,99.9,67.1,99.6,67.5z"/>
</g>
<g id="レイヤー_2">
</g>
<g id="レイヤー_3">
</g>
<g id="レイヤー_4">
</g>
<g id="レイヤー_5">
</g>
</svg>
