<?xml version="1.0" encoding="utf-8"?>
<!-- Generator: Adobe Illustrator 19.1.0, SVG Export Plug-In . SVG Version: 6.00 Build 0)  -->
<svg version="1.1" xmlns="http://www.w3.org/2000/svg" xmlns:xlink="http://www.w3.org/1999/xlink" x="0px" y="0px"
	 viewBox="0 0 110 110" style="enable-background:new 0 0 110 110;" xml:space="preserve">
<style type="text/css">
	.st0{fill:none;}
</style>
<g id="レイヤー_1">
	<g>
		<path d="M84,32.4c-10.5-5.3-9.6-14.3-9.6-14.6c0,0,0-0.1,0-0.1c0.2-3.5,0-8.3-3.2-9.8c-2-0.9-4,0-5.4,1c-1.3-1.1-3.1-2.2-5-1.5
			c-1.2,0.4-1.9,1.4-2.4,2.5c-2-1.9-4.3-3.2-6.6-2.5c-0.6,0.2-1.2,0.5-1.6,0.9c-0.4-0.4-0.8-0.7-1.4-0.9c-1.9-0.7-3.8,0.4-5,1.5
			c-1.4-0.9-3.4-1.8-5.4-1c-3.2,1.4-3.3,6.3-3.2,9.8c0,0,0,0.1,0,0.1c0,0.4,0.9,9.4-9.6,14.6C12.1,39.3,4.2,53.5,4.9,70.3
			c0.6,16.6,13.3,26.2,35.7,27.2c0.6,0.7,1.5,1.6,2.8,2.3c2.3,1.3,4.9,1.5,7.4,0.5c0.3,0.5,0.8,0.9,1.3,1.3c0.3,0.8,1,1.3,1.9,1.3
			c0.4,0,0.8,0,1.2-0.1c0.4,0.1,0.8,0.1,1.2,0.1c0.9,0,1.6-0.5,1.9-1.3c0.5-0.4,1-0.8,1.3-1.3c2.5,1,5,0.8,7.4-0.5
			c1.3-0.7,2.2-1.6,2.8-2.3c22.4-1,35-10.7,35.7-27.2C105.8,53.5,97.9,39.3,84,32.4z M101.2,70.1c-0.4,10.2-6.4,22.5-32.7,23.4
			c-0.6,0-1.2,0.4-1.6,0.9c-0.5,0.7-3.2,4.2-7.2,1.5c-0.6-0.4-1.3-0.4-1.9-0.2c-0.6,0.3-1.1,0.8-1.2,1.5c0,0.1-0.2,1.1-1.5,1.6
			c-1.1-0.4-1.4-1.3-1.5-1.6c-0.1-0.7-0.6-1.2-1.2-1.5c-0.2-0.1-0.5-0.2-0.8-0.2c-0.4,0-0.8,0.1-1.1,0.3c-4.1,2.7-6.7-0.7-7.2-1.4
			c0,0,0,0-0.1-0.1c-0.1-0.1-0.1-0.2-0.2-0.2c0,0-0.1-0.1-0.1-0.1c-0.1-0.1-0.1-0.1-0.2-0.2c0,0-0.1-0.1-0.1-0.1c0,0,0,0-0.1,0
			C29.1,87.6,21.8,80,20.7,71c-2.2-17,17.9-33.8,18.2-34c12.3-10.8,8.8-17.2,8.4-17.9l-1.7,1.1l-1.7,1c0,0,2,4.4-7.5,12.8
			c-0.9,0.7-22,18.4-19.5,37.6c1.1,8.1,6.2,15.1,15.2,21c-18.2-3.3-22.7-13.6-23-22.4C8.3,55,15.3,42.2,27.7,36
			c12.7-6.3,11.9-17.4,11.8-18.6c-0.2-5,0.8-5.8,0.8-5.8c0.4-0.1,1.6,0.6,2.5,1.4c0.4,0.4,0.9,0.6,1.5,0.6c0.5,0,1.1-0.3,1.4-0.7
			c1-1.1,1.7-1.5,2-1.7c0.3,0.5,0.6,1.9,0.6,3c0,1.1,0.9,2,1.9,2c1.1,0,2-0.8,2.1-1.9c0.1-1.5,0.7-3,1.1-3.1c0,0,1.4-0.2,5,4.3
			c0.5,0.7,1.4,0.9,2.2,0.6c0.8-0.3,1.3-1,1.3-1.9c0-1.1,0.3-2.5,0.6-3c0.3,0.1,0.9,0.5,2,1.7c0.4,0.4,0.9,0.6,1.4,0.7
			c0.5,0,1.1-0.2,1.5-0.6c0.8-0.8,2.1-1.5,2.5-1.4c0,0,1,0.8,0.8,5.9c-0.1,1.2-0.9,12.3,11.8,18.6C94.7,42.2,101.7,55,101.2,70.1z"
			/>
		<path d="M71.1,38.3L70.7,38c-7.6-5.9-5.9-18-5.9-18.1c0.2-1.1-0.6-2.1-1.7-2.3c-1.1-0.2-2.1,0.6-2.3,1.7
			c-0.1,0.6-2.1,14.6,7.4,21.9l0.4,0.3c8.5,6.5,21.4,16.4,8.4,41.9c-0.5,1-0.1,2.2,0.9,2.7c0.3,0.1,0.6,0.2,0.9,0.2
			c0.7,0,1.4-0.4,1.8-1.1C95.2,56.7,80.1,45.2,71.1,38.3z"/>
		<path d="M52.7,17.5c-1.1,0.1-1.9,1.1-1.8,2.2c0,0.6,4.6,55.2,2,67.4c-0.2,1.1,0.5,2.1,1.5,2.4c0.1,0,0.3,0,0.4,0
			c0.9,0,1.8-0.6,2-1.6c2.7-12.8-1.8-66.3-2-68.6C54.8,18.3,53.8,17.5,52.7,17.5z"/>
		<path d="M39.8,47.3c0.6-0.9,0.4-2.2-0.5-2.8c-0.9-0.6-2.2-0.4-2.8,0.5c-0.1,0.2-3.6,5.4-4.3,13.9c-0.6,7.7,1.3,19.9,13.1,33.9
			c0.4,0.5,1,0.7,1.5,0.7c0.5,0,0.9-0.2,1.3-0.5c0.8-0.7,0.9-2,0.2-2.8C27.7,65.8,39.3,48.1,39.8,47.3z"/>
	</g>
</g>
<g id="レイヤー_2">
</g>
<g id="レイヤー_3">
</g>
<g id="レイヤー_4">
</g>
<g id="レイヤー_5">
</g>
</svg>
